<svg width="50" height="12" viewBox="0 0 50 12" fill="none" xmlns="http://www.w3.org/2000/svg">
<path d="M34.0225 0L16.0198 -7.8692e-07L21.0563 5.03647L28.986 5.03647L34.0225 0Z" fill="black"/>
<path d="M31.772 0L18.27 -5.90189e-07L21.6991 3.42909L28.3429 3.42909L31.772 0Z" fill="white"/>
<path d="M29.522 0L20.4671 -3.95803e-07L22.3423 1.87528L27.6467 1.87528L29.522 0Z" fill="black"/>
<path d="M34.0225 11.6267L28.986 6.59021L21.0563 6.59021L16.0198 11.6267L34.0225 11.6267Z" fill="black"/>
<path d="M31.772 11.6267L28.3429 8.19763L21.6991 8.19763L18.27 11.6267L31.772 11.6267Z" fill="white"/>
<path d="M29.522 11.6266L27.6467 9.75134L22.3423 9.75134L20.4671 11.6266L29.522 11.6266Z" fill="black"/>
<path d="M13.7697 -2.55281e-07L19.6099 5.78653L13.7697 11.6267L5.83994 11.6267L-0.000150933 5.78652L5.83994 -6.01902e-07L13.7697 -2.55281e-07Z" fill="black"/>
<path d="M2.25 5.78655L6.48278 1.55383L13.1266 1.55383L17.3594 5.78655L13.1266 10.0193L6.48278 10.0193L2.25 5.78655Z" fill="white"/>
<path d="M6.91137 7.01884L8.09015 7.01884C8.35805 7.01884 8.57235 7.23317 8.57235 7.50107C8.57235 8.09044 8.9474 8.62619 9.53677 8.73335C10.3405 8.89409 10.9834 8.30474 10.9834 7.55463L10.9834 7.50107C10.9834 7.23317 11.1977 7.01884 11.4656 7.01884L12.6444 7.01884C13.2338 7.01884 13.7696 6.64376 13.8767 6.05439C14.0375 5.2507 13.4481 4.60777 12.698 4.60777L11.4656 4.60777C11.1977 4.60777 10.9834 4.39344 10.9834 4.12554C10.9834 3.58975 10.6619 3.10756 10.1797 2.94683C9.37604 2.67893 8.57235 3.32187 8.57235 4.07198L8.57235 4.12554C8.57235 4.39344 8.35805 4.60777 8.09015 4.60777L6.8578 4.60777C6.10769 4.60777 5.51835 5.30428 5.67909 6.05439C5.83982 6.64376 6.322 7.01884 6.91137 7.01884Z" fill="black"/>
<path d="M36.273 -5.99558e-07L30.4328 5.78652L36.273 11.6267L44.2027 11.6267L49.9893 5.78653L44.2027 -2.52939e-07L36.273 -5.99558e-07Z" fill="black"/>
<path d="M47.7925 5.78655L43.5061 1.55383L36.9159 1.55383L32.6831 5.78655L36.9159 10.0193L43.5061 10.0193L47.7925 5.78655Z" fill="white"/>
<path d="M43.0775 7.01884L41.8987 7.01884C41.6309 7.01884 41.4165 7.23317 41.4165 7.50107C41.4165 8.09044 41.0415 8.62619 40.4521 8.73335C39.6484 8.89409 39.0055 8.30474 39.0055 7.55463L39.0055 7.50107C39.0055 7.23317 38.7912 7.01884 38.5233 7.01884L37.3445 7.01884C36.7551 7.01884 36.2193 6.64376 36.1122 6.05439C35.9515 5.2507 36.5408 4.60777 37.2909 4.60777L38.5233 4.60777C38.7912 4.60777 39.0055 4.39344 39.0055 4.12554C39.0055 3.58975 39.3269 3.10756 39.8091 2.94683C40.6128 2.67893 41.4165 3.32187 41.4165 4.07198L41.4165 4.12554C41.4165 4.39344 41.6309 4.60777 41.8987 4.60777L43.1311 4.60777C43.8812 4.60777 44.4706 5.30428 44.3098 6.05439C44.2027 6.64376 43.6669 7.01884 43.0775 7.01884Z" fill="black"/>
<path d="M40.2379 3.64331C40.1844 3.64331 40.1308 3.64331 40.1308 3.64331C39.97 3.69689 39.9164 3.85767 39.9164 4.0184C39.9164 4.76852 39.3271 5.35789 38.577 5.35789L37.3446 5.35789C37.2375 5.35789 37.1303 5.41143 37.0768 5.51859C37.0232 5.57217 36.9696 5.67938 37.0232 5.84011C37.0768 6.00085 37.2375 6.10801 37.3982 6.10801L38.577 6.10801C39.3271 6.10801 39.9164 6.69738 39.9164 7.44749L39.9164 7.50106C39.9164 7.71538 40.0772 7.87609 40.2915 7.87609C40.3451 7.87609 40.3451 7.87609 40.3987 7.87609C40.5594 7.82251 40.6666 7.6618 40.6666 7.50106C40.6666 6.75095 41.2559 6.16158 42.0061 6.16158L43.1848 6.16158C43.3991 6.16158 43.5598 6.05442 43.5598 5.89368C43.6134 5.73294 43.5598 5.6258 43.5063 5.57222C43.4527 5.46506 43.3455 5.41145 43.2384 5.41145L42.0061 5.41145C41.2559 5.41145 40.6666 4.82208 40.6666 4.07197L40.6666 4.0184C40.613 3.85767 40.3987 3.64331 40.2379 3.64331Z" fill="black"/>
</svg>
