<svg width="50" height="12" viewBox="0 0 50 12" fill="none" xmlns="http://www.w3.org/2000/svg">
<path d="M34.0225 0L16.0198 -7.8692e-07L21.0563 5.03647L28.986 5.03647L34.0225 0Z" fill="black"/>
<path d="M31.772 0L18.27 -5.90189e-07L21.6991 3.42909L28.3429 3.42909L31.772 0Z" fill="white"/>
<path d="M29.522 0L20.4671 -3.95803e-07L22.3423 1.87528L27.6467 1.87528L29.522 0Z" fill="black"/>
<path d="M34.0225 11.6263L28.986 6.58984L21.0563 6.58984L16.0198 11.6263L34.0225 11.6263Z" fill="black"/>
<path d="M31.772 11.6264L28.3429 8.19727L21.6991 8.19727L18.27 11.6264L31.772 11.6264Z" fill="white"/>
<path d="M29.522 11.6263L27.6467 9.75098L22.3423 9.75098L20.4671 11.6263L29.522 11.6263Z" fill="black"/>
<path d="M13.7697 -2.55281e-07L19.6099 5.78653L13.7697 11.6267L5.83994 11.6267L-0.000150933 5.78652L5.83994 -6.01902e-07L13.7697 -2.55281e-07Z" fill="black"/>
<path d="M2.25 5.78642L6.48278 1.55371L13.1266 1.55371L17.3594 5.78642L13.1266 10.0192L6.48278 10.0192L2.25 5.78642Z" fill="white"/>
<path d="M6.91137 7.01872L8.09015 7.01872C8.35805 7.01872 8.57235 7.23305 8.57235 7.50094C8.57235 8.09032 8.9474 8.62607 9.53677 8.73323C10.3405 8.89397 10.9834 8.30462 10.9834 7.55451L10.9834 7.50094C10.9834 7.23305 11.1977 7.01872 11.4656 7.01872L12.6444 7.01872C13.2338 7.01872 13.7696 6.64364 13.8767 6.05426C14.0375 5.25058 13.4481 4.60765 12.698 4.60765L11.4656 4.60765C11.1977 4.60765 10.9834 4.39332 10.9834 4.12542C10.9834 3.58963 10.6619 3.10744 10.1797 2.9467C9.37604 2.67881 8.57235 3.32175 8.57235 4.07186L8.57235 4.12542C8.57235 4.39332 8.35805 4.60765 8.09015 4.60765L6.8578 4.60765C6.10769 4.60765 5.51835 5.30415 5.67909 6.05426C5.83982 6.64364 6.322 7.01872 6.91137 7.01872Z" fill="black"/>
<path d="M36.273 -5.99558e-07L30.4328 5.78652L36.273 11.6267L44.2027 11.6267L49.9893 5.78653L44.2027 -2.52939e-07L36.273 -5.99558e-07Z" fill="black"/>
<path d="M47.7925 5.78642L43.5061 1.55371L36.9159 1.55371L32.6831 5.78642L36.9159 10.0192L43.5061 10.0192L47.7925 5.78642Z" fill="white"/>
<path d="M43.0775 7.01872L41.8987 7.01872C41.6309 7.01872 41.4165 7.23305 41.4165 7.50094C41.4165 8.09032 41.0415 8.62607 40.4521 8.73323C39.6484 8.89397 39.0055 8.30462 39.0055 7.55451L39.0055 7.50094C39.0055 7.23305 38.7912 7.01872 38.5233 7.01872L37.3445 7.01872C36.7551 7.01872 36.2193 6.64364 36.1122 6.05426C35.9515 5.25057 36.5408 4.60765 37.2909 4.60765L38.5233 4.60765C38.7912 4.60765 39.0055 4.39332 39.0055 4.12542C39.0055 3.58963 39.3269 3.10744 39.8091 2.9467C40.6128 2.67881 41.4165 3.32175 41.4165 4.07186L41.4165 4.12542C41.4165 4.39332 41.6309 4.60765 41.8987 4.60765L43.1311 4.60765C43.8812 4.60765 44.4706 5.30415 44.3098 6.05426C44.2027 6.64364 43.6669 7.01872 43.0775 7.01872Z" fill="black"/>
<path d="M40.2379 3.64355C40.1844 3.64355 40.1308 3.64355 40.1308 3.64355C39.97 3.69713 39.9164 3.85791 39.9164 4.01865C39.9164 4.76876 39.3271 5.35813 38.577 5.35813L37.3446 5.35813C37.2375 5.35813 37.1303 5.41167 37.0768 5.51883C37.0232 5.57241 36.9696 5.67962 37.0232 5.84036C37.0768 6.0011 37.2375 6.10825 37.3982 6.10825L38.577 6.10825C39.3271 6.10825 39.9164 6.69763 39.9164 7.44774L39.9164 7.5013C39.9164 7.71562 40.0772 7.87633 40.2915 7.87633C40.3451 7.87633 40.3451 7.87633 40.3987 7.87633C40.5594 7.82275 40.6666 7.66204 40.6666 7.5013C40.6666 6.75119 41.2559 6.16182 42.0061 6.16182L43.1848 6.16182C43.3991 6.16182 43.5598 6.05466 43.5598 5.89392C43.6134 5.73319 43.5598 5.62604 43.5063 5.57246C43.4527 5.4653 43.3455 5.4117 43.2384 5.4117L42.0061 5.4117C41.2559 5.4117 40.6666 4.82233 40.6666 4.07222L40.6666 4.01865C40.613 3.85791 40.3987 3.64355 40.2379 3.64355Z" fill="black"/>
</svg>
