<svg xmlns="http://www.w3.org/2000/svg" viewBox="0 0 97.92 97.92"><defs><style>.cls-1{fill:#66570f;}.cls-2{fill:#2f2725;}.cls-3{fill:#4b7885;}.cls-4{fill:#fefde8;}.cls-5{fill:#004657;}.cls-6{fill:#84c0a9;}</style></defs><g id="图层_2" data-name="图层 2"><g id="文件图层"><path class="cls-1" d="M52.13,0H78.6a18,18,0,0,1-11,3.64S61.18,10.58,52.13,0Z"/><path class="cls-2" d="M43.42,0h8.71c9,10.58,15.5,3.64,15.5,3.64A18,18,0,0,0,78.6,0h6.55C80.7,6.59,70.44,7.2,70.44,7.2a8.48,8.48,0,0,1-11,3c-2,3-4.56,3.46-6.67,3.07C52.42,8.78,49.79,3.86,43.42,0Z"/><path class="cls-2" d="M51.81,19.44c.15-.36.3-.73.43-1.13a13.29,13.29,0,0,0,.56-5.09c2.11.39,4.62-.05,6.67-3.07a8.48,8.48,0,0,0,11-2.95S80.7,6.59,85.15,0h7C88.57,7.77,81.4,13.73,73.63,13.16a14.41,14.41,0,0,1-12.27,4.06,12.08,12.08,0,0,1-5.54,2.3A12.73,12.73,0,0,1,51.81,19.44Z"/><path class="cls-3" d="M48.54,23.69a11.23,11.23,0,0,0,3.27-4.25,12.73,12.73,0,0,0,4,.08,12.08,12.08,0,0,0,5.54-2.3,14.41,14.41,0,0,0,12.27-4.06C81.4,13.73,88.57,7.77,92.16,0h5.76c-.65,11.54-12.34,20.45-20.07,19.89A14.42,14.42,0,0,1,65.58,24,12,12,0,0,1,60,26.25C56.18,26.8,51.51,25.11,48.54,23.69Z"/><path class="cls-1" d="M0,52.13V78.6a18,18,0,0,0,3.64-11S10.58,61.18,0,52.13Z"/><path class="cls-2" d="M0,43.42v8.71c10.58,9,3.64,15.5,3.64,15.5A18,18,0,0,1,0,78.6v6.55C6.59,80.7,7.2,70.44,7.2,70.44a8.48,8.48,0,0,0,3-11c3-2,3.46-4.56,3.07-6.67C8.78,52.42,3.86,49.79,0,43.42Z"/><path class="cls-2" d="M19.44,51.81c-.36.15-.73.3-1.13.43a13.29,13.29,0,0,1-5.09.56c.39,2.11-.05,4.62-3.07,6.67a8.48,8.48,0,0,1-2.95,11S6.59,80.7,0,85.15v7C7.77,88.57,13.73,81.4,13.16,73.63a14.41,14.41,0,0,0,4.06-12.27,12.08,12.08,0,0,0,2.3-5.54A12.73,12.73,0,0,0,19.44,51.81Z"/><path class="cls-3" d="M23.69,48.54a11.23,11.23,0,0,1-4.25,3.27,12.73,12.73,0,0,1,.08,4,12.08,12.08,0,0,1-2.3,5.54,14.41,14.41,0,0,1-4.06,12.27C13.73,81.4,7.77,88.57,0,92.16v5.76c11.54-.65,20.45-12.34,19.89-20.07A14.42,14.42,0,0,0,24,65.58,12,12,0,0,0,26.25,60C26.8,56.18,25.11,51.51,23.69,48.54Z"/><path class="cls-4" d="M0,18.66V0H18.66C20,3.13,20.55,6.85,17.47,9.18c0,0,4.58,5,.8,9.08-4.09,3.79-9.09-.79-9.09-.79C6.85,20.55,3.14,20,0,18.66Z"/><path class="cls-5" d="M0,26.7v-8C3.14,20,6.85,20.55,9.18,17.47c0,0,5,4.58,9.09.79,3.78-4.08-.8-9.08-.8-9.08C20.55,6.85,20,3.13,18.66,0h8c5,6.55-.77,12-.77,12,6.21,7.52-.81,13.16-.81,13.16s-5.65,7-13.17.82C12,25.93,6.55,31.68,0,26.7Z"/><path class="cls-2" d="M0,33.92V26.7c6.55,5,12-.77,12-.77,7.52,6.21,13.17-.82,13.17-.82s7-5.64.81-13.16c0,0,5.75-5.4.77-11.95h7.22A14.51,14.51,0,0,1,35,5.16a14.71,14.71,0,0,1-1.59,7,14.62,14.62,0,0,1,1.29,7.54A18.2,18.2,0,0,1,29.9,29.9a18.14,18.14,0,0,1-10.25,4.83,14.62,14.62,0,0,1-7.54-1.29A14.71,14.71,0,0,1,5.16,35,14.51,14.51,0,0,1,0,33.92Z"/><path class="cls-6" d="M0,40.11V33.92A14.51,14.51,0,0,0,5.16,35a14.71,14.71,0,0,0,7-1.59,14.62,14.62,0,0,0,7.54,1.29A18.14,18.14,0,0,0,29.9,29.9a18.2,18.2,0,0,0,4.83-10.25,14.62,14.62,0,0,0-1.29-7.54A14.71,14.71,0,0,0,35,5.16,14.51,14.51,0,0,0,33.92,0H40.1C44.74,2.24,48,5.08,49.78,8.48a13,13,0,0,1,1.38,4.25,11.61,11.61,0,0,1-.44,5.09,10.33,10.33,0,0,1-.49,1.26A9.73,9.73,0,0,1,47,22.88a9.33,9.33,0,0,1-2.54,1.27l-1.07.29.62.92c5.13,7.5-2.55,15.34-2.91,15.7h0c-.11.11-8.18,8.06-15.7,2.91l-.91-.62-.3,1.07a9.89,9.89,0,0,1-6.33,6.3,12,12,0,0,1-9.34-.94C5.08,48,2.24,44.74,0,40.11Z"/><path class="cls-4" d="M0,43.42V40.11C2.24,44.74,5.08,48,8.48,49.78a12,12,0,0,0,9.34.94,9.89,9.89,0,0,0,6.33-6.3l.3-1.07.91.62c7.52,5.15,15.59-2.8,15.7-2.91h0c.36-.36,8-8.2,2.91-15.7l-.62-.92,1.07-.29A9.33,9.33,0,0,0,47,22.88a9.73,9.73,0,0,0,3.27-3.8,10.33,10.33,0,0,0,.49-1.26,11.61,11.61,0,0,0,.44-5.09,13,13,0,0,0-1.38-4.25C48,5.08,44.74,2.24,40.1,0h3.32c6.37,3.86,9,8.78,9.38,13.22a13.29,13.29,0,0,1-.56,5.09c-.13.4-.28.77-.43,1.13a11.23,11.23,0,0,1-3.27,4.25,12.13,12.13,0,0,1-2.72,1.63c4.77,8.33-3.52,16.75-3.64,16.86a20.88,20.88,0,0,1-5.35,3.65c-3.16,1.49-7.35,2.37-11.51,0a11.43,11.43,0,0,1-7,6.42C13,54,5.44,52.38,0,43.42Z"/></g></g></svg>