<svg xmlns="http://www.w3.org/2000/svg" viewBox="0 0 86.72 86.72"><defs><style>.cls-1{fill:none;stroke:#231815;stroke-miterlimit:10;stroke-width:0.69px;}.cls-2{fill:#ce8435;}.cls-3{fill:#e4bd68;}.cls-4{fill:#526d8b;}.cls-5{fill:#d2e2e5;}.cls-6{fill:#7aadc3;}.cls-7{fill:#004657;}.cls-8{fill:#d6e9d1;}.cls-9{fill:#4d8e5b;}.cls-10{fill:#7eb383;}.cls-11{fill:#243c23;}</style></defs><g id="图层_2" data-name="图层 2"><g id="文件图层"><path class="cls-1" d="M22.22,26a53.88,53.88,0,0,0-5.82-9.21,4,4,0,0,0,.41-.41A53.88,53.88,0,0,0,26,22.22,17.12,17.12,0,0,1,22.22,26Z"/><path class="cls-2" d="M0,19.63V0H19.63a19.41,19.41,0,0,1-2.17,9,19.87,19.87,0,0,1-1.73,2.78,20.92,20.92,0,0,1-1.85,2.13,19.89,19.89,0,0,1-2.13,1.85A18.88,18.88,0,0,1,9,17.46,19.43,19.43,0,0,1,0,19.63Z"/><path class="cls-3" d="M0,86.72V81.14A45.74,45.74,0,0,0,19.43,55.88a39.86,39.86,0,0,0,2-12.87c0-.57,0-1.13-.05-1.69a44.24,44.24,0,0,0-.52-4.72c-.16-.88-.33-1.73-.52-2.58a46.36,46.36,0,0,0-1.82-5.94,52.41,52.41,0,0,0-4.58-9.16,21.73,21.73,0,0,1-2.63,1.68,20.52,20.52,0,0,1-2,1A23.51,23.51,0,0,1,0,23.5V19.63a19.43,19.43,0,0,0,9-2.17,18.88,18.88,0,0,0,2.77-1.73,19.89,19.89,0,0,0,2.13-1.85,20.92,20.92,0,0,0,1.85-2.13A19.87,19.87,0,0,0,17.46,9a19.41,19.41,0,0,0,2.17-9h3.86a23.49,23.49,0,0,1-1.88,9.23c-.3.7-.64,1.38-1,2a20.58,20.58,0,0,1-1.68,2.63h0a53.13,53.13,0,0,0,9.13,4.57,48.7,48.7,0,0,0,6,1.82c.85.19,1.7.36,2.58.52a44.24,44.24,0,0,0,4.72.52c.56,0,1.12.05,1.69.05a39.86,39.86,0,0,0,12.87-2A45.73,45.73,0,0,0,81.14,0h5.58A45.82,45.82,0,0,1,58.4,25.17a40.18,40.18,0,0,1-11.31,2c-1,0-2.06,0-3.07,0-.84,0-1.68-.11-2.5-.21a42.08,42.08,0,0,1-6-1.1c-1-.27-2-.57-3-.9A48,48,0,0,1,26,22.22a17.12,17.12,0,0,1-3.8,3.8,49.38,49.38,0,0,1,2.69,6.46c.32,1,.62,2,.89,3a43.38,43.38,0,0,1,1.11,6c.09.82.16,1.65.2,2.49.05,1,.06,2,0,3.07a40.18,40.18,0,0,1-2,11.31A45.82,45.82,0,0,1,0,86.72Z"/><path class="cls-4" d="M21.61,9.24A23.49,23.49,0,0,0,23.49,0H46.62C38,8,27.64,9.29,21.61,9.24Z"/><path class="cls-5" d="M18.94,13.93A36.88,36.88,0,0,0,29.17,14a35.87,35.87,0,0,0,4.58-.83q.69-.16,1.38-.36A33.62,33.62,0,0,0,53.45,0H81.14A45.73,45.73,0,0,1,55.88,19.43a39.86,39.86,0,0,1-12.87,2c-.57,0-1.13,0-1.69-.05a44.24,44.24,0,0,1-4.72-.52c-.88-.16-1.73-.33-2.58-.52a48.7,48.7,0,0,1-6-1.82A53.13,53.13,0,0,1,18.94,13.93Z"/><path class="cls-5" d="M13.93,18.94A36.88,36.88,0,0,1,14,29.17a35.87,35.87,0,0,1-.83,4.58q-.16.69-.36,1.38A33.62,33.62,0,0,1,0,53.45V81.14A45.73,45.73,0,0,0,19.43,55.88a39.86,39.86,0,0,0,2-12.87c0-.57,0-1.13-.05-1.69a44.24,44.24,0,0,0-.52-4.72c-.16-.88-.33-1.73-.52-2.58a48.7,48.7,0,0,0-1.82-6A53.13,53.13,0,0,0,13.93,18.94Z"/><path class="cls-6" d="M18.93,13.93h0a20.58,20.58,0,0,0,1.68-2.63c6,.32,19-.44,28.83-11.28h4A33.62,33.62,0,0,1,35.13,12.83q-.69.2-1.38.36a35.87,35.87,0,0,1-4.58.83,36.88,36.88,0,0,1-10.23-.09Z"/><path class="cls-7" d="M27.14,47.09c0-1,0-2.06,0-3.07A17,17,0,0,0,44,27.11c1,0,2,.06,3.07,0a16.41,16.41,0,0,1,.35,3.06A17,17,0,0,1,30.2,47.44,16.41,16.41,0,0,1,27.14,47.09Z"/><path class="cls-8" d="M27.11,44c0-.84-.11-1.67-.2-2.49A17.08,17.08,0,0,0,41.52,26.9c.82.1,1.66.17,2.5.21A17,17,0,0,1,27.11,44Z"/><path class="cls-9" d="M26.91,41.53a43.38,43.38,0,0,0-1.11-6,17.23,17.23,0,0,0,9.69-9.69,42.08,42.08,0,0,0,6,1.1A17.08,17.08,0,0,1,26.91,41.53Z"/><path class="cls-10" d="M25.8,35.49c-.27-1-.57-2-.89-3a17.18,17.18,0,0,0,7.57-7.58c1,.33,2,.63,3,.9A17.23,17.23,0,0,1,25.8,35.49Z"/><path class="cls-11" d="M24.91,32.48A49.38,49.38,0,0,0,22.22,26a17.12,17.12,0,0,0,3.8-3.8,48,48,0,0,0,6.46,2.68A17.18,17.18,0,0,1,24.91,32.48Z"/><path class="cls-7" d="M20.6,11.29c.37-.67.71-1.35,1-2,6,0,16.42-1.23,25-9.24h2.81C39.63,10.85,26.6,11.61,20.6,11.29Z"/><path class="cls-4" d="M9.24,21.61A23.49,23.49,0,0,1,0,23.49H0V46.62C8,38,9.29,27.64,9.24,21.61Z"/><path class="cls-6" d="M13.93,18.93h0a20.58,20.58,0,0,1-2.63,1.68c.32,6-.44,19-11.28,28.83v4A33.62,33.62,0,0,0,12.83,35.13q.2-.69.36-1.38A35.87,35.87,0,0,0,14,29.17a36.88,36.88,0,0,0-.09-10.23Z"/><path class="cls-7" d="M11.29,20.6c-.67.37-1.35.71-2,1,0,6-1.23,16.42-9.24,25v2.81C10.85,39.63,11.61,26.6,11.29,20.6Z"/></g></g></svg>