<svg width="31" height="31" viewBox="0 0 31 31" fill="none" xmlns="http://www.w3.org/2000/svg">
<g clip-path="url(#clip0_658_1586)">
<path d="M15.5852 29.3331C15.1093 29.8567 14.5293 30.2753 13.8825 30.5623C13.2356 30.8493 12.536 30.9984 11.8283 31C11.1524 30.9996 10.4832 30.8662 9.85891 30.6072C9.2346 30.3483 8.66742 29.969 8.18976 29.491C7.71209 29.013 7.33329 28.4456 7.07498 27.8212C6.81668 27.1969 6.68392 26.5278 6.6843 25.8521C6.69057 25.2671 6.79409 24.6872 6.99063 24.1361C6.40583 24.3727 5.78062 24.4933 5.14976 24.4915C4.11732 24.4936 3.10825 24.1843 2.25452 23.6039C1.40079 23.0235 0.742124 22.1991 0.364664 21.2385C-0.0127959 20.2778 -0.0914859 19.2257 0.138884 18.2197C0.369254 17.2136 0.897962 16.3005 1.65587 15.5997C0.892021 14.899 0.358074 13.9837 0.124178 12.9741C-0.109719 11.9644 -0.0326233 10.9077 0.345336 9.9427C0.723294 8.97769 1.38444 8.14953 2.2419 7.56704C3.09937 6.98455 4.11305 6.67496 5.14976 6.67896C5.73257 6.68462 6.30979 6.79317 6.85481 6.99962C6.62442 6.40918 6.50396 5.78162 6.49935 5.14788C6.49802 4.11361 6.8096 3.10312 7.39319 2.24907C7.97677 1.39503 8.80508 0.737355 9.76935 0.362413C10.7336 -0.0125291 11.7888 -0.0872161 12.7963 0.148159C13.8038 0.383533 14.7166 0.917966 15.4147 1.68129C16.1124 0.917495 17.025 0.382622 18.0325 0.146978C19.04 -0.0886653 20.0953 -0.014049 21.0595 0.361018C22.0238 0.736086 22.852 1.39405 23.4352 2.24841C24.0184 3.10278 24.3294 4.11356 24.3272 5.14788C24.317 5.73352 24.2096 6.31341 24.0093 6.86384C24.7868 6.55825 25.6274 6.44758 26.4576 6.54152C27.2878 6.63545 28.0824 6.93112 28.7719 7.40272C29.4615 7.87431 30.025 8.50749 30.4134 9.24695C30.8018 9.98641 31.0032 10.8097 31 11.6448C31.0002 12.3515 30.853 13.0504 30.5679 13.697C30.2828 14.3436 29.866 14.9237 29.344 15.4003C30.1076 16.0999 30.6417 17.014 30.8762 18.0225C31.1107 19.031 31.0347 20.0868 30.658 21.0514C30.2814 22.0159 29.6218 22.844 28.7658 23.427C27.9098 24.01 26.8975 24.3207 25.8617 24.3181C25.2752 24.3148 24.6939 24.2072 24.1451 24.0004C24.3755 24.5908 24.496 25.2184 24.5006 25.8521C24.5048 26.8876 24.1954 27.9001 23.6129 28.7564C23.0304 29.6127 22.2022 30.2727 21.2373 30.6494C20.2724 31.0262 19.216 31.1021 18.2071 30.8671C17.1983 30.6322 16.2842 30.0974 15.5852 29.3331Z" fill="black"/>
<path d="M1.39014 19.3551C1.39005 18.8386 1.49769 18.3279 1.70618 17.8553C1.91467 17.3828 2.21943 16.9589 2.60101 16.6107L3.69339 15.5996L2.60101 14.5799C2.04723 14.0674 1.66066 13.4002 1.49166 12.665C1.32265 11.9298 1.37904 11.1608 1.65348 10.4581C1.92793 9.75543 2.4077 9.15165 3.03031 8.72542C3.65292 8.29918 4.3895 8.07025 5.14412 8.06845C5.56433 8.0741 5.98019 8.1543 6.37233 8.30534L9.24779 9.3482L8.15829 6.50271C7.98911 6.07078 7.9 5.61168 7.89531 5.14785C7.89531 4.15183 8.29112 3.19662 8.99567 2.49233C9.70022 1.78804 10.6558 1.39237 11.6522 1.39237C12.1681 1.3925 12.6783 1.49992 13.1505 1.70781C13.6226 1.91569 14.0464 2.21949 14.3947 2.5999L15.4148 3.69766L16.4321 2.5999C16.7797 2.21679 17.2034 1.91027 17.676 1.69988C18.1487 1.48949 18.6601 1.37984 19.1775 1.37793C20.1739 1.37793 21.1295 1.77359 21.834 2.47788C22.5386 3.18217 22.9344 4.13739 22.9344 5.1334C22.9235 5.56658 22.8415 5.99502 22.6916 6.4016L21.7322 9.22687L24.5094 8.16089C25.0763 7.9357 25.6898 7.85312 26.2961 7.92041C26.9024 7.98771 27.4829 8.20282 27.9866 8.54685C28.4903 8.89088 28.9017 9.35329 29.1848 9.89346C29.4679 10.4336 29.6139 11.035 29.6101 11.6448C29.6127 12.1603 29.5068 12.6705 29.2992 13.1424C29.0916 13.6142 28.7869 14.0371 28.405 14.3834L27.2923 15.4003L28.3992 16.4258C28.7808 16.774 29.0855 17.1979 29.294 17.6704C29.5025 18.143 29.6101 18.6538 29.6101 19.1702C29.6101 20.1662 29.2142 21.1214 28.5097 21.8257C27.8051 22.53 26.8496 22.9257 25.8532 22.9257C25.4283 22.922 25.0076 22.8428 24.6105 22.6917L21.7611 21.6662L22.8448 24.5088C23.0157 24.9413 23.1059 25.4015 23.1107 25.8665C23.1148 26.6226 22.8895 27.3621 22.4645 27.9875C22.0394 28.6129 21.4347 29.0947 20.7301 29.3695C20.0254 29.6442 19.254 29.6989 18.5176 29.5264C17.7813 29.3538 17.1145 28.9621 16.6055 28.4029L15.5767 27.282L14.5594 28.3942C14.2136 28.7777 13.791 29.0841 13.319 29.2937C12.8471 29.5032 12.3362 29.6111 11.8198 29.6104C10.8234 29.6104 9.86784 29.2148 9.16329 28.5105C8.45874 27.8062 8.06293 26.851 8.06293 25.855C8.06935 25.4224 8.14747 24.9938 8.29412 24.5868L9.29402 21.6662L6.45903 22.8506C6.04371 23.0205 5.59865 23.106 5.1499 23.1019C4.15452 23.1027 3.19951 22.7085 2.49458 22.006C1.78966 21.3035 1.39243 20.3501 1.39014 19.3551Z" fill="white"/>
<path d="M5.20159 18.3122C5.2011 17.9356 5.27924 17.563 5.43101 17.2183C5.58278 16.8736 5.80485 16.5643 6.08301 16.3103L6.88063 15.5736L6.08879 14.8283C5.68156 14.4559 5.39661 13.969 5.27144 13.4317C5.14626 12.8943 5.18672 12.3317 5.38748 11.8178C5.58825 11.3039 5.93992 10.8627 6.39625 10.5524C6.85258 10.242 7.39219 10.077 7.94411 10.0791C8.25062 10.0836 8.55391 10.1423 8.83998 10.2524L10.9294 11.0121L10.1347 8.93797C10.0105 8.62218 9.94484 8.28641 9.94104 7.9471C9.94066 7.58622 10.0115 7.22881 10.1495 6.89532C10.2874 6.56183 10.4899 6.25882 10.7451 6.00364C11.0004 5.74846 11.3035 5.54611 11.6372 5.40818C11.9708 5.27025 12.3283 5.19945 12.6893 5.19983C13.067 5.2008 13.4402 5.28072 13.7851 5.43444C14.13 5.58817 14.4389 5.81232 14.692 6.09248L15.4376 6.89268L16.1832 6.09826C16.4358 5.81782 16.7441 5.59309 17.0884 5.43841C17.4328 5.28372 17.8056 5.20246 18.183 5.19983C18.9102 5.2006 19.6073 5.48968 20.1215 6.00364C20.6356 6.51761 20.9248 7.21447 20.9256 7.94133C20.9176 8.25821 20.857 8.57157 20.7464 8.86864L20.047 10.9197L22.07 10.1426C22.3844 10.0168 22.7196 9.95116 23.0583 9.94906C23.7831 9.94983 24.4781 10.238 24.9906 10.7503C25.5031 11.2627 25.7914 11.9573 25.7922 12.6819C25.7956 13.0568 25.7203 13.4282 25.5709 13.7721C25.4216 14.116 25.2016 14.4246 24.9252 14.6781L24.1016 15.4292L24.9079 16.1774C25.1866 16.4317 25.4092 16.7414 25.5615 17.0866C25.7138 17.4318 25.7923 17.8049 25.7922 18.1822C25.7922 18.9075 25.5043 19.6032 24.9918 20.1167C24.4793 20.6301 23.7839 20.9193 23.0583 20.9208C22.7491 20.9182 22.4428 20.8605 22.1538 20.7504L20.0673 19.9906L20.8591 22.0648C20.9822 22.3798 21.0468 22.7146 21.0498 23.0528C21.0524 23.6041 20.8878 24.1433 20.5776 24.5992C20.2675 25.0551 19.8264 25.4063 19.3125 25.6065C18.7986 25.8067 18.2361 25.8466 17.6991 25.7207C17.1621 25.5949 16.6759 25.3093 16.3046 24.9016L15.5561 24.0956L14.8134 24.9045C14.5616 25.1846 14.2537 25.4085 13.9097 25.5618C13.5656 25.7151 13.1932 25.7943 12.8165 25.7943C12.0901 25.792 11.3944 25.5017 10.8818 24.9872C10.3693 24.4727 10.0819 23.776 10.0826 23.0499C10.0877 22.7347 10.1443 22.4224 10.2503 22.1255L10.9814 20.0051L8.91223 20.8717C8.60951 20.9948 8.28536 21.0567 7.95856 21.0537C7.5972 21.0556 7.23902 20.9861 6.90461 20.8492C6.5702 20.7123 6.26616 20.5106 6.00996 20.2559C5.75376 20.0011 5.55046 19.6982 5.41173 19.3647C5.273 19.0311 5.20159 18.6735 5.20159 18.3122Z" fill="black"/>
<path d="M17.961 18.4885C17.9585 18.2952 17.944 18.1022 17.9176 17.9107C18.1092 17.9361 18.3023 17.9496 18.4956 17.9511C20.3798 17.9511 21.9086 16.8505 21.9086 15.4927C21.9086 14.135 20.3798 13.0372 18.4956 13.0372C18.3023 13.0388 18.1092 13.0523 17.9176 13.0777C17.944 12.8862 17.9585 12.6932 17.961 12.4999C17.961 10.6135 16.8599 9.08533 15.5016 9.08533C14.1434 9.08533 13.0423 10.6135 13.0423 12.4999C13.0448 12.6932 13.0593 12.8862 13.0857 13.0777C12.894 13.0523 12.701 13.0388 12.5077 13.0372C10.6235 13.0372 9.09473 14.1379 9.09473 15.4927C9.09473 16.8476 10.6235 17.9511 12.5077 17.9511C12.701 17.9496 12.894 17.9361 13.0857 17.9107C13.0593 18.1022 13.0448 18.2952 13.0423 18.4885C13.0423 20.3749 14.1434 21.9031 15.5016 21.9031C16.8599 21.9031 17.961 20.3778 17.961 18.4885Z" fill="black" stroke="white" stroke-width="0.75" stroke-linecap="round" stroke-linejoin="round"/>
<path d="M15.5852 29.3331C15.1093 29.8567 14.5293 30.2753 13.8825 30.5623C13.2356 30.8493 12.536 30.9984 11.8283 31C11.1524 30.9996 10.4832 30.8662 9.85891 30.6072C9.2346 30.3483 8.66742 29.969 8.18976 29.491C7.71209 29.013 7.33329 28.4456 7.07498 27.8212C6.81668 27.1969 6.68392 26.5278 6.6843 25.8521C6.69057 25.2671 6.79409 24.6872 6.99063 24.1361C6.40583 24.3727 5.78062 24.4933 5.14976 24.4915C4.11732 24.4936 3.10825 24.1843 2.25452 23.6039C1.40079 23.0235 0.742124 22.1991 0.364664 21.2385C-0.0127959 20.2778 -0.0914859 19.2257 0.138884 18.2197C0.369254 17.2136 0.897962 16.3005 1.65587 15.5997C0.892021 14.899 0.358074 13.9837 0.124178 12.9741C-0.109719 11.9644 -0.0326233 10.9077 0.345336 9.9427C0.723294 8.97769 1.38444 8.14953 2.2419 7.56704C3.09937 6.98455 4.11305 6.67496 5.14976 6.67896C5.73257 6.68462 6.30979 6.79317 6.85481 6.99962C6.62442 6.40918 6.50396 5.78162 6.49935 5.14788C6.49802 4.11361 6.8096 3.10312 7.39319 2.24907C7.97677 1.39503 8.80508 0.737355 9.76935 0.362413C10.7336 -0.0125291 11.7888 -0.0872161 12.7963 0.148159C13.8038 0.383533 14.7166 0.917966 15.4147 1.68129C16.1124 0.917495 17.025 0.382622 18.0325 0.146978C19.04 -0.0886653 20.0953 -0.014049 21.0595 0.361018C22.0238 0.736086 22.852 1.39405 23.4352 2.24841C24.0184 3.10278 24.3294 4.11356 24.3272 5.14788C24.317 5.73352 24.2096 6.31341 24.0093 6.86384C24.7868 6.55825 25.6274 6.44758 26.4576 6.54152C27.2878 6.63545 28.0824 6.93112 28.7719 7.40272C29.4615 7.87431 30.025 8.50749 30.4134 9.24695C30.8018 9.98641 31.0032 10.8097 31 11.6448C31.0002 12.3515 30.853 13.0504 30.5679 13.697C30.2828 14.3436 29.866 14.9237 29.344 15.4003C30.1076 16.0999 30.6417 17.014 30.8762 18.0225C31.1107 19.031 31.0347 20.0868 30.658 21.0514C30.2814 22.0159 29.6218 22.844 28.7658 23.427C27.9098 24.01 26.8975 24.3207 25.8617 24.3181C25.2752 24.3148 24.6939 24.2072 24.1451 24.0004C24.3755 24.5908 24.496 25.2184 24.5006 25.8521C24.5048 26.8876 24.1954 27.9001 23.6129 28.7564C23.0304 29.6127 22.2022 30.2727 21.2373 30.6494C20.2724 31.0262 19.216 31.1021 18.2071 30.8671C17.1983 30.6322 16.2842 30.0974 15.5852 29.3331Z" fill="black"/>
<path d="M1.39014 19.3551C1.39005 18.8386 1.49769 18.3279 1.70618 17.8553C1.91467 17.3828 2.21943 16.9589 2.60101 16.6107L3.69339 15.5996L2.60101 14.5799C2.04723 14.0674 1.66066 13.4002 1.49166 12.665C1.32265 11.9298 1.37904 11.1608 1.65348 10.4581C1.92793 9.75543 2.4077 9.15165 3.03031 8.72542C3.65292 8.29918 4.3895 8.07025 5.14412 8.06845C5.56433 8.0741 5.98019 8.1543 6.37233 8.30534L9.24779 9.3482L8.15829 6.50271C7.98911 6.07078 7.9 5.61168 7.89531 5.14785C7.89531 4.15183 8.29112 3.19662 8.99567 2.49233C9.70022 1.78804 10.6558 1.39237 11.6522 1.39237C12.1681 1.3925 12.6783 1.49992 13.1505 1.70781C13.6226 1.91569 14.0464 2.21949 14.3947 2.5999L15.4148 3.69766L16.4321 2.5999C16.7797 2.21679 17.2034 1.91027 17.676 1.69988C18.1487 1.48949 18.6601 1.37984 19.1775 1.37793C20.1739 1.37793 21.1295 1.77359 21.834 2.47788C22.5386 3.18217 22.9344 4.13739 22.9344 5.1334C22.9235 5.56658 22.8415 5.99502 22.6916 6.4016L21.7322 9.22687L24.5094 8.16089C25.0763 7.9357 25.6898 7.85312 26.2961 7.92041C26.9024 7.98771 27.4829 8.20282 27.9866 8.54685C28.4903 8.89088 28.9017 9.35329 29.1848 9.89346C29.4679 10.4336 29.6139 11.035 29.6101 11.6448C29.6127 12.1603 29.5068 12.6705 29.2992 13.1424C29.0916 13.6142 28.7869 14.0371 28.405 14.3834L27.2923 15.4003L28.3992 16.4258C28.7808 16.774 29.0855 17.1979 29.294 17.6704C29.5025 18.143 29.6101 18.6538 29.6101 19.1702C29.6101 20.1662 29.2142 21.1214 28.5097 21.8257C27.8051 22.53 26.8496 22.9257 25.8532 22.9257C25.4283 22.922 25.0076 22.8428 24.6105 22.6917L21.7611 21.6662L22.8448 24.5088C23.0157 24.9413 23.1059 25.4015 23.1107 25.8665C23.1148 26.6226 22.8895 27.3621 22.4645 27.9875C22.0394 28.6129 21.4347 29.0947 20.7301 29.3695C20.0254 29.6442 19.254 29.6989 18.5176 29.5264C17.7813 29.3538 17.1145 28.9621 16.6055 28.4029L15.5767 27.282L14.5594 28.3942C14.2136 28.7777 13.791 29.0841 13.319 29.2937C12.8471 29.5032 12.3362 29.6111 11.8198 29.6104C10.8234 29.6104 9.86784 29.2148 9.16329 28.5105C8.45874 27.8062 8.06293 26.851 8.06293 25.855C8.06935 25.4224 8.14747 24.9938 8.29412 24.5868L9.29402 21.6662L6.45903 22.8506C6.04371 23.0205 5.59865 23.106 5.1499 23.1019C4.15452 23.1027 3.19951 22.7085 2.49458 22.006C1.78966 21.3035 1.39243 20.3501 1.39014 19.3551Z" fill="white"/>
<path d="M5.20159 18.3122C5.2011 17.9356 5.27924 17.563 5.43101 17.2183C5.58278 16.8736 5.80485 16.5643 6.08301 16.3103L6.88063 15.5736L6.08879 14.8283C5.68156 14.4559 5.39661 13.969 5.27144 13.4317C5.14626 12.8943 5.18672 12.3317 5.38748 11.8178C5.58825 11.3039 5.93992 10.8627 6.39625 10.5524C6.85258 10.242 7.39219 10.077 7.94411 10.0791C8.25062 10.0836 8.55391 10.1423 8.83998 10.2524L10.9294 11.0121L10.1347 8.93797C10.0105 8.62218 9.94484 8.28641 9.94104 7.9471C9.94066 7.58622 10.0115 7.22881 10.1495 6.89532C10.2874 6.56183 10.4899 6.25882 10.7451 6.00364C11.0004 5.74846 11.3035 5.54611 11.6372 5.40818C11.9708 5.27025 12.3283 5.19945 12.6893 5.19983C13.067 5.2008 13.4402 5.28072 13.7851 5.43444C14.13 5.58817 14.4389 5.81232 14.692 6.09248L15.4376 6.89268L16.1832 6.09826C16.4358 5.81782 16.7441 5.59309 17.0884 5.43841C17.4328 5.28372 17.8056 5.20246 18.183 5.19983C18.9102 5.2006 19.6073 5.48968 20.1215 6.00364C20.6356 6.51761 20.9248 7.21447 20.9256 7.94133C20.9176 8.25821 20.857 8.57157 20.7464 8.86864L20.047 10.9197L22.07 10.1426C22.3844 10.0168 22.7196 9.95116 23.0583 9.94906C23.7831 9.94983 24.4781 10.238 24.9906 10.7503C25.5031 11.2627 25.7914 11.9573 25.7922 12.6819C25.7956 13.0568 25.7203 13.4282 25.5709 13.7721C25.4216 14.116 25.2016 14.4246 24.9252 14.6781L24.1016 15.4292L24.9079 16.1774C25.1866 16.4317 25.4092 16.7414 25.5615 17.0866C25.7138 17.4318 25.7923 17.8049 25.7922 18.1822C25.7922 18.9075 25.5043 19.6032 24.9918 20.1167C24.4793 20.6301 23.7839 20.9193 23.0583 20.9208C22.7491 20.9182 22.4428 20.8605 22.1538 20.7504L20.0673 19.9906L20.8591 22.0648C20.9822 22.3798 21.0468 22.7146 21.0498 23.0528C21.0524 23.6041 20.8878 24.1433 20.5776 24.5992C20.2675 25.0551 19.8264 25.4063 19.3125 25.6065C18.7986 25.8067 18.2361 25.8466 17.6991 25.7207C17.1621 25.5949 16.6759 25.3093 16.3046 24.9016L15.5561 24.0956L14.8134 24.9045C14.5616 25.1846 14.2537 25.4085 13.9097 25.5618C13.5656 25.7151 13.1932 25.7943 12.8165 25.7943C12.0901 25.792 11.3944 25.5017 10.8818 24.9872C10.3693 24.4727 10.0819 23.776 10.0826 23.0499C10.0877 22.7347 10.1443 22.4224 10.2503 22.1255L10.9814 20.0051L8.91223 20.8717C8.60951 20.9948 8.28536 21.0567 7.95856 21.0537C7.5972 21.0556 7.23902 20.9861 6.90461 20.8492C6.5702 20.7123 6.26616 20.5106 6.00996 20.2559C5.75376 20.0011 5.55046 19.6982 5.41173 19.3647C5.273 19.0311 5.20159 18.6735 5.20159 18.3122Z" fill="black"/>
<path d="M17.961 18.4885C17.9585 18.2952 17.944 18.1022 17.9176 17.9107C18.1092 17.9361 18.3023 17.9496 18.4956 17.9511C20.3798 17.9511 21.9086 16.8505 21.9086 15.4927C21.9086 14.135 20.3798 13.0372 18.4956 13.0372C18.3023 13.0388 18.1092 13.0523 17.9176 13.0777C17.944 12.8862 17.9585 12.6932 17.961 12.4999C17.961 10.6135 16.8599 9.08533 15.5016 9.08533C14.1434 9.08533 13.0423 10.6135 13.0423 12.4999C13.0448 12.6932 13.0593 12.8862 13.0857 13.0777C12.894 13.0523 12.701 13.0388 12.5077 13.0372C10.6235 13.0372 9.09473 14.1379 9.09473 15.4927C9.09473 16.8476 10.6235 17.9511 12.5077 17.9511C12.701 17.9496 12.894 17.9361 13.0857 17.9107C13.0593 18.1022 13.0448 18.2952 13.0423 18.4885C13.0423 20.3749 14.1434 21.9031 15.5016 21.9031C16.8599 21.9031 17.961 20.3778 17.961 18.4885Z" fill="black" stroke="white" stroke-width="0.75" stroke-linecap="round" stroke-linejoin="round"/>
</g>
<defs>
<clipPath id="clip0_658_1586">
<rect width="31" height="31" fill="white"/>
</clipPath>
</defs>
</svg>
