<svg width="297" height="56" viewBox="0 0 297 56" fill="none" xmlns="http://www.w3.org/2000/svg">
<path d="M76.875 29.125V32.375H47.125V29.125H59.25V26.5H49.75V23.25H59.25V21.5H49V18.125H75V21.5H64.5V23.25H74.25V26.5H71.125C71.875 27 72.5417 27.5417 73.125 28.125L71.75 29.125H76.875ZM76.25 12.875V17.75H71.125V16.25H52.875V17.75H47.75V12.875H59.5C59.3333 12.5417 59.125 12.0417 58.875 11.375C58.7917 11.0417 58.7083 10.7917 58.625 10.625L64.5 10.25C64.8333 11.5833 65.0833 12.4583 65.25 12.875H76.25ZM66.625 27.625L68.125 26.5H64.5V29.125H68.25C67.75 28.625 67.2083 28.125 66.625 27.625Z" fill="black"/>
<path d="M78.75 23.375C80.1667 21.7917 81.3333 20 82.25 18H79.375V14.625H82.5V10.625H87.125V14.625H90V18H87.125V20.875L87.875 20.125C88.125 20.2917 88.5 20.5417 89 20.875C89.8333 21.4583 90.4583 21.875 90.875 22.125V11.75H107.875V33H103.125V32H95.625V33H90.875V23.625L89.25 25.625C89.0833 25.4583 88.875 25.25 88.625 25C88.375 24.75 87.875 24.375 87.125 23.875V33H82.5V24.75C81.6667 26.0833 80.75 27.375 79.75 28.625C79.3333 26.125 79 24.375 78.75 23.375ZM95.625 15.125V17.5H103.125V15.125H95.625ZM95.625 26.25V28.625H103.125V26.25H95.625ZM95.625 20.625V23H103.125V20.625H95.625Z" fill="black"/>
<path d="M139.75 15V18.625H129.875V21.875H138.5V25.5H129.875V28.875H141V32.5H112V28.875H124.5V25.5H114.25V21.875H116C115.75 21.7917 115.333 21.5833 114.75 21.25C113.333 20.5 112.292 19.9583 111.625 19.625C113.708 17.2917 115.25 14.5833 116.25 11.5L121.375 12.375C121.125 13.375 120.792 14.25 120.375 15H124.5V10.75H129.875V15H139.75ZM118.5 18.625C117.917 19.7083 117.167 20.7917 116.25 21.875H124.5V18.625H118.5Z" fill="black"/>
<path d="M166.5 10.5V12.625H172.875V16H166.5V17.375H161.5V16H154.5V17.25H150.75L154.875 19C153.875 20 152.958 21 152.125 22V33H147.125V26.25C146.375 26.9167 145.542 27.5 144.625 28C144.458 27.5833 144.042 26.7917 143.375 25.625C143.042 24.875 142.792 24.3333 142.625 24C145.875 21.9167 148.458 19.6667 150.375 17.25H149.5V16H143.125V12.625H149.5V10.625H154.5V12.625H161.5V10.5H166.5ZM162.5 18V21.5C164.833 20.4167 167.167 19.25 169.5 18L172.25 20.875C169.167 22.7083 165.917 24.3333 162.5 25.75V27.875C162.5 28.7917 162.958 29.25 163.875 29.25H166.5C167.25 29.25 167.75 28.75 168 27.75C168.25 27 168.417 25.9167 168.5 24.5C168.917 24.5833 169.667 24.7917 170.75 25.125C172 25.4583 172.833 25.6667 173.25 25.75C173 27.25 172.75 28.5417 172.5 29.625C171.917 31.7083 170.417 32.7083 168 32.625H162.25C158.833 32.7083 157.208 31.3333 157.375 28.5V27.625C156.375 27.9583 155.25 28.3333 154 28.75C153.833 28.4167 153.583 27.9167 153.25 27.25C152.833 26.4167 152.5 25.7083 152.25 25.125C152.583 25.0417 153.042 24.875 153.625 24.625C154.542 24.375 155.792 23.9583 157.375 23.375V18H162.5Z" fill="black"/>
<path d="M193.25 24.625H186.75V19.75H193.25V24.625Z" fill="black"/>
<path d="M232.625 32.75H226.375V24.25H214.375V32.75H208.125V12H214.375V20.25H226.375V12H232.625V32.75Z" fill="black"/>
<path d="M236.625 23.75V12H242.875V23.75C242.958 27.25 245.042 29.0417 249.125 29.125C253.042 29.125 255 27.3333 255 23.75V12H261.375V23.625C261.375 29.875 257.167 33 248.75 33C240.75 33 236.708 29.9167 236.625 23.75Z" fill="black"/>
<path d="M291.25 32.75H284.375L282.375 28.125H271.875L269.875 32.75H263.125L273.375 12H280.875L291.25 32.75ZM281.25 24.5L277.75 17.5C277.5 16.8333 277.292 16.2083 277.125 15.625H277C276.917 16.2917 276.708 16.9167 276.375 17.5L273.25 24.5H281.25Z" fill="black"/>
<path d="M23.2603 22.6968L15.1085 20.1647C13.8472 19.7741 12.7486 18.9763 12.0147 17.9181C11.2808 16.8599 10.9381 15.5833 11.0523 14.3236C11.1929 12.7615 11.9752 11.3631 13.2584 10.3889C14.5416 9.41467 16.1412 8.99895 17.7672 9.21731L18.1934 9.2761C19.5997 9.46926 20.8873 10.1369 21.8189 11.1615C22.7506 12.1862 23.2647 13.5005 23.2647 14.8569V22.6968H23.2603ZM16.9146 10.8424C15.983 10.8424 15.0909 11.1406 14.3482 11.7032C13.4473 12.3877 12.898 13.3703 12.8013 14.4663C12.6387 16.3098 13.8077 17.9979 15.649 18.569L21.5025 20.3872V14.8611C21.5025 12.9042 19.9732 11.2161 17.9429 10.939L17.5167 10.8802C17.3145 10.855 17.1168 10.8424 16.9146 10.8424Z" fill="#1A1A1A"/>
<path d="M14.0318 30.0539C13.2451 30.0539 12.4629 29.9069 11.7334 29.6129C10.2217 29.0041 9.07472 27.8619 8.49904 26.3921C7.92336 24.9224 8.00685 23.3393 8.72756 21.9326L8.91652 21.563C9.54054 20.3453 10.6084 19.3794 11.9136 18.8503C13.2232 18.3212 14.6865 18.2625 16.0401 18.6782L23.8403 21.1011L18.7998 27.7275C18.022 28.7521 16.8882 29.5038 15.6094 29.8439C15.0952 29.9825 14.5635 30.0539 14.0318 30.0539ZM14.2295 20.0849C12.6826 20.0849 11.2017 20.9164 10.4942 22.2979L10.3052 22.6674C9.79982 23.6543 9.74269 24.767 10.147 25.7959C10.5513 26.8247 11.3555 27.6309 12.419 28.055C14.2031 28.7731 16.2422 28.2314 17.3804 26.7323L20.9971 21.9746L15.4995 20.2655C15.082 20.1479 14.6514 20.0849 14.2295 20.0849Z" fill="#1A1A1A"/>
<path d="M22.6758 35.6976C21.1377 35.6976 19.6919 35.1391 18.5757 34.1061L18.2637 33.8163C17.2441 32.8715 16.6157 31.6075 16.4927 30.2554C16.3696 28.9032 16.7607 27.5511 17.5957 26.4551L22.4165 20.1143L27.457 26.7406C28.2349 27.7652 28.6348 29.0292 28.5776 30.2932C28.5205 31.5613 28.0107 32.7833 27.145 33.7449C26.0727 34.9291 24.5786 35.622 22.9394 35.6892C22.8516 35.6934 22.7637 35.6976 22.6758 35.6976ZM22.4165 22.9697L19.0195 27.4377C17.8154 29.0208 18.0176 31.2464 19.4897 32.6069L19.8017 32.8967C20.6279 33.6609 21.7178 34.0557 22.8691 34.0095C24.0205 33.9633 25.0664 33.4762 25.8223 32.6447C27.0879 31.2464 27.1802 29.2224 26.042 27.7274L22.4165 22.9697Z" fill="#1A1A1A"/>
<path d="M30.5903 29.7641C30.1465 29.7641 29.6982 29.7179 29.2588 29.6171C27.8745 29.3106 26.6528 28.5379 25.8179 27.4377L20.9971 21.0969L29.1489 18.5647C30.4102 18.1742 31.79 18.1994 33.0337 18.6445C34.2773 19.0855 35.3408 19.9295 36.0264 21.0129C36.8745 22.3524 37.0986 23.923 36.6636 25.4347C36.2241 26.9464 35.187 28.181 33.7368 28.9116L33.3545 29.1048C32.4976 29.5457 31.5483 29.7641 30.5903 29.7641ZM23.8403 21.9829L27.2373 26.4551C28.4414 28.0382 30.7178 28.5421 32.5283 27.6267L32.9106 27.4335C33.9302 26.917 34.6597 26.052 34.9673 24.9896C35.2749 23.9272 35.1167 22.827 34.519 21.8863C33.5171 20.3032 31.5308 19.5978 29.6895 20.1689L23.8403 21.9829Z" fill="#1A1A1A"/>
<path d="M21.5376 22.6967V14.5082C21.5376 13.2401 21.9902 11.9971 22.8164 11.0019C23.6426 10.0109 24.8071 9.30541 26.0991 9.01566C27.6943 8.65873 29.3291 8.94008 30.6958 9.80512C32.0625 10.6702 32.9722 11.9971 33.2534 13.5382L33.3281 13.9455C33.5742 15.2851 33.3018 16.6582 32.5679 17.8214C31.834 18.9846 30.687 19.858 29.3379 20.2738L21.5376 22.6967ZM27.4526 10.5442C27.1362 10.5442 26.8154 10.5778 26.499 10.6492C24.6138 11.0691 23.2954 12.6564 23.2954 14.504V20.3829L28.793 18.6739C30.7441 18.0734 31.9482 16.1627 31.5967 14.2353L31.522 13.828C31.3242 12.7446 30.687 11.8123 29.7246 11.2077C29.0391 10.7667 28.2568 10.5442 27.4526 10.5442Z" fill="#1A1A1A"/>
<path d="M22.0254 11.7663L20.2764 11.6025C20.3906 10.4981 20.5576 9.55747 20.773 8.8814C20.896 8.49087 21.2696 7.30249 22.2847 7.30249C23.2998 7.30249 23.6734 8.49087 23.7964 8.8814C24.0073 9.55747 24.1787 10.4981 24.293 11.6025L22.544 11.7663C22.4693 11.044 22.3814 10.4771 22.2891 10.0446C22.188 10.4771 22.1001 11.044 22.0254 11.7663ZM11.8389 20.3831C10.7754 19.9379 9.89211 19.4928 9.28566 19.0939C8.9341 18.8629 7.86623 18.1575 8.17824 17.2336C8.49025 16.3098 9.79104 16.3392 10.2173 16.3476C10.9556 16.3644 11.9444 16.4988 13.0781 16.7381L12.7002 18.38C11.9575 18.2247 11.3687 18.1323 10.9072 18.0819C11.3115 18.3002 11.8433 18.5564 12.542 18.8461L11.8389 20.3831ZM14.3789 33.3293C14.1504 33.3293 13.9175 33.2705 13.7022 33.1193C12.8804 32.5482 13.3111 31.3766 13.4517 30.9903C13.6978 30.3268 14.1372 29.4702 14.7261 28.5127L16.2422 29.3652C15.8555 29.9909 15.583 30.499 15.3897 30.9021C15.7324 30.604 16.1499 30.1966 16.6553 29.6507L17.9693 30.7635C17.2002 31.595 16.4839 32.2584 15.895 32.6868C15.6489 32.8715 15.0205 33.3293 14.3789 33.3293ZM30.542 33.2159C29.9004 33.2159 29.2764 32.7582 29.0259 32.5776C28.4414 32.1493 27.7251 31.4858 26.9517 30.6543L28.2656 29.5416C28.771 30.0875 29.1929 30.4906 29.5313 30.7887C29.3379 30.3856 29.0654 29.8775 28.6787 29.2518L30.1948 28.3994C30.7837 29.3568 31.2232 30.2134 31.4693 30.8769C31.6099 31.2632 32.0405 32.4348 31.2188 33.0059C31.0034 33.1571 30.7705 33.2159 30.542 33.2159ZM32.8623 20.2025L32.1592 18.6614C32.8579 18.3716 33.3897 18.1155 33.794 17.8971C33.3325 17.9475 32.7437 18.0399 32.001 18.1953L31.6231 16.5534C32.7569 16.314 33.7456 16.1796 34.4839 16.1628C34.9102 16.1544 36.211 16.125 36.523 17.0489C36.835 17.9727 35.7671 18.6782 35.4155 18.9091C34.8091 19.3165 33.9258 19.7616 32.8623 20.2025Z" fill="#1A1A1A"/>
<path d="M17.9961 52.8801H15.4901V54.0841H20.3621V55.1061H9.31609V54.0841H14.2301V52.8801H11.6401V51.9421C10.8561 52.5674 9.96476 53.1227 8.96609 53.6081L8.39209 52.4601C9.96009 51.7881 11.1408 51.0134 11.9341 50.1361H8.79809V49.1561H11.1501V44.9141H9.24609V43.9201H11.1501V42.8841L12.3821 42.9261V43.9201H17.3241V42.8841L18.5421 42.9261V43.9201H20.4601V44.9141H18.5421V49.1561H20.9081V50.1361H17.7581C18.1874 50.6121 18.6774 51.0227 19.2281 51.3681C19.7881 51.7134 20.4741 52.0494 21.2861 52.3761L20.7121 53.4821C19.5828 52.9594 18.6774 52.4274 17.9961 51.8861V52.8801ZM17.3241 45.6561V44.9141H12.3821V45.6561H17.3241ZM17.3241 46.594H12.3821V47.4061H17.3241V46.594ZM17.3241 48.3161H12.3821V49.1561H17.3241V48.3161ZM14.2301 51.8721V50.6681L15.4901 50.7241V51.8721H17.9821C17.3568 51.3774 16.8154 50.7987 16.3581 50.1361H13.3341C12.9421 50.7427 12.4054 51.3214 11.7241 51.8721H14.2301Z" fill="#0E0E0E"/>
<path d="M34.7033 47.8961V49.1421H29.5093V53.3281C29.5093 53.7854 29.4487 54.1354 29.3273 54.3781C29.206 54.6301 29.0007 54.8121 28.7113 54.9241C28.4313 55.0361 28.0207 55.1107 27.4793 55.1481L26.2613 55.2461L25.8273 53.9301L27.0733 53.8461C27.3813 53.8274 27.6053 53.7947 27.7453 53.7481C27.8853 53.6921 27.9787 53.6034 28.0253 53.4821C28.0813 53.3607 28.1093 53.1787 28.1093 52.9361V49.1421H22.5513V47.8961H28.1093V44.774H23.6853V43.5141H33.5833V44.774H29.5093V47.8961H34.7033Z" fill="#0E0E0E"/>
<path d="M48.8906 54.1961L48.2186 55.47C46.6786 54.6767 45.4559 53.7947 44.5506 52.8241C44.1119 53.2907 43.5893 53.7434 42.9826 54.1821C42.3853 54.6301 41.6666 55.0967 40.8266 55.5821L40.0706 54.4201C40.8919 54.0281 41.6013 53.6221 42.1986 53.2021C42.8053 52.7821 43.3326 52.3294 43.7806 51.8441C43.2673 51.1161 42.8519 50.29 42.5346 49.366C42.2173 48.442 41.9793 47.3687 41.8206 46.146H41.2186V45.6841C40.8639 46.3934 40.4066 47.2147 39.8466 48.1481C39.2959 49.0814 38.8573 49.758 38.5306 50.1781C39.9493 49.9634 40.7893 49.8374 41.0506 49.8001L41.0646 51.0041C39.1793 51.2841 38.0266 51.4614 37.6066 51.5361C37.3546 51.5641 37.1306 51.6014 36.9346 51.6481L36.6546 50.4021C36.8506 50.3367 37.0046 50.2621 37.1166 50.1781C37.2286 50.0847 37.3499 49.9494 37.4806 49.772C37.8913 49.2214 38.3019 48.5961 38.7126 47.8961C37.8633 47.9614 37.3359 48.008 37.1306 48.036C36.9066 48.0641 36.7293 48.0967 36.5986 48.1341L36.3186 46.916C36.4866 46.8507 36.5986 46.7947 36.6546 46.7481C36.7199 46.7014 36.8086 46.6081 36.9206 46.4681C37.1353 46.1507 37.4339 45.6234 37.8166 44.8861C38.1993 44.1394 38.5353 43.4301 38.8246 42.758L39.8466 43.2621C39.5759 43.8967 39.2493 44.5641 38.8666 45.2641C38.4839 45.9641 38.1666 46.4821 37.9146 46.8181C38.3906 46.7994 38.8806 46.7667 39.3846 46.72C39.6459 46.2627 39.9353 45.6981 40.2526 45.0261L41.2186 45.5441V44.9141H44.1446C43.9579 44.1114 43.7806 43.4627 43.6126 42.9681L44.8166 42.786C44.9753 43.2341 45.1759 43.9434 45.4186 44.9141H48.4706V46.146H47.2246C47.0379 47.4247 46.7999 48.5121 46.5106 49.4081C46.2306 50.2947 45.8573 51.0881 45.3906 51.7881C46.1933 52.6561 47.3599 53.4587 48.8906 54.1961ZM43.0246 46.146C43.1553 47.1167 43.3466 47.9801 43.5986 48.7361C43.8599 49.4921 44.1866 50.1687 44.5786 50.7661C44.9519 50.1687 45.2506 49.4967 45.4746 48.7501C45.6986 48.0034 45.8759 47.1354 46.0066 46.146H43.0246ZM41.3026 52.9361L41.3306 53.5941C41.0693 53.6501 39.9819 53.8461 38.0686 54.1821L36.2206 54.5181L36.0666 53.3281C36.4679 53.2721 37.3499 53.1227 38.7126 52.8801C40.0753 52.6281 40.9339 52.4554 41.2886 52.3621L41.3026 52.9361Z" fill="#0E0E0E"/>
<path d="M62.6298 52.9081C62.5272 53.4867 62.3918 54.0047 62.2238 54.4621C61.9905 55.0687 61.6265 55.3721 61.1318 55.3721C60.9172 55.3721 60.6838 55.2881 60.4318 55.1201C60.1798 54.9614 59.9792 54.7374 59.8298 54.4481C59.6152 54.0094 59.4285 53.4867 59.2698 52.8801C59.0178 53.1601 58.7705 53.4167 58.5278 53.6501L57.8698 52.8241L58.1498 52.5581H57.3378V53.7901H58.6398V54.7281H54.3138V47.7701H58.3598V48.68H57.3378V49.814H58.2618V52.4461C58.5325 52.1754 58.7798 51.9001 59.0038 51.6201C58.8732 50.8734 58.7705 49.9447 58.6958 48.8341C58.6772 48.6007 58.6585 48.2274 58.6398 47.7141L58.6118 47.0981H53.8518V49.7021C53.8518 50.7007 53.8052 51.5361 53.7118 52.2081C53.6278 52.8707 53.4832 53.4681 53.2778 54.0001C53.0818 54.5227 52.7972 55.0781 52.4238 55.6661L51.4298 55.036C51.9432 54.3454 52.2885 53.7201 52.4658 53.1601C52.6432 52.6001 52.7412 51.8441 52.7598 50.8921H52.0038C51.9665 51.6107 51.8452 52.2547 51.6398 52.8241C51.4438 53.3841 51.1265 53.9721 50.6878 54.5881L49.7918 54.0281C50.2305 53.4121 50.5292 52.8894 50.6878 52.4601C50.8558 52.0307 50.9538 51.5081 50.9818 50.8921H50.1278V49.8561H52.7598V48.8621H50.8558V45.5861L51.8778 45.6421V47.812H52.7598V46.062H58.5838L58.5698 45.4601H57.4778V44.6901H54.9718V45.488H53.8098V44.6901H50.3658V43.668H53.8098V42.66L54.9718 42.716V43.668H57.4778V42.646L58.6398 42.702V43.668H62.1538V44.6901H60.7958C61.1878 45.0447 61.5052 45.3621 61.7478 45.6421L61.4118 46.062H62.0838V47.0981H59.6898L59.7318 48.26C59.7692 48.8667 59.8298 49.5527 59.9138 50.3181C60.3058 49.6647 60.6745 48.8621 61.0198 47.9101L61.9438 48.3021C61.4212 49.7114 60.8238 50.8781 60.1518 51.8021C60.2732 52.4181 60.4038 52.8941 60.5438 53.2301C60.6652 53.5194 60.7678 53.7201 60.8518 53.8321C60.9358 53.9441 61.0245 54.0001 61.1178 54.0001C61.2018 54.0001 61.2672 53.9581 61.3138 53.8741C61.3698 53.7807 61.4258 53.6127 61.4818 53.3701C61.5658 53.0247 61.6312 52.6981 61.6778 52.3901L62.6298 52.9081ZM58.6398 45.2081L59.6758 45.2641V46.062H60.7958C60.4972 45.7354 60.2172 45.4554 59.9558 45.2221L60.5018 44.6901H58.6398V45.2081ZM56.4278 49.814V48.68H55.3498V49.814H56.4278ZM55.3498 51.6621H57.3238V50.6961H55.3498V51.6621ZM55.3498 53.7901H56.4278V52.5581H55.3498V53.7901Z" fill="#0E0E0E"/>
<path d="M76.3131 54.4481L75.5151 55.484C74.4324 54.588 73.5691 53.6967 72.9251 52.8101C72.2718 53.6221 71.3338 54.4901 70.1111 55.4141L69.3131 54.4061C70.6104 53.5194 71.5811 52.6234 72.2251 51.7181C71.6464 50.6821 71.2358 49.5014 70.9931 48.1761L70.6711 48.7361L69.7471 47.8821C70.2044 47.2287 70.6198 46.4214 70.9931 45.4601C71.3664 44.4987 71.6324 43.598 71.7911 42.758L72.9811 42.9961C72.8318 43.6867 72.6451 44.3401 72.4211 44.956H76.0331V46.216H75.1371C75.0158 47.4667 74.8384 48.5261 74.6051 49.3941C74.3811 50.2621 74.0638 51.0507 73.6531 51.7601C74.3064 52.6654 75.1931 53.5614 76.3131 54.4481ZM63.5311 48.8621C64.6324 48.2834 65.5844 47.5787 66.3871 46.7481H63.9511V45.7261H66.7231V42.856L67.8571 42.912V45.7261H70.2931V46.7481H67.8571V47.6301L68.3611 47.0281C68.6038 47.1961 68.9024 47.4341 69.2571 47.7421C69.6118 48.0501 69.9384 48.3534 70.2371 48.6521L69.6071 49.4781C69.1684 48.9647 68.5851 48.4234 67.8571 47.8541V49.2261H66.7231V47.784C65.9951 48.5494 65.1224 49.226 64.1051 49.814L63.5311 48.8621ZM70.3491 43.626C70.1998 43.9154 69.9991 44.2514 69.7471 44.6341C69.4951 45.0074 69.2758 45.3107 69.0891 45.5441L68.2351 44.984C68.4218 44.76 68.6364 44.4614 68.8791 44.0881C69.1218 43.7147 69.3131 43.3834 69.4531 43.094L70.3491 43.626ZM65.3231 45.5161C65.2111 45.2454 65.0478 44.9234 64.8331 44.5501C64.6184 44.1767 64.4224 43.8734 64.2451 43.6401L65.0711 43.1361C65.2298 43.3414 65.4211 43.6307 65.6451 44.004C65.8691 44.3681 66.0558 44.6994 66.2051 44.9981L65.3231 45.5161ZM72.9251 50.5421C73.1958 49.9727 73.4151 49.338 73.5831 48.6381C73.7511 47.9287 73.8818 47.1214 73.9751 46.216H71.9451C71.8798 46.3654 71.8424 46.4587 71.8331 46.4961C72.0011 48.0921 72.3651 49.4407 72.9251 50.5421ZM69.0891 54.7561C68.5198 54.4201 68.0064 54.1354 67.5491 53.9021C66.6904 54.4527 65.5424 54.966 64.1051 55.442L63.5871 54.3921C64.7351 54.0467 65.6824 53.6921 66.4291 53.3281C65.7944 53.0014 65.1411 52.6934 64.4691 52.4041C64.7211 51.9934 64.9498 51.5874 65.1551 51.1861H63.8531V50.1781H65.6591C65.8831 49.6554 66.0184 49.3194 66.0651 49.1701L67.1991 49.4921L67.0451 49.8981C66.9798 50.0474 66.9424 50.1407 66.9331 50.1781H69.9011V51.1301C69.7051 51.5407 69.4998 51.9094 69.2851 52.2361C69.0798 52.5627 68.8278 52.8661 68.5291 53.1461L69.6071 53.6921L69.0891 54.7561ZM67.5071 52.6421C67.9738 52.2594 68.3518 51.7741 68.6411 51.1861H66.4571C66.3544 51.4194 66.2191 51.6854 66.0511 51.9841C66.4804 52.1614 66.9658 52.3807 67.5071 52.6421Z" fill="#0E0E0E"/>
<path d="M81.7643 49.2121C81.5777 49.3054 81.153 49.492 80.4903 49.772V53.7761C80.4903 54.1867 80.4437 54.4901 80.3503 54.6861C80.2663 54.8821 80.1123 55.0221 79.8883 55.1061C79.6643 55.1901 79.3143 55.2507 78.8383 55.2881L78.1943 55.3441L77.8583 54.1681L78.5583 54.1121C78.7917 54.0934 78.955 54.0654 79.0483 54.0281C79.151 54.0001 79.221 53.9394 79.2583 53.8461C79.2957 53.7527 79.3143 53.6081 79.3143 53.4121V50.2621C78.6143 50.5514 78.0543 50.7661 77.6343 50.9061L77.3823 49.6181C77.877 49.4594 78.521 49.2214 79.3143 48.904V46.4821H77.8163V45.292H79.3143V42.842L80.4903 42.8841V45.292H81.6803V46.4821H80.4903V48.4281C80.8263 48.2881 81.1903 48.1294 81.5823 47.9521L81.6803 48.68L81.7643 49.2121ZM90.0103 49.4081H87.0143V50.7521H89.1423V55.4001H87.9663V54.7981H84.8303V55.4141H83.6403V50.7521H85.8243V49.4081H83.3183C83.253 50.7147 83.0943 51.8067 82.8423 52.6841C82.5997 53.5614 82.1983 54.4527 81.6383 55.3581L80.5463 54.7001C80.9757 53.9721 81.3023 53.2954 81.5263 52.6701C81.7503 52.0354 81.909 51.3167 82.0023 50.5141C82.105 49.7114 82.1563 48.6941 82.1563 47.4621V43.542H89.3943V47.14H83.3603V47.616V48.3301H85.8243V47.3361L87.0143 47.378V48.3301H90.0103V49.4081ZM88.1623 46.0481V44.6201H83.3603V46.0481H88.1623ZM84.8303 53.7201H87.9663V51.8721H84.8303V53.7201Z" fill="#0E0E0E"/>
<path d="M103.568 44.1581V45.2641H93.9636V48.4701C93.9636 49.6461 93.9076 50.6167 93.7956 51.3821C93.6929 52.1474 93.5249 52.8287 93.2916 53.4261C93.0583 54.0234 92.7223 54.714 92.2836 55.498L91.0796 54.9241C91.5183 54.1494 91.8496 53.4727 92.0736 52.8941C92.3069 52.3154 92.4703 51.6994 92.5636 51.0461C92.6663 50.3834 92.7176 49.5667 92.7176 48.5961V44.1581H97.8276C97.6409 43.5421 97.4963 43.1034 97.3936 42.842L98.6816 42.6321C98.9149 43.248 99.0923 43.7567 99.2136 44.1581H103.568ZM103.722 52.1941V53.3701H99.7316V55.3441H98.4716V53.3701H94.0896V52.1941H98.4716V50.9201H94.9856V49.8001C95.3496 49.2587 95.7509 48.5961 96.1896 47.812H94.4116V46.6641H96.7776C97.0203 46.1601 97.2256 45.6934 97.3936 45.2641L98.5696 45.6C98.4763 45.824 98.3176 46.1787 98.0936 46.6641H103.064V47.812H97.5056C97.0669 48.624 96.6749 49.2867 96.3296 49.8001H98.4716V48.2741L99.7316 48.3161V49.8001H102.784V50.9201H99.7316V52.1941H103.722Z" fill="#0E0E0E"/>
<path d="M107.087 45.3201V46.6641H105.785V44.1161H110.713C110.526 43.5001 110.405 43.1127 110.349 42.9541L111.623 42.716L111.735 43.052C111.866 43.4254 111.982 43.7801 112.085 44.1161H116.887V46.6641H115.529V45.3201H107.087ZM114.829 53.7341H117.167V54.9381H105.463V53.7341H110.615V51.3121H106.597V50.0801H110.615V48.3581H106.261V47.126H116.411V48.3581H111.931V50.0801H116.047V51.3121H114.311C114.815 51.9187 115.24 52.5161 115.585 53.1041L114.829 53.7341ZM111.931 51.3121V53.7341H114.507C114.171 53.1647 113.751 52.5674 113.247 51.9421L114.129 51.3121H111.931Z" fill="#0E0E0E"/>
<path d="M122.198 48.3021L122.702 47.8541C122.945 48.1061 123.22 48.4374 123.528 48.8481C123.836 49.2494 124.097 49.618 124.312 49.9541L123.444 50.8221C123.145 50.2994 122.73 49.6974 122.198 49.0161V55.3581H121.036V49.324C120.569 50.4347 120.042 51.4194 119.454 52.2781L118.572 51.3541C119.011 50.7474 119.454 50.0007 119.902 49.1141C120.35 48.2181 120.7 47.3547 120.952 46.524H119.216V45.3341H121.036V42.772L122.198 42.8281V45.3341H123.878V46.524H122.198V48.3021ZM124.312 43.5981H130.626V55.2601H129.394V54.4341H125.53V55.2881H124.312V43.5981ZM129.394 46.8461V44.8161H125.53V46.8461H129.394ZM129.394 48.036H125.53V50.0241H129.394V48.036ZM125.53 51.2281V53.2161H129.394V51.2281H125.53Z" fill="#0E0E0E"/>
<path d="M137.421 46.3841H136.217V45.418H133.039V44.214H136.217V42.702L137.421 42.7441V44.214H140.347V42.702L141.537 42.7441V44.214H144.827V45.418H141.537V46.4961H140.347V45.418H137.421V46.3841ZM137.113 47.1121C136.796 47.6907 136.497 48.1947 136.217 48.6241V55.4141H134.999V50.206C134.514 50.7754 133.875 51.4147 133.081 52.1241L132.381 51.0181C133.184 50.3087 133.875 49.6087 134.453 48.9181C135.041 48.2274 135.573 47.4387 136.049 46.5521L137.113 47.1121ZM144.939 52.166C144.921 52.6141 144.879 53.0667 144.813 53.5241C144.757 53.9254 144.669 54.2241 144.547 54.4201C144.426 54.6161 144.239 54.7561 143.987 54.8401C143.735 54.9241 143.357 54.9847 142.853 55.022C142.62 55.0407 142.265 55.05 141.789 55.05C141.323 55.05 140.968 55.0407 140.725 55.022C140.128 54.9754 139.699 54.8214 139.437 54.5601C139.185 54.3081 139.059 53.8647 139.059 53.2301V51.7041C138.331 52.0867 137.608 52.4321 136.889 52.7401L136.385 51.5221C137.375 51.1021 138.266 50.6774 139.059 50.2481V46.734L140.305 46.7901V49.548C141.603 48.7734 142.769 47.9334 143.805 47.0281L144.533 48.0781C143.357 49.1047 141.948 50.0847 140.305 51.0181V52.8521C140.305 53.2161 140.361 53.4587 140.473 53.5801C140.595 53.7014 140.833 53.7761 141.187 53.8041C141.43 53.8321 141.659 53.8461 141.873 53.8461C142.097 53.8461 142.321 53.8321 142.545 53.8041C142.844 53.7761 143.059 53.7434 143.189 53.7061C143.329 53.6594 143.427 53.5847 143.483 53.4821C143.549 53.3794 143.595 53.2161 143.623 52.9921C143.67 52.7307 143.703 52.3247 143.721 51.7741L144.939 52.166Z" fill="#0E0E0E"/>
<path d="M151.091 45.2081H149.901V44.5501H146.695V43.5281H149.901V42.6321L151.091 42.6881V43.5281H154.031V42.6321L155.235 42.6881V43.5281H158.511V44.5501H155.235V45.2221H154.031V44.5501H151.091V45.2081ZM147.605 45.0821C147.894 45.2501 148.277 45.4927 148.753 45.8101C149.229 46.1274 149.616 46.4027 149.915 46.6361L149.355 47.7141C149.093 47.4621 148.729 47.1634 148.263 46.8181C147.796 46.4727 147.395 46.1974 147.059 45.9921L147.605 45.0821ZM150.769 45.5301H157.153V47.8961H150.769V45.5301ZM151.917 47.0981H155.991V46.342H151.917V47.0981ZM148.781 50.3601C148.491 50.0987 148.109 49.7954 147.633 49.4501C147.157 49.1047 146.76 48.8341 146.443 48.6381L146.989 47.7001C147.315 47.8774 147.717 48.1294 148.193 48.456C148.669 48.7734 149.047 49.0441 149.327 49.2681L148.781 50.3601ZM153.541 50.7381H150.027V48.484H153.541V50.7381ZM154.283 48.484H157.881V50.7381H154.283V48.484ZM152.533 49.2261H151.049V50.01H152.533V49.2261ZM155.319 49.9961H156.859V49.2261H155.319V49.9961ZM158.441 55.1061C157.619 54.8261 156.887 54.5321 156.243 54.2241C155.608 53.9161 155.039 53.5707 154.535 53.1881V55.3441H153.345V53.1881C152.831 53.5894 152.262 53.9487 151.637 54.2661C151.021 54.5927 150.293 54.9054 149.453 55.2041L148.907 54.1401C149.747 53.8974 150.47 53.6454 151.077 53.3841C151.683 53.1227 152.225 52.8287 152.701 52.5021H149.649V51.5361H153.345V50.8081L154.535 50.8641V51.5361H158.301V52.5021H155.179C155.655 52.8287 156.187 53.1134 156.775 53.3561C157.372 53.5987 158.072 53.8321 158.875 54.0561L158.441 55.1061ZM149.299 51.3401C149.121 51.9561 148.893 52.6187 148.613 53.3281C148.342 54.0281 148.057 54.6861 147.759 55.3021L146.667 54.8121C146.965 54.2427 147.255 53.6127 147.535 52.9221C147.824 52.2314 148.071 51.5547 148.277 50.8921L149.299 51.3401Z" fill="#0E0E0E"/>
<path d="M172.628 49.6041V50.8781H169.66V55.4141H168.316V50.8781H164.788C164.704 51.5687 164.555 52.1661 164.34 52.6701C164.135 53.1647 163.845 53.6267 163.472 54.0561C163.099 54.4947 162.585 54.9847 161.932 55.5261L160.896 54.5041C161.493 54.0187 161.951 53.6127 162.268 53.2861C162.595 52.9501 162.851 52.5954 163.038 52.2221C163.225 51.8487 163.355 51.4007 163.43 50.8781H160.322V49.6041H163.528C163.537 49.4361 163.542 49.1607 163.542 48.7781V46.5521H160.854V45.2641H163.542V42.8841L164.886 42.9261V45.2641H168.316V42.856L169.66 42.898V45.2641H172.082V46.5521H169.66V49.6041H172.628ZM168.316 49.6041V46.5521H164.886V48.6521C164.886 49.0907 164.881 49.4081 164.872 49.6041H168.316Z" fill="#0E0E0E"/>
<path d="M186.703 54.1961L186.031 55.47C184.491 54.6767 183.268 53.7947 182.363 52.8241C181.924 53.2907 181.402 53.7434 180.795 54.1821C180.198 54.6301 179.479 55.0967 178.639 55.5821L177.883 54.4201C178.704 54.0281 179.414 53.6221 180.011 53.2021C180.618 52.7821 181.145 52.3294 181.593 51.8441C181.08 51.1161 180.664 50.29 180.347 49.366C180.03 48.442 179.792 47.3687 179.633 46.146H179.031V45.6841C178.676 46.3934 178.219 47.2147 177.659 48.1481C177.108 49.0814 176.67 49.758 176.343 50.1781C177.762 49.9634 178.602 49.8374 178.863 49.8001L178.877 51.0041C176.992 51.2841 175.839 51.4614 175.419 51.5361C175.167 51.5641 174.943 51.6014 174.747 51.6481L174.467 50.4021C174.663 50.3367 174.817 50.2621 174.929 50.1781C175.041 50.0847 175.162 49.9494 175.293 49.772C175.704 49.2214 176.114 48.5961 176.525 47.8961C175.676 47.9614 175.148 48.008 174.943 48.036C174.719 48.0641 174.542 48.0967 174.411 48.1341L174.131 46.916C174.299 46.8507 174.411 46.7947 174.467 46.7481C174.532 46.7014 174.621 46.6081 174.733 46.4681C174.948 46.1507 175.246 45.6234 175.629 44.8861C176.012 44.1394 176.348 43.4301 176.637 42.758L177.659 43.2621C177.388 43.8967 177.062 44.5641 176.679 45.2641C176.296 45.9641 175.979 46.4821 175.727 46.8181C176.203 46.7994 176.693 46.7667 177.197 46.72C177.458 46.2627 177.748 45.6981 178.065 45.0261L179.031 45.5441V44.9141H181.957C181.77 44.1114 181.593 43.4627 181.425 42.9681L182.629 42.786C182.788 43.2341 182.988 43.9434 183.231 44.9141H186.283V46.146H185.037C184.85 47.4247 184.612 48.5121 184.323 49.4081C184.043 50.2947 183.67 51.0881 183.203 51.7881C184.006 52.6561 185.172 53.4587 186.703 54.1961ZM180.837 46.146C180.968 47.1167 181.159 47.9801 181.411 48.7361C181.672 49.4921 181.999 50.1687 182.391 50.7661C182.764 50.1687 183.063 49.4967 183.287 48.7501C183.511 48.0034 183.688 47.1354 183.819 46.146H180.837ZM179.115 52.9361L179.143 53.5941C178.882 53.6501 177.794 53.8461 175.881 54.1821L174.033 54.5181L173.879 53.3281C174.28 53.2721 175.162 53.1227 176.525 52.8801C177.888 52.6281 178.746 52.4554 179.101 52.3621L179.115 52.9361Z" fill="#0E0E0E"/>
<path d="M200.246 51.0461V52.3341H196.76V55.3721H195.472V52.3341H192V51.0461H195.472V49.2541H192.868V48.022H195.472V46.2301H192.728V44.97H194.408C194.268 44.6807 194.096 44.3447 193.89 43.9621C193.685 43.5794 193.526 43.3087 193.414 43.1501L194.492 42.59C194.614 42.7767 194.805 43.1127 195.066 43.5981C195.328 44.0741 195.5 44.4147 195.584 44.6201L194.94 44.97H196.452C196.928 44.2141 197.353 43.4441 197.726 42.66L198.832 43.1641C198.543 43.7707 198.216 44.3727 197.852 44.97H199.756V46.2301H196.76V48.022H199.49V49.2541H196.76V51.0461H200.246ZM192.014 50.43C191.781 50.0754 191.445 49.6414 191.006 49.128V55.3721H189.732V49.366C189.312 50.3367 188.841 51.2467 188.318 52.0961L187.492 51.0181C187.875 50.4207 188.267 49.716 188.668 48.904C189.07 48.092 189.41 47.3081 189.69 46.5521H188.122V45.306H189.732V42.786L191.006 42.842V45.306H192.406V46.5521H191.006V48.0501L191.286 47.784C191.557 48.0454 191.842 48.3441 192.14 48.68C192.448 49.0067 192.686 49.2867 192.854 49.5201L192.014 50.43Z" fill="#0E0E0E"/>
<path d="M213.468 44.83C213.458 45.7447 213.426 47.2801 213.37 49.4361C213.323 51.5827 213.286 52.9081 213.258 53.4121C213.23 53.8507 213.15 54.1867 213.02 54.4201C212.898 54.6534 212.702 54.8214 212.432 54.9241C212.17 55.0361 211.788 55.1107 211.284 55.1481L210.094 55.2321L209.688 53.9581L210.934 53.8741C211.223 53.8554 211.438 53.8227 211.578 53.7761C211.727 53.7201 211.834 53.6221 211.9 53.4821C211.965 53.3327 212.002 53.1134 212.012 52.8241C212.04 51.9281 212.068 50.7987 212.096 49.4361C212.124 48.0641 212.147 46.9441 212.166 46.076H209.226C208.936 46.7014 208.628 47.2987 208.302 47.8681L207.21 47.1821V55.036H202.226V44.956H203.654C203.878 44.3307 204.083 43.57 204.27 42.6741L205.614 42.9261C205.455 43.6447 205.268 44.3214 205.054 44.956H207.21V47.126C207.63 46.4354 208.012 45.6887 208.358 44.8861C208.703 44.0741 208.96 43.304 209.128 42.576L210.374 42.856C210.206 43.5187 209.996 44.1767 209.744 44.83H213.468ZM205.992 49.1701V46.1881H203.458V49.1701H205.992ZM210.094 51.7041C209.842 51.1814 209.548 50.6401 209.212 50.0801C208.885 49.5201 208.582 49.0441 208.302 48.6521L209.268 47.9521C209.594 48.3721 209.93 48.8527 210.276 49.3941C210.63 49.9261 210.943 50.4441 211.214 50.9481L210.094 51.7041ZM203.458 50.4441V53.8041H205.992V50.4441H203.458Z" fill="#0E0E0E"/>
<path d="M220.109 46.3841H218.905V45.418H215.727V44.214H218.905V42.702L220.109 42.7441V44.214H223.035V42.702L224.225 42.7441V44.214H227.515V45.418H224.225V46.4961H223.035V45.418H220.109V46.3841ZM219.801 47.1121C219.484 47.6907 219.185 48.1947 218.905 48.6241V55.4141H217.687V50.206C217.202 50.7754 216.562 51.4147 215.769 52.1241L215.069 51.0181C215.872 50.3087 216.562 49.6087 217.141 48.9181C217.729 48.2274 218.261 47.4387 218.737 46.5521L219.801 47.1121ZM227.627 52.166C227.608 52.6141 227.566 53.0667 227.501 53.5241C227.445 53.9254 227.356 54.2241 227.235 54.4201C227.114 54.6161 226.927 54.7561 226.675 54.8401C226.423 54.9241 226.045 54.9847 225.541 55.022C225.308 55.0407 224.953 55.05 224.477 55.05C224.01 55.05 223.656 55.0407 223.413 55.022C222.816 54.9754 222.386 54.8214 222.125 54.5601C221.873 54.3081 221.747 53.8647 221.747 53.2301V51.7041C221.019 52.0867 220.296 52.4321 219.577 52.7401L219.073 51.5221C220.062 51.1021 220.954 50.6774 221.747 50.2481V46.734L222.993 46.7901V49.548C224.29 48.7734 225.457 47.9334 226.493 47.0281L227.221 48.0781C226.045 49.1047 224.636 50.0847 222.993 51.0181V52.8521C222.993 53.2161 223.049 53.4587 223.161 53.5801C223.282 53.7014 223.52 53.7761 223.875 53.8041C224.118 53.8321 224.346 53.8461 224.561 53.8461C224.785 53.8461 225.009 53.8321 225.233 53.8041C225.532 53.7761 225.746 53.7434 225.877 53.7061C226.017 53.6594 226.115 53.5847 226.171 53.4821C226.236 53.3794 226.283 53.2161 226.311 52.9921C226.358 52.7307 226.39 52.3247 226.409 51.7741L227.627 52.166Z" fill="#0E0E0E"/>
<path d="M241.618 48.3861H236.802C236.643 49.0207 236.527 49.4594 236.452 49.7021H240.638V50.8781C240.451 51.1954 240.171 51.6341 239.798 52.1941C239.425 52.7447 239.093 53.2114 238.804 53.5941C239.541 54.0514 240.027 54.3547 240.26 54.5041L239.658 55.6381C239.014 55.1714 238.16 54.6207 237.096 53.9861C236.041 53.3514 235.173 52.8661 234.492 52.5301L235.052 51.5501C235.603 51.7834 236.513 52.2641 237.782 52.9921C238.314 52.2361 238.795 51.5174 239.224 50.8361H235.052V49.8701C235.145 49.5994 235.295 49.1047 235.5 48.3861H234.198V47.196H235.794C235.859 46.944 235.962 46.4681 236.102 45.7681H234.576V44.5641H236.326C236.429 44.0041 236.531 43.3414 236.634 42.576L237.894 42.6881C237.838 43.1267 237.735 43.7521 237.586 44.5641H241.044V45.7681H237.362C237.269 46.2534 237.194 46.6174 237.138 46.86L237.068 47.196H241.618V48.3861ZM232.49 44.9001C232.229 45.7961 231.921 46.6547 231.566 47.4761H233.876V54.3081H230.404V49.7441C230.133 50.1827 229.853 50.6167 229.564 51.0461L228.836 50.0941C229.349 49.3007 229.816 48.4514 230.236 47.5461C230.656 46.6314 230.978 45.7494 231.202 44.9001H229.494V43.682H234.31V44.9001H232.49ZM231.524 53.1881H232.77V48.6521H231.524V53.1881Z" fill="#0E0E0E"/>
<path d="M249.057 49.6041H253.481V55.3721H252.165V54.8121H246.145V55.4001H244.815V49.7301C244.386 49.954 243.952 50.1594 243.513 50.3461L242.953 49.2681C243.793 48.9601 244.442 48.6334 244.899 48.2881C245.366 47.9334 245.697 47.5134 245.893 47.0281H243.233V46.0201H244.339L243.443 45.3341C243.779 44.9234 244.078 44.4754 244.339 43.9901C244.61 43.5047 244.829 43.0334 244.997 42.576L246.061 42.9681C245.931 43.3227 245.814 43.6074 245.711 43.822H249.309V44.83H247.307L247.293 45.3201C247.293 45.5627 247.289 45.7214 247.279 45.7961C247.279 45.8987 247.275 45.9734 247.265 46.0201H249.603V47.0281H247.153L247.111 47.1821C247.55 47.3874 248.007 47.6254 248.483 47.8961C248.969 48.1667 249.342 48.4001 249.603 48.5961L249.057 49.6041ZM249.981 48.8201V43.7101H254.587V48.8201H249.981ZM246.103 46.0201C246.113 45.9827 246.117 45.9267 246.117 45.8521C246.136 45.5161 246.145 45.1754 246.145 44.83H245.165C244.941 45.2127 244.675 45.6094 244.367 46.0201H246.103ZM251.143 47.6721H253.411V44.844H251.143V47.6721ZM245.039 49.6041H248.959C248.353 49.1467 247.606 48.6567 246.719 48.1341C246.551 48.4141 246.327 48.6707 246.047 48.904C245.777 49.1374 245.441 49.3707 245.039 49.6041ZM246.145 51.6901H252.165V50.6541H246.145V51.6901ZM246.145 52.7261V53.7761H252.165V52.7261H246.145Z" fill="#0E0E0E"/>
<path d="M261.411 43.738C261.7 44.0554 262.05 44.4894 262.461 45.0401C262.881 45.5814 263.221 46.0481 263.483 46.4401L262.601 47.2521C262.507 47.0561 262.358 46.8041 262.153 46.4961L261.607 46.524C260.431 46.5801 259.423 46.6361 258.583 46.6921C258.041 46.7387 257.617 46.7854 257.309 46.8321L257.015 45.628C257.145 45.6001 257.248 45.5627 257.323 45.5161C257.407 45.46 257.5 45.3807 257.603 45.2781C257.883 45.0167 258.223 44.6154 258.625 44.074C259.035 43.5234 259.343 43.0241 259.549 42.576L260.711 43.1501C260.477 43.5421 260.165 43.9854 259.773 44.4801C259.39 44.9654 259.049 45.3574 258.751 45.6561L261.453 45.488C261.191 45.1054 260.907 44.732 260.599 44.3681L261.411 43.738ZM263.763 47.2661V42.8001L264.981 42.842V44.8861C265.522 44.6621 266.082 44.4101 266.661 44.13C267.239 43.8407 267.687 43.598 268.005 43.4021L268.523 44.466C268.168 44.6901 267.645 44.9561 266.955 45.2641C266.273 45.5721 265.615 45.8521 264.981 46.1041V46.8461C264.981 47.1074 265.018 47.2847 265.093 47.378C265.167 47.462 265.321 47.5134 265.555 47.5321C265.853 47.5507 266.073 47.5601 266.213 47.5601C266.362 47.5601 266.577 47.5507 266.857 47.5321C267.165 47.504 267.37 47.4527 267.473 47.378C267.585 47.294 267.664 47.1354 267.711 46.9021C267.776 46.6127 267.818 46.272 267.837 45.88L268.985 46.3561C268.966 46.4401 268.947 46.5661 268.929 46.734C268.873 47.0887 268.821 47.3501 268.775 47.5181C268.691 47.9474 268.541 48.2461 268.327 48.4141C268.112 48.5821 267.757 48.6754 267.263 48.6941C266.759 48.7127 266.376 48.7221 266.115 48.7221C265.863 48.7221 265.485 48.7127 264.981 48.6941C264.561 48.6754 264.253 48.5587 264.057 48.3441C263.861 48.1201 263.763 47.7607 263.763 47.2661ZM257.617 55.2461V47.5601H262.727V53.9161C262.727 54.2801 262.68 54.5507 262.587 54.7281C262.503 54.9147 262.358 55.0454 262.153 55.1201C261.947 55.2041 261.639 55.2601 261.229 55.2881L260.683 55.3441L260.319 54.1961L261.033 54.1401C261.257 54.1214 261.397 54.0701 261.453 53.9861C261.518 53.9021 261.551 53.7154 261.551 53.4261V52.6561H258.779V55.2461H257.617ZM261.551 49.6321V48.6521H258.779V49.6321H261.551ZM269.083 52.5021C269.027 53.0154 268.952 53.4727 268.859 53.8741C268.756 54.3034 268.588 54.6067 268.355 54.7841C268.121 54.9707 267.743 55.0734 267.221 55.0921C266.735 55.1107 266.371 55.1201 266.129 55.1201C265.886 55.1201 265.531 55.1107 265.065 55.0921C264.617 55.0734 264.29 54.9474 264.085 54.7141C263.879 54.4901 263.777 54.1307 263.777 53.6361V49.1561L264.981 49.1981V51.0601C265.559 50.7987 266.138 50.5187 266.717 50.2201C267.305 49.9121 267.771 49.6461 268.117 49.4221L268.649 50.5141C268.238 50.7661 267.678 51.0647 266.969 51.4101C266.259 51.7461 265.597 52.0401 264.981 52.2921V53.2301C264.981 53.5007 265.027 53.6874 265.121 53.7901C265.223 53.8834 265.405 53.9394 265.667 53.9581C265.947 53.9767 266.161 53.9861 266.311 53.9861C266.432 53.9861 266.605 53.9767 266.829 53.9581C267.174 53.9114 267.403 53.8461 267.515 53.7621C267.627 53.6781 267.706 53.5054 267.753 53.2441C267.827 52.8241 267.879 52.4274 267.907 52.0541L269.083 52.5021ZM258.779 50.64V51.6201H261.551V50.64H258.779Z" fill="#0E0E0E"/>
<path d="M273.512 46.3141C273.316 45.9781 273.017 45.5487 272.616 45.0261C272.215 44.5034 271.855 44.0694 271.538 43.7241L272.49 42.912C272.798 43.2014 273.152 43.5887 273.554 44.074C273.964 44.55 274.296 44.9654 274.548 45.3201L273.512 46.3141ZM274.548 47.2241C274.968 46.9347 275.285 46.678 275.5 46.4541C275.715 46.2207 275.864 45.9781 275.948 45.7261C276.041 45.4647 276.088 45.1427 276.088 44.7601V43.416H280.932V45.698C280.932 45.95 280.974 46.1181 281.058 46.2021C281.142 46.2767 281.319 46.3141 281.59 46.3141H282.724L282.57 47.5321H281.072C280.559 47.5321 280.194 47.4434 279.98 47.2661C279.774 47.0794 279.672 46.7527 279.672 46.2861V44.522H277.32V45.3201C277.32 45.8147 277.166 46.3094 276.858 46.8041C276.55 47.2894 276.074 47.7421 275.43 48.1621L274.548 47.2241ZM275.668 52.6561C275.416 52.8427 275.057 53.1134 274.59 53.4681C274.123 53.8227 273.713 54.1401 273.358 54.4201C273.143 54.5787 272.919 54.7654 272.686 54.9801L271.86 54.0281C272.028 53.8694 272.135 53.7387 272.182 53.6361C272.229 53.5241 272.252 53.3701 272.252 53.1741V48.3161H270.488V47.126H273.554V52.7401L275.094 51.5361L275.668 52.6561ZM282.472 55.4281C280.866 54.84 279.574 54.1681 278.594 53.4121C277.539 54.1774 276.237 54.854 274.688 55.442L274.044 54.2661C275.481 53.7714 276.671 53.2067 277.614 52.5721C276.783 51.7414 276.097 50.6867 275.556 49.4081H274.954V48.2881H281.786V49.4221C281.272 50.6541 280.526 51.7227 279.546 52.6281C280.395 53.1881 281.571 53.7061 283.074 54.1821L282.472 55.4281ZM276.844 49.4081C277.311 50.3974 277.885 51.2141 278.566 51.8581C279.397 51.1487 280.017 50.3321 280.428 49.4081H276.844Z" fill="#0E0E0E"/>
<path d="M287.433 46.3001C287.228 45.936 286.92 45.4741 286.509 44.9141C286.098 44.3447 285.739 43.8874 285.431 43.542L286.369 42.758C286.677 43.066 287.041 43.486 287.461 44.018C287.881 44.5501 288.203 44.9934 288.427 45.3481L287.433 46.3001ZM293.201 47.364H296.701V48.666H293.201V55.3581H291.857V48.666H288.581V47.364H291.857V42.772L293.201 42.8281V47.364ZM287.517 52.6421L289.729 50.9201L290.163 52.2221C288.8 53.1927 287.867 53.8881 287.363 54.3081C287.26 54.3827 287.018 54.6021 286.635 54.9661L285.809 54.0001C285.986 53.8787 286.094 53.7621 286.131 53.6501C286.178 53.5287 286.201 53.3607 286.201 53.1461V48.3301H284.395V47.0281H287.517V52.6421Z" fill="#0E0E0E"/>
</svg>
