<svg xmlns="http://www.w3.org/2000/svg" viewBox="0 0 814.28 71.84"><defs><style>.cls-1{fill:#601922;stroke:#60b79c;stroke-linecap:round;stroke-linejoin:round;stroke-width:2.78px;}.cls-2{fill:#59acbd;}.cls-3{fill:#004772;}.cls-4{fill:#00473e;}.cls-5{fill:#00816b;}.cls-6{fill:#60b79c;}</style></defs><g id="图层_2" data-name="图层 2"><g id="文件图层"><polygon class="cls-1" points="1.39 70.44 812.89 70.44 743.84 1.39 71.01 1.39 1.39 70.44"/><path class="cls-2" d="M87.37,68.13a5.35,5.35,0,0,0-4.32-5.25,5.33,5.33,0,0,0-9.69,0,5.34,5.34,0,0,0-4.29,4.7,4.93,4.93,0,0,0,0,.55,5.16,5.16,0,0,0,.54,2.31h4.29a2.37,2.37,0,0,1,0-4.65l1.5-.29.63-1.38a2.37,2.37,0,0,1,4.31,0L81,65.5l1.49.29a2.37,2.37,0,0,1,.05,4.65h4.3A5.29,5.29,0,0,0,87.37,68.13Z"/><path class="cls-3" d="M84.41,68.13a2.39,2.39,0,0,0-1.92-2.34L81,65.5l-.64-1.38a2.37,2.37,0,0,0-4.31,0l-.63,1.38-1.5.29a2.37,2.37,0,0,0,0,4.65h8.67A2.37,2.37,0,0,0,84.41,68.13Z"/><path class="cls-4" d="M70.1,37.66a5.15,5.15,0,0,0,.77-2.73,5.22,5.22,0,0,0-5.22-5.22l-.35,0a5.22,5.22,0,0,0-10.31,0l-.36,0a5.22,5.22,0,0,0-5.22,5.22,5.15,5.15,0,0,0,.78,2.73,5.49,5.49,0,0,0,2.75,10,8.94,8.94,0,0,1,14.4,0,5.49,5.49,0,0,0,2.76-10Z"/><path class="cls-5" d="M60.14,28.27a2.27,2.27,0,0,0-2.23,1.91l-.4,2.66-2.7-.16h-.18a2.26,2.26,0,0,0-2.26,2.26,2.18,2.18,0,0,0,.34,1.18l1.48,2.42-2.35,1.58a2.56,2.56,0,0,0-1.12,2.1,2.51,2.51,0,0,0,1.22,2.17,11.85,11.85,0,0,1,8.2-3.28,11.88,11.88,0,0,1,8.21,3.28,2.54,2.54,0,0,0,.09-4.27L66.1,38.53l1.48-2.42a2.24,2.24,0,0,0,.33-1.18,2.26,2.26,0,0,0-2.26-2.26h-.18l-2.68.16-.42-2.66A2.27,2.27,0,0,0,60.14,28.27Z"/><path class="cls-4" d="M67.42,49.44c-2.79-.64-7.28,1.13-7.28,7.31a14.65,14.65,0,0,0,9.44,13.69A5.16,5.16,0,0,1,69,68.13a4.93,4.93,0,0,1,0-.55,10.1,10.1,0,0,1-3.63-4.85c-.81-2.94.82-5.11,3.13-7.26S70.2,50.08,67.42,49.44Z"/><path class="cls-5" d="M66.29,51.29c-1.93,0-4.18,1.43-4.18,5.46a12.65,12.65,0,0,0,1.2,5.35c-.43-3.49,1.71-6,3.92-8.08A1.92,1.92,0,0,0,68,52.2a1.18,1.18,0,0,0-1-.84A3,3,0,0,0,66.29,51.29Z"/><path class="cls-2" d="M32.91,68.13a5.35,5.35,0,0,1,4.32-5.25,5.33,5.33,0,0,1,9.69,0,5.34,5.34,0,0,1,4.29,4.7,4.93,4.93,0,0,1,0,.55,5.16,5.16,0,0,1-.54,2.31H46.41a2.37,2.37,0,0,0,0-4.65l-1.5-.29-.63-1.38a2.37,2.37,0,0,0-4.32,0l-.63,1.38-1.49.29a2.37,2.37,0,0,0,0,4.65h-4.3A5.29,5.29,0,0,1,32.91,68.13Z"/><path class="cls-3" d="M35.87,68.13a2.39,2.39,0,0,1,1.92-2.34l1.49-.29.63-1.38a2.37,2.37,0,0,1,4.32,0l.63,1.38,1.5.29a2.37,2.37,0,0,1,0,4.65H37.74A2.37,2.37,0,0,1,35.87,68.13Z"/><path class="cls-4" d="M52.86,49.44c2.78-.64,7.28,1.13,7.28,7.31A14.66,14.66,0,0,1,50.7,70.44a5.16,5.16,0,0,0,.54-2.31,4.93,4.93,0,0,0,0-.55,10.1,10.1,0,0,0,3.63-4.85c.8-2.94-.82-5.11-3.14-7.26S50.08,50.08,52.86,49.44Z"/><path class="cls-5" d="M54,51.29c1.93,0,4.19,1.43,4.19,5.46A12.65,12.65,0,0,1,57,62.1c.43-3.49-1.71-6-3.93-8.08a1.91,1.91,0,0,1-.72-1.82,1.18,1.18,0,0,1,1-.84A3,3,0,0,1,54,51.29Z"/><path class="cls-4" d="M25.66,61.44c-2.73-5.1-9.77-2.34-11-1.56a17.42,17.42,0,0,1,6.53,10.56h2a18.73,18.73,0,0,0-4.87-9.82,10.08,10.08,0,0,1,1.92-.21,6,6,0,0,1,1.41.16,3.41,3.41,0,0,1,2.27,1.81l.46.87,1,.15a3.23,3.23,0,0,1,2.38,1.48c.49.78,1.09,2.42.66,5.56h2C31.16,64.35,28.62,61.87,25.66,61.44Z"/><path class="cls-5" d="M27.76,64.88a3.23,3.23,0,0,0-2.38-1.48l-1-.15-.46-.87a3.41,3.41,0,0,0-2.27-1.81,6,6,0,0,0-1.41-.16,10.08,10.08,0,0,0-1.92.21,18.73,18.73,0,0,1,4.87,9.82h5.23C28.85,67.3,28.25,65.66,27.76,64.88Z"/><path class="cls-4" d="M659.61,69.55c-4,0-7.47-5-5.73-7.73s3.73-2.37,4.44-4.74c.78-2.61-2.13-4.18-4.87-3.83s-4,3.3-4,7.09,1.78,10.1,9.87,10.1,14.23-4.53,19-12.45c4.21-7,2.9-16.3-1.39-20.42-4.45-4.27-12.83-3.59-11.67,5.51-3.12,1.86-2.19,6.56,1.75,10.91,3.15,3.47,1.35,8-.52,10.84C664.51,67.91,661.93,69.55,659.61,69.55Z"/><path class="cls-4" d="M649.49,60.34c0-3.78-1.22-6.74-4-7.09a6.52,6.52,0,0,0-1.53,0,2,2,0,0,0-.34.06,2.06,2.06,0,0,0-.32.07l-.26.06-.34.12h0c-1.54.58-2.58,1.83-2.07,3.52.71,2.36,2.7,2,4.44,4.74s-1.73,7.73-5.73,7.73c-2.33,0-4.9-1.64-6.93-4.72-1.88-2.83-3.68-7.36-.53-10.84,4-4.35,4.88-9.05,1.75-10.91.68-5.25-1.83-7.7-4.92-8A8.83,8.83,0,0,0,622,37.58a11.91,11.91,0,0,0-2.87,4.58A18.8,18.8,0,0,0,620.6,58c4.79,7.91,10.92,12.45,19,12.45S649.49,64.12,649.49,60.34Z"/><path class="cls-4" d="M660,41.45a6.13,6.13,0,0,0-4.34-9.37V32a6.15,6.15,0,0,0-12.29,0s0,0,0,.07A6.13,6.13,0,0,0,639,41.45c-4.28,1.83-3.44,8.85,3.73,12.11a5.51,5.51,0,0,1,1.44-.33,3.4,3.4,0,0,1,1.91-6.2l.17,0a3.2,3.2,0,0,1-.17-1,3.4,3.4,0,0,1,6.79,0,3.19,3.19,0,0,1-.16,1l.16,0a3.4,3.4,0,0,1,1.92,6.2,5.6,5.6,0,0,1,1.44.33C663.41,50.3,664.25,43.28,660,41.45Z"/><path class="cls-4" d="M649.49,25.87c0-3.63-6.57-10.48-16.18-6.63-7,2.79-7.26,11-4.83,13.27a3,3,0,0,0,4.53-.27c3.39,1.79,5.92.46,6.27-2.44s1.16-5.91,4.64-6.73c2.7-.63,4,1.26,4.48,2.9A5.52,5.52,0,0,1,649.49,25.87Z"/><path class="cls-4" d="M649.49,25.87c0-3.63,6.56-10.48,16.18-6.63,7,2.79,7.25,11,4.82,13.27a3,3,0,0,1-4.53-.27c-3.39,1.79-5.91.46-6.26-2.44s-1.16-5.91-4.64-6.73c-2.7-.63-4,1.26-4.48,2.9A5.6,5.6,0,0,0,649.49,25.87Z"/><path class="cls-5" d="M628.05,37a3.58,3.58,0,0,1,2.75,1.1c.86,1,1.18,2.61.91,4.72l-.17,1.29,1.11.66a1.72,1.72,0,0,1,.88,1.32c.2,1.31-.51,3.73-3.08,6.56-3.09,3.42-3,8.25.34,13.26l.16.24A25.66,25.66,0,0,1,622.29,57c-3.82-6.32-2.5-14.55,1.07-18a7,7,0,0,1,4.69-2Z"/><path class="cls-5" d="M645.28,55.21c2.07.26,2.24,4,2.24,5.13a12.1,12.1,0,0,1-.15,1.84,4.67,4.67,0,0,0-.62-1.43,9.76,9.76,0,0,0-3-3c-.81-.55-1-.72-1.19-1.28a.56.56,0,0,1,.05-.57,2.89,2.89,0,0,1,2.16-.77A3,3,0,0,1,645.28,55.21Z"/><path class="cls-5" d="M670.93,37a6.93,6.93,0,0,1,4.68,2c3.58,3.42,4.89,11.65,1.07,18-2.57,4.25-5.43,7.3-8.65,9.19.05-.08.1-.16.16-.24,3.31-5,3.43-9.84.33-13.26-2.57-2.83-3.27-5.25-3.07-6.56a1.74,1.74,0,0,1,.87-1.32l1.12-.66-.17-1.29c-.27-2.11,0-3.74.9-4.72a3.59,3.59,0,0,1,2.76-1.1Z"/><path class="cls-5" d="M654.21,55.17a2.88,2.88,0,0,1,2.16.77.55.55,0,0,1,.06.57c-.17.56-.39.73-1.19,1.28a9.77,9.77,0,0,0-3,3,4.65,4.65,0,0,0-.61,1.43,10.93,10.93,0,0,1-.15-1.84c0-1.14.16-4.87,2.24-5.13A2.92,2.92,0,0,1,654.21,55.17Z"/><path class="cls-5" d="M649.49,27.84a4.17,4.17,0,0,0-4.17,4.08V33.8l-1.71.23A4.17,4.17,0,0,0,640,38.15a4.23,4.23,0,0,0,.65,2.24l1.24,2-2.13.92a2.32,2.32,0,0,0-1.4,2.25A6.2,6.2,0,0,0,640.75,50a5.37,5.37,0,0,1,3.41-4.55,5.37,5.37,0,0,1,10.66,0A5.39,5.39,0,0,1,658.23,50a6.24,6.24,0,0,0,2.37-4.46,2.32,2.32,0,0,0-1.41-2.25l-2.13-.92,1.24-2A4.15,4.15,0,0,0,655.36,34l-1.71-.23V31.89A4.18,4.18,0,0,0,649.49,27.84Z"/><path class="cls-5" d="M638.88,20.08a13,13,0,0,0-4.84,1A7.75,7.75,0,0,0,629.21,27a5.19,5.19,0,0,0,.61,4.11,1.32,1.32,0,0,0,.89.36.81.81,0,0,0,.65-.26l1-1.51,1.6.84a4.29,4.29,0,0,0,1.95.59c.34,0,1.25,0,1.43-1.51.23-2,.86-7.17,6.13-8.42A10.07,10.07,0,0,0,638.88,20.08Z"/><path class="cls-5" d="M660.09,20.08a13.14,13.14,0,0,1,4.85,1A7.8,7.8,0,0,1,669.77,27a5.19,5.19,0,0,1-.61,4.11,1.32,1.32,0,0,1-.89.36.79.79,0,0,1-.65-.26l-1-1.51-1.59.84a4.29,4.29,0,0,1-1.95.59c-.34,0-1.25,0-1.43-1.51-.24-2-.86-7.17-6.13-8.42A10,10,0,0,1,660.09,20.08Z"/><path class="cls-2" d="M658,12.89a6.27,6.27,0,0,0-3.62-1.35,5,5,0,0,0-9.77,0A6.3,6.3,0,0,0,641,12.89a4.56,4.56,0,0,0-1.08,5.25,12.77,12.77,0,0,1,1.42.2,11.13,11.13,0,0,1,3.17,1.13,10.43,10.43,0,0,1,1.51,1,4,4,0,0,0,1.17-.77l0,0a3.32,3.32,0,0,1,4.58,0l0,0a4,4,0,0,0,1.17.77,9.45,9.45,0,0,1,1.51-1,11.06,11.06,0,0,1,3.16-1.13,13,13,0,0,1,1.43-.2A4.56,4.56,0,0,0,658,12.89Z"/><path class="cls-3" d="M658.13,16.65a2.77,2.77,0,0,0-.92-1.95,4.9,4.9,0,0,0-2.64-.9l-1.51-.14-.37-1.47a3.29,3.29,0,0,0-6.4,0l-.37,1.47-1.51.14a4.94,4.94,0,0,0-2.65.9,2.85,2.85,0,0,0-.92,1.95,2.77,2.77,0,0,0,.48,1.69,11.13,11.13,0,0,1,3.17,1.13,2.83,2.83,0,0,0,1.07-.62,5.73,5.73,0,0,1,7.85,0l.05.05a2.75,2.75,0,0,0,1,.58,11.06,11.06,0,0,1,3.16-1.13A2.77,2.77,0,0,0,658.13,16.65Z"/><path class="cls-2" d="M681.89,27.76a5.05,5.05,0,0,0-5.61-2.66,6.39,6.39,0,0,0-2.82-2.63,4.53,4.53,0,0,0-3.47.08,10.29,10.29,0,0,1,.78,1.27,9.72,9.72,0,0,1,.93,6.26,6.16,6.16,0,0,1-.52,1.52,3.34,3.34,0,0,1,1.07,3.54v0a9,9,0,0,1,1.58.43,9.23,9.23,0,0,1,3.15,2,9.71,9.71,0,0,1,1.3,1.53,11.72,11.72,0,0,1,.76,1.24,4.62,4.62,0,0,0,2-2.66,6.34,6.34,0,0,0-.41-3.84A5,5,0,0,0,681.89,27.76Z"/><path class="cls-3" d="M680.13,28.65a3.28,3.28,0,0,0-3.68-1.74l-1.48.32-.8-1.29a5,5,0,0,0-2-2,2.74,2.74,0,0,0-1.41-.16,9.72,9.72,0,0,1,.93,6.26,5.67,5.67,0,0,1,2.13,5.51,9.23,9.23,0,0,1,3.15,2,9.71,9.71,0,0,1,1.3,1.53,2.8,2.8,0,0,0,.8-1.3,4.82,4.82,0,0,0-.37-2.77l-.55-1.42,1.15-1A3.29,3.29,0,0,0,680.13,28.65Z"/><path class="cls-6" d="M648.4,26c-.44-1.64-1.78-3.53-4.48-2.9-3.48.82-4.29,3.83-4.64,6.73S636.4,34,633,32.24a3,3,0,0,1-3.81.77,1.35,1.35,0,0,0-.59,1.53l0,.09c0,.15.07.29.1.44,3.09.31,5.6,2.76,4.92,8,3.13,1.86,2.2,6.56-1.75,10.91-3.15,3.48-1.35,8,.53,10.84,2,3.08,4.6,4.72,6.93,4.72,4,0,7.47-5,5.73-7.73s-3.73-2.38-4.44-4.74c-.51-1.69.53-2.94,2.07-3.52-7.16-3.27-8-10.28-3.72-12.11a6.13,6.13,0,0,1,4.34-9.37s0,0,0-.07A6.14,6.14,0,0,1,648.4,26Z"/><path class="cls-6" d="M650.58,26c.44-1.64,1.78-3.53,4.48-2.9,3.48.82,4.29,3.83,4.64,6.73S662.57,34,666,32.24a3,3,0,0,0,3.82.77,1.35,1.35,0,0,1,.59,1.53l0,.09a3.48,3.48,0,0,0-.1.44c-3.09.31-5.6,2.76-4.92,8-3.13,1.86-2.2,6.56,1.74,10.91,3.16,3.48,1.35,8-.52,10.84-2,3.08-4.61,4.72-6.93,4.72-4,0-7.47-5-5.73-7.73s3.73-2.38,4.44-4.74c.5-1.69-.54-2.94-2.07-3.52,7.16-3.27,8-10.28,3.72-12.11a6.13,6.13,0,0,0-4.34-9.37V32A6.13,6.13,0,0,0,650.58,26Z"/><path class="cls-2" d="M617.08,27.76a5.07,5.07,0,0,1,5.61-2.66,6.36,6.36,0,0,1,2.83-2.63,4.53,4.53,0,0,1,3.47.08,8.33,8.33,0,0,0-.78,1.27,9.72,9.72,0,0,0-.93,6.26,6.16,6.16,0,0,0,.52,1.52,3.32,3.32,0,0,0-1.08,3.54v0A9,9,0,0,0,622,37.58a9.77,9.77,0,0,0-1.31,1.53,11.66,11.66,0,0,0-.75,1.24,4.58,4.58,0,0,1-2-2.66,6.34,6.34,0,0,1,.41-3.84A5.05,5.05,0,0,1,617.08,27.76Z"/><path class="cls-3" d="M618.84,28.65a3.29,3.29,0,0,1,3.68-1.74l1.49.32.8-1.29a4.84,4.84,0,0,1,2-2,2.74,2.74,0,0,1,1.41-.16,9.72,9.72,0,0,0-.93,6.26,5.7,5.7,0,0,0-2.14,5.51,9.19,9.19,0,0,0-3.14,2,9.77,9.77,0,0,0-1.31,1.53,2.88,2.88,0,0,1-.8-1.3,4.9,4.9,0,0,1,.37-2.77l.55-1.42-1.15-1A3.3,3.3,0,0,1,618.84,28.65Z"/><path class="cls-3" d="M628.77,70.44c-6.2-3.63-10.47-10.56-12.08-13.17l-.31-.49c-1.51-2.4-3.14-3.91-6.2-3.47a3.21,3.21,0,0,0-2.5,1.78,4.23,4.23,0,0,0-.33,3.37l.87,1.78-1.78.86a4.49,4.49,0,0,0-2.27,4.68c.38,1.92,2.39,3.89,6.23,4.66Z"/><path class="cls-2" d="M633.94,70.44c-8.46-2-14.5-12.51-15.89-14.71s-3.63-5-8.15-4.38c-4.28.61-5.48,5.59-4.32,8a6.17,6.17,0,0,0,.1,11.11h4.72c-3.84-.77-5.85-2.74-6.23-4.66a4.49,4.49,0,0,1,2.27-4.68l1.78-.86-.87-1.78a4.23,4.23,0,0,1,.33-3.37,3.21,3.21,0,0,1,2.5-1.78c3.06-.44,4.69,1.07,6.2,3.47l.31.49c1.61,2.61,5.88,9.54,12.08,13.17Z"/><path class="cls-3" d="M670.21,70.44c6.19-3.63,10.47-10.56,12.08-13.17l.31-.49c1.51-2.4,3.14-3.91,6.2-3.47a3.22,3.22,0,0,1,2.5,1.78,4.22,4.22,0,0,1,.32,3.37l-.87,1.78,1.79.86a4.48,4.48,0,0,1,2.26,4.68c-.37,1.92-2.38,3.89-6.22,4.66Z"/><path class="cls-2" d="M665,70.44c8.46-2,14.49-12.51,15.89-14.71s3.62-5,8.15-4.38c4.28.61,5.47,5.59,4.32,8a6.17,6.17,0,0,1-.1,11.11h-4.72c3.84-.77,5.85-2.74,6.22-4.66a4.48,4.48,0,0,0-2.26-4.68l-1.79-.86.87-1.78a4.22,4.22,0,0,0-.32-3.37,3.22,3.22,0,0,0-2.5-1.78c-3.06-.44-4.69,1.07-6.2,3.47l-.31.49c-1.61,2.61-5.89,9.54-12.08,13.17Z"/><path class="cls-4" d="M700,63.5A5,5,0,0,1,704.74,57h0a5.33,5.33,0,0,1,10.62,0h0a5,5,0,0,1,4.73,6.55,5,5,0,0,1,2,6.94h-2.66a3,3,0,0,0-.25-5.2l-1.48-.77.52-1.59a3,3,0,0,0-2.79-4h-1.9l-.16-1.8a3.35,3.35,0,0,0-6.68,0l-.16,1.8h-1.89a3,3,0,0,0-2.8,4l.52,1.59-1.48.77a3,3,0,0,0-.26,5.2H698a5,5,0,0,1,2-6.94Z"/><path class="cls-5" d="M699.29,67.91a3,3,0,0,1,1.63-2.67l1.48-.77-.52-1.59a3,3,0,0,1,2.8-4h1.89l.16-1.8a3.35,3.35,0,0,1,6.68,0l.16,1.8h1.9a3,3,0,0,1,2.79,4l-.52,1.59,1.48.77a3,3,0,0,1,.25,5.2H716.6a4.55,4.55,0,0,0,.62-2.32A4.71,4.71,0,0,0,714.77,64a4.71,4.71,0,0,0-9.39,0,4.7,4.7,0,0,0-2.45,4.12,4.55,4.55,0,0,0,.62,2.32h-2.89A3,3,0,0,1,699.29,67.91Z"/><path class="cls-4" d="M707,65.05a3.29,3.29,0,0,1-.09-.71,3.14,3.14,0,0,1,6.27,0,3.29,3.29,0,0,1-.09.71,3.15,3.15,0,0,1,2.52,3.07,3.06,3.06,0,0,1-1,2.32h-9.07a3.06,3.06,0,0,1-1-2.32A3.14,3.14,0,0,1,707,65.05Z"/><path class="cls-4" d="M518.19,69.55c4,0,7.47-5,5.73-7.73s-3.72-2.37-4.44-4.74c-.78-2.61,2.13-4.18,4.88-3.83s3.95,3.3,3.95,7.09-1.78,10.1-9.87,10.1-14.22-4.53-19-12.45c-4.21-7-2.9-16.3,1.39-20.42,4.46-4.27,12.84-3.59,11.67,5.51,3.12,1.86,2.19,6.56-1.75,10.91-3.15,3.47-1.35,8,.52,10.84C513.29,67.91,515.87,69.55,518.19,69.55Z"/><path class="cls-4" d="M528.31,60.34c0-3.78,1.22-6.74,4-7.09a6.61,6.61,0,0,1,1.54,0,1.91,1.91,0,0,1,.33.06,1.83,1.83,0,0,1,.32.07l.26.06.35.12h0c1.54.58,2.58,1.83,2.08,3.52-.71,2.36-2.7,2-4.44,4.74s1.72,7.73,5.72,7.73c2.33,0,4.9-1.64,6.94-4.72,1.87-2.83,3.67-7.36.52-10.84-3.95-4.35-4.87-9.05-1.75-10.91-.67-5.25,1.83-7.7,4.92-8a8.87,8.87,0,0,1,6.75,2.51,11.89,11.89,0,0,1,2.86,4.58A18.8,18.8,0,0,1,557.2,58c-4.79,7.91-10.92,12.45-19,12.45S528.31,64.12,528.31,60.34Z"/><path class="cls-4" d="M517.83,41.45a6.21,6.21,0,0,1-1-3.3,6.12,6.12,0,0,1,5.31-6.07s0,0,0-.07a6.15,6.15,0,0,1,12.29,0s0,0,0,.07a6.12,6.12,0,0,1,5.31,6.07,6.21,6.21,0,0,1-1,3.3c4.28,1.83,3.43,8.85-3.73,12.11a5.7,5.7,0,0,0-1.44-.33,3.4,3.4,0,0,0-1.92-6.2l-.17,0a3.2,3.2,0,0,0,.17-1,3.4,3.4,0,0,0-6.79,0,3.2,3.2,0,0,0,.17,1l-.17,0a3.4,3.4,0,0,0-1.92,6.2,5.7,5.7,0,0,0-1.44.33C514.39,50.3,513.55,43.28,517.83,41.45Z"/><path class="cls-4" d="M528.31,25.87c0-3.63,6.57-10.48,16.19-6.63,7,2.79,7.25,11,4.82,13.27a3,3,0,0,1-4.53-.27c-3.39,1.79-5.92.46-6.26-2.44s-1.17-5.91-4.65-6.73c-2.7-.63-4,1.26-4.47,2.9A5.7,5.7,0,0,0,528.31,25.87Z"/><path class="cls-4" d="M528.31,25.87c0-3.63-6.56-10.48-16.18-6.63-7,2.79-7.25,11-4.82,13.27a3,3,0,0,0,4.53-.27c3.39,1.79,5.92.46,6.26-2.44s1.17-5.91,4.65-6.73c2.7-.63,4,1.26,4.47,2.9A5.67,5.67,0,0,1,528.31,25.87Z"/><path class="cls-5" d="M549.76,37a7,7,0,0,1,4.68,2c3.57,3.42,4.89,11.65,1.07,18a25.66,25.66,0,0,1-8.66,9.19l.16-.24c3.31-5,3.44-9.84.34-13.26-2.57-2.83-3.27-5.25-3.08-6.56a1.72,1.72,0,0,1,.88-1.32l1.11-.66-.16-1.29c-.27-2.11,0-3.74.9-4.72a3.59,3.59,0,0,1,2.76-1.1Z"/><path class="cls-5" d="M533,55.17a2.89,2.89,0,0,1,2.16.77.58.58,0,0,1,.06.57c-.17.56-.39.73-1.2,1.28a9.87,9.87,0,0,0-3,3,4.92,4.92,0,0,0-.62,1.43,11.94,11.94,0,0,1-.14-1.84c0-1.14.16-4.87,2.23-5.13A3,3,0,0,1,533,55.17Z"/><path class="cls-5" d="M506.87,37a3.59,3.59,0,0,1,2.76,1.1c.86,1,1.17,2.61.9,4.72l-.16,1.29,1.11.66a1.71,1.71,0,0,1,.87,1.32c.2,1.31-.5,3.73-3.07,6.56-3.1,3.42-3,8.25.34,13.26l.16.24A25.66,25.66,0,0,1,501.12,57c-3.82-6.32-2.5-14.55,1.07-18a7,7,0,0,1,4.68-2Z"/><path class="cls-5" d="M524.11,55.21c2.07.26,2.23,4,2.23,5.13a11.94,11.94,0,0,1-.14,1.84,4.92,4.92,0,0,0-.62-1.43,9.87,9.87,0,0,0-3-3c-.81-.55-1-.72-1.2-1.28a.58.58,0,0,1,.06-.57,2.89,2.89,0,0,1,2.16-.77A3,3,0,0,1,524.11,55.21Z"/><path class="cls-5" d="M528.31,27.84a4.18,4.18,0,0,1,4.18,4.08.81.81,0,0,0,0,.16V33.8l1.71.23a4.17,4.17,0,0,1,2.94,6.36l-1.24,2,2.13.92a2.29,2.29,0,0,1,1.4,2.25A6.2,6.2,0,0,1,537.05,50a5.38,5.38,0,0,0-3.4-4.55,5.38,5.38,0,0,0-10.67,0,5.38,5.38,0,0,0-3.4,4.55,6.2,6.2,0,0,1-2.37-4.46,2.29,2.29,0,0,1,1.4-2.25l2.13-.92-1.24-2A4.17,4.17,0,0,1,522.44,34l1.71-.23V31.89A4.18,4.18,0,0,1,528.31,27.84Z"/><path class="cls-5" d="M538.92,20.08a13,13,0,0,1,4.84,1A7.79,7.79,0,0,1,548.6,27c.38,2.06-.14,3.67-.62,4.11a1.3,1.3,0,0,1-.88.36.82.82,0,0,1-.66-.26l-1-1.51-1.59.84a4.32,4.32,0,0,1-2,.59c-.34,0-1.24,0-1.43-1.51-.23-2-.85-7.17-6.13-8.42A10.1,10.1,0,0,1,538.92,20.08Z"/><path class="cls-5" d="M517.71,20.08a13,13,0,0,0-4.84,1A7.79,7.79,0,0,0,508,27c-.38,2.06.14,3.67.62,4.11a1.3,1.3,0,0,0,.88.36.82.82,0,0,0,.66-.26l1-1.51,1.59.84a4.32,4.32,0,0,0,2,.59c.34,0,1.24,0,1.43-1.51.23-2,.85-7.17,6.13-8.42A10.1,10.1,0,0,0,517.71,20.08Z"/><path class="cls-2" d="M519.81,12.89a6.3,6.3,0,0,1,3.62-1.35,5,5,0,0,1,9.77,0,6.3,6.3,0,0,1,3.62,1.35,4.56,4.56,0,0,1,1.09,5.25,12.63,12.63,0,0,0-1.43.2,11.13,11.13,0,0,0-3.17,1.13,10.43,10.43,0,0,0-1.51,1,4.16,4.16,0,0,1-1.17-.77l0,0a3.32,3.32,0,0,0-4.58,0l0,0a4.16,4.16,0,0,1-1.17.77,10.43,10.43,0,0,0-1.51-1,11.13,11.13,0,0,0-3.17-1.13,12.63,12.63,0,0,0-1.43-.2A4.56,4.56,0,0,1,519.81,12.89Z"/><path class="cls-3" d="M519.67,16.65a2.77,2.77,0,0,1,.92-1.95,4.9,4.9,0,0,1,2.64-.9l1.51-.14.37-1.47a3.3,3.3,0,0,1,6.41,0l.37,1.47,1.51.14a4.9,4.9,0,0,1,2.64.9,2.81,2.81,0,0,1,.92,1.95,2.77,2.77,0,0,1-.48,1.69,11.13,11.13,0,0,0-3.17,1.13,2.72,2.72,0,0,1-1.06-.62,5.8,5.8,0,0,0-3.94-1.56,5.73,5.73,0,0,0-3.91,1.55l-.06.05a2.71,2.71,0,0,1-1,.58,11.13,11.13,0,0,0-3.17-1.13A2.77,2.77,0,0,1,519.67,16.65Z"/><path class="cls-2" d="M495.91,27.76a5.07,5.07,0,0,1,5.61-2.66,6.39,6.39,0,0,1,2.82-2.63,4.55,4.55,0,0,1,3.48.08,8.33,8.33,0,0,0-.78,1.27,9.59,9.59,0,0,0-.93,6.26,5.43,5.43,0,0,0,.52,1.52,3.32,3.32,0,0,0-1.08,3.54v0a9.14,9.14,0,0,0-1.59.43,9.23,9.23,0,0,0-3.15,2,10.27,10.27,0,0,0-1.3,1.53,11.72,11.72,0,0,0-.76,1.24,4.66,4.66,0,0,1-2-2.66,6.42,6.42,0,0,1,.41-3.84A5.06,5.06,0,0,1,495.91,27.76Z"/><path class="cls-3" d="M497.67,28.65a3.28,3.28,0,0,1,3.68-1.74l1.48.32.8-1.29a5,5,0,0,1,2-2,2.76,2.76,0,0,1,1.42-.16,9.59,9.59,0,0,0-.93,6.26,5.62,5.62,0,0,0-1.63,2,5.73,5.73,0,0,0-.51,3.55,9.23,9.23,0,0,0-3.15,2,10.27,10.27,0,0,0-1.3,1.53,2.88,2.88,0,0,1-.8-1.3,4.82,4.82,0,0,1,.37-2.77l.55-1.42-1.15-1A3.29,3.29,0,0,1,497.67,28.65Z"/><path class="cls-6" d="M529.41,26c.44-1.64,1.77-3.53,4.47-2.9,3.48.82,4.3,3.83,4.65,6.73s2.87,4.23,6.26,2.44a3,3,0,0,0,3.81.77,1.35,1.35,0,0,1,.59,1.53l0,.09c0,.15-.08.29-.11.44-3.09.31-5.59,2.76-4.92,8-3.12,1.86-2.2,6.56,1.75,10.91,3.15,3.48,1.35,8-.52,10.84-2,3.08-4.61,4.72-6.94,4.72-4,0-7.46-5-5.72-7.73s3.73-2.38,4.44-4.74c.5-1.69-.54-2.94-2.08-3.52,7.16-3.27,8-10.28,3.73-12.11a6.21,6.21,0,0,0,1-3.3,6.12,6.12,0,0,0-5.31-6.07s0,0,0-.07A6.14,6.14,0,0,0,529.41,26Z"/><path class="cls-6" d="M527.22,26c-.44-1.64-1.77-3.53-4.47-2.9-3.48.82-4.3,3.83-4.65,6.73s-2.87,4.23-6.26,2.44A3,3,0,0,1,508,33a1.35,1.35,0,0,0-.6,1.53l0,.09c0,.15.08.29.11.44,3.09.31,5.59,2.76,4.92,8,3.12,1.86,2.2,6.56-1.75,10.91-3.15,3.48-1.35,8,.52,10.84,2,3.08,4.61,4.72,6.93,4.72,4,0,7.47-5,5.73-7.73s-3.73-2.38-4.44-4.74c-.5-1.69.54-2.94,2.08-3.52-7.17-3.27-8-10.28-3.73-12.11a6.21,6.21,0,0,1-1-3.3,6.12,6.12,0,0,1,5.31-6.07s0,0,0-.07A6.13,6.13,0,0,1,527.22,26Z"/><path class="cls-2" d="M560.72,27.76a5.07,5.07,0,0,0-5.61-2.66,6.39,6.39,0,0,0-2.82-2.63,4.55,4.55,0,0,0-3.48.08,8.33,8.33,0,0,1,.78,1.27,9.65,9.65,0,0,1,.93,6.26A5.43,5.43,0,0,1,550,31.6a3.32,3.32,0,0,1,1.08,3.54v0a9.14,9.14,0,0,1,1.59.43,9.23,9.23,0,0,1,3.15,2,10.27,10.27,0,0,1,1.3,1.53,11.72,11.72,0,0,1,.76,1.24,4.66,4.66,0,0,0,2-2.66,6.42,6.42,0,0,0-.41-3.84A5.06,5.06,0,0,0,560.72,27.76Z"/><path class="cls-3" d="M559,28.65a3.29,3.29,0,0,0-3.68-1.74l-1.48.32-.8-1.29a4.91,4.91,0,0,0-2-2,2.72,2.72,0,0,0-1.41-.16,9.65,9.65,0,0,1,.93,6.26,5.62,5.62,0,0,1,1.63,2,5.73,5.73,0,0,1,.51,3.55,9.23,9.23,0,0,1,3.15,2,10.27,10.27,0,0,1,1.3,1.53,2.88,2.88,0,0,0,.8-1.3,4.82,4.82,0,0,0-.37-2.77L557,33.62l1.15-1A3.29,3.29,0,0,0,559,28.65Z"/><path class="cls-3" d="M549,70.44c6.2-3.63,10.47-10.56,12.09-13.17l.3-.49c1.51-2.4,3.14-3.91,6.2-3.47a3.21,3.21,0,0,1,2.5,1.78,4.23,4.23,0,0,1,.33,3.37l-.87,1.78,1.78.86a4.48,4.48,0,0,1,2.27,4.68c-.37,1.92-2.39,3.89-6.23,4.66Z"/><path class="cls-2" d="M543.86,70.44c8.47-2,14.5-12.51,15.89-14.71s3.63-5,8.15-4.38c4.28.61,5.48,5.59,4.33,8a6.17,6.17,0,0,1-.1,11.11H567.4c3.84-.77,5.86-2.74,6.23-4.66a4.48,4.48,0,0,0-2.27-4.68l-1.78-.86.87-1.78a4.23,4.23,0,0,0-.33-3.37,3.21,3.21,0,0,0-2.5-1.78c-3.06-.44-4.69,1.07-6.2,3.47l-.3.49c-1.62,2.61-5.89,9.54-12.09,13.17Z"/><path class="cls-3" d="M507.6,70.44c-6.2-3.63-10.47-10.56-12.09-13.17l-.3-.49c-1.51-2.4-3.14-3.91-6.21-3.47a3.21,3.21,0,0,0-2.49,1.78,4.23,4.23,0,0,0-.33,3.37l.87,1.78-1.78.86A4.48,4.48,0,0,0,483,65.78c.37,1.92,2.39,3.89,6.23,4.66Z"/><path class="cls-2" d="M512.77,70.44c-8.47-2-14.5-12.51-15.89-14.71s-3.63-5-8.15-4.38c-4.28.61-5.48,5.59-4.33,8a6.17,6.17,0,0,0,.1,11.11h4.73c-3.84-.77-5.86-2.74-6.23-4.66a4.48,4.48,0,0,1,2.27-4.68l1.78-.86-.87-1.78a4.23,4.23,0,0,1,.33-3.37A3.21,3.21,0,0,1,489,53.31c3.07-.44,4.7,1.07,6.21,3.47l.3.49c1.62,2.61,5.89,9.54,12.09,13.17Z"/><path class="cls-4" d="M477.79,63.5A5,5,0,0,0,473.06,57h0a5.33,5.33,0,0,0-10.62,0h0a5,5,0,0,0-4.73,6.55A5,5,0,0,0,455,67.91a4.92,4.92,0,0,0,.69,2.53h2.66a3,3,0,0,1,.25-5.2l1.48-.77-.52-1.59a3,3,0,0,1,2.79-4h1.9l.16-1.8a3.35,3.35,0,0,1,6.68,0l.16,1.8h1.89a3,3,0,0,1,2.8,4l-.52,1.59,1.48.77a3,3,0,0,1,1.63,2.67,3,3,0,0,1-1.37,2.53h2.65a5,5,0,0,0-2-6.94Z"/><path class="cls-5" d="M478.51,67.91a3,3,0,0,0-1.63-2.67l-1.48-.77.52-1.59a3,3,0,0,0-2.8-4h-1.89l-.16-1.8a3.35,3.35,0,0,0-6.68,0l-.16,1.8h-1.9a3,3,0,0,0-2.79,4l.52,1.59-1.48.77a3,3,0,0,0-.25,5.2h2.87a4.66,4.66,0,0,1-.62-2.32A4.71,4.71,0,0,1,463,64a4.71,4.71,0,0,1,9.4,0,4.72,4.72,0,0,1,2.45,4.12,4.66,4.66,0,0,1-.62,2.32h2.88A3,3,0,0,0,478.51,67.91Z"/><path class="cls-4" d="M470.78,65.05a3.29,3.29,0,0,0,.08-.71,3.13,3.13,0,0,0-6.26,0,3.29,3.29,0,0,0,.09.71,3.15,3.15,0,0,0-2.53,3.07,3.07,3.07,0,0,0,1,2.32h9.06a3.07,3.07,0,0,0,1-2.32A3.15,3.15,0,0,0,470.78,65.05Z"/><path class="cls-4" d="M599,63.5A5,5,0,0,0,594.23,57h0a5.33,5.33,0,0,0-10.61,0h0a5,5,0,0,0-4.74,6.55,5,5,0,0,0-2.68,4.41,4.92,4.92,0,0,0,.69,2.53h2.66a3,3,0,0,1,.25-5.2l1.48-.77-.52-1.59a2.77,2.77,0,0,1-.16-.94,3,3,0,0,1,3-3h1.9l.16-1.8a3.35,3.35,0,0,1,6.67,0l.16,1.8h1.9a3,3,0,0,1,3,3,2.77,2.77,0,0,1-.16.94l-.52,1.59,1.48.77a3,3,0,0,1,.26,5.2H601a5,5,0,0,0-2-6.94Z"/><path class="cls-5" d="M599.68,67.91a3,3,0,0,0-1.63-2.67l-1.48-.77.52-1.59a2.77,2.77,0,0,0,.16-.94,3,3,0,0,0-3-3h-1.9l-.16-1.8a3.35,3.35,0,0,0-6.67,0l-.16,1.8h-1.9a3,3,0,0,0-3,3,2.77,2.77,0,0,0,.16.94l.52,1.59-1.48.77a3,3,0,0,0-.25,5.2h2.86a4.66,4.66,0,0,1-.62-2.32A4.73,4.73,0,0,1,584.2,64a4.71,4.71,0,0,1,9.4,0,4.72,4.72,0,0,1,2.45,4.12,4.66,4.66,0,0,1-.62,2.32h2.88A3,3,0,0,0,599.68,67.91Z"/><path class="cls-4" d="M592,65.05a3.29,3.29,0,0,0,.08-.71,3.13,3.13,0,1,0-6.26,0,3.29,3.29,0,0,0,.09.71,3.16,3.16,0,0,0-2.53,3.07,3.07,3.07,0,0,0,1,2.32h9.06a3.07,3.07,0,0,0,1-2.32A3.15,3.15,0,0,0,592,65.05Z"/><path class="cls-4" d="M275.85,69.55c4,0,7.46-5,5.72-7.73s-3.72-2.37-4.43-4.74c-.79-2.61,2.13-4.18,4.87-3.83s4,3.3,4,7.09-1.79,10.1-9.88,10.1-14.22-4.53-19-12.45c-4.2-7-2.9-16.3,1.4-20.42,4.45-4.27,12.83-3.59,11.66,5.51,3.13,1.86,2.2,6.56-1.75,10.91-3.15,3.47-1.35,8,.53,10.84C271,67.91,273.53,69.55,275.85,69.55Z"/><path class="cls-4" d="M286,60.34c0-3.78,1.22-6.74,4-7.09a6.52,6.52,0,0,1,1.53,0,1.91,1.91,0,0,1,.33.06,1.65,1.65,0,0,1,.32.07l.27.06.34.12h0c1.53.58,2.57,1.83,2.07,3.52-.71,2.36-2.7,2-4.44,4.74s1.73,7.73,5.73,7.73c2.32,0,4.9-1.64,6.93-4.72,1.87-2.83,3.67-7.36.52-10.84-3.94-4.35-4.87-9.05-1.75-10.91-.67-5.25,1.84-7.7,4.93-8a8.86,8.86,0,0,1,6.74,2.51,12,12,0,0,1,2.87,4.58A18.84,18.84,0,0,1,314.85,58c-4.79,7.91-10.92,12.45-19,12.45S286,64.12,286,60.34Z"/><path class="cls-4" d="M275.49,41.45a6.13,6.13,0,0,1,4.34-9.37s0,0,0-.07a6.15,6.15,0,0,1,12.29,0v.07a6.11,6.11,0,0,1,5.3,6.07,6.21,6.21,0,0,1-1,3.3c4.28,1.83,3.44,8.85-3.73,12.11a5.6,5.6,0,0,0-1.44-.33,3.4,3.4,0,0,0-1.92-6.2l-.16,0a3.53,3.53,0,0,0,.16-1,3.4,3.4,0,0,0-6.79,0,3.2,3.2,0,0,0,.17,1l-.17,0a3.4,3.4,0,0,0-1.91,6.2,5.51,5.51,0,0,0-1.44.33C272.05,50.3,271.21,43.28,275.49,41.45Z"/><path class="cls-4" d="M286,25.87c0-3.63,6.56-10.48,16.18-6.63,7,2.79,7.25,11,4.82,13.27a3,3,0,0,1-4.53-.27c-3.39,1.79-5.91.46-6.26-2.44s-1.16-5.91-4.64-6.73c-2.7-.63-4,1.26-4.48,2.9A5.6,5.6,0,0,0,286,25.87Z"/><path class="cls-4" d="M286,25.87c0-3.63-6.57-10.48-16.18-6.63-7,2.79-7.26,11-4.83,13.27a3,3,0,0,0,4.53-.27c3.39,1.79,5.92.46,6.27-2.44s1.16-5.91,4.64-6.73c2.7-.63,4,1.26,4.47,2.9A5.7,5.7,0,0,1,286,25.87Z"/><path class="cls-5" d="M307.41,37a6.93,6.93,0,0,1,4.68,2c3.58,3.42,4.89,11.65,1.07,18-2.57,4.25-5.43,7.3-8.65,9.19l.16-.24c3.31-5,3.43-9.84.33-13.26-2.57-2.83-3.27-5.25-3.07-6.56a1.74,1.74,0,0,1,.87-1.32l1.12-.66-.17-1.29c-.27-2.11,0-3.74.9-4.72a3.59,3.59,0,0,1,2.76-1.1Z"/><path class="cls-5" d="M290.69,55.17a2.88,2.88,0,0,1,2.16.77.55.55,0,0,1,.06.57c-.17.56-.39.73-1.19,1.28a9.77,9.77,0,0,0-3,3,4.65,4.65,0,0,0-.61,1.43,10.93,10.93,0,0,1-.15-1.84c0-1.14.16-4.87,2.24-5.13A2.85,2.85,0,0,1,290.69,55.17Z"/><path class="cls-5" d="M264.53,37a3.58,3.58,0,0,1,2.75,1.1c.86,1,1.18,2.61.9,4.72L268,44.12l1.11.66A1.72,1.72,0,0,1,270,46.1c.2,1.31-.51,3.73-3.08,6.56-3.09,3.42-3,8.25.34,13.26l.16.24A25.66,25.66,0,0,1,258.77,57c-3.82-6.32-2.5-14.55,1.07-18a7,7,0,0,1,4.69-2Z"/><path class="cls-5" d="M281.76,55.21c2.07.26,2.23,4,2.23,5.13a11.94,11.94,0,0,1-.14,1.84,4.67,4.67,0,0,0-.62-1.43,9.87,9.87,0,0,0-3-3c-.81-.55-1-.72-1.19-1.28a.56.56,0,0,1,.05-.57,2.89,2.89,0,0,1,2.16-.77A3,3,0,0,1,281.76,55.21Z"/><path class="cls-5" d="M286,27.84a4.18,4.18,0,0,1,4.17,4.08s0,.1,0,.16V33.8l1.71.23a4.15,4.15,0,0,1,2.94,6.36l-1.24,2,2.13.92a2.32,2.32,0,0,1,1.41,2.25A6.28,6.28,0,0,1,294.71,50a5.39,5.39,0,0,0-3.41-4.55,5.37,5.37,0,0,0-10.66,0A5.37,5.37,0,0,0,277.23,50a6.2,6.2,0,0,1-2.37-4.46,2.32,2.32,0,0,1,1.4-2.25l2.13-.92-1.24-2A4.17,4.17,0,0,1,280.09,34l1.71-.23V31.89A4.18,4.18,0,0,1,286,27.84Z"/><path class="cls-5" d="M296.57,20.08a13.14,13.14,0,0,1,4.85,1A7.8,7.8,0,0,1,306.25,27a5.19,5.19,0,0,1-.61,4.11,1.32,1.32,0,0,1-.89.36.79.79,0,0,1-.65-.26l-1-1.51-1.59.84a4.29,4.29,0,0,1-1.95.59c-.34,0-1.25,0-1.43-1.51-.24-2-.86-7.17-6.13-8.42A10,10,0,0,1,296.57,20.08Z"/><path class="cls-5" d="M275.36,20.08a13,13,0,0,0-4.84,1A7.75,7.75,0,0,0,265.69,27a5.15,5.15,0,0,0,.61,4.11,1.31,1.31,0,0,0,.89.36.81.81,0,0,0,.65-.26l1-1.51,1.6.84a4.25,4.25,0,0,0,1.95.59c.34,0,1.25,0,1.43-1.51.23-2,.86-7.17,6.13-8.42A10.07,10.07,0,0,0,275.36,20.08Z"/><path class="cls-2" d="M277.46,12.89a6.3,6.3,0,0,1,3.62-1.35,5,5,0,0,1,9.77,0,6.3,6.3,0,0,1,3.62,1.35,4.56,4.56,0,0,1,1.09,5.25,12.63,12.63,0,0,0-1.43.2A11.13,11.13,0,0,0,291,19.47a10.43,10.43,0,0,0-1.51,1,4.11,4.11,0,0,1-1.16-.77l0,0a3.32,3.32,0,0,0-4.58,0l0,0a4.16,4.16,0,0,1-1.17.77,10.43,10.43,0,0,0-1.51-1,11.13,11.13,0,0,0-3.17-1.13,12.77,12.77,0,0,0-1.42-.2A4.56,4.56,0,0,1,277.46,12.89Z"/><path class="cls-3" d="M277.32,16.65a2.85,2.85,0,0,1,.92-1.95,4.94,4.94,0,0,1,2.65-.9l1.51-.14.37-1.47a3.29,3.29,0,0,1,6.4,0l.37,1.47,1.51.14a4.9,4.9,0,0,1,2.64.9,2.79,2.79,0,0,1,.44,3.64A11.13,11.13,0,0,0,291,19.47a2.79,2.79,0,0,1-1.06-.62,5.73,5.73,0,0,0-7.85,0l-.06.05a2.64,2.64,0,0,1-1,.58,11.13,11.13,0,0,0-3.17-1.13A2.77,2.77,0,0,1,277.32,16.65Z"/><path class="cls-2" d="M253.56,27.76a5.07,5.07,0,0,1,5.61-2.66A6.36,6.36,0,0,1,262,22.47a4.53,4.53,0,0,1,3.47.08,8.33,8.33,0,0,0-.78,1.27,9.72,9.72,0,0,0-.93,6.26,6.16,6.16,0,0,0,.52,1.52,3.32,3.32,0,0,0-1.08,3.54v0a9,9,0,0,0-4.73,2.42,9.77,9.77,0,0,0-1.31,1.53,11.72,11.72,0,0,0-.76,1.24,4.61,4.61,0,0,1-2-2.66,6.34,6.34,0,0,1,.41-3.84A5.05,5.05,0,0,1,253.56,27.76Z"/><path class="cls-3" d="M255.32,28.65A3.29,3.29,0,0,1,259,26.91l1.49.32.8-1.29a4.84,4.84,0,0,1,2-2,2.74,2.74,0,0,1,1.41-.16,9.72,9.72,0,0,0-.93,6.26,5.7,5.7,0,0,0-2.14,5.51,9.19,9.19,0,0,0-3.14,2,9.77,9.77,0,0,0-1.31,1.53,2.88,2.88,0,0,1-.8-1.3,4.9,4.9,0,0,1,.37-2.77l.55-1.42-1.15-1A3.3,3.3,0,0,1,255.32,28.65Z"/><path class="cls-6" d="M287.06,26c.44-1.64,1.78-3.53,4.48-2.9,3.48.82,4.29,3.83,4.64,6.73s2.87,4.23,6.26,2.44a3,3,0,0,0,3.82.77,1.36,1.36,0,0,1,.59,1.53l0,.09a3.48,3.48,0,0,0-.1.44c-3.09.31-5.6,2.76-4.93,8-3.12,1.86-2.19,6.56,1.75,10.91,3.15,3.48,1.35,8-.52,10.84-2,3.08-4.61,4.72-6.93,4.72-4,0-7.47-5-5.73-7.73s3.73-2.38,4.44-4.74c.5-1.69-.54-2.94-2.07-3.52,7.16-3.27,8-10.28,3.72-12.11a6.21,6.21,0,0,0,1-3.3,6.11,6.11,0,0,0-5.3-6.07V32A6.13,6.13,0,0,0,287.06,26Z"/><path class="cls-6" d="M284.87,26c-.43-1.64-1.77-3.53-4.47-2.9-3.48.82-4.29,3.83-4.64,6.73s-2.88,4.23-6.27,2.44a3,3,0,0,1-3.81.77,1.35,1.35,0,0,0-.59,1.53l0,.09c0,.15.07.29.1.44,3.09.31,5.6,2.76,4.92,8,3.13,1.86,2.2,6.56-1.75,10.91-3.15,3.48-1.35,8,.53,10.84,2,3.08,4.6,4.72,6.93,4.72,4,0,7.47-5,5.73-7.73s-3.73-2.38-4.44-4.74c-.51-1.69.53-2.94,2.07-3.52-7.16-3.27-8-10.28-3.72-12.11a6.13,6.13,0,0,1,4.34-9.37s0,0,0-.07A6.14,6.14,0,0,1,284.87,26Z"/><path class="cls-2" d="M318.37,27.76a5.05,5.05,0,0,0-5.61-2.66,6.39,6.39,0,0,0-2.82-2.63,4.55,4.55,0,0,0-3.48.08,8.33,8.33,0,0,1,.78,1.27,9.66,9.66,0,0,1,.94,6.26,6.16,6.16,0,0,1-.52,1.52,3.34,3.34,0,0,1,1.07,3.54v0a9,9,0,0,1,1.58.43,9.23,9.23,0,0,1,3.15,2,10.27,10.27,0,0,1,1.3,1.53,11.72,11.72,0,0,1,.76,1.24,4.62,4.62,0,0,0,2-2.66,6.42,6.42,0,0,0-.41-3.84A5,5,0,0,0,318.37,27.76Z"/><path class="cls-3" d="M316.61,28.65a3.28,3.28,0,0,0-3.68-1.74l-1.48.32-.8-1.29a5,5,0,0,0-2-2,2.76,2.76,0,0,0-1.42-.16,9.66,9.66,0,0,1,.94,6.26,5.67,5.67,0,0,1,2.13,5.51,9.23,9.23,0,0,1,3.15,2,10.27,10.27,0,0,1,1.3,1.53,2.8,2.8,0,0,0,.8-1.3,4.82,4.82,0,0,0-.37-2.77l-.55-1.42,1.15-1A3.29,3.29,0,0,0,316.61,28.65Z"/><path class="cls-3" d="M306.69,70.44c6.19-3.63,10.47-10.56,12.08-13.17l.31-.49c1.51-2.4,3.13-3.91,6.2-3.47a3.22,3.22,0,0,1,2.5,1.78,4.22,4.22,0,0,1,.32,3.37l-.87,1.78,1.78.86a4.48,4.48,0,0,1,2.27,4.68c-.37,1.92-2.38,3.89-6.23,4.66Z"/><path class="cls-2" d="M301.52,70.44c8.46-2,14.49-12.51,15.89-14.71s3.62-5,8.15-4.38c4.28.61,5.47,5.59,4.32,8a6.17,6.17,0,0,1-.1,11.11h-4.73c3.85-.77,5.86-2.74,6.23-4.66A4.48,4.48,0,0,0,329,61.1l-1.78-.86.87-1.78a4.22,4.22,0,0,0-.32-3.37,3.22,3.22,0,0,0-2.5-1.78c-3.07-.44-4.69,1.07-6.2,3.47l-.31.49c-1.61,2.61-5.89,9.54-12.08,13.17Z"/><path class="cls-3" d="M265.25,70.44c-6.2-3.63-10.47-10.56-12.08-13.17l-.31-.49c-1.51-2.4-3.14-3.91-6.2-3.47a3.21,3.21,0,0,0-2.5,1.78,4.23,4.23,0,0,0-.33,3.37l.87,1.78-1.78.86a4.49,4.49,0,0,0-2.27,4.68c.38,1.92,2.39,3.89,6.23,4.66Z"/><path class="cls-2" d="M270.42,70.44c-8.46-2-14.5-12.51-15.89-14.71s-3.63-5-8.15-4.38c-4.28.61-5.48,5.59-4.32,8a6.17,6.17,0,0,0,.09,11.11h4.73c-3.84-.77-5.85-2.74-6.23-4.66a4.49,4.49,0,0,1,2.27-4.68l1.78-.86-.87-1.78a4.23,4.23,0,0,1,.33-3.37,3.21,3.21,0,0,1,2.5-1.78c3.06-.44,4.69,1.07,6.2,3.47l.31.49c1.61,2.61,5.88,9.54,12.08,13.17Z"/><path class="cls-4" d="M235.45,63.5A5,5,0,0,0,230.71,57h0a5.33,5.33,0,0,0-10.61,0h0a5,5,0,0,0-4.74,6.55,5,5,0,0,0-2.68,4.41,4.92,4.92,0,0,0,.69,2.53H216a3,3,0,0,1,.26-5.2l1.48-.77-.52-1.59a2.77,2.77,0,0,1-.16-.94,3,3,0,0,1,3-3h1.9l.16-1.8a3.35,3.35,0,0,1,6.67,0l.16,1.8h1.89a3,3,0,0,1,3,3,2.77,2.77,0,0,1-.16.94l-.52,1.59,1.48.77a3,3,0,0,1,.26,5.2h2.65a5,5,0,0,0-2-6.94Z"/><path class="cls-5" d="M236.16,67.91a3,3,0,0,0-1.63-2.67l-1.48-.77.52-1.59a2.77,2.77,0,0,0,.16-.94,3,3,0,0,0-3-3h-1.89l-.16-1.8a3.35,3.35,0,0,0-6.67,0l-.16,1.8H220a3,3,0,0,0-3,3,2.77,2.77,0,0,0,.16.94l.52,1.59-1.48.77a3,3,0,0,0-.26,5.2h2.87a4.66,4.66,0,0,1-.62-2.32A4.73,4.73,0,0,1,220.68,64a4.71,4.71,0,0,1,9.4,0,4.72,4.72,0,0,1,2.45,4.12,4.66,4.66,0,0,1-.62,2.32h2.88A3,3,0,0,0,236.16,67.91Z"/><path class="cls-4" d="M228.43,65.05a3.29,3.29,0,0,0,.08-.71,3.13,3.13,0,1,0-6.26,0,3.29,3.29,0,0,0,.09.71,3.16,3.16,0,0,0-2.53,3.07,3.07,3.07,0,0,0,1,2.32h9.06a3.07,3.07,0,0,0,1-2.32A3.15,3.15,0,0,0,228.43,65.05Z"/><path class="cls-4" d="M417.26,69.55c-4,0-7.47-5-5.73-7.73s3.73-2.37,4.44-4.74c.78-2.61-2.13-4.18-4.87-3.83s-4,3.3-4,7.09,1.78,10.1,9.88,10.1S431.24,65.91,436,58c4.2-7,2.9-16.3-1.4-20.42C430.18,33.3,421.8,34,423,43.08c-3.13,1.86-2.2,6.56,1.75,10.91,3.15,3.47,1.35,8-.53,10.84C422.16,67.91,419.58,69.55,417.26,69.55Z"/><path class="cls-4" d="M407.14,60.34c0-3.78-1.22-6.74-4-7.09a6.52,6.52,0,0,0-1.53,0l-.33.06a1.65,1.65,0,0,0-.32.07l-.27.06-.34.12h0c-1.54.58-2.57,1.83-2.07,3.52.71,2.36,2.7,2,4.44,4.74S401,69.55,397,69.55c-2.32,0-4.9-1.64-6.93-4.72-1.87-2.83-3.68-7.36-.52-10.84,3.94-4.35,4.87-9.05,1.74-10.91.68-5.25-1.83-7.7-4.92-8a8.83,8.83,0,0,0-6.74,2.51,12,12,0,0,0-2.87,4.58A18.8,18.8,0,0,0,378.26,58c4.79,7.91,10.92,12.45,19,12.45S407.14,64.12,407.14,60.34Z"/><path class="cls-4" d="M417.62,41.45a6.13,6.13,0,0,0-4.34-9.37s0,0,0-.07A6.15,6.15,0,0,0,401,32v.07a6.13,6.13,0,0,0-4.34,9.37c-4.28,1.83-3.44,8.85,3.73,12.11a5.6,5.6,0,0,1,1.44-.33,3.4,3.4,0,0,1,1.91-6.2l.17,0a3.2,3.2,0,0,1-.17-1,3.4,3.4,0,0,1,6.8,0,3.2,3.2,0,0,1-.17,1l.17,0a3.4,3.4,0,0,1,1.91,6.2,5.51,5.51,0,0,1,1.44.33C421.06,50.3,421.9,43.28,417.62,41.45Z"/><path class="cls-4" d="M407.14,25.87c0-3.63-6.56-10.48-16.18-6.63-7,2.79-7.25,11-4.82,13.27a3,3,0,0,0,4.53-.27c3.39,1.79,5.91.46,6.26-2.44s1.16-5.91,4.64-6.73c2.7-.63,4,1.26,4.48,2.9A5.6,5.6,0,0,1,407.14,25.87Z"/><path class="cls-4" d="M407.14,25.87c0-3.63,6.56-10.48,16.18-6.63,7,2.79,7.26,11,4.83,13.27a3,3,0,0,1-4.53-.27c-3.39,1.79-5.92.46-6.27-2.44s-1.16-5.91-4.64-6.73c-2.7-.63-4,1.26-4.48,2.9A5.52,5.52,0,0,0,407.14,25.87Z"/><path class="cls-5" d="M385.7,37a3.62,3.62,0,0,1,2.76,1.1c.86,1,1.17,2.61.9,4.72l-.17,1.29,1.12.66a1.74,1.74,0,0,1,.87,1.32c.2,1.31-.51,3.73-3.07,6.56-3.1,3.42-3,8.25.33,13.26l.16.24A25.56,25.56,0,0,1,380,57c-3.82-6.32-2.51-14.55,1.06-18a7,7,0,0,1,4.69-2Z"/><path class="cls-5" d="M402.93,55.21c2.08.26,2.24,4,2.24,5.13a10.93,10.93,0,0,1-.15,1.84,4.9,4.9,0,0,0-.61-1.43,9.77,9.77,0,0,0-3-3c-.8-.55-1-.72-1.19-1.28a.55.55,0,0,1,.06-.57,2.88,2.88,0,0,1,2.16-.77A2.92,2.92,0,0,1,402.93,55.21Z"/><path class="cls-5" d="M428.58,37a7,7,0,0,1,4.69,2c3.57,3.42,4.89,11.65,1.07,18a25.66,25.66,0,0,1-8.66,9.19l.16-.24c3.31-5,3.43-9.84.34-13.26-2.57-2.83-3.28-5.25-3.08-6.56a1.72,1.72,0,0,1,.88-1.32l1.11-.66-.17-1.29c-.27-2.11.05-3.74.91-4.72a3.58,3.58,0,0,1,2.75-1.1Z"/><path class="cls-5" d="M411.86,55.17a2.9,2.9,0,0,1,2.17.77.56.56,0,0,1,.05.57c-.17.56-.38.73-1.19,1.28a9.76,9.76,0,0,0-3,3,4.67,4.67,0,0,0-.62,1.43,12.1,12.1,0,0,1-.15-1.84c0-1.14.17-4.87,2.24-5.13A2.92,2.92,0,0,1,411.86,55.17Z"/><path class="cls-5" d="M407.14,27.84A4.18,4.18,0,0,0,403,31.92s0,.1,0,.16V33.8l-1.71.23a4.18,4.18,0,0,0-3.6,4.12,4.23,4.23,0,0,0,.65,2.24l1.25,2-2.13.92A2.32,2.32,0,0,0,396,45.51,6.24,6.24,0,0,0,398.4,50a5.39,5.39,0,0,1,3.41-4.55,5.37,5.37,0,0,1,10.66,0A5.37,5.37,0,0,1,415.88,50a6.2,6.2,0,0,0,2.37-4.46,2.32,2.32,0,0,0-1.4-2.25l-2.13-.92,1.24-2a4.23,4.23,0,0,0,.65-2.24A4.17,4.17,0,0,0,413,34l-1.71-.23V31.89A4.18,4.18,0,0,0,407.14,27.84Z"/><path class="cls-5" d="M396.54,20.08a13.14,13.14,0,0,0-4.85,1A7.78,7.78,0,0,0,386.86,27a5.19,5.19,0,0,0,.61,4.11,1.32,1.32,0,0,0,.89.36.81.81,0,0,0,.65-.26l1-1.51,1.59.84a4.29,4.29,0,0,0,2,.59c.34,0,1.25,0,1.43-1.51.24-2,.86-7.17,6.13-8.42A10,10,0,0,0,396.54,20.08Z"/><path class="cls-5" d="M417.74,20.08a13.1,13.1,0,0,1,4.85,1A7.78,7.78,0,0,1,427.42,27a5.19,5.19,0,0,1-.61,4.11,1.32,1.32,0,0,1-.89.36.81.81,0,0,1-.65-.26l-1-1.51-1.6.84a4.29,4.29,0,0,1-1.95.59c-.34,0-1.25,0-1.43-1.51-.23-2-.86-7.17-6.13-8.42A10.06,10.06,0,0,1,417.74,20.08Z"/><path class="cls-2" d="M415.65,12.89A6.3,6.3,0,0,0,412,11.54a5,5,0,0,0-9.77,0,6.27,6.27,0,0,0-3.62,1.35,4.56,4.56,0,0,0-1.09,5.25,13,13,0,0,1,1.43.2,11.06,11.06,0,0,1,3.16,1.13,9.92,9.92,0,0,1,1.51,1,4,4,0,0,0,1.17-.77l0,0a3.32,3.32,0,0,1,4.58,0l0,0a4,4,0,0,0,1.17.77,10.43,10.43,0,0,1,1.51-1,11.13,11.13,0,0,1,3.17-1.13,12.45,12.45,0,0,1,1.42-.2A4.56,4.56,0,0,0,415.65,12.89Z"/><path class="cls-3" d="M415.79,16.65a2.85,2.85,0,0,0-.92-1.95,4.94,4.94,0,0,0-2.65-.9l-1.51-.14-.37-1.47a3.29,3.29,0,0,0-6.4,0l-.37,1.47-1.51.14a4.9,4.9,0,0,0-2.64.9,2.79,2.79,0,0,0-.44,3.64,11.06,11.06,0,0,1,3.16,1.13,2.76,2.76,0,0,0,1.07-.62,5.73,5.73,0,0,1,7.85,0l.06.05a2.64,2.64,0,0,0,1,.58,11.13,11.13,0,0,1,3.17-1.13A2.77,2.77,0,0,0,415.79,16.65Z"/><path class="cls-2" d="M439.55,27.76a5.07,5.07,0,0,0-5.61-2.66,6.36,6.36,0,0,0-2.83-2.63,4.53,4.53,0,0,0-3.47.08,8.33,8.33,0,0,1,.78,1.27,9.72,9.72,0,0,1,.93,6.26,6.16,6.16,0,0,1-.52,1.52,3.32,3.32,0,0,1,1.08,3.54v0a9.14,9.14,0,0,1,1.59.43,9.29,9.29,0,0,1,3.14,2,9.77,9.77,0,0,1,1.31,1.53,11.66,11.66,0,0,1,.75,1.24,4.58,4.58,0,0,0,2-2.66,6.34,6.34,0,0,0-.41-3.84A5.05,5.05,0,0,0,439.55,27.76Z"/><path class="cls-3" d="M437.79,28.65a3.3,3.3,0,0,0-3.69-1.74l-1.48.32-.8-1.29a4.84,4.84,0,0,0-2-2,2.74,2.74,0,0,0-1.41-.16,9.72,9.72,0,0,1,.93,6.26,5.7,5.7,0,0,1,2.14,5.51,9.29,9.29,0,0,1,3.14,2,9.77,9.77,0,0,1,1.31,1.53,2.88,2.88,0,0,0,.8-1.3,4.9,4.9,0,0,0-.37-2.77l-.55-1.42,1.15-1A3.3,3.3,0,0,0,437.79,28.65Z"/><path class="cls-6" d="M406.05,26c-.44-1.64-1.78-3.53-4.48-2.9-3.48.82-4.29,3.83-4.64,6.73s-2.87,4.23-6.26,2.44a3,3,0,0,1-3.82.77,1.35,1.35,0,0,0-.59,1.53l0,.09a3.48,3.48,0,0,1,.1.44c3.09.31,5.6,2.76,4.92,8,3.13,1.86,2.2,6.56-1.74,10.91-3.16,3.48-1.35,8,.52,10.84,2,3.08,4.61,4.72,6.93,4.72,4,0,7.47-5,5.73-7.73s-3.73-2.38-4.44-4.74c-.5-1.69.53-2.94,2.07-3.52-7.16-3.27-8-10.28-3.72-12.11A6.13,6.13,0,0,1,401,32.08V32A6.13,6.13,0,0,1,406.05,26Z"/><path class="cls-6" d="M408.23,26c.44-1.64,1.78-3.53,4.48-2.9,3.48.82,4.29,3.83,4.64,6.73s2.88,4.23,6.27,2.44a3,3,0,0,0,3.81.77,1.35,1.35,0,0,1,.59,1.53l0,.09c0,.15-.07.29-.1.44-3.09.31-5.6,2.76-4.92,8-3.13,1.86-2.2,6.56,1.75,10.91,3.15,3.48,1.35,8-.53,10.84-2,3.08-4.6,4.72-6.93,4.72-4,0-7.47-5-5.73-7.73s3.73-2.38,4.44-4.74c.5-1.69-.53-2.94-2.07-3.52,7.16-3.27,8-10.28,3.72-12.11a6.13,6.13,0,0,0-4.34-9.37s0,0,0-.07A6.14,6.14,0,0,0,408.23,26Z"/><path class="cls-2" d="M374.73,27.76a5.07,5.07,0,0,1,5.61-2.66,6.47,6.47,0,0,1,2.83-2.63,4.53,4.53,0,0,1,3.47.08,9.2,9.2,0,0,0-.78,1.27,9.72,9.72,0,0,0-.93,6.26,6.16,6.16,0,0,0,.52,1.52,3.34,3.34,0,0,0-1.08,3.54v0a9.38,9.38,0,0,0-1.59.43,9.29,9.29,0,0,0-3.14,2,9.71,9.71,0,0,0-1.3,1.53,11.72,11.72,0,0,0-.76,1.24,4.62,4.62,0,0,1-2-2.66,6.34,6.34,0,0,1,.41-3.84A5.07,5.07,0,0,1,374.73,27.76Z"/><path class="cls-3" d="M376.5,28.65a3.28,3.28,0,0,1,3.68-1.74l1.48.32.8-1.29a4.9,4.9,0,0,1,2-2,2.74,2.74,0,0,1,1.41-.16,9.72,9.72,0,0,0-.93,6.26,5.7,5.7,0,0,0-1.62,2,5.8,5.8,0,0,0-.52,3.55,9.29,9.29,0,0,0-3.14,2,9.71,9.71,0,0,0-1.3,1.53,2.72,2.72,0,0,1-.8-1.3,4.73,4.73,0,0,1,.37-2.77l.55-1.42-1.15-1A3.27,3.27,0,0,1,376.5,28.65Z"/><path class="cls-3" d="M386.42,70.44c-6.19-3.63-10.47-10.56-12.08-13.17l-.31-.49c-1.51-2.4-3.14-3.91-6.2-3.47a3.21,3.21,0,0,0-2.5,1.78,4.18,4.18,0,0,0-.32,3.37l.87,1.78-1.79.86a4.5,4.5,0,0,0-2.27,4.68c.38,1.92,2.39,3.89,6.23,4.66Z"/><path class="cls-2" d="M391.59,70.44c-8.46-2-14.49-12.51-15.89-14.71s-3.62-5-8.15-4.38c-4.28.61-5.47,5.59-4.32,8a6.17,6.17,0,0,0,.1,11.11h4.72c-3.84-.77-5.85-2.74-6.23-4.66a4.5,4.5,0,0,1,2.27-4.68l1.79-.86L365,58.46a4.18,4.18,0,0,1,.32-3.37,3.21,3.21,0,0,1,2.5-1.78c3.06-.44,4.69,1.07,6.2,3.47l.31.49c1.61,2.61,5.89,9.54,12.08,13.17Z"/><path class="cls-3" d="M427.86,70.44c6.2-3.63,10.47-10.56,12.08-13.17l.31-.49c1.51-2.4,3.14-3.91,6.2-3.47a3.21,3.21,0,0,1,2.5,1.78,4.23,4.23,0,0,1,.33,3.37l-.87,1.78,1.78.86a4.49,4.49,0,0,1,2.27,4.68c-.38,1.92-2.39,3.89-6.23,4.66Z"/><path class="cls-2" d="M422.69,70.44c8.46-2,14.5-12.51,15.89-14.71s3.63-5,8.15-4.38c4.28.61,5.48,5.59,4.32,8a6.17,6.17,0,0,1-.1,11.11h-4.72c3.84-.77,5.85-2.74,6.23-4.66a4.49,4.49,0,0,0-2.27-4.68l-1.78-.86.87-1.78a4.23,4.23,0,0,0-.33-3.37,3.21,3.21,0,0,0-2.5-1.78c-3.06-.44-4.69,1.07-6.2,3.47l-.31.49c-1.61,2.61-5.88,9.54-12.08,13.17Z"/><path class="cls-4" d="M336.49,63.5A5,5,0,0,1,341.22,57h0a5.33,5.33,0,0,1,10.62,0h0a5,5,0,0,1,4.73,6.55,5,5,0,0,1,2,6.94H356a3,3,0,0,0-.25-5.2l-1.48-.77.52-1.59a3,3,0,0,0-2.79-4h-1.9l-.16-1.8a3.35,3.35,0,0,0-6.68,0l-.16,1.8h-1.89a3,3,0,0,0-2.8,4l.52,1.59-1.48.77a3,3,0,0,0-.26,5.2h-2.65a5,5,0,0,1,2-6.94Z"/><path class="cls-5" d="M335.77,67.91a3,3,0,0,1,1.63-2.67l1.48-.77-.52-1.59a3,3,0,0,1,2.8-4h1.89l.16-1.8a3.35,3.35,0,0,1,6.68,0l.16,1.8H352a3,3,0,0,1,2.79,4l-.52,1.59,1.48.77a3,3,0,0,1,.25,5.2h-2.87a4.55,4.55,0,0,0,.62-2.32A4.71,4.71,0,0,0,351.25,64a4.71,4.71,0,0,0-9.39,0,4.7,4.7,0,0,0-2.45,4.12,4.55,4.55,0,0,0,.62,2.32h-2.89A3,3,0,0,1,335.77,67.91Z"/><path class="cls-4" d="M343.51,65.05a3.29,3.29,0,0,1-.09-.71,3.14,3.14,0,0,1,6.27,0,4.05,4.05,0,0,1-.09.71,3.15,3.15,0,0,1,2.52,3.07,3.06,3.06,0,0,1-1,2.32H342a3.06,3.06,0,0,1-1-2.32A3.14,3.14,0,0,1,343.51,65.05Z"/><path class="cls-4" d="M174.92,69.55c-4,0-7.47-5-5.73-7.73s3.72-2.37,4.43-4.74c.79-2.61-2.13-4.18-4.87-3.83s-4,3.3-4,7.09,1.79,10.1,9.88,10.1,14.22-4.53,19-12.45c4.21-7,2.9-16.3-1.39-20.42-4.46-4.27-12.84-3.59-11.67,5.51-3.12,1.86-2.2,6.56,1.75,10.91,3.15,3.47,1.35,8-.52,10.84C179.82,67.91,177.24,69.55,174.92,69.55Z"/><path class="cls-4" d="M164.79,60.34c0-3.78-1.21-6.74-4-7.09a6.52,6.52,0,0,0-1.53,0,1.91,1.91,0,0,0-.33.06,1.65,1.65,0,0,0-.32.07l-.27.06-.34.12h0c-1.54.58-2.58,1.83-2.08,3.52.71,2.36,2.7,2,4.44,4.74s-1.72,7.73-5.73,7.73c-2.32,0-4.9-1.64-6.93-4.72-1.87-2.83-3.67-7.36-.52-10.84,3.95-4.35,4.87-9.05,1.75-10.91.67-5.25-1.83-7.7-4.92-8a8.87,8.87,0,0,0-6.75,2.51,12,12,0,0,0-2.87,4.58A18.84,18.84,0,0,0,135.91,58c4.79,7.91,10.92,12.45,19,12.45S164.79,64.12,164.79,60.34Z"/><path class="cls-4" d="M175.28,41.45a6.21,6.21,0,0,0,1-3.3,6.12,6.12,0,0,0-5.31-6.07s0,0,0-.07a6.15,6.15,0,0,0-12.29,0s0,0,0,.07a6.12,6.12,0,0,0-5.31,6.07,6.21,6.21,0,0,0,1,3.3C150,43.28,150.87,50.3,158,53.56a5.7,5.7,0,0,1,1.44-.33A3.4,3.4,0,0,1,161.4,47l.16,0a3.53,3.53,0,0,1-.16-1,3.4,3.4,0,0,1,6.79,0,3.2,3.2,0,0,1-.17,1l.17,0a3.4,3.4,0,0,1,1.91,6.2,5.68,5.68,0,0,1,1.45.33C178.71,50.3,179.56,43.28,175.28,41.45Z"/><path class="cls-4" d="M164.79,25.87c0-3.63-6.56-10.48-16.18-6.63-7,2.79-7.25,11-4.82,13.27a3,3,0,0,0,4.53-.27c3.39,1.79,5.92.46,6.26-2.44s1.17-5.91,4.65-6.73c2.7-.63,4,1.26,4.47,2.9A5.67,5.67,0,0,1,164.79,25.87Z"/><path class="cls-4" d="M164.79,25.87c0-3.63,6.57-10.48,16.19-6.63,7,2.79,7.25,11,4.82,13.27a3,3,0,0,1-4.53-.27c-3.39,1.79-5.92.46-6.27-2.44s-1.16-5.91-4.64-6.73c-2.7-.63-4,1.26-4.47,2.9A5.7,5.7,0,0,0,164.79,25.87Z"/><path class="cls-5" d="M143.35,37a3.59,3.59,0,0,1,2.76,1.1c.86,1,1.17,2.61.9,4.72l-.16,1.29,1.11.66a1.71,1.71,0,0,1,.87,1.32c.2,1.31-.5,3.73-3.07,6.56-3.1,3.42-3,8.25.34,13.26.05.08.1.16.16.24A25.66,25.66,0,0,1,137.6,57c-3.82-6.32-2.5-14.55,1.07-18a6.93,6.93,0,0,1,4.68-2Z"/><path class="cls-5" d="M160.59,55.21c2.07.26,2.23,4,2.23,5.13a10.93,10.93,0,0,1-.15,1.84,4.65,4.65,0,0,0-.61-1.43,9.87,9.87,0,0,0-3-3c-.81-.55-1-.72-1.2-1.28a.58.58,0,0,1,.06-.57,2.88,2.88,0,0,1,2.16-.77A3,3,0,0,1,160.59,55.21Z"/><path class="cls-5" d="M186.24,37a7,7,0,0,1,4.68,2c3.57,3.42,4.89,11.65,1.07,18a25.66,25.66,0,0,1-8.66,9.19l.16-.24c3.31-5,3.44-9.84.34-13.26-2.57-2.83-3.27-5.25-3.08-6.56a1.72,1.72,0,0,1,.88-1.32l1.11-.66-.16-1.29c-.27-2.11,0-3.74.9-4.72a3.59,3.59,0,0,1,2.76-1.1Z"/><path class="cls-5" d="M169.52,55.17a2.89,2.89,0,0,1,2.16.77.58.58,0,0,1,.06.57c-.17.56-.39.73-1.2,1.28a9.87,9.87,0,0,0-3,3,4.92,4.92,0,0,0-.62,1.43,11.94,11.94,0,0,1-.14-1.84c0-1.14.16-4.87,2.23-5.13A3,3,0,0,1,169.52,55.17Z"/><path class="cls-5" d="M164.79,27.84a4.18,4.18,0,0,0-4.17,4.08.81.81,0,0,1,0,.16V33.8l-1.71.23A4.17,4.17,0,0,0,156,40.39l1.24,2-2.13.92a2.32,2.32,0,0,0-1.41,2.25A6.28,6.28,0,0,0,156.05,50a5.39,5.39,0,0,1,3.41-4.55,5.37,5.37,0,0,1,10.66,0A5.37,5.37,0,0,1,173.53,50a6.2,6.2,0,0,0,2.37-4.46,2.3,2.3,0,0,0-1.4-2.25l-2.13-.92,1.24-2A4.17,4.17,0,0,0,170.67,34L169,33.8V31.89A4.19,4.19,0,0,0,164.79,27.84Z"/><path class="cls-5" d="M154.19,20.08a13.14,13.14,0,0,0-4.85,1A7.8,7.8,0,0,0,144.51,27c-.38,2.06.14,3.67.62,4.11a1.29,1.29,0,0,0,.88.36.82.82,0,0,0,.66-.26l1-1.51,1.59.84a4.32,4.32,0,0,0,2,.59c.34,0,1.24,0,1.42-1.51.24-2,.86-7.17,6.14-8.42A10.1,10.1,0,0,0,154.19,20.08Z"/><path class="cls-5" d="M175.4,20.08a13,13,0,0,1,4.84,1A7.79,7.79,0,0,1,185.08,27a5.18,5.18,0,0,1-.62,4.11,1.3,1.3,0,0,1-.88.36.82.82,0,0,1-.66-.26l-1-1.51-1.6.84a4.25,4.25,0,0,1-2,.59c-.34,0-1.25,0-1.43-1.51-.23-2-.86-7.17-6.13-8.42A10.07,10.07,0,0,1,175.4,20.08Z"/><path class="cls-2" d="M173.3,12.89a6.3,6.3,0,0,0-3.62-1.35,5,5,0,0,0-9.77,0,6.3,6.3,0,0,0-3.62,1.35,4.56,4.56,0,0,0-1.09,5.25,12.63,12.63,0,0,1,1.43.2,11.13,11.13,0,0,1,3.17,1.13,10.43,10.43,0,0,1,1.51,1,4.31,4.31,0,0,0,1.17-.77l0,0a3.32,3.32,0,0,1,4.58,0l0,0a4.16,4.16,0,0,0,1.17.77,10.43,10.43,0,0,1,1.51-1A11.13,11.13,0,0,1,173,18.34a12.63,12.63,0,0,1,1.43-.2A4.56,4.56,0,0,0,173.3,12.89Z"/><path class="cls-3" d="M173.44,16.65a2.81,2.81,0,0,0-.92-1.95,4.91,4.91,0,0,0-2.65-.9l-1.51-.14L168,12.19a3.3,3.3,0,0,0-6.41,0l-.37,1.47-1.51.14a4.9,4.9,0,0,0-2.64.9,2.79,2.79,0,0,0-.44,3.64,11.13,11.13,0,0,1,3.17,1.13,2.72,2.72,0,0,0,1.06-.62,5.73,5.73,0,0,1,7.85,0l.06.05a2.64,2.64,0,0,0,1,.58A11.13,11.13,0,0,1,173,18.34,2.77,2.77,0,0,0,173.44,16.65Z"/><path class="cls-2" d="M197.2,27.76a5.07,5.07,0,0,0-5.61-2.66,6.36,6.36,0,0,0-2.83-2.63,4.53,4.53,0,0,0-3.47.08,8.33,8.33,0,0,1,.78,1.27,9.65,9.65,0,0,1,.93,6.26,5.77,5.77,0,0,1-.52,1.52,3.32,3.32,0,0,1,1.08,3.54v0a9.14,9.14,0,0,1,1.59.43,9.33,9.33,0,0,1,3.15,2,10.27,10.27,0,0,1,1.3,1.53,11.72,11.72,0,0,1,.76,1.24,4.61,4.61,0,0,0,2-2.66,6.27,6.27,0,0,0-.41-3.84A5.05,5.05,0,0,0,197.2,27.76Z"/><path class="cls-3" d="M195.44,28.65a3.29,3.29,0,0,0-3.68-1.74l-1.49.32-.8-1.29a4.84,4.84,0,0,0-2-2,2.74,2.74,0,0,0-1.41-.16,9.65,9.65,0,0,1,.93,6.26,5.62,5.62,0,0,1,1.63,2,5.73,5.73,0,0,1,.51,3.55,9.33,9.33,0,0,1,3.15,2,10.27,10.27,0,0,1,1.3,1.53,2.88,2.88,0,0,0,.8-1.3A4.82,4.82,0,0,0,194,35l-.55-1.42,1.15-1A3.3,3.3,0,0,0,195.44,28.65Z"/><path class="cls-6" d="M163.7,26c-.44-1.64-1.77-3.53-4.47-2.9-3.48.82-4.3,3.83-4.65,6.73s-2.87,4.23-6.26,2.44a3,3,0,0,1-3.81.77,1.35,1.35,0,0,0-.6,1.53l0,.09c0,.15.08.29.11.44,3.09.31,5.59,2.76,4.92,8,3.12,1.86,2.2,6.56-1.75,10.91-3.15,3.48-1.35,8,.52,10.84,2,3.08,4.61,4.72,6.93,4.72,4,0,7.47-5,5.73-7.73s-3.73-2.38-4.44-4.74c-.5-1.69.54-2.94,2.08-3.52-7.17-3.27-8-10.28-3.73-12.11a6.21,6.21,0,0,1-1-3.3,6.12,6.12,0,0,1,5.31-6.07s0,0,0-.07A6.13,6.13,0,0,1,163.7,26Z"/><path class="cls-6" d="M165.89,26c.44-1.64,1.77-3.53,4.47-2.9,3.48.82,4.3,3.83,4.64,6.73s2.88,4.23,6.27,2.44a3,3,0,0,0,3.81.77,1.35,1.35,0,0,1,.59,1.53l0,.09a3.54,3.54,0,0,0-.11.44c-3.09.31-5.59,2.76-4.92,8-3.12,1.86-2.2,6.56,1.75,10.91,3.15,3.48,1.35,8-.52,10.84-2,3.08-4.61,4.72-6.94,4.72-4,0-7.46-5-5.72-7.73s3.73-2.38,4.44-4.74c.5-1.69-.54-2.94-2.08-3.52,7.16-3.27,8-10.28,3.73-12.11a6.21,6.21,0,0,0,1-3.3,6.12,6.12,0,0,0-5.31-6.07s0,0,0-.07A6.14,6.14,0,0,0,165.89,26Z"/><path class="cls-2" d="M132.39,27.76A5.06,5.06,0,0,1,138,25.1a6.39,6.39,0,0,1,2.82-2.63,4.55,4.55,0,0,1,3.48.08,8.33,8.33,0,0,0-.78,1.27,9.66,9.66,0,0,0-.94,6.26,5.78,5.78,0,0,0,.53,1.52A3.32,3.32,0,0,0,142,35.14v0a9.06,9.06,0,0,0-4.73,2.42,10.27,10.27,0,0,0-1.3,1.53,11.72,11.72,0,0,0-.76,1.24,4.62,4.62,0,0,1-2-2.66,6.42,6.42,0,0,1,.41-3.84A5,5,0,0,1,132.39,27.76Z"/><path class="cls-3" d="M134.15,28.65a3.28,3.28,0,0,1,3.68-1.74l1.48.32.8-1.29a5,5,0,0,1,2-2,2.76,2.76,0,0,1,1.42-.16,9.66,9.66,0,0,0-.94,6.26,5.67,5.67,0,0,0-2.13,5.51,9.23,9.23,0,0,0-3.15,2,10.27,10.27,0,0,0-1.3,1.53,2.88,2.88,0,0,1-.8-1.3,4.82,4.82,0,0,1,.37-2.77l.55-1.42-1.15-1A3.29,3.29,0,0,1,134.15,28.65Z"/><path class="cls-3" d="M144.07,70.44c-6.19-3.63-10.46-10.56-12.08-13.17l-.3-.49c-1.51-2.4-3.14-3.91-6.21-3.47A3.21,3.21,0,0,0,123,55.09a4.23,4.23,0,0,0-.33,3.37l.87,1.78-1.78.86a4.48,4.48,0,0,0-2.27,4.68c.37,1.92,2.38,3.89,6.23,4.66Z"/><path class="cls-2" d="M149.25,70.44c-8.47-2-14.5-12.51-15.89-14.71s-3.63-5-8.15-4.38c-4.28.61-5.48,5.59-4.33,8a6.17,6.17,0,0,0,.1,11.11h4.73c-3.85-.77-5.86-2.74-6.23-4.66a4.48,4.48,0,0,1,2.27-4.68l1.78-.86-.87-1.78a4.23,4.23,0,0,1,.33-3.37,3.21,3.21,0,0,1,2.49-1.78c3.07-.44,4.7,1.07,6.21,3.47l.3.49c1.62,2.61,5.89,9.54,12.08,13.17Z"/><path class="cls-3" d="M185.51,70.44c6.2-3.63,10.47-10.56,12.09-13.17l.3-.49c1.51-2.4,3.14-3.91,6.2-3.47a3.21,3.21,0,0,1,2.5,1.78,4.23,4.23,0,0,1,.33,3.37l-.87,1.78,1.78.86a4.48,4.48,0,0,1,2.27,4.68c-.38,1.92-2.39,3.89-6.23,4.66Z"/><path class="cls-2" d="M180.34,70.44c8.47-2,14.5-12.51,15.89-14.71s3.63-5,8.15-4.38c4.28.61,5.48,5.59,4.32,8a6.17,6.17,0,0,1-.09,11.11h-4.73c3.84-.77,5.85-2.74,6.23-4.66a4.48,4.48,0,0,0-2.27-4.68l-1.78-.86.87-1.78a4.23,4.23,0,0,0-.33-3.37,3.21,3.21,0,0,0-2.5-1.78c-3.06-.44-4.69,1.07-6.2,3.47l-.3.49c-1.62,2.61-5.89,9.54-12.09,13.17Z"/><path class="cls-4" d="M114.27,63.5A5,5,0,0,0,109.54,57h0A5.33,5.33,0,0,0,98.9,57h0a5,5,0,0,0-4.73,6.55,5,5,0,0,0-2.69,4.41,4.92,4.92,0,0,0,.69,2.53h2.66a3,3,0,0,1,.25-5.2l1.48-.77L96,62.88a3,3,0,0,1,2.79-4h1.9l.16-1.8a3.35,3.35,0,0,1,6.68,0l.16,1.8h1.89a3,3,0,0,1,2.8,4l-.52,1.59,1.48.77A3,3,0,0,1,115,67.91a3,3,0,0,1-1.37,2.53h2.65a5,5,0,0,0-2-6.94Z"/><path class="cls-5" d="M115,67.91a3,3,0,0,0-1.63-2.67l-1.48-.77.52-1.59a3,3,0,0,0-2.8-4h-1.89l-.16-1.8a3.35,3.35,0,0,0-6.68,0l-.16,1.8h-1.9a3,3,0,0,0-2.79,4l.52,1.59-1.48.77a3,3,0,0,0-.25,5.2h2.87a4.55,4.55,0,0,1-.62-2.32A4.71,4.71,0,0,1,99.51,64a4.71,4.71,0,0,1,9.4,0,4.72,4.72,0,0,1,2.45,4.12,4.66,4.66,0,0,1-.62,2.32h2.88A3,3,0,0,0,115,67.91Z"/><path class="cls-4" d="M107.26,65.05a4.06,4.06,0,0,0,.08-.71,3.13,3.13,0,0,0-6.26,0,3.29,3.29,0,0,0,.09.71,3.15,3.15,0,0,0-2.53,3.07,3.07,3.07,0,0,0,1,2.32h9.06a3.07,3.07,0,0,0,1-2.32A3.15,3.15,0,0,0,107.26,65.05Z"/><path class="cls-4" d="M575.67,4.07a5.54,5.54,0,0,1,.69-2.68h3.89a8.39,8.39,0,0,0-.4,2.58,7.89,7.89,0,0,0,5,7.47,7,7,0,0,0,12.17,0A7.88,7.88,0,0,0,602,4a8.1,8.1,0,0,0-.4-2.58h3.9a5.53,5.53,0,0,1,.68,2.68,5.6,5.6,0,0,1-3.48,5.18,5.52,5.52,0,0,1,.29,1.77,5.6,5.6,0,0,1-5.6,5.61,6.39,6.39,0,0,1-1-.09,5.6,5.6,0,0,1-4.59,4.25,4.91,4.91,0,0,1-.86.07,4.72,4.72,0,0,1-.85-.07,5.61,5.61,0,0,1-4.6-4.25,6.39,6.39,0,0,1-1,.09,5.61,5.61,0,0,1-5.6-5.61,5.81,5.81,0,0,1,.29-1.77A5.6,5.6,0,0,1,575.67,4.07Z"/><path class="cls-5" d="M579.85,4a8.39,8.39,0,0,1,.4-2.58h2a5.27,5.27,0,0,0-.39,2,5.35,5.35,0,0,0,4.29,5.24,5.31,5.31,0,0,0,9.56,0A5.35,5.35,0,0,0,600,3.38a5.27,5.27,0,0,0-.39-2h2A8.1,8.1,0,0,1,602,4a7.88,7.88,0,0,1-5,7.47,7,7,0,0,1-12.17,0A7.89,7.89,0,0,1,579.85,4Z"/><path class="cls-4" d="M583.8,3.38a3.3,3.3,0,0,1,.66-2h12.89a3.36,3.36,0,0,1-2.71,5.36c-.14,0-.28,0-.42,0a3.34,3.34,0,0,1-6.64,0c-.14,0-.28,0-.42,0A3.37,3.37,0,0,1,583.8,3.38Z"/><path class="cls-4" d="M573.24,1.39h1.7c-2.61,4.91-.05,10.46,2.31,12.38,2.6,2.13,4.52,5.57,1.12,7.77,1.24,4.75-6,7-9.8,1.41C565.15,17.89,567.6,7.11,573.24,1.39Z"/><path class="cls-5" d="M571.88,6.49A12.73,12.73,0,0,0,576,15.3c1.38,1.12,2.27,2.48,2.22,3.37,0,.16,0,.64-.92,1.22l-1.19.77.35,1.38a1.54,1.54,0,0,1-.2,1.41,2.58,2.58,0,0,1-2,.82,5,5,0,0,1-4-2.43C568,18.52,568.92,11.7,571.88,6.49Z"/><path class="cls-4" d="M604.56,13.77c2.35-1.92,4.92-7.47,2.31-12.38h1.7c5.63,5.72,8.08,16.5,4.66,21.56-3.79,5.6-11,3.34-9.8-1.41C600,19.34,602,15.9,604.56,13.77Z"/><path class="cls-5" d="M609.92,6.49c3,5.21,3.92,12,1.68,15.35a5,5,0,0,1-4,2.43,2.57,2.57,0,0,1-2-.82,1.54,1.54,0,0,1-.21-1.41l.36-1.38-1.19-.77c-.89-.58-.92-1.06-.92-1.22-.05-.89.84-2.25,2.22-3.37A12.7,12.7,0,0,0,609.92,6.49Z"/><path class="cls-4" d="M579,24c-1.28-2.84,2-4.2,4-2.77,1.14.82,5.09,2.48,7-.46a4.72,4.72,0,0,0,.85.07,4.91,4.91,0,0,0,.86-.07c1.93,2.94,5.88,1.28,7,.46,2-1.43,5.32-.07,4.05,2.77,3.13.58,1.79,6.66-4.83,5.12a9.89,9.89,0,0,1-7.11-6.54,9.87,9.87,0,0,1-7.1,6.54C577.18,30.68,575.83,24.6,579,24Z"/><path class="cls-6" d="M574.94,1.39h1.42a5.54,5.54,0,0,0-.69,2.68,5.6,5.6,0,0,0,3.48,5.18,5.81,5.81,0,0,0-.29,1.77,5.61,5.61,0,0,0,5.6,5.61,6.39,6.39,0,0,0,1-.09,5.61,5.61,0,0,0,4.6,4.25c-1.94,2.94-5.89,1.28-7,.46-2-1.43-5.33-.07-4,2.77a2,2,0,0,0-1.18.67,3.48,3.48,0,0,0,.58-3.15c3.4-2.2,1.48-5.64-1.12-7.77C574.89,11.85,572.33,6.3,574.94,1.39Z"/><path class="cls-6" d="M591.76,20.79a5.6,5.6,0,0,0,4.59-4.25,6.39,6.39,0,0,0,1,.09,5.6,5.6,0,0,0,5.6-5.61,5.52,5.52,0,0,0-.29-1.77,5.6,5.6,0,0,0,3.48-5.18,5.53,5.53,0,0,0-.68-2.68h1.42c2.61,4.91,0,10.46-2.31,12.38-2.61,2.13-4.52,5.57-1.13,7.77a3.49,3.49,0,0,0,.58,3.15,1.91,1.91,0,0,0-1.17-.67c1.27-2.84-2-4.2-4.05-2.77C597.64,22.07,593.69,23.73,591.76,20.79Z"/><path class="cls-5" d="M581.19,22.65a1.14,1.14,0,0,1,.68.21,9.34,9.34,0,0,0,5,1.58,5.65,5.65,0,0,0,.93-.07,7.63,7.63,0,0,1-4.42,2.84,6.63,6.63,0,0,1-1.58.2,2.63,2.63,0,0,1-2.26-.9.9.9,0,0,1-.18-.55l2.41-.44-1-2.31a.76.76,0,0,1-.1-.42A.91.91,0,0,1,581.19,22.65Zm19.42,0a.8.8,0,0,1,.55.16,1.53,1.53,0,0,1-.12.4l-1,2.29,2.47.46a1,1,0,0,1-.18.55,2.65,2.65,0,0,1-2.26.9,6.51,6.51,0,0,1-1.58-.2A7.62,7.62,0,0,1,594,24.37a5.86,5.86,0,0,0,.94.07,9.31,9.31,0,0,0,5-1.59A1.15,1.15,0,0,1,600.61,22.65Z"/><path class="cls-2" d="M579.65,30.6a3.89,3.89,0,0,1,.3-1.49,6.47,6.47,0,0,0,2.89.2,2.83,2.83,0,0,0,0,.29,3.09,3.09,0,0,0,2.12,3,3.23,3.23,0,0,0-.23,1.22,3,3,0,0,0,2.91,3.11,2.31,2.31,0,0,0,.37,0,2.9,2.9,0,0,0,5.79,0,2.43,2.43,0,0,0,.38,0,3,3,0,0,0,2.91-3.11,3.05,3.05,0,0,0-.24-1.22,3.08,3.08,0,0,0,2.12-3c0-.1,0-.2,0-.3a6.26,6.26,0,0,0,2.9-.18,4,4,0,0,1-2.67,5.37,4,4,0,0,1-3.72,5.63,3.08,3.08,0,0,1-.53,0,4,4,0,0,1-8.06,0,3.15,3.15,0,0,1-.53,0,4,4,0,0,1-3.72-5.63A4,4,0,0,1,579.65,30.6Z"/><path class="cls-3" d="M582.82,29.6a2.83,2.83,0,0,1,0-.29c.3,0,.62-.1,1-.17a10.23,10.23,0,0,0,1.89-.65c.25-.11.49-.24.72-.36a7.11,7.11,0,0,0,9,0,7.08,7.08,0,0,0,.73.36,10.35,10.35,0,0,0,1.88.65,8.64,8.64,0,0,0,.93.16c0,.1,0,.2,0,.3a3.08,3.08,0,0,1-2.12,3,3.05,3.05,0,0,1,.24,1.22,3,3,0,0,1-2.91,3.11,2.43,2.43,0,0,1-.38,0,2.9,2.9,0,0,1-5.79,0,2.31,2.31,0,0,1-.37,0,3,3,0,0,1-2.91-3.11,3.23,3.23,0,0,1,.23-1.22A3.09,3.09,0,0,1,582.82,29.6Z"/><path class="cls-2" d="M586.41,28.13l.32-.2a9.5,9.5,0,0,0,1.35-1,5.14,5.14,0,0,0,5.65,0,7.62,7.62,0,0,0,1.33,1l.34.21a7.11,7.11,0,0,1-9,0Z"/><path class="cls-2" d="M555.25,3.43a4.8,4.8,0,0,1,.45-2h2.41A2.78,2.78,0,0,0,559,6l1.66.62-.44,1.72a3.53,3.53,0,0,0-.09.69,2.79,2.79,0,1,0,5.57,0,2.91,2.91,0,0,0-.09-.69l-.44-1.72L566.85,6a2.78,2.78,0,0,0,1.81-2.6,2.73,2.73,0,0,0-.9-2h2.41a4.66,4.66,0,0,1,.46,2,4.76,4.76,0,0,1-3.09,4.46,4.93,4.93,0,0,1,.15,1.17,4.76,4.76,0,1,1-9.51,0,4.47,4.47,0,0,1,.16-1.17A4.76,4.76,0,0,1,555.25,3.43Z"/><path class="cls-3" d="M557.22,3.43a2.76,2.76,0,0,1,.89-2h9.65a2.73,2.73,0,0,1,.9,2A2.78,2.78,0,0,1,566.85,6l-1.66.62.44,1.72a2.91,2.91,0,0,1,.09.69,2.79,2.79,0,1,1-5.57,0,3.53,3.53,0,0,1,.09-.69l.44-1.72L559,6A2.79,2.79,0,0,1,557.22,3.43Z"/><path class="cls-2" d="M626.56,3.43a4.8,4.8,0,0,0-.46-2h-2.41a2.73,2.73,0,0,1,.9,2A2.78,2.78,0,0,1,622.78,6l-1.66.62.44,1.72a2.91,2.91,0,0,1,.09.69,2.79,2.79,0,1,1-5.57,0,2.91,2.91,0,0,1,.09-.69l.44-1.72L615,6A2.78,2.78,0,0,1,614,1.39h-2.4a4.67,4.67,0,0,0-.47,2,4.77,4.77,0,0,0,3.1,4.46,4.47,4.47,0,0,0-.16,1.17,4.76,4.76,0,1,0,9.51,0,4.47,4.47,0,0,0-.15-1.17A4.76,4.76,0,0,0,626.56,3.43Z"/><path class="cls-3" d="M624.59,3.43a2.73,2.73,0,0,0-.9-2H614A2.78,2.78,0,0,0,615,6l1.65.62-.44,1.72a2.91,2.91,0,0,0-.09.69,2.79,2.79,0,1,0,5.57,0,2.91,2.91,0,0,0-.09-.69l-.44-1.72L622.78,6A2.78,2.78,0,0,0,624.59,3.43Z"/><path class="cls-4" d="M723.3,4.07a5.53,5.53,0,0,0-.68-2.68h-3.9A8.11,8.11,0,0,1,719.13,4a7.89,7.89,0,0,1-5,7.47,7,7,0,0,1-12.17,0A7.89,7.89,0,0,1,697,4a8.11,8.11,0,0,1,.41-2.58h-3.9a5.53,5.53,0,0,0-.68,2.68,5.6,5.6,0,0,0,3.48,5.18A5.53,5.53,0,0,0,696,11a5.61,5.61,0,0,0,5.61,5.61,6.26,6.26,0,0,0,1-.09,5.62,5.62,0,0,0,4.6,4.25,5.26,5.26,0,0,0,1.71,0,5.6,5.6,0,0,0,4.59-4.25,6.39,6.39,0,0,0,1,.09A5.61,5.61,0,0,0,720.12,11a5.53,5.53,0,0,0-.3-1.77A5.6,5.6,0,0,0,723.3,4.07Z"/><path class="cls-5" d="M719.13,4a8.11,8.11,0,0,0-.41-2.58h-2a5.27,5.27,0,0,1,.39,2,5.35,5.35,0,0,1-4.29,5.24,5.32,5.32,0,0,1-9.57,0A5.35,5.35,0,0,1,699,3.38a5.27,5.27,0,0,1,.39-2h-2A8.11,8.11,0,0,0,697,4a7.89,7.89,0,0,0,5,7.47,7,7,0,0,0,12.17,0A7.89,7.89,0,0,0,719.13,4Z"/><path class="cls-4" d="M715.18,3.38a3.3,3.3,0,0,0-.66-2H701.63a3.3,3.3,0,0,0-.66,2,3.37,3.37,0,0,0,3.37,3.37c.14,0,.28,0,.41,0a3.34,3.34,0,0,0,6.64,0c.14,0,.28,0,.42,0A3.37,3.37,0,0,0,715.18,3.38Z"/><path class="cls-4" d="M725.74,1.39H724c2.61,4.91,0,10.46-2.31,12.38-2.6,2.13-4.52,5.57-1.13,7.77-1.23,4.75,6,7,9.8,1.41C733.83,17.89,731.38,7.11,725.74,1.39Z"/><path class="cls-5" d="M727.09,6.49A12.68,12.68,0,0,1,723,15.3c-1.38,1.12-2.27,2.48-2.23,3.37,0,.16,0,.64.93,1.22l1.19.77L722.51,22a1.54,1.54,0,0,0,.21,1.41,2.57,2.57,0,0,0,2,.82,5,5,0,0,0,4-2.43C731,18.52,730.06,11.7,727.09,6.49Z"/><path class="cls-4" d="M694.41,13.77c-2.34-1.92-4.91-7.47-2.3-12.38h-1.7c-5.64,5.72-8.09,16.5-4.66,21.56,3.79,5.6,11,3.34,9.8-1.41C698.94,19.34,697,15.9,694.41,13.77Z"/><path class="cls-5" d="M689.06,6.49c-3,5.21-3.93,12-1.68,15.35a5,5,0,0,0,4,2.43,2.57,2.57,0,0,0,2-.82,1.54,1.54,0,0,0,.21-1.41l-.36-1.38,1.19-.77c.89-.58.91-1.06.92-1.22.05-.89-.85-2.25-2.23-3.37A12.74,12.74,0,0,1,689.06,6.49Z"/><path class="cls-4" d="M720,24c1.27-2.84-2-4.2-4-2.77-1.15.82-5.09,2.48-7-.46a5.26,5.26,0,0,1-1.71,0c-1.94,2.94-5.88,1.28-7,.46-2-1.43-5.33-.07-4.05,2.77-3.13.58-1.79,6.66,4.83,5.12a9.87,9.87,0,0,0,7.1-6.54,9.89,9.89,0,0,0,7.11,6.54C721.8,30.68,723.14,24.6,720,24Z"/><path class="cls-6" d="M724,1.39h-1.42a5.53,5.53,0,0,1,.68,2.68,5.6,5.6,0,0,1-3.48,5.18,5.53,5.53,0,0,1,.3,1.77,5.61,5.61,0,0,1-5.61,5.61,6.39,6.39,0,0,1-1-.09,5.6,5.6,0,0,1-4.59,4.25c1.94,2.94,5.88,1.28,7,.46,2-1.43,5.32-.07,4,2.77a2,2,0,0,1,1.18.67,3.51,3.51,0,0,1-.59-3.15c-3.39-2.2-1.47-5.64,1.13-7.77C724.08,11.85,726.65,6.3,724,1.39Z"/><path class="cls-6" d="M707.22,20.79a5.62,5.62,0,0,1-4.6-4.25,6.26,6.26,0,0,1-1,.09A5.61,5.61,0,0,1,696,11a5.53,5.53,0,0,1,.3-1.77,5.6,5.6,0,0,1-3.48-5.18,5.53,5.53,0,0,1,.68-2.68h-1.42c-2.61,4.91,0,10.46,2.3,12.38,2.61,2.13,4.53,5.57,1.14,7.77a3.52,3.52,0,0,1-.58,3.15,1.91,1.91,0,0,1,1.17-.67c-1.28-2.84,2-4.2,4.05-2.77C701.34,22.07,705.28,23.73,707.22,20.79Z"/><path class="cls-5" d="M718.32,22.79a.87.87,0,0,1-.11.42l-1,2.31,2.42.44a.9.9,0,0,1-.18.55,2.65,2.65,0,0,1-2.26.9,6.57,6.57,0,0,1-1.58-.2,7.63,7.63,0,0,1-4.42-2.84,5.65,5.65,0,0,0,.93.07,9.38,9.38,0,0,0,5-1.58,1.12,1.12,0,0,1,.68-.21A.94.94,0,0,1,718.32,22.79ZM699,22.85a9.28,9.28,0,0,0,5,1.59,5.86,5.86,0,0,0,.94-.07,7.66,7.66,0,0,1-4.43,2.84,6.63,6.63,0,0,1-1.58.2,2.63,2.63,0,0,1-2.26-.9.92.92,0,0,1-.18-.55L699,25.5l-1-2.29a1.14,1.14,0,0,1-.12-.4.79.79,0,0,1,.54-.16A1.21,1.21,0,0,1,699,22.85Z"/><path class="cls-2" d="M719.32,30.6a3.88,3.88,0,0,0-.29-1.49,6.47,6.47,0,0,1-2.89.2,2.83,2.83,0,0,1,0,.29,3.09,3.09,0,0,1-2.13,3,3.05,3.05,0,0,1,.24,1.22,3,3,0,0,1-2.91,3.11,2.43,2.43,0,0,1-.38,0,2.9,2.9,0,0,1-5.79,0,2.31,2.31,0,0,1-.37,0,3,3,0,0,1-2.91-3.11,3.23,3.23,0,0,1,.23-1.22,3.09,3.09,0,0,1-2.12-3c0-.1,0-.2,0-.3a6.26,6.26,0,0,1-2.9-.18,3.87,3.87,0,0,0-.29,1.48,4,4,0,0,0,3,3.89,4,4,0,0,0,3.72,5.63,3.15,3.15,0,0,0,.53,0,4,4,0,0,0,8.06,0,3.08,3.08,0,0,0,.53,0,4,4,0,0,0,3.72-5.63A4,4,0,0,0,719.32,30.6Z"/><path class="cls-3" d="M716.16,29.6a2.83,2.83,0,0,0,0-.29c-.31,0-.63-.1-1-.17a10,10,0,0,1-1.89-.65c-.25-.11-.49-.24-.72-.36a7.11,7.11,0,0,1-9,0c-.23.13-.48.25-.73.36a10.63,10.63,0,0,1-1.88.65,9.09,9.09,0,0,1-.93.16c0,.1,0,.2,0,.3a3.09,3.09,0,0,0,2.12,3,3.23,3.23,0,0,0-.23,1.22,3,3,0,0,0,2.91,3.11,2.31,2.31,0,0,0,.37,0,2.9,2.9,0,0,0,5.79,0,2.43,2.43,0,0,0,.38,0,3,3,0,0,0,2.91-3.11,3.05,3.05,0,0,0-.24-1.22A3.09,3.09,0,0,0,716.16,29.6Z"/><path class="cls-2" d="M712.57,28.13l-.33-.2a9.39,9.39,0,0,1-1.34-1,5.07,5.07,0,0,1-2.83.84,5,5,0,0,1-2.82-.85,8,8,0,0,1-1.33,1l-.34.21a7.11,7.11,0,0,0,9,0Z"/><path class="cls-2" d="M743.73,3.43a4.8,4.8,0,0,0-.46-2h-2.41a2.73,2.73,0,0,1,.9,2A2.78,2.78,0,0,1,740,6l-1.65.62.43,1.72a2.91,2.91,0,0,1,.09.69,2.78,2.78,0,1,1-5.56,0,2.47,2.47,0,0,1,.09-.69l.44-1.72L732.13,6a2.77,2.77,0,0,1-1.81-2.6,2.73,2.73,0,0,1,.9-2h-2.41a4.67,4.67,0,0,0-.47,2,4.77,4.77,0,0,0,3.1,4.46,4.47,4.47,0,0,0-.15,1.17,4.75,4.75,0,1,0,9.5,0,4.47,4.47,0,0,0-.15-1.17A4.76,4.76,0,0,0,743.73,3.43Z"/><path class="cls-3" d="M741.76,3.43a2.73,2.73,0,0,0-.9-2h-9.64a2.73,2.73,0,0,0-.9,2A2.77,2.77,0,0,0,732.13,6l1.66.62-.44,1.72a2.47,2.47,0,0,0-.09.69,2.78,2.78,0,1,0,5.56,0,2.91,2.91,0,0,0-.09-.69l-.43-1.72L740,6A2.78,2.78,0,0,0,741.76,3.43Z"/><path class="cls-2" d="M672.42,3.43a4.66,4.66,0,0,1,.46-2h2.41a2.73,2.73,0,0,0-.9,2A2.78,2.78,0,0,0,676.2,6l1.65.62-.43,1.72a3,3,0,0,0-.1.69,2.79,2.79,0,1,0,5.57,0,2.91,2.91,0,0,0-.09-.69l-.44-1.72L684,6a2.77,2.77,0,0,0,1.81-2.6,2.73,2.73,0,0,0-.9-2h2.41a4.67,4.67,0,0,1,.47,2,4.77,4.77,0,0,1-3.1,4.46,4.47,4.47,0,0,1,.15,1.17,4.75,4.75,0,1,1-9.5,0,4.47,4.47,0,0,1,.15-1.17A4.76,4.76,0,0,1,672.42,3.43Z"/><path class="cls-3" d="M674.39,3.43a2.73,2.73,0,0,1,.9-2h9.64a2.73,2.73,0,0,1,.9,2A2.77,2.77,0,0,1,684,6l-1.66.62.44,1.72a2.91,2.91,0,0,1,.09.69,2.79,2.79,0,1,1-5.57,0,3,3,0,0,1,.1-.69l.43-1.72L676.2,6A2.78,2.78,0,0,1,674.39,3.43Z"/><path class="cls-4" d="M481,4.07a5.54,5.54,0,0,0-.69-2.68h-3.89a8.39,8.39,0,0,1,.4,2.58,7.89,7.89,0,0,1-5,7.47,7,7,0,0,1-12.17,0,7.89,7.89,0,0,1-5-7.47,8.11,8.11,0,0,1,.41-2.58h-3.9a5.53,5.53,0,0,0-.68,2.68A5.6,5.6,0,0,0,454,9.25a5.52,5.52,0,0,0-.29,1.77,5.6,5.6,0,0,0,5.6,5.61,6.39,6.39,0,0,0,1-.09,5.6,5.6,0,0,0,4.59,4.25,4.91,4.91,0,0,0,.86.07,4.72,4.72,0,0,0,.85-.07,5.61,5.61,0,0,0,4.6-4.25,6.28,6.28,0,0,0,1,.09,5.61,5.61,0,0,0,5.6-5.61,5.81,5.81,0,0,0-.29-1.77A5.6,5.6,0,0,0,481,4.07Z"/><path class="cls-5" d="M476.78,4a8.39,8.39,0,0,0-.4-2.58h-2a5.27,5.27,0,0,1,.39,2,5.35,5.35,0,0,1-4.29,5.24,5.31,5.31,0,0,1-9.56,0,5.35,5.35,0,0,1-4.3-5.24,5.27,5.27,0,0,1,.39-2h-2A8.11,8.11,0,0,0,454.67,4a7.89,7.89,0,0,0,5,7.47,7,7,0,0,0,12.17,0A7.89,7.89,0,0,0,476.78,4Z"/><path class="cls-4" d="M472.83,3.38a3.3,3.3,0,0,0-.66-2H459.28a3.3,3.3,0,0,0-.66,2A3.37,3.37,0,0,0,462,6.75c.14,0,.28,0,.42,0a3.34,3.34,0,0,0,6.64,0c.14,0,.28,0,.41,0A3.37,3.37,0,0,0,472.83,3.38Z"/><path class="cls-4" d="M483.39,1.39h-1.7c2.61,4.91.05,10.46-2.31,12.38-2.6,2.13-4.52,5.57-1.12,7.77-1.24,4.75,6,7,9.8,1.41C491.48,17.89,489,7.11,483.39,1.39Z"/><path class="cls-5" d="M484.75,6.49a12.73,12.73,0,0,1-4.12,8.81c-1.38,1.12-2.27,2.48-2.22,3.37,0,.16,0,.64.92,1.22l1.19.77L480.17,22a1.54,1.54,0,0,0,.2,1.41,2.57,2.57,0,0,0,2,.82,5,5,0,0,0,4-2.43C488.67,18.52,487.71,11.7,484.75,6.49Z"/><path class="cls-4" d="M452.06,13.77c-2.34-1.92-4.91-7.47-2.3-12.38h-1.7C442.42,7.11,440,17.89,443.4,23c3.79,5.6,11,3.34,9.8-1.41C456.59,19.34,454.67,15.9,452.06,13.77Z"/><path class="cls-5" d="M446.71,6.49c-3,5.21-3.92,12-1.68,15.35a5,5,0,0,0,4,2.43,2.57,2.57,0,0,0,2-.82,1.54,1.54,0,0,0,.21-1.41l-.36-1.38,1.19-.77c.89-.58.92-1.06.92-1.22,0-.89-.84-2.25-2.22-3.37A12.7,12.7,0,0,1,446.71,6.49Z"/><path class="cls-4" d="M477.66,24c1.28-2.84-2-4.2-4.05-2.77-1.15.82-5.09,2.48-7-.46a4.72,4.72,0,0,1-.85.07,4.91,4.91,0,0,1-.86-.07c-1.93,2.94-5.88,1.28-7,.46-2-1.43-5.32-.07-4,2.77-3.13.58-1.79,6.66,4.83,5.12a9.89,9.89,0,0,0,7.11-6.54,9.87,9.87,0,0,0,7.1,6.54C479.45,30.68,480.8,24.6,477.66,24Z"/><path class="cls-6" d="M481.69,1.39h-1.42A5.54,5.54,0,0,1,481,4.07a5.6,5.6,0,0,1-3.48,5.18,5.81,5.81,0,0,1,.29,1.77,5.61,5.61,0,0,1-5.6,5.61,6.28,6.28,0,0,1-1-.09,5.61,5.61,0,0,1-4.6,4.25c1.94,2.94,5.88,1.28,7,.46,2-1.43,5.33-.07,4.05,2.77a2,2,0,0,1,1.18.67,3.48,3.48,0,0,1-.58-3.15c-3.4-2.2-1.48-5.64,1.12-7.77C481.74,11.85,484.3,6.3,481.69,1.39Z"/><path class="cls-6" d="M464.87,20.79a5.6,5.6,0,0,1-4.59-4.25,6.39,6.39,0,0,1-1,.09,5.6,5.6,0,0,1-5.6-5.61A5.52,5.52,0,0,1,454,9.25a5.6,5.6,0,0,1-3.48-5.18,5.53,5.53,0,0,1,.68-2.68h-1.42c-2.61,4.91,0,10.46,2.3,12.38,2.61,2.13,4.53,5.57,1.14,7.77a3.49,3.49,0,0,1-.58,3.15,1.91,1.91,0,0,1,1.17-.67c-1.27-2.84,2-4.2,4-2.77C459,22.07,462.94,23.73,464.87,20.79Z"/><path class="cls-5" d="M476,22.79a.73.73,0,0,1-.11.42l-1,2.31,2.41.44a.9.9,0,0,1-.18.55,2.63,2.63,0,0,1-2.26.9,6.63,6.63,0,0,1-1.58-.2,7.63,7.63,0,0,1-4.42-2.84,5.65,5.65,0,0,0,.93.07,9.34,9.34,0,0,0,5-1.58,1.14,1.14,0,0,1,.68-.21A.91.91,0,0,1,476,22.79Zm-19.28.06a9.31,9.31,0,0,0,5,1.59,5.86,5.86,0,0,0,.94-.07,7.62,7.62,0,0,1-4.43,2.84,6.51,6.51,0,0,1-1.58.2,2.65,2.65,0,0,1-2.26-.9,1,1,0,0,1-.18-.55l2.47-.46-1-2.29a1.53,1.53,0,0,1-.12-.4.8.8,0,0,1,.55-.16A1.15,1.15,0,0,1,456.69,22.85Z"/><path class="cls-2" d="M477,30.6a3.88,3.88,0,0,0-.29-1.49,6.47,6.47,0,0,1-2.89.2,2.83,2.83,0,0,1,0,.29,3.09,3.09,0,0,1-2.12,3,3.23,3.23,0,0,1,.23,1.22A3,3,0,0,1,469,36.92a2.31,2.31,0,0,1-.37,0,2.9,2.9,0,0,1-5.79,0,2.43,2.43,0,0,1-.38,0,3,3,0,0,1-2.91-3.11,3.05,3.05,0,0,1,.24-1.22,3.09,3.09,0,0,1-2.13-3c0-.1,0-.2,0-.3a6.26,6.26,0,0,1-2.9-.18,4,4,0,0,0,2.67,5.37,4,4,0,0,0,3.72,5.63,3.08,3.08,0,0,0,.53,0,4,4,0,0,0,8.06,0,3.15,3.15,0,0,0,.53,0A4,4,0,0,0,474,34.49,4,4,0,0,0,477,30.6Z"/><path class="cls-3" d="M473.81,29.6a2.83,2.83,0,0,0,0-.29c-.3,0-.62-.1-1-.17a10,10,0,0,1-1.89-.65c-.25-.11-.49-.24-.72-.36a7.11,7.11,0,0,1-9,0,7.08,7.08,0,0,1-.73.36,10.35,10.35,0,0,1-1.88.65,8.64,8.64,0,0,1-.93.16c0,.1,0,.2,0,.3a3.09,3.09,0,0,0,2.13,3,3.05,3.05,0,0,0-.24,1.22,3,3,0,0,0,2.91,3.11,2.43,2.43,0,0,0,.38,0,2.9,2.9,0,0,0,5.79,0,2.31,2.31,0,0,0,.37,0,3,3,0,0,0,2.91-3.11,3.23,3.23,0,0,0-.23-1.22A3.09,3.09,0,0,0,473.81,29.6Z"/><path class="cls-2" d="M470.22,28.13l-.32-.2a9.5,9.5,0,0,1-1.35-1,5.14,5.14,0,0,1-5.65,0,7.62,7.62,0,0,1-1.33,1l-.34.21a7.11,7.11,0,0,0,9,0Z"/><path class="cls-2" d="M501.38,3.43a4.66,4.66,0,0,0-.46-2h-2.4A2.78,2.78,0,0,1,497.6,6L496,6.65l.44,1.72a3.53,3.53,0,0,1,.09.69,2.79,2.79,0,1,1-5.57,0,2.91,2.91,0,0,1,.09-.69l.44-1.72L489.78,6A2.78,2.78,0,0,1,488,3.43a2.73,2.73,0,0,1,.9-2h-2.41a4.66,4.66,0,0,0-.46,2,4.76,4.76,0,0,0,3.09,4.46,4.47,4.47,0,0,0-.15,1.17,4.76,4.76,0,1,0,9.51,0,4.47,4.47,0,0,0-.16-1.17A4.76,4.76,0,0,0,501.38,3.43Z"/><path class="cls-3" d="M499.41,3.43a2.76,2.76,0,0,0-.89-2h-9.65a2.73,2.73,0,0,0-.9,2A2.78,2.78,0,0,0,489.78,6l1.66.62L491,8.37a2.91,2.91,0,0,0-.09.69,2.79,2.79,0,1,0,5.57,0,3.53,3.53,0,0,0-.09-.69L496,6.65,497.6,6A2.78,2.78,0,0,0,499.41,3.43Z"/><path class="cls-2" d="M430.07,3.43a4.8,4.8,0,0,1,.46-2h2.41a2.73,2.73,0,0,0-.9,2A2.78,2.78,0,0,0,433.85,6l1.66.62-.44,1.72a2.91,2.91,0,0,0-.09.69,2.79,2.79,0,1,0,5.57,0,2.91,2.91,0,0,0-.09-.69L440,6.65,441.67,6a2.77,2.77,0,0,0,1.81-2.6,2.73,2.73,0,0,0-.9-2H445a4.67,4.67,0,0,1,.47,2,4.77,4.77,0,0,1-3.1,4.46,4.47,4.47,0,0,1,.16,1.17,4.76,4.76,0,1,1-9.51,0,4.47,4.47,0,0,1,.15-1.17A4.76,4.76,0,0,1,430.07,3.43Z"/><path class="cls-3" d="M432,3.43a2.73,2.73,0,0,1,.9-2h9.64a2.73,2.73,0,0,1,.9,2A2.77,2.77,0,0,1,441.67,6L440,6.65l.44,1.72a2.91,2.91,0,0,1,.09.69,2.79,2.79,0,1,1-5.57,0,2.91,2.91,0,0,1,.09-.69l.44-1.72L433.85,6A2.78,2.78,0,0,1,432,3.43Z"/><path class="cls-4" d="M238.61,4.07a5.53,5.53,0,0,0-.68-2.68H234a8.39,8.39,0,0,1,.4,2.58,7.89,7.89,0,0,1-5,7.47,7,7,0,0,1-12.16,0,7.89,7.89,0,0,1-5-7.47,8.39,8.39,0,0,1,.4-2.58h-3.9a5.6,5.6,0,0,0,2.8,7.86,5.52,5.52,0,0,0-.29,1.77,5.6,5.6,0,0,0,5.6,5.61,6.39,6.39,0,0,0,1-.09,5.61,5.61,0,0,0,4.59,4.25,5.32,5.32,0,0,0,1.72,0,5.61,5.61,0,0,0,4.59-4.25,6.39,6.39,0,0,0,1,.09,5.6,5.6,0,0,0,5.6-5.61,5.52,5.52,0,0,0-.29-1.77A5.6,5.6,0,0,0,238.61,4.07Z"/><path class="cls-5" d="M234.43,4a8.39,8.39,0,0,0-.4-2.58h-2a5.27,5.27,0,0,1,.39,2,5.36,5.36,0,0,1-4.3,5.24,5.31,5.31,0,0,1-9.56,0,5.36,5.36,0,0,1-4.3-5.24,5.27,5.27,0,0,1,.39-2h-2a8.39,8.39,0,0,0-.4,2.58,7.89,7.89,0,0,0,5,7.47,7,7,0,0,0,12.16,0A7.89,7.89,0,0,0,234.43,4Z"/><path class="cls-4" d="M230.49,3.38a3.37,3.37,0,0,0-.66-2H216.94a3.31,3.31,0,0,0-.67,2,3.37,3.37,0,0,0,3.37,3.37c.14,0,.28,0,.42,0a3.34,3.34,0,0,0,6.64,0c.14,0,.28,0,.42,0A3.37,3.37,0,0,0,230.49,3.38Z"/><path class="cls-4" d="M241,1.39h-1.69c2.61,4.91,0,10.46-2.31,12.38-2.61,2.13-4.53,5.57-1.13,7.77-1.23,4.75,6,7,9.8,1.41C249.13,17.89,246.68,7.11,241,1.39Z"/><path class="cls-5" d="M242.4,6.49a12.73,12.73,0,0,1-4.12,8.81c-1.37,1.12-2.27,2.48-2.22,3.37,0,.16,0,.64.92,1.22l1.2.77L237.82,22a1.54,1.54,0,0,0,.21,1.41,2.57,2.57,0,0,0,2,.82,5,5,0,0,0,4-2.43C246.32,18.52,245.37,11.7,242.4,6.49Z"/><path class="cls-4" d="M209.72,13.77c-2.35-1.92-4.92-7.47-2.31-12.38h-1.69c-5.64,5.72-8.09,16.5-4.67,21.56,3.8,5.6,11,3.34,9.8-1.41C214.24,19.34,212.33,15.9,209.72,13.77Z"/><path class="cls-5" d="M204.36,6.49c-3,5.21-3.92,12-1.67,15.35a5,5,0,0,0,4,2.43,2.55,2.55,0,0,0,2-.82,1.54,1.54,0,0,0,.21-1.41l-.35-1.38,1.19-.77c.88-.58.91-1.06.92-1.22,0-.89-.85-2.25-2.23-3.37A12.74,12.74,0,0,1,204.36,6.49Z"/><path class="cls-4" d="M235.32,24c1.27-2.84-2-4.2-4-2.77-1.15.82-5.1,2.48-7-.46a5.32,5.32,0,0,1-1.72,0c-1.93,2.94-5.88,1.28-7,.46-2-1.43-5.32-.07-4.05,2.77-3.13.58-1.79,6.66,4.83,5.12a9.87,9.87,0,0,0,7.11-6.54,9.87,9.87,0,0,0,7.11,6.54C237.11,30.68,238.45,24.6,235.32,24Z"/><path class="cls-6" d="M239.35,1.39h-1.42a5.53,5.53,0,0,1,.68,2.68,5.6,5.6,0,0,1-3.48,5.18,5.52,5.52,0,0,1,.29,1.77,5.6,5.6,0,0,1-5.6,5.61,6.39,6.39,0,0,1-1-.09,5.61,5.61,0,0,1-4.59,4.25c1.93,2.94,5.88,1.28,7,.46,2-1.43,5.32-.07,4,2.77a2,2,0,0,1,1.17.67,3.48,3.48,0,0,1-.58-3.15c-3.4-2.2-1.48-5.64,1.13-7.77C239.39,11.85,242,6.3,239.35,1.39Z"/><path class="cls-6" d="M222.52,20.79a5.61,5.61,0,0,1-4.59-4.25,6.39,6.39,0,0,1-1,.09,5.6,5.6,0,0,1-5.6-5.61,5.52,5.52,0,0,1,.29-1.77,5.6,5.6,0,0,1-2.8-7.86h-1.42c-2.61,4.91,0,10.46,2.31,12.38,2.61,2.13,4.52,5.57,1.13,7.77a3.49,3.49,0,0,1-.58,3.15,2,2,0,0,1,1.17-.67c-1.27-2.84,2-4.2,4.05-2.77C216.64,22.07,220.59,23.73,222.52,20.79Z"/><path class="cls-5" d="M233.63,22.79a.87.87,0,0,1-.11.42l-1,2.31L235,26a.94.94,0,0,1-.17.55,2.67,2.67,0,0,1-2.27.9,6.63,6.63,0,0,1-1.58-.2,7.63,7.63,0,0,1-4.42-2.84,5.78,5.78,0,0,0,.94.07,9.34,9.34,0,0,0,5-1.58,1.14,1.14,0,0,1,.68-.21A1,1,0,0,1,233.63,22.79Zm-19.28.06a9.24,9.24,0,0,0,5,1.59,5.69,5.69,0,0,0,.94-.07,7.63,7.63,0,0,1-4.42,2.84,6.63,6.63,0,0,1-1.58.2,2.63,2.63,0,0,1-2.26-.9.92.92,0,0,1-.18-.55l2.46-.46-1-2.29a1,1,0,0,1-.11-.4.74.74,0,0,1,.54-.16A1.21,1.21,0,0,1,214.35,22.85Z"/><path class="cls-2" d="M234.63,30.6a4.08,4.08,0,0,0-.29-1.49,6.47,6.47,0,0,1-2.89.2c0,.1,0,.19,0,.29a3.09,3.09,0,0,1-2.12,3,3.23,3.23,0,0,1,.23,1.22,3,3,0,0,1-2.9,3.11,2.34,2.34,0,0,1-.38,0,2.9,2.9,0,0,1-5.79,0,2.43,2.43,0,0,1-.38,0,3,3,0,0,1-2.91-3.11,3.24,3.24,0,0,1,.24-1.22,3.09,3.09,0,0,1-2.12-3c0-.1,0-.2,0-.3a6.22,6.22,0,0,1-2.89-.18,3.87,3.87,0,0,0-.29,1.48,4,4,0,0,0,3,3.89,4,4,0,0,0,3.73,5.63,3,3,0,0,0,.52,0,4,4,0,0,0,8.06,0,3.15,3.15,0,0,0,.53,0,4.05,4.05,0,0,0,3.73-5.63A4,4,0,0,0,234.63,30.6Z"/><path class="cls-3" d="M231.46,29.6c0-.1,0-.19,0-.29-.31,0-.63-.1-1-.17a10.09,10.09,0,0,1-1.9-.65c-.25-.11-.48-.24-.71-.36a7.13,7.13,0,0,1-9,0,7.08,7.08,0,0,1-.73.36,10.35,10.35,0,0,1-1.88.65,8.24,8.24,0,0,1-.93.16c0,.1,0,.2,0,.3a3.09,3.09,0,0,0,2.12,3,3.24,3.24,0,0,0-.24,1.22,3,3,0,0,0,2.91,3.11,2.43,2.43,0,0,0,.38,0,2.9,2.9,0,0,0,5.79,0,2.34,2.34,0,0,0,.38,0,3,3,0,0,0,2.9-3.11,3.23,3.23,0,0,0-.23-1.22A3.09,3.09,0,0,0,231.46,29.6Z"/><path class="cls-2" d="M227.88,28.13l-.33-.2a8.86,8.86,0,0,1-1.34-1,5.11,5.11,0,0,1-2.83.84,5,5,0,0,1-2.83-.85,7.93,7.93,0,0,1-1.32,1l-.35.21a7.13,7.13,0,0,0,9,0Z"/><path class="cls-2" d="M259,3.43a4.8,4.8,0,0,0-.46-2h-2.41a2.73,2.73,0,0,1,.9,2A2.78,2.78,0,0,1,255.26,6l-1.66.62L254,8.37a2.91,2.91,0,0,1,.09.69,2.79,2.79,0,1,1-5.57,0,2.91,2.91,0,0,1,.09-.69l.44-1.72L247.43,6a2.77,2.77,0,0,1-.91-4.64h-2.41a4.66,4.66,0,0,0-.46,2,4.77,4.77,0,0,0,3.1,4.46,4.47,4.47,0,0,0-.16,1.17,4.76,4.76,0,1,0,9.51,0A4.93,4.93,0,0,0,256,7.89,4.76,4.76,0,0,0,259,3.43Z"/><path class="cls-3" d="M257.07,3.43a2.73,2.73,0,0,0-.9-2h-9.65A2.77,2.77,0,0,0,247.43,6l1.66.62-.44,1.72a2.91,2.91,0,0,0-.09.69,2.79,2.79,0,1,0,5.57,0,2.91,2.91,0,0,0-.09-.69l-.44-1.72L255.26,6A2.78,2.78,0,0,0,257.07,3.43Z"/><path class="cls-2" d="M187.72,3.43a4.8,4.8,0,0,1,.46-2h2.41a2.73,2.73,0,0,0-.9,2A2.78,2.78,0,0,0,191.5,6l1.66.62-.44,1.72a3.53,3.53,0,0,0-.09.69,2.79,2.79,0,1,0,5.57,0,2.91,2.91,0,0,0-.09-.69l-.44-1.72L199.33,6a2.77,2.77,0,0,0,.91-4.64h2.41a4.66,4.66,0,0,1,.46,2A4.78,4.78,0,0,1,200,7.89a4.93,4.93,0,0,1,.15,1.17,4.76,4.76,0,1,1-9.51,0,4.93,4.93,0,0,1,.15-1.17A4.76,4.76,0,0,1,187.72,3.43Z"/><path class="cls-3" d="M189.69,3.43a2.73,2.73,0,0,1,.9-2h9.65A2.77,2.77,0,0,1,199.33,6l-1.66.62.44,1.72a2.91,2.91,0,0,1,.09.69,2.79,2.79,0,1,1-5.57,0,3.53,3.53,0,0,1,.09-.69l.44-1.72L191.5,6A2.78,2.78,0,0,1,189.69,3.43Z"/><path class="cls-4" d="M91,4.07a5.53,5.53,0,0,1,.68-2.68h3.9A8.1,8.1,0,0,0,95.16,4a7.88,7.88,0,0,0,5,7.47,7,7,0,0,0,12.17,0,7.89,7.89,0,0,0,5-7.47,8.39,8.39,0,0,0-.4-2.58h3.89a5.54,5.54,0,0,1,.69,2.68A5.6,5.6,0,0,1,118,9.25a5.81,5.81,0,0,1,.29,1.77,5.61,5.61,0,0,1-5.6,5.61,6.28,6.28,0,0,1-1-.09,5.61,5.61,0,0,1-4.6,4.25,4.72,4.72,0,0,1-.85.07,4.91,4.91,0,0,1-.86-.07,5.6,5.6,0,0,1-4.59-4.25,6.39,6.39,0,0,1-1,.09A5.6,5.6,0,0,1,94.17,11a5.52,5.52,0,0,1,.29-1.77A5.6,5.6,0,0,1,91,4.07Z"/><path class="cls-5" d="M95.16,4a8.1,8.1,0,0,1,.4-2.58h2a5.27,5.27,0,0,0-.39,2,5.35,5.35,0,0,0,4.3,5.24,5.31,5.31,0,0,0,9.56,0,5.35,5.35,0,0,0,4.29-5.24,5.27,5.27,0,0,0-.39-2h2a8.39,8.39,0,0,1,.4,2.58,7.89,7.89,0,0,1-5,7.47,7,7,0,0,1-12.17,0A7.88,7.88,0,0,1,95.16,4Z"/><path class="cls-4" d="M99.1,3.38a3.37,3.37,0,0,1,.66-2h12.89a3.3,3.3,0,0,1,.66,2A3.37,3.37,0,0,1,110,6.75c-.14,0-.28,0-.42,0a3.34,3.34,0,0,1-6.64,0c-.14,0-.28,0-.42,0A3.37,3.37,0,0,1,99.1,3.38Z"/><path class="cls-4" d="M88.54,1.39h1.7c-2.61,4.91,0,10.46,2.31,12.38,2.61,2.13,4.53,5.57,1.13,7.77,1.23,4.75-6,7-9.8,1.41C80.46,17.89,82.91,7.11,88.54,1.39Z"/><path class="cls-5" d="M87.19,6.49a12.69,12.69,0,0,0,4.12,8.81c1.37,1.12,2.27,2.48,2.22,3.37,0,.16,0,.64-.93,1.22l-1.19.77L91.77,22a1.54,1.54,0,0,1-.21,1.41,2.57,2.57,0,0,1-2,.82,5,5,0,0,1-4-2.43C83.27,18.52,84.22,11.7,87.19,6.49Z"/><path class="cls-4" d="M119.87,13.77c2.35-1.92,4.91-7.47,2.3-12.38h1.7c5.64,5.72,8.09,16.5,4.67,21.56-3.8,5.6-11,3.34-9.8-1.41C115.35,19.34,117.26,15.9,119.87,13.77Z"/><path class="cls-5" d="M125.22,6.49c3,5.21,3.93,12,1.68,15.35a5,5,0,0,1-4,2.43,2.58,2.58,0,0,1-2-.82,1.54,1.54,0,0,1-.2-1.41l.35-1.38-1.19-.77c-.88-.58-.91-1.06-.92-1.22,0-.89.85-2.25,2.23-3.37A12.74,12.74,0,0,0,125.22,6.49Z"/><path class="cls-4" d="M94.27,24c-1.27-2.84,2-4.2,4-2.77,1.15.82,5.1,2.48,7-.46a4.91,4.91,0,0,0,.86.07,4.72,4.72,0,0,0,.85-.07c1.94,2.94,5.89,1.28,7,.46,2-1.43,5.33-.07,4,2.77,3.14.58,1.79,6.66-4.83,5.12a9.87,9.87,0,0,1-7.1-6.54,9.89,9.89,0,0,1-7.11,6.54C92.48,30.68,91.14,24.6,94.27,24Z"/><path class="cls-6" d="M90.24,1.39h1.42A5.53,5.53,0,0,0,91,4.07a5.6,5.6,0,0,0,3.48,5.18A5.52,5.52,0,0,0,94.17,11a5.6,5.6,0,0,0,5.6,5.61,6.39,6.39,0,0,0,1-.09,5.6,5.6,0,0,0,4.59,4.25c-1.93,2.94-5.88,1.28-7,.46-2-1.43-5.32-.07-4,2.77a2,2,0,0,0-1.18.67,3.45,3.45,0,0,0,.59-3.15c3.4-2.2,1.48-5.64-1.13-7.77C90.2,11.85,87.63,6.3,90.24,1.39Z"/><path class="cls-6" d="M107.06,20.79a5.61,5.61,0,0,0,4.6-4.25,6.28,6.28,0,0,0,1,.09,5.61,5.61,0,0,0,5.6-5.61A5.81,5.81,0,0,0,118,9.25a5.6,5.6,0,0,0,3.48-5.18,5.54,5.54,0,0,0-.69-2.68h1.42c2.61,4.91,0,10.46-2.3,12.38-2.61,2.13-4.52,5.57-1.13,7.77a3.49,3.49,0,0,0,.57,3.15,1.91,1.91,0,0,0-1.17-.67c1.28-2.84-2-4.2-4-2.77C113,22.07,109,23.73,107.06,20.79Z"/><path class="cls-5" d="M96.5,22.65a1.14,1.14,0,0,1,.68.21,9.34,9.34,0,0,0,5,1.58,5.86,5.86,0,0,0,.94-.07,7.66,7.66,0,0,1-4.42,2.84,6.65,6.65,0,0,1-1.59.2,2.65,2.65,0,0,1-2.26-.9,1,1,0,0,1-.18-.55l2.42-.44-1-2.31a.87.87,0,0,1-.11-.42A1,1,0,0,1,96.5,22.65Zm19.42,0a.76.76,0,0,1,.54.16.9.9,0,0,1-.12.4l-1,2.29,2.46.46a.92.92,0,0,1-.18.55,2.63,2.63,0,0,1-2.26.9,6.63,6.63,0,0,1-1.58-.2,7.63,7.63,0,0,1-4.42-2.84,5.65,5.65,0,0,0,.93.07,9.25,9.25,0,0,0,5-1.59A1.21,1.21,0,0,1,115.92,22.65Z"/><path class="cls-2" d="M95,30.6a3.88,3.88,0,0,1,.29-1.49,6.47,6.47,0,0,0,2.89.2,2.81,2.81,0,0,0,0,.29,3.08,3.08,0,0,0,2.12,3,3.24,3.24,0,0,0-.24,1.22,3,3,0,0,0,2.91,3.11,2.43,2.43,0,0,0,.38,0,2.9,2.9,0,0,0,5.79,0,2.34,2.34,0,0,0,.38,0,3,3,0,0,0,2.9-3.11,3.23,3.23,0,0,0-.23-1.22,3.09,3.09,0,0,0,2.12-3c0-.1,0-.2,0-.3a6.22,6.22,0,0,0,2.89-.18,3.87,3.87,0,0,1,.29,1.48,4,4,0,0,1-3,3.89,4.05,4.05,0,0,1-3.73,5.63,3.15,3.15,0,0,1-.53,0,4,4,0,0,1-8.06,0,3,3,0,0,1-.53,0,4,4,0,0,1-3.72-5.63A4,4,0,0,1,95,30.6Z"/><path class="cls-3" d="M98.13,29.6a2.81,2.81,0,0,1,0-.29c.31,0,.63-.1,1-.17a10,10,0,0,0,1.89-.65c.26-.11.49-.24.72-.36a7.11,7.11,0,0,0,9,0c.23.13.48.25.73.36a10.63,10.63,0,0,0,1.88.65,8.81,8.81,0,0,0,.94.16c0,.1,0,.2,0,.3a3.09,3.09,0,0,1-2.12,3,3.23,3.23,0,0,1,.23,1.22,3,3,0,0,1-2.9,3.11,2.34,2.34,0,0,1-.38,0,2.9,2.9,0,0,1-5.79,0,2.43,2.43,0,0,1-.38,0A3,3,0,0,1,100,33.81a3.24,3.24,0,0,1,.24-1.22A3.08,3.08,0,0,1,98.13,29.6Z"/><path class="cls-2" d="M101.71,28.13l.33-.2a8.86,8.86,0,0,0,1.34-1,5.09,5.09,0,0,0,2.83.84,5,5,0,0,0,2.82-.85,8,8,0,0,0,1.33,1l.34.21a7.11,7.11,0,0,1-9,0Z"/><path class="cls-2" d="M70.55,3.43a4.8,4.8,0,0,1,.46-2h2.41a2.73,2.73,0,0,0-.9,2A2.78,2.78,0,0,0,74.33,6L76,6.65l-.44,1.72a2.91,2.91,0,0,0-.09.69,2.79,2.79,0,1,0,5.57,0,2.91,2.91,0,0,0-.09-.69L80.5,6.65,82.15,6a2.78,2.78,0,0,0,.92-4.64h2.4a4.67,4.67,0,0,1,.47,2,4.77,4.77,0,0,1-3.1,4.46A4.47,4.47,0,0,1,83,9.06a4.76,4.76,0,1,1-9.51,0,4.47,4.47,0,0,1,.15-1.17A4.76,4.76,0,0,1,70.55,3.43Z"/><path class="cls-3" d="M72.52,3.43a2.73,2.73,0,0,1,.9-2h9.65A2.78,2.78,0,0,1,82.15,6l-1.65.62.44,1.72a2.91,2.91,0,0,1,.09.69,2.79,2.79,0,1,1-5.57,0,2.91,2.91,0,0,1,.09-.69L76,6.65,74.33,6A2.78,2.78,0,0,1,72.52,3.43Z"/><path class="cls-2" d="M141.86,3.43a4.8,4.8,0,0,0-.45-2H139A2.78,2.78,0,0,1,138.09,6l-1.66.62.44,1.72a3.53,3.53,0,0,1,.09.69,2.79,2.79,0,1,1-5.57,0,2.91,2.91,0,0,1,.09-.69l.44-1.72L130.26,6a2.78,2.78,0,0,1-1.81-2.6,2.73,2.73,0,0,1,.9-2h-2.41a4.66,4.66,0,0,0-.46,2,4.76,4.76,0,0,0,3.09,4.46,4.93,4.93,0,0,0-.15,1.17,4.76,4.76,0,1,0,9.51,0,4.47,4.47,0,0,0-.16-1.17A4.76,4.76,0,0,0,141.86,3.43Z"/><path class="cls-3" d="M139.89,3.43a2.76,2.76,0,0,0-.89-2h-9.65a2.73,2.73,0,0,0-.9,2A2.78,2.78,0,0,0,130.26,6l1.66.62-.44,1.72a2.91,2.91,0,0,0-.09.69,2.79,2.79,0,1,0,5.57,0,3.53,3.53,0,0,0-.09-.69l-.44-1.72L138.09,6A2.79,2.79,0,0,0,139.89,3.43Z"/><path class="cls-4" d="M333.33,4.07A5.53,5.53,0,0,1,334,1.39h3.9A8.11,8.11,0,0,0,337.5,4a7.89,7.89,0,0,0,5,7.47,7,7,0,0,0,12.17,0,7.89,7.89,0,0,0,5-7.47,8.11,8.11,0,0,0-.41-2.58h3.9a5.53,5.53,0,0,1,.68,2.68,5.6,5.6,0,0,1-3.48,5.18,5.53,5.53,0,0,1,.3,1.77A5.61,5.61,0,0,1,355,16.63a6.39,6.39,0,0,1-1-.09,5.6,5.6,0,0,1-4.59,4.25,5.26,5.26,0,0,1-1.71,0,5.6,5.6,0,0,1-4.59-4.25,6.51,6.51,0,0,1-1,.09A5.61,5.61,0,0,1,336.51,11a5.53,5.53,0,0,1,.3-1.77A5.6,5.6,0,0,1,333.33,4.07Z"/><path class="cls-5" d="M337.5,4a8.11,8.11,0,0,1,.41-2.58h2a5.27,5.27,0,0,0-.39,2,5.35,5.35,0,0,0,4.29,5.24,5.32,5.32,0,0,0,9.57,0,5.35,5.35,0,0,0,4.29-5.24,5.27,5.27,0,0,0-.39-2h2A8.11,8.11,0,0,1,359.61,4a7.89,7.89,0,0,1-5,7.47,7,7,0,0,1-12.17,0A7.89,7.89,0,0,1,337.5,4Z"/><path class="cls-4" d="M341.45,3.38a3.3,3.3,0,0,1,.66-2H355a3.3,3.3,0,0,1,.66,2,3.37,3.37,0,0,1-3.37,3.37c-.14,0-.28,0-.42,0a3.34,3.34,0,0,1-6.64,0c-.13,0-.27,0-.41,0A3.37,3.37,0,0,1,341.45,3.38Z"/><path class="cls-4" d="M330.89,1.39h1.7c-2.61,4.91,0,10.46,2.31,12.38,2.6,2.13,4.52,5.57,1.13,7.77,1.23,4.75-6,7-9.8,1.41C322.8,17.89,325.25,7.11,330.89,1.39Z"/><path class="cls-5" d="M329.54,6.49a12.68,12.68,0,0,0,4.11,8.81c1.38,1.12,2.27,2.48,2.23,3.37,0,.16,0,.64-.93,1.22l-1.19.77.36,1.38a1.54,1.54,0,0,1-.21,1.41,2.57,2.57,0,0,1-2,.82,5,5,0,0,1-4-2.43C325.61,18.52,326.57,11.7,329.54,6.49Z"/><path class="cls-4" d="M362.22,13.77c2.34-1.92,4.91-7.47,2.3-12.38h1.7c5.64,5.72,8.09,16.5,4.66,21.56-3.79,5.6-11,3.34-9.8-1.41C357.69,19.34,359.61,15.9,362.22,13.77Z"/><path class="cls-5" d="M367.57,6.49c3,5.21,3.93,12,1.68,15.35a5,5,0,0,1-4,2.43,2.57,2.57,0,0,1-2-.82A1.54,1.54,0,0,1,363,22l.36-1.38-1.19-.77c-.89-.58-.91-1.06-.92-1.22-.05-.89.84-2.25,2.22-3.37A12.7,12.7,0,0,0,367.57,6.49Z"/><path class="cls-4" d="M336.62,24c-1.28-2.84,2-4.2,4.05-2.77,1.15.82,5.09,2.48,7-.46a5.26,5.26,0,0,0,1.71,0c1.94,2.94,5.88,1.28,7,.46,2-1.43,5.33-.07,4.05,2.77,3.13.58,1.79,6.66-4.83,5.12a9.89,9.89,0,0,1-7.11-6.54,9.87,9.87,0,0,1-7.1,6.54C334.83,30.68,333.49,24.6,336.62,24Z"/><path class="cls-6" d="M332.59,1.39H334a5.53,5.53,0,0,0-.68,2.68,5.6,5.6,0,0,0,3.48,5.18,5.53,5.53,0,0,0-.3,1.77,5.61,5.61,0,0,0,5.61,5.61,6.51,6.51,0,0,0,1-.09,5.6,5.6,0,0,0,4.59,4.25c-1.94,2.94-5.88,1.28-7,.46-2-1.43-5.33-.07-4.05,2.77a2,2,0,0,0-1.18.67,3.51,3.51,0,0,0,.59-3.15c3.39-2.2,1.47-5.64-1.13-7.77C332.55,11.85,330,6.3,332.59,1.39Z"/><path class="cls-6" d="M349.41,20.79A5.6,5.6,0,0,0,354,16.54a6.39,6.39,0,0,0,1,.09A5.61,5.61,0,0,0,360.6,11a5.53,5.53,0,0,0-.3-1.77,5.6,5.6,0,0,0,3.48-5.18,5.53,5.53,0,0,0-.68-2.68h1.42c2.61,4.91,0,10.46-2.3,12.38-2.61,2.13-4.53,5.57-1.14,7.77a3.52,3.52,0,0,0,.58,3.15,1.91,1.91,0,0,0-1.17-.67c1.28-2.84-2-4.2-4.05-2.77C355.29,22.07,351.35,23.73,349.41,20.79Z"/><path class="cls-5" d="M338.84,22.65a1.14,1.14,0,0,1,.68.21,9.38,9.38,0,0,0,5,1.58,5.65,5.65,0,0,0,.93-.07A7.63,7.63,0,0,1,341,27.21a6.63,6.63,0,0,1-1.58.2,2.63,2.63,0,0,1-2.26-.9A.9.9,0,0,1,337,26l2.42-.44-1-2.31a.87.87,0,0,1-.11-.42A.94.94,0,0,1,338.84,22.65Zm19.43,0a.79.79,0,0,1,.54.16,1.53,1.53,0,0,1-.12.4l-1,2.29,2.47.46a.92.92,0,0,1-.18.55,2.65,2.65,0,0,1-2.26.9,6.63,6.63,0,0,1-1.58-.2,7.66,7.66,0,0,1-4.43-2.84,5.86,5.86,0,0,0,.94.07,9.28,9.28,0,0,0,5-1.59A1.19,1.19,0,0,1,358.27,22.65Z"/><path class="cls-2" d="M337.31,30.6a3.88,3.88,0,0,1,.29-1.49,6.47,6.47,0,0,0,2.89.2,2.83,2.83,0,0,0,0,.29,3.09,3.09,0,0,0,2.13,3,3.05,3.05,0,0,0-.24,1.22,3,3,0,0,0,2.91,3.11l.38,0a2.9,2.9,0,0,0,5.79,0,2.31,2.31,0,0,0,.37,0,3,3,0,0,0,2.91-3.11,3.05,3.05,0,0,0-.24-1.22,3.09,3.09,0,0,0,2.13-3c0-.1,0-.2,0-.3a6.26,6.26,0,0,0,2.9-.18,3.86,3.86,0,0,1,.28,1.48,4,4,0,0,1-2.95,3.89,4,4,0,0,1-3.72,5.63,3.08,3.08,0,0,1-.53,0,4,4,0,0,1-8.06,0,3.08,3.08,0,0,1-.53,0,4,4,0,0,1-3.72-5.63A4,4,0,0,1,337.31,30.6Z"/><path class="cls-3" d="M340.47,29.6a2.83,2.83,0,0,1,0-.29c.3,0,.62-.1,1-.17a10,10,0,0,0,1.89-.65c.25-.11.49-.24.72-.36a7.11,7.11,0,0,0,9,0,7.08,7.08,0,0,0,.73.36,10.63,10.63,0,0,0,1.88.65,8.64,8.64,0,0,0,.93.16c0,.1,0,.2,0,.3a3.09,3.09,0,0,1-2.13,3,3.05,3.05,0,0,1,.24,1.22,3,3,0,0,1-2.91,3.11,2.31,2.31,0,0,1-.37,0,2.9,2.9,0,0,1-5.79,0l-.38,0a3,3,0,0,1-2.91-3.11,3.05,3.05,0,0,1,.24-1.22A3.09,3.09,0,0,1,340.47,29.6Z"/><path class="cls-2" d="M344.06,28.13l.33-.2a9.39,9.39,0,0,0,1.34-1,5.06,5.06,0,0,0,2.82.84,5,5,0,0,0,2.83-.85,8,8,0,0,0,1.33,1l.34.21a7.11,7.11,0,0,1-9,0Z"/><path class="cls-2" d="M312.9,3.43a4.8,4.8,0,0,1,.46-2h2.41a2.73,2.73,0,0,0-.9,2A2.78,2.78,0,0,0,316.68,6l1.65.62-.43,1.72a2.91,2.91,0,0,0-.09.69,2.78,2.78,0,1,0,5.56,0,2.47,2.47,0,0,0-.09-.69l-.44-1.72L324.5,6a2.77,2.77,0,0,0,1.81-2.6,2.73,2.73,0,0,0-.9-2h2.41a4.67,4.67,0,0,1,.47,2,4.77,4.77,0,0,1-3.1,4.46,4.47,4.47,0,0,1,.15,1.17,4.75,4.75,0,1,1-9.5,0A4.47,4.47,0,0,1,316,7.89,4.76,4.76,0,0,1,312.9,3.43Z"/><path class="cls-3" d="M314.87,3.43a2.73,2.73,0,0,1,.9-2h9.64a2.73,2.73,0,0,1,.9,2A2.77,2.77,0,0,1,324.5,6l-1.66.62.44,1.72a2.47,2.47,0,0,1,.09.69,2.78,2.78,0,1,1-5.56,0,2.91,2.91,0,0,1,.09-.69l.43-1.72L316.68,6A2.78,2.78,0,0,1,314.87,3.43Z"/><path class="cls-2" d="M384.21,3.43a4.8,4.8,0,0,0-.46-2h-2.41a2.73,2.73,0,0,1,.9,2A2.78,2.78,0,0,1,380.43,6l-1.65.62.43,1.72a2.91,2.91,0,0,1,.09.69,2.78,2.78,0,1,1-5.56,0,2.47,2.47,0,0,1,.09-.69l.44-1.72L372.61,6a2.77,2.77,0,0,1-1.81-2.6,2.73,2.73,0,0,1,.9-2h-2.41a4.67,4.67,0,0,0-.47,2,4.77,4.77,0,0,0,3.1,4.46,4.47,4.47,0,0,0-.15,1.17,4.75,4.75,0,1,0,9.5,0,4.47,4.47,0,0,0-.15-1.17A4.76,4.76,0,0,0,384.21,3.43Z"/><path class="cls-3" d="M382.24,3.43a2.73,2.73,0,0,0-.9-2H371.7a2.73,2.73,0,0,0-.9,2A2.77,2.77,0,0,0,372.61,6l1.66.62-.44,1.72a2.47,2.47,0,0,0-.09.69,2.78,2.78,0,1,0,5.56,0,2.91,2.91,0,0,0-.09-.69l-.43-1.72L380.43,6A2.78,2.78,0,0,0,382.24,3.43Z"/><path class="cls-2" d="M726.92,68.13a5.34,5.34,0,0,1,4.31-5.25,5.34,5.34,0,0,1,9.7,0,5.34,5.34,0,0,1,4.28,4.7,3.32,3.32,0,0,1,0,.55,5.29,5.29,0,0,1-.53,2.31h-4.3a2.37,2.37,0,0,0,0-4.65l-1.49-.29-.64-1.38a2.36,2.36,0,0,0-2.15-1.39,2.38,2.38,0,0,0-2.16,1.39l-.64,1.38-1.48.29a2.37,2.37,0,0,0-.06,4.65h-4.29A5.16,5.16,0,0,1,726.92,68.13Z"/><path class="cls-3" d="M729.87,68.13a2.39,2.39,0,0,1,1.93-2.34l1.48-.29.64-1.38a2.38,2.38,0,0,1,2.16-1.39,2.36,2.36,0,0,1,2.15,1.39l.64,1.38,1.49.29a2.37,2.37,0,0,1,0,4.65h-8.67A2.37,2.37,0,0,1,729.87,68.13Z"/><path class="cls-4" d="M744.18,37.66a5.22,5.22,0,0,1,4.45-7.95l.36,0a5.21,5.21,0,0,1,10.3,0l.37,0a5.21,5.21,0,0,1,4.44,7.95,5.49,5.49,0,0,1-2.76,10,8.94,8.94,0,0,0-14.4,0,5.49,5.49,0,0,1-2.76-10Z"/><path class="cls-5" d="M754.14,28.27a2.27,2.27,0,0,1,2.23,1.9l.41,2.67,2.69-.16h.19a2.27,2.27,0,0,1,2.26,2.26,2.2,2.2,0,0,1-.35,1.18l-1.48,2.42,2.35,1.58a2.53,2.53,0,0,1-.09,4.27,11.88,11.88,0,0,0-8.21-3.28,12,12,0,0,0-2.39.24,11.91,11.91,0,0,0-5.82,3,2.54,2.54,0,0,1-.09-4.27l2.35-1.58-1.49-2.42a2.24,2.24,0,0,1-.33-1.18,2.26,2.26,0,0,1,2.26-2.26h.18l2.69.16.41-2.66A2.27,2.27,0,0,1,754.14,28.27Z"/><path class="cls-4" d="M746.86,49.44c2.79-.64,7.28,1.13,7.28,7.31a14.66,14.66,0,0,1-9.43,13.69,5.29,5.29,0,0,0,.53-2.31,3.32,3.32,0,0,0,0-.55,10.1,10.1,0,0,0,3.63-4.85c.81-2.94-.81-5.11-3.13-7.26S744.08,50.08,746.86,49.44Z"/><path class="cls-5" d="M748,51.29c1.93,0,4.18,1.43,4.18,5.46a12.42,12.42,0,0,1-1.2,5.34c.43-3.48-1.71-6-3.92-8.07a1.92,1.92,0,0,1-.73-1.82,1.21,1.21,0,0,1,1-.84A3,3,0,0,1,748,51.29Z"/><path class="cls-2" d="M781.37,68.13a5.35,5.35,0,0,0-4.32-5.25,5.33,5.33,0,0,0-9.69,0,5.37,5.37,0,0,0-4.29,4.7,4.93,4.93,0,0,0,0,.55,5.16,5.16,0,0,0,.54,2.31h4.29a2.37,2.37,0,0,1,0-4.65l1.5-.29.63-1.38a2.37,2.37,0,0,1,4.32,0L775,65.5l1.49.29a2.38,2.38,0,0,1,.06,4.65h4.29A5.29,5.29,0,0,0,781.37,68.13Z"/><path class="cls-3" d="M778.41,68.13a2.39,2.39,0,0,0-1.92-2.34L775,65.5l-.63-1.38a2.37,2.37,0,0,0-4.32,0l-.63,1.38-1.5.29a2.37,2.37,0,0,0,0,4.65h8.68A2.37,2.37,0,0,0,778.41,68.13Z"/><path class="cls-4" d="M761.42,49.44c-2.78-.64-7.28,1.13-7.28,7.31a14.66,14.66,0,0,0,9.44,13.69,5.16,5.16,0,0,1-.54-2.31,4.93,4.93,0,0,1,0-.55,10.08,10.08,0,0,1-3.62-4.85c-.81-2.94.81-5.11,3.13-7.26S764.21,50.08,761.42,49.44Z"/><path class="cls-5" d="M760.3,51.29c-1.93,0-4.18,1.43-4.18,5.46a12.56,12.56,0,0,0,1.19,5.34c-.43-3.48,1.71-6,3.93-8.07A1.89,1.89,0,0,0,762,52.2a1.18,1.18,0,0,0-1-.84A3,3,0,0,0,760.3,51.29Z"/><path class="cls-4" d="M788.62,61.44c2.73-5.1,9.78-2.34,11-1.56a17.46,17.46,0,0,0-6.53,10.56h-2A18.73,18.73,0,0,1,796,60.62a10.08,10.08,0,0,0-1.92-.21,6,6,0,0,0-1.41.16,3.44,3.44,0,0,0-2.27,1.81l-.46.87-1,.15a3.23,3.23,0,0,0-2.38,1.48c-.49.78-1.08,2.42-.66,5.56h-2C783.13,64.35,785.67,61.87,788.62,61.44Z"/><path class="cls-5" d="M786.52,64.88a3.23,3.23,0,0,1,2.38-1.48l1-.15.46-.87a3.44,3.44,0,0,1,2.27-1.81,6,6,0,0,1,1.41-.16,10.08,10.08,0,0,1,1.92.21,18.73,18.73,0,0,0-4.87,9.82h-5.23C785.44,67.3,786,65.66,786.52,64.88Z"/></g></g></svg>