<svg xmlns="http://www.w3.org/2000/svg" viewBox="0 0 435.48 21.76"><defs><style>.cls-1{fill:#4b2928;}.cls-2{fill:#925841;}.cls-3{fill:#603a31;}.cls-4{fill:#087565;}.cls-5{fill:#2a4c59;}.cls-6{fill:#2f0000;}.cls-7{fill:#005737;}</style></defs><g id="图层_2" data-name="图层 2"><g id="文件图层"><rect class="cls-1" x="71.39" width="47.27" height="21.76"/><rect class="cls-2" x="73.2" y="1.81" width="43.64" height="12.79"/><rect class="cls-3" x="76.82" y="5.44" width="36.39" height="3.98"/><rect class="cls-1" x="120.47" width="47.27" height="21.76"/><rect class="cls-4" x="122.28" y="1.81" width="43.64" height="12.79"/><rect class="cls-5" x="125.91" y="5.44" width="36.39" height="3.98"/><rect class="cls-1" x="169.56" width="47.27" height="21.76"/><rect class="cls-3" x="171.37" y="1.81" width="43.64" height="12.79"/><rect class="cls-6" x="175" y="5.44" width="36.39" height="3.98"/><rect class="cls-1" x="218.65" width="47.27" height="21.76"/><rect class="cls-4" x="220.46" y="1.81" width="43.64" height="12.79"/><rect class="cls-7" x="224.08" y="5.44" width="36.39" height="3.98"/><rect class="cls-1" x="267.73" width="47.27" height="21.76"/><rect class="cls-2" x="269.55" y="1.81" width="43.64" height="12.79"/><rect class="cls-3" x="273.17" y="5.44" width="36.39" height="3.98"/><rect class="cls-1" x="316.82" width="47.27" height="21.76"/><rect class="cls-4" x="318.63" y="1.81" width="43.64" height="12.79"/><rect class="cls-5" x="322.26" y="5.44" width="36.39" height="3.98"/><polygon class="cls-1" points="69.57 0 69.57 21.76 0 21.76 21.76 0 69.57 0"/><polygon class="cls-4" points="9.72 14.61 22.51 1.81 67.75 1.81 67.75 14.61 9.72 14.61"/><polygon class="cls-7" points="20.04 9.42 24.01 5.44 64.13 5.44 64.13 9.42 20.04 9.42"/><polygon class="cls-1" points="365.91 0 365.91 21.76 435.48 21.76 413.72 0 365.91 0"/><polygon class="cls-3" points="425.76 14.61 412.97 1.81 367.72 1.81 367.72 14.61 425.76 14.61"/><polygon class="cls-6" points="415.44 9.42 411.46 5.44 371.35 5.44 371.35 9.42 415.44 9.42"/></g></g></svg>