<svg xmlns="http://www.w3.org/2000/svg" viewBox="0 0 494.06 22.11"><defs><style>.cls-1{fill:#4b2928;}.cls-2{fill:#087565;}.cls-3{fill:#005737;}.cls-4{fill:#603a31;}.cls-5{fill:#925841;}.cls-6{fill:#2f0000;}.cls-7{fill:#2a4c59;}.cls-8{fill:#6a3526;}</style></defs><g id="图层_2" data-name="图层 2"><g id="文件图层"><rect class="cls-1" x="391.36" width="39.12" height="22.11"/><path class="cls-2" d="M427.43,0h-33c-3.05,16.49,1.23,22.11,8.37,22.11a12.14,12.14,0,0,0,6.89-1.77,2.2,2.2,0,0,1,2.5,0,12.14,12.14,0,0,0,6.89,1.77C426.21,22.11,430.48,16.49,427.43,0Z"/><path class="cls-3" d="M417,18.27a8.33,8.33,0,0,1-5.11-1.47,1.52,1.52,0,0,0-1.85,0,8.27,8.27,0,0,1-5.1,1.47c-5.3,0-8.46-4.65-6.21-18.27h24.47C425.41,13.62,422.24,18.27,417,18.27Z"/><circle class="cls-4" cx="410.92" cy="7.83" r="5.64"/><circle class="cls-5" cx="410.92" cy="7.83" r="3.23"/><rect class="cls-1" x="350.39" width="39.12" height="22.11"/><path class="cls-4" d="M386.46,0h-33c-3.05,16.49,1.23,22.11,8.38,22.11a12.14,12.14,0,0,0,6.89-1.77,2.18,2.18,0,0,1,2.49,0,12.14,12.14,0,0,0,6.89,1.77C385.24,22.11,389.52,16.49,386.46,0Z"/><path class="cls-6" d="M376,18.27a8.27,8.27,0,0,1-5.1-1.47,1.53,1.53,0,0,0-1.86,0,8.27,8.27,0,0,1-5.1,1.47c-5.29,0-8.46-4.65-6.2-18.27h24.47C384.45,13.62,381.28,18.27,376,18.27Z"/><circle class="cls-5" cx="369.95" cy="7.84" r="5.64"/><circle class="cls-2" cx="369.95" cy="7.84" r="3.23"/><rect class="cls-1" x="309.42" width="39.12" height="22.11"/><path class="cls-2" d="M345.49,0h-33c-3.05,16.49,1.23,22.11,8.38,22.11a12.14,12.14,0,0,0,6.89-1.77,2.18,2.18,0,0,1,2.49,0,12.14,12.14,0,0,0,6.89,1.77C344.27,22.11,348.55,16.49,345.49,0Z"/><path class="cls-7" d="M335,18.27a8.3,8.3,0,0,1-5.1-1.47,1.52,1.52,0,0,0-1.85,0A8.31,8.31,0,0,1,323,18.27c-5.29,0-8.46-4.65-6.2-18.27h24.47C343.48,13.62,340.31,18.27,335,18.27Z"/><circle class="cls-1" cx="328.98" cy="7.84" r="5.64"/><circle class="cls-8" cx="328.98" cy="7.84" r="3.23"/><rect class="cls-1" x="227.49" width="39.12" height="22.11"/><path class="cls-2" d="M263.56,0h-33c-3,16.49,1.23,22.11,8.38,22.11a12.14,12.14,0,0,0,6.89-1.77,2.2,2.2,0,0,1,2.5,0,12.14,12.14,0,0,0,6.89,1.77C262.33,22.11,266.61,16.49,263.56,0Z"/><path class="cls-3" d="M253.07,18.27A8.3,8.3,0,0,1,248,16.8a1.52,1.52,0,0,0-1.85,0,8.27,8.27,0,0,1-5.1,1.47c-5.3,0-8.46-4.65-6.21-18.27h24.47C261.54,13.62,258.37,18.27,253.07,18.27Z"/><circle class="cls-4" cx="247.05" cy="7.84" r="5.64"/><circle class="cls-5" cx="247.05" cy="7.84" r="3.23"/><rect class="cls-1" x="186.52" width="39.12" height="22.11"/><path class="cls-4" d="M222.59,0h-33c-3,16.49,1.22,22.11,8.37,22.11a12.14,12.14,0,0,0,6.89-1.77,2.2,2.2,0,0,1,2.5,0,12.14,12.14,0,0,0,6.89,1.77C221.37,22.11,225.64,16.49,222.59,0Z"/><path class="cls-6" d="M212.11,18.27A8.33,8.33,0,0,1,207,16.8a1.52,1.52,0,0,0-1.85,0,8.27,8.27,0,0,1-5.1,1.47c-5.3,0-8.46-4.65-6.21-18.27h24.47C220.57,13.62,217.4,18.27,212.11,18.27Z"/><circle class="cls-5" cx="206.08" cy="7.84" r="5.64"/><circle class="cls-2" cx="206.08" cy="7.84" r="3.23"/><rect class="cls-1" x="145.55" width="39.12" height="22.11"/><path class="cls-2" d="M181.62,0h-33c-3,16.49,1.23,22.11,8.38,22.11a12.1,12.1,0,0,0,6.88-1.77,2.2,2.2,0,0,1,2.5,0,12.14,12.14,0,0,0,6.89,1.77C180.4,22.11,184.67,16.49,181.62,0Z"/><path class="cls-7" d="M171.14,18.27A8.27,8.27,0,0,1,166,16.8a1.53,1.53,0,0,0-1.86,0,8.27,8.27,0,0,1-5.1,1.47c-5.3,0-8.46-4.65-6.21-18.27h24.47C179.61,13.62,176.43,18.27,171.14,18.27Z"/><circle class="cls-1" cx="165.11" cy="7.84" r="5.64"/><circle class="cls-8" cx="165.11" cy="7.84" r="3.23"/><polygon class="cls-1" points="432.29 0 432.29 22.11 494.06 22.11 471.95 0 432.29 0"/><path class="cls-4" d="M468.27,14.51c-4.29,6.46-15.51,0-15.51,0s-2.93,3.76-7.5,3.76c-5.3,0-8.46-4.65-6.21-18.27h18.11C464.18,3.25,471,10.44,468.27,14.51Z"/><circle class="cls-2" cx="452.76" cy="7.16" r="5.64"/><circle class="cls-5" cx="452.76" cy="7.16" r="3.23"/><path class="cls-5" d="M477,15.86c0,4.24-5,6.25-11.65,6.25a29.88,29.88,0,0,1-12.13-2.78,16.05,16.05,0,0,1-9.67,2.78c-7.15,0-11.8-5.62-8.75-22.11h4.27c-2.25,13.62.91,18.27,6.21,18.27,4.57,0,6.61-3.09,7.5-3.76,0,0,11.22,6.46,15.51,0C471,10.44,464.18,3.25,457.16,0h7.67C468.94,1.76,477,11.63,477,15.86Z"/><polygon class="cls-1" points="61.77 0 61.77 22.11 0 22.11 22.11 0 61.77 0"/><path class="cls-6" d="M25.79,14.51c4.29,6.46,15.51,0,15.51,0s2.93,3.76,7.5,3.76c5.3,0,8.46-4.65,6.21-18.27H36.9C29.88,3.25,23.09,10.44,25.79,14.51Z"/><circle class="cls-5" cx="41.3" cy="7.16" r="5.64"/><circle class="cls-2" cx="41.3" cy="7.16" r="3.23"/><path class="cls-4" d="M17.08,15.86c0,4.24,5,6.25,11.65,6.25a29.82,29.82,0,0,0,12.13-2.78,16.05,16.05,0,0,0,9.67,2.78c7.15,0,11.8-5.62,8.76-22.11H55c2.25,13.62-.91,18.27-6.21,18.27-4.57,0-6.61-3.09-7.5-3.76,0,0-11.22,6.46-15.51,0C23.09,10.44,29.88,3.25,36.9,0H29.23C25.12,1.76,17.08,11.63,17.08,15.86Z"/><rect class="cls-1" x="268.45" width="39.12" height="22.11"/><path class="cls-4" d="M304.52,0h-33c-3.05,16.49,1.23,22.11,8.38,22.11a12.14,12.14,0,0,0,6.89-1.77,2.18,2.18,0,0,1,2.49,0,12.14,12.14,0,0,0,6.89,1.77C303.3,22.11,307.58,16.49,304.52,0Z"/><path class="cls-1" d="M294,18.27a8.3,8.3,0,0,1-5.1-1.47,1.52,1.52,0,0,0-1.85,0,8.27,8.27,0,0,1-5.1,1.47c-5.3,0-8.47-4.65-6.21-18.27h24.47C302.51,13.62,299.34,18.27,294,18.27Z"/><circle class="cls-2" cx="288.02" cy="7.84" r="5.64"/><circle class="cls-5" cx="288.02" cy="7.84" r="3.23"/><rect class="cls-1" x="63.61" width="39.12" height="22.11"/><path class="cls-2" d="M99.68,0h-33c-3,16.49,1.23,22.11,8.38,22.11a12.14,12.14,0,0,0,6.89-1.77,2.18,2.18,0,0,1,2.49,0,12.14,12.14,0,0,0,6.89,1.77C98.46,22.11,102.74,16.49,99.68,0Z"/><path class="cls-3" d="M89.2,18.27a8.3,8.3,0,0,1-5.1-1.47,1.52,1.52,0,0,0-1.85,0,8.3,8.3,0,0,1-5.1,1.47c-5.3,0-8.47-4.65-6.21-18.27H95.41C97.67,13.62,94.5,18.27,89.2,18.27Z"/><circle class="cls-4" cx="83.17" cy="7.83" r="5.64"/><circle class="cls-5" cx="83.17" cy="7.83" r="3.23"/><rect class="cls-1" x="104.58" width="39.12" height="22.11"/><path class="cls-4" d="M140.65,0h-33c-3,16.49,1.23,22.11,8.38,22.11a12.14,12.14,0,0,0,6.89-1.77,2.18,2.18,0,0,1,2.49,0,12.14,12.14,0,0,0,6.89,1.77C139.43,22.11,143.71,16.49,140.65,0Z"/><path class="cls-1" d="M130.17,18.27a8.27,8.27,0,0,1-5.1-1.47,1.52,1.52,0,0,0-1.85,0,8.33,8.33,0,0,1-5.11,1.47c-5.29,0-8.46-4.65-6.2-18.27h24.47C138.64,13.62,135.47,18.27,130.17,18.27Z"/><circle class="cls-2" cx="124.14" cy="7.84" r="5.64"/><circle class="cls-5" cx="124.14" cy="7.84" r="3.23"/></g></g></svg>