<svg xmlns="http://www.w3.org/2000/svg" xmlns:xlink="http://www.w3.org/1999/xlink" viewBox="0 0 1816.79 199.69"><defs><style>.cls-1{fill:none;}.cls-2{clip-path:url(#clip-path);}.cls-3{clip-path:url(#clip-path-2);}.cls-4{fill:#84c0a9;}.cls-5{fill:#000019;}.cls-6{fill:#004657;}.cls-7{fill:#4b7885;}.cls-8{fill:#fefde8;}.cls-9{fill:#9d3e3f;}.cls-10{clip-path:url(#clip-path-3);}.cls-11{clip-path:url(#clip-path-4);}.cls-12{clip-path:url(#clip-path-5);}</style><clipPath id="clip-path" transform="translate(362.88 33.28)"><polygon class="cls-1" points="1091.02 122.88 0 122.88 122.89 0 968.13 0 1091.02 122.88"/></clipPath><clipPath id="clip-path-2" transform="translate(362.88 33.28)"><rect class="cls-1" x="545.51" width="422.62" height="122.88"/></clipPath><clipPath id="clip-path-3" transform="translate(362.88 33.28)"><rect class="cls-1" x="968.13" width="422.62" height="122.88"/></clipPath><clipPath id="clip-path-4" transform="translate(362.88 33.28)"><rect class="cls-1" x="-299.74" width="422.62" height="122.88"/></clipPath><clipPath id="clip-path-5" transform="translate(362.88 33.28)"><rect class="cls-1" x="122.89" width="422.62" height="122.88"/></clipPath></defs><g id="图层_2" data-name="图层 2"><g id="文件图层"><g class="cls-2"><g class="cls-3"><polygon class="cls-4" points="1050.86 122.88 1065.15 99.84 1050.86 76.8 977.24 76.8 962.95 99.84 977.24 122.88 1050.86 122.88"/><polygon class="cls-5" points="1057.11 67.44 970.99 67.44 971.54 66.56 1056.56 66.56 1057.11 67.44"/><polygon class="cls-5" points="1057.11 132.24 1056.56 133.12 971.54 133.12 970.99 132.24 1057.11 132.24"/><polygon class="cls-6" points="1077.2 99.84 1057.11 132.24 970.99 132.24 950.9 99.84 970.99 67.44 1057.11 67.44 1077.2 99.84"/><polygon class="cls-4" points="1050.86 122.88 1065.15 99.84 1050.86 76.8 977.24 76.8 962.95 99.84 977.24 122.88 1050.86 122.88"/><polygon class="cls-7" points="1014.05 115.38 981.42 115.38 971.79 99.84 981.42 84.31 1014.05 84.31 1046.68 84.31 1056.31 99.84 1046.68 115.38 1014.05 115.38"/><polygon class="cls-5" points="1044.02 110.6 1050.69 99.84 1044.02 89.09 984.08 89.09 977.41 99.84 984.08 110.6 1044.02 110.6"/><circle class="cls-8" cx="1032.63" cy="99.84" r="8.47"/><path class="cls-9" d="M663.81,66.56a5.95,5.95,0,0,0,8.53,5.35,5.94,5.94,0,0,1,0-10.7,5.95,5.95,0,0,0-8.53,5.35Z" transform="translate(362.88 33.28)"/><ellipse class="cls-8" cx="1014.05" cy="94.35" rx="8.47" ry="5.27"/><path class="cls-9" d="M651.17,64.77c3.28,0,5.94-1.66,5.94-3.7a2.63,2.63,0,0,0-.6-1.61,7.88,7.88,0,0,1-10.69,0,2.63,2.63,0,0,0-.6,1.61C645.22,63.11,647.89,64.77,651.17,64.77Z" transform="translate(362.88 33.28)"/><ellipse class="cls-8" cx="1014.05" cy="105.33" rx="8.47" ry="5.27"/><path class="cls-9" d="M651.17,68.36c3.28,0,5.94,1.65,5.94,3.69a2.61,2.61,0,0,1-.6,1.61,7.88,7.88,0,0,0-10.69,0,2.61,2.61,0,0,1-.6-1.61C645.22,70,647.89,68.36,651.17,68.36Z" transform="translate(362.88 33.28)"/><circle class="cls-8" cx="995.47" cy="99.84" r="8.47"/><path class="cls-9" d="M638.52,66.56a5.94,5.94,0,0,1-5.94,5.94,5.86,5.86,0,0,1-2.58-.59,5.95,5.95,0,0,0,0-10.7,5.86,5.86,0,0,1,2.58-.59A5.94,5.94,0,0,1,638.52,66.56Z" transform="translate(362.88 33.28)"/><polygon class="cls-4" points="871.59 89.6 857.29 66.56 871.59 43.52 945.2 43.52 959.49 66.56 945.2 89.6 871.59 89.6"/><polygon class="cls-6" points="951.45 34.16 865.34 34.16 865.89 33.28 950.9 33.28 951.45 34.16"/><polygon class="cls-6" points="951.45 98.96 950.9 99.84 865.89 99.84 865.34 98.96 951.45 98.96"/><polygon class="cls-4" points="971.54 66.56 951.45 98.96 865.34 98.96 845.25 66.56 865.34 34.16 951.45 34.16 971.54 66.56"/><polygon class="cls-6" points="871.59 89.6 857.29 66.56 871.59 43.52 945.2 43.52 959.49 66.56 945.2 89.6 871.59 89.6"/><polygon class="cls-7" points="908.39 82.09 941.02 82.09 950.66 66.56 941.02 51.03 908.39 51.03 875.76 51.03 866.13 66.56 875.76 82.09 908.39 82.09"/><polygon class="cls-5" points="878.42 77.32 871.75 66.56 878.42 55.81 938.37 55.81 945.03 66.56 938.37 77.32 878.42 77.32"/><circle class="cls-8" cx="889.81" cy="66.56" r="8.47"/><path class="cls-9" d="M532.87,33.28a5.95,5.95,0,0,1-8.53,5.35,5.95,5.95,0,0,0,0-10.7,5.95,5.95,0,0,1,8.53,5.35Z" transform="translate(362.88 33.28)"/><ellipse class="cls-8" cx="908.39" cy="61.07" rx="8.47" ry="5.27"/><path class="cls-9" d="M545.51,31.48c-3.28,0-5.94-1.65-5.94-3.69a2.6,2.6,0,0,1,.59-1.61,7.89,7.89,0,0,0,10.7,0,2.6,2.6,0,0,1,.59,1.61C551.45,29.83,548.79,31.48,545.51,31.48Z" transform="translate(362.88 33.28)"/><ellipse class="cls-8" cx="908.39" cy="72.05" rx="8.47" ry="5.27"/><path class="cls-9" d="M545.51,35.08c-3.28,0-5.94,1.65-5.94,3.69a2.6,2.6,0,0,0,.59,1.61,7.89,7.89,0,0,1,10.7,0,2.6,2.6,0,0,0,.59-1.61C551.45,36.73,548.79,35.08,545.51,35.08Z" transform="translate(362.88 33.28)"/><circle class="cls-8" cx="926.98" cy="66.56" r="8.47"/><path class="cls-9" d="M558.15,33.28a5.95,5.95,0,0,0,8.53,5.35,5.95,5.95,0,0,1,0-10.7,5.95,5.95,0,0,0-8.53,5.35Z" transform="translate(362.88 33.28)"/><polygon class="cls-4" points="977.24 56.32 962.95 33.28 977.24 10.24 1050.86 10.24 1065.15 33.28 1050.86 56.32 977.24 56.32"/><polygon class="cls-6" points="1057.11 0.88 971 0.88 971.54 0 1056.56 0 1057.11 0.88"/><polygon class="cls-6" points="1057.11 65.68 1056.56 66.56 971.54 66.56 971 65.68 1057.11 65.68"/><polygon class="cls-4" points="1077.2 33.28 1057.11 65.68 971 65.68 950.9 33.28 971 0.88 1057.11 0.88 1077.2 33.28"/><polygon class="cls-6" points="977.24 56.32 962.95 33.28 977.24 10.24 1050.86 10.24 1065.15 33.28 1050.86 56.32 977.24 56.32"/><polygon class="cls-7" points="1014.05 48.81 1046.68 48.81 1056.31 33.28 1046.68 17.75 1014.05 17.75 981.42 17.75 971.79 33.28 981.42 48.81 1014.05 48.81"/><polygon class="cls-5" points="984.08 44.03 977.41 33.28 984.08 22.53 1044.02 22.53 1050.69 33.28 1044.02 44.03 984.08 44.03"/><circle class="cls-8" cx="995.47" cy="33.28" r="8.47"/><path class="cls-9" d="M638.51.42A6,6,0,0,1,633,5.93a6,6,0,0,1-3-.58A6,6,0,0,0,633.35,0,6,6,0,0,0,630-5.35a5.86,5.86,0,0,1,2.58-.59A5.94,5.94,0,0,1,638.51.42Z" transform="translate(362.88 33.28)"/><ellipse class="cls-8" cx="1014.05" cy="27.79" rx="8.47" ry="5.27"/><path class="cls-9" d="M651.17-1.8c-3.28,0-5.95-1.65-5.95-3.69a2.61,2.61,0,0,1,.6-1.61A6.84,6.84,0,0,0,651.17-5a6.84,6.84,0,0,0,5.34-2.09,2.61,2.61,0,0,1,.6,1.61C657.11-3.45,654.45-1.8,651.17-1.8Z" transform="translate(362.88 33.28)"/><ellipse class="cls-8" cx="1014.05" cy="38.77" rx="8.47" ry="5.27"/><path class="cls-9" d="M651.17,1.79c-3.28,0-5.95,1.66-5.95,3.7a2.63,2.63,0,0,0,.6,1.61,7.88,7.88,0,0,1,10.69,0,2.63,2.63,0,0,0,.6-1.61C657.11,3.45,654.45,1.79,651.17,1.79Z" transform="translate(362.88 33.28)"/><circle class="cls-8" cx="1032.63" cy="33.28" r="8.47"/><path class="cls-9" d="M663.82.42a6,6,0,0,0,5.55,5.51,6,6,0,0,0,3-.58A5.94,5.94,0,0,1,669,0a5.94,5.94,0,0,1,3.36-5.35,5.93,5.93,0,0,0-2.59-.59A5.94,5.94,0,0,0,663.82.42Z" transform="translate(362.88 33.28)"/><polygon class="cls-4" points="871.59 110.08 857.29 133.12 871.59 156.16 945.2 156.16 959.49 133.12 945.2 110.08 871.59 110.08"/><polygon class="cls-6" points="951.45 165.52 865.34 165.52 865.89 166.4 950.9 166.4 951.45 165.52"/><polygon class="cls-6" points="951.45 100.73 950.9 99.84 865.89 99.84 865.34 100.73 951.45 100.73"/><polygon class="cls-4" points="971.54 133.12 951.45 100.73 865.34 100.73 845.25 133.12 865.34 165.52 951.45 165.52 971.54 133.12"/><polygon class="cls-6" points="871.59 110.08 857.29 133.12 871.59 156.16 945.2 156.16 959.49 133.12 945.2 110.08 871.59 110.08"/><polygon class="cls-7" points="908.39 117.59 941.02 117.59 950.66 133.12 941.02 148.66 908.39 148.66 875.76 148.66 866.13 133.12 875.76 117.59 908.39 117.59"/><polygon class="cls-5" points="878.42 122.37 871.75 133.12 878.42 143.88 938.37 143.88 945.03 133.12 938.37 122.37 878.42 122.37"/><circle class="cls-8" cx="889.81" cy="133.12" r="8.47"/><path class="cls-9" d="M532.87,99.84a5.95,5.95,0,0,0-8.53-5.35,5.95,5.95,0,0,1,0,10.7,5.95,5.95,0,0,0,8.53-5.35Z" transform="translate(362.88 33.28)"/><ellipse class="cls-8" cx="908.39" cy="138.61" rx="8.47" ry="5.27"/><path class="cls-9" d="M545.51,101.64c-3.28,0-5.94,1.65-5.94,3.69a2.6,2.6,0,0,0,.59,1.61,7.89,7.89,0,0,1,10.7,0,2.6,2.6,0,0,0,.59-1.61C551.45,103.29,548.79,101.64,545.51,101.64Z" transform="translate(362.88 33.28)"/><ellipse class="cls-8" cx="908.39" cy="127.63" rx="8.47" ry="5.27"/><path class="cls-9" d="M545.51,98.05c-3.28,0-5.94-1.66-5.94-3.7a2.62,2.62,0,0,1,.59-1.61,7.89,7.89,0,0,0,10.7,0,2.62,2.62,0,0,1,.59,1.61C551.45,96.39,548.79,98.05,545.51,98.05Z" transform="translate(362.88 33.28)"/><circle class="cls-8" cx="926.98" cy="133.12" r="8.47"/><path class="cls-9" d="M558.15,99.84a5.95,5.95,0,0,1,8.53-5.35,5.95,5.95,0,0,0,0,10.7,5.95,5.95,0,0,1-8.53-5.35Z" transform="translate(362.88 33.28)"/><polygon class="cls-4" points="1156.52 89.6 1170.81 66.56 1156.52 43.52 1082.9 43.52 1068.61 66.56 1082.9 89.6 1156.52 89.6"/><polygon class="cls-6" points="1076.65 34.16 1162.76 34.16 1162.21 33.28 1077.2 33.28 1076.65 34.16"/><polygon class="cls-6" points="1076.65 98.96 1077.2 99.84 1162.21 99.84 1162.76 98.96 1076.65 98.96"/><polygon class="cls-4" points="1056.56 66.56 1076.65 98.96 1162.76 98.96 1182.85 66.56 1162.76 34.16 1076.65 34.16 1056.56 66.56"/><polygon class="cls-6" points="1156.52 89.6 1170.81 66.56 1156.52 43.52 1082.9 43.52 1068.61 66.56 1082.9 89.6 1156.52 89.6"/><polygon class="cls-7" points="1119.71 82.09 1087.08 82.09 1077.44 66.56 1087.08 51.03 1119.71 51.03 1152.34 51.03 1161.97 66.56 1152.34 82.09 1119.71 82.09"/><polygon class="cls-5" points="1149.68 77.32 1156.35 66.56 1149.68 55.81 1089.73 55.81 1083.07 66.56 1089.73 77.32 1149.68 77.32"/><circle class="cls-8" cx="1138.29" cy="66.56" r="8.47"/><path class="cls-9" d="M769.46,33.28A5.95,5.95,0,0,0,778,38.63a5.95,5.95,0,0,1,0-10.7,5.95,5.95,0,0,0-8.53,5.35Z" transform="translate(362.88 33.28)"/><ellipse class="cls-8" cx="1119.71" cy="61.07" rx="8.47" ry="5.27"/><path class="cls-9" d="M756.82,31.48c3.28,0,5.94-1.65,5.94-3.69a2.6,2.6,0,0,0-.59-1.61,7.89,7.89,0,0,1-10.7,0,2.6,2.6,0,0,0-.59,1.61C750.88,29.83,753.54,31.48,756.82,31.48Z" transform="translate(362.88 33.28)"/><ellipse class="cls-8" cx="1119.71" cy="72.05" rx="8.47" ry="5.27"/><path class="cls-9" d="M756.82,35.08c3.28,0,5.94,1.65,5.94,3.69a2.6,2.6,0,0,1-.59,1.61,7.89,7.89,0,0,0-10.7,0,2.6,2.6,0,0,1-.59-1.61C750.88,36.73,753.54,35.08,756.82,35.08Z" transform="translate(362.88 33.28)"/><circle class="cls-8" cx="1101.12" cy="66.56" r="8.47"/><path class="cls-9" d="M744.18,33.28a5.95,5.95,0,0,1-8.53,5.35,5.95,5.95,0,0,0,0-10.7,5.95,5.95,0,0,1,8.53,5.35Z" transform="translate(362.88 33.28)"/><polygon class="cls-4" points="1156.52 110.08 1170.81 133.12 1156.52 156.16 1082.9 156.16 1068.61 133.12 1082.9 110.08 1156.52 110.08"/><polygon class="cls-6" points="1076.65 165.52 1162.76 165.52 1162.21 166.4 1077.2 166.4 1076.65 165.52"/><polygon class="cls-6" points="1076.65 100.73 1077.2 99.84 1162.21 99.84 1162.76 100.73 1076.65 100.73"/><polygon class="cls-4" points="1056.56 133.12 1076.65 100.73 1162.76 100.73 1182.85 133.12 1162.76 165.52 1076.65 165.52 1056.56 133.12"/><polygon class="cls-6" points="1156.52 110.08 1170.81 133.12 1156.52 156.16 1082.9 156.16 1068.61 133.12 1082.9 110.08 1156.52 110.08"/><polygon class="cls-7" points="1119.71 117.59 1087.08 117.59 1077.44 133.12 1087.08 148.66 1119.71 148.66 1152.34 148.66 1161.97 133.12 1152.34 117.59 1119.71 117.59"/><polygon class="cls-5" points="1149.68 122.37 1156.35 133.12 1149.68 143.88 1089.73 143.88 1083.07 133.12 1089.73 122.37 1149.68 122.37"/><circle class="cls-8" cx="1138.29" cy="133.12" r="8.47"/><path class="cls-9" d="M769.46,99.84A5.95,5.95,0,0,1,778,94.49a5.95,5.95,0,0,0,0,10.7,5.95,5.95,0,0,1-8.53-5.35Z" transform="translate(362.88 33.28)"/><ellipse class="cls-8" cx="1119.71" cy="138.61" rx="8.47" ry="5.27"/><path class="cls-9" d="M756.82,101.64c3.28,0,5.94,1.65,5.94,3.69a2.6,2.6,0,0,1-.59,1.61,7.89,7.89,0,0,0-10.7,0,2.6,2.6,0,0,1-.59-1.61C750.88,103.29,753.54,101.64,756.82,101.64Z" transform="translate(362.88 33.28)"/><ellipse class="cls-8" cx="1119.71" cy="127.63" rx="8.47" ry="5.27"/><path class="cls-9" d="M756.82,98.05c3.28,0,5.94-1.66,5.94-3.7a2.62,2.62,0,0,0-.59-1.61,7.89,7.89,0,0,1-10.7,0,2.62,2.62,0,0,0-.59,1.61C750.88,96.39,753.54,98.05,756.82,98.05Z" transform="translate(362.88 33.28)"/><circle class="cls-8" cx="1101.12" cy="133.12" r="8.47"/><path class="cls-9" d="M744.18,99.84a5.95,5.95,0,0,0-8.53-5.35,5.95,5.95,0,0,1,0,10.7,5.95,5.95,0,0,0,8.53-5.35Z" transform="translate(362.88 33.28)"/><polygon class="cls-4" points="977.24 143.36 962.95 166.4 977.24 189.45 1050.86 189.45 1065.15 166.4 1050.86 143.36 977.24 143.36"/><polygon class="cls-6" points="1057.11 198.8 970.99 198.8 971.54 199.69 1056.56 199.69 1057.11 198.8"/><polygon class="cls-6" points="1057.11 134.01 1056.56 133.12 971.54 133.12 970.99 134.01 1057.11 134.01"/><polygon class="cls-4" points="1077.2 166.4 1057.11 134.01 970.99 134.01 950.9 166.4 970.99 198.8 1057.11 198.8 1077.2 166.4"/><polygon class="cls-6" points="977.24 143.36 962.95 166.4 977.24 189.45 1050.86 189.45 1065.15 166.4 1050.86 143.36 977.24 143.36"/><polygon class="cls-7" points="1014.05 150.87 1046.68 150.87 1056.31 166.4 1046.68 181.94 1014.05 181.94 981.42 181.94 971.79 166.4 981.42 150.87 1014.05 150.87"/><polygon class="cls-5" points="984.08 155.65 977.41 166.4 984.08 177.16 1044.02 177.16 1050.69 166.4 1044.02 155.65 984.08 155.65"/><circle class="cls-8" cx="995.47" cy="166.4" r="8.47"/><path class="cls-9" d="M638.51,132.7a5.95,5.95,0,0,0-8.52-4.93,5.94,5.94,0,0,1,0,10.7,6,6,0,0,0,8.52-5.77Z" transform="translate(362.88 33.28)"/><ellipse class="cls-8" cx="1014.05" cy="171.89" rx="8.47" ry="5.27"/><path class="cls-9" d="M651.17,134.92c-3.28,0-5.95,1.65-5.95,3.69a2.61,2.61,0,0,0,.6,1.61,7.91,7.91,0,0,1,10.69,0,2.61,2.61,0,0,0,.6-1.61C657.11,136.57,654.44,134.92,651.17,134.92Z" transform="translate(362.88 33.28)"/><ellipse class="cls-8" cx="1014.05" cy="160.92" rx="8.47" ry="5.27"/><path class="cls-9" d="M651.17,131.33c-3.28,0-5.95-1.66-5.95-3.7a2.58,2.58,0,0,1,.6-1.6,7.91,7.91,0,0,0,10.69,0,2.58,2.58,0,0,1,.6,1.6C657.11,129.67,654.44,131.33,651.17,131.33Z" transform="translate(362.88 33.28)"/><circle class="cls-8" cx="1032.63" cy="166.4" r="8.47"/><path class="cls-9" d="M663.82,132.7a5.95,5.95,0,0,1,8.52-4.93,5.94,5.94,0,0,0,0,10.7,6,6,0,0,1-8.52-5.77Z" transform="translate(362.88 33.28)"/><polygon class="cls-4" points="1262.17 122.89 1276.46 99.84 1262.17 76.8 1188.55 76.8 1174.26 99.84 1188.55 122.89 1262.17 122.89"/><polygon class="cls-5" points="1268.42 67.44 1182.31 67.44 1182.86 66.56 1267.87 66.56 1268.42 67.44"/><polygon class="cls-5" points="1268.42 132.24 1267.87 133.12 1182.86 133.12 1182.31 132.24 1268.42 132.24"/><polygon class="cls-6" points="1288.51 99.84 1268.42 132.24 1182.31 132.24 1162.21 99.84 1182.31 67.44 1268.42 67.44 1288.51 99.84"/><polygon class="cls-4" points="1262.17 122.89 1276.46 99.84 1262.17 76.8 1188.55 76.8 1174.26 99.84 1188.55 122.89 1262.17 122.89"/><polygon class="cls-7" points="1225.36 115.38 1192.73 115.38 1183.1 99.84 1192.73 84.31 1225.36 84.31 1257.99 84.31 1267.63 99.84 1257.99 115.38 1225.36 115.38"/><polygon class="cls-5" points="1255.33 110.6 1262 99.84 1255.33 89.09 1195.39 89.09 1188.72 99.84 1195.39 110.6 1255.33 110.6"/><circle class="cls-8" cx="1243.94" cy="99.84" r="8.47"/><path class="cls-9" d="M875.12,66.56a5.95,5.95,0,0,0,8.53,5.35,5.95,5.95,0,0,1,0-10.7,5.95,5.95,0,0,0-8.53,5.35Z" transform="translate(362.88 33.28)"/><ellipse class="cls-8" cx="1225.36" cy="94.35" rx="8.47" ry="5.27"/><path class="cls-9" d="M862.48,64.77c3.28,0,5.94-1.66,5.94-3.7a2.62,2.62,0,0,0-.59-1.61,7.89,7.89,0,0,1-10.7,0,2.62,2.62,0,0,0-.59,1.61C856.54,63.11,859.2,64.77,862.48,64.77Z" transform="translate(362.88 33.28)"/><ellipse class="cls-8" cx="1225.36" cy="105.33" rx="8.47" ry="5.27"/><path class="cls-9" d="M862.48,68.36c3.28,0,5.94,1.65,5.94,3.69a2.6,2.6,0,0,1-.59,1.61,7.89,7.89,0,0,0-10.7,0,2.6,2.6,0,0,1-.59-1.61C856.54,70,859.2,68.36,862.48,68.36Z" transform="translate(362.88 33.28)"/><circle class="cls-8" cx="1206.78" cy="99.84" r="8.47"/><path class="cls-9" d="M849.83,66.56a5.94,5.94,0,0,1-8.52,5.35,5.95,5.95,0,0,0,0-10.7,5.94,5.94,0,0,1,8.52,5.35Z" transform="translate(362.88 33.28)"/><polygon class="cls-4" points="1188.55 56.32 1174.26 33.28 1188.55 10.24 1262.17 10.24 1276.46 33.28 1262.17 56.32 1188.55 56.32"/><polygon class="cls-6" points="1268.42 0.89 1182.31 0.89 1182.85 0 1267.87 0 1268.42 0.89"/><polygon class="cls-6" points="1268.42 65.68 1267.87 66.56 1182.85 66.56 1182.31 65.68 1268.42 65.68"/><polygon class="cls-4" points="1288.51 33.28 1268.42 65.68 1182.31 65.68 1162.22 33.28 1182.31 0.89 1268.42 0.89 1288.51 33.28"/><polygon class="cls-6" points="1188.55 56.32 1174.26 33.28 1188.55 10.24 1262.17 10.24 1276.46 33.28 1262.17 56.32 1188.55 56.32"/><polygon class="cls-7" points="1225.36 48.81 1257.99 48.81 1267.63 33.28 1257.99 17.75 1225.36 17.75 1192.73 17.75 1183.1 33.28 1192.73 48.81 1225.36 48.81"/><polygon class="cls-5" points="1195.39 44.04 1188.72 33.28 1195.39 22.53 1255.33 22.53 1262 33.28 1255.33 44.04 1195.39 44.04"/><circle class="cls-8" cx="1206.78" cy="33.28" r="8.47"/><path class="cls-9" d="M849.82.43a6,6,0,0,1-5.54,5.5,5.91,5.91,0,0,1-3-.58A6,6,0,0,0,844.66,0a6,6,0,0,0-3.35-5.35,5.89,5.89,0,0,1,2.58-.59A5.94,5.94,0,0,1,849.82.43Z" transform="translate(362.88 33.28)"/><ellipse class="cls-8" cx="1225.36" cy="27.79" rx="8.47" ry="5.27"/><path class="cls-9" d="M862.48-1.8c-3.28,0-5.94-1.65-5.94-3.69a2.6,2.6,0,0,1,.59-1.61A6.84,6.84,0,0,0,862.48-5a6.86,6.86,0,0,0,5.35-2.09,2.6,2.6,0,0,1,.59,1.61C868.42-3.45,865.76-1.8,862.48-1.8Z" transform="translate(362.88 33.28)"/><ellipse class="cls-8" cx="1225.36" cy="38.77" rx="8.47" ry="5.27"/><path class="cls-9" d="M862.48,1.8c-3.28,0-5.94,1.65-5.94,3.69a2.6,2.6,0,0,0,.59,1.61,7.89,7.89,0,0,1,10.7,0,2.6,2.6,0,0,0,.59-1.61C868.42,3.45,865.76,1.8,862.48,1.8Z" transform="translate(362.88 33.28)"/><circle class="cls-8" cx="1243.95" cy="33.28" r="8.47"/><path class="cls-9" d="M875.14.43a6,6,0,0,0,5.54,5.5,5.91,5.91,0,0,0,3-.58A5.93,5.93,0,0,1,880.3,0a5.93,5.93,0,0,1,3.35-5.35,5.9,5.9,0,0,0-2.59-.59A5.93,5.93,0,0,0,875.14.43Z" transform="translate(362.88 33.28)"/><polygon class="cls-4" points="1188.55 143.36 1174.26 166.41 1188.55 189.45 1262.17 189.45 1276.46 166.41 1262.17 143.36 1188.55 143.36"/><polygon class="cls-6" points="1268.42 198.8 1182.31 198.8 1182.85 199.69 1267.87 199.69 1268.42 198.8"/><polygon class="cls-6" points="1268.42 134.01 1267.87 133.12 1182.85 133.12 1182.31 134.01 1268.42 134.01"/><polygon class="cls-4" points="1288.51 166.41 1268.42 134.01 1182.31 134.01 1162.21 166.41 1182.31 198.8 1268.42 198.8 1288.51 166.41"/><polygon class="cls-6" points="1188.55 143.36 1174.26 166.41 1188.55 189.45 1262.17 189.45 1276.46 166.41 1262.17 143.36 1188.55 143.36"/><polygon class="cls-7" points="1225.36 150.87 1257.99 150.87 1267.63 166.41 1257.99 181.94 1225.36 181.94 1192.73 181.94 1183.1 166.41 1192.73 150.87 1225.36 150.87"/><polygon class="cls-5" points="1195.39 155.65 1188.72 166.41 1195.39 177.16 1255.33 177.16 1262 166.41 1255.33 155.65 1195.39 155.65"/><circle class="cls-8" cx="1206.78" cy="166.4" r="8.47"/><path class="cls-9" d="M849.82,132.7a5.94,5.94,0,0,0-8.51-4.93,5.95,5.95,0,0,1,0,10.7,5.94,5.94,0,0,0,8.51-5.77Z" transform="translate(362.88 33.28)"/><ellipse class="cls-8" cx="1225.36" cy="171.89" rx="8.47" ry="5.27"/><path class="cls-9" d="M862.48,134.92c-3.28,0-5.94,1.65-5.94,3.69a2.6,2.6,0,0,0,.59,1.61,7.92,7.92,0,0,1,10.7,0,2.6,2.6,0,0,0,.59-1.61C868.42,136.57,865.76,134.92,862.48,134.92Z" transform="translate(362.88 33.28)"/><ellipse class="cls-8" cx="1225.36" cy="160.92" rx="8.47" ry="5.27"/><path class="cls-9" d="M862.48,131.33c-3.28,0-5.94-1.66-5.94-3.7a2.57,2.57,0,0,1,.59-1.6,7.92,7.92,0,0,0,10.7,0,2.57,2.57,0,0,1,.59,1.6C868.42,129.67,865.76,131.33,862.48,131.33Z" transform="translate(362.88 33.28)"/><circle class="cls-8" cx="1243.94" cy="166.4" r="8.47"/><path class="cls-9" d="M875.13,132.7a5.95,5.95,0,0,1,8.52-4.93,5.94,5.94,0,0,0,0,10.7,6,6,0,0,1-8.52-5.77Z" transform="translate(362.88 33.28)"/><polygon class="cls-4" points="1294.21 89.6 1279.92 66.56 1294.21 43.52 1367.83 43.52 1382.12 66.56 1367.83 89.6 1294.21 89.6"/><polygon class="cls-6" points="1374.08 34.16 1287.96 34.16 1288.51 33.28 1373.53 33.28 1374.08 34.16"/><polygon class="cls-6" points="1374.08 98.96 1373.53 99.84 1288.51 99.84 1287.96 98.96 1374.08 98.96"/><polygon class="cls-4" points="1394.16 66.56 1374.08 98.96 1287.96 98.96 1267.87 66.56 1287.96 34.16 1374.08 34.16 1394.16 66.56"/><polygon class="cls-6" points="1294.21 89.6 1279.92 66.56 1294.21 43.52 1367.83 43.52 1382.12 66.56 1367.83 89.6 1294.21 89.6"/><polygon class="cls-7" points="1331.02 82.09 1363.65 82.09 1373.28 66.56 1363.65 51.03 1331.02 51.03 1298.39 51.03 1288.75 66.56 1298.39 82.09 1331.02 82.09"/><polygon class="cls-5" points="1301.05 77.32 1294.38 66.56 1301.05 55.81 1360.99 55.81 1367.66 66.56 1360.99 77.32 1301.05 77.32"/><circle class="cls-8" cx="1312.43" cy="66.56" r="8.47"/><path class="cls-9" d="M955.49,33.28A5.95,5.95,0,0,1,947,38.63a5.95,5.95,0,0,0,0-10.7,5.95,5.95,0,0,1,8.53,5.35Z" transform="translate(362.88 33.28)"/><ellipse class="cls-8" cx="1331.02" cy="61.07" rx="8.47" ry="5.27"/><path class="cls-9" d="M968.13,31.48c-3.28,0-5.94-1.65-5.94-3.69a2.6,2.6,0,0,1,.59-1.61,7.89,7.89,0,0,0,10.7,0,2.6,2.6,0,0,1,.59,1.61C974.07,29.83,971.41,31.48,968.13,31.48Z" transform="translate(362.88 33.28)"/><ellipse class="cls-8" cx="1331.02" cy="72.05" rx="8.47" ry="5.27"/><path class="cls-9" d="M968.13,35.08c-3.28,0-5.94,1.65-5.94,3.69a2.6,2.6,0,0,0,.59,1.61,7.89,7.89,0,0,1,10.7,0,2.6,2.6,0,0,0,.59-1.61C974.07,36.73,971.41,35.08,968.13,35.08Z" transform="translate(362.88 33.28)"/><circle class="cls-8" cx="1349.6" cy="66.56" r="8.47"/><path class="cls-9" d="M980.77,33.28a5.95,5.95,0,0,0,8.53,5.35,5.95,5.95,0,0,1,0-10.7,5.95,5.95,0,0,0-8.53,5.35Z" transform="translate(362.88 33.28)"/><polygon class="cls-4" points="1294.21 110.08 1279.92 133.12 1294.21 156.16 1367.83 156.16 1382.12 133.12 1367.83 110.08 1294.21 110.08"/><polygon class="cls-6" points="1374.08 165.52 1287.96 165.52 1288.51 166.4 1373.53 166.4 1374.08 165.52"/><polygon class="cls-6" points="1374.08 100.73 1373.53 99.84 1288.51 99.84 1287.96 100.73 1374.08 100.73"/><polygon class="cls-4" points="1394.16 133.12 1374.08 100.73 1287.96 100.73 1267.87 133.12 1287.96 165.52 1374.08 165.52 1394.16 133.12"/><polygon class="cls-6" points="1294.21 110.08 1279.92 133.12 1294.21 156.16 1367.83 156.16 1382.12 133.12 1367.83 110.08 1294.21 110.08"/><polygon class="cls-7" points="1331.02 117.59 1363.65 117.59 1373.28 133.12 1363.65 148.66 1331.02 148.66 1298.39 148.66 1288.75 133.12 1298.39 117.59 1331.02 117.59"/><polygon class="cls-5" points="1301.05 122.37 1294.38 133.12 1301.05 143.88 1360.99 143.88 1367.66 133.12 1360.99 122.37 1301.05 122.37"/><circle class="cls-8" cx="1312.43" cy="133.12" r="8.47"/><path class="cls-9" d="M955.49,99.84A5.95,5.95,0,0,0,947,94.49a5.95,5.95,0,0,1,0,10.7,5.95,5.95,0,0,0,8.53-5.35Z" transform="translate(362.88 33.28)"/><ellipse class="cls-8" cx="1331.02" cy="138.61" rx="8.47" ry="5.27"/><path class="cls-9" d="M968.13,101.64c-3.28,0-5.94,1.65-5.94,3.69a2.6,2.6,0,0,0,.59,1.61,7.89,7.89,0,0,1,10.7,0,2.6,2.6,0,0,0,.59-1.61C974.07,103.29,971.41,101.64,968.13,101.64Z" transform="translate(362.88 33.28)"/><ellipse class="cls-8" cx="1331.02" cy="127.63" rx="8.47" ry="5.27"/><path class="cls-9" d="M968.13,98.05c-3.28,0-5.94-1.66-5.94-3.7a2.62,2.62,0,0,1,.59-1.61,7.89,7.89,0,0,0,10.7,0,2.62,2.62,0,0,1,.59,1.61C974.07,96.39,971.41,98.05,968.13,98.05Z" transform="translate(362.88 33.28)"/><circle class="cls-8" cx="1349.6" cy="133.12" r="8.47"/><path class="cls-9" d="M980.77,99.84a5.95,5.95,0,0,1,8.53-5.35,5.95,5.95,0,0,0,0,10.7,5.95,5.95,0,0,1-8.53-5.35Z" transform="translate(362.88 33.28)"/></g><g class="cls-10"><polygon class="cls-4" points="1473.48 122.88 1487.77 99.84 1473.48 76.8 1399.86 76.8 1385.58 99.84 1399.86 122.88 1473.48 122.88"/><polygon class="cls-5" points="1479.73 67.44 1393.62 67.44 1394.17 66.56 1479.18 66.56 1479.73 67.44"/><polygon class="cls-5" points="1479.73 132.24 1479.18 133.12 1394.17 133.12 1393.62 132.24 1479.73 132.24"/><polygon class="cls-6" points="1499.82 99.84 1479.73 132.24 1393.62 132.24 1373.53 99.84 1393.62 67.44 1479.73 67.44 1499.82 99.84"/><polygon class="cls-4" points="1473.48 122.88 1487.77 99.84 1473.48 76.8 1399.86 76.8 1385.58 99.84 1399.86 122.88 1473.48 122.88"/><polygon class="cls-7" points="1436.67 115.38 1404.04 115.38 1394.41 99.84 1404.04 84.31 1436.67 84.31 1469.3 84.31 1478.94 99.84 1469.3 115.38 1436.67 115.38"/><polygon class="cls-5" points="1466.64 110.6 1473.31 99.84 1466.64 89.09 1406.7 89.09 1400.03 99.84 1406.7 110.6 1466.64 110.6"/><circle class="cls-8" cx="1455.26" cy="99.84" r="8.47"/><path class="cls-9" d="M1086.43,66.56a5.95,5.95,0,0,0,8.53,5.35,5.95,5.95,0,0,1,0-10.7,5.95,5.95,0,0,0-8.53,5.35Z" transform="translate(362.88 33.28)"/><ellipse class="cls-8" cx="1436.67" cy="94.35" rx="8.47" ry="5.27"/><path class="cls-9" d="M1073.79,64.77c3.28,0,5.94-1.66,5.94-3.7a2.62,2.62,0,0,0-.59-1.61,7.89,7.89,0,0,1-10.7,0,2.62,2.62,0,0,0-.59,1.61C1067.85,63.11,1070.51,64.77,1073.79,64.77Z" transform="translate(362.88 33.28)"/><ellipse class="cls-8" cx="1436.67" cy="105.33" rx="8.47" ry="5.27"/><path class="cls-9" d="M1073.79,68.36c3.28,0,5.94,1.65,5.94,3.69a2.6,2.6,0,0,1-.59,1.61,7.89,7.89,0,0,0-10.7,0,2.6,2.6,0,0,1-.59-1.61C1067.85,70,1070.51,68.36,1073.79,68.36Z" transform="translate(362.88 33.28)"/><circle class="cls-8" cx="1418.09" cy="99.84" r="8.47"/><path class="cls-9" d="M1061.15,66.56a5.95,5.95,0,0,1-8.53,5.35,5.95,5.95,0,0,0,0-10.7,5.95,5.95,0,0,1,8.53,5.35Z" transform="translate(362.88 33.28)"/><polygon class="cls-4" points="1294.21 89.6 1279.92 66.56 1294.21 43.52 1367.83 43.52 1382.12 66.56 1367.83 89.6 1294.21 89.6"/><polygon class="cls-6" points="1374.08 34.16 1287.96 34.16 1288.51 33.28 1373.53 33.28 1374.08 34.16"/><polygon class="cls-6" points="1374.08 98.96 1373.53 99.84 1288.51 99.84 1287.96 98.96 1374.08 98.96"/><polygon class="cls-4" points="1394.16 66.56 1374.08 98.96 1287.96 98.96 1267.87 66.56 1287.96 34.16 1374.08 34.16 1394.16 66.56"/><polygon class="cls-6" points="1294.21 89.6 1279.92 66.56 1294.21 43.52 1367.83 43.52 1382.12 66.56 1367.83 89.6 1294.21 89.6"/><polygon class="cls-7" points="1331.02 82.09 1363.65 82.09 1373.28 66.56 1363.65 51.03 1331.02 51.03 1298.39 51.03 1288.76 66.56 1298.39 82.09 1331.02 82.09"/><polygon class="cls-5" points="1301.05 77.32 1294.38 66.56 1301.05 55.81 1360.99 55.81 1367.66 66.56 1360.99 77.32 1301.05 77.32"/><circle class="cls-8" cx="1312.43" cy="66.56" r="8.47"/><path class="cls-9" d="M955.49,33.28A5.95,5.95,0,0,1,947,38.63a5.94,5.94,0,0,0,0-10.7,5.95,5.95,0,0,1,8.53,5.35Z" transform="translate(362.88 33.28)"/><ellipse class="cls-8" cx="1331.02" cy="61.07" rx="8.47" ry="5.27"/><path class="cls-9" d="M968.13,31.48c-3.28,0-5.94-1.65-5.94-3.69a2.6,2.6,0,0,1,.59-1.61,7.89,7.89,0,0,0,10.7,0,2.6,2.6,0,0,1,.59,1.61C974.07,29.83,971.41,31.48,968.13,31.48Z" transform="translate(362.88 33.28)"/><ellipse class="cls-8" cx="1331.02" cy="72.05" rx="8.47" ry="5.27"/><path class="cls-9" d="M968.13,35.08c-3.28,0-5.94,1.65-5.94,3.69a2.6,2.6,0,0,0,.59,1.61,7.89,7.89,0,0,1,10.7,0,2.6,2.6,0,0,0,.59-1.61C974.07,36.73,971.41,35.08,968.13,35.08Z" transform="translate(362.88 33.28)"/><circle class="cls-8" cx="1349.6" cy="66.56" r="8.47"/><path class="cls-9" d="M980.78,33.28a5.94,5.94,0,0,0,8.52,5.35,5.95,5.95,0,0,1,0-10.7,5.94,5.94,0,0,0-8.52,5.35Z" transform="translate(362.88 33.28)"/><polygon class="cls-4" points="1399.87 56.32 1385.58 33.28 1399.87 10.24 1473.48 10.24 1487.77 33.28 1473.48 56.32 1399.87 56.32"/><polygon class="cls-6" points="1479.73 0.88 1393.62 0.88 1394.17 0 1479.18 0 1479.73 0.88"/><polygon class="cls-6" points="1479.73 65.68 1479.18 66.56 1394.17 66.56 1393.62 65.68 1479.73 65.68"/><polygon class="cls-4" points="1499.82 33.28 1479.73 65.68 1393.62 65.68 1373.53 33.28 1393.62 0.88 1479.73 0.88 1499.82 33.28"/><polygon class="cls-6" points="1399.87 56.32 1385.58 33.28 1399.87 10.24 1473.48 10.24 1487.77 33.28 1473.48 56.32 1399.87 56.32"/><polygon class="cls-7" points="1436.67 48.81 1469.31 48.81 1478.94 33.28 1469.31 17.75 1436.67 17.75 1404.04 17.75 1394.41 33.28 1404.04 48.81 1436.67 48.81"/><polygon class="cls-5" points="1406.7 44.03 1400.03 33.28 1406.7 22.53 1466.64 22.53 1473.32 33.28 1466.64 44.03 1406.7 44.03"/><circle class="cls-8" cx="1418.09" cy="33.28" r="8.47"/><path class="cls-9" d="M1061.13.42a6,6,0,0,1-5.54,5.51,6,6,0,0,1-3-.58A6,6,0,0,0,1056,0a6,6,0,0,0-3.35-5.35,5.9,5.9,0,0,1,2.59-.59A5.94,5.94,0,0,1,1061.13.42Z" transform="translate(362.88 33.28)"/><ellipse class="cls-8" cx="1436.67" cy="27.79" rx="8.47" ry="5.27"/><path class="cls-9" d="M1073.79-1.8c-3.28,0-5.94-1.65-5.94-3.69a2.6,2.6,0,0,1,.59-1.61A6.86,6.86,0,0,0,1073.79-5a6.86,6.86,0,0,0,5.35-2.09,2.6,2.6,0,0,1,.59,1.61C1079.73-3.45,1077.07-1.8,1073.79-1.8Z" transform="translate(362.88 33.28)"/><ellipse class="cls-8" cx="1436.67" cy="38.77" rx="8.47" ry="5.27"/><path class="cls-9" d="M1073.79,1.79c-3.28,0-5.94,1.66-5.94,3.7a2.62,2.62,0,0,0,.59,1.61,7.89,7.89,0,0,1,10.7,0,2.62,2.62,0,0,0,.59-1.61C1079.73,3.45,1077.07,1.79,1073.79,1.79Z" transform="translate(362.88 33.28)"/><circle class="cls-8" cx="1455.26" cy="33.28" r="8.47"/><path class="cls-9" d="M1086.45.42A6,6,0,0,0,1092,5.93a6,6,0,0,0,3-.58A6,6,0,0,1,1091.61,0,6,6,0,0,1,1095-5.35a5.9,5.9,0,0,0-2.59-.59A5.94,5.94,0,0,0,1086.45.42Z" transform="translate(362.88 33.28)"/><polygon class="cls-4" points="1294.21 110.08 1279.92 133.12 1294.21 156.16 1367.83 156.16 1382.12 133.12 1367.83 110.08 1294.21 110.08"/><polygon class="cls-6" points="1374.08 165.52 1287.96 165.52 1288.51 166.4 1373.53 166.4 1374.08 165.52"/><polygon class="cls-6" points="1374.08 100.73 1373.53 99.84 1288.51 99.84 1287.96 100.73 1374.08 100.73"/><polygon class="cls-4" points="1394.16 133.12 1374.08 100.73 1287.96 100.73 1267.87 133.12 1287.96 165.52 1374.08 165.52 1394.16 133.12"/><polygon class="cls-6" points="1294.21 110.08 1279.92 133.12 1294.21 156.16 1367.83 156.16 1382.12 133.12 1367.83 110.08 1294.21 110.08"/><polygon class="cls-7" points="1331.02 117.59 1363.65 117.59 1373.28 133.12 1363.65 148.66 1331.02 148.66 1298.39 148.66 1288.76 133.12 1298.39 117.59 1331.02 117.59"/><polygon class="cls-5" points="1301.05 122.37 1294.38 133.12 1301.05 143.88 1360.99 143.88 1367.66 133.12 1360.99 122.37 1301.05 122.37"/><circle class="cls-8" cx="1312.43" cy="133.12" r="8.47"/><path class="cls-9" d="M955.49,99.84A5.95,5.95,0,0,0,947,94.49a5.94,5.94,0,0,1,0,10.7,5.95,5.95,0,0,0,8.53-5.35Z" transform="translate(362.88 33.28)"/><ellipse class="cls-8" cx="1331.02" cy="138.61" rx="8.47" ry="5.27"/><path class="cls-9" d="M968.13,101.64c-3.28,0-5.94,1.65-5.94,3.69a2.6,2.6,0,0,0,.59,1.61,7.89,7.89,0,0,1,10.7,0,2.6,2.6,0,0,0,.59-1.61C974.07,103.29,971.41,101.64,968.13,101.64Z" transform="translate(362.88 33.28)"/><ellipse class="cls-8" cx="1331.02" cy="127.63" rx="8.47" ry="5.27"/><path class="cls-9" d="M968.13,98.05c-3.28,0-5.94-1.66-5.94-3.7a2.62,2.62,0,0,1,.59-1.61,7.89,7.89,0,0,0,10.7,0,2.62,2.62,0,0,1,.59,1.61C974.07,96.39,971.41,98.05,968.13,98.05Z" transform="translate(362.88 33.28)"/><circle class="cls-8" cx="1349.6" cy="133.12" r="8.47"/><path class="cls-9" d="M980.78,99.84a5.94,5.94,0,0,1,8.52-5.35,5.95,5.95,0,0,0,0,10.7,5.94,5.94,0,0,1-8.52-5.35Z" transform="translate(362.88 33.28)"/><polygon class="cls-4" points="1579.14 89.6 1593.43 66.56 1579.14 43.52 1505.52 43.52 1491.23 66.56 1505.52 89.6 1579.14 89.6"/><polygon class="cls-6" points="1499.27 34.16 1585.38 34.16 1584.84 33.28 1499.82 33.28 1499.27 34.16"/><polygon class="cls-6" points="1499.27 98.96 1499.82 99.84 1584.84 99.84 1585.38 98.96 1499.27 98.96"/><polygon class="cls-4" points="1479.18 66.56 1499.27 98.96 1585.38 98.96 1605.48 66.56 1585.38 34.16 1499.27 34.16 1479.18 66.56"/><polygon class="cls-6" points="1579.14 89.6 1593.43 66.56 1579.14 43.52 1505.52 43.52 1491.23 66.56 1505.52 89.6 1579.14 89.6"/><polygon class="cls-7" points="1542.33 82.09 1509.7 82.09 1500.07 66.56 1509.7 51.03 1542.33 51.03 1574.96 51.03 1584.59 66.56 1574.96 82.09 1542.33 82.09"/><polygon class="cls-5" points="1572.3 77.32 1578.97 66.56 1572.3 55.81 1512.36 55.81 1505.69 66.56 1512.36 77.32 1572.3 77.32"/><circle class="cls-8" cx="1560.91" cy="66.56" r="8.47"/><path class="cls-9" d="M1192.09,33.28a5.94,5.94,0,0,0,5.94,5.94,5.86,5.86,0,0,0,2.58-.59,5.95,5.95,0,0,1,0-10.7,5.86,5.86,0,0,0-2.58-.59A5.94,5.94,0,0,0,1192.09,33.28Z" transform="translate(362.88 33.28)"/><ellipse class="cls-8" cx="1542.33" cy="61.07" rx="8.47" ry="5.27"/><path class="cls-9" d="M1179.44,31.48c3.28,0,6-1.65,6-3.69a2.61,2.61,0,0,0-.6-1.61,7.88,7.88,0,0,1-10.69,0,2.61,2.61,0,0,0-.6,1.61C1173.5,29.83,1176.16,31.48,1179.44,31.48Z" transform="translate(362.88 33.28)"/><ellipse class="cls-8" cx="1542.33" cy="72.05" rx="8.47" ry="5.27"/><path class="cls-9" d="M1179.44,35.08c3.28,0,6,1.65,6,3.69a2.61,2.61,0,0,1-.6,1.61,7.88,7.88,0,0,0-10.69,0,2.61,2.61,0,0,1-.6-1.61C1173.5,36.73,1176.16,35.08,1179.44,35.08Z" transform="translate(362.88 33.28)"/><circle class="cls-8" cx="1523.75" cy="66.56" r="8.47"/><path class="cls-9" d="M1166.8,33.28a5.95,5.95,0,0,1-8.53,5.35,5.94,5.94,0,0,0,0-10.7,5.95,5.95,0,0,1,8.53,5.35Z" transform="translate(362.88 33.28)"/><polygon class="cls-4" points="1579.14 110.08 1593.43 133.12 1579.14 156.16 1505.52 156.16 1491.23 133.12 1505.52 110.08 1579.14 110.08"/><polygon class="cls-6" points="1499.27 165.52 1585.38 165.52 1584.84 166.4 1499.82 166.4 1499.27 165.52"/><polygon class="cls-6" points="1499.27 100.73 1499.82 99.84 1584.84 99.84 1585.38 100.73 1499.27 100.73"/><polygon class="cls-4" points="1479.18 133.12 1499.27 100.73 1585.38 100.73 1605.48 133.12 1585.38 165.52 1499.27 165.52 1479.18 133.12"/><polygon class="cls-6" points="1579.14 110.08 1593.43 133.12 1579.14 156.16 1505.52 156.16 1491.23 133.12 1505.52 110.08 1579.14 110.08"/><polygon class="cls-7" points="1542.33 117.59 1509.7 117.59 1500.07 133.12 1509.7 148.66 1542.33 148.66 1574.96 148.66 1584.59 133.12 1574.96 117.59 1542.33 117.59"/><polygon class="cls-5" points="1572.3 122.37 1578.97 133.12 1572.3 143.88 1512.36 143.88 1505.69 133.12 1512.36 122.37 1572.3 122.37"/><circle class="cls-8" cx="1560.91" cy="133.12" r="8.47"/><path class="cls-9" d="M1192.09,99.84A5.94,5.94,0,0,1,1198,93.9a5.86,5.86,0,0,1,2.58.59,5.95,5.95,0,0,0,0,10.7,5.86,5.86,0,0,1-2.58.59A5.94,5.94,0,0,1,1192.09,99.84Z" transform="translate(362.88 33.28)"/><ellipse class="cls-8" cx="1542.33" cy="138.61" rx="8.47" ry="5.27"/><path class="cls-9" d="M1179.44,101.64c3.28,0,6,1.65,6,3.69a2.61,2.61,0,0,1-.6,1.61,7.88,7.88,0,0,0-10.69,0,2.61,2.61,0,0,1-.6-1.61C1173.5,103.29,1176.16,101.64,1179.44,101.64Z" transform="translate(362.88 33.28)"/><ellipse class="cls-8" cx="1542.33" cy="127.63" rx="8.47" ry="5.27"/><path class="cls-9" d="M1179.44,98.05c3.28,0,6-1.66,6-3.7a2.63,2.63,0,0,0-.6-1.61,7.88,7.88,0,0,1-10.69,0,2.63,2.63,0,0,0-.6,1.61C1173.5,96.39,1176.16,98.05,1179.44,98.05Z" transform="translate(362.88 33.28)"/><circle class="cls-8" cx="1523.75" cy="133.12" r="8.47"/><path class="cls-9" d="M1166.8,99.84a5.95,5.95,0,0,0-8.53-5.35,5.94,5.94,0,0,1,0,10.7,5.95,5.95,0,0,0,8.53-5.35Z" transform="translate(362.88 33.28)"/><polygon class="cls-4" points="1399.86 143.36 1385.57 166.4 1399.86 189.45 1473.48 189.45 1487.77 166.4 1473.48 143.36 1399.86 143.36"/><polygon class="cls-6" points="1479.73 198.8 1393.62 198.8 1394.16 199.69 1479.18 199.69 1479.73 198.8"/><polygon class="cls-6" points="1479.73 134.01 1479.18 133.12 1394.16 133.12 1393.62 134.01 1479.73 134.01"/><polygon class="cls-4" points="1499.82 166.4 1479.73 134.01 1393.62 134.01 1373.53 166.4 1393.62 198.8 1479.73 198.8 1499.82 166.4"/><polygon class="cls-6" points="1399.86 143.36 1385.57 166.4 1399.86 189.45 1473.48 189.45 1487.77 166.4 1473.48 143.36 1399.86 143.36"/><polygon class="cls-7" points="1436.67 150.87 1469.3 150.87 1478.94 166.4 1469.3 181.94 1436.67 181.94 1404.04 181.94 1394.41 166.4 1404.04 150.87 1436.67 150.87"/><polygon class="cls-5" points="1406.7 155.65 1400.03 166.4 1406.7 177.16 1466.64 177.16 1473.31 166.4 1466.64 155.65 1406.7 155.65"/><circle class="cls-8" cx="1418.09" cy="166.4" r="8.47"/><path class="cls-9" d="M1061.13,132.7a5.94,5.94,0,0,0-8.51-4.93,5.95,5.95,0,0,1,0,10.7,5.94,5.94,0,0,0,8.51-5.77Z" transform="translate(362.88 33.28)"/><ellipse class="cls-8" cx="1436.67" cy="171.89" rx="8.47" ry="5.27"/><path class="cls-9" d="M1073.79,134.92c-3.28,0-5.94,1.65-5.94,3.69a2.6,2.6,0,0,0,.59,1.61,7.92,7.92,0,0,1,10.7,0,2.6,2.6,0,0,0,.59-1.61C1079.73,136.57,1077.07,134.92,1073.79,134.92Z" transform="translate(362.88 33.28)"/><ellipse class="cls-8" cx="1436.67" cy="160.92" rx="8.47" ry="5.27"/><path class="cls-9" d="M1073.79,131.33c-3.28,0-5.94-1.66-5.94-3.7a2.57,2.57,0,0,1,.59-1.6,7.92,7.92,0,0,0,10.7,0,2.57,2.57,0,0,1,.59,1.6C1079.73,129.67,1077.07,131.33,1073.79,131.33Z" transform="translate(362.88 33.28)"/><circle class="cls-8" cx="1455.26" cy="166.4" r="8.47"/><path class="cls-9" d="M1086.45,132.7a5.94,5.94,0,0,1,8.51-4.93,5.95,5.95,0,0,0,0,10.7,5.94,5.94,0,0,1-8.51-5.77Z" transform="translate(362.88 33.28)"/><polygon class="cls-4" points="1684.8 122.89 1699.08 99.84 1684.8 76.8 1611.18 76.8 1596.89 99.84 1611.18 122.89 1684.8 122.89"/><polygon class="cls-5" points="1691.04 67.44 1604.93 67.44 1605.48 66.56 1690.49 66.56 1691.04 67.44"/><polygon class="cls-5" points="1691.04 132.24 1690.49 133.12 1605.48 133.12 1604.93 132.24 1691.04 132.24"/><polygon class="cls-6" points="1711.13 99.84 1691.04 132.24 1604.93 132.24 1584.84 99.84 1604.93 67.44 1691.04 67.44 1711.13 99.84"/><polygon class="cls-4" points="1684.8 122.89 1699.08 99.84 1684.8 76.8 1611.18 76.8 1596.89 99.84 1611.18 122.89 1684.8 122.89"/><polygon class="cls-7" points="1647.99 115.38 1615.36 115.38 1605.72 99.84 1615.36 84.31 1647.99 84.31 1680.62 84.31 1690.25 99.84 1680.62 115.38 1647.99 115.38"/><polygon class="cls-5" points="1677.96 110.6 1684.63 99.84 1677.96 89.09 1618.01 89.09 1611.35 99.84 1618.01 110.6 1677.96 110.6"/><circle class="cls-8" cx="1666.57" cy="99.84" r="8.47"/><path class="cls-9" d="M1297.74,66.56a5.95,5.95,0,0,0,8.53,5.35,5.95,5.95,0,0,1,0-10.7,5.95,5.95,0,0,0-8.53,5.35Z" transform="translate(362.88 33.28)"/><ellipse class="cls-8" cx="1647.99" cy="94.35" rx="8.47" ry="5.27"/><path class="cls-9" d="M1285.1,64.77c3.28,0,5.94-1.66,5.94-3.7a2.62,2.62,0,0,0-.59-1.61,7.89,7.89,0,0,1-10.7,0,2.62,2.62,0,0,0-.59,1.61C1279.16,63.11,1281.82,64.77,1285.1,64.77Z" transform="translate(362.88 33.28)"/><ellipse class="cls-8" cx="1647.99" cy="105.33" rx="8.47" ry="5.27"/><path class="cls-9" d="M1285.1,68.36c3.28,0,5.94,1.65,5.94,3.69a2.6,2.6,0,0,1-.59,1.61,7.89,7.89,0,0,0-10.7,0,2.6,2.6,0,0,1-.59-1.61C1279.16,70,1281.82,68.36,1285.1,68.36Z" transform="translate(362.88 33.28)"/><circle class="cls-8" cx="1629.4" cy="99.84" r="8.47"/><path class="cls-9" d="M1272.46,66.56a5.95,5.95,0,0,1-8.53,5.35,5.95,5.95,0,0,0,0-10.7,5.95,5.95,0,0,1,8.53,5.35Z" transform="translate(362.88 33.28)"/><polygon class="cls-4" points="1611.18 56.32 1596.89 33.28 1611.18 10.24 1684.8 10.24 1699.09 33.28 1684.8 56.32 1611.18 56.32"/><polygon class="cls-6" points="1691.04 0.89 1604.93 0.89 1605.48 0 1690.49 0 1691.04 0.89"/><polygon class="cls-6" points="1691.04 65.68 1690.49 66.56 1605.48 66.56 1604.93 65.68 1691.04 65.68"/><polygon class="cls-4" points="1711.13 33.28 1691.04 65.68 1604.93 65.68 1584.84 33.28 1604.93 0.89 1691.04 0.89 1711.13 33.28"/><polygon class="cls-6" points="1611.18 56.32 1596.89 33.28 1611.18 10.24 1684.8 10.24 1699.09 33.28 1684.8 56.32 1611.18 56.32"/><polygon class="cls-7" points="1647.99 48.81 1680.62 48.81 1690.25 33.28 1680.62 17.75 1647.99 17.75 1615.36 17.75 1605.72 33.28 1615.36 48.81 1647.99 48.81"/><polygon class="cls-5" points="1618.02 44.04 1611.35 33.28 1618.02 22.53 1677.96 22.53 1684.63 33.28 1677.96 44.04 1618.02 44.04"/><circle class="cls-8" cx="1629.4" cy="33.28" r="8.47"/><path class="cls-9" d="M1272.44.43a6,6,0,0,1-5.54,5.5,5.91,5.91,0,0,1-3-.58A5.93,5.93,0,0,0,1267.28,0a5.93,5.93,0,0,0-3.35-5.35,5.9,5.9,0,0,1,2.59-.59A5.93,5.93,0,0,1,1272.44.43Z" transform="translate(362.88 33.28)"/><ellipse class="cls-8" cx="1647.99" cy="27.79" rx="8.47" ry="5.27"/><path class="cls-9" d="M1285.1-1.8c-3.28,0-5.94-1.65-5.94-3.69a2.6,2.6,0,0,1,.59-1.61A6.86,6.86,0,0,0,1285.1-5a6.86,6.86,0,0,0,5.35-2.09,2.6,2.6,0,0,1,.59,1.61C1291-3.45,1288.38-1.8,1285.1-1.8Z" transform="translate(362.88 33.28)"/><ellipse class="cls-8" cx="1647.99" cy="38.77" rx="8.47" ry="5.27"/><path class="cls-9" d="M1285.1,1.8c-3.28,0-5.94,1.65-5.94,3.69a2.6,2.6,0,0,0,.59,1.61,7.89,7.89,0,0,1,10.7,0,2.6,2.6,0,0,0,.59-1.61C1291,3.45,1288.38,1.8,1285.1,1.8Z" transform="translate(362.88 33.28)"/><circle class="cls-8" cx="1666.57" cy="33.28" r="8.47"/><path class="cls-9" d="M1297.76.43a6,6,0,0,0,5.54,5.5,5.91,5.91,0,0,0,3-.58A6,6,0,0,1,1302.92,0a6,6,0,0,1,3.35-5.35,5.89,5.89,0,0,0-2.58-.59A5.94,5.94,0,0,0,1297.76.43Z" transform="translate(362.88 33.28)"/><polygon class="cls-4" points="1611.18 143.36 1596.89 166.41 1611.18 189.45 1684.8 189.45 1699.08 166.41 1684.8 143.36 1611.18 143.36"/><polygon class="cls-6" points="1691.04 198.8 1604.93 198.8 1605.48 199.69 1690.49 199.69 1691.04 198.8"/><polygon class="cls-6" points="1691.04 134.01 1690.49 133.12 1605.48 133.12 1604.93 134.01 1691.04 134.01"/><polygon class="cls-4" points="1711.13 166.41 1691.04 134.01 1604.93 134.01 1584.84 166.41 1604.93 198.8 1691.04 198.8 1711.13 166.41"/><polygon class="cls-6" points="1611.18 143.36 1596.89 166.41 1611.18 189.45 1684.8 189.45 1699.08 166.41 1684.8 143.36 1611.18 143.36"/><polygon class="cls-7" points="1647.98 150.87 1680.62 150.87 1690.25 166.41 1680.62 181.94 1647.98 181.94 1615.36 181.94 1605.72 166.41 1615.36 150.87 1647.98 150.87"/><polygon class="cls-5" points="1618.01 155.65 1611.35 166.41 1618.01 177.16 1677.96 177.16 1684.63 166.41 1677.96 155.65 1618.01 155.65"/><circle class="cls-8" cx="1629.4" cy="166.4" r="8.47"/><path class="cls-9" d="M1272.44,132.7a5.94,5.94,0,0,0-8.51-4.93,5.95,5.95,0,0,1,0,10.7,5.94,5.94,0,0,0,8.51-5.77Z" transform="translate(362.88 33.28)"/><ellipse class="cls-8" cx="1647.99" cy="171.89" rx="8.47" ry="5.27"/><path class="cls-9" d="M1285.1,134.92c-3.28,0-5.94,1.65-5.94,3.69a2.6,2.6,0,0,0,.59,1.61,7.92,7.92,0,0,1,10.7,0,2.6,2.6,0,0,0,.59-1.61C1291,136.57,1288.38,134.92,1285.1,134.92Z" transform="translate(362.88 33.28)"/><ellipse class="cls-8" cx="1647.99" cy="160.92" rx="8.47" ry="5.27"/><path class="cls-9" d="M1285.1,131.33c-3.28,0-5.94-1.66-5.94-3.7a2.57,2.57,0,0,1,.59-1.6,7.92,7.92,0,0,0,10.7,0,2.57,2.57,0,0,1,.59,1.6C1291,129.67,1288.38,131.33,1285.1,131.33Z" transform="translate(362.88 33.28)"/><circle class="cls-8" cx="1666.57" cy="166.4" r="8.47"/><path class="cls-9" d="M1297.76,132.7a5.94,5.94,0,0,1,8.51-4.93,5.95,5.95,0,0,0,0,10.7,5.94,5.94,0,0,1-8.51-5.77Z" transform="translate(362.88 33.28)"/><polygon class="cls-4" points="1716.83 89.6 1702.54 66.56 1716.83 43.52 1790.45 43.52 1804.74 66.56 1790.45 89.6 1716.83 89.6"/><polygon class="cls-6" points="1796.7 34.16 1710.59 34.16 1711.13 33.28 1796.15 33.28 1796.7 34.16"/><polygon class="cls-6" points="1796.7 98.96 1796.15 99.84 1711.13 99.84 1710.59 98.96 1796.7 98.96"/><polygon class="cls-4" points="1816.79 66.56 1796.7 98.96 1710.59 98.96 1690.49 66.56 1710.59 34.16 1796.7 34.16 1816.79 66.56"/><polygon class="cls-6" points="1716.83 89.6 1702.54 66.56 1716.83 43.52 1790.45 43.52 1804.74 66.56 1790.45 89.6 1716.83 89.6"/><polygon class="cls-7" points="1753.64 82.09 1786.27 82.09 1795.9 66.56 1786.27 51.03 1753.64 51.03 1721.01 51.03 1711.38 66.56 1721.01 82.09 1753.64 82.09"/><polygon class="cls-5" points="1723.67 77.32 1717 66.56 1723.67 55.81 1783.61 55.81 1790.28 66.56 1783.61 77.32 1723.67 77.32"/><circle class="cls-8" cx="1735.06" cy="66.56" r="8.47"/><path class="cls-9" d="M1378.11,33.28a5.94,5.94,0,0,1-5.94,5.94,5.86,5.86,0,0,1-2.58-.59,5.95,5.95,0,0,0,0-10.7,5.86,5.86,0,0,1,2.58-.59A5.94,5.94,0,0,1,1378.11,33.28Z" transform="translate(362.88 33.28)"/><ellipse class="cls-8" cx="1753.64" cy="61.07" rx="8.47" ry="5.27"/><path class="cls-9" d="M1390.76,31.48c-3.28,0-6-1.65-6-3.69a2.61,2.61,0,0,1,.6-1.61,7.88,7.88,0,0,0,10.69,0,2.61,2.61,0,0,1,.6,1.61C1396.7,29.83,1394,31.48,1390.76,31.48Z" transform="translate(362.88 33.28)"/><ellipse class="cls-8" cx="1753.64" cy="72.05" rx="8.47" ry="5.27"/><path class="cls-9" d="M1390.76,35.08c-3.28,0-6,1.65-6,3.69a2.61,2.61,0,0,0,.6,1.61,7.88,7.88,0,0,1,10.69,0,2.61,2.61,0,0,0,.6-1.61C1396.7,36.73,1394,35.08,1390.76,35.08Z" transform="translate(362.88 33.28)"/><circle class="cls-8" cx="1772.22" cy="66.56" r="8.47"/><path class="cls-9" d="M1403.4,33.28a5.95,5.95,0,0,0,8.53,5.35,5.94,5.94,0,0,1,0-10.7,5.95,5.95,0,0,0-8.53,5.35Z" transform="translate(362.88 33.28)"/><polygon class="cls-4" points="1716.83 110.08 1702.54 133.12 1716.83 156.16 1790.45 156.16 1804.74 133.12 1790.45 110.08 1716.83 110.08"/><polygon class="cls-6" points="1796.7 165.52 1710.59 165.52 1711.13 166.4 1796.15 166.4 1796.7 165.52"/><polygon class="cls-6" points="1796.7 100.73 1796.15 99.84 1711.13 99.84 1710.59 100.73 1796.7 100.73"/><polygon class="cls-4" points="1816.79 133.12 1796.7 100.73 1710.59 100.73 1690.49 133.12 1710.59 165.52 1796.7 165.52 1816.79 133.12"/><polygon class="cls-6" points="1716.83 110.08 1702.54 133.12 1716.83 156.16 1790.45 156.16 1804.74 133.12 1790.45 110.08 1716.83 110.08"/><polygon class="cls-7" points="1753.64 117.59 1786.27 117.59 1795.9 133.12 1786.27 148.66 1753.64 148.66 1721.01 148.66 1711.38 133.12 1721.01 117.59 1753.64 117.59"/><polygon class="cls-5" points="1723.67 122.37 1717 133.12 1723.67 143.88 1783.61 143.88 1790.28 133.12 1783.61 122.37 1723.67 122.37"/><circle class="cls-8" cx="1735.06" cy="133.12" r="8.47"/><path class="cls-9" d="M1378.11,99.84a5.94,5.94,0,0,0-5.94-5.94,5.86,5.86,0,0,0-2.58.59,5.95,5.95,0,0,1,0,10.7,5.86,5.86,0,0,0,2.58.59A5.94,5.94,0,0,0,1378.11,99.84Z" transform="translate(362.88 33.28)"/><ellipse class="cls-8" cx="1753.64" cy="138.61" rx="8.47" ry="5.27"/><path class="cls-9" d="M1390.76,101.64c-3.28,0-6,1.65-6,3.69a2.61,2.61,0,0,0,.6,1.61,7.88,7.88,0,0,1,10.69,0,2.61,2.61,0,0,0,.6-1.61C1396.7,103.29,1394,101.64,1390.76,101.64Z" transform="translate(362.88 33.28)"/><ellipse class="cls-8" cx="1753.64" cy="127.63" rx="8.47" ry="5.27"/><path class="cls-9" d="M1390.76,98.05c-3.28,0-6-1.66-6-3.7a2.63,2.63,0,0,1,.6-1.61,7.88,7.88,0,0,0,10.69,0,2.63,2.63,0,0,1,.6,1.61C1396.7,96.39,1394,98.05,1390.76,98.05Z" transform="translate(362.88 33.28)"/><circle class="cls-8" cx="1772.22" cy="133.12" r="8.47"/><path class="cls-9" d="M1403.4,99.84a5.95,5.95,0,0,1,8.53-5.35,5.94,5.94,0,0,0,0,10.7,5.95,5.95,0,0,1-8.53-5.35Z" transform="translate(362.88 33.28)"/></g><g class="cls-11"><polygon class="cls-4" points="205.61 122.88 219.9 99.84 205.61 76.8 131.99 76.8 117.7 99.84 131.99 122.88 205.61 122.88"/><polygon class="cls-5" points="211.86 67.44 125.75 67.44 126.3 66.56 211.31 66.56 211.86 67.44"/><polygon class="cls-5" points="211.86 132.24 211.31 133.12 126.3 133.12 125.75 132.24 211.86 132.24"/><polygon class="cls-6" points="231.95 99.84 211.86 132.24 125.75 132.24 105.66 99.84 125.75 67.44 211.86 67.44 231.95 99.84"/><polygon class="cls-4" points="205.61 122.88 219.9 99.84 205.61 76.8 131.99 76.8 117.7 99.84 131.99 122.88 205.61 122.88"/><polygon class="cls-7" points="168.8 115.38 136.17 115.38 126.54 99.84 136.17 84.31 168.8 84.31 201.43 84.31 211.07 99.84 201.43 115.38 168.8 115.38"/><polygon class="cls-5" points="198.77 110.6 205.44 99.84 198.77 89.09 138.83 89.09 132.16 99.84 138.83 110.6 198.77 110.6"/><circle class="cls-8" cx="187.39" cy="99.84" r="8.47"/><path class="cls-9" d="M-181.44,66.56a5.94,5.94,0,0,0,5.94,5.94,5.9,5.9,0,0,0,2.59-.59,5.93,5.93,0,0,1-3.35-5.35,5.93,5.93,0,0,1,3.35-5.35,5.9,5.9,0,0,0-2.59-.59A5.94,5.94,0,0,0-181.44,66.56Z" transform="translate(362.88 33.28)"/><ellipse class="cls-8" cx="168.8" cy="94.35" rx="8.47" ry="5.27"/><path class="cls-9" d="M-194.08,64.77c3.28,0,5.94-1.66,5.94-3.7a2.62,2.62,0,0,0-.59-1.61,6.86,6.86,0,0,1-5.35,2.09,6.84,6.84,0,0,1-5.35-2.09,2.62,2.62,0,0,0-.59,1.61C-200,63.11-197.36,64.77-194.08,64.77Z" transform="translate(362.88 33.28)"/><ellipse class="cls-8" cx="168.8" cy="105.33" rx="8.47" ry="5.27"/><path class="cls-9" d="M-194.08,68.36c3.28,0,5.94,1.65,5.94,3.69a2.6,2.6,0,0,1-.59,1.61,6.86,6.86,0,0,0-5.35-2.09,6.84,6.84,0,0,0-5.35,2.09,2.6,2.6,0,0,1-.59-1.61C-200,70-197.36,68.36-194.08,68.36Z" transform="translate(362.88 33.28)"/><circle class="cls-8" cx="150.22" cy="99.84" r="8.47"/><path class="cls-9" d="M-206.73,66.56a5.93,5.93,0,0,1-5.94,5.94,5.89,5.89,0,0,1-2.58-.59,6,6,0,0,0,3.35-5.35,6,6,0,0,0-3.35-5.35,5.89,5.89,0,0,1,2.58-.59A5.93,5.93,0,0,1-206.73,66.56Z" transform="translate(362.88 33.28)"/><polygon class="cls-4" points="26.34 89.6 12.05 66.56 26.34 43.52 99.96 43.52 114.25 66.56 99.96 89.6 26.34 89.6"/><polygon class="cls-6" points="106.2 34.16 20.09 34.16 20.64 33.28 105.66 33.28 106.2 34.16"/><polygon class="cls-6" points="106.2 98.96 105.66 99.84 20.64 99.84 20.09 98.96 106.2 98.96"/><polygon class="cls-4" points="126.29 66.56 106.2 98.96 20.09 98.96 0 66.56 20.09 34.16 106.2 34.16 126.29 66.56"/><polygon class="cls-6" points="26.34 89.6 12.05 66.56 26.34 43.52 99.96 43.52 114.25 66.56 99.96 89.6 26.34 89.6"/><polygon class="cls-7" points="63.15 82.09 95.78 82.09 105.41 66.56 95.78 51.03 63.15 51.03 30.52 51.03 20.88 66.56 30.52 82.09 63.15 82.09"/><polygon class="cls-5" points="33.17 77.32 26.51 66.56 33.17 55.81 93.12 55.81 99.79 66.56 93.12 77.32 33.17 77.32"/><circle class="cls-8" cx="44.56" cy="66.56" r="8.47"/><path class="cls-9" d="M-312.38,33.28a5.94,5.94,0,0,1-5.94,5.94,5.9,5.9,0,0,1-2.59-.59,5.93,5.93,0,0,0,3.35-5.35,5.93,5.93,0,0,0-3.35-5.35,5.9,5.9,0,0,1,2.59-.59A5.94,5.94,0,0,1-312.38,33.28Z" transform="translate(362.88 33.28)"/><ellipse class="cls-8" cx="63.15" cy="61.07" rx="8.47" ry="5.27"/><path class="cls-9" d="M-299.74,31.48c-3.28,0-5.94-1.65-5.94-3.69a2.6,2.6,0,0,1,.59-1.61,6.86,6.86,0,0,0,5.35,2.09,6.86,6.86,0,0,0,5.35-2.09,2.6,2.6,0,0,1,.59,1.61C-293.8,29.83-296.46,31.48-299.74,31.48Z" transform="translate(362.88 33.28)"/><ellipse class="cls-8" cx="63.15" cy="72.05" rx="8.47" ry="5.27"/><path class="cls-9" d="M-299.74,35.08c-3.28,0-5.94,1.65-5.94,3.69a2.6,2.6,0,0,0,.59,1.61,6.86,6.86,0,0,1,5.35-2.09,6.86,6.86,0,0,1,5.35,2.09,2.6,2.6,0,0,0,.59-1.61C-293.8,36.73-296.46,35.08-299.74,35.08Z" transform="translate(362.88 33.28)"/><circle class="cls-8" cx="81.73" cy="66.56" r="8.47"/><path class="cls-9" d="M-287.1,33.28a5.94,5.94,0,0,0,6,5.94,5.89,5.89,0,0,0,2.58-.59,6,6,0,0,1-3.35-5.35,6,6,0,0,1,3.35-5.35,5.89,5.89,0,0,0-2.58-.59A5.94,5.94,0,0,0-287.1,33.28Z" transform="translate(362.88 33.28)"/><polygon class="cls-4" points="131.99 56.32 117.7 33.28 131.99 10.24 205.61 10.24 219.9 33.28 205.61 56.32 131.99 56.32"/><polygon class="cls-6" points="211.86 0.88 125.75 0.88 126.29 0 211.31 0 211.86 0.88"/><polygon class="cls-6" points="211.86 65.68 211.31 66.56 126.29 66.56 125.75 65.68 211.86 65.68"/><polygon class="cls-4" points="231.95 33.28 211.86 65.68 125.75 65.68 105.66 33.28 125.75 0.88 211.86 0.88 231.95 33.28"/><polygon class="cls-6" points="131.99 56.32 117.7 33.28 131.99 10.24 205.61 10.24 219.9 33.28 205.61 56.32 131.99 56.32"/><polygon class="cls-7" points="168.8 48.81 201.43 48.81 211.07 33.28 201.43 17.75 168.8 17.75 136.17 17.75 126.54 33.28 136.17 48.81 168.8 48.81"/><polygon class="cls-5" points="138.83 44.03 132.16 33.28 138.83 22.53 198.77 22.53 205.44 33.28 198.77 44.03 138.83 44.03"/><circle class="cls-8" cx="150.22" cy="33.28" r="8.47"/><path class="cls-9" d="M-206.74.42a6,6,0,0,1-5.54,5.51,6,6,0,0,1-3-.58A6,6,0,0,0-211.9,0a6,6,0,0,0-3.35-5.35,5.89,5.89,0,0,1,2.58-.59A5.94,5.94,0,0,1-206.74.42Z" transform="translate(362.88 33.28)"/><ellipse class="cls-8" cx="168.8" cy="27.79" rx="8.47" ry="5.27"/><path class="cls-9" d="M-194.08-1.8c-3.28,0-5.94-1.65-5.94-3.69a2.6,2.6,0,0,1,.59-1.61A6.86,6.86,0,0,0-194.08-5a6.86,6.86,0,0,0,5.35-2.09,2.6,2.6,0,0,1,.59,1.61C-188.14-3.45-190.8-1.8-194.08-1.8Z" transform="translate(362.88 33.28)"/><ellipse class="cls-8" cx="168.8" cy="38.77" rx="8.47" ry="5.27"/><path class="cls-9" d="M-194.08,1.79c-3.28,0-5.94,1.66-5.94,3.7a2.62,2.62,0,0,0,.59,1.61A6.86,6.86,0,0,1-194.08,5a6.86,6.86,0,0,1,5.35,2.09,2.62,2.62,0,0,0,.59-1.61C-188.14,3.45-190.8,1.79-194.08,1.79Z" transform="translate(362.88 33.28)"/><circle class="cls-8" cx="187.39" cy="33.28" r="8.47"/><path class="cls-9" d="M-181.42.42a6,6,0,0,0,5.54,5.51,6,6,0,0,0,3-.58A5.93,5.93,0,0,1-176.26,0a5.93,5.93,0,0,1,3.35-5.35,5.9,5.9,0,0,0-2.59-.59A5.93,5.93,0,0,0-181.42.42Z" transform="translate(362.88 33.28)"/><polygon class="cls-4" points="26.34 110.08 12.05 133.12 26.34 156.16 99.96 156.16 114.25 133.12 99.96 110.08 26.34 110.08"/><polygon class="cls-6" points="106.2 165.52 20.09 165.52 20.64 166.4 105.66 166.4 106.2 165.52"/><polygon class="cls-6" points="106.2 100.73 105.66 99.84 20.64 99.84 20.09 100.73 106.2 100.73"/><polygon class="cls-4" points="126.29 133.12 106.2 100.73 20.09 100.73 0 133.12 20.09 165.52 106.2 165.52 126.29 133.12"/><polygon class="cls-6" points="26.34 110.08 12.05 133.12 26.34 156.16 99.96 156.16 114.25 133.12 99.96 110.08 26.34 110.08"/><polygon class="cls-7" points="63.15 117.59 95.78 117.59 105.41 133.12 95.78 148.66 63.15 148.66 30.52 148.66 20.88 133.12 30.52 117.59 63.15 117.59"/><polygon class="cls-5" points="33.17 122.37 26.51 133.12 33.17 143.88 93.12 143.88 99.79 133.12 93.12 122.37 33.17 122.37"/><circle class="cls-8" cx="44.56" cy="133.12" r="8.47"/><path class="cls-9" d="M-312.38,99.84a5.94,5.94,0,0,0-5.94-5.94,5.9,5.9,0,0,0-2.59.59,5.93,5.93,0,0,1,3.35,5.35,5.93,5.93,0,0,1-3.35,5.35,5.9,5.9,0,0,0,2.59.59A5.94,5.94,0,0,0-312.38,99.84Z" transform="translate(362.88 33.28)"/><ellipse class="cls-8" cx="63.15" cy="138.61" rx="8.47" ry="5.27"/><path class="cls-9" d="M-299.74,101.64c-3.28,0-5.94,1.65-5.94,3.69a2.6,2.6,0,0,0,.59,1.61,6.89,6.89,0,0,1,5.35-2.09,6.89,6.89,0,0,1,5.35,2.09,2.6,2.6,0,0,0,.59-1.61C-293.8,103.29-296.46,101.64-299.74,101.64Z" transform="translate(362.88 33.28)"/><ellipse class="cls-8" cx="63.15" cy="127.63" rx="8.47" ry="5.27"/><path class="cls-9" d="M-299.74,98.05c-3.28,0-5.94-1.66-5.94-3.7a2.62,2.62,0,0,1,.59-1.61,6.86,6.86,0,0,0,5.35,2.09,6.86,6.86,0,0,0,5.35-2.09,2.62,2.62,0,0,1,.59,1.61C-293.8,96.39-296.46,98.05-299.74,98.05Z" transform="translate(362.88 33.28)"/><circle class="cls-8" cx="81.73" cy="133.12" r="8.47"/><path class="cls-9" d="M-287.1,99.84a5.94,5.94,0,0,1,6-5.94,5.89,5.89,0,0,1,2.58.59,6,6,0,0,0-3.35,5.35,6,6,0,0,0,3.35,5.35,5.89,5.89,0,0,1-2.58.59A5.94,5.94,0,0,1-287.1,99.84Z" transform="translate(362.88 33.28)"/><polygon class="cls-4" points="311.27 89.6 325.56 66.56 311.27 43.52 237.65 43.52 223.36 66.56 237.65 89.6 311.27 89.6"/><polygon class="cls-6" points="231.4 34.16 317.51 34.16 316.97 33.28 231.95 33.28 231.4 34.16"/><polygon class="cls-6" points="231.4 98.96 231.95 99.84 316.97 99.84 317.51 98.96 231.4 98.96"/><polygon class="cls-4" points="211.31 66.56 231.4 98.96 317.51 98.96 337.61 66.56 317.51 34.16 231.4 34.16 211.31 66.56"/><polygon class="cls-6" points="311.27 89.6 325.56 66.56 311.27 43.52 237.65 43.52 223.36 66.56 237.65 89.6 311.27 89.6"/><polygon class="cls-7" points="274.46 82.09 241.83 82.09 232.19 66.56 241.83 51.03 274.46 51.03 307.09 51.03 316.72 66.56 307.09 82.09 274.46 82.09"/><polygon class="cls-5" points="304.43 77.32 311.1 66.56 304.43 55.81 244.49 55.81 237.82 66.56 244.49 77.32 304.43 77.32"/><circle class="cls-8" cx="293.04" cy="66.56" r="8.47"/><path class="cls-9" d="M-75.78,33.28a5.93,5.93,0,0,0,5.94,5.94,5.89,5.89,0,0,0,2.58-.59,6,6,0,0,1-3.35-5.35,6,6,0,0,1,3.35-5.35,5.89,5.89,0,0,0-2.58-.59A5.93,5.93,0,0,0-75.78,33.28Z" transform="translate(362.88 33.28)"/><ellipse class="cls-8" cx="274.46" cy="61.07" rx="8.47" ry="5.27"/><path class="cls-9" d="M-88.43,31.48c3.28,0,5.94-1.65,5.94-3.69a2.6,2.6,0,0,0-.59-1.61,6.84,6.84,0,0,1-5.35,2.09,6.88,6.88,0,0,1-5.35-2.09,2.6,2.6,0,0,0-.59,1.61C-94.37,29.83-91.71,31.48-88.43,31.48Z" transform="translate(362.88 33.28)"/><ellipse class="cls-8" cx="274.46" cy="72.05" rx="8.47" ry="5.27"/><path class="cls-9" d="M-88.43,35.08c3.28,0,5.94,1.65,5.94,3.69a2.6,2.6,0,0,1-.59,1.61,6.84,6.84,0,0,0-5.35-2.09,6.88,6.88,0,0,0-5.35,2.09,2.6,2.6,0,0,1-.59-1.61C-94.37,36.73-91.71,35.08-88.43,35.08Z" transform="translate(362.88 33.28)"/><circle class="cls-8" cx="255.88" cy="66.56" r="8.47"/><path class="cls-9" d="M-101.07,33.28A5.94,5.94,0,0,1-107,39.22a5.93,5.93,0,0,1-2.59-.59,5.94,5.94,0,0,0,3.36-5.35,5.94,5.94,0,0,0-3.36-5.35,5.93,5.93,0,0,1,2.59-.59A5.94,5.94,0,0,1-101.07,33.28Z" transform="translate(362.88 33.28)"/><polygon class="cls-4" points="311.27 110.08 325.56 133.12 311.27 156.16 237.65 156.16 223.36 133.12 237.65 110.08 311.27 110.08"/><polygon class="cls-6" points="231.4 165.52 317.51 165.52 316.97 166.4 231.95 166.4 231.4 165.52"/><polygon class="cls-6" points="231.4 100.73 231.95 99.84 316.97 99.84 317.51 100.73 231.4 100.73"/><polygon class="cls-4" points="211.31 133.12 231.4 100.73 317.51 100.73 337.61 133.12 317.51 165.52 231.4 165.52 211.31 133.12"/><polygon class="cls-6" points="311.27 110.08 325.56 133.12 311.27 156.16 237.65 156.16 223.36 133.12 237.65 110.08 311.27 110.08"/><polygon class="cls-7" points="274.46 117.59 241.83 117.59 232.19 133.12 241.83 148.66 274.46 148.66 307.09 148.66 316.72 133.12 307.09 117.59 274.46 117.59"/><polygon class="cls-5" points="304.43 122.37 311.1 133.12 304.43 143.88 244.49 143.88 237.82 133.12 244.49 122.37 304.43 122.37"/><circle class="cls-8" cx="293.04" cy="133.12" r="8.47"/><path class="cls-9" d="M-75.78,99.84a5.93,5.93,0,0,1,5.94-5.94,5.89,5.89,0,0,1,2.58.59,6,6,0,0,0-3.35,5.35,6,6,0,0,0,3.35,5.35,5.89,5.89,0,0,1-2.58.59A5.93,5.93,0,0,1-75.78,99.84Z" transform="translate(362.88 33.28)"/><ellipse class="cls-8" cx="274.46" cy="138.61" rx="8.47" ry="5.27"/><path class="cls-9" d="M-88.43,101.64c3.28,0,5.94,1.65,5.94,3.69a2.6,2.6,0,0,1-.59,1.61,6.88,6.88,0,0,0-5.35-2.09,6.91,6.91,0,0,0-5.35,2.09,2.6,2.6,0,0,1-.59-1.61C-94.37,103.29-91.71,101.64-88.43,101.64Z" transform="translate(362.88 33.28)"/><ellipse class="cls-8" cx="274.46" cy="127.63" rx="8.47" ry="5.27"/><path class="cls-9" d="M-88.43,98.05c3.28,0,5.94-1.66,5.94-3.7a2.62,2.62,0,0,0-.59-1.61,6.84,6.84,0,0,1-5.35,2.09,6.88,6.88,0,0,1-5.35-2.09,2.62,2.62,0,0,0-.59,1.61C-94.37,96.39-91.71,98.05-88.43,98.05Z" transform="translate(362.88 33.28)"/><circle class="cls-8" cx="255.88" cy="133.12" r="8.47"/><path class="cls-9" d="M-101.07,99.84A5.94,5.94,0,0,0-107,93.9a5.93,5.93,0,0,0-2.59.59,5.94,5.94,0,0,1,3.36,5.35,5.94,5.94,0,0,1-3.36,5.35,5.93,5.93,0,0,0,2.59.59A5.94,5.94,0,0,0-101.07,99.84Z" transform="translate(362.88 33.28)"/><polygon class="cls-4" points="131.99 143.36 117.7 166.4 131.99 189.45 205.61 189.45 219.9 166.4 205.61 143.36 131.99 143.36"/><polygon class="cls-6" points="211.86 198.8 125.75 198.8 126.29 199.69 211.31 199.69 211.86 198.8"/><polygon class="cls-6" points="211.86 134.01 211.31 133.12 126.29 133.12 125.75 134.01 211.86 134.01"/><polygon class="cls-4" points="231.95 166.4 211.86 134.01 125.75 134.01 105.66 166.4 125.75 198.8 211.86 198.8 231.95 166.4"/><polygon class="cls-6" points="131.99 143.36 117.7 166.4 131.99 189.45 205.61 189.45 219.9 166.4 205.61 143.36 131.99 143.36"/><polygon class="cls-7" points="168.8 150.87 201.43 150.87 211.06 166.4 201.43 181.94 168.8 181.94 136.17 181.94 126.54 166.4 136.17 150.87 168.8 150.87"/><polygon class="cls-5" points="138.83 155.65 132.16 166.4 138.83 177.16 198.77 177.16 205.44 166.4 198.77 155.65 138.83 155.65"/><circle class="cls-8" cx="150.22" cy="166.4" r="8.47"/><path class="cls-9" d="M-206.74,132.7a6,6,0,0,0-5.54-5.51,6,6,0,0,0-3,.58,6,6,0,0,1,3.35,5.35,5.94,5.94,0,0,1-3.35,5.35,5.89,5.89,0,0,0,2.58.59A5.94,5.94,0,0,0-206.74,132.7Z" transform="translate(362.88 33.28)"/><ellipse class="cls-8" cx="168.8" cy="171.89" rx="8.47" ry="5.27"/><path class="cls-9" d="M-194.08,134.92c-3.28,0-5.94,1.65-5.94,3.69a2.6,2.6,0,0,0,.59,1.61,6.88,6.88,0,0,1,5.35-2.08,6.89,6.89,0,0,1,5.35,2.08,2.6,2.6,0,0,0,.59-1.61C-188.14,136.57-190.8,134.92-194.08,134.92Z" transform="translate(362.88 33.28)"/><ellipse class="cls-8" cx="168.8" cy="160.92" rx="8.47" ry="5.27"/><path class="cls-9" d="M-194.08,131.33c-3.28,0-5.94-1.66-5.94-3.7a2.57,2.57,0,0,1,.59-1.6,6.88,6.88,0,0,0,5.35,2.08,6.89,6.89,0,0,0,5.35-2.08,2.57,2.57,0,0,1,.59,1.6C-188.14,129.67-190.8,131.33-194.08,131.33Z" transform="translate(362.88 33.28)"/><circle class="cls-8" cx="187.39" cy="166.4" r="8.47"/><path class="cls-9" d="M-181.42,132.7a6,6,0,0,1,5.54-5.51,6,6,0,0,1,3,.58,5.93,5.93,0,0,0-3.35,5.35,5.92,5.92,0,0,0,3.35,5.35,5.93,5.93,0,0,1-2.59.59A5.93,5.93,0,0,1-181.42,132.7Z" transform="translate(362.88 33.28)"/><polygon class="cls-4" points="416.92 122.89 431.21 99.84 416.92 76.8 343.31 76.8 329.01 99.84 343.31 122.89 416.92 122.89"/><polygon class="cls-5" points="423.17 67.44 337.06 67.44 337.61 66.56 422.62 66.56 423.17 67.44"/><polygon class="cls-5" points="423.17 132.24 422.62 133.12 337.61 133.12 337.06 132.24 423.17 132.24"/><polygon class="cls-6" points="443.26 99.84 423.17 132.24 337.06 132.24 316.97 99.84 337.06 67.44 423.17 67.44 443.26 99.84"/><polygon class="cls-4" points="416.92 122.89 431.21 99.84 416.92 76.8 343.31 76.8 329.01 99.84 343.31 122.89 416.92 122.89"/><polygon class="cls-7" points="380.11 115.38 347.48 115.38 337.85 99.84 347.48 84.31 380.11 84.31 412.75 84.31 422.38 99.84 412.75 115.38 380.11 115.38"/><polygon class="cls-5" points="410.09 110.6 416.75 99.84 410.09 89.09 350.14 89.09 343.47 99.84 350.14 110.6 410.09 110.6"/><circle class="cls-8" cx="398.7" cy="99.84" r="8.47"/><path class="cls-9" d="M29.87,66.56a5.95,5.95,0,0,0,8.53,5.35,5.95,5.95,0,0,1,0-10.7,5.95,5.95,0,0,0-8.53,5.35Z" transform="translate(362.88 33.28)"/><ellipse class="cls-8" cx="380.11" cy="94.35" rx="8.47" ry="5.27"/><path class="cls-9" d="M17.23,64.77c3.28,0,5.94-1.66,5.94-3.7a2.62,2.62,0,0,0-.59-1.61,6.86,6.86,0,0,1-5.35,2.09,6.86,6.86,0,0,1-5.35-2.09,2.62,2.62,0,0,0-.59,1.61C11.29,63.11,14,64.77,17.23,64.77Z" transform="translate(362.88 33.28)"/><ellipse class="cls-8" cx="380.11" cy="105.33" rx="8.47" ry="5.27"/><path class="cls-9" d="M17.23,68.36c3.28,0,5.94,1.65,5.94,3.69a2.6,2.6,0,0,1-.59,1.61,6.86,6.86,0,0,0-5.35-2.09,6.86,6.86,0,0,0-5.35,2.09,2.6,2.6,0,0,1-.59-1.61C11.29,70,14,68.36,17.23,68.36Z" transform="translate(362.88 33.28)"/><circle class="cls-8" cx="361.53" cy="99.84" r="8.47"/><path class="cls-9" d="M4.59,66.56A5.94,5.94,0,0,1-1.35,72.5a5.9,5.9,0,0,1-2.59-.59A6,6,0,0,0-.59,66.56a6,6,0,0,0-3.35-5.35,5.9,5.9,0,0,1,2.59-.59A5.94,5.94,0,0,1,4.59,66.56Z" transform="translate(362.88 33.28)"/><polygon class="cls-4" points="343.31 56.32 329.02 33.28 343.31 10.24 416.92 10.24 431.21 33.28 416.92 56.32 343.31 56.32"/><polygon class="cls-6" points="423.17 0.89 337.06 0.89 337.61 0 422.62 0 423.17 0.89"/><polygon class="cls-6" points="423.17 65.68 422.62 66.56 337.61 66.56 337.06 65.68 423.17 65.68"/><polygon class="cls-4" points="443.26 33.28 423.17 65.68 337.06 65.68 316.97 33.28 337.06 0.89 423.17 0.89 443.26 33.28"/><polygon class="cls-6" points="343.31 56.32 329.02 33.28 343.31 10.24 416.92 10.24 431.21 33.28 416.92 56.32 343.31 56.32"/><polygon class="cls-7" points="380.12 48.81 412.75 48.81 422.38 33.28 412.75 17.75 380.12 17.75 347.48 17.75 337.85 33.28 347.48 48.81 380.12 48.81"/><polygon class="cls-5" points="350.14 44.04 343.47 33.28 350.14 22.53 410.09 22.53 416.75 33.28 410.09 44.04 350.14 44.04"/><circle class="cls-8" cx="361.53" cy="33.28" r="8.47"/><path class="cls-9" d="M4.57.43A6,6,0,0,1-1,5.93a5.91,5.91,0,0,1-3-.58A6,6,0,0,0-.59,0,6,6,0,0,0-3.94-5.35a5.9,5.9,0,0,1,2.59-.59A5.94,5.94,0,0,1,4.57.43Z" transform="translate(362.88 33.28)"/><ellipse class="cls-8" cx="380.11" cy="27.79" rx="8.47" ry="5.27"/><path class="cls-9" d="M17.23-1.8c-3.28,0-5.94-1.65-5.94-3.69a2.6,2.6,0,0,1,.59-1.61A6.86,6.86,0,0,0,17.23-5,6.86,6.86,0,0,0,22.58-7.1a2.6,2.6,0,0,1,.59,1.61C23.17-3.45,20.51-1.8,17.23-1.8Z" transform="translate(362.88 33.28)"/><ellipse class="cls-8" cx="380.11" cy="38.77" rx="8.47" ry="5.27"/><path class="cls-9" d="M17.23,1.8c-3.28,0-5.94,1.65-5.94,3.69a2.6,2.6,0,0,0,.59,1.61A6.86,6.86,0,0,1,17.23,5,6.86,6.86,0,0,1,22.58,7.1a2.6,2.6,0,0,0,.59-1.61C23.17,3.45,20.51,1.8,17.23,1.8Z" transform="translate(362.88 33.28)"/><circle class="cls-8" cx="398.7" cy="33.28" r="8.47"/><path class="cls-9" d="M29.89.43a6,6,0,0,0,5.54,5.5,5.91,5.91,0,0,0,3-.58A6,6,0,0,1,35.05,0,6,6,0,0,1,38.4-5.35a5.9,5.9,0,0,0-2.59-.59A5.94,5.94,0,0,0,29.89.43Z" transform="translate(362.88 33.28)"/><polygon class="cls-4" points="343.3 143.36 329.01 166.41 343.3 189.45 416.92 189.45 431.21 166.41 416.92 143.36 343.3 143.36"/><polygon class="cls-6" points="423.17 198.8 337.06 198.8 337.61 199.69 422.62 199.69 423.17 198.8"/><polygon class="cls-6" points="423.17 134.01 422.62 133.12 337.61 133.12 337.06 134.01 423.17 134.01"/><polygon class="cls-4" points="443.26 166.41 423.17 134.01 337.06 134.01 316.97 166.41 337.06 198.8 423.17 198.8 443.26 166.41"/><polygon class="cls-6" points="343.3 143.36 329.01 166.41 343.3 189.45 416.92 189.45 431.21 166.41 416.92 143.36 343.3 143.36"/><polygon class="cls-7" points="380.11 150.87 412.75 150.87 422.38 166.41 412.75 181.94 380.11 181.94 347.48 181.94 337.85 166.41 347.48 150.87 380.11 150.87"/><polygon class="cls-5" points="350.14 155.65 343.47 166.41 350.14 177.16 410.08 177.16 416.75 166.41 410.08 155.65 350.14 155.65"/><circle class="cls-8" cx="361.53" cy="166.4" r="8.47"/><path class="cls-9" d="M4.57,132.7A6,6,0,0,0-1,127.19a6,6,0,0,0-3,.58,6,6,0,0,1,3.35,5.35,5.94,5.94,0,0,1-3.35,5.35,5.9,5.9,0,0,0,2.59.59A5.94,5.94,0,0,0,4.57,132.7Z" transform="translate(362.88 33.28)"/><ellipse class="cls-8" cx="380.11" cy="171.89" rx="8.47" ry="5.27"/><path class="cls-9" d="M17.23,134.92c-3.28,0-5.94,1.65-5.94,3.69a2.6,2.6,0,0,0,.59,1.61,6.89,6.89,0,0,1,5.35-2.08,6.89,6.89,0,0,1,5.35,2.08,2.6,2.6,0,0,0,.59-1.61C23.17,136.57,20.51,134.92,17.23,134.92Z" transform="translate(362.88 33.28)"/><ellipse class="cls-8" cx="380.11" cy="160.92" rx="8.47" ry="5.27"/><path class="cls-9" d="M17.23,131.33c-3.28,0-5.94-1.66-5.94-3.7a2.57,2.57,0,0,1,.59-1.6,6.89,6.89,0,0,0,5.35,2.08A6.89,6.89,0,0,0,22.58,126a2.57,2.57,0,0,1,.59,1.6C23.17,129.67,20.51,131.33,17.23,131.33Z" transform="translate(362.88 33.28)"/><circle class="cls-8" cx="398.7" cy="166.4" r="8.47"/><path class="cls-9" d="M29.89,132.7a5.94,5.94,0,0,1,8.51-4.93,5.95,5.95,0,0,0,0,10.7,5.94,5.94,0,0,1-8.51-5.77Z" transform="translate(362.88 33.28)"/><polygon class="cls-4" points="448.96 89.6 434.67 66.56 448.96 43.52 522.58 43.52 536.87 66.56 522.58 89.6 448.96 89.6"/><polygon class="cls-6" points="528.83 34.16 442.71 34.16 443.26 33.28 528.28 33.28 528.83 34.16"/><polygon class="cls-6" points="528.83 98.96 528.28 99.84 443.26 99.84 442.71 98.96 528.83 98.96"/><polygon class="cls-4" points="548.92 66.56 528.83 98.96 442.71 98.96 422.62 66.56 442.71 34.16 528.83 34.16 548.92 66.56"/><polygon class="cls-6" points="448.96 89.6 434.67 66.56 448.96 43.52 522.58 43.52 536.87 66.56 522.58 89.6 448.96 89.6"/><polygon class="cls-7" points="485.77 82.09 518.4 82.09 528.03 66.56 518.4 51.03 485.77 51.03 453.14 51.03 443.51 66.56 453.14 82.09 485.77 82.09"/><polygon class="cls-5" points="455.8 77.32 449.13 66.56 455.8 55.81 515.74 55.81 522.41 66.56 515.74 77.32 455.8 77.32"/><circle class="cls-8" cx="467.19" cy="66.56" r="8.47"/><path class="cls-9" d="M110.24,33.28a5.95,5.95,0,0,1-8.53,5.35,5.94,5.94,0,0,0,0-10.7,5.95,5.95,0,0,1,8.53,5.35Z" transform="translate(362.88 33.28)"/><ellipse class="cls-8" cx="485.77" cy="61.07" rx="8.47" ry="5.27"/><path class="cls-9" d="M122.88,31.48c-3.28,0-5.94-1.65-5.94-3.69a2.61,2.61,0,0,1,.6-1.61,7.88,7.88,0,0,0,10.69,0,2.61,2.61,0,0,1,.6,1.61C128.83,29.83,126.16,31.48,122.88,31.48Z" transform="translate(362.88 33.28)"/><ellipse class="cls-8" cx="485.77" cy="72.05" rx="8.47" ry="5.27"/><path class="cls-9" d="M122.88,35.08c-3.28,0-5.94,1.65-5.94,3.69a2.61,2.61,0,0,0,.6,1.61,7.88,7.88,0,0,1,10.69,0,2.61,2.61,0,0,0,.6-1.61C128.83,36.73,126.16,35.08,122.88,35.08Z" transform="translate(362.88 33.28)"/><circle class="cls-8" cx="504.35" cy="66.56" r="8.47"/><path class="cls-9" d="M135.53,33.28a5.94,5.94,0,0,0,5.94,5.94,5.86,5.86,0,0,0,2.58-.59,5.95,5.95,0,0,1,0-10.7,5.86,5.86,0,0,0-2.58-.59A5.94,5.94,0,0,0,135.53,33.28Z" transform="translate(362.88 33.28)"/><polygon class="cls-4" points="448.96 110.08 434.67 133.12 448.96 156.16 522.58 156.16 536.87 133.12 522.58 110.08 448.96 110.08"/><polygon class="cls-6" points="528.83 165.52 442.71 165.52 443.26 166.4 528.28 166.4 528.83 165.52"/><polygon class="cls-6" points="528.83 100.73 528.28 99.84 443.26 99.84 442.71 100.73 528.83 100.73"/><polygon class="cls-4" points="548.92 133.12 528.83 100.73 442.71 100.73 422.62 133.12 442.71 165.52 528.83 165.52 548.92 133.12"/><polygon class="cls-6" points="448.96 110.08 434.67 133.12 448.96 156.16 522.58 156.16 536.87 133.12 522.58 110.08 448.96 110.08"/><polygon class="cls-7" points="485.77 117.59 518.4 117.59 528.03 133.12 518.4 148.66 485.77 148.66 453.14 148.66 443.51 133.12 453.14 117.59 485.77 117.59"/><polygon class="cls-5" points="455.8 122.37 449.13 133.12 455.8 143.88 515.74 143.88 522.41 133.12 515.74 122.37 455.8 122.37"/><circle class="cls-8" cx="467.19" cy="133.12" r="8.47"/><path class="cls-9" d="M110.24,99.84a5.95,5.95,0,0,0-8.53-5.35,5.94,5.94,0,0,1,0,10.7,5.95,5.95,0,0,0,8.53-5.35Z" transform="translate(362.88 33.28)"/><ellipse class="cls-8" cx="485.77" cy="138.61" rx="8.47" ry="5.27"/><path class="cls-9" d="M122.88,101.64c-3.28,0-5.94,1.65-5.94,3.69a2.61,2.61,0,0,0,.6,1.61,7.88,7.88,0,0,1,10.69,0,2.61,2.61,0,0,0,.6-1.61C128.83,103.29,126.16,101.64,122.88,101.64Z" transform="translate(362.88 33.28)"/><ellipse class="cls-8" cx="485.77" cy="127.63" rx="8.47" ry="5.27"/><path class="cls-9" d="M122.88,98.05c-3.28,0-5.94-1.66-5.94-3.7a2.63,2.63,0,0,1,.6-1.61,7.88,7.88,0,0,0,10.69,0,2.63,2.63,0,0,1,.6,1.61C128.83,96.39,126.16,98.05,122.88,98.05Z" transform="translate(362.88 33.28)"/><circle class="cls-8" cx="504.35" cy="133.12" r="8.47"/><path class="cls-9" d="M135.53,99.84a5.94,5.94,0,0,1,5.94-5.94,5.86,5.86,0,0,1,2.58.59,5.95,5.95,0,0,0,0,10.7,5.86,5.86,0,0,1-2.58.59A5.94,5.94,0,0,1,135.53,99.84Z" transform="translate(362.88 33.28)"/></g><g class="cls-12"><polygon class="cls-4" points="628.24 122.88 642.52 99.84 628.24 76.8 554.62 76.8 540.33 99.84 554.62 122.88 628.24 122.88"/><polygon class="cls-5" points="634.48 67.44 548.37 67.44 548.92 66.56 633.93 66.56 634.48 67.44"/><polygon class="cls-5" points="634.48 132.24 633.93 133.12 548.92 133.12 548.37 132.24 634.48 132.24"/><polygon class="cls-6" points="654.58 99.84 634.48 132.24 548.37 132.24 528.28 99.84 548.37 67.44 634.48 67.44 654.58 99.84"/><polygon class="cls-4" points="628.24 122.88 642.52 99.84 628.24 76.8 554.62 76.8 540.33 99.84 554.62 122.88 628.24 122.88"/><polygon class="cls-7" points="591.43 115.38 558.8 115.38 549.16 99.84 558.8 84.31 591.43 84.31 624.06 84.31 633.69 99.84 624.06 115.38 591.43 115.38"/><polygon class="cls-5" points="621.4 110.6 628.07 99.84 621.4 89.09 561.46 89.09 554.79 99.84 561.46 110.6 621.4 110.6"/><circle class="cls-8" cx="610.01" cy="99.84" r="8.47"/><path class="cls-9" d="M241.18,66.56a5.95,5.95,0,0,0,8.53,5.35,5.95,5.95,0,0,1,0-10.7,5.95,5.95,0,0,0-8.53,5.35Z" transform="translate(362.88 33.28)"/><ellipse class="cls-8" cx="591.43" cy="94.35" rx="8.47" ry="5.27"/><path class="cls-9" d="M228.54,64.77c3.28,0,5.94-1.66,5.94-3.7a2.62,2.62,0,0,0-.59-1.61,7.89,7.89,0,0,1-10.7,0,2.62,2.62,0,0,0-.59,1.61C222.6,63.11,225.26,64.77,228.54,64.77Z" transform="translate(362.88 33.28)"/><ellipse class="cls-8" cx="591.43" cy="105.33" rx="8.47" ry="5.27"/><path class="cls-9" d="M228.54,68.36c3.28,0,5.94,1.65,5.94,3.69a2.6,2.6,0,0,1-.59,1.61,7.89,7.89,0,0,0-10.7,0,2.6,2.6,0,0,1-.59-1.61C222.6,70,225.26,68.36,228.54,68.36Z" transform="translate(362.88 33.28)"/><circle class="cls-8" cx="572.84" cy="99.84" r="8.47"/><path class="cls-9" d="M215.9,66.56a5.95,5.95,0,0,1-8.53,5.35,5.95,5.95,0,0,0,0-10.7,5.95,5.95,0,0,1,8.53,5.35Z" transform="translate(362.88 33.28)"/><polygon class="cls-4" points="448.96 89.6 434.67 66.56 448.96 43.52 522.58 43.52 536.87 66.56 522.58 89.6 448.96 89.6"/><polygon class="cls-6" points="528.83 34.16 442.71 34.16 443.26 33.28 528.28 33.28 528.83 34.16"/><polygon class="cls-6" points="528.83 98.96 528.28 99.84 443.26 99.84 442.71 98.96 528.83 98.96"/><polygon class="cls-4" points="548.92 66.56 528.83 98.96 442.71 98.96 422.62 66.56 442.71 34.16 528.83 34.16 548.92 66.56"/><polygon class="cls-6" points="448.96 89.6 434.67 66.56 448.96 43.52 522.58 43.52 536.87 66.56 522.58 89.6 448.96 89.6"/><polygon class="cls-7" points="485.77 82.09 518.4 82.09 528.03 66.56 518.4 51.03 485.77 51.03 453.14 51.03 443.51 66.56 453.14 82.09 485.77 82.09"/><polygon class="cls-5" points="455.8 77.32 449.13 66.56 455.8 55.81 515.74 55.81 522.41 66.56 515.74 77.32 455.8 77.32"/><circle class="cls-8" cx="467.19" cy="66.56" r="8.47"/><path class="cls-9" d="M110.24,33.28a5.94,5.94,0,0,1-5.94,5.94,5.86,5.86,0,0,1-2.58-.59,5.95,5.95,0,0,0,0-10.7,5.86,5.86,0,0,1,2.58-.59A5.94,5.94,0,0,1,110.24,33.28Z" transform="translate(362.88 33.28)"/><ellipse class="cls-8" cx="485.77" cy="61.07" rx="8.47" ry="5.27"/><path class="cls-9" d="M122.89,31.48c-3.28,0-6-1.65-6-3.69a2.61,2.61,0,0,1,.6-1.61,7.88,7.88,0,0,0,10.69,0,2.61,2.61,0,0,1,.6,1.61C128.83,29.83,126.17,31.48,122.89,31.48Z" transform="translate(362.88 33.28)"/><ellipse class="cls-8" cx="485.77" cy="72.05" rx="8.47" ry="5.27"/><path class="cls-9" d="M122.89,35.08c-3.28,0-6,1.65-6,3.69a2.61,2.61,0,0,0,.6,1.61,7.88,7.88,0,0,1,10.69,0,2.61,2.61,0,0,0,.6-1.61C128.83,36.73,126.17,35.08,122.89,35.08Z" transform="translate(362.88 33.28)"/><circle class="cls-8" cx="504.35" cy="66.56" r="8.47"/><path class="cls-9" d="M135.53,33.28a5.95,5.95,0,0,0,8.53,5.35,5.94,5.94,0,0,1,0-10.7,5.95,5.95,0,0,0-8.53,5.35Z" transform="translate(362.88 33.28)"/><polygon class="cls-4" points="554.62 56.32 540.33 33.28 554.62 10.24 628.24 10.24 642.53 33.28 628.24 56.32 554.62 56.32"/><polygon class="cls-6" points="634.49 0.88 548.37 0.88 548.92 0 633.94 0 634.49 0.88"/><polygon class="cls-6" points="634.49 65.68 633.94 66.56 548.92 66.56 548.37 65.68 634.49 65.68"/><polygon class="cls-4" points="654.57 33.28 634.49 65.68 548.37 65.68 528.28 33.28 548.37 0.88 634.49 0.88 654.57 33.28"/><polygon class="cls-6" points="554.62 56.32 540.33 33.28 554.62 10.24 628.24 10.24 642.53 33.28 628.24 56.32 554.62 56.32"/><polygon class="cls-7" points="591.43 48.81 624.06 48.81 633.69 33.28 624.06 17.75 591.43 17.75 558.8 17.75 549.16 33.28 558.8 48.81 591.43 48.81"/><polygon class="cls-5" points="561.46 44.03 554.79 33.28 561.46 22.53 621.4 22.53 628.07 33.28 621.4 44.03 561.46 44.03"/><circle class="cls-8" cx="572.84" cy="33.28" r="8.47"/><path class="cls-9" d="M215.88.42a6,6,0,0,1-5.54,5.51,6,6,0,0,1-3-.58A5.93,5.93,0,0,0,210.72,0a5.93,5.93,0,0,0-3.35-5.35A5.9,5.9,0,0,1,210-5.94,5.93,5.93,0,0,1,215.88.42Z" transform="translate(362.88 33.28)"/><ellipse class="cls-8" cx="591.43" cy="27.79" rx="8.47" ry="5.27"/><path class="cls-9" d="M228.54-1.8c-3.28,0-5.94-1.65-5.94-3.69a2.6,2.6,0,0,1,.59-1.61A6.86,6.86,0,0,0,228.54-5a6.86,6.86,0,0,0,5.35-2.09,2.6,2.6,0,0,1,.59,1.61C234.48-3.45,231.82-1.8,228.54-1.8Z" transform="translate(362.88 33.28)"/><ellipse class="cls-8" cx="591.43" cy="38.77" rx="8.47" ry="5.27"/><path class="cls-9" d="M228.54,1.79c-3.28,0-5.94,1.66-5.94,3.7a2.62,2.62,0,0,0,.59,1.61,7.89,7.89,0,0,1,10.7,0,2.62,2.62,0,0,0,.59-1.61C234.48,3.45,231.82,1.79,228.54,1.79Z" transform="translate(362.88 33.28)"/><circle class="cls-8" cx="610.01" cy="33.28" r="8.47"/><path class="cls-9" d="M241.2.42a6,6,0,0,0,5.54,5.51,6,6,0,0,0,3-.58A6,6,0,0,1,246.36,0a6,6,0,0,1,3.35-5.35,5.89,5.89,0,0,0-2.58-.59A5.94,5.94,0,0,0,241.2.42Z" transform="translate(362.88 33.28)"/><polygon class="cls-4" points="448.96 110.08 434.67 133.12 448.96 156.16 522.58 156.16 536.87 133.12 522.58 110.08 448.96 110.08"/><polygon class="cls-6" points="528.83 165.52 442.71 165.52 443.26 166.4 528.28 166.4 528.83 165.52"/><polygon class="cls-6" points="528.83 100.73 528.28 99.84 443.26 99.84 442.71 100.73 528.83 100.73"/><polygon class="cls-4" points="548.92 133.12 528.83 100.73 442.71 100.73 422.62 133.12 442.71 165.52 528.83 165.52 548.92 133.12"/><polygon class="cls-6" points="448.96 110.08 434.67 133.12 448.96 156.16 522.58 156.16 536.87 133.12 522.58 110.08 448.96 110.08"/><polygon class="cls-7" points="485.77 117.59 518.4 117.59 528.03 133.12 518.4 148.66 485.77 148.66 453.14 148.66 443.51 133.12 453.14 117.59 485.77 117.59"/><polygon class="cls-5" points="455.8 122.37 449.13 133.12 455.8 143.88 515.74 143.88 522.41 133.12 515.74 122.37 455.8 122.37"/><circle class="cls-8" cx="467.19" cy="133.12" r="8.47"/><path class="cls-9" d="M110.24,99.84a5.94,5.94,0,0,0-5.94-5.94,5.86,5.86,0,0,0-2.58.59,5.95,5.95,0,0,1,0,10.7,5.86,5.86,0,0,0,2.58.59A5.94,5.94,0,0,0,110.24,99.84Z" transform="translate(362.88 33.28)"/><ellipse class="cls-8" cx="485.77" cy="138.61" rx="8.47" ry="5.27"/><path class="cls-9" d="M122.89,101.64c-3.28,0-6,1.65-6,3.69a2.61,2.61,0,0,0,.6,1.61,7.88,7.88,0,0,1,10.69,0,2.61,2.61,0,0,0,.6-1.61C128.83,103.29,126.17,101.64,122.89,101.64Z" transform="translate(362.88 33.28)"/><ellipse class="cls-8" cx="485.77" cy="127.63" rx="8.47" ry="5.27"/><path class="cls-9" d="M122.89,98.05c-3.28,0-6-1.66-6-3.7a2.63,2.63,0,0,1,.6-1.61,7.88,7.88,0,0,0,10.69,0,2.63,2.63,0,0,1,.6,1.61C128.83,96.39,126.17,98.05,122.89,98.05Z" transform="translate(362.88 33.28)"/><circle class="cls-8" cx="504.35" cy="133.12" r="8.47"/><path class="cls-9" d="M135.53,99.84a5.95,5.95,0,0,1,8.53-5.35,5.94,5.94,0,0,0,0,10.7,5.95,5.95,0,0,1-8.53-5.35Z" transform="translate(362.88 33.28)"/><polygon class="cls-4" points="733.89 89.6 748.18 66.56 733.89 43.52 660.27 43.52 645.98 66.56 660.27 89.6 733.89 89.6"/><polygon class="cls-6" points="654.02 34.16 740.14 34.16 739.59 33.28 654.57 33.28 654.02 34.16"/><polygon class="cls-6" points="654.02 98.96 654.57 99.84 739.59 99.84 740.14 98.96 654.02 98.96"/><polygon class="cls-4" points="633.93 66.56 654.02 98.96 740.14 98.96 760.23 66.56 740.14 34.16 654.02 34.16 633.93 66.56"/><polygon class="cls-6" points="733.89 89.6 748.18 66.56 733.89 43.52 660.27 43.52 645.98 66.56 660.27 89.6 733.89 89.6"/><polygon class="cls-7" points="697.08 82.09 664.45 82.09 654.82 66.56 664.45 51.03 697.08 51.03 729.71 51.03 739.35 66.56 729.71 82.09 697.08 82.09"/><polygon class="cls-5" points="727.05 77.32 733.72 66.56 727.05 55.81 667.11 55.81 660.44 66.56 667.11 77.32 727.05 77.32"/><circle class="cls-8" cx="715.66" cy="66.56" r="8.47"/><path class="cls-9" d="M346.84,33.28a5.95,5.95,0,0,0,8.53,5.35,5.95,5.95,0,0,1,0-10.7,5.95,5.95,0,0,0-8.53,5.35Z" transform="translate(362.88 33.28)"/><ellipse class="cls-8" cx="697.08" cy="61.07" rx="8.47" ry="5.27"/><path class="cls-9" d="M334.2,31.48c3.28,0,5.94-1.65,5.94-3.69a2.6,2.6,0,0,0-.59-1.61,7.89,7.89,0,0,1-10.7,0,2.6,2.6,0,0,0-.59,1.61C328.26,29.83,330.92,31.48,334.2,31.48Z" transform="translate(362.88 33.28)"/><ellipse class="cls-8" cx="697.08" cy="72.05" rx="8.47" ry="5.27"/><path class="cls-9" d="M334.2,35.08c3.28,0,5.94,1.65,5.94,3.69a2.6,2.6,0,0,1-.59,1.61,7.89,7.89,0,0,0-10.7,0,2.6,2.6,0,0,1-.59-1.61C328.26,36.73,330.92,35.08,334.2,35.08Z" transform="translate(362.88 33.28)"/><circle class="cls-8" cx="678.5" cy="66.56" r="8.47"/><path class="cls-9" d="M321.55,33.28A5.94,5.94,0,0,1,313,38.63a5.95,5.95,0,0,0,0-10.7,5.94,5.94,0,0,1,8.52,5.35Z" transform="translate(362.88 33.28)"/><polygon class="cls-4" points="733.89 110.08 748.18 133.12 733.89 156.16 660.27 156.16 645.98 133.12 660.27 110.08 733.89 110.08"/><polygon class="cls-6" points="654.02 165.52 740.14 165.52 739.59 166.4 654.57 166.4 654.02 165.52"/><polygon class="cls-6" points="654.02 100.73 654.57 99.84 739.59 99.84 740.14 100.73 654.02 100.73"/><polygon class="cls-4" points="633.93 133.12 654.02 100.73 740.14 100.73 760.23 133.12 740.14 165.52 654.02 165.52 633.93 133.12"/><polygon class="cls-6" points="733.89 110.08 748.18 133.12 733.89 156.16 660.27 156.16 645.98 133.12 660.27 110.08 733.89 110.08"/><polygon class="cls-7" points="697.08 117.59 664.45 117.59 654.82 133.12 664.45 148.66 697.08 148.66 729.71 148.66 739.35 133.12 729.71 117.59 697.08 117.59"/><polygon class="cls-5" points="727.05 122.37 733.72 133.12 727.05 143.88 667.11 143.88 660.44 133.12 667.11 122.37 727.05 122.37"/><circle class="cls-8" cx="715.66" cy="133.12" r="8.47"/><path class="cls-9" d="M346.84,99.84a5.95,5.95,0,0,1,8.53-5.35,5.95,5.95,0,0,0,0,10.7,5.95,5.95,0,0,1-8.53-5.35Z" transform="translate(362.88 33.28)"/><ellipse class="cls-8" cx="697.08" cy="138.61" rx="8.47" ry="5.27"/><path class="cls-9" d="M334.2,101.64c3.28,0,5.94,1.65,5.94,3.69a2.6,2.6,0,0,1-.59,1.61,7.89,7.89,0,0,0-10.7,0,2.6,2.6,0,0,1-.59-1.61C328.26,103.29,330.92,101.64,334.2,101.64Z" transform="translate(362.88 33.28)"/><ellipse class="cls-8" cx="697.08" cy="127.63" rx="8.47" ry="5.27"/><path class="cls-9" d="M334.2,98.05c3.28,0,5.94-1.66,5.94-3.7a2.62,2.62,0,0,0-.59-1.61,7.89,7.89,0,0,1-10.7,0,2.62,2.62,0,0,0-.59,1.61C328.26,96.39,330.92,98.05,334.2,98.05Z" transform="translate(362.88 33.28)"/><circle class="cls-8" cx="678.5" cy="133.12" r="8.47"/><path class="cls-9" d="M321.55,99.84A5.94,5.94,0,0,0,313,94.49a5.95,5.95,0,0,1,0,10.7,5.94,5.94,0,0,0,8.52-5.35Z" transform="translate(362.88 33.28)"/><polygon class="cls-4" points="554.62 143.36 540.33 166.4 554.62 189.45 628.24 189.45 642.52 166.4 628.24 143.36 554.62 143.36"/><polygon class="cls-6" points="634.48 198.8 548.37 198.8 548.92 199.69 633.93 199.69 634.48 198.8"/><polygon class="cls-6" points="634.48 134.01 633.93 133.12 548.92 133.12 548.37 134.01 634.48 134.01"/><polygon class="cls-4" points="654.57 166.4 634.48 134.01 548.37 134.01 528.28 166.4 548.37 198.8 634.48 198.8 654.57 166.4"/><polygon class="cls-6" points="554.62 143.36 540.33 166.4 554.62 189.45 628.24 189.45 642.52 166.4 628.24 143.36 554.62 143.36"/><polygon class="cls-7" points="591.43 150.87 624.06 150.87 633.69 166.4 624.06 181.94 591.43 181.94 558.79 181.94 549.16 166.4 558.79 150.87 591.43 150.87"/><polygon class="cls-5" points="561.46 155.65 554.78 166.4 561.46 177.16 621.4 177.16 628.07 166.4 621.4 155.65 561.46 155.65"/><circle class="cls-8" cx="572.84" cy="166.4" r="8.47"/><path class="cls-9" d="M215.88,132.7a5.94,5.94,0,0,0-8.51-4.93,5.95,5.95,0,0,1,0,10.7,5.94,5.94,0,0,0,8.51-5.77Z" transform="translate(362.88 33.28)"/><ellipse class="cls-8" cx="591.43" cy="171.89" rx="8.47" ry="5.27"/><path class="cls-9" d="M228.54,134.92c-3.28,0-5.94,1.65-5.94,3.69a2.6,2.6,0,0,0,.59,1.61,7.92,7.92,0,0,1,10.7,0,2.6,2.6,0,0,0,.59-1.61C234.48,136.57,231.82,134.92,228.54,134.92Z" transform="translate(362.88 33.28)"/><ellipse class="cls-8" cx="591.43" cy="160.92" rx="8.47" ry="5.27"/><path class="cls-9" d="M228.54,131.33c-3.28,0-5.94-1.66-5.94-3.7a2.57,2.57,0,0,1,.59-1.6,7.92,7.92,0,0,0,10.7,0,2.57,2.57,0,0,1,.59,1.6C234.48,129.67,231.82,131.33,228.54,131.33Z" transform="translate(362.88 33.28)"/><circle class="cls-8" cx="610.01" cy="166.4" r="8.47"/><path class="cls-9" d="M241.2,132.7a5.94,5.94,0,0,1,8.51-4.93,5.95,5.95,0,0,0,0,10.7,5.94,5.94,0,0,1-8.51-5.77Z" transform="translate(362.88 33.28)"/><polygon class="cls-4" points="839.55 122.89 853.84 99.84 839.55 76.8 765.93 76.8 751.64 99.84 765.93 122.89 839.55 122.89"/><polygon class="cls-5" points="845.79 67.44 759.68 67.44 760.23 66.56 845.25 66.56 845.79 67.44"/><polygon class="cls-5" points="845.79 132.24 845.25 133.12 760.23 133.12 759.68 132.24 845.79 132.24"/><polygon class="cls-6" points="865.89 99.84 845.79 132.24 759.68 132.24 739.59 99.84 759.68 67.44 845.79 67.44 865.89 99.84"/><polygon class="cls-4" points="839.55 122.89 853.84 99.84 839.55 76.8 765.93 76.8 751.64 99.84 765.93 122.89 839.55 122.89"/><polygon class="cls-7" points="802.74 115.38 770.11 115.38 760.48 99.84 770.11 84.31 802.74 84.31 835.37 84.31 845 99.84 835.37 115.38 802.74 115.38"/><polygon class="cls-5" points="832.71 110.6 839.38 99.84 832.71 89.09 772.77 89.09 766.1 99.84 772.77 110.6 832.71 110.6"/><circle class="cls-8" cx="821.32" cy="99.84" r="8.47"/><path class="cls-9" d="M452.5,66.56A5.94,5.94,0,0,0,461,71.91a5.95,5.95,0,0,1,0-10.7,5.94,5.94,0,0,0-8.52,5.35Z" transform="translate(362.88 33.28)"/><ellipse class="cls-8" cx="802.74" cy="94.35" rx="8.47" ry="5.27"/><path class="cls-9" d="M439.85,64.77c3.28,0,5.94-1.66,5.94-3.7a2.62,2.62,0,0,0-.59-1.61,7.89,7.89,0,0,1-10.7,0,2.62,2.62,0,0,0-.59,1.61C433.91,63.11,436.57,64.77,439.85,64.77Z" transform="translate(362.88 33.28)"/><ellipse class="cls-8" cx="802.74" cy="105.33" rx="8.47" ry="5.27"/><path class="cls-9" d="M439.85,68.36c3.28,0,5.94,1.65,5.94,3.69a2.6,2.6,0,0,1-.59,1.61,7.89,7.89,0,0,0-10.7,0,2.6,2.6,0,0,1-.59-1.61C433.91,70,436.57,68.36,439.85,68.36Z" transform="translate(362.88 33.28)"/><circle class="cls-8" cx="784.16" cy="99.84" r="8.47"/><path class="cls-9" d="M427.21,66.56a5.95,5.95,0,0,1-8.53,5.35,5.94,5.94,0,0,0,0-10.7,5.95,5.95,0,0,1,8.53,5.35Z" transform="translate(362.88 33.28)"/><polygon class="cls-4" points="765.93 56.32 751.64 33.28 765.93 10.24 839.55 10.24 853.84 33.28 839.55 56.32 765.93 56.32"/><polygon class="cls-6" points="845.8 0.89 759.68 0.89 760.23 0 845.25 0 845.8 0.89"/><polygon class="cls-6" points="845.8 65.68 845.25 66.56 760.23 66.56 759.68 65.68 845.8 65.68"/><polygon class="cls-4" points="865.89 33.28 845.8 65.68 759.68 65.68 739.59 33.28 759.68 0.89 845.8 0.89 865.89 33.28"/><polygon class="cls-6" points="765.93 56.32 751.64 33.28 765.93 10.24 839.55 10.24 853.84 33.28 839.55 56.32 765.93 56.32"/><polygon class="cls-7" points="802.74 48.81 835.37 48.81 845 33.28 835.37 17.75 802.74 17.75 770.11 17.75 760.48 33.28 770.11 48.81 802.74 48.81"/><polygon class="cls-5" points="772.77 44.04 766.1 33.28 772.77 22.53 832.71 22.53 839.38 33.28 832.71 44.04 772.77 44.04"/><circle class="cls-8" cx="784.16" cy="33.28" r="8.47"/><path class="cls-9" d="M427.2.43a6,6,0,0,1-5.55,5.5,5.91,5.91,0,0,1-3-.58A5.94,5.94,0,0,0,422,0a5.94,5.94,0,0,0-3.36-5.35,5.93,5.93,0,0,1,2.59-.59A6,6,0,0,1,427.2.43Z" transform="translate(362.88 33.28)"/><ellipse class="cls-8" cx="802.74" cy="27.79" rx="8.47" ry="5.27"/><path class="cls-9" d="M439.85-1.8c-3.28,0-5.94-1.65-5.94-3.69a2.55,2.55,0,0,1,.6-1.61A6.84,6.84,0,0,0,439.85-5,6.84,6.84,0,0,0,445.2-7.1a2.6,2.6,0,0,1,.59,1.61C445.79-3.45,443.13-1.8,439.85-1.8Z" transform="translate(362.88 33.28)"/><ellipse class="cls-8" cx="802.74" cy="38.77" rx="8.47" ry="5.27"/><path class="cls-9" d="M439.85,1.8c-3.28,0-5.94,1.65-5.94,3.69a2.55,2.55,0,0,0,.6,1.61,7.88,7.88,0,0,1,10.69,0,2.6,2.6,0,0,0,.59-1.61C445.79,3.45,443.13,1.8,439.85,1.8Z" transform="translate(362.88 33.28)"/><circle class="cls-8" cx="821.32" cy="33.28" r="8.47"/><path class="cls-9" d="M452.51.43a6,6,0,0,0,5.55,5.5,5.89,5.89,0,0,0,3-.58A6,6,0,0,1,457.67,0,6,6,0,0,1,461-5.35a5.89,5.89,0,0,0-2.58-.59A5.94,5.94,0,0,0,452.51.43Z" transform="translate(362.88 33.28)"/><polygon class="cls-4" points="765.93 143.36 751.64 166.41 765.93 189.45 839.55 189.45 853.84 166.41 839.55 143.36 765.93 143.36"/><polygon class="cls-6" points="845.8 198.8 759.68 198.8 760.23 199.69 845.25 199.69 845.8 198.8"/><polygon class="cls-6" points="845.8 134.01 845.25 133.12 760.23 133.12 759.68 134.01 845.8 134.01"/><polygon class="cls-4" points="865.88 166.41 845.8 134.01 759.68 134.01 739.59 166.41 759.68 198.8 845.8 198.8 865.88 166.41"/><polygon class="cls-6" points="765.93 143.36 751.64 166.41 765.93 189.45 839.55 189.45 853.84 166.41 839.55 143.36 765.93 143.36"/><polygon class="cls-7" points="802.74 150.87 835.37 150.87 845 166.41 835.37 181.94 802.74 181.94 770.11 181.94 760.48 166.41 770.11 150.87 802.74 150.87"/><polygon class="cls-5" points="772.77 155.65 766.1 166.41 772.77 177.16 832.71 177.16 839.38 166.41 832.71 155.65 772.77 155.65"/><circle class="cls-8" cx="784.15" cy="166.4" r="8.47"/><path class="cls-9" d="M427.2,132.7a5.95,5.95,0,0,0-8.52-4.93,5.94,5.94,0,0,1,0,10.7,6,6,0,0,0,8.52-5.77Z" transform="translate(362.88 33.28)"/><ellipse class="cls-8" cx="802.74" cy="171.89" rx="8.47" ry="5.27"/><path class="cls-9" d="M439.85,134.92c-3.28,0-5.94,1.65-5.94,3.69a2.6,2.6,0,0,0,.59,1.61,7.92,7.92,0,0,1,10.7,0,2.6,2.6,0,0,0,.59-1.61C445.79,136.57,443.13,134.92,439.85,134.92Z" transform="translate(362.88 33.28)"/><ellipse class="cls-8" cx="802.74" cy="160.92" rx="8.47" ry="5.27"/><path class="cls-9" d="M439.85,131.33c-3.28,0-5.94-1.66-5.94-3.7a2.57,2.57,0,0,1,.59-1.6,7.92,7.92,0,0,0,10.7,0,2.57,2.57,0,0,1,.59,1.6C445.79,129.67,443.13,131.33,439.85,131.33Z" transform="translate(362.88 33.28)"/><circle class="cls-8" cx="821.32" cy="166.4" r="8.47"/><path class="cls-9" d="M452.51,132.7a5.94,5.94,0,0,1,8.51-4.93,5.95,5.95,0,0,0,0,10.7,5.94,5.94,0,0,1-8.51-5.77Z" transform="translate(362.88 33.28)"/><polygon class="cls-4" points="871.58 89.6 857.29 66.56 871.58 43.52 945.2 43.52 959.49 66.56 945.2 89.6 871.58 89.6"/><polygon class="cls-6" points="951.45 34.16 865.34 34.16 865.88 33.28 950.9 33.28 951.45 34.16"/><polygon class="cls-6" points="951.45 98.96 950.9 99.84 865.88 99.84 865.34 98.96 951.45 98.96"/><polygon class="cls-4" points="971.54 66.56 951.45 98.96 865.34 98.96 845.25 66.56 865.34 34.16 951.45 34.16 971.54 66.56"/><polygon class="cls-6" points="871.58 89.6 857.29 66.56 871.58 43.52 945.2 43.52 959.49 66.56 945.2 89.6 871.58 89.6"/><polygon class="cls-7" points="908.39 82.09 941.02 82.09 950.66 66.56 941.02 51.03 908.39 51.03 875.76 51.03 866.13 66.56 875.76 82.09 908.39 82.09"/><polygon class="cls-5" points="878.42 77.32 871.75 66.56 878.42 55.81 938.36 55.81 945.03 66.56 938.36 77.32 878.42 77.32"/><circle class="cls-8" cx="889.81" cy="66.56" r="8.47"/><path class="cls-9" d="M532.87,33.28a5.95,5.95,0,0,1-8.53,5.35,5.95,5.95,0,0,0,0-10.7,5.95,5.95,0,0,1,8.53,5.35Z" transform="translate(362.88 33.28)"/><ellipse class="cls-8" cx="908.39" cy="61.07" rx="8.47" ry="5.27"/><path class="cls-9" d="M545.51,31.48c-3.28,0-5.94-1.65-5.94-3.69a2.6,2.6,0,0,1,.59-1.61,7.89,7.89,0,0,0,10.7,0,2.6,2.6,0,0,1,.59,1.61C551.45,29.83,548.79,31.48,545.51,31.48Z" transform="translate(362.88 33.28)"/><ellipse class="cls-8" cx="908.39" cy="72.05" rx="8.47" ry="5.27"/><path class="cls-9" d="M545.51,35.08c-3.28,0-5.94,1.65-5.94,3.69a2.6,2.6,0,0,0,.59,1.61,7.89,7.89,0,0,1,10.7,0,2.6,2.6,0,0,0,.59-1.61C551.45,36.73,548.79,35.08,545.51,35.08Z" transform="translate(362.88 33.28)"/><circle class="cls-8" cx="926.98" cy="66.56" r="8.47"/><path class="cls-9" d="M558.15,33.28a5.95,5.95,0,0,0,8.53,5.35,5.95,5.95,0,0,1,0-10.7,5.95,5.95,0,0,0-8.53,5.35Z" transform="translate(362.88 33.28)"/><polygon class="cls-4" points="871.58 110.08 857.29 133.12 871.58 156.16 945.2 156.16 959.49 133.12 945.2 110.08 871.58 110.08"/><polygon class="cls-6" points="951.45 165.52 865.34 165.52 865.88 166.4 950.9 166.4 951.45 165.52"/><polygon class="cls-6" points="951.45 100.73 950.9 99.84 865.88 99.84 865.34 100.73 951.45 100.73"/><polygon class="cls-4" points="971.54 133.12 951.45 100.73 865.34 100.73 845.25 133.12 865.34 165.52 951.45 165.52 971.54 133.12"/><polygon class="cls-6" points="871.58 110.08 857.29 133.12 871.58 156.16 945.2 156.16 959.49 133.12 945.2 110.08 871.58 110.08"/><polygon class="cls-7" points="908.39 117.59 941.02 117.59 950.66 133.12 941.02 148.66 908.39 148.66 875.76 148.66 866.13 133.12 875.76 117.59 908.39 117.59"/><polygon class="cls-5" points="878.42 122.37 871.75 133.12 878.42 143.88 938.36 143.88 945.03 133.12 938.36 122.37 878.42 122.37"/><circle class="cls-8" cx="889.81" cy="133.12" r="8.47"/><path class="cls-9" d="M532.87,99.84a5.95,5.95,0,0,0-8.53-5.35,5.95,5.95,0,0,1,0,10.7,5.95,5.95,0,0,0,8.53-5.35Z" transform="translate(362.88 33.28)"/><ellipse class="cls-8" cx="908.39" cy="138.61" rx="8.47" ry="5.27"/><path class="cls-9" d="M545.51,101.64c-3.28,0-5.94,1.65-5.94,3.69a2.6,2.6,0,0,0,.59,1.61,7.89,7.89,0,0,1,10.7,0,2.6,2.6,0,0,0,.59-1.61C551.45,103.29,548.79,101.64,545.51,101.64Z" transform="translate(362.88 33.28)"/><ellipse class="cls-8" cx="908.39" cy="127.63" rx="8.47" ry="5.27"/><path class="cls-9" d="M545.51,98.05c-3.28,0-5.94-1.66-5.94-3.7a2.62,2.62,0,0,1,.59-1.61,7.89,7.89,0,0,0,10.7,0,2.62,2.62,0,0,1,.59,1.61C551.45,96.39,548.79,98.05,545.51,98.05Z" transform="translate(362.88 33.28)"/><circle class="cls-8" cx="926.98" cy="133.12" r="8.47"/><path class="cls-9" d="M558.15,99.84a5.95,5.95,0,0,1,8.53-5.35,5.95,5.95,0,0,0,0,10.7,5.95,5.95,0,0,1-8.53-5.35Z" transform="translate(362.88 33.28)"/></g></g></g></g></svg>