<svg width="63" height="67" viewBox="0 0 63 67" fill="none" xmlns="http://www.w3.org/2000/svg">
<path d="M36.1654 11.2909V11.2776C33.1477 7.68787 31.4427 4.01834 31.4427 0.756777C31.4427 4.01834 29.7376 7.68787 26.72 11.2776V11.2909C27.0437 14.9205 28.0725 20.7119 31.4427 23.0423C34.8129 20.7119 35.8439 14.9205 36.1654 11.2909Z" fill="#5EB6B3"/>
<path d="M39.749 14.9318C38.4687 13.8037 37.2699 12.5863 36.1615 11.2889C35.8378 14.9185 34.809 20.71 31.4388 23.0403C28.0686 20.7033 27.0398 14.9119 26.7161 11.2889C25.6071 12.5858 24.4083 13.8031 23.1286 14.9318C22.6674 18.7788 22.6962 24.2975 26.5808 24.4482C26.5808 24.4482 26.1595 34.6032 31.4388 34.6032H31.4521C36.718 34.6032 36.2968 24.4482 36.2968 24.4482C40.1814 24.2975 40.2102 18.7788 39.749 14.9318Z" fill="#004657"/>
<path d="M41.8745 16.6894C41.1443 16.1173 40.4407 15.5327 39.7637 14.9355C40.2248 18.7824 40.2071 24.3012 36.3114 24.4519C36.3114 24.4519 36.7327 34.6069 31.4667 34.6069H31.4534C26.1742 34.6069 26.5955 24.4519 26.5955 24.4519C22.7109 24.3012 22.682 18.7824 23.1432 14.9355C22.478 15.5209 21.7907 16.0907 21.059 16.6761H21.0457C20.9105 19.3944 21.1677 22.4254 22.6155 24.3566C23.1481 25.0754 23.863 25.6388 24.6864 25.9885C24.7662 28.3121 25.254 32.4983 27.4735 34.8242C27.9849 35.3691 28.6034 35.8024 29.2902 36.0969C29.977 36.3915 30.7172 36.5409 31.4645 36.5359H31.4778C32.223 36.5381 32.9608 36.3873 33.6454 36.0929C34.3299 35.7984 34.9468 35.3666 35.4578 34.8242C37.675 32.4983 38.1495 28.3121 38.2315 25.9885C39.057 25.6423 39.7728 25.0782 40.3024 24.3566C41.7392 22.4187 42.0097 19.4077 41.8745 16.6894Z" fill="#4D8E5B"/>
<path d="M46.8901 20.0977C45.1417 19.0738 43.4639 17.9338 41.868 16.6854C42.0033 19.4037 41.7328 22.4214 40.2849 24.3526C39.7553 25.0742 39.0395 25.6383 38.214 25.9845C38.132 28.3082 37.6464 32.4943 35.4402 34.8202C34.9293 35.3627 34.3124 35.7945 33.6278 36.0889C32.9432 36.3833 32.2055 36.5341 31.4603 36.5319H31.447C30.6997 36.537 29.9595 36.3875 29.2727 36.093C28.5859 35.7984 27.9674 35.3651 27.456 34.8202C25.2387 32.4943 24.7487 28.3082 24.6689 25.9845C23.8455 25.6348 23.1306 25.0714 22.598 24.3526C21.1501 22.4214 20.8929 19.3904 21.0282 16.6721C19.419 17.9167 17.7376 19.065 15.9928 20.111C13.2701 36.1616 21.0127 34.6096 21.0127 34.6096C21.0127 47.0261 31.447 45.4741 31.447 45.4741C31.7973 45.5141 32.1498 45.5326 32.5024 45.5295C35.1631 45.5295 41.8946 44.5495 41.8946 34.6007C41.8946 34.6096 49.6505 36.1794 46.8901 20.0977Z" fill="#243C23"/>
<path d="M62.5505 26.4866C59.831 25.8258 57.1633 24.9676 54.5685 23.919C57.595 45.1934 44.3182 43.7788 44.3182 43.7788C44.2095 58.0512 33.4227 58.6233 31.6799 58.6233H31.4582C31.4582 58.6233 18.709 59.3017 18.5982 43.7677C18.5982 43.7677 5.29474 45.1823 8.35231 23.9079C5.75051 24.9539 3.07705 25.812 0.352505 26.4755C0.0686989 30.3512 0.272682 33.8301 0.98885 36.8743C1.1241 37.5151 1.30148 38.1404 1.48995 38.7368C1.86943 39.9745 2.36845 41.1722 2.97993 42.3132C3.68111 43.6473 4.54666 44.8883 5.55637 46.0072C7.2388 47.8445 9.30968 49.2836 11.6183 50.2199C12.2285 53.1104 13.4262 55.8446 15.1371 58.253C15.832 59.2171 16.6159 60.1138 17.4785 60.9314C22.5449 65.7317 28.7531 66.2905 31.0413 66.3171H31.8573C34.1167 66.2905 40.3427 65.7317 45.4201 60.9336C47.5997 58.8805 50.0985 55.4836 51.2892 50.2221C53.5916 49.2815 55.6572 47.8428 57.3378 46.0094C61.4397 41.535 63.1847 34.983 62.5505 26.4866Z" fill="#D6E9D1"/>
<path d="M54.5807 23.9156C51.9215 22.8469 49.3511 21.5695 46.8935 20.0953C49.654 36.177 41.898 34.6072 41.898 34.6072C41.898 44.5559 35.1598 45.5359 32.5058 45.5359C32.1532 45.5391 31.8007 45.5205 31.4504 45.4805C31.4504 45.4805 21.0161 47.0171 21.0161 34.616C21.0161 34.616 13.2735 36.1681 16.0073 20.1241C13.5514 21.5808 10.9909 22.8533 8.34676 23.9311C5.28696 45.2056 18.5926 43.791 18.5926 43.791C18.7013 59.3117 31.4526 58.6354 31.4526 58.6354H31.6743C33.4193 58.6354 44.2062 58.0633 44.3126 43.7799C44.3215 43.7754 57.5983 45.19 54.5807 23.9156Z" fill="#7EB383"/>
</svg>
