<svg width="63" height="66" viewBox="0 0 63 66" fill="none" xmlns="http://www.w3.org/2000/svg">
<path d="M26.5497 55.2133V55.2266C29.5673 58.8163 31.2724 62.4858 31.2724 65.7474C31.2724 62.4858 32.9775 58.8163 35.9951 55.2266V55.2133C35.6714 51.5837 34.6426 45.7922 31.2724 43.4619C27.9022 45.7922 26.8712 51.5837 26.5497 55.2133Z" fill="#5EB6B3"/>
<path d="M22.9662 51.5724C24.2465 52.7005 25.4453 53.9179 26.5537 55.2153C26.8774 51.5857 27.9062 45.7942 31.2764 43.4639C34.6466 45.8009 35.6754 51.5923 35.9992 55.2153C37.1081 53.9184 38.3069 52.7011 39.5867 51.5724C40.0478 47.7255 40.019 42.2067 36.1344 42.056C36.1344 42.056 36.5557 31.901 31.2764 31.901H31.2631C25.9972 31.901 26.4185 42.056 26.4185 42.056C22.5338 42.2067 22.505 47.7255 22.9662 51.5724Z" fill="#004657"/>
<path d="M20.8406 49.8148C21.5708 50.3869 22.2744 50.9715 22.9514 51.5687C22.4902 47.7218 22.508 42.2031 26.4037 42.0523C26.4037 42.0523 25.9824 31.8973 31.2483 31.8973H31.2617C36.5409 31.8973 36.1196 42.0523 36.1196 42.0523C40.0042 42.2031 40.0331 47.7218 39.5719 51.5687C40.237 50.9833 40.9244 50.4135 41.6561 49.8281H41.6694C41.8046 47.1098 41.5474 44.0788 40.0996 42.1476C39.567 41.4289 38.852 40.8655 38.0287 40.5157C37.9489 38.1921 37.4611 34.0059 35.2416 31.68C34.7302 31.1352 34.1117 30.7018 33.4249 30.4073C32.7381 30.1127 31.9978 29.9633 31.2506 29.9683H31.2373C30.4921 29.9661 29.7543 30.1169 29.0697 30.4113C28.3852 30.7058 27.7683 31.1376 27.2573 31.68C25.0401 34.0059 24.5656 38.1921 24.4835 40.5157C23.6581 40.8619 22.9423 41.426 22.4126 42.1476C20.9759 44.0855 20.7054 47.0965 20.8406 49.8148Z" fill="#4D8E5B"/>
<path d="M15.825 46.4065C17.5734 47.4304 19.2512 48.5704 20.8471 49.8188C20.7118 47.1005 20.9823 44.0828 22.4302 42.1516C22.9598 41.43 23.6756 40.8659 24.5011 40.5197C24.5831 38.196 25.0687 34.0099 27.2748 31.684C27.7858 31.1415 28.4027 30.7097 29.0873 30.4153C29.7718 30.1209 30.5096 29.9701 31.2548 29.9723H31.2681C32.0154 29.9672 32.7556 30.1167 33.4424 30.4112C34.1292 30.7058 34.7477 31.1391 35.2591 31.684C37.4764 34.0099 37.9664 38.196 38.0462 40.5197C38.8696 40.8694 39.5845 41.4328 40.1171 42.1516C41.565 44.0828 41.8222 47.1138 41.6869 49.8321C43.2961 48.5875 44.9774 47.4392 46.7223 46.3932C49.445 30.3426 41.7024 31.8946 41.7024 31.8946C41.7024 19.4781 31.2681 21.0302 31.2681 21.0302C30.9178 20.9901 30.5653 20.9716 30.2127 20.9747C27.552 20.9747 20.8205 21.9547 20.8205 31.9035C20.8205 31.8946 13.0645 30.3248 15.825 46.4065Z" fill="#243C23"/>
<path d="M0.164417 40.0176C2.88395 40.6784 5.55171 41.5366 8.14649 42.5852C5.11995 21.3108 18.3968 22.7254 18.3968 22.7254C18.5054 8.45301 29.2923 7.88096 31.0351 7.88096H31.2568C31.2568 7.88096 44.0059 7.20248 44.1168 22.7365C44.1168 22.7365 57.4202 21.3219 54.3627 42.5963C56.9645 41.5503 59.6379 40.6923 62.3625 40.0287C62.6463 36.153 62.4423 32.6741 61.7261 29.6299C61.5909 28.9891 61.4135 28.3638 61.225 27.7674C60.8455 26.5297 60.3465 25.332 59.735 24.191C59.0339 22.8569 58.1683 21.6159 57.1586 20.4971C55.4762 18.6597 53.4053 17.2206 51.0967 16.2843C50.4865 13.3938 49.2888 10.6596 47.5779 8.25124C46.8829 7.28716 46.099 6.39042 45.2365 5.57281C40.1701 0.772486 33.9618 0.213741 31.6736 0.187134H30.8577C28.5983 0.213741 22.3723 0.772486 17.2948 5.57059C15.1153 7.62376 12.6164 11.0206 11.4258 16.2821C9.12339 17.2228 7.05776 18.6614 5.37715 20.4948C1.27525 24.9692 -0.469714 31.5212 0.164417 40.0176Z" fill="#D6E9D1"/>
<path d="M8.13443 42.5886C10.7936 43.6572 13.364 44.9347 15.8216 46.4089C13.0611 30.3272 20.817 31.897 20.817 31.897C20.817 21.9483 27.5552 20.9682 30.2093 20.9682C30.5619 20.9651 30.9143 20.9836 31.2647 21.0237C31.2647 21.0237 41.699 19.4871 41.699 31.8882C41.699 31.8882 49.4416 30.3361 46.7078 46.3801C49.1636 44.9234 51.7242 43.6509 54.3683 42.573C57.4281 21.2986 44.1225 22.7132 44.1225 22.7132C44.0138 7.19253 31.2625 7.86879 31.2625 7.86879H31.0407C29.2958 7.86879 18.5089 8.44083 18.4025 22.7243C18.3936 22.7287 5.11676 21.3141 8.13443 42.5886Z" fill="#7EB383"/>
</svg>
