<svg xmlns="http://www.w3.org/2000/svg" viewBox="0 0 98.83 98.83"><defs><style>.cls-1{fill:#69b5c8;}.cls-2{fill:#1c779d;}.cls-3{fill:#094826;}.cls-4{fill:#038b62;}.cls-5{fill:#5d9574;}.cls-6{fill:#580220;}.cls-7{fill:#260008;}</style></defs><g id="图层_2" data-name="图层 2"><g id="文件图层"><path class="cls-1" d="M40.87,72.07a6.91,6.91,0,0,1-5.76,2,5.37,5.37,0,0,1-4-2.9,24.93,24.93,0,0,0-5.82-6.67l-2.12-1.66,1.76-2.05.25-.27c1.52-1.52,4.34-2.31,7.36-2.07a12.1,12.1,0,0,1,8.9,4.81,6.52,6.52,0,0,1-.57,8.77Z"/><path class="cls-2" d="M26.88,62.51A27.88,27.88,0,0,1,33.4,70c2.11,4,9.43-.38,6-5.2S28.67,60.44,26.88,62.51Z"/><path class="cls-1" d="M72.07,40.87a6.91,6.91,0,0,0,2-5.76,5.37,5.37,0,0,0-2.9-4,24.93,24.93,0,0,1-6.67-5.82l-1.66-2.12-2.05,1.76-.27.25c-1.52,1.52-2.31,4.34-2.07,7.36a12.1,12.1,0,0,0,4.81,8.9,6.52,6.52,0,0,0,8.77-.57Z"/><path class="cls-2" d="M62.51,26.88A27.88,27.88,0,0,0,70,33.4c4,2.11-.38,9.43-5.2,6S60.44,28.67,62.51,26.88Z"/><path class="cls-3" d="M20.3,60.1c4.24,5.12,4,8.6,2.29,10.66s-5.47,2.46-5.47,2.46c2.43,6.58-4.4,9.12-4.4,9.12C11.29,93.7,0,93.56,0,93.56c10.33-4.32,11.06-12.74,11.06-12.74a8.83,8.83,0,0,0,4.67-8.34C24.17,66.38,21.15,61.24,20.3,60.1Z"/><path class="cls-4" d="M27.61,70.76c-1.45,3.16-6.52,4.16-6.52,4.16s3.07,3.16.76,6.8S14.93,84,14.93,84s.83,7.91-4,10.51-11-.92-11-.92,11.29.14,12.72-11.22c0,0,6.83-2.54,4.4-9.12,0,0,3.7-.37,5.47-2.46s1.95-5.54-2.29-10.66c0,0,0,0,0-.05l0,0C22.74,61.34,29.05,67.6,27.61,70.76Z"/><path class="cls-5" d="M31.38,72.55A10.55,10.55,0,0,1,25.52,78a6.26,6.26,0,0,1-.33,7c-2.6,3.75-7.79,3.79-7.79,3.79s.9,7.47-4.61,9.61S0,93.56,0,93.56s6.17,3.52,11,.92,4-10.51,4-10.51,4.62,1.37,6.92-2.25-.76-6.8-.76-6.8,5.07-1,6.52-4.16S22.74,61.34,20.24,60C27.15,60.8,33.27,68.37,31.38,72.55Z"/><path class="cls-3" d="M60.1,20.3c5.12,4.24,8.6,4,10.66,2.29s2.46-5.47,2.46-5.47c6.58,2.43,9.12-4.4,9.12-4.4C93.7,11.29,93.56,0,93.56,0,89.24,10.33,80.82,11.06,80.82,11.06a8.83,8.83,0,0,1-8.34,4.67C66.38,24.17,61.24,21.15,60.1,20.3Z"/><path class="cls-4" d="M70.76,27.61c3.16-1.45,4.16-6.52,4.16-6.52s3.16,3.07,6.8.76S84,14.93,84,14.93s7.91.83,10.51-4-.92-11-.92-11,.14,11.29-11.22,12.72c0,0-2.54,6.83-9.12,4.4,0,0-.37,3.7-2.46,5.47S65.22,24.54,60.1,20.3c0,0,0,0-.05,0l0,0C61.34,22.74,67.6,29.05,70.76,27.61Z"/><path class="cls-5" d="M72.55,31.38A10.55,10.55,0,0,0,78,25.52a6.26,6.26,0,0,0,7-.33c3.75-2.6,3.79-7.79,3.79-7.79s7.47.9,9.61-4.61S93.56,0,93.56,0s3.52,6.17.92,11-10.51,4-10.51,4,1.37,4.62-2.25,6.92-6.8-.76-6.8-.76-1,5.07-4.16,6.52S61.34,22.74,60,20.24C60.8,27.15,68.37,33.27,72.55,31.38Z"/><path class="cls-1" d="M12,12a12.27,12.27,0,0,0,6.81-3.8c3-3.3,9.33-4,9.33-4,9.86-8.26,22,0,26,4.75s6.3,5.54,6.3,5.54a4.73,4.73,0,0,1,5.88-6.71c3.89,1.46,5.43,10.07-2.55,13.17-10.32,4-17.12-12.46-28-15.72s-21.3,9.16-21.3,9.16S2,24.78,5.21,35.67s19.72,17.7,15.72,28c-3.1,8-11.71,6.44-13.17,2.55a4.73,4.73,0,0,1,6.71-5.88s-.83-2.33-5.54-6.3-13-16.11-4.75-26c0,0,.67-6.35,4-9.33A12.27,12.27,0,0,0,12,12Z"/><path class="cls-2" d="M66.27,17.81a8.7,8.7,0,0,1-3,1.92c-5.24,2-9.57-2.11-14.58-6.9C44.83,9.19,40.89,5.43,36,4a14.24,14.24,0,0,0-4.47-.6C40.8-1.44,50.72,7,53.07,9.76c4.08,4.84,6.59,5.83,6.86,5.93h0a1.29,1.29,0,0,0,1.59-1.78h0A3.45,3.45,0,0,1,65.79,9a4.14,4.14,0,0,1,2.2,3.1A6.21,6.21,0,0,1,66.27,17.81Z"/><path class="cls-2" d="M17.81,66.27A6.24,6.24,0,0,1,12.07,68,4.18,4.18,0,0,1,9,65.79a3.45,3.45,0,0,1,4.94-4.27h0a1.29,1.29,0,0,0,1.78-1.59h0c-.1-.27-1.09-2.78-5.93-6.86C7,50.72-1.44,40.8,3.38,31.57A14.24,14.24,0,0,0,4,36c1.45,4.85,5.21,8.79,8.85,12.6,4.79,5,8.93,9.34,6.9,14.58A8.7,8.7,0,0,1,17.81,66.27Z"/><path class="cls-5" d="M62.74,52.45c-.06-.27-.11-.42-.11-.42,6.05-9.94-2.52-16.28-2.52-16.28,1.4-2.56,1.61-11.8-7.33-14.29s-25,6.36-25,6.36-8.84,16-6.36,25,11.73,8.73,14.29,7.33c0,0,6.34,8.57,16.28,2.52,0,0,.15,0,.42.11A8.66,8.66,0,0,0,62.74,52.45Z"/><path class="cls-4" d="M59.56,50.21a2.58,2.58,0,0,0-.1-.38c5.5-9-2.29-14.8-2.29-14.8,1.28-2.33,1.47-10.73-6.67-13s-22.68,5.78-22.68,5.78S19.78,42.37,22,50.5s10.66,8,13,6.67c0,0,5.76,7.79,14.8,2.29a2.58,2.58,0,0,0,.38.1A7.88,7.88,0,0,0,59.56,50.21Z"/><path class="cls-3" d="M55.65,47.45l-.08-.33a9.54,9.54,0,0,0-2-13,8.55,8.55,0,0,0-5.84-11.39c-7.13-2-19.89,5.07-19.89,5.07s-7,12.76-5.07,19.89a8.55,8.55,0,0,0,11.39,5.84,9.54,9.54,0,0,0,13,2l.33.08A6.9,6.9,0,0,0,55.65,47.45Z"/><path class="cls-6" d="M52.29,43A8.52,8.52,0,0,0,50,39.94c3-2.6,3.86-9-2.46-12.06s-19.73-.06-19.73-.06-3,13.4.06,19.73S37.34,53,39.94,50A8.52,8.52,0,0,0,43,52.29,7,7,0,0,0,52.29,43Z"/><path class="cls-7" d="M47.15,41.4a7.54,7.54,0,0,0-1.38-2.68c2.15-.93,3.87-4.41,0-7s-18-3.89-18-3.89,1.31,14.17,3.89,18,6.08,2.11,7,0a7.54,7.54,0,0,0,2.68,1.38A4.69,4.69,0,0,0,47.15,41.4Z"/><path class="cls-3" d="M39,43a3.78,3.78,0,0,0,4-4,8,8,0,0,0-2.91-5.37c-4.77-4.29-12.28-5.79-12.28-5.79s1.5,7.51,5.79,12.28A8,8,0,0,0,39,43Z"/><path class="cls-1" d="M43.31,16.57a9.8,9.8,0,0,1-2.47,9.28l-.2.19c-3.82,3.62-7.74,2.88-9.92,1.14A6.05,6.05,0,0,1,29,19.5a3.63,3.63,0,0,1,6.72,1.2,2.48,2.48,0,0,1-.39.51.52.52,0,0,1-.88-.28h0A2.4,2.4,0,0,0,33.3,19.3a2.37,2.37,0,0,0-2.85.37,2.46,2.46,0,0,0-.37.48,4.76,4.76,0,0,0,1.44,6c1.87,1.48,5,2,8.23-1.06l.17-.17a8.51,8.51,0,0,0,2.13-8.09,11.85,11.85,0,0,0-7.71-8.57c-5.27-1.73-11.2-.17-16.26,4.3-.47.41-1.56,1.46-2.9,2.8-.93.93-1.84,1.85-2.15,2.19-4.82,5.18-6.55,11.3-4.75,16.77a11.85,11.85,0,0,0,8.57,7.71A8.53,8.53,0,0,0,25,39.92l.16-.17c3-3.22,2.54-6.36,1.06-8.23a4.76,4.76,0,0,0-6-1.44,2.46,2.46,0,0,0-.48.37,2.37,2.37,0,0,0-.37,2.85,2.4,2.4,0,0,0,1.63,1.12h0a.52.52,0,0,1,.28.88,2.48,2.48,0,0,1-.51.39A3.63,3.63,0,0,1,19.5,29a6.05,6.05,0,0,1,7.68,1.75c1.74,2.18,2.48,6.1-1.14,9.92a9.76,9.76,0,0,1-9.47,2.67,13.2,13.2,0,0,1-9.52-8.57c-1.95-5.93-.11-12.51,5-18,.7-.75,4.07-4.15,5.13-5.08C22.64,6.84,29,5.18,34.74,7.05A13.2,13.2,0,0,1,43.31,16.57Z"/><path class="cls-2" d="M42.05,16.85a8.51,8.51,0,0,1-2.13,8.09l-.17.17c-3.22,3-6.36,2.54-8.23,1.06a4.76,4.76,0,0,1-1.44-6,2.46,2.46,0,0,1,.37-.48,2.37,2.37,0,0,1,2.85-.37,2.4,2.4,0,0,1,1.12,1.63h0a.52.52,0,0,0,.88.28,2.48,2.48,0,0,0,.39-.51,2.69,2.69,0,0,0,.52-2.54A5.94,5.94,0,0,0,32.48,14c-4.39-1.44-8.43,1.32-10.45,3.1-.75.66-3.91,3.81-4.61,4.58-1.93,2.08-5,6.25-3.45,10.83a5.94,5.94,0,0,0,4.19,3.73,2.69,2.69,0,0,0,2.54-.52,2.48,2.48,0,0,0,.51-.39.52.52,0,0,0-.28-.88h0A2.4,2.4,0,0,1,19.3,33.3a2.37,2.37,0,0,1,.37-2.85,2.46,2.46,0,0,1,.48-.37,4.76,4.76,0,0,1,6,1.44c1.48,1.87,2,5-1.06,8.23l-.16.17a8.53,8.53,0,0,1-8.1,2.13,11.85,11.85,0,0,1-8.57-7.71C6.48,28.87,8.21,22.75,13,17.57c.31-.34,1.22-1.26,2.15-2.19,1.34-1.34,2.43-2.39,2.9-2.8,5.06-4.47,11-6,16.26-4.3A11.85,11.85,0,0,1,42.05,16.85Z"/></g></g></svg>