<svg xmlns="http://www.w3.org/2000/svg" xmlns:xlink="http://www.w3.org/1999/xlink" viewBox="0 0 81.16 81.16"><defs><style>.cls-1{fill:none;}.cls-2{clip-path:url(#clip-path);}.cls-3,.cls-8{fill:#087565;}.cls-3{stroke:#6a3526;stroke-miterlimit:10;}.cls-4{fill:#6a3526;}.cls-5{fill:#005737;}.cls-6{fill:#925841;}.cls-7{fill:#2a4c59;}</style><clipPath id="clip-path" transform="translate(1.4 1.4)"><rect class="cls-1" width="83.57" height="83.57" transform="translate(83.57 83.57) rotate(180)"/></clipPath></defs><g id="图层_2" data-name="图层 2"><g id="文件图层"><g class="cls-2"><path class="cls-3" d="M22.57.94a24.6,24.6,0,0,1,3,.45h0A21.3,21.3,0,0,1,36.34,7.11,20.18,20.18,0,0,1,41.12,14c3.64,4.08,6.21,7.26,9.58,7.64A8.09,8.09,0,0,0,55.07,21a3.69,3.69,0,0,1,3.68.23A10,10,0,0,0,65.4,23a8.25,8.25,0,0,0,7.28-5.52,3.62,3.62,0,0,1,1.95-2.09c1.71-.71,4.33-2.52,4.6-6.94A11.74,11.74,0,0,0,76.16,0H20.77A11,11,0,0,1,22.57.94Z" transform="translate(1.4 1.4)"/><path class="cls-4" d="M0,10.66V0H10.66A17.35,17.35,0,0,0,4,4,17.35,17.35,0,0,0,0,10.66Z" transform="translate(1.4 1.4)"/><path class="cls-3" d="M16,41.68a2.93,2.93,0,0,1,1.56.8h0a7.38,7.38,0,0,0,8.1,1,6,6,0,0,1,4.91,0A9.88,9.88,0,0,0,43.54,30.61a6,6,0,0,1,0-4.91,7.38,7.38,0,0,0-1-8.1h0a2.93,2.93,0,0,1-.8-1.56c-.31-2-1.51-5.1-5.34-8.93C28.83-.4,18.56.93,18.56.93L17.12-.51-.51,17.12.93,18.56S-.4,28.83,7.11,36.34C10.94,40.17,14.05,41.37,16,41.68Z" transform="translate(1.4 1.4)"/><path class="cls-5" d="M18.28,3.21c2-.09,8.88,0,14,5.14,3.15,3.15,4.09,5.59,4.33,7.08a4.48,4.48,0,0,0,1.17,2.37,4.79,4.79,0,0,1,.66,5.32,7.42,7.42,0,0,0,0,6,7.1,7.1,0,0,1-9.29,9.29,7.42,7.42,0,0,0-6,0,4.79,4.79,0,0,1-5.32-.66,4.48,4.48,0,0,0-2.37-1.17c-1.49-.24-3.93-1.18-7.08-4.33-5.12-5.12-5.23-12-5.14-14Z" transform="translate(1.4 1.4)"/><path class="cls-4" d="M15.34,30.78a2,2,0,0,1,1,.56h0a4.85,4.85,0,0,0,5.17.92,3.84,3.84,0,0,1,3.12.17,5.75,5.75,0,0,0,7.78-7.78,3.84,3.84,0,0,1-.17-3.12,4.85,4.85,0,0,0-.92-5.17h0a2,2,0,0,1-.56-1c-.27-1.27-1.13-3.28-3.68-5.83A15.8,15.8,0,0,0,15.62,5L12.91,2.29,2.29,12.91,5,15.62A15.8,15.8,0,0,0,9.51,27.1C12.06,29.65,14.07,30.51,15.34,30.78Z" transform="translate(1.4 1.4)"/><circle class="cls-6" cx="29.19" cy="21.18" r="2.72"/><circle class="cls-6" cx="21.18" cy="29.19" r="2.72"/><circle class="cls-6" cx="27.73" cy="27.73" r="2.72"/><circle class="cls-6" cx="22.63" cy="22.63" r="2.72"/><path class="cls-3" d="M22.29,47.14a1.63,1.63,0,0,1,1.63-1.62c3.76-.05,10.44-1.6,11.35,3.65.56,3.18-1.83,4.35-3.29,4.77a1.83,1.83,0,0,0-1.27,1.27c-.41,1.45-1.59,3.84-4.77,3.29C20.69,57.58,22.25,50.9,22.29,47.14Z" transform="translate(1.4 1.4)"/><path class="cls-7" d="M24.34,48.22a.69.69,0,0,1,.66-.65l1.19-.08c4.55-.32,6.65-.1,7,2a1.66,1.66,0,0,1-.37,1.65,4.12,4.12,0,0,1-2.11.9l-1,.09a.89.89,0,0,0-.8.8l-.09,1A4.09,4.09,0,0,1,28,56.07a1.67,1.67,0,0,1-1.65.37c-2.14-.38-2.36-2.47-2-7C24.29,49,24.32,48.61,24.34,48.22Z" transform="translate(1.4 1.4)"/><path class="cls-3" d="M47.14,22.29a1.63,1.63,0,0,0-1.62,1.63c-.05,3.76-1.6,10.44,3.65,11.35,3.18.56,4.35-1.83,4.77-3.29a1.83,1.83,0,0,1,1.27-1.27c1.45-.41,3.84-1.59,3.29-4.77C57.58,20.69,50.9,22.25,47.14,22.29Z" transform="translate(1.4 1.4)"/><path class="cls-7" d="M48.22,24.34a.69.69,0,0,0-.65.66c0,.38,0,.78-.08,1.19-.32,4.55-.1,6.65,2,7a1.66,1.66,0,0,0,1.65-.37,4.12,4.12,0,0,0,.9-2.11l.09-1a.89.89,0,0,1,.8-.8l1-.09A4.09,4.09,0,0,0,56.07,28a1.67,1.67,0,0,0,.37-1.65c-.38-2.14-2.47-2.36-7-2Z" transform="translate(1.4 1.4)"/><path class="cls-3" d="M.94,22.57A11,11,0,0,1,0,20.77,14.59,14.59,0,0,1,0,10.66,17.35,17.35,0,0,1,4,4a17.35,17.35,0,0,1,6.63-4A14.59,14.59,0,0,1,20.77,0a11,11,0,0,1,1.8.94,10.91,10.91,0,0,1,3,2.85,7.67,7.67,0,0,1,.52.64h0A8.82,8.82,0,0,1,27.55,10a9.52,9.52,0,0,1-3.26,6.8,6,6,0,0,1-5.58,1.16,4.88,4.88,0,0,1-2-1.19c-1.75-1.75-1.76-4.68,0-7a1.44,1.44,0,0,0,.18-1.49c-.28-.53-.85-.84-2.16-1a4.35,4.35,0,0,0-.48,0,6.14,6.14,0,0,0-2.86.45,7.16,7.16,0,0,0-3.8,3.8,6.14,6.14,0,0,0-.45,2.86,4.35,4.35,0,0,0,0,.48c.14,1.31.45,1.88,1,2.16a1.44,1.44,0,0,0,1.49-.18c2.34-1.79,5.27-1.78,7,0a4.88,4.88,0,0,1,1.19,2,6,6,0,0,1-1.16,5.58A9.52,9.52,0,0,1,10,27.55a8.82,8.82,0,0,1-5.53-1.46h0a7.67,7.67,0,0,1-.64-.52A10.91,10.91,0,0,1,.94,22.57Z" transform="translate(1.4 1.4)"/><path class="cls-7" d="M5.83,5.83a14.84,14.84,0,0,1,11-4.16,8.7,8.7,0,0,1,6.66,3.61l.08.11.08.09c2,2.26,1.72,6.63-.64,9l-.38.35a3.41,3.41,0,0,1-3.16.7,2.39,2.39,0,0,1-1-.58c-.84-.84-.73-2.39.26-3.68a4,4,0,0,0,.42-4.19,5.07,5.07,0,0,0-4.13-2.35,8.93,8.93,0,0,0-4.62.59A9.62,9.62,0,0,0,5.3,10.46a8.88,8.88,0,0,0-.59,4.61c.1.83.35,3.05,2.31,4.1a4,4,0,0,0,4.22-.38c1.3-1,2.85-1.11,3.69-.27a2.39,2.39,0,0,1,.58,1,3.44,3.44,0,0,1-.7,3.17l-.35.37c-2.35,2.36-6.72,2.67-9,.64l-.09-.08-.11-.08a8.7,8.7,0,0,1-3.61-6.66A14.84,14.84,0,0,1,5.83,5.83Z" transform="translate(1.4 1.4)"/><path class="cls-4" d="M72,0H34c2.39,2.82,11.41,12.71,21,13.37,11.2.78,12.68-6.44,12.68-6.44A7.16,7.16,0,0,0,72,0Z" transform="translate(1.4 1.4)"/><path class="cls-5" d="M72.94,0H72a7.16,7.16,0,0,1-4.34,6.93S66.21,14.15,55,13.37C45.41,12.71,36.39,2.82,34,0H29A40.56,40.56,0,0,1,40.4,8.49c4.33,4.51,6.81,8.43,10.28,8.83a7,7,0,0,0,3.69-.55,3.13,3.13,0,0,1,3.12.2,8.41,8.41,0,0,0,5.61,1.47,7,7,0,0,0,6.16-4.67A3,3,0,0,1,70.9,12a6.34,6.34,0,0,0,3.9-5.88A9.66,9.66,0,0,0,72.94,0Z" transform="translate(1.4 1.4)"/><path class="cls-8" d="M41.74,2.88a15.94,15.94,0,0,0,3.71,4.41,17.4,17.4,0,0,0,5.2,3,13.93,13.93,0,0,0,6.57.74c.58-.1,1.15-.23,1.71-.38A13.64,13.64,0,0,0,60.57,10c.26-.13.53-.25.78-.39s.48-.33.72-.5A12.79,12.79,0,0,0,63.38,8a4.15,4.15,0,0,0,0-5.86,4.11,4.11,0,0,0-3.3-1.2l-1.36.13a25.37,25.37,0,0,0-3.13.68,25.25,25.25,0,0,1-3.45.6A28.49,28.49,0,0,1,47.8,2.2c-1.56-.14-3.23-.44-4.95-.71l-.12,0a1,1,0,0,0-1.09.8A.91.91,0,0,0,41.74,2.88Z" transform="translate(1.4 1.4)"/><path class="cls-7" d="M45.09,4a18.86,18.86,0,0,0,1.74,1.7,15.51,15.51,0,0,0,4.55,2.62,11.93,11.93,0,0,0,5.54.62q.59-.11,1.5-.33a9.38,9.38,0,0,0,1-.42L59.77,8l.52-.25.45-.32.08-.06a10.31,10.31,0,0,0,1.07-.9,2,2,0,0,0-1.62-3.45l-1.34.12a10.56,10.56,0,0,0-1.69.35c-.4.11-.8.22-1.22.31q-.36.06-.72.15a20,20,0,0,1-3,.48,30.59,30.59,0,0,1-4.71-.16C46.77,4.23,45.94,4.12,45.09,4Z" transform="translate(1.4 1.4)"/><circle class="cls-6" cx="68.71" cy="4.36" r="2.2"/><path class="cls-3" d="M.94,22.57a24.6,24.6,0,0,0,.45,3v0A21.3,21.3,0,0,0,7.11,36.34,20.18,20.18,0,0,0,14,41.12c4.08,3.64,7.26,6.21,7.64,9.58A8.09,8.09,0,0,1,21,55.07a3.69,3.69,0,0,0,.23,3.68A10,10,0,0,1,23,65.4a8.25,8.25,0,0,1-5.52,7.28,3.62,3.62,0,0,0-2.09,1.95c-.71,1.71-2.52,4.33-6.94,4.6A11.74,11.74,0,0,1,0,76.16V20.77A11,11,0,0,0,.94,22.57Z" transform="translate(1.4 1.4)"/><path class="cls-4" d="M0,72V34c2.82,2.39,12.71,11.41,13.37,21,.78,11.2-6.44,12.68-6.44,12.68A7.16,7.16,0,0,1,0,72Z" transform="translate(1.4 1.4)"/><path class="cls-5" d="M0,72.94V72a7.16,7.16,0,0,0,6.93-4.34S14.15,66.21,13.37,55C12.71,45.41,2.82,36.39,0,34V29A40.56,40.56,0,0,0,8.49,40.4c4.51,4.33,8.43,6.81,8.83,10.28a7,7,0,0,1-.55,3.69,3.13,3.13,0,0,0,.2,3.12,8.41,8.41,0,0,1,1.47,5.61,7,7,0,0,1-4.67,6.16A3,3,0,0,0,12,70.9a6.34,6.34,0,0,1-5.88,3.9A9.66,9.66,0,0,1,0,72.94Z" transform="translate(1.4 1.4)"/><path class="cls-8" d="M2.88,41.74a15.94,15.94,0,0,1,4.41,3.71,17.4,17.4,0,0,1,3,5.2A13.93,13.93,0,0,1,11,57.22c-.1.58-.23,1.15-.38,1.71A13.64,13.64,0,0,1,10,60.57c-.13.26-.25.53-.39.78s-.33.48-.5.72A12.79,12.79,0,0,1,8,63.38a4.15,4.15,0,0,1-5.86,0,4.11,4.11,0,0,1-1.2-3.3l.13-1.36a25.37,25.37,0,0,1,.68-3.13,25.25,25.25,0,0,0,.6-3.45A28.49,28.49,0,0,0,2.2,47.8c-.14-1.56-.44-3.23-.71-4.95l0-.12a1,1,0,0,1,.8-1.09A.91.91,0,0,1,2.88,41.74Z" transform="translate(1.4 1.4)"/><path class="cls-7" d="M4,45.09a18.86,18.86,0,0,1,1.7,1.74,15.51,15.51,0,0,1,2.62,4.55,11.93,11.93,0,0,1,.62,5.54q-.11.59-.33,1.5a9.38,9.38,0,0,1-.42,1L8,59.77c-.08.17-.16.35-.25.52l-.32.45-.06.08a10.31,10.31,0,0,1-.9,1.07,2,2,0,0,1-3.45-1.62l.12-1.34a10.56,10.56,0,0,1,.35-1.69c.11-.4.22-.8.31-1.22q.06-.36.15-.72a20,20,0,0,0,.48-3,30.59,30.59,0,0,0-.16-4.71C4.23,46.77,4.12,45.94,4,45.09Z" transform="translate(1.4 1.4)"/><circle class="cls-6" cx="4.36" cy="68.71" r="2.2"/></g></g></g></svg>