<svg xmlns="http://www.w3.org/2000/svg" viewBox="0 0 142.52 142.52"><defs><style>.cls-1{fill:#fffde3;}.cls-2{fill:#632819;}.cls-3{fill:#345a49;}.cls-4{fill:#33a07f;}.cls-5{fill:#8bc6af;}.cls-6{fill:#352f2d;}.cls-7{fill:#f9d0a7;}.cls-8{fill:#0d7bab;}.cls-9{fill:#005882;}.cls-10{fill:none;stroke:#fffde3;stroke-linecap:round;stroke-linejoin:round;stroke-width:1.01px;}</style></defs><g id="图层_2" data-name="图层 2"><g id="文件图层"><path class="cls-1" d="M110,61.05c.3-.42.58-.86.84-1.3a3,3,0,0,0,.4.12,3.29,3.29,0,0,0,.5.12l.4.07a7.08,7.08,0,0,0,2.11,0,6.3,6.3,0,0,0,1.35-.38,4.68,4.68,0,0,0,.45-.19l.42-.22a6.88,6.88,0,0,0,2.25-2,7,7,0,0,0,8.13-4.5,8.68,8.68,0,0,0,.25-.91,7,7,0,0,0,4.57-13A9.1,9.1,0,0,0,132,38a7,7,0,0,0-3.52-8.6,7,7,0,0,0-4.62-6.89c.07-.5.12-1,.15-1.54l.3.09A8.58,8.58,0,0,1,130,28.48a8.52,8.52,0,0,1,3.55,9.75,8.5,8.5,0,0,1-5.37,15.26,8.51,8.51,0,0,1-8.87,5.39,8.54,8.54,0,0,1-9.07,2.27Z"/><path class="cls-2" d="M113.6,51.75c0-.25.07-.49.09-.74,0-.43.07-.84.08-1.26s0-.64,0-1,0-.63,0-.93h0l.1-.13c.12-.2.22-.4.32-.6s.12-.28.19-.41a2.74,2.74,0,0,0,.4.15A.54.54,0,0,0,115,47a6.21,6.21,0,1,0,4.12-11.72l-.23-.07-.42-.11.12-.44a4.76,4.76,0,0,0,.11-.62c0-.13,0-.26,0-.39h0c.2-.22.42-.45.62-.69l0,0,.59-.74.46-.63c.23-.34.45-.69.67-1.06A7.49,7.49,0,0,1,122.13,35a7.45,7.45,0,0,1-4.91,14A7.38,7.38,0,0,1,113.6,51.75Z"/><path class="cls-3" d="M112.63,55.8a19.7,19.7,0,0,0,.85-3.24q.08-.41.12-.81a7.38,7.38,0,0,0,3.62-2.82,7.45,7.45,0,0,0,4.91-14,7.49,7.49,0,0,0-1.07-4.52c.14-.24.28-.48.42-.74a19.12,19.12,0,0,0,1.33-3,5.56,5.56,0,0,1,2,4.57,5.58,5.58,0,0,1,2.82,6.87,4.93,4.93,0,0,1-.3.67,5.57,5.57,0,0,1-3.65,10.39,4.52,4.52,0,0,1-.2.72,5.55,5.55,0,0,1-6.47,3.59,5.7,5.7,0,0,1-.56.64,4.64,4.64,0,0,1-.4.36,2.57,2.57,0,0,1-.37.28A5.59,5.59,0,0,1,112.63,55.8Z"/><path class="cls-4" d="M111.78,57.88a20.21,20.21,0,0,0,.85-2.08,5.59,5.59,0,0,0,3.1-1,2.57,2.57,0,0,0,.37-.28,4.64,4.64,0,0,0,.4-.36,5.7,5.7,0,0,0,.56-.64,5.55,5.55,0,0,0,6.47-3.59,4.52,4.52,0,0,0,.2-.72,5.57,5.57,0,0,0,3.65-10.39,4.93,4.93,0,0,0,.3-.67,5.58,5.58,0,0,0-2.82-6.87,5.56,5.56,0,0,0-2-4.57,19.28,19.28,0,0,0,.65-2.15,5.58,5.58,0,0,1,.6.39,4.35,4.35,0,0,1,.51.41,6.29,6.29,0,0,1,1.4,1.81,4.39,4.39,0,0,1,.21.44,6.81,6.81,0,0,1,.41,1.4,8.36,8.36,0,0,1,.08,1.32,6.28,6.28,0,0,1,3.17,7.73,7.43,7.43,0,0,1-.33.77,6.27,6.27,0,0,1-4.12,11.71,4.66,4.66,0,0,1-.23.81,6.26,6.26,0,0,1-7.29,4,6.31,6.31,0,0,1-.64.73l-.32.29a2.17,2.17,0,0,1-.32.27l-.42.3-.32.18A6.27,6.27,0,0,1,111.78,57.88Z"/><path class="cls-5" d="M110.79,59.75a19.81,19.81,0,0,0,1-1.87,6.27,6.27,0,0,0,4.07-.72l.32-.18.42-.3a2.17,2.17,0,0,0,.32-.27l.32-.29a6.31,6.31,0,0,0,.64-.73,6.26,6.26,0,0,0,7.29-4,4.66,4.66,0,0,0,.23-.81,6.27,6.27,0,0,0,4.12-11.71,7.43,7.43,0,0,0,.33-.77,6.28,6.28,0,0,0-3.17-7.73,8.36,8.36,0,0,0-.08-1.32,6.81,6.81,0,0,0-.41-1.4,3.55,3.55,0,0,0-.21-.44,6.29,6.29,0,0,0-1.4-1.81,4.35,4.35,0,0,0-.51-.41,5.58,5.58,0,0,0-.6-.39c.16-.66.29-1.36.39-2.07a7,7,0,0,1,4.62,6.89A7,7,0,0,1,132,38a9.1,9.1,0,0,1-.37.85,7,7,0,0,1-4.57,13,8.68,8.68,0,0,1-.25.91,7,7,0,0,1-8.13,4.5,6.88,6.88,0,0,1-2.25,2l-.42.22a4.68,4.68,0,0,1-.45.19,6.9,6.9,0,0,1-3.46.42l-.4-.07a3.29,3.29,0,0,1-.5-.12A3,3,0,0,1,110.79,59.75Z"/><path class="cls-6" d="M106.45,37.27c4,1.41,8.64.17,12.24-3.67,0,.13,0,.26,0,.39a4.76,4.76,0,0,1-.11.62l-.12.44.42.11.23.07A6.21,6.21,0,1,1,115,47a.54.54,0,0,1-.22-.09,2.74,2.74,0,0,1-.4-.15c-.07.13-.12.27-.19.41s-.2.4-.32.6l-.1.13C113.34,42.56,110.52,38.69,106.45,37.27Z"/><path class="cls-6" d="M121.45,8A34.84,34.84,0,0,0,116.58,0h11.59A5.18,5.18,0,0,1,123,5.18h-.19a1.53,1.53,0,0,1-.37,0c0,.12,0,.25,0,.38A5.2,5.2,0,0,1,121.45,8Z"/><path class="cls-2" d="M122.69,11.2A33.09,33.09,0,0,0,121.45,8a5.2,5.2,0,0,0,1-2.42c0-.13,0-.26,0-.38a1.53,1.53,0,0,0,.37,0H123A5.18,5.18,0,0,0,128.17,0h4a7,7,0,0,1-6.3,7,6.93,6.93,0,0,1-2.19,3.5,1.22,1.22,0,0,1-.17.15l-.27.21A3.25,3.25,0,0,1,122.69,11.2Z"/><path class="cls-3" d="M123.6,14.61c-.12-.64-.27-1.28-.45-1.93-.14-.49-.29-1-.46-1.48a3.25,3.25,0,0,0,.55-.36l.27-.21a1.22,1.22,0,0,0,.17-.15A6.93,6.93,0,0,0,125.87,7a7,7,0,0,0,6.3-7h4a5.25,5.25,0,0,1-4.47,5.18,5.22,5.22,0,0,1-4.59,5.91,5.21,5.21,0,0,1-1.58,2.44l-.18.15-.33.24c-.14.09-.26.18-.41.26s-.51.24-.77.34Z"/><path class="cls-4" d="M123.93,16.59a19.94,19.94,0,0,0-.33-2l.27-.08c.26-.1.52-.22.77-.34s.27-.17.41-.26l.33-.24.18-.15a5.21,5.21,0,0,0,1.58-2.44,5.22,5.22,0,0,0,4.59-5.91A5.25,5.25,0,0,0,136.2,0h2.44a5.9,5.9,0,0,1-5,5.84,5,5,0,0,1,.06.78,5.93,5.93,0,0,1-5.22,5.88,5.9,5.9,0,0,1-.6,1.33,6.1,6.1,0,0,1-.4.59,5.88,5.88,0,0,1-1.13,1.1,4.89,4.89,0,0,1-.72.46,2.22,2.22,0,0,1-.41.2,3.56,3.56,0,0,1-.49.19l-.26.09A2.91,2.91,0,0,1,123.93,16.59Z"/><path class="cls-5" d="M124.05,18.56a18.92,18.92,0,0,0-.12-2,2.91,2.91,0,0,0,.51-.12l.26-.09a3.56,3.56,0,0,0,.49-.19,2.22,2.22,0,0,0,.41-.2,4.89,4.89,0,0,0,.72-.46,5.61,5.61,0,0,0,1.13-1.1,3.59,3.59,0,0,0,.4-.59,5.9,5.9,0,0,0,.6-1.33,5.93,5.93,0,0,0,5.22-5.88,5,5,0,0,0-.06-.78,5.9,5.9,0,0,0,5-5.84h2.45A6.57,6.57,0,0,1,135.5,6.5c0,.3.05.57.06.88a6.57,6.57,0,0,1-5.81,6.52,6.84,6.84,0,0,1-1.66,2.76c-.15.14-.31.29-.47.42s-.32.25-.5.37a.1.1,0,0,1-.05,0c-.14.1-.31.19-.46.28l-.09.05a2.48,2.48,0,0,1-.37.17,2.52,2.52,0,0,1-.41.17c-.15.07-.31.11-.46.17l-.28.06-.35.08Q124.35,18.53,124.05,18.56Z"/><path class="cls-1" d="M124.06,20c0-.47,0-.94,0-1.41q.3,0,.6-.09l.35-.08.28-.06c.15-.06.31-.1.46-.17a2.52,2.52,0,0,0,.41-.17,2.48,2.48,0,0,0,.37-.17l.09-.05c.15-.09.32-.18.46-.28a.1.1,0,0,0,.05,0c.18-.12.34-.24.5-.37s.32-.28.47-.42a6.84,6.84,0,0,0,1.66-2.76,6.57,6.57,0,0,0,5.81-6.52c0-.31,0-.58-.06-.88A6.57,6.57,0,0,0,141.09,0h1.43A8.1,8.1,0,0,1,137,7.62a8,8,0,0,1-6.18,7.55A8,8,0,0,1,124.06,20Z"/><path class="cls-1" d="M61.05,110c-.42.3-.86.58-1.3.84a3,3,0,0,1,.12.4,3.29,3.29,0,0,1,.12.5c0,.14,0,.27.07.4a7.08,7.08,0,0,1,0,2.11,6.3,6.3,0,0,1-.38,1.35,4.68,4.68,0,0,1-.19.45l-.22.42a6.88,6.88,0,0,1-2,2.25,7,7,0,0,1-4.5,8.13,8.68,8.68,0,0,1-.91.25,7,7,0,0,1-13,4.57A9.1,9.1,0,0,1,38,132a7,7,0,0,1-8.6-3.52,7,7,0,0,1-6.89-4.62c-.5.07-1,.12-1.54.15l.09.3A8.58,8.58,0,0,0,28.48,130a8.52,8.52,0,0,0,9.75,3.55,8.5,8.5,0,0,0,15.26-5.37,8.51,8.51,0,0,0,5.39-8.87,8.54,8.54,0,0,0,2.27-9.07A2.6,2.6,0,0,0,61.05,110Z"/><path class="cls-2" d="M51.75,113.6c-.25,0-.49.07-.74.09-.43,0-.84.07-1.26.08h-1l-.93,0h0l-.13.1c-.2.12-.4.22-.6.32l-.41.19a2.74,2.74,0,0,1,.15.4A.54.54,0,0,1,47,115a6.21,6.21,0,1,1-11.72,4.12,2,2,0,0,1-.07-.23c0-.13-.08-.28-.11-.42l-.44.12a4.76,4.76,0,0,1-.62.11c-.13,0-.26,0-.39,0h0c-.22.2-.45.42-.69.62l0,0-.74.59-.63.46c-.34.23-.69.45-1.06.67A7.49,7.49,0,0,0,35,122.13a7.45,7.45,0,0,0,14-4.91A7.38,7.38,0,0,0,51.75,113.6Z"/><path class="cls-3" d="M55.8,112.63a19.7,19.7,0,0,1-3.24.85q-.41.08-.81.12a7.38,7.38,0,0,1-2.82,3.62,7.45,7.45,0,0,1-14,4.91,7.49,7.49,0,0,1-4.52-1.07l-.74.42a19.12,19.12,0,0,1-3,1.33,5.56,5.56,0,0,0,4.57,2,5.58,5.58,0,0,0,6.87,2.82,4.93,4.93,0,0,0,.67-.3,5.57,5.57,0,0,0,10.39-3.65,4.52,4.52,0,0,0,.72-.2,5.55,5.55,0,0,0,3.59-6.47,5.7,5.7,0,0,0,.64-.56,4.64,4.64,0,0,0,.36-.4,2.57,2.57,0,0,0,.28-.37A5.59,5.59,0,0,0,55.8,112.63Z"/><path class="cls-4" d="M57.88,111.78a20.21,20.21,0,0,1-2.08.85,5.59,5.59,0,0,1-1,3.1,2.57,2.57,0,0,1-.28.37,4.64,4.64,0,0,1-.36.4,5.7,5.7,0,0,1-.64.56,5.55,5.55,0,0,1-3.59,6.47,4.52,4.52,0,0,1-.72.2,5.57,5.57,0,0,1-10.39,3.65,4.93,4.93,0,0,1-.67.3,5.58,5.58,0,0,1-6.87-2.82,5.56,5.56,0,0,1-4.57-2,19.28,19.28,0,0,1-2.15.65,5.58,5.58,0,0,0,.39.6,4.35,4.35,0,0,0,.41.51,6.29,6.29,0,0,0,1.81,1.4,4.39,4.39,0,0,0,.44.21,6.81,6.81,0,0,0,1.4.41,8.36,8.36,0,0,0,1.32.08,6.28,6.28,0,0,0,7.73,3.17,7.43,7.43,0,0,0,.77-.33,6.27,6.27,0,0,0,11.71-4.12,4.66,4.66,0,0,0,.81-.23,6.26,6.26,0,0,0,4-7.29,6.31,6.31,0,0,0,.73-.64c.1-.1.19-.2.29-.32a2.17,2.17,0,0,0,.27-.32l.3-.42.18-.32A6.27,6.27,0,0,0,57.88,111.78Z"/><path class="cls-5" d="M59.75,110.79a19.81,19.81,0,0,1-1.87,1,6.27,6.27,0,0,1-.72,4.07l-.18.32-.3.42a2.17,2.17,0,0,1-.27.32c-.1.12-.19.22-.29.32a6.31,6.31,0,0,1-.73.64,6.26,6.26,0,0,1-4,7.29,4.66,4.66,0,0,1-.81.23,6.27,6.27,0,0,1-11.71,4.12,7.43,7.43,0,0,1-.77.33,6.28,6.28,0,0,1-7.73-3.17,8.36,8.36,0,0,1-1.32-.08,6.81,6.81,0,0,1-1.4-.41,3.55,3.55,0,0,1-.44-.21,6.29,6.29,0,0,1-1.81-1.4,4.35,4.35,0,0,1-.41-.51,5.58,5.58,0,0,1-.39-.6c-.66.16-1.36.29-2.07.39a7,7,0,0,0,6.89,4.62A7,7,0,0,0,38,132a9.1,9.1,0,0,0,.85-.37,7,7,0,0,0,13-4.57,8.68,8.68,0,0,0,.91-.25,7,7,0,0,0,4.5-8.13,6.88,6.88,0,0,0,2-2.25l.22-.42a4.68,4.68,0,0,0,.19-.45,6.9,6.9,0,0,0,.42-3.46c0-.13,0-.26-.07-.4a3.29,3.29,0,0,0-.12-.5A3,3,0,0,0,59.75,110.79Z"/><path class="cls-6" d="M37.27,106.45c1.41,4,.17,8.64-3.67,12.24.13,0,.26,0,.39,0a4.76,4.76,0,0,0,.62-.11l.44-.12c0,.14.07.29.11.42a2,2,0,0,0,.07.23A6.21,6.21,0,1,0,47,115a.54.54,0,0,0-.09-.22,2.74,2.74,0,0,0-.15-.4l.41-.19c.2-.1.4-.2.6-.32l.13-.1C42.56,113.34,38.69,110.52,37.27,106.45Z"/><path class="cls-6" d="M8,121.45A34.84,34.84,0,0,1,0,116.58v11.59A5.18,5.18,0,0,0,5.18,123a1.15,1.15,0,0,0,0-.19,1.53,1.53,0,0,0,0-.37l.38,0A5.2,5.2,0,0,0,8,121.45Z"/><path class="cls-2" d="M11.2,122.69A33.09,33.09,0,0,1,8,121.45a5.2,5.2,0,0,1-2.42,1l-.38,0a1.53,1.53,0,0,1,0,.37,1.15,1.15,0,0,1,0,.19A5.18,5.18,0,0,1,0,128.17v4a7,7,0,0,0,7-6.3,6.93,6.93,0,0,0,3.5-2.19,1.22,1.22,0,0,0,.15-.17c.07-.09.15-.18.21-.27A3.25,3.25,0,0,0,11.2,122.69Z"/><path class="cls-3" d="M14.61,123.6c-.64-.12-1.28-.27-1.93-.45-.49-.14-1-.29-1.48-.46a3.25,3.25,0,0,1-.36.55c-.06.09-.14.18-.21.27a1.22,1.22,0,0,1-.15.17A6.93,6.93,0,0,1,7,125.87a7,7,0,0,1-7,6.3v4a5.25,5.25,0,0,0,5.18-4.47,5.22,5.22,0,0,0,5.91-4.59,5.21,5.21,0,0,0,2.44-1.58l.15-.18a3.43,3.43,0,0,0,.24-.33c.09-.14.18-.26.26-.41s.24-.51.34-.77C14.56,123.78,14.58,123.69,14.61,123.6Z"/><path class="cls-4" d="M16.59,123.93a19.94,19.94,0,0,1-2-.33c0,.09,0,.18-.08.27-.1.26-.22.52-.34.77s-.17.27-.26.41a3.43,3.43,0,0,1-.24.33l-.15.18a5.21,5.21,0,0,1-2.44,1.58,5.22,5.22,0,0,1-5.91,4.59A5.25,5.25,0,0,1,0,136.2v2.44a5.9,5.9,0,0,0,5.84-5,5,5,0,0,0,.78.06,5.93,5.93,0,0,0,5.88-5.22,5.9,5.9,0,0,0,1.33-.6,6.1,6.1,0,0,0,.59-.4,5.88,5.88,0,0,0,1.1-1.13,4.89,4.89,0,0,0,.46-.72,2.22,2.22,0,0,0,.2-.41,3.56,3.56,0,0,0,.19-.49l.09-.26A2.91,2.91,0,0,0,16.59,123.93Z"/><path class="cls-5" d="M18.56,124.05a18.92,18.92,0,0,1-2-.12,2.91,2.91,0,0,1-.12.51l-.09.26a3.56,3.56,0,0,1-.19.49,2.22,2.22,0,0,1-.2.41,4.89,4.89,0,0,1-.46.72,5.61,5.61,0,0,1-1.1,1.13,3.59,3.59,0,0,1-.59.4,5.9,5.9,0,0,1-1.33.6,5.93,5.93,0,0,1-5.88,5.22,5,5,0,0,1-.78-.06,5.9,5.9,0,0,1-5.84,5v2.45A6.57,6.57,0,0,0,6.5,135.5c.3,0,.57.05.88.06a6.57,6.57,0,0,0,6.52-5.81,6.84,6.84,0,0,0,2.76-1.66c.14-.15.29-.31.42-.47s.25-.32.37-.5a.1.1,0,0,0,0-.05c.1-.14.19-.31.28-.46a.36.36,0,0,1,.05-.09,2.48,2.48,0,0,0,.17-.37,2.52,2.52,0,0,0,.17-.41c.07-.15.11-.31.17-.46l.06-.28a3.59,3.59,0,0,0,.08-.35Q18.53,124.35,18.56,124.05Z"/><path class="cls-1" d="M20,124.06c-.47,0-.94,0-1.41,0q0,.3-.09.6a3.59,3.59,0,0,1-.08.35l-.06.28c-.06.15-.1.31-.17.46a2.52,2.52,0,0,1-.17.41,2.48,2.48,0,0,1-.17.37.36.36,0,0,0-.05.09c-.09.15-.18.32-.28.46a.1.1,0,0,1,0,.05c-.12.18-.24.34-.37.5s-.28.32-.42.47a6.84,6.84,0,0,1-2.76,1.66,6.57,6.57,0,0,1-6.52,5.81c-.31,0-.58,0-.88-.06A6.57,6.57,0,0,1,0,141.09v1.43A8.1,8.1,0,0,0,7.62,137a8,8,0,0,0,7.55-6.18A8,8,0,0,0,20,124.06Z"/><path class="cls-7" d="M61.72,74.16a6.79,6.79,0,0,1-4.87-1.91c-6.34,5.15-14.09,1.52-15.08-4.45-5.86,1.38-9.62-1.53-10.83-5.77a21.91,21.91,0,0,1-3.24.83,29.67,29.67,0,0,1-5.34.47c2.45,4.94-.4,9.7-2.08,11.44,2.66,6.11-.4,11.67-6.26,13.6C13.1,96.24,6.53,100.57,1,101.65c4.4,6.59,9.75,9.82,14.86,11.09,8.25,2,11.57-2.13,11-3.43a2.89,2.89,0,0,1-2.41.93h0a3.58,3.58,0,0,1-1.41-.33,4.91,4.91,0,0,1-1.73-1.34h0a5.29,5.29,0,0,1-1.05-4.1c.46-4,5.12-6.93,9.79-5.89,4,.87,5.7,3.24,7.33,7.89-1.63-4.65-1.77-7.57.8-10.74,3-3.72,8.48-4.35,11.33-1.49a5.28,5.28,0,0,1,1.74,3.85,4.91,4.91,0,0,1-.52,2.15,3.81,3.81,0,0,1-.89,1.13s0,0,0,0a2.88,2.88,0,0,1-2.46.78c.35,1.39,5.53,2.59,10.7-4.15C61.92,92.84,64.28,85.11,61.72,74.16Z"/><path class="cls-8" d="M68.79,72.52c-1.3.27-2.56.7-3.81,1.06,2.94,12.65-.32,21.1-4.42,26.42-5.53,7.21-11,6.68-12.54,6.36a4.92,4.92,0,0,1-4-3.44,3.72,3.72,0,0,1,3.09-4.53c2.42-.44,3.37,1.88,2.6,3a3.81,3.81,0,0,0,.89-1.13,4.91,4.91,0,0,0,.52-2.15A4.4,4.4,0,0,0,46,94.58,7.76,7.76,0,0,0,40.78,98a7.57,7.57,0,0,0-.76,6c.82,3.21,3.62,5.49,7.18,6.24,2.11.46,9.56,1.22,16.5-7.81C68.39,96.32,72.17,86.72,68.79,72.52Z"/><path class="cls-9" d="M65,73.58a12.93,12.93,0,0,1-3.26.58c2.56,11,.2,18.68-3.77,23.84-5.17,6.74-10.35,5.54-10.7,4.15a2.88,2.88,0,0,0,2.46-.78s0,0,0,0c.77-1.08-.18-3.4-2.6-3A3.72,3.72,0,0,0,44,102.92a4.92,4.92,0,0,0,4,3.44c1.55.32,7,.85,12.54-6.36C64.66,94.68,67.92,86.23,65,73.58Z"/><path class="cls-8" d="M29.26,102.05a7.7,7.7,0,0,0-6.22.57,4.37,4.37,0,0,0-1.84,5.93h0a4.91,4.91,0,0,0,1.73,1.34,3.58,3.58,0,0,0,1.41.33c-1.27-.35-2-2.75.18-3.93a3.71,3.71,0,0,1,5.24,1.62,5,5,0,0,1-1,5.17c-1,1.2-5,5-13.78,2.84A27.28,27.28,0,0,1,0,106v5.93a30.64,30.64,0,0,0,14.07,7.87c11.06,2.73,16.4-2.52,17.78-4.19,2.3-2.8,3.09-6.33,1.72-9.35A7.49,7.49,0,0,0,29.26,102.05Z"/><path class="cls-9" d="M24.53,106.3c-2.18,1.18-1.45,3.58-.18,3.93h0a2.89,2.89,0,0,0,2.41-.93c.61,1.3-2.71,5.47-11,3.43-5.11-1.27-10.46-4.5-14.86-11.09L0,101.8V106a27.28,27.28,0,0,0,15,10c8.82,2.19,12.77-1.64,13.78-2.84a5,5,0,0,0,1-5.17A3.71,3.71,0,0,0,24.53,106.3Z"/><path class="cls-1" d="M29.94,98.56c-4.67-1-9.33,1.88-9.79,5.89a5.29,5.29,0,0,0,1.05,4.1A4.37,4.37,0,0,1,23,102.62a7.7,7.7,0,0,1,6.22-.57,7.49,7.49,0,0,1,4.32,4.19c1.37,3,.58,6.55-1.72,9.35-1.38,1.67-6.72,6.92-17.78,4.19A30.64,30.64,0,0,1,0,111.91v4.67a34.87,34.87,0,0,0,12.67,6.57,22.58,22.58,0,0,0,17-1.67c6.81-3.73,9.4-9.82,7.58-15C35.64,101.8,33.92,99.43,29.94,98.56Z"/><path class="cls-1" d="M72.38,72.38a9.28,9.28,0,0,0-3.57.14c3.36,14.2-.42,23.8-5.11,29.89-6.94,9-14.38,8.26-16.5,7.81-3.56-.75-6.37-3-7.18-6.23a7.57,7.57,0,0,1,.76-6A7.8,7.8,0,0,1,46,94.58a4.4,4.4,0,0,1,5.15,3.49,5.28,5.28,0,0,0-1.74-3.85c-2.85-2.86-8.32-2.23-11.33,1.49-2.57,3.17-2.43,6.09-.8,10.74,1.82,5.21,7.64,8.36,15.29,7a22.54,22.54,0,0,0,14.34-9.3C74.18,94.08,74.71,82.19,72.38,72.38Z"/><path class="cls-2" d="M37.55,85.18A7.4,7.4,0,0,0,23.74,90a7.41,7.41,0,0,0-3.8,9.12,7.14,7.14,0,0,0,1.4,2.41,7.63,7.63,0,0,1,2.3-2,8.89,8.89,0,0,1,2.41-.94,8.76,8.76,0,0,1,3-.16,7,7,0,0,1,.9.15,9.32,9.32,0,0,1,2.61,1l.35.22a3.88,3.88,0,0,1,.58.42,8,8,0,0,1,1.84,2.06,19.38,19.38,0,0,1,2,4.24,18.79,18.79,0,0,1-1.13-4.53,7.81,7.81,0,0,1,.15-2.71,5.42,5.42,0,0,1,.19-.72,2.62,2.62,0,0,1,.15-.39,9.22,9.22,0,0,1,1.44-2.39c.19-.23.37-.44.58-.65a9.09,9.09,0,0,1,2.43-1.75,8.81,8.81,0,0,1,2.48-.78,7.7,7.7,0,0,1,3.07.13,7.41,7.41,0,0,0-9.08-7.48Z"/><path class="cls-2" d="M32.33,92.44a5.1,5.1,0,0,0-3.29,6,7,7,0,0,1,.9.15,9.32,9.32,0,0,1,2.61,1l.35.22a3.88,3.88,0,0,1,.58.42,8,8,0,0,1,1.84,2.06,19.38,19.38,0,0,1,2,4.24,18.79,18.79,0,0,1-1.13-4.53,7.81,7.81,0,0,1,.15-2.71,5.42,5.42,0,0,1,.19-.72,2.62,2.62,0,0,1,.15-.39,9.22,9.22,0,0,1,1.44-2.39c.19-.23.37-.44.58-.65A5.13,5.13,0,0,0,32.33,92.44Z"/><path class="cls-6" d="M35.85,89.63a4.29,4.29,0,0,0-8,2.8,4.3,4.3,0,0,0-1.79,6.14,8.76,8.76,0,0,1,3-.16,5.12,5.12,0,0,1,9.61-3.35,9.09,9.09,0,0,1,2.43-1.75,3.82,3.82,0,0,0-.21-.92A4.3,4.3,0,0,0,35.85,89.63Z"/><path class="cls-2" d="M36.56,87.35a5.73,5.73,0,0,0-10.69,3.73,5.75,5.75,0,0,0-2.94,7.07,5.17,5.17,0,0,0,.71,1.36,8.89,8.89,0,0,1,2.41-.94,4.3,4.3,0,0,1,1.79-6.14,4.29,4.29,0,0,1,8-2.8,4.3,4.3,0,0,1,5,2.76,3.82,3.82,0,0,1,.21.92,8.81,8.81,0,0,1,2.48-.78,6.07,6.07,0,0,0-.31-1.5A5.72,5.72,0,0,0,36.56,87.35Z"/><path class="cls-10" d="M46.63,92.66a7.41,7.41,0,0,0-9.08-7.48A7.4,7.4,0,0,0,23.74,90a7.41,7.41,0,0,0-3.8,9.12,7.14,7.14,0,0,0,1.4,2.41"/><path class="cls-6" d="M6.31,58.92A38.27,38.27,0,0,1,0,54.5V79.65c3.91-3,5.46-6.9,4.3-9.85C6.28,67.43,9.4,63.92,6.31,58.92Z"/><path class="cls-2" d="M10.08,60.79a35.73,35.73,0,0,1-3.77-1.87c3.09,5,0,8.51-2,10.88,1.16,3-.39,6.88-4.3,9.85v4.94c5.46-3.38,8.21-7,8.33-13A7.6,7.6,0,0,0,10.08,60.79Z"/><path class="cls-3" d="M14.46,62.29a35.29,35.29,0,0,1-4.38-1.5A7.6,7.6,0,0,1,8.34,71.58c-.12,6-2.87,9.63-8.33,13v5.8a15,15,0,0,0,7.27-8.15c5.46-1.65,6.69-6.8,5-10.29C14.94,69.87,16.27,66.51,14.46,62.29Z"/><path class="cls-4" d="M17.6,63c-1.07-.17-2.11-.4-3.14-.67,1.81,4.22.48,7.58-2.22,9.66,1.73,3.49.5,8.64-5,10.29A15,15,0,0,1,0,90.39V96A15.45,15.45,0,0,0,9.76,85c6.06-1.76,8.32-7.18,5.44-11.46A8.87,8.87,0,0,0,17.6,63Z"/><path class="cls-5" d="M20.36,63.27c-.93-.06-1.85-.17-2.76-.31A8.87,8.87,0,0,1,15.2,73.5c2.88,4.28.62,9.7-5.44,11.46A15.45,15.45,0,0,1,0,96v4.09c5-.71,11.45-4.53,12.33-11.9l.13-1.08,1-.33a8.76,8.76,0,0,0,5.41-4.58,8.18,8.18,0,0,0-.19-6.73l-.46-1,.8-.83C19.1,73.53,23.78,68.59,20.36,63.27Z"/><path class="cls-1" d="M22.36,63.33c-.67,0-1.33,0-2-.06,3.42,5.32-1.26,10.26-1.31,10.31l-.8.83.46,1a8.18,8.18,0,0,1,.19,6.73,8.76,8.76,0,0,1-5.41,4.58l-1,.33-.13,1.08C11.45,95.54,5,99.36,0,100.07v1.73l1-.15C6.53,100.57,13.1,96.24,14,88.37c5.86-1.93,8.92-7.49,6.26-13.6C22,73,24.81,68.27,22.36,63.33Z"/><path class="cls-7" d="M74.16,61.72a6.79,6.79,0,0,0-1.91-4.87c5.15-6.34,1.52-14.09-4.45-15.08,1.38-5.86-1.53-9.62-5.77-10.83a21.91,21.91,0,0,0,.83-3.24,29.67,29.67,0,0,0,.47-5.34c4.94,2.45,9.7-.4,11.44-2.08,6.11,2.66,11.67-.4,13.6-6.26,7.87-.92,12.2-7.49,13.28-13.06,6.59,4.4,9.82,9.75,11.09,14.86,2,8.25-2.13,11.57-3.43,11a2.89,2.89,0,0,0,.93-2.41,0,0,0,0,0,0,0,3.58,3.58,0,0,0-.33-1.41,4.91,4.91,0,0,0-1.34-1.73h0a5.29,5.29,0,0,0-4.1-1.05c-4,.46-6.93,5.12-5.89,9.79.87,4,3.24,5.7,7.89,7.33-4.65-1.63-7.57-1.77-10.74.8-3.72,3-4.35,8.48-1.49,11.33a5.28,5.28,0,0,0,3.85,1.74,4.91,4.91,0,0,0,2.15-.52,3.81,3.81,0,0,0,1.13-.89l0,0a2.88,2.88,0,0,0,.78-2.46c1.39.35,2.59,5.53-4.15,10.7C92.84,61.92,85.11,64.28,74.16,61.72Z"/><path class="cls-8" d="M72.52,68.79c.27-1.3.7-2.56,1.06-3.81,12.65,2.94,21.1-.32,26.42-4.42,7.21-5.53,6.68-11,6.36-12.54a4.92,4.92,0,0,0-3.44-4,3.72,3.72,0,0,0-4.53,3.09c-.44,2.42,1.88,3.37,3,2.6a3.81,3.81,0,0,1-1.13.89,4.91,4.91,0,0,1-2.15.52A4.4,4.4,0,0,1,94.58,46,7.76,7.76,0,0,1,98,40.78a7.57,7.57,0,0,1,6-.76c3.21.82,5.49,3.62,6.24,7.18.46,2.11,1.22,9.56-7.81,16.5C96.32,68.39,86.72,72.17,72.52,68.79Z"/><path class="cls-9" d="M73.58,65a12.93,12.93,0,0,0,.58-3.26c11,2.56,18.68.2,23.84-3.77,6.74-5.17,5.54-10.35,4.15-10.7a2.88,2.88,0,0,1-.78,2.46l0,0c-1.08.77-3.4-.18-3-2.6A3.72,3.72,0,0,1,102.92,44a4.92,4.92,0,0,1,3.44,4c.32,1.55.85,7-6.36,12.54C94.68,64.66,86.23,67.92,73.58,65Z"/><path class="cls-8" d="M102.05,29.26a7.7,7.7,0,0,1,.57-6.22,4.37,4.37,0,0,1,5.93-1.84h0a4.91,4.91,0,0,1,1.34,1.73,3.58,3.58,0,0,1,.33,1.41c-.35-1.27-2.75-2-3.93.18a3.71,3.71,0,0,0,1.62,5.24,5,5,0,0,0,5.17-1c1.2-1,5-5,2.84-13.78A27.28,27.28,0,0,0,106,0h5.93a30.64,30.64,0,0,1,7.87,14.07c2.73,11.06-2.52,16.4-4.19,17.78-2.8,2.3-6.33,3.09-9.35,1.72A7.49,7.49,0,0,1,102.05,29.26Z"/><path class="cls-9" d="M106.3,24.53c1.18-2.18,3.58-1.45,3.93-.18a0,0,0,0,1,0,0,2.89,2.89,0,0,1-.93,2.41c1.3.61,5.47-2.71,3.43-11-1.27-5.11-4.5-10.46-11.09-14.86.06-.32.11-.64.15-.95H106a27.28,27.28,0,0,1,10,15c2.19,8.82-1.64,12.77-2.84,13.78a5,5,0,0,1-5.17,1A3.71,3.71,0,0,1,106.3,24.53Z"/><path class="cls-1" d="M98.56,29.94c-1-4.67,1.88-9.33,5.89-9.79a5.29,5.29,0,0,1,4.1,1.05A4.37,4.37,0,0,0,102.62,23a7.7,7.7,0,0,0-.57,6.22,7.49,7.49,0,0,0,4.19,4.32c3,1.37,6.55.58,9.35-1.72,1.67-1.38,6.92-6.72,4.19-17.78A30.64,30.64,0,0,0,111.91,0h4.67a34.87,34.87,0,0,1,6.57,12.67,22.58,22.58,0,0,1-1.67,17c-3.73,6.81-9.82,9.4-15,7.58C101.8,35.64,99.43,33.92,98.56,29.94Z"/><path class="cls-1" d="M72.38,72.38a9.28,9.28,0,0,1,.14-3.57c14.2,3.36,23.8-.42,29.89-5.11,9-6.94,8.26-14.38,7.81-16.5-.75-3.56-3-6.37-6.23-7.18a7.57,7.57,0,0,0-6,.76A7.8,7.8,0,0,0,94.58,46a4.4,4.4,0,0,0,3.49,5.15,5.28,5.28,0,0,1-3.85-1.74c-2.86-2.85-2.23-8.32,1.49-11.33,3.17-2.57,6.09-2.43,10.74-.8,5.21,1.82,8.36,7.64,7,15.29a22.54,22.54,0,0,1-9.3,14.34C94.08,74.18,82.19,74.71,72.38,72.38Z"/><path class="cls-2" d="M85.18,37.55A7.4,7.4,0,0,1,90,23.74a7.41,7.41,0,0,1,9.12-3.8,7.14,7.14,0,0,1,2.41,1.4,7.63,7.63,0,0,0-2,2.3,8.89,8.89,0,0,0-.94,2.41,8.76,8.76,0,0,0-.16,3,7,7,0,0,0,.15.9,9.32,9.32,0,0,0,1,2.61l.22.35a3.88,3.88,0,0,0,.42.58,8,8,0,0,0,2.06,1.84,19.38,19.38,0,0,0,4.24,2,18.79,18.79,0,0,0-4.53-1.13,7.81,7.81,0,0,0-2.71.15,5.42,5.42,0,0,0-.72.19,2.62,2.62,0,0,0-.39.15,9.22,9.22,0,0,0-2.39,1.44c-.23.19-.44.37-.65.58a9.09,9.09,0,0,0-1.75,2.43,8.81,8.81,0,0,0-.78,2.48,7.7,7.7,0,0,0,.13,3.07,7.41,7.41,0,0,1-7.48-9.08Z"/><path class="cls-2" d="M92.44,32.33a5.1,5.1,0,0,1,6-3.29,7,7,0,0,0,.15.9,9.32,9.32,0,0,0,1,2.61l.22.35a3.88,3.88,0,0,0,.42.58,8,8,0,0,0,2.06,1.84,19.38,19.38,0,0,0,4.24,2,18.79,18.79,0,0,0-4.53-1.13,7.81,7.81,0,0,0-2.71.15,5.42,5.42,0,0,0-.72.19,2.62,2.62,0,0,0-.39.15,9.22,9.22,0,0,0-2.39,1.44c-.23.19-.44.37-.65.58A5.13,5.13,0,0,1,92.44,32.33Z"/><path class="cls-6" d="M89.63,35.85a4.29,4.29,0,0,1,2.8-8,4.3,4.3,0,0,1,6.14-1.79,8.76,8.76,0,0,0-.16,3,5.12,5.12,0,0,0-3.35,9.61,9.09,9.09,0,0,0-1.75,2.43,3.82,3.82,0,0,1-.92-.21A4.3,4.3,0,0,1,89.63,35.85Z"/><path class="cls-2" d="M87.35,36.56a5.73,5.73,0,0,1,3.73-10.69,5.75,5.75,0,0,1,7.07-2.94,5.17,5.17,0,0,1,1.36.71,8.89,8.89,0,0,0-.94,2.41,4.3,4.3,0,0,0-6.14,1.79,4.29,4.29,0,0,0-2.8,8,4.3,4.3,0,0,0,2.76,5,3.82,3.82,0,0,0,.92.21,8.81,8.81,0,0,0-.78,2.48,6.07,6.07,0,0,1-1.5-.31A5.72,5.72,0,0,1,87.35,36.56Z"/><path class="cls-10" d="M92.66,46.63a7.41,7.41,0,0,1-7.48-9.08A7.4,7.4,0,0,1,90,23.74a7.41,7.41,0,0,1,9.12-3.8,7.14,7.14,0,0,1,2.41,1.4"/><path class="cls-2" d="M0,41.47V0H41.48C52.93,10,55,19.25,53.57,26.24c-1.51,7.2-6,8.22-6.79,7.26A2.51,2.51,0,0,0,48.41,32a0,0,0,0,0,0,0,3.34,3.34,0,0,0,.27-1.22,4.07,4.07,0,0,0-.4-1.85v0a4.6,4.6,0,0,0-2.8-2.36c-3.3-1.15-7.34,1.39-8.28,5.43-.81,3.43.39,5.66,3.41,8.68-3-3-5.26-4.22-8.69-3.41-4,.95-6.57,5-5.42,8.27a4.63,4.63,0,0,0,2.36,2.81,4.38,4.38,0,0,0,1.87.4A3.15,3.15,0,0,0,32,48.41h0a2.51,2.51,0,0,0,1.53-1.63c1,.79-.06,5.28-7.26,6.79C19.25,55,10,52.93,0,41.47Z"/><path class="cls-5" d="M15.67,38.75c-5.3-.88-8.51-7.75-3.95-13.38-4.15-4.63.72-8.78-.11-13.76,5,.82,9.13-4,13.77.11C31,7.16,37.87,10.37,38.75,15.67c8.25-1.94,11.81,5.71,9.06,12.44a4.81,4.81,0,0,0-2.33-1.61c-3.3-1.15-7.34,1.39-8.28,5.43-.81,3.43.39,5.66,3.41,8.68-3-3-5.26-4.22-8.69-3.41-4,.95-6.57,5-5.42,8.27a4.79,4.79,0,0,0,1.61,2.34C21.38,50.56,13.73,47,15.67,38.75Z"/><path class="cls-6" d="M27.43,32.4a3.06,3.06,0,0,1-.63-.51,3.6,3.6,0,1,1,5.1-5.09,4.32,4.32,0,0,1,.5.63,4.23,4.23,0,0,1,5.93.05,4.06,4.06,0,0,1,.72,1,7.53,7.53,0,0,0-1.85,3.47A12,12,0,0,0,37,33.17v.13a5.58,5.58,0,0,0,0,1.08,6.61,6.61,0,0,0,.83,2.73,16,16,0,0,0,2.81,3.5,16.36,16.36,0,0,0-3.5-2.82A6.62,6.62,0,0,0,34.37,37a6.37,6.37,0,0,0-1.07,0h-.13a12.69,12.69,0,0,0-1.25.22,7.59,7.59,0,0,0-3.46,1.85,4.06,4.06,0,0,1-1-.72A4.23,4.23,0,0,1,27.43,32.4Z"/><path class="cls-2" d="M25.46,40.35a7.13,7.13,0,0,1-1.59-7.57,6.47,6.47,0,0,1,8.91-8.91,7.13,7.13,0,0,1,7.57,1.59,6.73,6.73,0,0,1,1,1.32,6.76,6.76,0,0,0-2.33,1.68,4.06,4.06,0,0,0-.72-1,4.23,4.23,0,0,0-5.93-.05,4.32,4.32,0,0,0-.5-.63,3.6,3.6,0,1,0-5.1,5.09,3.06,3.06,0,0,0,.63.51,4.23,4.23,0,0,0,.05,5.93,4.06,4.06,0,0,0,1,.72,7.16,7.16,0,0,0-1.7,2.32A7,7,0,0,1,25.46,40.35Z"/><path class="cls-4" d="M18.69,35.59a6.89,6.89,0,0,1-1.41-1.07,7,7,0,0,1-.6-9.31L16.41,25A6,6,0,0,1,25,16.41c.08.09.17.17.25.27a7,7,0,0,1,9.31.6,6.89,6.89,0,0,1,1.07,1.41,7.51,7.51,0,0,1,10.06,7.88l-.17-.07a4.94,4.94,0,0,0-2.15-.25,5.94,5.94,0,0,0-1.71-3.37,6.13,6.13,0,0,0-6.43-1.41,5.57,5.57,0,0,0-.86-1.15,5.7,5.7,0,0,0-7.57-.48,2.19,2.19,0,0,0-.2-.22,4.91,4.91,0,0,0-6.94,6.94l.22.19a5.71,5.71,0,0,0,.48,7.58,5.57,5.57,0,0,0,1.15.86,6.13,6.13,0,0,0,1.41,6.43,5.93,5.93,0,0,0,3.36,1.7,5.06,5.06,0,0,0,.26,2.15,1,1,0,0,0,.07.17,7.46,7.46,0,0,1-6.14-2.14A7.54,7.54,0,0,1,18.69,35.59Z"/><path class="cls-3" d="M21.47,35.19a5.57,5.57,0,0,1-1.15-.86,5.71,5.71,0,0,1-.48-7.58l-.22-.19a4.91,4.91,0,0,1,6.94-6.94,2.19,2.19,0,0,1,.2.22,5.7,5.7,0,0,1,7.57.48,5.57,5.57,0,0,1,.86,1.15,6.13,6.13,0,0,1,6.43,1.41,5.94,5.94,0,0,1,1.71,3.37,5.9,5.9,0,0,0-1.95.53,6.73,6.73,0,0,0-1-1.32,7.13,7.13,0,0,0-7.57-1.59,6.47,6.47,0,0,0-8.91,8.91,7.13,7.13,0,0,0,1.59,7.57,7,7,0,0,0,1.3,1,5.88,5.88,0,0,0-.52,2,5.93,5.93,0,0,1-3.36-1.7A6.13,6.13,0,0,1,21.47,35.19Z"/><path class="cls-10" d="M28.11,47.81c-6.73,2.75-14.38-.81-12.44-9.06-5.3-.88-8.51-7.75-3.95-13.38-4.15-4.63.72-8.78-.11-13.76,5,.82,9.13-4,13.77.11C31,7.16,37.87,10.37,38.75,15.67c8.25-1.94,11.81,5.71,9.06,12.44"/><path class="cls-5" d="M30.94,62a19,19,0,0,0,9.4-6.85,18.2,18.2,0,0,0,1.19-1.92c2.29-4.24,2.16-8.48.07-11.47a9.24,9.24,0,0,0-1-1.18,8.49,8.49,0,0,0,1.19,1c3,2.1,7.21,2.24,11.45-.05a16.37,16.37,0,0,0,1.92-1.19A19.1,19.1,0,0,0,62,30.94c4.24,1.21,7.15,5,5.77,10.83,6,1,9.6,8.74,4.45,15.08,4.68,5.23-.8,9.91.13,15.53-5.62-.93-10.3,4.55-15.53-.13-6.34,5.15-14.09,1.52-15.08-4.46C35.91,69.18,32.15,66.27,30.94,62Z"/><path class="cls-6" d="M42.25,54.48a4.32,4.32,0,0,1-.8-1.08l.08-.13h0c2.29-4.24,2.16-8.48.07-11.47l-.13-.17a9,9,0,0,0-.86-1,9,9,0,0,0,1,.86l.18.12c3,2.1,7.21,2.24,11.45-.05h0l.14-.08a4.15,4.15,0,0,1,1.08.8,4.77,4.77,0,0,1,.06,6.68,4.79,4.79,0,0,1,.71.57,4.07,4.07,0,0,1-5.75,5.75,4.4,4.4,0,0,1-.57-.72A4.76,4.76,0,0,1,42.25,54.48Z"/><path class="cls-2" d="M40,56.76c-.17-.16-.32-.33-.47-.5q.47-.55.84-1.08a16.28,16.28,0,0,0,1.11-1.78,4.32,4.32,0,0,0,.8,1.08,4.76,4.76,0,0,0,6.68.05,4.4,4.4,0,0,0,.57.72,4.07,4.07,0,0,0,5.75-5.75,4.79,4.79,0,0,0-.71-.57,4.77,4.77,0,0,0-.06-6.68,4.15,4.15,0,0,0-1.08-.8,16.65,16.65,0,0,0,1.77-1.1c.36-.26.73-.54,1.09-.85a5.47,5.47,0,0,1,.5.47,8,8,0,0,1,1.79,8.53,7.29,7.29,0,0,1-10,10A8,8,0,0,1,40,56.76Z"/><path class="cls-4" d="M36.41,62.43a8.38,8.38,0,0,1-1.59-2.2,18.94,18.94,0,0,0,2.66-1.93,6.17,6.17,0,0,0,1.05,1.37,7,7,0,0,0,7.26,1.59,6,6,0,0,0,1,1.3,6.44,6.44,0,0,0,8.54.54,2.61,2.61,0,0,0,.23.24,5.53,5.53,0,1,0,7.82-7.82l-.25-.22a6.44,6.44,0,0,0-.54-8.54,5.72,5.72,0,0,0-1.3-1,6.92,6.92,0,0,0-1.59-7.26,6.54,6.54,0,0,0-1.37-1.06,19.21,19.21,0,0,0,1.93-2.65,8.16,8.16,0,0,1,2.2,1.59,8.47,8.47,0,0,1,2,8.92A7.45,7.45,0,0,1,66,46.53,7.93,7.93,0,0,1,66.66,57l.3.29A6.81,6.81,0,1,1,57.33,67q-.15-.13-.3-.3A7.92,7.92,0,0,1,46.54,66a7.49,7.49,0,0,1-1.21-1.59A8.49,8.49,0,0,1,36.41,62.43Z"/><path class="cls-3" d="M38.53,59.67a6.17,6.17,0,0,1-1.05-1.37,19.37,19.37,0,0,0,2-2c.15.17.3.34.47.5a8,8,0,0,0,8.53,1.79,7.29,7.29,0,0,0,10-10A8,8,0,0,0,56.76,40a5.47,5.47,0,0,0-.5-.47,16.27,16.27,0,0,0,2-2,6.54,6.54,0,0,1,1.37,1.06,6.92,6.92,0,0,1,1.59,7.26,5.72,5.72,0,0,1,1.3,1,6.44,6.44,0,0,1,.54,8.54l.25.22a5.53,5.53,0,1,1-7.82,7.82,2.61,2.61,0,0,1-.23-.24,6.44,6.44,0,0,1-8.54-.54,6,6,0,0,1-1-1.3A7,7,0,0,1,38.53,59.67Z"/><path class="cls-10" d="M62,30.94c4.24,1.21,7.15,5,5.77,10.83,6,1,9.6,8.74,4.45,15.08,4.68,5.23-.8,9.91.13,15.53-5.62-.93-10.3,4.55-15.53-.13-6.34,5.15-14.09,1.52-15.08-4.46-5.86,1.39-9.62-1.52-10.83-5.76"/><path class="cls-8" d="M0,50.48V45.72c10.59,10.94,20.16,12,26.81,10.64,7.7-1.61,9.35-6.07,9.67-7.4a4.25,4.25,0,0,0-1.19-4.39,3.21,3.21,0,0,0-4.69.7c-1.25,1.73.2,3.34,1.34,3.14a3.15,3.15,0,0,1-1.22.27,4.38,4.38,0,0,1-1.87-.4A3.8,3.8,0,0,1,28.07,43a6.73,6.73,0,0,1,4.64-2.77,6.54,6.54,0,0,1,4.94,1.65c2.2,1.84,2.91,4.88,2.17,7.94-.44,1.82-2.64,7.92-12.29,9.94C20.51,61.18,10.71,60.31,0,50.48Z"/><path class="cls-9" d="M0,41.47C10,52.93,19.25,55,26.24,53.57c7.2-1.51,8.22-6,7.26-6.79A2.51,2.51,0,0,1,32,48.41h0c-1.14.2-2.59-1.41-1.34-3.14a3.21,3.21,0,0,1,4.69-.7A4.25,4.25,0,0,1,36.49,49c-.32,1.33-2,5.79-9.67,7.4C20.17,57.75,10.6,56.66,0,45.72Z"/><path class="cls-8" d="M41.82,37.65a6.53,6.53,0,0,1-1.64-4.94A6.7,6.7,0,0,1,43,28.06a3.8,3.8,0,0,1,5.32.8v0a4.07,4.07,0,0,1,.4,1.85A3.34,3.34,0,0,1,48.41,32a1.84,1.84,0,0,0-3.13-1.34,3.2,3.2,0,0,0-.71,4.69A4.27,4.27,0,0,0,49,36.5c1.32-.33,5.79-2,7.4-9.68,1.4-6.66.3-16.21-10.66-26.81h4.79c9.82,10.7,10.69,20.5,9.22,27.51-2,9.66-8.12,11.85-9.94,12.3C46.71,40.56,43.67,39.85,41.82,37.65Z"/><path class="cls-9" d="M44.57,35.3a3.2,3.2,0,0,1,.71-4.69A1.84,1.84,0,0,1,48.41,32a0,0,0,0,1,0,0,2.51,2.51,0,0,1-1.63,1.53c.78,1,5.28-.06,6.79-7.26C55,19.25,52.93,10,41.48,0H45.7c11,10.6,12.06,20.15,10.66,26.81-1.61,7.7-6.08,9.35-7.4,9.68A4.27,4.27,0,0,1,44.57,35.3Z"/><path class="cls-1" d="M40.61,40.61c-3-3-4.22-5.25-3.41-8.68.94-4,5-6.58,8.28-5.43a4.6,4.6,0,0,1,2.8,2.36,3.8,3.8,0,0,0-5.32-.8,6.7,6.7,0,0,0-2.78,4.65,6.53,6.53,0,0,0,1.64,4.94c1.85,2.2,4.89,2.91,8,2.17,1.82-.45,7.92-2.64,9.94-12.3,1.47-7,.6-16.81-9.22-27.51h4c5.86,6.82,10.34,16.64,8.36,27.69a19.53,19.53,0,0,1-7.69,12.65C49.71,44.25,44,44,40.61,40.61Z"/><path class="cls-1" d="M40.61,40.61c-3-3-5.25-4.22-8.68-3.41-4,.94-6.58,5-5.43,8.28a4.6,4.6,0,0,0,2.36,2.8,3.8,3.8,0,0,1-.8-5.32,6.7,6.7,0,0,1,4.65-2.78,6.53,6.53,0,0,1,4.94,1.64c2.2,1.85,2.91,4.89,2.17,8-.45,1.82-2.64,7.92-12.3,9.94-7,1.47-16.81.6-27.51-9.22v4c6.82,5.86,16.64,10.34,27.69,8.36a19.53,19.53,0,0,0,12.65-7.69C44.25,49.71,44,44,40.61,40.61Z"/><path class="cls-6" d="M58.92,6.31A38.27,38.27,0,0,0,54.5,0H79.65c-3,3.91-6.9,5.46-9.85,4.3C67.43,6.28,63.92,9.4,58.92,6.31Z"/><path class="cls-2" d="M60.79,10.08a35.73,35.73,0,0,0-1.87-3.77c5,3.09,8.51,0,10.88-2,3,1.16,6.88-.39,9.85-4.3h4.94c-3.38,5.46-7,8.21-13,8.33A7.6,7.6,0,0,1,60.79,10.08Z"/><path class="cls-3" d="M62.29,14.46a35.29,35.29,0,0,0-1.5-4.38A7.6,7.6,0,0,0,71.58,8.34c6-.12,9.63-2.87,13-8.33h5.8a15,15,0,0,1-8.15,7.27c-1.65,5.46-6.8,6.69-10.29,5C69.87,14.94,66.51,16.27,62.29,14.46Z"/><path class="cls-4" d="M63,17.6c-.17-1.07-.4-2.11-.67-3.14,4.22,1.81,7.58.48,9.66-2.22,3.49,1.73,8.64.5,10.29-5A15,15,0,0,0,90.39,0H96A15.45,15.45,0,0,1,85,9.76c-1.76,6.06-7.18,8.32-11.46,5.44A8.87,8.87,0,0,1,63,17.6Z"/><path class="cls-5" d="M63.27,20.36c-.06-.93-.17-1.85-.31-2.76A8.87,8.87,0,0,0,73.5,15.2c4.28,2.88,9.7.62,11.46-5.44A15.45,15.45,0,0,0,96,0h4.09c-.71,5-4.53,11.45-11.9,12.33l-1.08.13-.33,1a8.76,8.76,0,0,1-4.58,5.41,8.18,8.18,0,0,1-6.73-.19l-1-.46-.83.8C73.53,19.1,68.59,23.78,63.27,20.36Z"/><path class="cls-1" d="M63.33,22.36c0-.67,0-1.33-.06-2,5.32,3.42,10.26-1.26,10.31-1.31l.83-.8,1,.46a8.18,8.18,0,0,0,6.73.19,8.76,8.76,0,0,0,4.58-5.41l.33-1,1.08-.13C95.54,11.45,99.36,5,100.07,0h1.73c0,.31-.09.63-.15,1C100.57,6.53,96.24,13.1,88.37,14c-1.93,5.86-7.49,8.92-13.6,6.26C73,22,68.27,24.81,63.33,22.36Z"/><path class="cls-6" d="M73,89.88c.1-.51.17-1,.25-1.55h0c0-.2,0-.4.07-.61a2.73,2.73,0,0,0,.06-.5s0,0,0,0h0v0c0-.21.06-.43.07-.65h0c0-.54.1-1.07.12-1.6,0-.16,0-.32,0-.47,0-.54,0-1.06,0-1.58a2.17,2.17,0,0,0,0-.36c0-.43,0-.86,0-1.28,0-.73-.07-1.44-.13-2.15h0a45.54,45.54,0,0,0-1.07-6.64A47.17,47.17,0,0,0,79,73.45h0c.71.06,1.43.11,2.15.12.42,0,.86,0,1.28,0a2.26,2.26,0,0,0,.37,0c.52,0,1,0,1.57,0l.47,0c.53,0,1.07-.08,1.6-.13h0a4.62,4.62,0,0,0,.65-.06h0a3,3,0,0,0,.52-.06l.61-.07h0c.52-.08,1-.16,1.55-.26a6.24,6.24,0,0,1-.38,7.15l-.3.34c.11.09.23.19.33.29l.17.15a6.23,6.23,0,0,1-8.81,8.82,1.37,1.37,0,0,1-.16-.18c-.1-.1-.2-.21-.29-.32l-.34.3A6.22,6.22,0,0,1,73,89.88Z"/><path class="cls-1" d="M68.68,102.7c-.17-.16-.31-.33-.46-.49.32-.52.63-1,.92-1.58a8.71,8.71,0,0,0,.75.86,7.93,7.93,0,0,0,9.34,1.38,7.9,7.9,0,0,0,10.49-.61,10.54,10.54,0,0,0,.7-.8,7.9,7.9,0,0,0,11-11,8.67,8.67,0,0,0,.79-.69,7.89,7.89,0,0,0,.62-10.49,7.93,7.93,0,0,0-1.38-9.34,8.71,8.71,0,0,0-.86-.75c.53-.29,1.06-.61,1.58-.93.16.15.33.3.49.47a9.68,9.68,0,0,1,2.13,10.37,9.61,9.61,0,0,1-1.16,11.68,9.62,9.62,0,0,1-12.94,12.94A9.63,9.63,0,0,1,79,104.83,9.68,9.68,0,0,1,68.68,102.7Z"/><path class="cls-2" d="M72.26,93c.28-1,.51-2,.7-3.08a6.22,6.22,0,0,0,7.14-.38l.34-.3c.09.11.19.22.29.32a1.37,1.37,0,0,0,.16.18,6.23,6.23,0,0,0,8.81-8.82l-.17-.15c-.1-.1-.22-.2-.33-.29l.3-.34A6.24,6.24,0,0,0,89.88,73c1-.18,2.05-.41,3.08-.69a8.45,8.45,0,0,1,.72,9.56A8.43,8.43,0,0,1,81.82,93.67,8.43,8.43,0,0,1,72.26,93Z"/><path class="cls-3" d="M72,97.16a5.53,5.53,0,0,1-.76-.93c.41-1.08.77-2.18,1.07-3.27a8.43,8.43,0,0,0,9.56.71A8.43,8.43,0,0,0,93.68,81.82,8.45,8.45,0,0,0,93,72.26c1.09-.3,2.19-.66,3.27-1.07a5.53,5.53,0,0,1,.93.76,6.32,6.32,0,0,1,1.11,7.45,6.32,6.32,0,0,1-.49,8.38,5.62,5.62,0,0,1-.64.55,6.3,6.3,0,0,1-8.81,8.81,6.64,6.64,0,0,1-.55.64,6.31,6.31,0,0,1-8.38.48A6.3,6.3,0,0,1,72,97.16Z"/><path class="cls-4" d="M70.92,99.33a6.07,6.07,0,0,1-.7-.82c.36-.76.68-1.52,1-2.28a5.53,5.53,0,0,0,.76.93,6.3,6.3,0,0,0,7.45,1.1,6.31,6.31,0,0,0,8.38-.48,6.64,6.64,0,0,0,.55-.64,6.3,6.3,0,0,0,8.81-8.81,5.62,5.62,0,0,0,.64-.55,6.32,6.32,0,0,0,.49-8.38A6.32,6.32,0,0,0,97.16,72a5.53,5.53,0,0,0-.93-.76c.76-.29,1.52-.61,2.28-1a6.07,6.07,0,0,1,.82.7,7.12,7.12,0,0,1,1.24,8.4,7.16,7.16,0,0,1-1.26,10.06,7.1,7.1,0,0,1-9.94,9.92,5.35,5.35,0,0,1-.62.72,7.13,7.13,0,0,1-9.44.56A7.13,7.13,0,0,1,70.92,99.33Z"/><path class="cls-5" d="M69.89,101.49a8.71,8.71,0,0,1-.75-.86c.39-.7.76-1.41,1.08-2.12a6.07,6.07,0,0,0,.7.82,7.13,7.13,0,0,0,8.39,1.25,7.13,7.13,0,0,0,9.44-.56,5.35,5.35,0,0,0,.62-.72,7.1,7.1,0,0,0,9.94-9.92,7.16,7.16,0,0,0,1.26-10.06,7.12,7.12,0,0,0-1.24-8.4,6.07,6.07,0,0,0-.82-.7c.71-.33,1.42-.7,2.12-1.08a8.71,8.71,0,0,1,.86.75,7.93,7.93,0,0,1,1.38,9.34,7.89,7.89,0,0,1-.62,10.49,8.67,8.67,0,0,1-.79.69,7.9,7.9,0,0,1-11,11,10.54,10.54,0,0,1-.7.8,7.9,7.9,0,0,1-10.49.61A7.93,7.93,0,0,1,69.89,101.49Z"/></g></g></svg>