<svg xmlns="http://www.w3.org/2000/svg" viewBox="0 0 240.74 240.74"><defs><style>.cls-1{fill:#a4d6c1;}.cls-2{fill:#00a27f;}.cls-3{fill:#00362b;}.cls-4{fill:#feefe2;}.cls-5{fill:#69453b;}.cls-6{fill:#4b2928;}.cls-7{fill:#b0cad6;}.cls-8{fill:#565f9a;}.cls-9{fill:#1b274d;}</style></defs><g id="图层_2" data-name="图层 2"><g id="文件图层"><path class="cls-1" d="M149.58,0h5.66c6.27,2.39,14.15,7.37,19.46,11.1,11.71,8.22,17.69,16.78,24.82,13.44,5.78,8.66,15.4,7.85,20.21-1.44,7,2.6,15.11-10.35,19.57-23.1h1.44a12.12,12.12,0,0,0-2,6.6,12,12,0,0,0,1.76,6.28h0c-1.79,8.58-8.34,19.61-17.27,17.8-3.33,9.78-16.72,13.6-23.88,3.91-9.26,2.42-16.49-8.33-27.7-18.8A103.47,103.47,0,0,0,149.58,0Z"/><path class="cls-2" d="M155.24,0h7.45a73.93,73.93,0,0,1,13.38,7.42c10.85,7.61,16.65,15,23.25,12,6.52,7.11,14.22,5.79,18.72-1.34,5.87,2.17,12.57-7.43,16.85-18h4.41c-4.46,12.75-12.56,25.7-19.57,23.1-4.81,9.29-14.43,10.1-20.21,1.44-7.13,3.34-13.11-5.22-24.82-13.44C169.39,7.37,161.51,2.39,155.24,0Z"/><path class="cls-3" d="M162.69,0h6.53c8.21,5.5,20.83,12.81,31.75,14.27C214,16,222.89,11.28,230.72,0h4.17c-4.28,10.6-11,20.2-16.85,18-4.5,7.13-12.2,8.45-18.72,1.34-6.6,3.09-12.4-4.34-23.25-12A73.93,73.93,0,0,0,162.69,0Z"/><path class="cls-4" d="M169.22,0h10.9c6.08,4.41,12,6.29,18.84,4.09,2.31,5.07,11.49,6.84,15.64.4,3.17,1.23,7.16.47,11.23-4.49h4.89C222.89,11.28,214,16,201,14.27,190.05,12.81,177.43,5.5,169.22,0Z"/><path class="cls-5" d="M180.12,0h45.71c-4.07,5-8.06,5.72-11.23,4.49-4.15,6.44-13.33,4.67-15.64-.4C192.08,6.29,186.2,4.41,180.12,0Z"/><path class="cls-1" d="M0,149.58v5.66c2.39,6.27,7.37,14.15,11.1,19.46,8.22,11.71,16.78,17.69,13.44,24.82,8.66,5.78,7.85,15.4-1.44,20.21,2.6,7-10.35,15.11-23.1,19.57v1.44a12.14,12.14,0,0,1,12.88-.2h0c8.58-1.8,19.61-8.34,17.8-17.27,9.78-3.33,13.6-16.72,3.91-23.88,2.42-9.26-8.33-16.49-18.8-27.7A103.47,103.47,0,0,1,0,149.58Z"/><path class="cls-2" d="M0,155.24v7.45a73.93,73.93,0,0,0,7.42,13.38c7.61,10.85,15,16.65,12,23.25,7.11,6.52,5.79,14.22-1.34,18.72,2.17,5.87-7.43,12.57-18,16.85v4.41c12.75-4.46,25.7-12.56,23.1-19.57,9.29-4.81,10.1-14.43,1.44-20.21,3.34-7.13-5.22-13.11-13.44-24.82C7.37,169.39,2.39,161.51,0,155.24Z"/><path class="cls-3" d="M0,162.69v6.53c5.5,8.21,12.81,20.83,14.27,31.75C16,214,11.28,222.89,0,230.72v4.17c10.6-4.28,20.2-11,18-16.85,7.13-4.5,8.45-12.2,1.34-18.72,3.09-6.6-4.34-12.4-12-23.25A73.93,73.93,0,0,1,0,162.69Z"/><path class="cls-4" d="M0,169.22v10.9c4.41,6.08,6.29,12,4.09,18.84,5.07,2.31,6.84,11.49.4,15.64,1.23,3.17.47,7.16-4.49,11.23v4.89C11.28,222.89,16,214,14.27,201,12.81,190.05,5.5,177.43,0,169.22Z"/><path class="cls-5" d="M0,180.12v45.71c5-4.07,5.72-8.06,4.49-11.23,6.44-4.15,4.67-13.33-.4-15.64C6.29,192.08,4.41,186.2,0,180.12Z"/><path class="cls-6" d="M1,8.68A4.63,4.63,0,0,1,0,7.19V0H7.19A4.63,4.63,0,0,1,8.68,1,3.92,3.92,0,0,1,9.74,5.27a1.55,1.55,0,0,1,.27.24c1.54,1.54,1.77,3.79.53,5s-3.49,1-5-.53a1.55,1.55,0,0,1-.24-.27A3.92,3.92,0,0,1,1,8.68Z"/><path class="cls-4" d="M1.33,31.08A13.83,13.83,0,0,1,0,29.51V24.44c.7.88,1.83,2.13,2.38,2.68,3.76,3.76,9.2,4.58,13.13,2.32,4.35,3.52,10.36,3.62,14,0s3.5-9.61,0-14c2.26-3.92,1.43-9.36-2.33-13.12A35.2,35.2,0,0,0,24.44,0h5.07a11.52,11.52,0,0,1,1.57,1.33,12.41,12.41,0,0,1,2.12,15.1,12.17,12.17,0,0,1-.59,16.18,12.15,12.15,0,0,1-16.17.58A12.41,12.41,0,0,1,1.33,31.08Z"/><path class="cls-7" d="M2.38,27.12C1.83,26.57.7,25.32,0,24.44V20.63c.75.91,2.06,2.32,2.53,2.79,3.23,3.24,7.88,4,11.21,2.09,3.74,3,8.87,3.16,11.9.13s2.9-8.16-.13-11.9c1.9-3.33,1.15-8-2.09-11.21C23,2.06,21.55.75,20.64,0h3.8a35.2,35.2,0,0,1,2.68,2.38c3.76,3.76,4.59,9.2,2.33,13.12,3.52,4.36,3.61,10.37,0,14s-9.61,3.49-14,0C11.58,31.7,6.14,30.88,2.38,27.12Z"/><path class="cls-8" d="M2.53,23.42C2.06,23,.75,21.54,0,20.63v-3c.67.79,1.65,1.83,2,2.2,2.86,2.87,6.92,3.6,9.78,2,3.3,2.71,7.77,2.91,10.35.32s2.39-7-.32-10.35c1.59-2.86.86-6.92-2-9.78-.37-.37-1.4-1.35-2.19-2h3c.91.75,2.31,2.06,2.78,2.53,3.24,3.23,4,7.88,2.09,11.21,3,3.74,3.17,8.87.13,11.9s-8.16,2.9-11.9-.13C10.41,27.41,5.76,26.66,2.53,23.42Z"/><path class="cls-9" d="M2,19.82c-.37-.37-1.35-1.41-2-2.2V14.78c.54.61,1.18,1.29,1.45,1.56,2.39,2.39,5.79,3,8.18,1.67,2.76,2.26,6.49,2.43,8.65.27s2-5.89-.26-8.66c1.32-2.38.71-5.78-1.68-8.17-.27-.27-.95-.91-1.56-1.45h2.85c.79.67,1.82,1.65,2.19,2,2.87,2.86,3.6,6.92,2,9.78,2.71,3.3,2.91,7.77.32,10.35s-7,2.39-10.35-.32C8.94,23.42,4.88,22.69,2,19.82Z"/><path class="cls-4" d="M1.45,16.34c-.27-.27-.91-.95-1.45-1.56V12.41a6.16,6.16,0,0,0,6.14,1c.13.16.26.3.4.45,2.51,2.5,6.19,2.89,8.21.86s1.64-5.7-.86-8.21c-.15-.14-.29-.27-.45-.4a6.13,6.13,0,0,0-1-6.14h2.37c.61.54,1.29,1.18,1.56,1.45,2.39,2.39,3,5.79,1.68,8.17,2.25,2.77,2.42,6.5.26,8.66s-5.89,2-8.65-.27C7.24,19.34,3.84,18.73,1.45,16.34Z"/><path class="cls-5" d="M0,7.19A4.63,4.63,0,0,0,1,8.68,3.92,3.92,0,0,0,5.27,9.74a1.55,1.55,0,0,0,.24.27c1.54,1.54,3.79,1.77,5,.53s1-3.49-.53-5a1.55,1.55,0,0,0-.27-.24A3.92,3.92,0,0,0,8.68,1,4.63,4.63,0,0,0,7.19,0h5.22a6.13,6.13,0,0,1,1,6.14c.16.13.3.26.45.4,2.5,2.51,2.89,6.19.86,8.21s-5.7,1.64-8.21-.86c-.14-.15-.27-.29-.4-.45a6.16,6.16,0,0,1-6.14-1Z"/><path class="cls-4" d="M9.84,62.5a30.15,30.15,0,0,1-3.55-5.15,37.18,37.18,0,0,1-3.8-11A42.88,42.88,0,0,1,2,35.27c.09-1.13.22-2.22.38-3.28A12.2,12.2,0,0,0,4.68,33.5q-.12,1-.21,2A40.55,40.55,0,0,0,5,45.89,33.7,33.7,0,0,0,8.5,56.15a27.51,27.51,0,0,0,3.25,4.73,24.6,24.6,0,0,0,4.31,4,21.2,21.2,0,0,0,5.54,3A18.35,18.35,0,0,0,28.37,69a17.6,17.6,0,0,0,11.9-5.13c.32-.31.63-.65.91-1A14.59,14.59,0,0,0,44.69,55,13.2,13.2,0,0,0,44.28,50a12.65,12.65,0,0,0-2.53-4.76,13.18,13.18,0,0,0-2-1.9,11.48,11.48,0,0,0-2.92-1.64A11.26,11.26,0,0,0,33.13,41a9.78,9.78,0,0,0-9,5.42,9.61,9.61,0,0,0-.81,5.6A9.75,9.75,0,0,0,29,58.64a7.46,7.46,0,0,1-1.35.37,9.29,9.29,0,0,1-6.55-1.39,16,16,0,0,1-3-2.39A17.7,17.7,0,0,1,15.6,52.1a26,26,0,0,1-3.12-7.7,37.9,37.9,0,0,1-1-9.59,11.71,11.71,0,0,0,5-1.62,11.9,11.9,0,0,0,1.81,1.21A20.58,20.58,0,0,0,20.9,48.14a12.72,12.72,0,0,1,1-2.87,11.78,11.78,0,0,1,.93-1.55A12.45,12.45,0,0,1,27,40a12.59,12.59,0,0,1,6.18-1.52,13.62,13.62,0,0,1,4.57.89,14.05,14.05,0,0,1,3.58,2l.11.09-.09-.11a14.05,14.05,0,0,1-2-3.58,13.62,13.62,0,0,1-.89-4.57A12.59,12.59,0,0,1,40,27a12.45,12.45,0,0,1,3.75-4.16,11.78,11.78,0,0,1,1.55-.93,12.72,12.72,0,0,1,2.87-1,20.5,20.5,0,0,0-13.73-2.65,14,14,0,0,0-1.21-1.82,11.75,11.75,0,0,0,1.61-5,37.9,37.9,0,0,1,9.59,1,26,26,0,0,1,7.7,3.12,17.7,17.7,0,0,1,3.13,2.46,16,16,0,0,1,2.39,3A9.29,9.29,0,0,1,59,27.64,7.46,7.46,0,0,1,58.64,29,9.73,9.73,0,0,0,52,23.35a9.61,9.61,0,0,0-5.6.81,9.78,9.78,0,0,0-5.42,9,11.26,11.26,0,0,0,.72,3.73,11.48,11.48,0,0,0,1.64,2.92,13.67,13.67,0,0,0,1.9,2A12.65,12.65,0,0,0,50,44.28a13.2,13.2,0,0,0,5.05.41,14.59,14.59,0,0,0,7.83-3.51c.33-.28.67-.59,1-.91A17.6,17.6,0,0,0,69,28.37a18.35,18.35,0,0,0-1.06-6.77,21.2,21.2,0,0,0-3-5.54,24.6,24.6,0,0,0-4-4.31A27.51,27.51,0,0,0,56.15,8.5,33.35,33.35,0,0,0,45.89,5a40.55,40.55,0,0,0-10.41-.5c-.68.06-1.33.13-2,.21A12.37,12.37,0,0,0,32,2.35c1-.16,2.14-.29,3.27-.38a42.88,42.88,0,0,1,11.06.52,37.18,37.18,0,0,1,11,3.8A30.15,30.15,0,0,1,62.5,9.84a27.23,27.23,0,0,1,4.44,4.73,24.21,24.21,0,0,1,3.34,6.19,20.75,20.75,0,0,1,1.19,7.7,20.09,20.09,0,0,1-5.86,13.59c-.36.36-.74.71-1.12,1a17.12,17.12,0,0,1-9.18,4.1,15.77,15.77,0,0,1-6-.48A15.26,15.26,0,0,1,44,44,15.26,15.26,0,0,1,46.7,49.3a15.77,15.77,0,0,1,.48,6,17.12,17.12,0,0,1-4.1,9.18c-.32.38-.67.76-1,1.12a20.09,20.09,0,0,1-13.59,5.86,20.75,20.75,0,0,1-7.7-1.19,24.21,24.21,0,0,1-6.19-3.34A27.23,27.23,0,0,1,9.84,62.5Z"/><path class="cls-2" d="M45.13,38.34A9.57,9.57,0,0,1,43.84,36a8.92,8.92,0,0,1-.57-2.93,7.78,7.78,0,0,1,.93-3.78,7.56,7.56,0,0,1,3.2-3.07A7.58,7.58,0,0,1,56,27.44a8.5,8.5,0,0,1,1.15,1.31,4.12,4.12,0,0,0-5.75-.84,5.13,5.13,0,0,0-2,5.83,6.44,6.44,0,0,0,4,3.66c1.56.49,3.47.41,5.78-1.33,5.29-4,6-13.58-1.77-20.48C51.78,10.64,42.69,8.18,34.81,9.1a12.77,12.77,0,0,0-.43-2.2l1.29-.12a38.65,38.65,0,0,1,9.83.46,31.62,31.62,0,0,1,9.55,3.3,24.77,24.77,0,0,1,4.32,3A21.64,21.64,0,0,1,63,17.42a19.41,19.41,0,0,1,2.7,5,16,16,0,0,1,.91,5.9,15.32,15.32,0,0,1-5.3,11.15,12.4,12.4,0,0,1-6.59,3,10.92,10.92,0,0,1-4.15-.34A10.23,10.23,0,0,1,46.71,40,10.69,10.69,0,0,1,45.13,38.34Z"/><path class="cls-3" d="M49.34,33.74a5.13,5.13,0,0,1,2-5.83,4.12,4.12,0,0,1,5.75.84s0,0,0,0A9.11,9.11,0,0,1,58,30.29a7.14,7.14,0,0,0,.64-1.3A7.46,7.46,0,0,0,59,27.64a9.29,9.29,0,0,0-1.39-6.55,16,16,0,0,0-2.39-3A17.7,17.7,0,0,0,52.1,15.6a26,26,0,0,0-7.7-3.12,37.9,37.9,0,0,0-9.59-1,11.63,11.63,0,0,0,0-2.36c7.88-.92,17,1.54,22.53,6.49,7.73,6.9,7.06,16.51,1.77,20.48-2.31,1.74-4.22,1.82-5.78,1.33A6.44,6.44,0,0,1,49.34,33.74Z"/><path class="cls-1" d="M43.32,39.78a11.48,11.48,0,0,1-1.64-2.92A11.26,11.26,0,0,1,41,33.13a9.78,9.78,0,0,1,5.42-9,9.61,9.61,0,0,1,5.6-.81A9.73,9.73,0,0,1,58.64,29a7.14,7.14,0,0,1-.64,1.3,9.11,9.11,0,0,0-.86-1.51s0,0,0,0A8.5,8.5,0,0,0,56,27.44a7.58,7.58,0,0,0-8.57-1.2,7.56,7.56,0,0,0-3.2,3.07,7.78,7.78,0,0,0-.93,3.78A8.92,8.92,0,0,0,43.84,36a9.57,9.57,0,0,0,1.29,2.32A10.69,10.69,0,0,0,46.71,40a10.23,10.23,0,0,0,3.9,2.07,10.92,10.92,0,0,0,4.15.34,12.4,12.4,0,0,0,6.59-3,15.32,15.32,0,0,0,5.3-11.15,16,16,0,0,0-.91-5.9,19.41,19.41,0,0,0-2.7-5,21.64,21.64,0,0,0-3.67-3.91,24.77,24.77,0,0,0-4.32-3,31.62,31.62,0,0,0-9.55-3.3,38.65,38.65,0,0,0-9.83-.46l-1.29.12a12.78,12.78,0,0,0-.87-2.22c.64-.08,1.29-.15,2-.21A40.55,40.55,0,0,1,45.89,5,33.35,33.35,0,0,1,56.15,8.5a27.51,27.51,0,0,1,4.73,3.25,24.6,24.6,0,0,1,4,4.31,21.2,21.2,0,0,1,3,5.54A18.35,18.35,0,0,1,69,28.37a17.6,17.6,0,0,1-5.13,11.9c-.31.32-.65.63-1,.91A14.59,14.59,0,0,1,55,44.69,13.2,13.2,0,0,1,50,44.28a12.65,12.65,0,0,1-4.76-2.53A13.67,13.67,0,0,1,43.32,39.78Z"/><path class="cls-1" d="M11.75,60.88A27.51,27.51,0,0,1,8.5,56.15,33.7,33.7,0,0,1,5,45.89a40.55,40.55,0,0,1-.5-10.41q.09-1,.21-2a12.36,12.36,0,0,0,2.22.88q-.08.65-.12,1.29a38.65,38.65,0,0,0,.46,9.83,31.62,31.62,0,0,0,3.3,9.55,24.77,24.77,0,0,0,3,4.32A21.64,21.64,0,0,0,17.42,63a19.41,19.41,0,0,0,5,2.7,16,16,0,0,0,5.9.91,15.32,15.32,0,0,0,11.15-5.3,12.4,12.4,0,0,0,3-6.59,10.92,10.92,0,0,0-.34-4.15A10.23,10.23,0,0,0,40,46.71a10.69,10.69,0,0,0-1.64-1.58A9.57,9.57,0,0,0,36,43.84a8.92,8.92,0,0,0-2.93-.57,7.78,7.78,0,0,0-3.78.93,7.56,7.56,0,0,0-3.07,3.2A7.58,7.58,0,0,0,27.44,56a9.34,9.34,0,0,0,1.34,1.17,9.11,9.11,0,0,0,1.51.86,7.14,7.14,0,0,1-1.3.64A9.75,9.75,0,0,1,23.35,52a9.61,9.61,0,0,1,.81-5.6,9.78,9.78,0,0,1,9-5.42,11.26,11.26,0,0,1,3.73.72,11.48,11.48,0,0,1,2.92,1.64,13.18,13.18,0,0,1,2,1.9A12.65,12.65,0,0,1,44.28,50,13.2,13.2,0,0,1,44.69,55a14.59,14.59,0,0,1-3.51,7.83c-.28.33-.59.67-.91,1A17.6,17.6,0,0,1,28.37,69a18.35,18.35,0,0,1-6.77-1.06,21.2,21.2,0,0,1-5.54-3A24.6,24.6,0,0,1,11.75,60.88Z"/><path class="cls-2" d="M13.51,59.37a24.77,24.77,0,0,1-3-4.32,31.62,31.62,0,0,1-3.3-9.55,38.65,38.65,0,0,1-.46-9.83q0-.64.12-1.29a11.86,11.86,0,0,0,2.2.42c-.92,7.88,1.54,17,6.5,22.53,6.89,7.74,16.5,7.07,20.47,1.78,1.74-2.31,1.82-4.22,1.33-5.78a6.44,6.44,0,0,0-3.66-4,5.13,5.13,0,0,0-5.83,2,4.11,4.11,0,0,0,.87,5.77A9.34,9.34,0,0,1,27.44,56a7.58,7.58,0,0,1-1.2-8.57,7.56,7.56,0,0,1,3.07-3.2,7.78,7.78,0,0,1,3.78-.93,8.92,8.92,0,0,1,2.93.57,9.57,9.57,0,0,1,2.32,1.29A10.69,10.69,0,0,1,40,46.71a10.23,10.23,0,0,1,2.07,3.9,10.92,10.92,0,0,1,.34,4.15,12.4,12.4,0,0,1-3,6.59,15.32,15.32,0,0,1-11.15,5.3,16,16,0,0,1-5.9-.91,19.41,19.41,0,0,1-5-2.7A21.64,21.64,0,0,1,13.51,59.37Z"/><path class="cls-3" d="M15.6,57.33c-5-5.55-7.42-14.65-6.5-22.53a11.64,11.64,0,0,0,2.36,0,37.9,37.9,0,0,0,1,9.59,26,26,0,0,0,3.12,7.7,17.7,17.7,0,0,0,2.46,3.13,16,16,0,0,0,3,2.39A9.29,9.29,0,0,0,27.64,59,7.46,7.46,0,0,0,29,58.64a7.14,7.14,0,0,0,1.3-.64,9.11,9.11,0,0,1-1.51-.86,4.11,4.11,0,0,1-.87-5.77,5.13,5.13,0,0,1,5.83-2,6.44,6.44,0,0,1,3.66,4c.49,1.56.41,3.47-1.33,5.78C32.1,64.4,22.49,65.07,15.6,57.33Z"/><path class="cls-7" d="M35.74,21.9a12.45,12.45,0,0,0-1.33-3.65A20.5,20.5,0,0,1,48.14,20.9a12.72,12.72,0,0,0-2.87,1,11.78,11.78,0,0,0-1.55.93A15.2,15.2,0,0,0,35.74,21.9Z"/><path class="cls-7" d="M20.9,48.14A20.58,20.58,0,0,1,18.25,34.4a12.87,12.87,0,0,0,3.65,1.34,15.2,15.2,0,0,0,.94,8,11.78,11.78,0,0,0-.93,1.55A12.72,12.72,0,0,0,20.9,48.14Z"/><path class="cls-5" d="M22.84,43.72a15.2,15.2,0,0,1-.94-8A11.61,11.61,0,0,0,35.74,21.9a15.2,15.2,0,0,1,8,.94A12.45,12.45,0,0,0,40,27a12.59,12.59,0,0,0-1.52,6.18,13.62,13.62,0,0,0,.89,4.57,14.05,14.05,0,0,0,2,3.58l.09.11-.11-.09a14.05,14.05,0,0,0-3.58-2,13.62,13.62,0,0,0-4.57-.89A12.59,12.59,0,0,0,27,40,12.45,12.45,0,0,0,22.84,43.72Z"/><path class="cls-4" d="M71,22.9l-.14-.16h0c-.17-.67-.36-1.33-.59-2a24.21,24.21,0,0,0-3.34-6.19,27,27,0,0,0-2.06-2.47A42.76,42.76,0,0,1,69,15.73c1.53,1.5,3,3.12,4.56,4.84,3.85,4.26,7.83,8.67,13.32,11.73,9.8,5.46,19.31.85,23.29-6.27a12.48,12.48,0,0,0,.91-11,11.7,11.7,0,0,0-7.35-6.74,10.59,10.59,0,0,0-12.65,6.14,10.32,10.32,0,0,0-.52,5.31A16.71,16.71,0,0,1,87,17.64a14.47,14.47,0,0,1,.86-4.38A14,14,0,0,1,104.72,5a15.28,15.28,0,0,1,9.61,8.75,15.88,15.88,0,0,1-1.09,14c-4.8,8.58-16.24,14.16-28,7.6C79.24,32,75.06,27.37,71,22.9Z"/><path class="cls-1" d="M39.46,1.83c.2,0,.41-.06.61-.09C57.59,1,66.22,8.11,71.47,13.25c5.41,5.29,10,12.06,17.14,16,7.77,4.33,15.29.94,18.57-4.93,3.44-6.15-.31-11.55-4.37-12.71a7.13,7.13,0,0,0-8.42,4,6.21,6.21,0,0,0,.13,5,10.55,10.55,0,0,1-3.92-.85,10.32,10.32,0,0,1,.52-5.31,10.59,10.59,0,0,1,12.65-6.14A11.7,11.7,0,0,1,111.12,15a12.48,12.48,0,0,1-.91,11c-4,7.12-13.49,11.73-23.29,6.27-5.49-3.06-9.47-7.47-13.32-11.73-1.56-1.72-3-3.34-4.56-4.84a42.76,42.76,0,0,0-4.16-3.63h0A24,24,0,0,0,62.5,9.84a30.15,30.15,0,0,0-5.15-3.55,37.18,37.18,0,0,0-11-3.8A44.37,44.37,0,0,0,39.46,1.83Z"/><path class="cls-2" d="M40.07,1.74a42.82,42.82,0,0,1,33.08,8.83,47.41,47.41,0,0,1,5.43,5.06,46.24,46.24,0,0,0,11.8,9.87c6.2,3.45,11.45,1.29,13.77-2.86a5.57,5.57,0,0,0,.54-5A4.79,4.79,0,0,0,101.85,15c-3-1-6.53,1.81-4.82,5.4a10.43,10.43,0,0,1-2.51.23,6.21,6.21,0,0,1-.13-5,7.13,7.13,0,0,1,8.42-4c4.06,1.16,7.81,6.56,4.37,12.71-3.28,5.87-10.8,9.26-18.57,4.93-7.1-4-11.73-10.73-17.14-16C66.22,8.11,57.59,1,40.07,1.74Z"/><path class="cls-3" d="M32,2.35A78.43,78.43,0,0,1,56.37,1.28c8,1,13.31,2.41,20.42,7.5,3.62,2.6,6.74,6.3,10.2,8.86a16.71,16.71,0,0,0,3.61,2.1,10.55,10.55,0,0,0,3.92.85A10.43,10.43,0,0,0,97,20.36C95.32,16.77,98.8,14,101.85,15a4.79,4.79,0,0,1,2.84,2.71,5.57,5.57,0,0,1-.54,5c-2.32,4.15-7.57,6.31-13.77,2.86a46.24,46.24,0,0,1-11.8-9.87,47.41,47.41,0,0,0-5.43-5.06A42.82,42.82,0,0,0,40.07,1.74c-.2,0-.41.05-.61.09h0c-1.39,0-2.78,0-4.17.14C34.14,2.06,33.05,2.19,32,2.35Z"/><path class="cls-4" d="M22.9,71l-.16-.14h0c-.67-.17-1.33-.36-2-.59a24,24,0,0,1-6.18-3.34,25.8,25.8,0,0,1-2.48-2.06A42.76,42.76,0,0,0,15.73,69c1.5,1.53,3.12,3,4.84,4.56,4.26,3.85,8.67,7.83,11.73,13.32,5.46,9.8.85,19.31-6.27,23.29a12.48,12.48,0,0,1-11,.91,11.72,11.72,0,0,1-6.74-7.35,10.59,10.59,0,0,1,6.14-12.65,10.32,10.32,0,0,1,5.31-.52A17.08,17.08,0,0,0,17.65,87a14.48,14.48,0,0,0-4.39.86A14,14,0,0,0,5,104.72a15.28,15.28,0,0,0,8.75,9.61,15.88,15.88,0,0,0,14-1.09c8.58-4.8,14.16-16.24,7.6-28C32,79.24,27.37,75.06,22.9,71Z"/><path class="cls-1" d="M1.83,39.46c0,.2-.06.41-.09.61C1,57.59,8.11,66.22,13.25,71.47c5.29,5.41,12.06,10,16,17.14,4.33,7.77.94,15.29-4.93,18.57-6.15,3.44-11.55-.31-12.71-4.37a7.13,7.13,0,0,1,4-8.42,6.21,6.21,0,0,1,5,.13,10.55,10.55,0,0,0-.85-3.92,10.32,10.32,0,0,0-5.31.52,10.59,10.59,0,0,0-6.14,12.65A11.72,11.72,0,0,0,15,111.12a12.48,12.48,0,0,0,11-.91c7.12-4,11.73-13.49,6.27-23.29-3.06-5.49-7.47-9.47-11.73-13.32-1.72-1.56-3.34-3-4.84-4.56a42.76,42.76,0,0,1-3.63-4.16h0A24,24,0,0,1,9.84,62.5a30.15,30.15,0,0,1-3.55-5.15,37.18,37.18,0,0,1-3.8-11A44.37,44.37,0,0,1,1.83,39.46Z"/><path class="cls-2" d="M1.74,40.07a42.82,42.82,0,0,0,8.83,33.08,47.41,47.41,0,0,0,5.06,5.43,46.24,46.24,0,0,1,9.87,11.8c3.45,6.2,1.29,11.45-2.86,13.77a5.6,5.6,0,0,1-5,.54A4.81,4.81,0,0,1,15,101.85c-1-3,1.81-6.53,5.4-4.82a10.43,10.43,0,0,0,.23-2.51,6.21,6.21,0,0,0-5-.13,7.13,7.13,0,0,0-4,8.42c1.16,4.06,6.56,7.81,12.71,4.37,5.87-3.28,9.26-10.8,4.93-18.57-4-7.1-10.73-11.73-16-17.14C8.11,66.22,1,57.59,1.74,40.07Z"/><path class="cls-3" d="M2.35,32A78.43,78.43,0,0,0,1.28,56.37c1,8,2.41,13.31,7.5,20.42,2.6,3.62,6.3,6.74,8.87,10.2a17.08,17.08,0,0,1,2.09,3.61,10.55,10.55,0,0,1,.85,3.92A10.43,10.43,0,0,1,20.36,97C16.77,95.32,14,98.8,15,101.85a4.81,4.81,0,0,0,2.71,2.84,5.6,5.6,0,0,0,5-.54c4.15-2.32,6.31-7.57,2.86-13.77a46.24,46.24,0,0,0-9.87-11.8,47.41,47.41,0,0,1-5.06-5.43A42.82,42.82,0,0,1,1.74,40.07c0-.2.05-.41.09-.61v0c0-1.39,0-2.78.14-4.17C2.06,34.14,2.19,33.05,2.35,32Z"/><path class="cls-4" d="M46,65.71a9.84,9.84,0,0,1-1.85-2.59,17.12,17.12,0,0,0,2-3.78,5.8,5.8,0,0,0,1.32,2.07,5.71,5.71,0,0,0,6.91.89,6.73,6.73,0,0,0,.76,1,5.71,5.71,0,0,0,8.08-8.08,6.73,6.73,0,0,0-1-.76,5.71,5.71,0,0,0-.89-6.91,5.89,5.89,0,0,0-2.07-1.32,17.26,17.26,0,0,0,3.77-2A9.54,9.54,0,0,1,65.71,46a9.26,9.26,0,0,1,2.35,9.26,9.05,9.05,0,1,1-12.8,12.8A9.26,9.26,0,0,1,46,65.71Z"/><path class="cls-5" d="M47.5,61.41a5.8,5.8,0,0,1-1.32-2.07h0A15.57,15.57,0,0,0,47.09,56a3.91,3.91,0,0,0,5.72,2.27,4.42,4.42,0,0,0,.52.64,3.91,3.91,0,0,0,5.53-5.53,4.42,4.42,0,0,0-.64-.52A3.92,3.92,0,0,0,56,47.09a16.06,16.06,0,0,0,3.38-.91h0a5.89,5.89,0,0,1,2.07,1.32,5.71,5.71,0,0,1,.89,6.91,6.73,6.73,0,0,1,1,.76,5.71,5.71,0,0,1-8.08,8.08,6.73,6.73,0,0,1-.76-1A5.71,5.71,0,0,1,47.5,61.41Z"/><path class="cls-6" d="M48.07,57.6a4,4,0,0,1-1-1.65c0-.21.07-.42.09-.64a15.77,15.77,0,0,0-.48-6A15.26,15.26,0,0,0,44,44,15.26,15.26,0,0,0,49.3,46.7a15.77,15.77,0,0,0,6,.48c.22,0,.43-.06.65-.09a3.92,3.92,0,0,1,2.26,5.72,4.42,4.42,0,0,1,.64.52,3.91,3.91,0,0,1-5.53,5.53,4.42,4.42,0,0,1-.52-.64A3.92,3.92,0,0,1,48.07,57.6Z"/><path class="cls-7" d="M37.81,76a17.38,17.38,0,0,1-3.72-5.5A20.51,20.51,0,0,0,37.62,69a13.49,13.49,0,0,0,2.92,4.31A12.83,12.83,0,0,0,51,77.13c.16.18.34.36.51.54,3.94,3.94,9.72,5,14,2.8,4.6,2.67,10.25,2.25,13.69-1.18s3.85-9.09,1.18-13.69c2.21-4.33,1.14-10.11-2.8-14L77.13,51a12.83,12.83,0,0,0-3.87-10.5A13.49,13.49,0,0,0,69,37.62a20.51,20.51,0,0,0,1.54-3.53A17.38,17.38,0,0,1,76,37.81a17.07,17.07,0,0,1,5.07,11.72,16.42,16.42,0,0,1,3.65,15.92C87.21,71.24,86.21,77.83,82,82s-10.78,5.19-16.57,2.69a16.42,16.42,0,0,1-15.92-3.65A17.07,17.07,0,0,1,37.81,76Z"/><path class="cls-4" d="M34.71,79a20.12,20.12,0,0,1-4.8-7.62,19.66,19.66,0,0,0,4.18-.87A17.38,17.38,0,0,0,37.81,76a17.07,17.07,0,0,0,11.72,5.07,16.42,16.42,0,0,0,15.92,3.65C71.24,87.21,77.83,86.21,82,82s5.19-10.78,2.69-16.57a16.42,16.42,0,0,0-3.65-15.92A17.07,17.07,0,0,0,76,37.81a17.38,17.38,0,0,0-5.5-3.72,19.66,19.66,0,0,0,.87-4.18A20.12,20.12,0,0,1,79,34.71a19.75,19.75,0,0,1,5.88,13.58,19.07,19.07,0,0,1,4.23,18.46C92,73.47,90.83,81.11,86,86s-12.5,6-19.22,3.12a19.07,19.07,0,0,1-18.46-4.23A19.75,19.75,0,0,1,34.71,79Z"/><path class="cls-8" d="M40.54,73.26A13.49,13.49,0,0,1,37.62,69a19.34,19.34,0,0,0,4-2.9,8.31,8.31,0,0,0,2.27,4.14,8.21,8.21,0,0,0,8.2,2.13,8.58,8.58,0,0,0,1,1.24,8.1,8.1,0,0,0,10.51,1A7.77,7.77,0,0,0,74.52,63.6a8.1,8.1,0,0,0-1-10.51,8.58,8.58,0,0,0-1.24-1,8.21,8.21,0,0,0-2.13-8.2,8.31,8.31,0,0,0-4.14-2.27,19.34,19.34,0,0,0,2.9-4,13.49,13.49,0,0,1,4.31,2.92A12.83,12.83,0,0,1,77.13,51l.54.51c3.94,3.94,5,9.72,2.8,14,2.67,4.6,2.25,10.25-1.18,13.69S70.2,83.14,65.6,80.47c-4.33,2.21-10.11,1.14-14-2.8-.17-.18-.35-.36-.51-.54A12.83,12.83,0,0,1,40.54,73.26Z"/><path class="cls-9" d="M43.86,70.19a8.31,8.31,0,0,1-2.27-4.14c.16-.14.31-.29.46-.44.36-.36.71-.74,1-1.12a16.82,16.82,0,0,0,1.07-1.37A9.84,9.84,0,0,0,46,65.71a9.26,9.26,0,0,0,9.26,2.35,9.05,9.05,0,1,0,12.8-12.8A9.26,9.26,0,0,0,65.71,46a9.54,9.54,0,0,0-2.6-1.84c.52-.37,1-.73,1.38-1.08s.76-.67,1.12-1c.15-.15.3-.3.44-.46a8.31,8.31,0,0,1,4.14,2.27,8.21,8.21,0,0,1,2.13,8.2,8.58,8.58,0,0,1,1.24,1,8.1,8.1,0,0,1,1,10.51A7.77,7.77,0,0,1,63.6,74.52a8.1,8.1,0,0,1-10.51-1,8.58,8.58,0,0,1-1-1.24A8.21,8.21,0,0,1,43.86,70.19Z"/><path class="cls-2" d="M90.43,71.43a19.31,19.31,0,0,0-1.34-4.68,17.42,17.42,0,0,0,.59-2.34l.2.21a10.42,10.42,0,0,0,14.23.47,9.45,9.45,0,0,0,11-15.08,9.28,9.28,0,0,0-1.32-1.1,10.69,10.69,0,0,0-8.21-13.41,20.62,20.62,0,0,0,3.74-2.8,11.49,11.49,0,0,1,8.76,14,8.68,8.68,0,0,1,3,2,8.79,8.79,0,0,1,1.66,10.12l.07.06a7.49,7.49,0,0,1-9.55,11.46,7.93,7.93,0,0,1-.91,1.1,7.64,7.64,0,0,1-10.8,0c-.09-.09-.17-.19-.25-.28s-.11.13-.17.18A7.64,7.64,0,0,1,90.43,71.43Z"/><path class="cls-1" d="M90.17,78.39a17.68,17.68,0,0,0,.26-7,7.64,7.64,0,0,0,10.71-.1c.06,0,.1-.12.17-.18s.16.19.25.28a7.64,7.64,0,0,0,10.8,0,7.93,7.93,0,0,0,.91-1.1,7.49,7.49,0,0,0,9.55-11.46l-.07-.06a8.79,8.79,0,0,0-1.66-10.12,8.68,8.68,0,0,0-3-2,11.49,11.49,0,0,0-8.76-14,20.26,20.26,0,0,0,3.22-3.83,15.1,15.1,0,0,1,5.92,3.67,15.3,15.3,0,0,1,4.46,11.59,12.89,12.89,0,0,1,2.77,2.1,13,13,0,0,1,2.87,14.11l.27.24a8.28,8.28,0,0,1-8.63,13.66,10.86,10.86,0,0,1-1.48,1.87,10.73,10.73,0,0,1-14.53.58A13.44,13.44,0,0,1,90.17,78.39Z"/><path class="cls-4" d="M88.57,82.51a16.39,16.39,0,0,0,1.6-4.12,13.44,13.44,0,0,0,14-1.7,10.73,10.73,0,0,0,14.53-.58,10.86,10.86,0,0,0,1.48-1.87,8.28,8.28,0,0,0,8.63-13.66l-.27-.24a13,13,0,0,0-2.87-14.11,12.89,12.89,0,0,0-2.77-2.1,15.3,15.3,0,0,0-4.46-11.59,15.1,15.1,0,0,0-5.92-3.67c.24-.38.47-.75.69-1.14A18.38,18.38,0,0,0,114.8,24a17.22,17.22,0,0,1,12.81,18.05,18.53,18.53,0,0,1,2,1.75A17.2,17.2,0,0,1,134,60.79a10.75,10.75,0,0,1-11.66,17.52,11.41,11.41,0,0,1-17.29,5.06A13.49,13.49,0,0,1,88.57,82.51Z"/><path class="cls-3" d="M89.88,64.62l-.2-.21A17.81,17.81,0,0,0,90,61.23a8.45,8.45,0,0,0,9.46-.7,7.74,7.74,0,0,0,8.73-1.37l.09-.09a7.69,7.69,0,0,0,.09-10.78,7.41,7.41,0,0,0-.84-.74A8.66,8.66,0,0,0,102,37.16a19.58,19.58,0,0,0,3.6-1.66,10.69,10.69,0,0,1,8.21,13.41,9.28,9.28,0,0,1,1.32,1.1,9.45,9.45,0,0,1-11,15.08A10.42,10.42,0,0,1,89.88,64.62Z"/><path class="cls-4" d="M90,61.23a19.08,19.08,0,0,0-.84-5.42,6.26,6.26,0,0,0,5.86-1,5.77,5.77,0,0,0,6.5-1l.06-.07a5.71,5.71,0,0,0,.07-8,6.57,6.57,0,0,0-.62-.55A6.45,6.45,0,0,0,99.4,39a6.91,6.91,0,0,0-1.19-1,19.24,19.24,0,0,0,3.78-.88,8.66,8.66,0,0,1,5.49,10.39,7.41,7.41,0,0,1,.84.74,7.69,7.69,0,0,1-.09,10.78l-.09.09a7.74,7.74,0,0,1-8.73,1.37A8.45,8.45,0,0,1,90,61.23Z"/><path class="cls-5" d="M89.11,55.81a20.26,20.26,0,0,0-2.6-5.41,7.39,7.39,0,0,0,4.57-12.76,19.69,19.69,0,0,0,7.12.41h0a6.91,6.91,0,0,1,1.19,1A6.45,6.45,0,0,1,101,45.12a6.57,6.57,0,0,1,.62.55,5.71,5.71,0,0,1-.07,8l-.06.07a5.77,5.77,0,0,1-6.5,1A6.26,6.26,0,0,1,89.11,55.81Z"/><path class="cls-1" d="M84.86,48.29A19.75,19.75,0,0,0,79,34.71a20.12,20.12,0,0,0-7.62-4.8c.06-.48.09-1,.11-1.45a21.36,21.36,0,0,0-.59-5.72l.14.16c4,4.47,8.22,9.09,14.21,12.43a22.58,22.58,0,0,0,5.85,2.31A7.39,7.39,0,0,1,86.51,50.4,18.21,18.21,0,0,0,84.86,48.29Z"/><path class="cls-2" d="M71.43,90.43a18.9,18.9,0,0,1-4.68-1.35,16.07,16.07,0,0,1-2.34.6l.21.2a10.42,10.42,0,0,1,.47,14.23,9.45,9.45,0,0,1-15.08,11,9.28,9.28,0,0,1-1.1-1.32,10.69,10.69,0,0,1-13.41-8.21,20.62,20.62,0,0,1-2.8,3.74,11.49,11.49,0,0,0,14,8.76,8.68,8.68,0,0,0,2,3,8.79,8.79,0,0,0,10.12,1.66l.06.07a7.49,7.49,0,0,0,11.46-9.55,7.93,7.93,0,0,0,1.1-.91,7.64,7.64,0,0,0,0-10.8l-.28-.25c.06-.07.13-.11.18-.17A7.64,7.64,0,0,0,71.43,90.43Z"/><path class="cls-1" d="M78.39,90.17a17.68,17.68,0,0,1-7,.26,7.64,7.64,0,0,1-.1,10.71c0,.06-.12.1-.18.17l.28.25a7.64,7.64,0,0,1,0,10.8,7.93,7.93,0,0,1-1.1.91,7.49,7.49,0,0,1-11.46,9.55l-.06-.07a8.79,8.79,0,0,1-10.12-1.66,8.68,8.68,0,0,1-2-3,11.49,11.49,0,0,1-14-8.76,20.26,20.26,0,0,1-3.83,3.22,15.1,15.1,0,0,0,3.67,5.92,15.3,15.3,0,0,0,11.59,4.46,12.89,12.89,0,0,0,2.1,2.77,13,13,0,0,0,14.11,2.87c.08.09.15.18.24.27a8.28,8.28,0,0,0,13.66-8.63,10.86,10.86,0,0,0,1.87-1.48,10.73,10.73,0,0,0,.58-14.53A13.44,13.44,0,0,0,78.39,90.17Z"/><path class="cls-4" d="M82.51,88.57a16.39,16.39,0,0,1-4.12,1.6,13.44,13.44,0,0,1-1.7,14,10.73,10.73,0,0,1-.58,14.53,10.86,10.86,0,0,1-1.87,1.48,8.28,8.28,0,0,1-13.66,8.63c-.09-.09-.16-.18-.24-.27a13,13,0,0,1-14.11-2.87,12.89,12.89,0,0,1-2.1-2.77,15.3,15.3,0,0,1-11.59-4.46,15.1,15.1,0,0,1-3.67-5.92c-.38.24-.75.47-1.14.69A18.38,18.38,0,0,1,24,114.8a17.22,17.22,0,0,0,18.05,12.81,17.61,17.61,0,0,0,1.76,2A17.18,17.18,0,0,0,60.79,134a10.75,10.75,0,0,0,17.52-11.66,11.41,11.41,0,0,0,5.06-17.29A13.49,13.49,0,0,0,82.51,88.57Z"/><path class="cls-3" d="M64.62,89.88l-.21-.2a17.81,17.81,0,0,1-3.18.27,8.45,8.45,0,0,1-.7,9.46,7.74,7.74,0,0,1-1.37,8.73l-.09.09a7.69,7.69,0,0,1-10.78.09,7.41,7.41,0,0,1-.74-.84A8.66,8.66,0,0,1,37.16,102a19.58,19.58,0,0,1-1.66,3.6,10.69,10.69,0,0,0,13.41,8.21,9.28,9.28,0,0,0,1.1,1.32,9.45,9.45,0,0,0,15.08-11A10.42,10.42,0,0,0,64.62,89.88Z"/><path class="cls-4" d="M61.23,90a19.08,19.08,0,0,1-5.42-.84,6.23,6.23,0,0,1-1,5.86,5.77,5.77,0,0,1-1,6.5l-.06.06a5.73,5.73,0,0,1-8,.07,5.33,5.33,0,0,1-.54-.62A6.46,6.46,0,0,1,39,99.4a6.91,6.91,0,0,1-1-1.19,19.24,19.24,0,0,1-.88,3.78,8.66,8.66,0,0,0,10.39,5.49,7.41,7.41,0,0,0,.74.84,7.69,7.69,0,0,0,10.78-.09l.09-.09a7.74,7.74,0,0,0,1.37-8.73A8.45,8.45,0,0,0,61.23,90Z"/><path class="cls-5" d="M55.81,89.11a20.26,20.26,0,0,1-5.41-2.6,7.39,7.39,0,0,1-12.76,4.57,19.69,19.69,0,0,1,.41,7.12h0a6.91,6.91,0,0,0,1,1.19A6.46,6.46,0,0,0,45.13,101a5.33,5.33,0,0,0,.54.62,5.73,5.73,0,0,0,8-.07l.06-.06a5.77,5.77,0,0,0,1-6.5A6.23,6.23,0,0,0,55.81,89.11Z"/><path class="cls-1" d="M48.29,84.86A19.75,19.75,0,0,1,34.71,79a20.12,20.12,0,0,1-4.8-7.62c-.48.06-1,.09-1.45.11a21.36,21.36,0,0,1-5.72-.59l.16.14c4.47,4,9.09,8.22,12.43,14.21a22.58,22.58,0,0,1,2.31,5.85A7.39,7.39,0,0,0,50.4,86.51,18.21,18.21,0,0,1,48.29,84.86Z"/><path class="cls-1" d="M85.88,94.25a5.72,5.72,0,0,1-.69-.84,13.16,13.16,0,0,0-2.68-4.84,15.4,15.4,0,0,0,6.06-6.06,13.16,13.16,0,0,0,4.84,2.68,5.72,5.72,0,0,1,.84.69c3.14,3.14,3.81,7.56,1.5,9.87S89,97.39,85.88,94.25Z"/><path class="cls-7" d="M78.54,129.76a10.79,10.79,0,0,0,0-6.72c.13.14.27.29.42.43a16,16,0,0,0,13.66,4.65c.2.23.42.47.65.69a15.78,15.78,0,0,0,18.38,3.09,14.72,14.72,0,0,0,20.23-20.23,15.78,15.78,0,0,0-3.09-18.38c-.23-.23-.46-.45-.69-.65A16,16,0,0,0,123.47,79c-.14-.15-.29-.29-.43-.42a10.79,10.79,0,0,0,6.72,0,19.94,19.94,0,0,1,4.85,13.69,20.1,20.1,0,0,1,3.75,20.25,19.92,19.92,0,0,1-25.88,25.88,20.1,20.1,0,0,1-20.25-3.75A19.94,19.94,0,0,1,78.54,129.76Z"/><path class="cls-4" d="M75.18,134.66c.27-.22.51-.45.76-.69a10.71,10.71,0,0,0,2.6-4.21,19.94,19.94,0,0,0,13.69,4.85,20.1,20.1,0,0,0,20.25,3.75,19.92,19.92,0,0,0,25.88-25.88,20.1,20.1,0,0,0-3.75-20.25,19.94,19.94,0,0,0-4.85-13.69,10.71,10.71,0,0,0,4.21-2.6c.24-.25.47-.49.69-.76A23.17,23.17,0,0,1,141,91.87a23.31,23.31,0,0,1,4.36,23.48,23.1,23.1,0,0,1-30,30A23.31,23.31,0,0,1,91.87,141,23.17,23.17,0,0,1,75.18,134.66Z"/><path class="cls-8" d="M79,123.47c-.15-.14-.29-.29-.42-.43l0,0a6.38,6.38,0,0,0-.22-.66A11.42,11.42,0,0,0,81.94,120a12.33,12.33,0,0,0,11.29,2.56,13.65,13.65,0,0,0,1.55,1.86c4.39,4.39,11,5,15.54,1.7,4.76,3.55,11.27,3.42,15.26-.58s4.13-10.5.58-15.26c3.32-4.49,2.69-11.15-1.7-15.54a13.65,13.65,0,0,0-1.86-1.55A12.33,12.33,0,0,0,120,81.94a11.42,11.42,0,0,0,2.31-3.63,6.38,6.38,0,0,0,.66.22l0,0c.14.13.29.27.43.42a16,16,0,0,1,4.65,13.66c.23.2.46.42.69.65a15.78,15.78,0,0,1,3.09,18.38,14.72,14.72,0,0,1-20.23,20.23,15.78,15.78,0,0,1-18.38-3.09c-.23-.22-.45-.46-.65-.69A16,16,0,0,1,79,123.47Z"/><path class="cls-9" d="M81.94,120l.24-.23a11.38,11.38,0,0,0,2.36-3.43,9.68,9.68,0,0,0,9.17,1.88,10.1,10.1,0,0,0,1.22,1.48,9.69,9.69,0,0,0,12.61,1,9.44,9.44,0,0,0,13.24-13.24,9.69,9.69,0,0,0-1-12.61,10.1,10.1,0,0,0-1.48-1.22,9.68,9.68,0,0,0-1.88-9.17,11.38,11.38,0,0,0,3.43-2.36l.23-.24a12.33,12.33,0,0,1,2.56,11.29,13.65,13.65,0,0,1,1.86,1.55c4.39,4.39,5,11,1.7,15.54,3.55,4.76,3.42,11.27-.58,15.26s-10.5,4.13-15.26.58c-4.49,3.32-11.15,2.69-15.54-1.7a13.65,13.65,0,0,1-1.55-1.86A12.33,12.33,0,0,1,81.94,120Z"/><path class="cls-4" d="M84.54,116.38a11.32,11.32,0,0,0,1-4.61,8.09,8.09,0,0,0,7.81,1.77,9,9,0,0,0,1,1.22,8,8,0,0,0,10.42.9,7.77,7.77,0,0,0,10.91-10.91,8,8,0,0,0-.9-10.42,9,9,0,0,0-1.22-1,8.09,8.09,0,0,0-1.77-7.81,11.32,11.32,0,0,0,4.61-1,9.68,9.68,0,0,1,1.88,9.17,10.1,10.1,0,0,1,1.48,1.22,9.69,9.69,0,0,1,1,12.61,9.44,9.44,0,0,1-13.24,13.24,9.69,9.69,0,0,1-12.61-1,10.1,10.1,0,0,1-1.22-1.48A9.68,9.68,0,0,1,84.54,116.38Z"/><path class="cls-5" d="M85.51,111.77a11.3,11.3,0,0,0-2.14-6.71,7.32,7.32,0,0,0,.52-.8,6.66,6.66,0,0,0,8.45,4.85,7,7,0,0,0,.83,1,6.55,6.55,0,0,0,8.57.67,6.45,6.45,0,0,0,9-9,6.55,6.55,0,0,0-.67-8.57,7,7,0,0,0-1-.83,6.66,6.66,0,0,0-4.85-8.45,7.32,7.32,0,0,0,.8-.52,11.3,11.3,0,0,0,6.71,2.14,8.09,8.09,0,0,1,1.77,7.81,9,9,0,0,1,1.22,1,8,8,0,0,1,.9,10.42,7.77,7.77,0,0,1-10.91,10.91,8,8,0,0,1-10.42-.9,9,9,0,0,1-1-1.22A8.09,8.09,0,0,1,85.51,111.77Z"/><path class="cls-6" d="M85.67,107.46a6.61,6.61,0,0,1-1.78-3.2h0a12.43,12.43,0,0,0,.94-1.9,13.61,13.61,0,0,0,.36-9,5.72,5.72,0,0,0,.69.84c3.14,3.14,7.56,3.81,9.87,1.5s1.64-6.73-1.5-9.87a5.72,5.72,0,0,0-.84-.69,13.61,13.61,0,0,0,9-.36,12.43,12.43,0,0,0,1.9-.94h0a6.66,6.66,0,0,1,4.85,8.45,7,7,0,0,1,1,.83,6.55,6.55,0,0,1,.67,8.57,6.45,6.45,0,0,1-9,9,6.55,6.55,0,0,1-8.57-.67,7,7,0,0,1-.83-1A6.61,6.61,0,0,1,85.67,107.46Z"/><path class="cls-4" d="M137.15,54.94a13.82,13.82,0,0,1,2.22-11.19,14.28,14.28,0,0,1,1.57-1.87,13.53,13.53,0,0,1,3.48-2.52c4.62-2.34,12.84.81,14,7.57a11.66,11.66,0,0,0-.91-1.34c-2.82-3.62-7.23-4.86-10.84-3.08A10,10,0,0,0,143,45.74,10.5,10.5,0,0,0,141.23,50a11.05,11.05,0,0,0,1.86,8.28,11.84,11.84,0,0,0,2.83,2.75,13,13,0,0,0,6.16,2.14,13.12,13.12,0,0,0,3.12-.07,14.21,14.21,0,0,0,2.88-.76,17.3,17.3,0,0,0,4.39-2.49A21.4,21.4,0,0,0,168.16,53,27,27,0,0,0,171,37.45a39,39,0,0,0-4.5-13.83,59.1,59.1,0,0,0-7.84-11.44,59.18,59.18,0,0,0-10.19-9q-2.4-1.7-4.92-3.16h6c.52.35,1,.69,1.53,1.05a61.79,61.79,0,0,1,10.63,9.42,61.53,61.53,0,0,1,8.22,12,41.85,41.85,0,0,1,4.84,14.94,30.16,30.16,0,0,1-3.23,17.47,29.78,29.78,0,0,1-4.87,6.45,25.1,25.1,0,0,1-2.19,1.94,20.36,20.36,0,0,1-5.3,3,18,18,0,0,1-3.6,1,19.62,19.62,0,0,1-2.16.16q-.87,0-1.8-.06a15.14,15.14,0,0,1-7.83-2.74C140.38,62,138.23,59.28,137.15,54.94Z"/><path class="cls-5" d="M143.09,58.3A11.05,11.05,0,0,1,141.23,50,10.5,10.5,0,0,1,143,45.74a10,10,0,0,1,3.69-3.23c3.61-1.78,8-.54,10.84,3.08-3-3.37-8.23-2.71-10.51,1.62s.83,10.24,6.43,10.85c5.9.64,13.35-7,12.87-18.88S160.1,17.7,153.07,10.6A60.74,60.74,0,0,0,138.84,0h4.73q2.52,1.47,4.92,3.16a59.18,59.18,0,0,1,10.19,9,59.1,59.1,0,0,1,7.84,11.44A39,39,0,0,1,171,37.45,27,27,0,0,1,168.16,53a21.4,21.4,0,0,1-5.69,6.84,17.3,17.3,0,0,1-4.39,2.49,14.21,14.21,0,0,1-2.88.76,13.12,13.12,0,0,1-3.12.07,13,13,0,0,1-6.16-2.14A11.84,11.84,0,0,1,143.09,58.3Z"/><path class="cls-6" d="M147,47.21c2.28-4.33,7.51-5,10.51-1.62a11.66,11.66,0,0,1,.91,1.34,14.59,14.59,0,0,0,2-4.07,21.43,21.43,0,0,0,1-5.11A29,29,0,0,0,160,26.47a36.43,36.43,0,0,0-6-10.28,48.19,48.19,0,0,0-8.69-8.73A58.25,58.25,0,0,0,133.71,0h5.13a60.74,60.74,0,0,1,14.23,10.6c7,7.1,12.77,16.66,13.25,28.58s-7,19.52-12.87,18.88C147.85,57.45,144.73,51.54,147,47.21Z"/><path class="cls-7" d="M107.78,6.26A30.83,30.83,0,0,1,123.93,0h9.78a57.92,57.92,0,0,1,11.52,7.45,47.93,47.93,0,0,1,8.69,8.74,36.43,36.43,0,0,1,6,10.28,29,29,0,0,1,1.48,11.28,21.43,21.43,0,0,1-1,5.11,14.59,14.59,0,0,1-2,4.07A9,9,0,0,0,157,43.37c3.31-7.92-.14-17.82-6.07-25.12-8.61-10.59-23.66-16.57-38.74-8.17A15.33,15.33,0,0,0,107.78,6.26Z"/><path class="cls-8" d="M115,15.77a14.31,14.31,0,0,0-.68-2.07,15.35,15.35,0,0,0-2.14-3.62c15.08-8.4,30.13-2.42,38.74,8.17,5.93,7.3,9.38,17.2,6.07,25.12a10,10,0,0,0-1.77-2c1.25-8.78-3.26-17.19-9.59-22.52C137.3,11.82,125.32,9.75,115,15.77Z"/><path class="cls-9" d="M114.92,23.61a15.22,15.22,0,0,0,.09-7.84c10.31-6,22.29-3.95,30.63,3.08,6.33,5.33,10.84,13.74,9.59,22.52a11.4,11.4,0,0,0-2.47-1.61c-1.14-13.65-10.87-19.45-16.3-21C130.86,17.16,122.64,17.57,114.92,23.61Z"/><path class="cls-4" d="M185.42,70.86a42.7,42.7,0,0,1-2.78-3.57,58.88,58.88,0,0,1-4.21-7.05c-1.27-2.47-2.3-4.66-3.17-6.71q-.84-2-1.59-3.75A30.36,30.36,0,0,0,175,41.42c.52,1.4,1.05,2.8,1.6,4.18.75,1.94,1.6,4,2.59,6.27.83,2,1.82,4.05,3,6.42a55.46,55.46,0,0,0,3.91,6.56,40,40,0,0,0,2.52,3.24,32.92,32.92,0,0,0,3.05,3.13,24.42,24.42,0,0,0,8.78,5.27,18.93,18.93,0,0,0,6.27,1,18.59,18.59,0,0,0,6.71-1.35,19.07,19.07,0,0,0,5.79-3.7l.42-.41a17.47,17.47,0,0,0,2.08-2.5,14.46,14.46,0,0,0,2-11.73,10.46,10.46,0,0,0-3.08-5.28,12.76,12.76,0,0,0-3.26-2.29,12.57,12.57,0,0,0-4.83-1.29,11.39,11.39,0,0,0-7.17,2.41c-3.6,3-4.08,7.13-1.79,10.51A8.9,8.9,0,0,1,203,49c1.92-2.18,5.89-4.57,9.88-4.32a16.7,16.7,0,0,1,6.45,1.71,17.36,17.36,0,0,1,4.3,3,14.62,14.62,0,0,1,4.22,7.14,18.68,18.68,0,0,1-2.57,15.31,21.93,21.93,0,0,1-3.11,3.62,23,23,0,0,1-23,5,28.5,28.5,0,0,1-10.3-6.14A38.6,38.6,0,0,1,185.42,70.86Z"/><path class="cls-9" d="M188.94,53.73c-6.18-10.83-9.16-23.67-15.64-33.13A72.78,72.78,0,0,0,162.24,8a108,108,0,0,1,9.46,7.84c1,1,2,1.94,3,2.9a82.82,82.82,0,0,1,6.6,10.75c.52,1,1,2,1.5,3l1.35,2.94c.89,2,1.81,3.89,2.74,5.8A89.86,89.86,0,0,0,193,52.15a43,43,0,0,0,3.62,4.64,22.21,22.21,0,0,0,2,1.92,21.37,21.37,0,0,0,2.09,1.64,11.72,11.72,0,0,0,2.9,1.48c.92-4.53,6.76-6.48,9.62-3.17,3,3.53-.16,9.34-6,9.74S195.12,64.55,188.94,53.73Z"/><path class="cls-7" d="M188.63,68.09a40,40,0,0,1-2.52-3.24,55.46,55.46,0,0,1-3.91-6.56c-1.21-2.37-2.2-4.46-3-6.42-1-2.28-1.84-4.33-2.59-6.27-.55-1.38-1.08-2.78-1.6-4.18a32.14,32.14,0,0,0-.18-4A41.85,41.85,0,0,0,170,22.45a63.54,63.54,0,0,0-6.43-9.85A53.09,53.09,0,0,1,170,20.91,62.16,62.16,0,0,1,175.65,32q.57,1.45,1.08,2.94L177.84,38c.75,2.06,1.52,4.11,2.33,6.17s1.66,4.1,2.55,6.16,1.85,4.1,2.9,6.16a52.65,52.65,0,0,0,3.65,6.11,32.31,32.31,0,0,0,2.31,3,28.89,28.89,0,0,0,2.68,2.76,20.72,20.72,0,0,0,7.4,4.47,15.36,15.36,0,0,0,5,.79,14.8,14.8,0,0,0,5.3-1.08,15.09,15.09,0,0,0,4.6-2.92,13.75,13.75,0,0,0,1.95-2.26,10.33,10.33,0,0,0,1.58-3.7,9.61,9.61,0,0,0-.17-4.75A6.67,6.67,0,0,0,218,55.28a16.11,16.11,0,0,0-3-2.28,8.66,8.66,0,0,0-3.36-.89,8.34,8.34,0,0,0-4.28.94,8.44,8.44,0,0,0-3,2.76,6.78,6.78,0,0,0-.74,6c-2.29-3.38-1.81-7.5,1.79-10.51a11.39,11.39,0,0,1,7.17-2.41,12.57,12.57,0,0,1,4.83,1.29,12.76,12.76,0,0,1,3.26,2.29,10.46,10.46,0,0,1,3.08,5.28,14.46,14.46,0,0,1-2,11.73,17.47,17.47,0,0,1-2.08,2.5l-.42.41a19.07,19.07,0,0,1-5.79,3.7,18.59,18.59,0,0,1-6.71,1.35,18.93,18.93,0,0,1-6.27-1,24.42,24.42,0,0,1-8.78-5.27A32.92,32.92,0,0,1,188.63,68.09Z"/><path class="cls-8" d="M191.58,65.59a32.31,32.31,0,0,1-2.31-3,52.65,52.65,0,0,1-3.65-6.11c-1.05-2.06-2-4.11-2.9-6.16s-1.75-4.11-2.55-6.16-1.58-4.11-2.33-6.17L176.73,35q-.51-1.48-1.08-2.94A62.16,62.16,0,0,0,170,20.91a53.09,53.09,0,0,0-6.47-8.31l0,0q-.87-1.08-1.77-2.1a61.84,61.84,0,0,0-10.06-9l-.57-.4c-.5-.36-1-.7-1.53-1,.77.39,1.53.81,2.29,1.24A94.65,94.65,0,0,1,162.24,8,72.78,72.78,0,0,1,173.3,20.6c6.48,9.46,9.46,22.3,15.64,33.13S201.37,68.8,207.22,68.4s9.06-6.21,6-9.74c-2.86-3.31-8.7-1.36-9.62,3.17a6.78,6.78,0,0,1,.74-6,8.44,8.44,0,0,1,3-2.76,8.34,8.34,0,0,1,4.28-.94,8.66,8.66,0,0,1,3.36.89,16.11,16.11,0,0,1,3,2.28,6.67,6.67,0,0,1,1.93,3.62,9.61,9.61,0,0,1,.17,4.75,10.33,10.33,0,0,1-1.58,3.7,13.75,13.75,0,0,1-1.95,2.26,15.09,15.09,0,0,1-4.6,2.92,14.8,14.8,0,0,1-5.3,1.08,15.36,15.36,0,0,1-5-.79,20.72,20.72,0,0,1-7.4-4.47A28.89,28.89,0,0,1,191.58,65.59Z"/><path class="cls-7" d="M163.56,81a13.64,13.64,0,0,1-2.24-1.79A13,13,0,0,1,158,66.67q.6-.18,1.23-.42a19.19,19.19,0,0,0,3.85-2,8.93,8.93,0,0,0,5.28,14.17,8.93,8.93,0,1,0,16.39,6.85,8.92,8.92,0,0,0,8.05-7.86,26.79,26.79,0,0,0,3.81,2.09,12.75,12.75,0,0,1-3.46,6.24A12.89,12.89,0,0,1,187.78,89a13,13,0,0,1-24.22-8Z"/><path class="cls-4" d="M168.34,78.45a8.93,8.93,0,0,1-5.28-14.17c.48-.31,1-.66,1.45-1a25.1,25.1,0,0,0,2.19-1.94,29.78,29.78,0,0,0,4.87-6.45,28.91,28.91,0,0,0,2.1-5.08q.75,1.78,1.59,3.75c.87,2,1.9,4.24,3.17,6.71a58.88,58.88,0,0,0,4.21,7.05,42.7,42.7,0,0,0,2.78,3.57,38.6,38.6,0,0,0,3.42,3.52,34.4,34.4,0,0,0,3.94,3.06,8.92,8.92,0,0,1-8.05,7.86,8.93,8.93,0,1,1-16.39-6.85Z"/><path class="cls-2" d="M161.82,98a14.7,14.7,0,0,1-8.56-15.32A16.15,16.15,0,0,1,149.51,67c.69.14,1.41.24,2.14.32s1.22.07,1.8.06h.47A11.84,11.84,0,0,0,156.61,80,13.17,13.17,0,0,0,158,81.16,10.39,10.39,0,0,0,160.48,92a10.24,10.24,0,0,0,5.05,2.78,8.15,8.15,0,0,0,13.89,5.2c.19-.2.37-.39.54-.6a8.72,8.72,0,0,0,10-7.13,12.19,12.19,0,0,0,10.33-11.32,22.43,22.43,0,0,0,4.25.75,16.46,16.46,0,0,1-4.77,10.2,16.29,16.29,0,0,1-6.41,4,12.75,12.75,0,0,1-2.79,4.15,13.1,13.1,0,0,1-9,3.82A12.46,12.46,0,0,1,161.82,98Z"/><path class="cls-1" d="M158.67,102.91a18,18,0,0,1-5.45-3.75A18.4,18.4,0,0,1,148,83.85a20.12,20.12,0,0,1-4.66-19.65,5.72,5.72,0,0,0,.46.37A13.49,13.49,0,0,0,149.51,67a16.15,16.15,0,0,0,3.75,15.71A14.7,14.7,0,0,0,161.82,98a12.46,12.46,0,0,0,19.78,5.74,13.1,13.1,0,0,0,9-3.82,12.75,12.75,0,0,0,2.79-4.15,16.29,16.29,0,0,0,6.41-4,16.46,16.46,0,0,0,4.77-10.2,20.13,20.13,0,0,0,2.2.07A23.12,23.12,0,0,0,212,81a20.52,20.52,0,0,1-6,14.18,20.29,20.29,0,0,1-8,4.94,16,16,0,0,1-3.47,5.17,16.23,16.23,0,0,1-11.23,4.74,15.49,15.49,0,0,1-24.64-7.15Z"/><path class="cls-3" d="M165.53,94.73A10.24,10.24,0,0,1,160.48,92,10.39,10.39,0,0,1,158,81.16,13.17,13.17,0,0,1,156.61,80a11.84,11.84,0,0,1-2.69-12.61c.56,0,1.17-.08,1.69-.15a16.85,16.85,0,0,0,2.37-.54,13,13,0,0,0,3.34,12.54A13.64,13.64,0,0,0,163.56,81a13,13,0,0,0,24.22,8,12.89,12.89,0,0,0,5.35-3.23,12.75,12.75,0,0,0,3.46-6.24,23.18,23.18,0,0,0,2.55,1c.4.13.8.26,1.2.36A12.19,12.19,0,0,1,190,92.2a8.72,8.72,0,0,1-10,7.13c-.17.21-.35.4-.54.6a8.15,8.15,0,0,1-13.89-5.2Z"/><path class="cls-6" d="M175.23,62a32,32,0,0,1,1.18,5.29c.24,1.78.49,3.55.7,5.32s.43,3.55.62,5.32.35,3.55.48,5.33a2,2,0,1,1-4.07.3s0-.08,0-.12c0-1.78,0-3.57,0-5.35s.08-3.57.15-5.36.14-3.57.23-5.35A29.3,29.3,0,0,1,175.23,62Z"/><path class="cls-6" d="M178.09,66.29a16.87,16.87,0,0,1,2.13,2.94c.59,1,1.2,2.06,1.77,3.1s1.15,2.08,1.7,3.13,1.08,2.11,1.6,3.17a1.7,1.7,0,1,1-3.07,1.48.61.61,0,0,1-.05-.12c-.43-1.11-.84-2.22-1.23-3.34s-.76-2.25-1.12-3.38-.7-2.27-1-3.41A17.22,17.22,0,0,1,178.09,66.29Z"/><path class="cls-6" d="M172.42,60.63a18,18,0,0,1-.28,3.7c-.22,1.2-.43,2.4-.67,3.6s-.47,2.38-.73,3.57-.54,2.37-.84,3.54a1.7,1.7,0,0,1-3.3-.84s0-.09,0-.13q.59-1.72,1.23-3.42c.44-1.14.88-2.27,1.34-3.4s.94-2.24,1.42-3.37A16.73,16.73,0,0,1,172.42,60.63Z"/><path class="cls-4" d="M54.94,137.15a13.84,13.84,0,0,0-11.19,2.22,14.28,14.28,0,0,0-1.87,1.57,13.53,13.53,0,0,0-2.52,3.48c-2.34,4.62.81,12.84,7.57,14a11.66,11.66,0,0,1-1.34-.91c-3.62-2.82-4.86-7.23-3.08-10.84A10,10,0,0,1,45.74,143,10.5,10.5,0,0,1,50,141.23a11.05,11.05,0,0,1,8.28,1.86,11.84,11.84,0,0,1,2.75,2.83,13,13,0,0,1,2.14,6.16,13.12,13.12,0,0,1-.07,3.12,14.21,14.21,0,0,1-.76,2.88,17.3,17.3,0,0,1-2.49,4.39A21.4,21.4,0,0,1,53,168.16,27,27,0,0,1,37.46,171a39,39,0,0,1-13.84-4.5,59.1,59.1,0,0,1-11.44-7.84,59.18,59.18,0,0,1-9-10.19q-1.7-2.4-3.16-4.92v6c.35.52.69,1,1.05,1.53a62.16,62.16,0,0,0,9.42,10.63,61.53,61.53,0,0,0,12,8.22,41.85,41.85,0,0,0,14.94,4.84,30.16,30.16,0,0,0,17.47-3.23,29.78,29.78,0,0,0,6.45-4.87,25.1,25.1,0,0,0,1.94-2.19,20.36,20.36,0,0,0,3-5.3,18,18,0,0,0,1-3.6,19.62,19.62,0,0,0,.16-2.16q0-.87-.06-1.8a15.14,15.14,0,0,0-2.74-7.83C62,140.38,59.28,138.23,54.94,137.15Z"/><path class="cls-5" d="M58.3,143.09A11.05,11.05,0,0,0,50,141.23,10.5,10.5,0,0,0,45.74,143a10,10,0,0,0-3.23,3.69c-1.78,3.61-.54,8,3.08,10.84-3.37-3-2.71-8.23,1.62-10.51s10.24.83,10.85,6.43c.64,5.9-7,13.35-18.88,12.87S17.7,160.1,10.6,153.07A60.74,60.74,0,0,1,0,138.84v4.73q1.47,2.52,3.16,4.92a59.18,59.18,0,0,0,9,10.19,59.1,59.1,0,0,0,11.44,7.84A39,39,0,0,0,37.46,171,27,27,0,0,0,53,168.16a21.4,21.4,0,0,0,6.84-5.69,17.3,17.3,0,0,0,2.49-4.39,14.21,14.21,0,0,0,.76-2.88,13.12,13.12,0,0,0,.07-3.12,13,13,0,0,0-2.14-6.16A11.84,11.84,0,0,0,58.3,143.09Z"/><path class="cls-6" d="M47.21,147c-4.33,2.28-5,7.51-1.62,10.51a11.66,11.66,0,0,0,1.34.91,14.59,14.59,0,0,1-4.07,2,21.43,21.43,0,0,1-5.11,1A29,29,0,0,1,26.47,160a36.43,36.43,0,0,1-10.28-6,48.19,48.19,0,0,1-8.73-8.69A58.25,58.25,0,0,1,0,133.71v5.13a60.74,60.74,0,0,0,10.6,14.23c7.1,7,16.66,12.77,28.58,13.25s19.52-7,18.88-12.87C57.45,147.85,51.54,144.73,47.21,147Z"/><path class="cls-7" d="M6.26,107.78A30.83,30.83,0,0,0,0,123.93v9.78a58.21,58.21,0,0,0,7.45,11.52,47.93,47.93,0,0,0,8.74,8.69,36.43,36.43,0,0,0,10.28,6,29,29,0,0,0,11.28,1.48,21.43,21.43,0,0,0,5.11-1,14.59,14.59,0,0,0,4.07-2A9,9,0,0,1,43.37,157c-7.92,3.31-17.82-.14-25.12-6.07-10.59-8.61-16.57-23.66-8.17-38.74A15.33,15.33,0,0,1,6.26,107.78Z"/><path class="cls-8" d="M15.77,115a14.31,14.31,0,0,1-2.07-.68,15.35,15.35,0,0,1-3.62-2.14c-8.4,15.08-2.42,30.13,8.17,38.74,7.3,5.93,17.2,9.38,25.12,6.07a10,10,0,0,1-2-1.77c-8.78,1.25-17.19-3.26-22.52-9.59C11.82,137.3,9.75,125.32,15.77,115Z"/><path class="cls-9" d="M23.61,114.92a15.22,15.22,0,0,1-7.84.09c-6,10.31-3.95,22.29,3.08,30.63,5.33,6.33,13.74,10.84,22.52,9.59a11.4,11.4,0,0,1-1.61-2.47c-13.65-1.14-19.45-10.87-21-16.3C17.16,130.86,17.57,122.64,23.61,114.92Z"/><path class="cls-4" d="M70.86,185.42a42.7,42.7,0,0,0-3.57-2.78,58.88,58.88,0,0,0-7.05-4.21c-2.47-1.27-4.66-2.3-6.71-3.17l-3.75-1.59A30.36,30.36,0,0,1,41.42,175c1.4.52,2.8,1.05,4.18,1.6,1.94.75,4,1.6,6.27,2.59,2,.83,4.05,1.82,6.42,3a55.46,55.46,0,0,1,6.56,3.91,40,40,0,0,1,3.24,2.52,32.92,32.92,0,0,1,3.13,3.05,24.42,24.42,0,0,1,5.27,8.78,18.93,18.93,0,0,1,1,6.27,18.59,18.59,0,0,1-1.35,6.71,19.07,19.07,0,0,1-3.7,5.79l-.41.42a17.47,17.47,0,0,1-2.5,2.08,14,14,0,0,1-5,2.15,13.81,13.81,0,0,1-6.7-.13,10.45,10.45,0,0,1-5.29-3.08,12.76,12.76,0,0,1-2.29-3.26,12.57,12.57,0,0,1-1.29-4.83,11.39,11.39,0,0,1,2.41-7.17c3-3.6,7.13-4.08,10.51-1.79A8.9,8.9,0,0,0,49,203a13.19,13.19,0,0,0-4.32,9.88,16.7,16.7,0,0,0,1.71,6.45,17.36,17.36,0,0,0,3,4.3,14.7,14.7,0,0,0,7.14,4.22,18.68,18.68,0,0,0,15.31-2.57,22.41,22.41,0,0,0,3.62-3.11,23,23,0,0,0,6.21-15.35,23.23,23.23,0,0,0-1.17-7.65,28.67,28.67,0,0,0-6.15-10.3A38.6,38.6,0,0,0,70.86,185.42Z"/><path class="cls-9" d="M53.73,188.94c-10.83-6.18-23.67-9.16-33.13-15.64A72.78,72.78,0,0,1,8,162.24a108,108,0,0,0,7.84,9.46c1,1,1.94,2,2.9,3a82.82,82.82,0,0,0,10.75,6.6c1,.52,2,1,3,1.5l2.94,1.35c2,.89,3.89,1.81,5.8,2.74A89.86,89.86,0,0,1,52.15,193a42.06,42.06,0,0,1,4.64,3.62,22.21,22.21,0,0,1,1.92,2,20.24,20.24,0,0,1,1.64,2.09,11.72,11.72,0,0,1,1.48,2.9c-4.53.92-6.48,6.75-3.16,9.62,3.52,3,9.33-.16,9.73-6S64.55,195.12,53.73,188.94Z"/><path class="cls-7" d="M68.09,188.63a40,40,0,0,0-3.24-2.52,55.46,55.46,0,0,0-6.56-3.91c-2.37-1.21-4.46-2.2-6.42-3-2.27-1-4.33-1.84-6.27-2.59-1.38-.55-2.78-1.08-4.18-1.6a32.14,32.14,0,0,1-4-.18A41.85,41.85,0,0,1,22.45,170a63.54,63.54,0,0,1-9.85-6.43A53.09,53.09,0,0,0,20.91,170,62.16,62.16,0,0,0,32,175.65q1.45.57,2.94,1.08L38,177.84c2.06.75,4.11,1.52,6.17,2.33s4.1,1.66,6.16,2.55,4.1,1.85,6.16,2.9a53.61,53.61,0,0,1,6.12,3.65,33.61,33.61,0,0,1,3,2.31,28.89,28.89,0,0,1,2.76,2.68,20.72,20.72,0,0,1,4.47,7.4,15.36,15.36,0,0,1,.79,5,14.8,14.8,0,0,1-1.08,5.3,15.09,15.09,0,0,1-2.92,4.6,13.75,13.75,0,0,1-2.26,1.95,10.36,10.36,0,0,1-3.69,1.58,9.65,9.65,0,0,1-4.76-.17A6.67,6.67,0,0,1,55.28,218a16.11,16.11,0,0,1-2.28-3,8.66,8.66,0,0,1-.89-3.36,8.34,8.34,0,0,1,.94-4.28,8.44,8.44,0,0,1,2.76-3,6.78,6.78,0,0,1,6-.74c-3.38-2.29-7.5-1.81-10.51,1.79a11.39,11.39,0,0,0-2.41,7.17,12.57,12.57,0,0,0,1.29,4.83,12.76,12.76,0,0,0,2.29,3.26,10.45,10.45,0,0,0,5.29,3.08,13.81,13.81,0,0,0,6.7.13,14,14,0,0,0,5-2.15,17.47,17.47,0,0,0,2.5-2.08l.41-.42a19.07,19.07,0,0,0,3.7-5.79,18.59,18.59,0,0,0,1.35-6.71,18.93,18.93,0,0,0-1-6.27,24.42,24.42,0,0,0-5.27-8.78A32.92,32.92,0,0,0,68.09,188.63Z"/><path class="cls-8" d="M65.59,191.58a33.61,33.61,0,0,0-3-2.31,53.61,53.61,0,0,0-6.12-3.65c-2.06-1.05-4.11-2-6.16-2.9s-4.11-1.75-6.16-2.55-4.11-1.58-6.17-2.33L35,176.73q-1.48-.51-2.94-1.08A62.16,62.16,0,0,1,20.91,170a53.09,53.09,0,0,1-8.31-6.47l0,0q-1.08-.87-2.1-1.77a61.84,61.84,0,0,1-9-10.06l-.4-.57c-.36-.5-.7-1-1-1.53.39.77.81,1.53,1.24,2.29A94.65,94.65,0,0,0,8,162.24,72.78,72.78,0,0,0,20.6,173.3c9.46,6.48,22.3,9.46,33.13,15.64S68.8,201.37,68.4,207.22s-6.21,9.06-9.73,6c-3.32-2.87-1.37-8.7,3.16-9.62a6.78,6.78,0,0,0-6,.74,8.44,8.44,0,0,0-2.76,3,8.34,8.34,0,0,0-.94,4.28,8.66,8.66,0,0,0,.89,3.36,16.11,16.11,0,0,0,2.28,3,6.67,6.67,0,0,0,3.62,1.93,9.65,9.65,0,0,0,4.76.17,10.36,10.36,0,0,0,3.69-1.58,13.75,13.75,0,0,0,2.26-1.95,15.09,15.09,0,0,0,2.92-4.6,14.8,14.8,0,0,0,1.08-5.3,15.36,15.36,0,0,0-.79-5,20.72,20.72,0,0,0-4.47-7.4A28.89,28.89,0,0,0,65.59,191.58Z"/><path class="cls-7" d="M81,163.56a13.64,13.64,0,0,0-1.79-2.24A13,13,0,0,0,66.67,158c-.12.41-.26.82-.42,1.24a19.19,19.19,0,0,1-2,3.85,8.93,8.93,0,0,1,14.17,5.28,8.93,8.93,0,1,1,6.85,16.39,8.92,8.92,0,0,1-7.86,8.05,26.79,26.79,0,0,1,2.09,3.81A13,13,0,0,0,89,187.78a13,13,0,0,0-8-24.22Z"/><path class="cls-4" d="M78.45,168.34a8.93,8.93,0,0,0-14.17-5.28c-.31.48-.66,1-1,1.45a25.1,25.1,0,0,1-1.94,2.19,29.78,29.78,0,0,1-6.45,4.87,28.91,28.91,0,0,1-5.08,2.1l3.75,1.59c2,.87,4.24,1.9,6.71,3.17a58.88,58.88,0,0,1,7.05,4.21,42.7,42.7,0,0,1,3.57,2.78,38.6,38.6,0,0,1,3.52,3.42,33.31,33.31,0,0,1,3.06,3.94,8.92,8.92,0,0,0,7.86-8.05,8.93,8.93,0,1,0-6.85-16.39Z"/><path class="cls-2" d="M98,161.82a14.7,14.7,0,0,0-15.32-8.56A16.15,16.15,0,0,0,67,149.51a20.78,20.78,0,0,1,.32,2.14q.07.93.06,1.8c0,.15,0,.3,0,.47A11.84,11.84,0,0,1,80,156.61,13.17,13.17,0,0,1,81.16,158,10.39,10.39,0,0,1,92,160.48a10.24,10.24,0,0,1,2.78,5.05,8.15,8.15,0,0,1,5.2,13.89c-.2.19-.39.37-.6.54a8.72,8.72,0,0,1-7.13,10,12.19,12.19,0,0,1-11.32,10.33,22.43,22.43,0,0,1,.75,4.25,16.46,16.46,0,0,0,10.2-4.77,16.29,16.29,0,0,0,4-6.41,12.75,12.75,0,0,0,4.15-2.79,13.1,13.1,0,0,0,3.82-9A12.46,12.46,0,0,0,98,161.82Z"/><path class="cls-1" d="M102.91,158.67a18,18,0,0,0-3.75-5.45A18.4,18.4,0,0,0,83.85,148a20.12,20.12,0,0,0-19.65-4.66,5.72,5.72,0,0,1,.37.46A13.49,13.49,0,0,1,67,149.51a16.15,16.15,0,0,1,15.71,3.75A14.7,14.7,0,0,1,98,161.82a12.46,12.46,0,0,1,5.74,19.78,13.1,13.1,0,0,1-3.82,9,12.75,12.75,0,0,1-4.15,2.79,16.29,16.29,0,0,1-4,6.41,16.46,16.46,0,0,1-10.2,4.77,20.13,20.13,0,0,1,.07,2.2A23.12,23.12,0,0,1,81,212a20.52,20.52,0,0,0,14.18-6,20.29,20.29,0,0,0,4.94-8,16,16,0,0,0,5.17-3.47,16.23,16.23,0,0,0,4.74-11.23,15.49,15.49,0,0,0-7.15-24.64Z"/><path class="cls-3" d="M94.73,165.53A10.24,10.24,0,0,0,92,160.48,10.39,10.39,0,0,0,81.16,158,13.17,13.17,0,0,0,80,156.61a11.84,11.84,0,0,0-12.61-2.69c0,.56-.08,1.17-.15,1.69a16.41,16.41,0,0,1-.54,2.36,13,13,0,0,1,12.54,3.35A13.64,13.64,0,0,1,81,163.56a13,13,0,0,1,8,24.22,13,13,0,0,1-9.47,8.81,25.44,25.44,0,0,1,1,2.55c.13.4.25.8.35,1.2A12.19,12.19,0,0,0,92.2,190a8.72,8.72,0,0,0,7.13-10c.21-.17.4-.35.6-.54a8.15,8.15,0,0,0-5.2-13.89Z"/><path class="cls-6" d="M62,175.23a32.19,32.19,0,0,0,5.29,1.18c1.78.24,3.55.49,5.32.7s3.55.43,5.32.62,3.55.35,5.33.48a2,2,0,1,0,.3-4.07h-.12c-1.78,0-3.57,0-5.35,0s-3.57.08-5.35.15-3.58.14-5.36.23A29.3,29.3,0,0,0,62,175.23Z"/><path class="cls-6" d="M66.29,178.09a16.87,16.87,0,0,0,2.94,2.13c1,.59,2.06,1.19,3.1,1.77s2.08,1.15,3.13,1.7,2.11,1.08,3.17,1.6a1.7,1.7,0,1,0,1.48-3.07l-.12-.06c-1.11-.42-2.22-.83-3.34-1.22s-2.25-.76-3.38-1.12-2.27-.7-3.41-1A17.22,17.22,0,0,0,66.29,178.09Z"/><path class="cls-6" d="M60.63,172.42a18,18,0,0,0,3.7-.28c1.2-.22,2.4-.43,3.6-.67s2.38-.47,3.57-.73,2.37-.54,3.54-.84a1.7,1.7,0,1,0-.84-3.3l-.13,0q-1.72.59-3.42,1.23c-1.14.44-2.27.88-3.4,1.34s-2.24.94-3.37,1.42A16.73,16.73,0,0,0,60.63,172.42Z"/></g></g></svg>