<svg width="35" height="39" viewBox="0 0 35 39" fill="none" xmlns="http://www.w3.org/2000/svg">
<path d="M30.7762 19.1669C30.7773 18.2832 30.4384 17.4328 29.8297 16.7921C29.221 16.1514 28.3892 15.7693 27.5065 15.7252C27.0293 14.285 26.2592 12.9592 25.2448 11.8311C25.6563 11.0445 25.7479 10.1293 25.5006 9.27677C25.2533 8.42421 24.6861 7.70019 23.9175 7.25595C23.149 6.8117 22.2385 6.68158 21.3763 6.89278C20.5141 7.10397 19.7668 7.64014 19.2906 8.38929C18.5499 8.23481 17.7953 8.15737 17.0387 8.1582C16.2804 8.16144 15.5244 8.2405 14.7819 8.39421C14.2919 7.67687 13.5487 7.17135 12.7016 6.97908C11.8544 6.78681 10.9659 6.92202 10.2142 7.35757C9.46258 7.79313 8.90345 8.4968 8.64901 9.32742C8.39457 10.158 8.46364 11.0542 8.84237 11.836C7.83346 12.9783 7.07625 14.3202 6.61998 15.7743C5.70717 15.7743 4.83175 16.1369 4.18629 16.7824C3.54084 17.4278 3.17822 18.3033 3.17822 19.2161C3.17822 20.1289 3.54084 21.0043 4.18629 21.6498C4.83175 22.2952 5.70717 22.6578 6.61998 22.6578C7.09611 24.0999 7.86625 25.4276 8.88171 26.5569C8.47023 27.3434 8.37859 28.2586 8.62593 29.1111C8.87326 29.9637 9.44044 30.6877 10.209 31.132C10.9775 31.5762 11.888 31.7063 12.7502 31.4951C13.6124 31.2839 14.3597 30.7478 14.8359 29.9986C15.5771 30.1491 16.3315 30.2249 17.0878 30.2248C17.8428 30.2087 18.5942 30.1148 19.3299 29.9445C19.8162 30.6708 20.5605 31.1848 21.4119 31.3823C22.2633 31.5798 23.1579 31.4461 23.9143 31.0081C24.6707 30.5702 25.2321 29.8609 25.4847 29.0242C25.7372 28.1875 25.662 27.2861 25.2743 26.5028C26.2833 25.3695 27.0482 24.0406 27.5213 22.5988C28.3996 22.5511 29.2264 22.1688 29.8317 21.5306C30.437 20.8923 30.775 20.0466 30.7762 19.1669Z" fill="white"/>
<path d="M23.2191 7.63724C23.2191 9.78588 21.2524 12.554 17.0436 12.554C12.8349 12.554 10.8534 9.78588 10.8534 7.6569C10.8285 6.94494 11.0586 6.24748 11.5024 5.69018C11.4134 5.41716 11.3686 5.13166 11.3697 4.84449C11.3684 4.47217 11.4405 4.10324 11.5819 3.75882C11.7234 3.4144 11.9313 3.10126 12.1939 2.83729C12.4565 2.57333 12.7686 2.36374 13.1123 2.22051C13.4559 2.07729 13.8245 2.00323 14.1968 2.00259H14.3099C14.4866 1.4231 14.8448 0.915695 15.3316 0.555153C15.8185 0.194611 16.4083 0 17.0141 0C17.62 0 18.2098 0.194611 18.6966 0.555153C19.1835 0.915695 19.5417 1.4231 19.7184 2.00259H19.8315C20.5822 2.00258 21.3023 2.30013 21.8341 2.83004C22.3658 3.35996 22.6659 4.07903 22.6685 4.82974C22.6688 5.11809 22.6257 5.40484 22.5406 5.68035C22.9897 6.23264 23.23 6.92547 23.2191 7.63724Z" fill="black"/>
<path d="M22.3983 7.81885C22.3983 9.68232 20.6922 12.0768 17.0439 12.0817C13.3957 12.0866 11.6797 9.70199 11.6748 7.81885C11.654 7.19644 11.8544 6.58677 12.2402 6.09797C12.1632 5.86135 12.1234 5.61421 12.1222 5.36537C12.1222 4.71336 12.3812 4.08806 12.8423 3.62702C13.3033 3.16598 13.9286 2.90697 14.5806 2.90697H14.679C14.826 2.39419 15.1357 1.94312 15.5616 1.62185C15.9874 1.30058 16.5062 1.12653 17.0396 1.12598C17.5731 1.12542 18.0922 1.29839 18.5187 1.61877C18.9452 1.93916 19.256 2.38958 19.404 2.90206H19.5023C20.1544 2.90206 20.7797 3.16106 21.2407 3.6221C21.7017 4.08314 21.9607 4.70845 21.9607 5.36045C21.9615 5.61067 21.9233 5.85948 21.8477 6.09797C22.2283 6.58879 22.4233 7.19826 22.3983 7.81885Z" fill="white"/>
<path d="M21.2275 8.28171C21.2275 9.75675 19.9 11.6104 17.0433 11.6153C14.1866 11.6202 12.8444 9.75183 12.8444 8.31121C12.825 7.82504 12.9822 7.34829 13.2869 6.96892C13.2256 6.7833 13.1941 6.58914 13.1935 6.39366C13.1928 6.14143 13.2419 5.89155 13.338 5.65833C13.4341 5.42512 13.5752 5.21315 13.7534 5.03457C13.9315 4.85598 14.1431 4.7143 14.3761 4.61763C14.609 4.52095 14.8588 4.47119 15.111 4.47119H15.1897C15.3056 4.07249 15.5477 3.72218 15.8798 3.4729C16.2118 3.22363 16.6158 3.08887 17.031 3.08887C17.4462 3.08887 17.8502 3.22363 18.1823 3.4729C18.5143 3.72218 18.7565 4.07249 18.8724 4.47119H18.951C19.4533 4.46974 19.9363 4.66496 20.2965 5.01506C20.6567 5.36516 20.8656 5.84234 20.8784 6.34449C20.8794 6.53971 20.8495 6.73386 20.7899 6.91976C21.0949 7.30627 21.2503 7.78985 21.2275 8.28171Z" fill="black"/>
<path d="M17.644 11.6149C17.4408 11.6148 17.2387 11.5849 17.0441 11.5264C16.8479 11.5853 16.6442 11.6151 16.4393 11.6149C15.9806 11.6173 15.5334 11.4711 15.1646 11.1981C14.7958 10.9252 14.5254 10.5402 14.3936 10.1007C14.2619 9.66125 14.276 9.19095 14.4338 8.76017C14.5916 8.32939 14.8847 7.96129 15.2691 7.71093C15.3616 7.31141 15.5867 6.95499 15.9077 6.69979C16.2287 6.44459 16.6267 6.30566 17.0367 6.30566C17.4468 6.30566 17.8448 6.44459 18.1658 6.69979C18.4868 6.95499 18.7119 7.31141 18.8043 7.71093C19.2021 7.95523 19.5083 8.32377 19.6756 8.75956C19.8429 9.19536 19.862 9.67413 19.7299 10.1219C19.5979 10.5696 19.322 10.9613 18.9449 11.2365C18.5679 11.5117 18.1106 11.6551 17.644 11.6444V11.6149Z" fill="black"/>
<path d="M18.0856 8.18756C18.088 8.15975 18.088 8.13179 18.0856 8.10397C18.0955 7.95876 18.0755 7.81306 18.0267 7.67592C17.9779 7.53878 17.9015 7.41313 17.8021 7.30677C17.7028 7.20041 17.5826 7.1156 17.4491 7.05762C17.3156 6.99964 17.1716 6.96973 17.026 6.96973C16.8805 6.96973 16.7365 6.99964 16.603 7.05762C16.4695 7.1156 16.3493 7.20041 16.25 7.30677C16.1506 7.41313 16.0742 7.53878 16.0254 7.67592C15.9766 7.81306 15.9566 7.95876 15.9665 8.10397C15.9638 8.13013 15.9638 8.15649 15.9665 8.18264C15.6539 8.28872 15.3899 8.50356 15.2225 8.78802C15.055 9.07248 14.9954 9.40761 15.0544 9.73236C15.1134 10.0571 15.2871 10.3499 15.5438 10.5573C15.8006 10.7647 16.1233 10.8729 16.4532 10.8623C16.6614 10.8611 16.8666 10.8123 17.0531 10.7197C17.2415 10.8119 17.4481 10.8606 17.6579 10.8623C17.9852 10.8656 18.3029 10.7516 18.5536 10.5411C18.8043 10.3307 18.9714 10.0374 19.0249 9.71449C19.0783 9.39153 19.0145 9.06011 18.8449 8.78009C18.6754 8.50007 18.4113 8.2899 18.1004 8.18756H18.0856Z" fill="white"/>
<path d="M10.1314 8.07481C11.9948 9.14668 13.401 12.2443 11.3016 15.8827C9.20209 19.5211 5.82917 19.8653 3.9657 18.7983C3.33205 18.4607 2.83763 17.9106 2.56933 17.2446C2.28948 17.1829 2.02082 17.0785 1.77281 16.9349C1.44996 16.7502 1.16664 16.5038 0.93904 16.2096C0.711435 15.9155 0.543999 15.5794 0.446293 15.2205C0.348587 14.8616 0.322524 14.487 0.369593 14.1181C0.416661 13.7492 0.535939 13.3931 0.720615 13.0703L0.784534 12.9719C0.36198 12.5297 0.0939365 11.9626 0.0204944 11.3554C-0.0529477 10.7482 0.0721583 10.1336 0.377101 9.60337C0.682044 9.07317 1.15043 8.65595 1.71222 8.4141C2.274 8.17225 2.89898 8.11877 3.49369 8.26165C3.51207 8.22822 3.52848 8.19374 3.54286 8.1584C3.9192 7.50854 4.53786 7.03442 5.2632 6.83995C5.98855 6.64548 6.76141 6.74653 7.41238 7.12095C7.6668 7.26076 7.89747 7.43998 8.09581 7.65197C8.80286 7.55173 9.52273 7.70126 10.1314 8.07481Z" fill="black"/>
<path d="M9.87983 8.88142C11.4925 9.81069 12.7119 12.4854 10.8927 15.6469C9.07348 18.8084 6.12832 19.128 4.53527 18.1742C3.9835 17.8848 3.55419 17.4066 3.32574 16.827C3.08202 16.7758 2.848 16.6862 2.63247 16.5615C2.07364 16.2364 1.66535 15.7043 1.49602 15.0803C1.32669 14.4564 1.40996 13.7909 1.72778 13.2279C1.74406 13.1989 1.76213 13.171 1.78187 13.1443C1.41973 12.7601 1.19087 12.2696 1.12916 11.7453C1.06745 11.221 1.17617 10.6907 1.43923 10.233C1.70229 9.77524 2.10571 9.41435 2.5898 9.2037C3.0739 8.99305 3.61294 8.94384 4.12718 9.06334C4.14388 9.03486 4.15867 9.00529 4.17143 8.97484C4.49661 8.41071 5.0323 7.99862 5.66096 7.82901C6.28962 7.6594 6.95989 7.74613 7.52469 8.07015C7.74349 8.20146 7.93945 8.36752 8.10487 8.56183C8.7157 8.45544 9.34447 8.56865 9.87983 8.88142Z" fill="white"/>
<path d="M9.69304 10.1248C10.9567 10.8476 11.9105 12.9372 10.4846 15.4153C9.05877 17.8933 6.77738 18.1146 5.51376 17.382C5.0837 17.1527 4.74911 16.778 4.56973 16.3249C4.37979 16.2846 4.19731 16.215 4.02889 16.1184C3.81013 15.993 3.61825 15.8257 3.46424 15.626C3.31022 15.4264 3.1971 15.1983 3.13133 14.9549C3.06557 14.7115 3.04846 14.4575 3.08098 14.2074C3.1135 13.9574 3.19502 13.7162 3.32087 13.4977C3.33097 13.4736 3.34605 13.4518 3.36512 13.4338C3.07597 13.135 2.89181 12.7502 2.8404 12.3376C2.78898 11.9249 2.8731 11.5067 3.08007 11.1461C3.28704 10.7854 3.60564 10.5018 3.98785 10.338C4.37007 10.1742 4.79517 10.139 5.19908 10.2379L5.2335 10.1691C5.38421 9.90879 5.59389 9.68751 5.84567 9.52301C6.09745 9.35851 6.38431 9.25538 6.68319 9.22191C6.98208 9.18843 7.28465 9.22555 7.56658 9.33027C7.84851 9.43499 8.10194 9.6044 8.3065 9.82488C8.78961 9.75756 9.28094 9.86384 9.69304 10.1248Z" fill="black"/>
<path d="M10.7896 14.8943C10.687 15.0751 10.5596 15.2406 10.411 15.3859C10.3635 15.5844 10.2873 15.7749 10.1848 15.9514C9.95686 16.3485 9.60667 16.6614 9.18643 16.8433C8.7662 17.0252 8.29843 17.0664 7.85285 16.9608C7.40728 16.8552 7.00776 16.6085 6.71384 16.2573C6.41993 15.9062 6.24736 15.4695 6.22187 15.0123C5.91773 14.7346 5.71738 14.3616 5.65393 13.9547C5.59048 13.5478 5.66773 13.1315 5.8729 12.7744C6.07807 12.4174 6.3989 12.141 6.78239 11.9909C7.16588 11.8409 7.58908 11.8261 7.98208 11.9491C8.38989 11.7448 8.85253 11.6769 9.30184 11.7554C9.75115 11.8338 10.1634 12.0545 10.4778 12.3849C10.7923 12.7153 10.9923 13.138 11.0484 13.5906C11.1045 14.0433 11.0138 14.502 10.7896 14.8992V14.8943Z" fill="black"/>
<path d="M8.04134 12.7953L7.97251 12.7462C7.72991 12.6233 7.44943 12.5982 7.18886 12.676C6.92829 12.7538 6.70749 12.9286 6.57196 13.1643C6.43643 13.4001 6.3965 13.6789 6.4604 13.9432C6.52429 14.2075 6.68715 14.4372 6.9154 14.5851L6.99407 14.6195C6.92807 14.9404 6.97912 15.2744 7.13798 15.5609C7.29684 15.8475 7.55302 16.0677 7.86016 16.1818C8.16731 16.2958 8.50514 16.2962 8.81253 16.1828C9.11992 16.0694 9.37657 15.8497 9.53605 15.5635C9.63925 15.3811 9.69977 15.1777 9.71306 14.9686C9.88745 14.8529 10.0323 14.698 10.1359 14.5162C10.3022 14.2344 10.3623 13.9025 10.3053 13.5803C10.2484 13.2581 10.0781 12.9668 9.82531 12.7591C9.5725 12.5514 9.25377 12.4409 8.92664 12.4475C8.5995 12.4542 8.28552 12.5775 8.04134 12.7953Z" fill="white"/>
<path d="M3.96509 19.619C5.82364 18.5373 9.19656 18.8619 11.3108 22.5052C13.425 26.1485 12.0286 29.251 10.1701 30.3278C9.56159 30.7111 8.83627 30.8645 8.1247 30.7605C7.93103 30.9728 7.70542 31.1536 7.45602 31.2964C6.80655 31.673 6.03414 31.7763 5.30854 31.5836C4.58295 31.3909 3.96356 30.918 3.5865 30.2688C3.5865 30.2344 3.557 30.2 3.53733 30.1656C2.94243 30.3139 2.31544 30.2647 1.75089 30.0256C1.18634 29.7865 0.714822 29.3703 0.407416 28.8399C0.10001 28.3094 -0.0266215 27.6934 0.0466111 27.0847C0.119844 26.4759 0.388971 25.9075 0.813423 25.4651C0.789332 25.436 0.767938 25.4047 0.749504 25.3717C0.562597 25.05 0.441029 24.6945 0.391772 24.3257C0.342515 23.957 0.366538 23.5821 0.462462 23.2226C0.558386 22.8631 0.724326 22.5261 0.950767 22.2308C1.17721 21.9356 1.45969 21.688 1.78203 21.5022C2.02926 21.357 2.29818 21.2524 2.57855 21.1924C2.83749 20.5189 3.32947 19.9606 3.96509 19.619Z" fill="black"/>
<path d="M4.53504 20.2534C6.12808 19.3192 9.07816 19.6192 10.9023 22.7561C12.7264 25.893 11.5267 28.5923 9.91893 29.5265C9.39181 29.8568 8.76453 29.9892 8.14888 29.9002C7.98062 30.0916 7.78514 30.2573 7.5687 30.3919C7.28677 30.5517 6.97603 30.6542 6.65435 30.6934C6.33267 30.7327 6.0064 30.708 5.6943 30.6207C5.3822 30.5335 5.09044 30.3853 4.8358 30.1849C4.58116 29.9844 4.36866 29.7356 4.21053 29.4528C4.19382 29.4243 4.17904 29.3947 4.16628 29.3643C3.656 29.4807 3.12188 29.4312 2.64168 29.223C2.16148 29.0148 1.76025 28.6588 1.49639 28.2068C1.23254 27.7548 1.11983 27.2303 1.17467 26.7098C1.22951 26.1893 1.44903 25.6999 1.8013 25.3128C1.8013 25.2833 1.76196 25.2587 1.74721 25.2292C1.42237 24.6656 1.33415 23.9963 1.50188 23.3677C1.66961 22.7392 2.07961 22.2028 2.64207 21.876C2.85578 21.7421 3.08997 21.6441 3.33534 21.5859C3.56467 21.0136 3.98985 20.5414 4.53504 20.2534Z" fill="white"/>
<path d="M5.51898 21.0304C6.78259 20.3027 9.0689 20.5387 10.4997 22.9971C11.9305 25.4555 10.9914 27.5599 9.72775 28.2925C9.31439 28.5501 8.82316 28.6528 8.34122 28.5826C8.1374 28.8045 7.88428 28.9754 7.60228 29.0815C7.32028 29.1876 7.01729 29.2259 6.71776 29.1934C6.41822 29.1608 6.13053 29.0583 5.87789 28.8942C5.62524 28.73 5.41472 28.5088 5.2633 28.2483L5.22889 28.1794C4.82607 28.2781 4.40212 28.2436 4.02061 28.081C3.63909 27.9183 3.32059 27.6364 3.11286 27.2774C2.90513 26.9185 2.81938 26.5019 2.86846 26.09C2.91754 25.6782 3.09881 25.2934 3.38509 24.9933C3.38509 24.9688 3.35067 24.9491 3.34084 24.9294C3.08562 24.4886 3.0158 23.9645 3.14671 23.4722C3.27762 22.9799 3.59855 22.5597 4.03902 22.3039C4.20722 22.2057 4.38969 22.1344 4.57987 22.0924C4.75703 21.6383 5.08989 21.2618 5.51898 21.0304Z" fill="black"/>
<path d="M10.1989 22.471C10.3043 22.6542 10.3791 22.8536 10.4201 23.061C10.5718 23.2048 10.701 23.3706 10.8036 23.5527C11.0293 23.9487 11.1215 24.4069 11.0667 24.8594C11.0118 25.3119 10.8129 25.7348 10.4992 26.0656C10.1856 26.3963 9.77382 26.6174 9.32484 26.6961C8.87585 26.7749 8.41346 26.7071 8.00598 26.5027C7.61321 26.6274 7.18968 26.6142 6.80542 26.4654C6.42117 26.3166 6.09921 26.0411 5.8928 25.6844C5.68639 25.3278 5.60789 24.9114 5.67028 24.5041C5.73267 24.0968 5.93223 23.723 6.23593 23.4445C6.25952 22.9865 6.43071 22.5484 6.7239 22.1958C7.0171 21.8432 7.41655 21.5949 7.86254 21.4881C8.30854 21.3813 8.77712 21.4217 9.19824 21.6033C9.61936 21.7849 9.97039 22.0979 10.1989 22.4955V22.471Z" fill="black"/>
<path d="M7.00867 23.7984L6.93492 23.8329C6.80443 23.8971 6.68855 23.9876 6.59444 24.0985C6.50034 24.2094 6.43003 24.3385 6.38787 24.4777C6.34571 24.6169 6.3326 24.7633 6.34935 24.9078C6.36611 25.0523 6.41237 25.1918 6.48526 25.3177C6.55816 25.4436 6.65614 25.5532 6.77313 25.6396C6.89012 25.7261 7.02362 25.7876 7.16535 25.8203C7.30709 25.853 7.45404 25.8563 7.59709 25.8299C7.74014 25.8035 7.87624 25.748 7.99695 25.6668L8.06579 25.6176C8.31228 25.8287 8.62542 25.946 8.94993 25.9486C9.27445 25.9513 9.58947 25.8392 9.8394 25.6322C10.0893 25.4252 10.2581 25.1366 10.3159 24.8173C10.3737 24.4979 10.3169 24.1684 10.1554 23.8869C10.0471 23.7085 9.90109 23.5558 9.72766 23.4395C9.71978 23.232 9.66605 23.0288 9.57032 22.8446C9.40691 22.5632 9.14909 22.3487 8.84261 22.2393C8.53612 22.1299 8.20079 22.1326 7.89611 22.2469C7.59143 22.3613 7.3371 22.5798 7.17824 22.8639C7.01939 23.1479 6.96628 23.479 7.02834 23.7984H7.00867Z" fill="white"/>
<path d="M10.8931 30.7459C10.8931 28.5973 12.8598 25.8291 17.0686 25.8291C21.2774 25.8291 23.2588 28.5776 23.2588 30.7459C23.2837 31.4579 23.0536 32.1553 22.6098 32.7126C22.6993 32.9855 22.7441 33.2711 22.7426 33.5583C22.7439 33.93 22.6718 34.2983 22.5307 34.6421C22.3895 34.9859 22.1819 35.2985 21.9197 35.562C21.6576 35.8255 21.3461 36.0348 21.003 36.1777C20.6599 36.3207 20.292 36.3947 19.9203 36.3953H19.8023C19.6325 36.9845 19.2756 37.5025 18.7856 37.8712C18.2956 38.2399 17.699 38.4393 17.0858 38.4393C16.4726 38.4393 15.876 38.2399 15.386 37.8712C14.896 37.5025 14.5391 36.9845 14.3693 36.3953H14.2562C13.8843 36.3959 13.5159 36.3233 13.172 36.1816C12.8282 36.0399 12.5156 35.8318 12.2521 35.5693C11.9887 35.3068 11.7796 34.9949 11.6366 34.6516C11.4937 34.3082 11.4198 33.9401 11.4192 33.5681C11.4134 33.2834 11.4533 32.9995 11.5372 32.7274C11.0926 32.1651 10.8641 31.4621 10.8931 30.7459Z" fill="black"/>
<path d="M11.7137 30.5637C11.7137 28.7002 13.4199 26.3057 17.0681 26.3008C20.7164 26.2959 22.4323 28.6805 22.4373 30.544C22.4574 31.1679 22.2533 31.7785 21.862 32.2649C21.9413 32.5009 21.9812 32.7484 21.98 32.9975C21.98 33.6495 21.721 34.2748 21.26 34.7358C20.7989 35.1969 20.1736 35.4559 19.5216 35.4559H19.4184C19.2667 35.9626 18.9556 36.4069 18.5313 36.7228C18.107 37.0387 17.5922 37.2093 17.0632 37.2093C16.5343 37.2093 16.0194 37.0387 15.5951 36.7228C15.1708 36.4069 14.8598 35.9626 14.7081 35.4559H14.6097C13.9577 35.4559 13.3324 35.1969 12.8714 34.7358C12.4103 34.2748 12.1513 33.6495 12.1513 32.9975C12.1509 32.7489 12.1891 32.5018 12.2644 32.2649C11.8889 31.7789 11.6943 31.1775 11.7137 30.5637Z" fill="white"/>
<path d="M12.8848 30.1022C12.8848 28.6271 14.2172 26.7735 17.069 26.7686C19.9207 26.7636 21.2679 28.6271 21.2679 30.0874C21.2836 30.5692 21.1287 31.0412 20.8303 31.4199C20.8899 31.6058 20.9198 31.7999 20.9188 31.9951C20.9195 32.2473 20.8703 32.4972 20.7743 32.7304C20.6782 32.9637 20.537 33.1756 20.3589 33.3542C20.1808 33.5328 19.9692 33.6745 19.7362 33.7712C19.5032 33.8678 19.2535 33.9176 19.0013 33.9176H18.9128C18.7969 34.3163 18.5547 34.6666 18.2227 34.9159C17.8906 35.1651 17.4866 35.2999 17.0714 35.2999C16.6562 35.2999 16.2522 35.1651 15.9202 34.9159C15.5881 34.6666 15.346 34.3163 15.2301 33.9176H15.1514C14.6424 33.9176 14.1541 33.7157 13.7938 33.3562C13.4334 32.9968 13.2302 32.5091 13.2289 32C13.228 31.8048 13.2578 31.6107 13.3174 31.4248C13.0231 31.048 12.87 30.58 12.8848 30.1022Z" fill="black"/>
<path d="M16.454 26.7683C16.6572 26.7685 16.8593 26.7983 17.0539 26.8568C17.2501 26.7979 17.4538 26.7681 17.6587 26.7683C18.1174 26.7659 18.5646 26.9122 18.9334 27.1851C19.3022 27.458 19.5726 27.843 19.7044 28.2825C19.8361 28.722 19.822 29.1923 19.6642 29.623C19.5063 30.0538 19.2133 30.4219 18.8288 30.6723C18.7364 31.0718 18.5113 31.4282 18.1903 31.6834C17.8693 31.9386 17.4713 32.0775 17.0613 32.0775C16.6512 32.0775 16.2532 31.9386 15.9322 31.6834C15.6112 31.4282 15.3861 31.0718 15.2937 30.6723C14.8959 30.428 14.5897 30.0594 14.4224 29.6236C14.2551 29.1878 14.236 28.7091 14.368 28.2613C14.5001 27.8136 14.776 27.4219 15.1531 27.1467C15.5301 26.8715 15.9874 26.7281 16.454 26.7388V26.7683Z" fill="black"/>
<path d="M16.026 30.1953C16.0236 30.2231 16.0236 30.2511 16.026 30.2789C16.0161 30.4241 16.0362 30.5698 16.0849 30.707C16.1337 30.8441 16.2101 30.9697 16.3095 31.0761C16.4089 31.1825 16.529 31.2673 16.6625 31.3252C16.796 31.3832 16.94 31.4131 17.0856 31.4131C17.2311 31.4131 17.3751 31.3832 17.5086 31.3252C17.6421 31.2673 17.7623 31.1825 17.8617 31.0761C17.961 30.9697 18.0375 30.8441 18.0862 30.707C18.135 30.5698 18.1551 30.4241 18.1452 30.2789C18.1475 30.2511 18.1475 30.2231 18.1452 30.1953C18.323 30.1348 18.4864 30.0384 18.6255 29.9121C18.7645 29.7858 18.8761 29.6324 18.9534 29.4612C19.0307 29.29 19.072 29.1048 19.0748 28.917C19.0775 28.7292 19.0417 28.5428 18.9695 28.3694C18.8973 28.196 18.7903 28.0393 18.6551 27.909C18.5199 27.7787 18.3593 27.6775 18.1834 27.6117C18.0074 27.546 17.8199 27.517 17.6323 27.5267C17.4448 27.5364 17.2612 27.5845 17.093 27.6681C16.8946 27.569 16.6755 27.5185 16.4538 27.5206C16.1264 27.5173 15.8087 27.6312 15.558 27.8417C15.3073 28.0522 15.1402 28.3454 15.0868 28.6684C15.0333 28.9913 15.0971 29.3228 15.2667 29.6028C15.4362 29.8828 15.7003 30.093 16.0113 30.1953H16.026Z" fill="white"/>
<path d="M23.982 30.3089C22.1234 29.237 20.7172 26.1542 22.8167 22.501C24.9161 18.8478 28.2841 18.5135 30.1476 19.5853C30.7826 19.9212 31.2775 20.4719 31.544 21.139C31.8238 21.2007 32.0925 21.3052 32.3405 21.4488C32.9917 21.8225 33.4678 22.4396 33.6642 23.1643C33.8606 23.889 33.7612 24.662 33.3878 25.3134L33.3239 25.4117C33.748 25.8531 34.0174 26.4202 34.0917 27.0279C34.1659 27.6355 34.0409 28.2508 33.7354 28.7813C33.43 29.3118 32.9606 29.7288 32.3979 29.9697C31.8351 30.2106 31.2094 30.2623 30.6147 30.1171C30.6147 30.1564 30.5852 30.1909 30.5655 30.2253C30.1892 30.8751 29.5705 31.3493 28.8452 31.5437C28.1198 31.7382 27.347 31.6371 26.696 31.2627C26.4455 31.1215 26.2197 30.9405 26.0273 30.7268C25.3176 30.8343 24.5927 30.6862 23.982 30.3089Z" fill="black"/>
<path d="M24.2371 29.5025C22.6194 28.5732 21.4001 25.8985 23.2193 22.737C25.0385 19.5755 27.964 19.2953 29.5767 20.2098C30.1285 20.4992 30.5578 20.9773 30.7862 21.557C31.0302 21.6073 31.2643 21.697 31.4795 21.8225C32.0436 22.1477 32.4557 22.6834 32.6253 23.312C32.7949 23.9407 32.7082 24.6109 32.3842 25.1757C32.3679 25.2047 32.3499 25.2326 32.3301 25.2593C32.6923 25.6435 32.9211 26.134 32.9828 26.6583C33.0445 27.1826 32.9358 27.7129 32.6728 28.1706C32.4097 28.6284 32.0063 28.9893 31.5222 29.1999C31.0381 29.4106 30.499 29.4598 29.9848 29.3403L29.9406 29.4288C29.6154 29.9929 29.0797 30.405 28.451 30.5746C27.8224 30.7442 27.1521 30.6575 26.5873 30.3335C26.3703 30.2096 26.1744 30.0519 26.0071 29.8664C25.3926 29.9601 24.7648 29.831 24.2371 29.5025Z" fill="white"/>
<path d="M24.4196 28.2588C23.1559 27.5361 22.2021 25.4415 23.628 22.9684C25.0538 20.4952 27.3352 20.2641 28.5988 21.0016C29.0275 21.2304 29.3618 21.603 29.5429 22.0538C29.733 22.0958 29.9155 22.1671 30.0837 22.2653C30.3025 22.3906 30.4943 22.558 30.6484 22.7576C30.8024 22.9572 30.9155 23.1853 30.9813 23.4287C31.047 23.6722 31.0641 23.9262 31.0316 24.1762C30.9991 24.4262 30.9176 24.6674 30.7917 24.8859C30.7815 24.9089 30.7683 24.9304 30.7524 24.9498C31.0401 25.2493 31.2228 25.6341 31.2731 26.0463C31.3233 26.4585 31.2384 26.8759 31.031 27.2357C30.8237 27.5955 30.5051 27.8783 30.1233 28.0415C29.7414 28.2048 29.3169 28.2396 28.9135 28.1408C28.9041 28.1663 28.8926 28.191 28.8791 28.2146C28.7284 28.4748 28.5187 28.6961 28.2669 28.8606C28.0151 29.0251 27.7283 29.1283 27.4294 29.1617C27.1305 29.1952 26.8279 29.1581 26.546 29.0534C26.2641 28.9486 26.0106 28.7792 25.8061 28.5588C25.323 28.6261 24.8317 28.5198 24.4196 28.2588Z" fill="black"/>
<path d="M23.337 23.4891C23.4395 23.3083 23.567 23.1428 23.7156 22.9974C23.7631 22.7989 23.8392 22.6084 23.9418 22.432C24.1688 22.0326 24.5191 21.7176 24.9402 21.5341C25.3614 21.3507 25.8306 21.3087 26.2777 21.4145C26.7247 21.5203 27.1253 21.7682 27.4196 22.121C27.7138 22.4737 27.8858 22.9124 27.9096 23.3711C28.2097 23.6507 28.4063 24.0237 28.4672 24.4293C28.5281 24.8349 28.4497 25.2491 28.245 25.6045C28.0402 25.9598 27.721 26.2353 27.3396 26.386C26.9581 26.5367 26.5369 26.5537 26.1445 26.4343C25.7367 26.6385 25.2741 26.7065 24.8248 26.628C24.3754 26.5495 23.9632 26.3288 23.6488 25.9984C23.3343 25.668 23.1343 25.2454 23.0782 24.7927C23.0221 24.3401 23.1128 23.8814 23.337 23.4842V23.4891Z" fill="black"/>
<path d="M26.0718 25.5888L26.1406 25.638C26.3832 25.7609 26.6637 25.786 26.9243 25.7082C27.1849 25.6304 27.4057 25.4556 27.5412 25.2198C27.6767 24.9841 27.7166 24.7053 27.6528 24.441C27.5889 24.1767 27.426 23.9469 27.1978 23.7991L27.1191 23.7647C27.1501 23.5825 27.1439 23.3959 27.1009 23.2161C27.058 23.0363 26.9791 22.8671 26.8691 22.7185C26.7591 22.57 26.6203 22.4452 26.4608 22.3517C26.3014 22.2581 26.1247 22.1978 25.9414 22.1743C25.758 22.1507 25.5718 22.1645 25.394 22.2147C25.2161 22.2649 25.0502 22.3506 24.9062 22.4665C24.7623 22.5825 24.6432 22.7263 24.5563 22.8894C24.4693 23.0525 24.4162 23.2315 24.4001 23.4156C24.2501 23.5227 24.1232 23.6588 24.027 23.816C23.9308 23.9732 23.8672 24.1481 23.8401 24.3304C23.813 24.5127 23.8229 24.6986 23.8692 24.8769C23.9155 25.0553 23.9973 25.2225 24.1097 25.3686C24.222 25.5147 24.3627 25.6366 24.5232 25.7271C24.6837 25.8176 24.8608 25.8749 25.044 25.8954C25.2271 25.916 25.4125 25.8994 25.5891 25.8467C25.7657 25.7941 25.9299 25.7064 26.0718 25.5888Z" fill="white"/>
<path d="M30.1472 18.7488C28.2886 19.8256 24.9157 19.506 22.8015 15.8577C20.6873 12.2095 22.0836 9.12663 23.9422 8.04985C24.552 7.66994 25.2767 7.51838 25.9876 7.62209C26.1812 7.40976 26.4069 7.22894 26.6563 7.08615C27.3057 6.70958 28.0781 6.60629 28.8037 6.79899C29.5293 6.99168 30.1487 7.46458 30.5258 8.11377C30.5258 8.14818 30.5553 8.1826 30.575 8.21702C31.1699 8.06873 31.7968 8.11785 32.3614 8.35697C32.9259 8.59609 33.3975 9.01225 33.7049 9.54272C34.0123 10.0732 34.1389 10.6892 34.0657 11.2979C33.9924 11.9066 33.7233 12.4751 33.2989 12.9175C33.3229 12.9466 33.3443 12.9779 33.3628 13.0109C33.7393 13.6604 33.8426 14.4328 33.6499 15.1584C33.4573 15.884 32.9843 16.5034 32.3352 16.8804C32.0858 17.0248 31.8154 17.1293 31.5337 17.1902C31.2737 17.8594 30.7815 18.4126 30.1472 18.7488Z" fill="black"/>
<path d="M29.577 18.1446C27.9642 19.0788 25.0387 18.7986 23.2097 15.6371C21.3807 12.4756 22.5853 9.80575 24.1931 8.87155C24.7202 8.54124 25.3475 8.40882 25.9631 8.49788C26.1285 8.30357 26.3245 8.13751 26.5433 8.0062C27.1069 7.68136 27.7763 7.59314 28.4048 7.76086C29.0333 7.92859 29.5697 8.33859 29.8965 8.90106C29.9132 8.92954 29.928 8.9591 29.9408 8.98956C30.4547 8.86709 30.9945 8.91345 31.48 9.12176C31.9655 9.33008 32.371 9.68927 32.6364 10.1461C32.9018 10.603 33.0129 11.1331 32.9534 11.6581C32.8938 12.1831 32.6667 12.6749 32.3058 13.0607C32.3255 13.0874 32.3436 13.1153 32.3599 13.1443C32.6847 13.7079 32.7729 14.3772 32.6052 15.0058C32.4375 15.6343 32.0275 16.1707 31.465 16.4975C31.2514 16.6236 31.019 16.7149 30.7766 16.7679C30.5536 17.3551 30.1281 17.8434 29.577 18.1446Z" fill="white"/>
<path d="M28.5941 17.3526C27.3305 18.0803 25.0441 17.8443 23.6134 15.3859C22.1826 12.9275 23.1217 10.8231 24.3853 10.0905C24.8035 9.82197 25.3047 9.71371 25.7964 9.78562C25.9267 9.64091 26.0795 9.51807 26.2488 9.42178C26.6896 9.16657 27.2137 9.09675 27.706 9.22766C28.1983 9.35856 28.6185 9.67949 28.8743 10.12C28.8743 10.12 28.8743 10.1642 28.9087 10.1888C29.3122 10.096 29.7349 10.1362 30.1135 10.3035C30.4922 10.4708 30.8066 10.7562 31.0097 11.117C31.2127 11.4777 31.2936 11.8945 31.2402 12.305C31.1867 12.7156 31.0019 13.0978 30.7132 13.3946C30.7307 13.4138 30.7456 13.4353 30.7575 13.4585C31.0127 13.8993 31.0825 14.4234 30.9516 14.9157C30.8207 15.408 30.4998 15.8282 30.0593 16.084C29.8901 16.1801 29.7079 16.2513 29.5184 16.2955C29.3443 16.7457 29.017 17.12 28.5941 17.3526Z" fill="black"/>
<path d="M23.9125 15.9122C23.8095 15.7365 23.7348 15.5457 23.6912 15.3468C23.5396 15.2029 23.4103 15.0372 23.3077 14.8551C23.0821 14.459 22.9899 14.0008 23.0447 13.5483C23.0995 13.0958 23.2985 12.6729 23.6121 12.3422C23.9258 12.0114 24.3375 11.7903 24.7865 11.7116C25.2355 11.6329 25.6979 11.7007 26.1054 11.905C26.4975 11.7807 26.9203 11.7938 27.304 11.9421C27.6877 12.0903 28.0095 12.3649 28.2162 12.7205C28.4229 13.0761 28.5023 13.4916 28.4413 13.8984C28.3802 14.3052 28.1824 14.6791 27.8804 14.9583C27.8558 15.4163 27.6841 15.8541 27.3907 16.2066C27.0973 16.559 26.698 16.8074 26.252 16.9146C25.8061 17.0217 25.3375 16.9821 24.916 16.8015C24.4944 16.6209 24.1425 16.309 23.9125 15.9122Z" fill="black"/>
<path d="M27.1032 14.5848L27.177 14.5503C27.318 14.493 27.4451 14.4059 27.5496 14.2951C27.654 14.1843 27.7335 14.0524 27.7824 13.9082C27.8314 13.764 27.8488 13.6109 27.8335 13.4594C27.8181 13.3079 27.7703 13.1615 27.6934 13.0301C27.6165 12.8986 27.5122 12.7853 27.3876 12.6977C27.263 12.6101 27.121 12.5504 26.9713 12.5225C26.8216 12.4946 26.6677 12.4993 26.5199 12.5361C26.3721 12.5729 26.234 12.6411 26.1149 12.736L26.051 12.7803C25.9093 12.6554 25.7433 12.561 25.5635 12.503C25.3837 12.445 25.1939 12.4246 25.0059 12.4432C24.8179 12.4617 24.6357 12.5187 24.4706 12.6107C24.3056 12.7027 24.1613 12.8276 24.0466 12.9778C23.932 13.1279 23.8495 13.3001 23.8042 13.4835C23.759 13.6669 23.752 13.8577 23.7836 14.044C23.8153 14.2302 23.885 14.408 23.9883 14.5661C24.0916 14.7243 24.2264 14.8595 24.3842 14.9634C24.3976 15.1709 24.4581 15.3727 24.5612 15.5534C24.7468 15.8685 25.0497 16.0973 25.4036 16.1894C25.7576 16.2816 26.1336 16.2297 26.4493 16.0451C26.6979 15.9012 26.8949 15.6827 27.0122 15.4206C27.1296 15.1585 27.1615 14.866 27.1032 14.5848Z" fill="white"/>
<path d="M14.526 23.6065C14.1334 23.3809 13.8158 23.0448 13.613 22.64C13.4101 22.2351 13.331 21.7795 13.3853 21.33C13.2961 21.2907 13.2091 21.2464 13.1248 21.1973C12.8183 21.0226 12.5562 20.7797 12.3587 20.4874C12.1613 20.1951 12.0338 19.8613 11.9863 19.5118C11.9387 19.1623 11.9724 18.8065 12.0845 18.4721C12.1967 18.1377 12.3844 17.8336 12.6331 17.5834C12.8436 17.3719 13.0944 17.2047 13.3706 17.0917C13.3125 16.6643 13.3758 16.2291 13.5531 15.8358C13.7305 15.4426 14.0148 15.1071 14.3737 14.8677C14.7325 14.6283 15.1515 14.4946 15.5827 14.4818C16.0139 14.4691 16.44 14.5778 16.8123 14.7956C16.8956 14.8434 16.976 14.8959 17.0533 14.9529C17.4132 14.6756 17.8471 14.5111 18.3003 14.48C18.7536 14.4489 19.2059 14.5527 19.6002 14.7783C19.9946 15.0039 20.3133 15.3411 20.5163 15.7476C20.7193 16.154 20.7974 16.6115 20.7409 17.0622C20.8302 17.1016 20.9172 17.1459 21.0015 17.195C21.3733 17.408 21.6783 17.7206 21.8821 18.0976C22.0859 18.4747 22.1803 18.9011 22.1547 19.3289C22.1292 19.7567 21.9846 20.1689 21.7375 20.5189C21.4903 20.869 21.1502 21.1431 20.7556 21.3103C20.7941 21.6077 20.7757 21.9097 20.7015 22.2003C20.6252 22.4928 20.4916 22.7673 20.3084 23.0078C20.1253 23.2483 19.8962 23.4501 19.6346 23.6016C19.2834 23.8021 18.886 23.9075 18.4816 23.9075C18.0772 23.9075 17.6798 23.8021 17.3286 23.6016C17.2453 23.5521 17.1649 23.4979 17.0877 23.4393C16.7259 23.7191 16.2888 23.8845 15.8324 23.9143C15.376 23.9441 14.9211 23.8369 14.526 23.6065Z" fill="black"/>
<path d="M19.8473 20.795C20.2724 20.795 20.6801 20.6262 20.9807 20.3256C21.2813 20.025 21.4502 19.6173 21.4502 19.1922C21.4502 18.7671 21.2813 18.3594 20.9807 18.0588C20.6801 17.7582 20.2724 17.5893 19.8473 17.5893C20.0586 17.2202 20.1146 16.7824 20.003 16.3721C19.8914 15.9618 19.6214 15.6126 19.2524 15.4013C18.8834 15.1901 18.4455 15.1341 18.0352 15.2456C17.6249 15.3572 17.2757 15.6272 17.0644 15.9962C16.8499 15.6285 16.4981 15.3611 16.0864 15.2527C15.6747 15.1444 15.2368 15.204 14.8691 15.4185C14.5013 15.633 14.2339 15.9848 14.1255 16.3965C14.0172 16.8083 14.0768 17.2461 14.2914 17.6139C13.8662 17.6139 13.4585 17.7827 13.1579 18.0833C12.8574 18.3839 12.6885 18.7916 12.6885 19.2167C12.6885 19.6419 12.8574 20.0496 13.1579 20.3501C13.4585 20.6507 13.8662 20.8196 14.2914 20.8196C14.0964 21.1876 14.0523 21.6169 14.1684 22.0168C14.2845 22.4167 14.5516 22.7557 14.9133 22.9621C15.2749 23.1685 15.7027 23.226 16.106 23.1226C16.5094 23.0191 16.8566 22.7627 17.0743 22.4077C17.1802 22.5898 17.3209 22.7493 17.4884 22.877C17.6559 23.0047 17.8469 23.0981 18.0505 23.152C18.2542 23.2059 18.4664 23.2191 18.6752 23.191C18.8839 23.1628 19.0851 23.0938 19.2672 22.9879C19.4492 22.882 19.6087 22.7413 19.7364 22.5738C19.8641 22.4063 19.9575 22.2153 20.0114 22.0116C20.0653 21.808 20.0785 21.5958 20.0504 21.387C20.0222 21.1783 19.9532 20.9771 19.8473 20.795Z" fill="black"/>
<path d="M18.7749 20.1755C18.6788 20.3478 18.556 20.5038 18.4111 20.6377C18.158 20.8759 17.8463 21.0428 17.5078 21.1214C17.1692 21.2 16.8159 21.1875 16.4837 21.0851C16.3391 21.0438 16.2003 20.9844 16.0707 20.9081C15.9394 20.8366 15.8186 20.7473 15.7118 20.6426C15.4563 20.4075 15.2676 20.109 15.1648 19.7774C15.062 19.4458 15.0489 19.0929 15.1267 18.7545C15.1672 18.5624 15.2386 18.3781 15.3381 18.2088C15.4342 18.0365 15.557 17.8805 15.7019 17.7466C15.955 17.5084 16.2667 17.3415 16.6053 17.2629C16.9438 17.1843 17.2972 17.1968 17.6293 17.2992C17.7721 17.3391 17.9092 17.3969 18.0374 17.4713C18.1673 17.5473 18.2892 17.6362 18.4013 17.7368C18.7372 18.0408 18.9578 18.4515 19.0259 18.8994C19.094 19.3474 19.0054 19.8051 18.7749 20.1952V20.1755Z" fill="black"/>
<path d="M17.0589 20.0123C17.5124 20.0123 17.88 19.6447 17.88 19.1912C17.88 18.7377 17.5124 18.3701 17.0589 18.3701C16.6054 18.3701 16.2378 18.7377 16.2378 19.1912C16.2378 19.6447 16.6054 20.0123 17.0589 20.0123Z" fill="white"/>
<path d="M19.0697 17.3229C19.0028 17.443 18.9062 17.5441 18.7891 17.6164C18.6721 17.6886 18.5385 17.7298 18.4011 17.7359C18.289 17.6353 18.1671 17.5464 18.0372 17.4704C17.909 17.396 17.7719 17.3382 17.6291 17.2983C17.5607 17.1732 17.526 17.0325 17.5284 16.89C17.5309 16.7475 17.5704 16.6081 17.6431 16.4854C17.7158 16.3628 17.8191 16.2612 17.943 16.1907C18.0668 16.1201 18.2069 16.083 18.3494 16.083C18.492 16.083 18.6321 16.1201 18.7559 16.1907C18.8798 16.2612 18.9831 16.3628 19.0558 16.4854C19.1285 16.6081 19.168 16.7475 19.1704 16.89C19.1729 17.0325 19.1382 17.1732 19.0697 17.2983V17.3229Z" fill="black"/>
<path d="M16.4539 17.2988C16.1674 17.3875 15.9051 17.5405 15.6869 17.7462C15.5495 17.742 15.4156 17.7027 15.2977 17.6321C15.1798 17.5616 15.0819 17.4621 15.0133 17.343C14.9412 17.2201 14.9023 17.0806 14.9005 16.9381C14.8986 16.7957 14.9339 16.6552 15.0028 16.5305C15.0717 16.4057 15.1719 16.3011 15.2935 16.2268C15.415 16.1526 15.5539 16.1112 15.6963 16.1068C15.8387 16.1025 15.9798 16.1352 16.1057 16.2019C16.2316 16.2686 16.338 16.3668 16.4145 16.4871C16.4909 16.6073 16.5347 16.7454 16.5416 16.8877C16.5485 17.03 16.5183 17.1717 16.4539 17.2988Z" fill="black"/>
<path d="M15.1263 19.6445C15.0537 19.7614 14.9522 19.8576 14.8317 19.9239C14.7111 19.9902 14.5755 20.0244 14.4379 20.0231C14.2956 20.0231 14.1558 19.9861 14.032 19.9158C13.9083 19.8455 13.805 19.7442 13.7322 19.6219C13.6594 19.4997 13.6197 19.3606 13.6169 19.2183C13.614 19.076 13.6482 18.9354 13.7161 18.8103C13.784 18.6853 13.8832 18.58 14.004 18.5048C14.1248 18.4296 14.2631 18.3871 14.4053 18.3815C14.5475 18.3759 14.6887 18.4073 14.8151 18.4727C14.9415 18.5381 15.0488 18.6352 15.1263 18.7545C15.0583 19.0473 15.0583 19.3517 15.1263 19.6445Z" fill="black"/>
<path d="M16.454 21.8708C16.4054 21.9737 16.336 22.0654 16.2502 22.1401C16.1644 22.2149 16.0641 22.2712 15.9556 22.3054C15.8471 22.3396 15.7326 22.351 15.6195 22.3389C15.5063 22.3268 15.3969 22.2914 15.2981 22.235C15.1992 22.1786 15.1131 22.1024 15.0451 22.0112C14.9771 21.92 14.9287 21.8157 14.9029 21.7048C14.8771 21.594 14.8744 21.479 14.8951 21.3672C14.9159 21.2553 14.9595 21.1489 15.0232 21.0546C15.0928 20.9356 15.1906 20.8355 15.3082 20.7635C15.4257 20.6914 15.5592 20.6496 15.6968 20.6416C15.8036 20.7463 15.9244 20.8356 16.0558 20.9071C16.1854 20.9834 16.3242 21.0428 16.4688 21.0841C16.5328 21.2059 16.565 21.3418 16.5625 21.4794C16.5599 21.6169 16.5226 21.7515 16.454 21.8708Z" fill="black"/>
<path d="M18.79 22.1658C18.6014 22.2752 18.3771 22.3056 18.1662 22.2503C17.9553 22.1951 17.7748 22.0587 17.664 21.8708C17.5977 21.7503 17.563 21.615 17.563 21.4775C17.563 21.34 17.5977 21.2047 17.664 21.0841C17.947 20.9941 18.2058 20.8411 18.4212 20.6367C18.5585 20.641 18.6925 20.6802 18.8104 20.7508C18.9283 20.8214 19.0262 20.9209 19.0948 21.0399C19.1492 21.1337 19.1845 21.2374 19.1986 21.3449C19.2127 21.4525 19.2054 21.5617 19.1771 21.6664C19.1487 21.7711 19.0999 21.8691 19.0335 21.9549C18.9671 22.0406 18.8843 22.1123 18.79 22.1658Z" fill="black"/>
<path d="M19.6791 20.0026C19.5419 20.0049 19.4064 19.9717 19.2858 19.9062C19.1652 19.8407 19.0636 19.7452 18.9907 19.6289C19.0572 19.336 19.0572 19.0319 18.9907 18.739C19.0634 18.6218 19.1648 18.5251 19.2852 18.458C19.4056 18.3909 19.5412 18.3556 19.6791 18.3555C19.8865 18.3715 20.0802 18.4652 20.2216 18.6179C20.3629 18.7706 20.4414 18.971 20.4414 19.179C20.4414 19.3871 20.3629 19.5875 20.2216 19.7402C20.0802 19.8928 19.8865 19.9866 19.6791 20.0026Z" fill="black"/>
<path d="M17.0987 6.86719C18.3918 6.86719 19.4425 7.94697 19.3423 9.62969C19.2421 11.3124 17.0987 13.497 17.0987 13.497C17.0987 13.497 14.9536 11.3148 14.855 9.62969C14.7564 7.94455 15.8087 6.86719 17.0987 6.86719Z" fill="black" stroke="white" stroke-width="0.53" stroke-miterlimit="10" stroke-linecap="round"/>
<path d="M4.63281 19.3333C4.63281 18.0401 5.7126 16.9894 7.39532 17.0896C9.07804 17.1898 11.2627 19.3333 11.2627 19.3333C11.2627 19.3333 9.08047 21.4791 7.39532 21.5777C5.71017 21.6763 4.63281 20.624 4.63281 19.3333Z" fill="black" stroke="white" stroke-width="0.53" stroke-miterlimit="10" stroke-linecap="round"/>
<path d="M17.0989 31.7998C15.8057 31.7998 14.755 30.72 14.8553 29.0373C14.9555 27.3546 17.0989 25.1699 17.0989 25.1699C17.0989 25.1699 19.2447 27.3521 19.3425 29.0373C19.4403 30.7224 18.3896 31.7998 17.0989 31.7998Z" fill="black" stroke="white" stroke-width="0.53" stroke-miterlimit="10" stroke-linecap="round"/>
<path d="M29.5644 19.333C29.5644 20.6262 28.4846 21.6769 26.8019 21.5767C25.1192 21.4765 22.9346 19.333 22.9346 19.333C22.9346 19.333 25.1168 17.188 26.8019 17.0894C28.4871 16.9908 29.5644 18.0431 29.5644 19.333Z" fill="black" stroke="white" stroke-width="0.53" stroke-miterlimit="10" stroke-linecap="round"/>
<path d="M24.6927 19.3335C25.4872 18.4646 25.783 17.2216 25.4112 16.145C25.0718 15.1614 24.2539 14.5738 23.2242 14.5738C22.9665 14.576 22.71 14.6096 22.4604 14.6741C22.0253 14.7849 21.6102 14.9633 21.2303 15.2026C21.4693 14.8225 21.6476 14.4075 21.7589 13.9725C22.0264 12.9024 21.7055 12.1944 21.3903 11.7903C20.9304 11.2011 20.178 10.8633 19.3261 10.8633C18.5002 10.8688 17.7057 11.1811 17.097 11.7394C16.4887 11.181 15.6945 10.8687 14.8688 10.8633C14.0161 10.8633 13.2644 11.2011 12.8046 11.7903C12.4886 12.1944 12.1685 12.9008 12.436 13.9725C12.5469 14.4076 12.7253 14.8227 12.9646 15.2026C12.5847 14.9637 12.17 14.7854 11.7353 14.6741C11.4859 14.6102 11.2297 14.5771 10.9723 14.5755C9.94184 14.5755 9.12392 15.163 8.78446 16.1466C8.41268 17.2232 8.7093 18.4662 9.50378 19.3351C8.7093 20.2047 8.41349 21.447 8.78446 22.5235C9.12473 23.5079 9.94184 24.0955 10.9723 24.0955C11.2297 24.0939 11.4859 24.0607 11.7353 23.9969C12.1703 23.8857 12.5853 23.7073 12.9654 23.4683C12.7269 23.8476 12.5491 24.2618 12.4384 24.696C12.1709 25.7653 12.491 26.4741 12.807 26.8782C13.2669 27.4674 14.0193 27.8053 14.8712 27.8053C15.6969 27.7998 16.4911 27.4876 17.0995 26.9291C17.7084 27.4871 18.5027 27.7993 19.3285 27.8053C20.1804 27.8053 20.9329 27.4674 21.3928 26.8782C21.708 26.4741 22.0288 25.7677 21.7613 24.696C21.6501 24.261 21.4717 23.846 21.2327 23.4659C21.612 23.705 22.0262 23.8836 22.4604 23.9953C22.7098 24.0591 22.966 24.0922 23.2234 24.0939C24.2539 24.0939 25.071 23.5063 25.4112 22.5227C25.783 21.4462 25.4872 20.2031 24.6927 19.3335Z" fill="black"/>
<path d="M17.045 17.7915C17.045 17.7915 20.64 16.4789 21.2963 13.8554C21.9525 11.2319 18.6194 10.4964 17.0935 12.4378C15.5716 10.498 12.2393 11.2311 12.8956 13.8554C13.5519 16.4797 17.146 17.7915 17.146 17.7915" fill="white"/>
<path d="M17.0567 17.7916C17.0567 17.7916 19.9404 16.7409 20.4666 14.6339C20.9927 12.5269 18.3199 11.9393 17.0987 13.4975C15.8783 11.9393 13.2047 12.5277 13.7308 14.6339C14.257 16.7401 17.1407 17.7916 17.1407 17.7916" fill="white"/>
<path d="M17.0709 17.7913C17.0709 17.7913 18.992 17.0898 19.342 15.69C19.692 14.2901 17.9123 13.8949 17.0984 14.9327C16.2853 13.8949 14.504 14.2861 14.8548 15.69C15.2055 17.0938 17.1267 17.7913 17.1267 17.7913" fill="black"/>
<path d="M15.5561 19.3856C15.5561 19.3856 14.2435 15.7906 11.6201 15.1352C8.99656 14.4797 8.26107 17.8112 10.2024 19.3331C8.26269 20.8558 8.99575 24.1881 11.6201 23.5358C14.2444 22.8836 15.5561 19.2846 15.5561 19.2846" fill="white"/>
<path d="M15.5558 19.3759C15.5558 19.3759 14.5051 16.4914 12.3981 15.9652C10.291 15.439 9.70345 18.1126 11.2617 19.3331C9.70345 20.5543 10.2918 23.2279 12.3981 22.7017C14.5043 22.1756 15.5558 19.291 15.5558 19.291" fill="white"/>
<path d="M15.5565 19.361C15.5565 19.361 14.8549 17.4399 13.4551 17.0891C12.0553 16.7384 11.66 18.5197 12.6978 19.3328C11.66 20.1466 12.0512 21.9272 13.4551 21.5772C14.859 21.2272 15.5565 19.3053 15.5565 19.3053" fill="black"/>
<path d="M17.1507 20.876C17.1507 20.876 13.5558 22.1877 12.9003 24.812C12.2448 27.4363 15.5763 28.171 17.0982 26.2313C18.6209 28.171 21.9532 27.4388 21.301 24.8144C20.6487 22.1901 17.0497 20.8784 17.0497 20.8784" fill="white"/>
<path d="M17.1407 20.876C17.1407 20.876 14.257 21.9267 13.7308 24.0337C13.2047 26.1407 15.8783 26.7275 17.0987 25.1701C18.3199 26.7275 20.9935 26.1399 20.4666 24.0337C19.9396 21.9275 17.0567 20.876 17.0567 20.876" fill="white"/>
<path d="M17.1267 20.876C17.1267 20.876 15.2055 21.5775 14.8548 22.9774C14.504 24.3772 16.2853 24.7716 17.0984 23.7347C17.9123 24.7716 19.6928 24.3812 19.342 22.9774C18.9912 21.5735 17.0709 20.876 17.0709 20.876" fill="black"/>
<path d="M18.6401 19.2808C18.6401 19.2808 19.9519 22.8758 22.5762 23.5321C25.2005 24.1884 25.9352 20.8561 23.993 19.3293C25.9327 17.8074 25.2005 14.4751 22.5762 15.1314C19.9519 15.7877 18.6401 19.3819 18.6401 19.3819" fill="white"/>
<path d="M18.6401 19.291C18.6401 19.291 19.6908 22.1748 21.7979 22.7009C23.9049 23.2271 24.4917 20.5543 22.9342 19.3331C24.4917 18.1126 23.9041 15.439 21.7979 15.9652C19.6916 16.4914 18.6401 19.3751 18.6401 19.3751" fill="white"/>
<path d="M18.6401 19.3061C18.6401 19.3061 19.3409 21.2272 20.7415 21.5772C22.1422 21.9271 22.5358 20.1474 21.498 19.3336C22.5358 18.5205 22.1446 16.74 20.7415 17.0899C19.3384 17.4399 18.6401 19.3618 18.6401 19.3618" fill="black"/>
<path d="M17.0976 22.532C16.465 22.532 15.8467 22.3445 15.3208 21.993C14.7948 21.6416 14.3849 21.1421 14.1429 20.5578C13.9008 19.9734 13.8375 19.3303 13.9609 18.71C14.0843 18.0896 14.3889 17.5197 14.8361 17.0725C15.2834 16.6252 15.8533 16.3206 16.4736 16.1972C17.094 16.0738 17.737 16.1371 18.3214 16.3792C18.9058 16.6212 19.4053 17.0312 19.7567 17.5571C20.1081 18.083 20.2957 18.7014 20.2957 19.3339C20.2948 20.1818 19.9576 20.9948 19.358 21.5944C18.7585 22.1939 17.9455 22.5312 17.0976 22.532Z" fill="white"/>
<path d="M17.0981 21.5771C18.3372 21.5771 19.3417 20.5726 19.3417 19.3335C19.3417 18.0943 18.3372 17.0898 17.0981 17.0898C15.859 17.0898 14.8545 18.0943 14.8545 19.3335C14.8545 20.5726 15.859 21.5771 17.0981 21.5771Z" fill="black"/>
</svg>
