<svg width="209" height="16" viewBox="0 0 209 16" fill="none" xmlns="http://www.w3.org/2000/svg">
<path d="M0.25575 10.48C1.43975 9.552 2.38908 8.76267 3.10375 8.112C3.81842 7.46133 4.37308 6.89067 4.76775 6.4C5.16242 5.90933 5.42375 5.472 5.55175 5.088C5.67975 4.69333 5.74375 4.29867 5.74375 3.904C5.74375 3.50933 5.66908 3.184 5.51975 2.928C5.38108 2.672 5.19975 2.46933 4.97575 2.32C4.75175 2.17067 4.49575 2.06933 4.20775 2.016C3.93042 1.96267 3.65842 1.936 3.39175 1.936C3.03975 1.936 2.66642 1.95733 2.27175 2C1.87708 2.032 1.46108 2.10667 1.02375 2.224V0.992C1.39708 0.906666 1.79175 0.842666 2.20775 0.799999C2.63442 0.757332 3.08242 0.735999 3.55175 0.735999C4.09575 0.735999 4.58642 0.794666 5.02375 0.912C5.46108 1.02933 5.83442 1.216 6.14375 1.472C6.46375 1.728 6.70375 2.05867 6.86375 2.464C7.03442 2.86933 7.11975 3.35467 7.11975 3.92C7.11975 4.42133 7.04508 4.896 6.89575 5.344C6.74642 5.78133 6.49575 6.24 6.14375 6.72C5.79175 7.18933 5.31708 7.70133 4.71975 8.256C4.12242 8.8 3.37575 9.42933 2.47975 10.144L1.83975 10.64V10.784H7.56775V12H0.25575V10.48ZM13.1389 12.16C12.5842 12.16 12.0775 12.08 11.6189 11.92C11.1602 11.7493 10.7655 11.4507 10.4349 11.024C10.1042 10.5973 9.84821 10.016 9.66688 9.28C9.48554 8.53333 9.39488 7.58933 9.39488 6.448C9.39488 5.30667 9.48554 4.368 9.66688 3.632C9.84821 2.896 10.1042 2.31467 10.4349 1.888C10.7655 1.45067 11.1602 1.152 11.6189 0.992C12.0775 0.821333 12.5842 0.735999 13.1389 0.735999C13.6935 0.735999 14.2002 0.821333 14.6589 0.992C15.1282 1.152 15.5282 1.45067 15.8589 1.888C16.1895 2.31467 16.4455 2.896 16.6269 3.632C16.8082 4.368 16.8989 5.30667 16.8989 6.448C16.8989 7.58933 16.8082 8.53333 16.6269 9.28C16.4455 10.016 16.1895 10.5973 15.8589 11.024C15.5282 11.4507 15.1282 11.7493 14.6589 11.92C14.2002 12.08 13.6935 12.16 13.1389 12.16ZM13.1389 10.96C13.5335 10.96 13.8749 10.896 14.1629 10.768C14.4509 10.6293 14.6909 10.3893 14.8829 10.048C15.0749 9.70667 15.2135 9.248 15.2989 8.672C15.3949 8.08533 15.4429 7.344 15.4429 6.448C15.4429 5.56267 15.3949 4.832 15.2989 4.256C15.2135 3.66933 15.0749 3.20533 14.8829 2.864C14.6909 2.52267 14.4509 2.288 14.1629 2.16C13.8749 2.02133 13.5335 1.952 13.1389 1.952C12.7549 1.952 12.4189 2.02133 12.1309 2.16C11.8429 2.288 11.6029 2.52267 11.4109 2.864C11.2295 3.20533 11.0909 3.66933 10.9949 4.256C10.9095 4.832 10.8669 5.56267 10.8669 6.448C10.8669 7.344 10.9095 8.08533 10.9949 8.672C11.0909 9.248 11.2295 9.70667 11.4109 10.048C11.6029 10.3893 11.8429 10.6293 12.1309 10.768C12.4189 10.896 12.7549 10.96 13.1389 10.96ZM18.662 10.48C19.846 9.552 20.7953 8.76267 21.51 8.112C22.2247 7.46133 22.7793 6.89067 23.174 6.4C23.5687 5.90933 23.83 5.472 23.958 5.088C24.086 4.69333 24.15 4.29867 24.15 3.904C24.15 3.50933 24.0753 3.184 23.926 2.928C23.7873 2.672 23.606 2.46933 23.382 2.32C23.158 2.17067 22.902 2.06933 22.614 2.016C22.3367 1.96267 22.0647 1.936 21.798 1.936C21.446 1.936 21.0727 1.95733 20.678 2C20.2833 2.032 19.8673 2.10667 19.43 2.224V0.992C19.8033 0.906666 20.198 0.842666 20.614 0.799999C21.0407 0.757332 21.4887 0.735999 21.958 0.735999C22.502 0.735999 22.9927 0.794666 23.43 0.912C23.8673 1.02933 24.2407 1.216 24.55 1.472C24.87 1.728 25.11 2.05867 25.27 2.464C25.4407 2.86933 25.526 3.35467 25.526 3.92C25.526 4.42133 25.4513 4.896 25.302 5.344C25.1527 5.78133 24.902 6.24 24.55 6.72C24.198 7.18933 23.7233 7.70133 23.126 8.256C22.5287 8.8 21.782 9.42933 20.886 10.144L20.246 10.64V10.784H25.974V12H18.662V10.48ZM30.5691 12.16C30.1211 12.16 29.6838 12.144 29.2571 12.112C28.8411 12.08 28.4465 12.0267 28.0731 11.952V10.688C28.4998 10.7947 28.9105 10.8693 29.3051 10.912C29.7105 10.944 30.1265 10.96 30.5531 10.96C30.9691 10.96 31.3531 10.928 31.7051 10.864C32.0678 10.8 32.3771 10.688 32.6331 10.528C32.8891 10.368 33.0918 10.16 33.2411 9.904C33.3905 9.63733 33.4651 9.312 33.4651 8.928C33.4651 8.13867 33.1985 7.58933 32.6651 7.28C32.1318 6.97067 31.3371 6.816 30.2811 6.816H29.4011V5.712H30.2651C31.2358 5.712 31.9718 5.536 32.4731 5.184C32.9745 4.82133 33.2251 4.336 33.2251 3.728C33.2251 3.07733 33.0278 2.61333 32.6331 2.336C32.2491 2.05867 31.6571 1.92 30.8571 1.92C30.5371 1.92 30.1691 1.94667 29.7531 2C29.3371 2.05333 28.9531 2.13333 28.6011 2.24V1.056C28.8785 0.970666 29.2251 0.896 29.6411 0.832C30.0678 0.767999 30.4945 0.735999 30.9211 0.735999C32.1158 0.735999 33.0171 0.965333 33.6251 1.424C34.2438 1.88267 34.5531 2.624 34.5531 3.648C34.5531 4.37333 34.3771 4.93333 34.0251 5.328C33.6731 5.712 33.1931 5.99467 32.5851 6.176V6.272C33.3745 6.41067 33.9451 6.70933 34.2971 7.168C34.6598 7.616 34.8411 8.208 34.8411 8.944C34.8411 9.968 34.4945 10.7627 33.8011 11.328C33.1185 11.8827 32.0411 12.16 30.5691 12.16ZM50.1216 0.896V12H48.6656V6.624H43.1776V12H41.7376V0.896H43.1776V5.424H48.6656V0.896H50.1216ZM53.0658 0.896H55.3218L60.3778 10.112H60.4738V0.896H61.9138V12H60.0098L54.5698 2.224H54.4738V12H53.0658V0.896ZM68.9906 12.16C67.5933 12.16 66.548 11.8773 65.8546 11.312C65.1613 10.736 64.8146 9.77067 64.8146 8.416V0.896H66.2386V8.096C66.2386 8.62933 66.2866 9.07733 66.3826 9.44C66.4786 9.792 66.6333 10.0747 66.8466 10.288C67.0706 10.5013 67.3586 10.656 67.7106 10.752C68.0626 10.848 68.4946 10.896 69.0066 10.896C69.54 10.896 69.9826 10.848 70.3346 10.752C70.6973 10.656 70.9853 10.5013 71.1986 10.288C71.412 10.0747 71.5613 9.792 71.6466 9.44C71.732 9.07733 71.7746 8.62933 71.7746 8.096V0.896H73.1986V8.416C73.1986 9.728 72.8466 10.6827 72.1426 11.28C71.4386 11.8667 70.388 12.16 68.9906 12.16ZM84.3188 12.16C82.9214 12.16 81.8761 11.8773 81.1828 11.312C80.4894 10.736 80.1428 9.77067 80.1428 8.416V0.896H81.5668V8.096C81.5668 8.62933 81.6148 9.07733 81.7108 9.44C81.8068 9.792 81.9614 10.0747 82.1748 10.288C82.3988 10.5013 82.6868 10.656 83.0388 10.752C83.3908 10.848 83.8228 10.896 84.3348 10.896C84.8681 10.896 85.3108 10.848 85.6628 10.752C86.0254 10.656 86.3134 10.5013 86.5268 10.288C86.7401 10.0747 86.8894 9.792 86.9748 9.44C87.0601 9.07733 87.1028 8.62933 87.1028 8.096V0.896H88.5268V8.416C88.5268 9.728 88.1748 10.6827 87.4708 11.28C86.7668 11.8667 85.7161 12.16 84.3188 12.16ZM95.5375 3.2C96.1028 3.2 96.5722 3.26933 96.9455 3.408C97.3188 3.54667 97.6122 3.744 97.8255 4C98.0495 4.24533 98.2042 4.53867 98.2895 4.88C98.3855 5.22133 98.4335 5.6 98.4335 6.016V12H97.0415V6.528C97.0415 6.19733 97.0202 5.904 96.9775 5.648C96.9348 5.38133 96.8495 5.16267 96.7215 4.992C96.6042 4.81067 96.4388 4.672 96.2255 4.576C96.0122 4.48 95.7348 4.432 95.3935 4.432C95.1162 4.432 94.8442 4.45333 94.5775 4.496C94.3215 4.528 94.0762 4.608 93.8415 4.736C93.6175 4.85333 93.4095 5.024 93.2175 5.248C93.0362 5.472 92.8868 5.776 92.7695 6.16V12H91.3935V3.36H92.7695V4.592C92.8975 4.31467 93.0628 4.08533 93.2655 3.904C93.4788 3.72267 93.7082 3.584 93.9535 3.488C94.1988 3.38133 94.4548 3.30667 94.7215 3.264C94.9988 3.22133 95.2708 3.2 95.5375 3.2ZM101.988 1.776C101.679 1.776 101.46 1.728 101.332 1.632C101.215 1.536 101.156 1.312 101.156 0.959999C101.156 0.597333 101.215 0.373333 101.332 0.287999C101.46 0.191999 101.679 0.143999 101.988 0.143999C102.276 0.143999 102.484 0.191999 102.612 0.287999C102.74 0.373333 102.804 0.597333 102.804 0.959999C102.804 1.312 102.74 1.536 102.612 1.632C102.484 1.728 102.276 1.776 101.988 1.776ZM101.284 3.36H102.66V12H101.284V3.36ZM104.269 3.36H105.661L108.285 10.624H108.381L110.909 3.36H112.365L109.133 12H107.501L104.269 3.36ZM120.695 6.816C120.695 6.93333 120.684 7.08267 120.663 7.264C120.652 7.43467 120.636 7.62133 120.615 7.824L114.759 8.192C114.759 8.66133 114.807 9.072 114.903 9.424C114.999 9.76533 115.154 10.048 115.367 10.272C115.58 10.496 115.863 10.6667 116.215 10.784C116.567 10.8907 117.004 10.944 117.527 10.944C118.007 10.944 118.492 10.8907 118.983 10.784C119.484 10.6773 119.9 10.544 120.231 10.384V11.648C120.103 11.712 119.938 11.776 119.735 11.84C119.532 11.904 119.303 11.9573 119.047 12C118.791 12.0533 118.514 12.0907 118.215 12.112C117.927 12.144 117.628 12.16 117.319 12.16C116.679 12.16 116.108 12.0907 115.607 11.952C115.116 11.8027 114.7 11.5573 114.359 11.216C114.018 10.864 113.756 10.4053 113.575 9.84C113.404 9.264 113.319 8.544 113.319 7.68C113.319 6.816 113.404 6.10133 113.575 5.536C113.756 4.96 114.012 4.50133 114.343 4.16C114.684 3.808 115.095 3.56267 115.575 3.424C116.066 3.27467 116.62 3.2 117.239 3.2C117.975 3.2 118.567 3.312 119.015 3.536C119.474 3.74933 119.826 4.032 120.071 4.384C120.316 4.72533 120.482 5.11467 120.567 5.552C120.652 5.97867 120.695 6.4 120.695 6.816ZM119.335 6.832C119.335 6.50133 119.314 6.18667 119.271 5.888C119.228 5.57867 119.132 5.312 118.983 5.088C118.844 4.85333 118.636 4.672 118.359 4.544C118.082 4.40533 117.708 4.336 117.239 4.336C116.738 4.336 116.327 4.4 116.007 4.528C115.698 4.656 115.452 4.84267 115.271 5.088C115.09 5.33333 114.962 5.632 114.887 5.984C114.812 6.336 114.77 6.73067 114.759 7.168L119.335 6.832ZM127.369 3.2L127.321 4.448H127.129C126.852 4.448 126.58 4.47467 126.313 4.528C126.046 4.58133 125.796 4.68267 125.561 4.832C125.326 4.97067 125.113 5.16267 124.921 5.408C124.729 5.65333 124.574 5.968 124.457 6.352V12H123.081V3.36H124.457V4.928C124.596 4.56533 124.766 4.272 124.969 4.048C125.172 3.824 125.396 3.648 125.641 3.52C125.886 3.392 126.142 3.30667 126.409 3.264C126.686 3.22133 126.953 3.2 127.209 3.2H127.369ZM131.144 12.096C130.93 12.096 130.701 12.0853 130.456 12.064C130.221 12.0533 129.986 12.0373 129.752 12.016C129.517 11.9947 129.298 11.968 129.096 11.936C128.904 11.8933 128.749 11.856 128.632 11.824V10.64C128.781 10.6827 128.957 10.7253 129.16 10.768C129.373 10.8107 129.592 10.848 129.816 10.88C130.04 10.912 130.264 10.9387 130.488 10.96C130.722 10.9707 130.936 10.976 131.128 10.976C131.789 10.976 132.285 10.8853 132.616 10.704C132.957 10.512 133.128 10.16 133.128 9.648C133.128 9.392 133.101 9.184 133.048 9.024C133.005 8.85333 132.914 8.71467 132.776 8.608C132.637 8.49067 132.44 8.38933 132.184 8.304C131.938 8.21867 131.608 8.128 131.192 8.032C130.712 7.92533 130.317 7.80267 130.008 7.664C129.698 7.52533 129.453 7.36 129.272 7.168C129.09 6.976 128.962 6.74667 128.888 6.48C128.813 6.21333 128.776 5.89867 128.776 5.536C128.776 4.832 129.032 4.26667 129.544 3.84C130.066 3.41333 130.845 3.2 131.88 3.2C132.296 3.2 132.706 3.22667 133.112 3.28C133.528 3.33333 133.842 3.40267 134.056 3.488L133.96 4.656C133.714 4.56 133.41 4.48 133.048 4.416C132.685 4.352 132.301 4.32 131.896 4.32C131.288 4.32 130.829 4.40533 130.52 4.576C130.221 4.74667 130.072 5.07733 130.072 5.568C130.072 5.792 130.093 5.97333 130.136 6.112C130.189 6.25067 130.274 6.37333 130.392 6.48C130.509 6.576 130.674 6.66133 130.888 6.736C131.101 6.8 131.378 6.86933 131.72 6.944C132.21 7.06133 132.626 7.18933 132.968 7.328C133.32 7.456 133.602 7.62133 133.816 7.824C134.029 8.016 134.184 8.256 134.28 8.544C134.376 8.832 134.424 9.184 134.424 9.6C134.424 10.464 134.141 11.0987 133.576 11.504C133.021 11.8987 132.21 12.096 131.144 12.096ZM137.504 1.776C137.194 1.776 136.976 1.728 136.848 1.632C136.73 1.536 136.672 1.312 136.672 0.959999C136.672 0.597333 136.73 0.373333 136.848 0.287999C136.976 0.191999 137.194 0.143999 137.504 0.143999C137.792 0.143999 138 0.191999 138.128 0.287999C138.256 0.373333 138.32 0.597333 138.32 0.959999C138.32 1.312 138.256 1.536 138.128 1.632C138 1.728 137.792 1.776 137.504 1.776ZM136.8 3.36H138.176V12H136.8V3.36ZM143.769 10.944C143.961 10.944 144.126 10.9387 144.265 10.928C144.414 10.9067 144.564 10.88 144.713 10.848V12.016C144.542 12.0373 144.382 12.0533 144.233 12.064C144.084 12.0853 143.918 12.096 143.737 12.096C143.257 12.096 142.852 12.064 142.521 12C142.201 11.9253 141.934 11.7867 141.721 11.584C141.518 11.3813 141.369 11.104 141.273 10.752C141.188 10.3893 141.145 9.92533 141.145 9.36V4.512H139.865V3.36H141.145V1.312H142.521V3.36H144.665V4.512H142.521V9.28C142.521 9.62133 142.537 9.89867 142.569 10.112C142.601 10.3253 142.66 10.496 142.745 10.624C142.841 10.7413 142.969 10.8267 143.129 10.88C143.289 10.9227 143.502 10.944 143.769 10.944ZM146.088 14.016C146.834 14.016 147.389 13.8507 147.752 13.52C148.125 13.1893 148.418 12.6773 148.632 11.984L145.176 3.36H146.664L149.304 10.528H149.4L151.896 3.36H153.288L150.184 11.712C149.981 12.256 149.773 12.7413 149.56 13.168C149.346 13.5947 149.085 13.9573 148.776 14.256C148.477 14.5653 148.114 14.8 147.688 14.96C147.261 15.12 146.728 15.2 146.088 15.2V14.016ZM162.235 0.896C163.035 0.896 163.76 0.970667 164.411 1.12C165.072 1.25867 165.637 1.53067 166.107 1.936C166.576 2.34133 166.939 2.90667 167.195 3.632C167.461 4.35733 167.595 5.296 167.595 6.448C167.595 7.52533 167.461 8.42133 167.195 9.136C166.939 9.84 166.576 10.4053 166.107 10.832C165.637 11.2587 165.072 11.5627 164.411 11.744C163.76 11.9147 163.035 12 162.235 12H159.035V0.896H162.235ZM162.203 10.736C162.779 10.736 163.307 10.672 163.787 10.544C164.267 10.4053 164.677 10.176 165.019 9.856C165.371 9.52533 165.637 9.08267 165.819 8.528C166.011 7.97333 166.107 7.28 166.107 6.448C166.107 5.56267 166.005 4.84267 165.803 4.288C165.611 3.72267 165.339 3.28533 164.987 2.976C164.645 2.656 164.235 2.43733 163.755 2.32C163.285 2.20267 162.768 2.144 162.203 2.144H160.475V10.736H162.203ZM177.07 6.816C177.07 6.93333 177.059 7.08267 177.038 7.264C177.027 7.43467 177.011 7.62133 176.99 7.824L171.134 8.192C171.134 8.66133 171.182 9.072 171.278 9.424C171.374 9.76533 171.529 10.048 171.742 10.272C171.955 10.496 172.238 10.6667 172.59 10.784C172.942 10.8907 173.379 10.944 173.902 10.944C174.382 10.944 174.867 10.8907 175.358 10.784C175.859 10.6773 176.275 10.544 176.606 10.384V11.648C176.478 11.712 176.313 11.776 176.11 11.84C175.907 11.904 175.678 11.9573 175.422 12C175.166 12.0533 174.889 12.0907 174.59 12.112C174.302 12.144 174.003 12.16 173.694 12.16C173.054 12.16 172.483 12.0907 171.982 11.952C171.491 11.8027 171.075 11.5573 170.734 11.216C170.393 10.864 170.131 10.4053 169.95 9.84C169.779 9.264 169.694 8.544 169.694 7.68C169.694 6.816 169.779 6.10133 169.95 5.536C170.131 4.96 170.387 4.50133 170.718 4.16C171.059 3.808 171.47 3.56267 171.95 3.424C172.441 3.27467 172.995 3.2 173.614 3.2C174.35 3.2 174.942 3.312 175.39 3.536C175.849 3.74933 176.201 4.032 176.446 4.384C176.691 4.72533 176.857 5.11467 176.942 5.552C177.027 5.97867 177.07 6.4 177.07 6.816ZM175.71 6.832C175.71 6.50133 175.689 6.18667 175.646 5.888C175.603 5.57867 175.507 5.312 175.358 5.088C175.219 4.85333 175.011 4.672 174.734 4.544C174.457 4.40533 174.083 4.336 173.614 4.336C173.113 4.336 172.702 4.4 172.382 4.528C172.073 4.656 171.827 4.84267 171.646 5.088C171.465 5.33333 171.337 5.632 171.262 5.984C171.187 6.336 171.145 6.73067 171.134 7.168L175.71 6.832ZM181.456 12.096C181.243 12.096 181.013 12.0853 180.768 12.064C180.533 12.0533 180.299 12.0373 180.064 12.016C179.829 11.9947 179.611 11.968 179.408 11.936C179.216 11.8933 179.061 11.856 178.944 11.824V10.64C179.093 10.6827 179.269 10.7253 179.472 10.768C179.685 10.8107 179.904 10.848 180.128 10.88C180.352 10.912 180.576 10.9387 180.8 10.96C181.035 10.9707 181.248 10.976 181.44 10.976C182.101 10.976 182.597 10.8853 182.928 10.704C183.269 10.512 183.44 10.16 183.44 9.648C183.44 9.392 183.413 9.184 183.36 9.024C183.317 8.85333 183.227 8.71467 183.088 8.608C182.949 8.49067 182.752 8.38933 182.496 8.304C182.251 8.21867 181.92 8.128 181.504 8.032C181.024 7.92533 180.629 7.80267 180.32 7.664C180.011 7.52533 179.765 7.36 179.584 7.168C179.403 6.976 179.275 6.74667 179.2 6.48C179.125 6.21333 179.088 5.89867 179.088 5.536C179.088 4.832 179.344 4.26667 179.856 3.84C180.379 3.41333 181.157 3.2 182.192 3.2C182.608 3.2 183.019 3.22667 183.424 3.28C183.84 3.33333 184.155 3.40267 184.368 3.488L184.272 4.656C184.027 4.56 183.723 4.48 183.36 4.416C182.997 4.352 182.613 4.32 182.208 4.32C181.6 4.32 181.141 4.40533 180.832 4.576C180.533 4.74667 180.384 5.07733 180.384 5.568C180.384 5.792 180.405 5.97333 180.448 6.112C180.501 6.25067 180.587 6.37333 180.704 6.48C180.821 6.576 180.987 6.66133 181.2 6.736C181.413 6.8 181.691 6.86933 182.032 6.944C182.523 7.06133 182.939 7.18933 183.28 7.328C183.632 7.456 183.915 7.62133 184.128 7.824C184.341 8.016 184.496 8.256 184.592 8.544C184.688 8.832 184.736 9.184 184.736 9.6C184.736 10.464 184.453 11.0987 183.888 11.504C183.333 11.8987 182.523 12.096 181.456 12.096ZM187.816 1.776C187.507 1.776 187.288 1.728 187.16 1.632C187.043 1.536 186.984 1.312 186.984 0.959999C186.984 0.597333 187.043 0.373333 187.16 0.287999C187.288 0.191999 187.507 0.143999 187.816 0.143999C188.104 0.143999 188.312 0.191999 188.44 0.287999C188.568 0.373333 188.632 0.597333 188.632 0.959999C188.632 1.312 188.568 1.536 188.44 1.632C188.312 1.728 188.104 1.776 187.816 1.776ZM187.112 3.36H188.488V12H187.112V3.36ZM198.658 3.36V11.392C198.658 12.5867 198.316 13.52 197.634 14.192C196.962 14.864 195.895 15.2 194.434 15.2C194.06 15.2 193.687 15.1787 193.314 15.136C192.94 15.0933 192.615 15.0453 192.338 14.992V13.824C192.988 13.952 193.692 14.016 194.45 14.016C195.41 14.016 196.119 13.8027 196.578 13.376C197.047 12.9493 197.282 12.24 197.282 11.248V10.384C197.1 10.896 196.796 11.296 196.37 11.584C195.943 11.8613 195.314 12 194.482 12C193.756 12 193.164 11.8933 192.706 11.68C192.247 11.4667 191.879 11.168 191.602 10.784C191.335 10.4 191.148 9.94133 191.042 9.408C190.946 8.864 190.898 8.26133 190.898 7.6C190.898 7.00267 190.946 6.43733 191.042 5.904C191.148 5.37067 191.335 4.90667 191.602 4.512C191.879 4.10667 192.247 3.78667 192.706 3.552C193.164 3.31733 193.756 3.2 194.482 3.2C194.919 3.2 195.292 3.248 195.602 3.344C195.922 3.42933 196.188 3.552 196.402 3.712C196.626 3.86133 196.807 4.048 196.946 4.272C197.084 4.48533 197.196 4.72 197.282 4.976V3.36H198.658ZM194.674 10.848C195.196 10.848 195.628 10.7787 195.97 10.64C196.311 10.4907 196.583 10.2773 196.786 10C196.988 9.72267 197.127 9.38133 197.202 8.976C197.287 8.57067 197.33 8.112 197.33 7.6C197.33 7.10933 197.287 6.66133 197.202 6.256C197.127 5.85067 196.988 5.50933 196.786 5.232C196.583 4.95467 196.311 4.74133 195.97 4.592C195.628 4.432 195.196 4.352 194.674 4.352C194.151 4.352 193.735 4.44267 193.426 4.624C193.127 4.80533 192.898 5.04533 192.738 5.344C192.578 5.64267 192.476 5.98933 192.434 6.384C192.391 6.77867 192.37 7.184 192.37 7.6C192.37 8.048 192.391 8.46933 192.434 8.864C192.487 9.25867 192.594 9.60533 192.754 9.904C192.914 10.192 193.143 10.4213 193.442 10.592C193.751 10.7627 194.162 10.848 194.674 10.848ZM205.709 3.2C206.275 3.2 206.744 3.26933 207.117 3.408C207.491 3.54667 207.784 3.744 207.997 4C208.221 4.24533 208.376 4.53867 208.461 4.88C208.557 5.22133 208.605 5.6 208.605 6.016V12H207.213V6.528C207.213 6.19733 207.192 5.904 207.149 5.648C207.107 5.38133 207.021 5.16267 206.893 4.992C206.776 4.81067 206.611 4.672 206.397 4.576C206.184 4.48 205.907 4.432 205.565 4.432C205.288 4.432 205.016 4.45333 204.749 4.496C204.493 4.528 204.248 4.608 204.013 4.736C203.789 4.85333 203.581 5.024 203.389 5.248C203.208 5.472 203.059 5.776 202.941 6.16V12H201.565V3.36H202.941V4.592C203.069 4.31467 203.235 4.08533 203.437 3.904C203.651 3.72267 203.88 3.584 204.125 3.488C204.371 3.38133 204.627 3.30667 204.893 3.264C205.171 3.22133 205.443 3.2 205.709 3.2Z" fill="black"/>
</svg>
