<svg width="30" height="30" viewBox="0 0 30 30" fill="none" xmlns="http://www.w3.org/2000/svg">
<path d="M14.625 5.09766L10.4531 10.2832L15.3398 13.752L19.1865 10.3447L14.625 5.09766Z" fill="black"/>
<path d="M27.4162 15.0703C26.9533 14.9326 26.0978 14.71 25.0373 14.5576C25.1251 12.5303 24.7384 10.7139 24.4806 9.77932C24.3136 9.16702 23.713 8.78616 23.0861 8.89163C22.4445 9.00295 21.1027 9.28713 19.6232 9.89065C18.6476 7.24514 16.6466 5.21194 15.7999 4.4385C15.7414 4.38577 15.6798 4.33889 15.6125 4.29788C15.2843 4.09573 14.8859 4.06057 14.5343 4.19534C14.3937 4.24807 14.2589 4.3301 14.1417 4.43557C13.3214 5.17385 11.3556 7.12502 10.3068 9.67678C9.05581 9.21975 7.96304 8.99123 7.4064 8.89456C6.77651 8.78616 6.173 9.16702 6.006 9.78225C5.75405 10.7051 5.37026 12.4922 5.44643 14.4961C4.1603 14.6426 3.11147 14.9151 2.5812 15.0733C1.96889 15.2549 1.59975 15.8643 1.7228 16.4912C1.99233 17.8711 3.1437 22.5381 6.67104 24.6504C8.25015 25.5967 10.0519 25.8867 11.6808 25.8867C12.5304 25.8867 13.3332 25.8076 14.0304 25.6992C14.3526 25.6501 14.6731 25.5905 14.9914 25.5205C15.882 25.7139 17.048 25.8897 18.3166 25.8897C19.9513 25.8897 21.7501 25.5938 23.3292 24.6475C26.8566 22.5352 28.008 17.8682 28.2775 16.4883C28.3976 15.8584 28.0285 15.252 27.4162 15.0703ZM23.1037 10.4063C23.3029 11.1885 23.6105 12.7295 23.5519 14.4082C21.7384 14.3174 19.632 14.543 17.8332 15.6211C17.549 15.791 17.2853 15.9785 17.0304 16.1748C17.0216 16.1836 17.0128 16.1895 17.0011 16.1983C16.1193 16.8985 15.4132 17.7539 14.8537 18.6446C14.8888 17.253 15.173 15.7324 15.9992 14.4463C17.7833 11.666 21.633 10.6875 23.1037 10.4063ZM14.9679 5.70413C15.8205 6.51272 17.4787 8.30276 18.2609 10.5323C17.1652 11.124 16.09 11.9063 15.2433 12.9463C14.2589 11.7364 12.964 10.8721 11.6896 10.2569C12.5539 8.15041 14.1476 6.46877 14.9679 5.70413ZM7.38882 10.4063C8.82729 10.6817 12.5451 11.6309 14.3761 14.2793C13.9777 15.0557 13.7169 15.876 13.5617 16.6934C13.1251 16.2774 12.6623 15.917 12.1701 15.6211C10.5294 14.6397 8.63686 14.3672 6.94057 14.3936C6.88198 12.7178 7.1896 11.1856 7.38882 10.4063ZM7.43862 23.3614C4.6144 21.668 3.55093 17.8858 3.24038 16.4356C4.68472 16.0342 8.56948 15.208 11.4025 16.9043C12.1173 17.335 12.7736 17.9326 13.3537 18.6826L13.3595 18.6768C13.3419 19.4737 13.3976 20.2266 13.4826 20.8858C13.5031 21.0528 13.5265 21.211 13.5529 21.3692C12.9992 22.9131 12.8234 24.1377 12.8058 24.249L12.7941 24.3399C11.13 24.4805 9.10268 24.3574 7.43862 23.3614ZM22.5617 23.3614C22.3859 23.4668 22.2042 23.5635 22.0226 23.6485C19.2716 24.9492 15.7853 24.208 14.4025 23.8272C14.4142 23.7774 14.4289 23.7158 14.4406 23.6602C14.4523 23.6074 14.464 23.5547 14.4787 23.4961C14.4933 23.4346 14.5109 23.3701 14.5255 23.3028C14.546 23.2237 14.5666 23.1416 14.59 23.0567C14.6076 22.9893 14.6251 22.9248 14.6457 22.8545C14.6808 22.7344 14.7189 22.6055 14.7599 22.4737C14.7716 22.4326 14.7833 22.3916 14.798 22.3506C14.8537 22.1807 14.9152 22.002 14.9796 21.8203C15.0001 21.7676 15.0207 21.7119 15.0412 21.6563C15.0939 21.5186 15.1496 21.375 15.2082 21.2315C15.2287 21.1846 15.2462 21.1377 15.2667 21.0879C15.4396 20.6807 15.6447 20.2559 15.8849 19.8311C15.8878 19.8281 15.8878 19.8252 15.8908 19.8223C16.0109 19.6143 16.1369 19.4063 16.2746 19.2012C16.2892 19.1807 16.3009 19.1602 16.3156 19.1426C16.5968 18.7266 16.9191 18.3223 17.2794 17.9531C17.3087 17.9239 17.338 17.8975 17.3673 17.8682C17.5138 17.7217 17.6691 17.584 17.8302 17.4522C17.88 17.4112 17.9269 17.3731 17.9767 17.3321C18.1759 17.1768 18.3781 17.0303 18.5978 16.9014C21.4308 15.2051 25.3126 16.0313 26.7599 16.4326C26.4494 17.8887 25.3859 21.668 22.5617 23.3614Z" fill="black"/>
</svg>
