<svg width="30" height="29" viewBox="0 0 30 29" fill="none" xmlns="http://www.w3.org/2000/svg">
<path d="M15.5068 15.3071L10.0722 13.5994C9.23141 13.336 8.49899 12.7979 8.00973 12.0842C7.52047 11.3706 7.29196 10.5096 7.36813 9.66003C7.46188 8.60651 7.98336 7.66345 8.83883 7.00641C9.6943 6.34938 10.7607 6.06901 11.8447 6.21628L12.1289 6.25593C13.0664 6.3862 13.9248 6.83649 14.5459 7.52751C15.167 8.21852 15.5097 9.10495 15.5097 10.0197V15.3071H15.5068ZM11.2763 7.31227C10.6552 7.31227 10.0605 7.51335 9.56539 7.89284C8.96481 8.35446 8.5986 9.01716 8.53414 9.75632C8.42575 10.9996 9.20504 12.1381 10.4326 12.5232L14.3349 13.7495V10.0225C14.3349 8.7028 13.3154 7.56433 11.9619 7.37741L11.6777 7.33776C11.5429 7.32077 11.4111 7.31227 11.2763 7.31227Z" fill="#1A1A1A"/>
<path d="M9.35454 20.2689C8.83013 20.2689 8.30865 20.1697 7.82232 19.9715C6.8145 19.5608 6.04986 18.7905 5.66607 17.7993C5.28228 16.8081 5.33794 15.7404 5.81841 14.7917L5.94439 14.5425C6.3604 13.7212 7.07232 13.0698 7.94243 12.713C8.81548 12.3562 9.79107 12.3165 10.6934 12.5969L15.8936 14.231L12.5333 18.6999C12.0147 19.3909 11.2588 19.8979 10.4063 20.1273C10.0635 20.2207 9.70904 20.2689 9.35454 20.2689ZM9.48638 13.5456C8.45513 13.5456 7.46783 14.1064 6.99615 15.0381L6.87017 15.2873C6.53325 15.9528 6.49517 16.7033 6.7647 17.3972C7.03423 18.091 7.57036 18.6348 8.27935 18.9208C9.4688 19.4051 10.8282 19.0398 11.587 18.0287L13.9981 14.82L10.3331 13.6674C10.0547 13.5881 9.76763 13.5456 9.48638 13.5456Z" fill="#1A1A1A"/>
<path d="M15.1172 24.0751C14.0918 24.0751 13.128 23.6984 12.3838 23.0018L12.1758 22.8063C11.4961 22.1691 11.0772 21.3167 10.9952 20.4048C10.9131 19.4929 11.1739 18.581 11.7305 17.8418L14.9444 13.5654L18.3047 18.0344C18.8233 18.7254 19.0899 19.5778 19.0518 20.4303C19.0137 21.2855 18.6739 22.1097 18.0967 22.7582C17.3819 23.5568 16.3858 24.0241 15.293 24.0694C15.2344 24.0723 15.1758 24.0751 15.1172 24.0751ZM14.9444 15.4912L12.6797 18.5045C11.877 19.5722 12.0118 21.0731 12.9932 21.9907L13.2012 22.1861C13.752 22.7016 14.4786 22.9678 15.2461 22.9366C16.0137 22.9055 16.711 22.577 17.2149 22.0162C18.0586 21.0731 18.1202 19.7081 17.3614 18.6999L14.9444 15.4912Z" fill="#1A1A1A"/>
<path d="M20.3936 20.0734C20.0977 20.0734 19.7988 20.0423 19.5059 19.9743C18.583 19.7676 17.7686 19.2465 17.2119 18.5045L13.998 14.2281L19.4326 12.5204C20.2734 12.257 21.1934 12.274 22.0225 12.5742C22.8516 12.8716 23.5605 13.4408 24.0176 14.1715C24.583 15.0749 24.7324 16.1341 24.4424 17.1536C24.1494 18.1731 23.458 19.0058 22.4912 19.4985L22.2363 19.6288C21.665 19.9262 21.0322 20.0734 20.3936 20.0734ZM15.8936 14.8257L18.1582 17.8418C18.9609 18.9095 20.4785 19.2493 21.6855 18.6319L21.9404 18.5017C22.6201 18.1533 23.1064 17.5699 23.3115 16.8534C23.5166 16.1369 23.4111 15.3949 23.0127 14.7606C22.3447 13.6929 21.0205 13.2171 19.793 13.6022L15.8936 14.8257Z" fill="#1A1A1A"/>
<path d="M14.3584 15.3071V9.78465C14.3584 8.92938 14.6602 8.0911 15.2109 7.41991C15.7617 6.75155 16.5381 6.27577 17.3994 6.08036C18.4629 5.83963 19.5527 6.02938 20.4639 6.61278C21.375 7.19618 21.9814 8.0911 22.1689 9.13045L22.2188 9.40516C22.3828 10.3086 22.2012 11.2347 21.7119 12.0191C21.2227 12.8036 20.458 13.3927 19.5586 13.673L14.3584 15.3071ZM18.3018 7.11122C18.0908 7.11122 17.877 7.13387 17.666 7.18202C16.4092 7.46522 15.5303 8.53573 15.5303 9.78182V13.7467L19.1953 12.594C20.4961 12.189 21.2988 10.9005 21.0645 9.60057L21.0146 9.32586C20.8828 8.5952 20.458 7.96649 19.8164 7.55868C19.3594 7.26131 18.8379 7.11122 18.3018 7.11122Z" fill="#1A1A1A"/>
<path d="M14.6836 7.93538L13.5176 7.82493C13.5938 7.0801 13.7051 6.44573 13.8486 5.98977C13.9307 5.72639 14.1797 4.92493 14.8565 4.92493C15.5332 4.92493 15.7822 5.72639 15.8643 5.98977C16.0049 6.44573 16.1192 7.0801 16.1953 7.82493L15.0293 7.93538C14.9795 7.44827 14.9209 7.06594 14.8594 6.77424C14.792 7.06594 14.7334 7.44827 14.6836 7.93538ZM7.89259 13.7467C7.18361 13.4465 6.59474 13.1463 6.19044 12.8773C5.95607 12.7215 5.24415 12.2457 5.45216 11.6227C5.66017 10.9996 6.52736 11.0195 6.81154 11.0251C7.30372 11.0364 7.9629 11.1271 8.71876 11.2885L8.46681 12.3958C7.97169 12.291 7.57911 12.2287 7.2715 12.1948C7.54103 12.342 7.89552 12.5148 8.36134 12.7102L7.89259 13.7467ZM9.58595 22.4779C9.43361 22.4779 9.27833 22.4382 9.13478 22.3363C8.58693 21.9511 8.87404 21.161 8.96779 20.9004C9.13185 20.453 9.42482 19.8752 9.8174 19.2295L10.8281 19.8044C10.5703 20.2264 10.3887 20.5691 10.2598 20.8409C10.4883 20.6399 10.7666 20.3652 11.1035 19.997L11.9795 20.7475C11.4668 21.3082 10.9893 21.7557 10.5967 22.0446C10.4326 22.1692 10.0137 22.4779 9.58595 22.4779ZM20.3613 22.4014C19.9336 22.4014 19.5176 22.0927 19.3506 21.9709C18.961 21.6821 18.4834 21.2346 17.9678 20.6739L18.8438 19.9234C19.1807 20.2915 19.4619 20.5634 19.6875 20.7645C19.5586 20.4926 19.377 20.1499 19.1192 19.728L20.1299 19.1531C20.5225 19.7988 20.8154 20.3765 20.9795 20.824C21.0733 21.0845 21.3604 21.8746 20.8125 22.2598C20.669 22.3617 20.5137 22.4014 20.3613 22.4014ZM21.9082 13.6249L21.4395 12.5856C21.9053 12.3902 22.2598 12.2174 22.5293 12.0701C22.2217 12.1041 21.8291 12.1664 21.334 12.2712L21.082 11.1639C21.8379 11.0025 22.4971 10.9118 22.9893 10.9005C23.2735 10.8948 24.1406 10.875 24.3486 11.4981C24.5567 12.1211 23.8447 12.5969 23.6104 12.7527C23.2061 13.0274 22.6172 13.3276 21.9082 13.6249Z" fill="#1A1A1A"/>
</svg>

