<svg width="20" height="20" viewBox="0 0 20 20" fill="none" xmlns="http://www.w3.org/2000/svg">
<g clip-path="url(#clip0_658_3940)">
<path d="M10.0554 18.9246C9.74838 19.2624 9.37425 19.5325 8.95692 19.7176C8.53959 19.9028 8.08824 19.999 7.63166 20C7.19559 19.9997 6.76384 19.9136 6.36106 19.7466C5.95828 19.5796 5.59236 19.3349 5.28419 19.0265C4.97601 18.7181 4.73163 18.352 4.56498 17.9492C4.39833 17.5464 4.31268 17.1147 4.31293 16.6788C4.31697 16.3013 4.38376 15.9272 4.51056 15.5717C4.13327 15.7243 3.7299 15.8022 3.3229 15.8009C2.65681 15.8023 2.0058 15.6027 1.455 15.2283C0.904205 14.8539 0.479262 14.322 0.23574 13.7022C-0.00778291 13.0825 -0.0585506 12.4037 0.0900753 11.7546C0.238701 11.1056 0.579803 10.5164 1.06878 10.0643C0.57597 9.61223 0.231488 9.02173 0.0805871 8.37036C-0.0703138 7.719 -0.0205747 7.03723 0.22327 6.41464C0.467114 5.79205 0.893657 5.25776 1.44686 4.88196C2.00006 4.50616 2.65405 4.30642 3.3229 4.309C3.6989 4.31265 4.07131 4.38269 4.42293 4.51588C4.2743 4.13495 4.19658 3.73008 4.1936 3.32121C4.19274 2.65394 4.39376 2.00201 4.77027 1.45101C5.14678 0.900014 5.68117 0.475711 6.30328 0.233813C6.92539 -0.00808525 7.60614 -0.0562704 8.25615 0.0955842C8.90615 0.247439 9.49502 0.592234 9.94544 1.0847C10.3956 0.59193 10.9844 0.246851 11.6343 0.0948226C12.2843 -0.0572054 12.9652 -0.00906583 13.5873 0.232913C14.2094 0.474892 14.7437 0.899384 15.12 1.45059C15.4962 2.00179 15.6968 2.65391 15.6954 3.32121C15.6889 3.69904 15.6196 4.07316 15.4903 4.42828C15.992 4.23112 16.5343 4.15973 17.0699 4.22033C17.6055 4.28093 18.1181 4.47169 18.563 4.77595C19.0079 5.0802 19.3715 5.4887 19.622 5.96577C19.8726 6.44284 20.0025 6.97398 20.0004 7.5128C20.0006 7.9687 19.9056 8.41962 19.7217 8.83679C19.5378 9.25396 19.2688 9.62822 18.9321 9.93569C19.4247 10.387 19.7693 10.9768 19.9206 11.6274C20.0719 12.2781 20.0228 12.9592 19.7798 13.5815C19.5369 14.2038 19.1113 14.7381 18.5591 15.1142C18.0068 15.4903 17.3537 15.6907 16.6854 15.6891C16.307 15.6869 15.932 15.6175 15.578 15.4841C15.7266 15.865 15.8043 16.2699 15.8073 16.6788C15.81 17.3468 15.6104 18.0001 15.2346 18.5525C14.8588 19.105 14.3245 19.5308 13.702 19.7738C13.0795 20.0169 12.3979 20.0659 11.747 19.9143C11.0961 19.7627 10.5064 19.4177 10.0554 18.9246Z" fill="#00A39B"/>
<path d="M0.897461 12.4872C0.897407 12.154 0.966852 11.8244 1.10136 11.5196C1.23587 11.2147 1.43249 10.9412 1.67867 10.7166L2.38343 10.0643L1.67867 9.40636C1.32139 9.07576 1.07199 8.64526 0.962957 8.17095C0.853921 7.69665 0.890303 7.20051 1.06736 6.74716C1.24442 6.29382 1.55395 5.90428 1.95564 5.62929C2.35732 5.3543 2.83254 5.20661 3.31939 5.20544C3.59049 5.20908 3.85878 5.26083 4.11178 5.35827L5.96691 6.03109L5.26401 4.19529C5.15486 3.91662 5.09737 3.62043 5.09435 3.32118C5.09435 2.67859 5.34971 2.06232 5.80426 1.60794C6.25881 1.15356 6.87531 0.898296 7.51814 0.898296C7.85099 0.898379 8.18018 0.967682 8.48479 1.1018C8.7894 1.23592 9.06276 1.43192 9.2875 1.67735L9.94566 2.38558L10.6019 1.67735C10.8262 1.43018 11.0995 1.23242 11.4045 1.09669C11.7095 0.96095 12.0394 0.890211 12.3732 0.888977C13.016 0.888977 13.6325 1.14424 14.0871 1.59862C14.5416 2.053 14.797 2.66927 14.797 3.31186C14.79 3.59133 14.737 3.86774 14.6404 4.13005L14.0214 5.95281L15.8131 5.26508C16.1788 5.11979 16.5747 5.06652 16.9658 5.10994C17.357 5.15335 17.7315 5.29213 18.0565 5.51409C18.3814 5.73604 18.6469 6.03437 18.8295 6.38287C19.0121 6.73137 19.1063 7.11937 19.1039 7.51278C19.1056 7.84534 19.0373 8.17453 18.9033 8.47895C18.7694 8.78336 18.5728 9.05617 18.3264 9.27962L17.6086 9.93567L18.3226 10.5973C18.5688 10.8219 18.7654 11.0954 18.9 11.4003C19.0345 11.7051 19.1039 12.0347 19.1039 12.3679C19.1039 13.0105 18.8485 13.6267 18.3939 14.0811C17.9394 14.5355 17.3229 14.7908 16.6801 14.7908C16.406 14.7884 16.1345 14.7373 15.8784 14.6398L14.04 13.9782L14.7392 15.8121C14.8495 16.0911 14.9076 16.388 14.9107 16.6881C14.9134 17.1758 14.768 17.653 14.4938 18.0564C14.2196 18.4599 13.8294 18.7708 13.3748 18.948C12.9202 19.1253 12.4225 19.1606 11.9475 19.0493C11.4724 18.9379 11.0422 18.6852 10.7138 18.3244L10.0501 17.6013L9.39378 18.3189C9.17069 18.5662 8.89804 18.764 8.59353 18.8991C8.28902 19.0343 7.95946 19.1039 7.62628 19.1035C6.98345 19.1035 6.36695 18.8482 5.9124 18.3939C5.45785 17.9395 5.20249 17.3232 5.20249 16.6806C5.20663 16.4015 5.25703 16.125 5.35164 15.8624L5.99674 13.9782L4.16771 14.7423C3.89976 14.8519 3.61263 14.9071 3.32312 14.9044C2.68093 14.9049 2.0648 14.6507 1.61001 14.1974C1.15522 13.7442 0.898943 13.1291 0.897461 12.4872Z" fill="white"/>
<path d="M3.35637 11.8143C3.35605 11.5714 3.40646 11.331 3.50438 11.1086C3.6023 10.8862 3.74557 10.6866 3.92503 10.5228L4.43962 10.0475L3.92876 9.56665C3.66602 9.3264 3.48219 9.01228 3.40143 8.6656C3.32067 8.31893 3.34677 7.95595 3.4763 7.62438C3.60583 7.29282 3.83271 7.00821 4.12712 6.80799C4.42152 6.60777 4.76966 6.50132 5.12574 6.50263C5.32349 6.50556 5.51916 6.54342 5.70372 6.61445L7.05172 7.10462L6.53899 5.76644C6.45886 5.5627 6.41653 5.34608 6.41408 5.12717C6.41383 4.89434 6.45953 4.66375 6.54855 4.4486C6.63756 4.23345 6.76816 4.03796 6.93286 3.87332C7.09755 3.70869 7.29311 3.57814 7.50835 3.48916C7.72358 3.40017 7.95426 3.35449 8.18717 3.35474C8.4308 3.35536 8.67161 3.40692 8.89413 3.5061C9.11665 3.60528 9.31595 3.74989 9.47924 3.93064L9.96027 4.4469L10.4413 3.93437C10.6043 3.75344 10.8032 3.60846 11.0253 3.50866C11.2474 3.40886 11.488 3.35644 11.7315 3.35474C12.2006 3.35523 12.6504 3.54173 12.9821 3.87332C13.3138 4.20491 13.5004 4.65451 13.5009 5.12344C13.4957 5.32789 13.4566 5.53005 13.3853 5.72171L12.9341 7.04498L14.2392 6.54363C14.442 6.46247 14.6583 6.42011 14.8768 6.41876C15.3445 6.41925 15.7928 6.60517 16.1235 6.93571C16.4541 7.26625 16.6401 7.71442 16.6406 8.18187C16.6429 8.42373 16.5942 8.66337 16.4979 8.88523C16.4015 9.10709 16.2596 9.30623 16.0813 9.46973L15.5499 9.95431L16.0701 10.437C16.2499 10.6011 16.3936 10.8009 16.4918 11.0236C16.59 11.2463 16.6407 11.4871 16.6406 11.7305C16.6406 12.1984 16.4549 12.6473 16.1242 12.9785C15.7936 13.3097 15.345 13.4963 14.8768 13.4973C14.6773 13.4956 14.4797 13.4584 14.2933 13.3874L12.9471 12.8972L13.458 14.2354C13.5374 14.4386 13.5791 14.6546 13.581 14.8728C13.5827 15.2285 13.4765 15.5763 13.2764 15.8704C13.0763 16.1646 12.7917 16.3912 12.4602 16.5203C12.1286 16.6495 11.7657 16.6752 11.4193 16.594C11.0729 16.5128 10.7592 16.3286 10.5196 16.0656L10.0367 15.5456L9.55755 16.0674C9.3951 16.2481 9.19644 16.3926 8.97448 16.4915C8.75252 16.5904 8.51222 16.6415 8.26921 16.6415C7.80059 16.64 7.3517 16.4527 7.02103 16.1208C6.69037 15.7889 6.50494 15.3394 6.50543 14.8709C6.50868 14.6675 6.54521 14.4661 6.61357 14.2745L7.08528 12.9065L5.75033 13.4656C5.55503 13.5451 5.3459 13.585 5.13506 13.583C4.90192 13.5843 4.67084 13.5394 4.45509 13.4511C4.23934 13.3628 4.04319 13.2327 3.8779 13.0683C3.71261 12.9039 3.58144 12.7086 3.49194 12.4934C3.40244 12.2782 3.35637 12.0474 3.35637 11.8143Z" fill="#00A39B"/>
<path d="M11.5883 11.928C11.5867 11.8033 11.5774 11.6788 11.5603 11.5553C11.684 11.5717 11.8085 11.5804 11.9332 11.5814C13.1489 11.5814 14.1352 10.8713 14.1352 9.99533C14.1352 9.11936 13.1489 8.41113 11.9332 8.41113C11.8085 8.41214 11.684 8.42086 11.5603 8.43723C11.5774 8.31367 11.5867 8.18918 11.5883 8.06447C11.5883 6.84744 10.878 5.86151 10.0017 5.86151C9.12537 5.86151 8.41501 6.84744 8.41501 8.06447C8.41662 8.18918 8.42596 8.31367 8.44298 8.43723C8.31933 8.42086 8.1948 8.41214 8.07008 8.41113C6.85446 8.41113 5.86816 9.12123 5.86816 9.99533C5.86816 10.8694 6.85446 11.5814 8.07008 11.5814C8.1948 11.5804 8.31933 11.5717 8.44298 11.5553C8.42596 11.6788 8.41662 11.8033 8.41501 11.928C8.41501 13.1451 9.12537 14.131 10.0017 14.131C10.878 14.131 11.5883 13.1469 11.5883 11.928Z" fill="#00A39B" stroke="white" stroke-width="0.75" stroke-linecap="round" stroke-linejoin="round"/>
<path d="M10.0554 18.9246C9.74838 19.2624 9.37425 19.5325 8.95692 19.7176C8.53959 19.9028 8.08824 19.999 7.63166 20C7.19559 19.9997 6.76384 19.9136 6.36106 19.7466C5.95828 19.5796 5.59236 19.3349 5.28419 19.0265C4.97601 18.7181 4.73163 18.352 4.56498 17.9492C4.39833 17.5464 4.31268 17.1147 4.31293 16.6788C4.31697 16.3013 4.38376 15.9272 4.51056 15.5717C4.13327 15.7243 3.7299 15.8022 3.3229 15.8009C2.65681 15.8023 2.0058 15.6027 1.455 15.2283C0.904205 14.8539 0.479262 14.322 0.23574 13.7022C-0.00778291 13.0825 -0.0585506 12.4037 0.0900753 11.7546C0.238701 11.1056 0.579803 10.5164 1.06878 10.0643C0.57597 9.61223 0.231488 9.02173 0.0805871 8.37036C-0.0703138 7.719 -0.0205747 7.03723 0.22327 6.41464C0.467114 5.79205 0.893657 5.25776 1.44686 4.88196C2.00006 4.50616 2.65405 4.30642 3.3229 4.309C3.6989 4.31265 4.07131 4.38269 4.42293 4.51588C4.2743 4.13495 4.19658 3.73008 4.1936 3.32121C4.19274 2.65394 4.39376 2.00201 4.77027 1.45101C5.14678 0.900014 5.68117 0.475711 6.30328 0.233813C6.92539 -0.00808525 7.60614 -0.0562704 8.25615 0.0955842C8.90615 0.247439 9.49502 0.592234 9.94544 1.0847C10.3956 0.59193 10.9844 0.246851 11.6343 0.0948226C12.2843 -0.0572054 12.9652 -0.00906583 13.5873 0.232913C14.2094 0.474892 14.7437 0.899384 15.12 1.45059C15.4962 2.00179 15.6968 2.65391 15.6954 3.32121C15.6889 3.69904 15.6196 4.07316 15.4903 4.42828C15.992 4.23112 16.5343 4.15973 17.0699 4.22033C17.6055 4.28093 18.1181 4.47169 18.563 4.77595C19.0079 5.0802 19.3715 5.4887 19.622 5.96577C19.8726 6.44284 20.0025 6.97398 20.0004 7.5128C20.0006 7.9687 19.9056 8.41962 19.7217 8.83679C19.5378 9.25396 19.2688 9.62822 18.9321 9.93569C19.4247 10.387 19.7693 10.9768 19.9206 11.6274C20.0719 12.2781 20.0228 12.9592 19.7798 13.5815C19.5369 14.2038 19.1113 14.7381 18.5591 15.1142C18.0068 15.4903 17.3537 15.6907 16.6854 15.6891C16.307 15.6869 15.932 15.6175 15.578 15.4841C15.7266 15.865 15.8043 16.2699 15.8073 16.6788C15.81 17.3468 15.6104 18.0001 15.2346 18.5525C14.8588 19.105 14.3245 19.5308 13.702 19.7738C13.0795 20.0169 12.3979 20.0659 11.747 19.9143C11.0961 19.7627 10.5064 19.4177 10.0554 18.9246Z" fill="#00A39B"/>
<path d="M0.897461 12.4872C0.897407 12.154 0.966852 11.8244 1.10136 11.5196C1.23587 11.2147 1.43249 10.9412 1.67867 10.7166L2.38343 10.0643L1.67867 9.40636C1.32139 9.07576 1.07199 8.64526 0.962957 8.17095C0.853921 7.69665 0.890303 7.20051 1.06736 6.74716C1.24442 6.29382 1.55395 5.90428 1.95564 5.62929C2.35732 5.3543 2.83254 5.20661 3.31939 5.20544C3.59049 5.20908 3.85878 5.26083 4.11178 5.35827L5.96691 6.03109L5.26401 4.19529C5.15486 3.91662 5.09737 3.62043 5.09435 3.32118C5.09435 2.67859 5.34971 2.06232 5.80426 1.60794C6.25881 1.15356 6.87531 0.898296 7.51814 0.898296C7.85099 0.898379 8.18018 0.967682 8.48479 1.1018C8.7894 1.23592 9.06276 1.43192 9.2875 1.67735L9.94566 2.38558L10.6019 1.67735C10.8262 1.43018 11.0995 1.23242 11.4045 1.09669C11.7095 0.96095 12.0394 0.890211 12.3732 0.888977C13.016 0.888977 13.6325 1.14424 14.0871 1.59862C14.5416 2.053 14.797 2.66927 14.797 3.31186C14.79 3.59133 14.737 3.86774 14.6404 4.13005L14.0214 5.95281L15.8131 5.26508C16.1788 5.11979 16.5747 5.06652 16.9658 5.10994C17.357 5.15335 17.7315 5.29213 18.0565 5.51409C18.3814 5.73604 18.6469 6.03437 18.8295 6.38287C19.0121 6.73137 19.1063 7.11937 19.1039 7.51278C19.1056 7.84534 19.0373 8.17453 18.9033 8.47895C18.7694 8.78336 18.5728 9.05617 18.3264 9.27962L17.6086 9.93567L18.3226 10.5973C18.5688 10.8219 18.7654 11.0954 18.9 11.4003C19.0345 11.7051 19.1039 12.0347 19.1039 12.3679C19.1039 13.0105 18.8485 13.6267 18.3939 14.0811C17.9394 14.5355 17.3229 14.7908 16.6801 14.7908C16.406 14.7884 16.1345 14.7373 15.8784 14.6398L14.04 13.9782L14.7392 15.8121C14.8495 16.0911 14.9076 16.388 14.9107 16.6881C14.9134 17.1758 14.768 17.653 14.4938 18.0564C14.2196 18.4599 13.8294 18.7708 13.3748 18.948C12.9202 19.1253 12.4225 19.1606 11.9475 19.0493C11.4724 18.9379 11.0422 18.6852 10.7138 18.3244L10.0501 17.6013L9.39378 18.3189C9.17069 18.5662 8.89804 18.764 8.59353 18.8991C8.28902 19.0343 7.95946 19.1039 7.62628 19.1035C6.98345 19.1035 6.36695 18.8482 5.9124 18.3939C5.45785 17.9395 5.20249 17.3232 5.20249 16.6806C5.20663 16.4015 5.25703 16.125 5.35164 15.8624L5.99674 13.9782L4.16771 14.7423C3.89976 14.8519 3.61263 14.9071 3.32312 14.9044C2.68093 14.9049 2.0648 14.6507 1.61001 14.1974C1.15522 13.7442 0.898943 13.1291 0.897461 12.4872Z" fill="white"/>
<path d="M3.35637 11.8143C3.35605 11.5714 3.40646 11.331 3.50438 11.1086C3.6023 10.8862 3.74557 10.6866 3.92503 10.5228L4.43962 10.0475L3.92876 9.56665C3.66602 9.3264 3.48219 9.01228 3.40143 8.6656C3.32067 8.31893 3.34677 7.95595 3.4763 7.62438C3.60583 7.29282 3.83271 7.00821 4.12712 6.80799C4.42152 6.60777 4.76966 6.50132 5.12574 6.50263C5.32349 6.50556 5.51916 6.54342 5.70372 6.61445L7.05172 7.10462L6.53899 5.76644C6.45886 5.5627 6.41653 5.34608 6.41408 5.12717C6.41383 4.89434 6.45953 4.66375 6.54855 4.4486C6.63756 4.23345 6.76816 4.03796 6.93286 3.87332C7.09755 3.70869 7.29311 3.57814 7.50835 3.48916C7.72358 3.40017 7.95426 3.35449 8.18717 3.35474C8.4308 3.35536 8.67161 3.40692 8.89413 3.5061C9.11665 3.60528 9.31595 3.74989 9.47924 3.93064L9.96027 4.4469L10.4413 3.93437C10.6043 3.75344 10.8032 3.60846 11.0253 3.50866C11.2474 3.40886 11.488 3.35644 11.7315 3.35474C12.2006 3.35523 12.6504 3.54173 12.9821 3.87332C13.3138 4.20491 13.5004 4.65451 13.5009 5.12344C13.4957 5.32789 13.4566 5.53005 13.3853 5.72171L12.9341 7.04498L14.2392 6.54363C14.442 6.46247 14.6583 6.42011 14.8768 6.41876C15.3445 6.41925 15.7928 6.60517 16.1235 6.93571C16.4541 7.26625 16.6401 7.71442 16.6406 8.18187C16.6429 8.42373 16.5942 8.66337 16.4979 8.88523C16.4015 9.10709 16.2596 9.30623 16.0813 9.46973L15.5499 9.95431L16.0701 10.437C16.2499 10.6011 16.3936 10.8009 16.4918 11.0236C16.59 11.2463 16.6407 11.4871 16.6406 11.7305C16.6406 12.1984 16.4549 12.6473 16.1242 12.9785C15.7936 13.3097 15.345 13.4963 14.8768 13.4973C14.6773 13.4956 14.4797 13.4584 14.2933 13.3874L12.9471 12.8972L13.458 14.2354C13.5374 14.4386 13.5791 14.6546 13.581 14.8728C13.5827 15.2285 13.4765 15.5763 13.2764 15.8704C13.0763 16.1646 12.7917 16.3912 12.4602 16.5203C12.1286 16.6495 11.7657 16.6752 11.4193 16.594C11.0729 16.5128 10.7592 16.3286 10.5196 16.0656L10.0367 15.5456L9.55755 16.0674C9.3951 16.2481 9.19644 16.3926 8.97448 16.4915C8.75252 16.5904 8.51222 16.6415 8.26921 16.6415C7.80059 16.64 7.3517 16.4527 7.02103 16.1208C6.69037 15.7889 6.50494 15.3394 6.50543 14.8709C6.50868 14.6675 6.54521 14.4661 6.61357 14.2745L7.08528 12.9065L5.75033 13.4656C5.55503 13.5451 5.3459 13.585 5.13506 13.583C4.90192 13.5843 4.67084 13.5394 4.45509 13.4511C4.23934 13.3628 4.04319 13.2327 3.8779 13.0683C3.71261 12.9039 3.58144 12.7086 3.49194 12.4934C3.40244 12.2782 3.35637 12.0474 3.35637 11.8143Z" fill="#00A39B"/>
<path d="M11.5883 11.928C11.5867 11.8033 11.5774 11.6788 11.5603 11.5553C11.684 11.5717 11.8085 11.5804 11.9332 11.5814C13.1489 11.5814 14.1352 10.8713 14.1352 9.99533C14.1352 9.11936 13.1489 8.41113 11.9332 8.41113C11.8085 8.41214 11.684 8.42086 11.5603 8.43723C11.5774 8.31367 11.5867 8.18918 11.5883 8.06447C11.5883 6.84744 10.878 5.86151 10.0017 5.86151C9.12537 5.86151 8.41501 6.84744 8.41501 8.06447C8.41662 8.18918 8.42596 8.31367 8.44298 8.43723C8.31933 8.42086 8.1948 8.41214 8.07008 8.41113C6.85446 8.41113 5.86816 9.12123 5.86816 9.99533C5.86816 10.8694 6.85446 11.5814 8.07008 11.5814C8.1948 11.5804 8.31933 11.5717 8.44298 11.5553C8.42596 11.6788 8.41662 11.8033 8.41501 11.928C8.41501 13.1451 9.12537 14.131 10.0017 14.131C10.878 14.131 11.5883 13.1469 11.5883 11.928Z" fill="#00A39B" stroke="white" stroke-width="0.75" stroke-linecap="round" stroke-linejoin="round"/>
</g>
<defs>
<clipPath id="clip0_658_3940">
<rect width="20" height="20" fill="white"/>
</clipPath>
</defs>
</svg>
