<svg width="36" height="35" viewBox="0 0 36 35" fill="none" xmlns="http://www.w3.org/2000/svg">
<path d="M17.5163 32.6659C16.9787 33.2573 16.4193 34.1806 15.6887 34.5047C14.9581 34.8289 14.1679 34.9972 13.3686 34.999C12.6052 34.9986 11.8494 34.8479 11.1443 34.5554C10.4391 34.263 9.79853 33.8346 9.25903 33.2947C8.71953 32.7548 8.2917 32.114 7.99995 31.4088C7.70821 30.7036 7.57405 30.1151 7.57447 29.352C7.57447 28.4051 8.29933 27.1339 8.52131 26.5115C7.86081 26.7786 6.53804 27.6501 5.82552 27.648C4.65943 27.6504 3.51974 27.301 2.5555 26.6455C1.59126 25.99 0.847334 25.0589 0.421013 23.9739C-0.00530763 22.8889 -0.0941837 21.7006 0.166007 20.5644C0.426198 19.4281 1.68524 18.4539 2.54125 17.6623C1.67853 16.8709 0.41357 15.78 0.149397 14.6397C-0.114777 13.4994 -0.0277015 12.3059 0.399182 11.216C0.826066 10.126 1.57279 9.19067 2.54125 8.53278C3.50971 7.87489 4.65461 7.52523 5.82552 7.52974C6.48377 7.53613 7.74378 8.29961 8.35935 8.53278C8.09914 7.86592 7.35501 6.51625 7.34981 5.80047C7.3483 4.63232 7.70022 3.49102 8.35935 2.52642C9.01848 1.56183 9.95401 0.819023 11.0431 0.395546C12.1322 -0.0279308 13.3239 -0.112286 14.4619 0.153557C15.5998 0.4194 16.7277 1.50497 17.5163 2.3671C18.3043 1.50444 19.238 0.41837 20.3759 0.152224C21.5138 -0.113923 22.7056 -0.0296474 23.7947 0.393971C24.8839 0.817589 25.8192 1.56072 26.4779 2.52568C27.1367 3.49064 27.4878 4.63226 27.4854 5.80047C27.4739 6.46192 26.7042 7.91109 26.4779 8.53278C27.3562 8.18763 28.9539 7.26842 29.8916 7.37451C30.8292 7.4806 31.7266 7.81455 32.5055 8.34719C33.2843 8.87983 33.9208 9.59496 34.3595 10.4301C34.7981 11.2653 35.0255 12.1952 35.0219 13.1384C35.0222 13.9366 34.856 14.726 34.5339 15.4563C34.2119 16.1866 33.2552 16.9782 32.6657 17.5165C33.5281 18.3067 34.6173 19.2026 34.8822 20.3416C35.147 21.4807 35.0611 22.6732 34.6357 23.7626C34.2103 24.852 33.4653 25.7873 32.4986 26.4458C31.5318 27.1042 30.3884 27.4551 29.2185 27.4522C28.5561 27.4484 27.1311 26.745 26.5112 26.5115C26.7714 27.1783 27.2349 28.099 27.4581 29.352C27.4629 30.5215 27.3365 31.4979 26.6786 32.465C26.0207 33.4322 25.0854 34.1776 23.9955 34.6031C22.9057 35.0286 21.7126 35.1143 20.5731 34.849C19.4337 34.5836 18.3057 33.5291 17.5163 32.6659Z" fill="black"/>
<path d="M0.886719 22.004C0.886621 21.3967 1.01332 20.796 1.25873 20.2404C1.50414 19.6847 1.86287 19.1862 2.31201 18.7768L3.59784 17.5878L2.31201 16.3886C1.66017 15.786 1.20515 15.0013 1.00621 14.1368C0.807281 13.2722 0.873659 12.3679 1.1967 11.5416C1.51974 10.7153 2.08447 10.0052 2.81734 9.50401C3.5502 9.00278 4.41723 8.73357 5.30547 8.73146C5.80009 8.73809 6.28959 8.83241 6.75118 9.01002L10.1358 10.2364L8.85341 6.89021C8.65426 6.38229 8.54937 5.8424 8.54385 5.29696C8.54385 4.12569 9.00976 3.0024 9.83907 2.17419C10.6684 1.34598 11.7932 0.880694 12.966 0.880694C13.5733 0.880845 14.1739 1.00717 14.7296 1.25163C15.2854 1.49609 15.7841 1.85335 16.1942 2.30069L17.395 3.5916L18.5924 2.30069C19.0015 1.85017 19.5002 1.48971 20.0566 1.24231C20.613 0.994896 21.2149 0.865958 21.8239 0.863708C22.9968 0.863708 24.1216 1.32899 24.9509 2.1572C25.7802 2.98541 26.2461 4.10871 26.2461 5.27997C26.2333 5.78936 26.1368 6.29319 25.9604 6.77131L24.831 10.0937L28.1 8.84016C28.7673 8.57534 29.4895 8.47823 30.2032 8.55737C30.9168 8.63651 31.6001 8.88947 32.193 9.29403C32.7859 9.69859 33.2702 10.2424 33.6034 10.8776C33.9366 11.5128 34.1084 12.22 34.1039 12.9371C34.1071 13.5433 33.9824 14.1433 33.738 14.6982C33.4936 15.253 33.135 15.7503 32.6854 16.1576L31.3758 17.3534L32.6786 18.5593C33.1278 18.9688 33.4865 19.4673 33.7319 20.0229C33.9773 20.5786 34.104 21.1793 34.1039 21.7866C34.1039 22.9579 33.638 24.0812 32.8087 24.9094C31.9794 25.7376 30.8546 26.2029 29.6818 26.2029C29.1817 26.1985 28.6864 26.1054 28.2191 25.9277L24.865 24.7217L26.1406 28.0645C26.3419 28.5731 26.4479 29.1143 26.4536 29.6612C26.4584 30.5502 26.1932 31.4199 25.693 32.1553C25.1927 32.8908 24.4809 33.4574 23.6514 33.7805C22.822 34.1036 21.914 34.1679 21.0472 33.965C20.1805 33.762 19.3957 33.3014 18.7965 32.6438L17.5855 31.3258L16.3881 32.6336C15.9811 33.0846 15.4836 33.4449 14.928 33.6913C14.3725 33.9377 13.7712 34.0646 13.1633 34.0638C11.9905 34.0638 10.8657 33.5986 10.0364 32.7703C9.20705 31.9421 8.74115 30.8188 8.74115 29.6476C8.74871 29.1389 8.84067 28.6349 9.01328 28.1562L10.1903 24.7217L6.85323 26.1146C6.36436 26.3144 5.84049 26.4149 5.31228 26.4101C4.14063 26.411 3.0165 25.9475 2.18675 25.1214C1.35699 24.2953 0.889422 23.1741 0.886719 22.004Z" fill="white"/>
<path d="M3.09327 21.4602C3.09258 20.9326 3.20205 20.4107 3.41469 19.9277C3.62734 19.4448 3.93847 19.0116 4.32819 18.6557L5.44569 17.6237L4.33629 16.5796C3.76573 16.0579 3.3665 15.3759 3.19112 14.6231C3.01574 13.8703 3.07242 13.0822 3.35371 12.3622C3.635 11.6422 4.12771 11.0243 4.76706 10.5895C5.4064 10.1547 6.16243 9.92358 6.9357 9.92643C7.36513 9.9328 7.79006 10.015 8.19087 10.1692L11.1182 11.2336L10.0048 8.32788C9.83076 7.88549 9.73883 7.41511 9.73351 6.93978C9.73297 6.43422 9.83221 5.93351 10.0255 5.46633C10.2188 4.99915 10.5024 4.57467 10.8601 4.21718C11.2178 3.8597 11.6425 3.57623 12.1099 3.383C12.5773 3.18978 13.0782 3.0906 13.584 3.09113C14.1131 3.09249 14.6361 3.20444 15.1193 3.4198C15.6025 3.63516 16.0353 3.94916 16.3899 4.34164L17.4346 5.46264L18.4792 4.34973C18.8331 3.95687 19.265 3.64205 19.7474 3.42535C20.2298 3.20864 20.7522 3.09482 21.281 3.09113C22.2998 3.0922 23.2765 3.49717 23.9969 4.21718C24.7172 4.9372 25.1224 5.91343 25.1235 6.93168C25.1123 7.3756 25.0274 7.81459 24.8724 8.23076L23.8926 11.1041L26.7268 10.0155C27.1674 9.83923 27.6371 9.74725 28.1116 9.74431C29.1271 9.74538 30.1007 10.1491 30.8188 10.8668C31.5369 11.5845 31.9408 12.5577 31.9419 13.5727C31.9467 14.0979 31.8411 14.6182 31.6319 15.1C31.4226 15.5817 31.1144 16.0141 30.7272 16.3692L29.5732 17.4214L30.7029 18.4695C31.0935 18.8258 31.4054 19.2596 31.6187 19.7432C31.832 20.2268 31.9421 20.7496 31.9419 21.2781C31.9419 22.2942 31.5386 23.2688 30.8205 23.9881C30.1024 24.7073 29.1282 25.1125 28.1116 25.1146C27.6783 25.111 27.2491 25.0301 26.8443 24.8759L23.9209 23.8115L25.0303 26.7172C25.2028 27.1585 25.2933 27.6275 25.2976 28.1013C25.3012 28.8736 25.0706 29.629 24.636 30.2676C24.2015 30.9063 23.5835 31.3983 22.8635 31.6788C22.1435 31.9593 21.3554 32.0151 20.603 31.8388C19.8507 31.6625 19.1695 31.2624 18.6492 30.6913L17.6006 29.5622L16.56 30.6954C16.2072 31.0877 15.7758 31.4014 15.2938 31.6162C14.8118 31.8309 14.2899 31.9419 13.7622 31.9418C12.7445 31.9386 11.7697 31.532 11.0516 30.8112C10.3335 30.0905 9.93082 29.1144 9.9319 28.0972C9.93896 27.6556 10.0183 27.2182 10.1667 26.8022L11.1911 23.8317L8.29209 25.0458C7.86796 25.2183 7.41381 25.305 6.95594 25.3008C6.44965 25.3035 5.94781 25.2061 5.47929 25.0143C5.01077 24.8225 4.58479 24.54 4.22584 24.1831C3.86689 23.8262 3.58205 23.4019 3.38768 22.9346C3.19332 22.4674 3.09326 21.9663 3.09327 21.4602Z" fill="black"/>
<path d="M8.8013 15.5389C7.26151 15.4472 6.27344 16.4086 6.27344 17.592C6.27344 18.7731 7.25929 19.736 8.8013 19.6458C10.3433 19.5555 12.3402 17.592 12.3402 17.592C12.3402 17.592 10.3411 15.6306 8.8013 15.5389Z" stroke="white" stroke-width="0.53" stroke-miterlimit="10" stroke-linecap="round"/>
<path d="M19.3641 8.77823C19.4558 7.23844 18.4943 6.25037 17.311 6.25037C16.1299 6.25037 15.167 7.23622 15.2572 8.77823C15.3474 10.3202 17.311 12.3171 17.311 12.3171C17.311 12.3171 19.2724 10.318 19.3641 8.77823Z" stroke="white" stroke-width="0.53" stroke-miterlimit="10" stroke-linecap="round"/>
<path d="M15.257 25.9489C15.1653 27.4887 16.1268 28.4767 17.3101 28.4767C18.4912 28.4767 19.4541 27.4909 19.3639 25.9489C19.2737 24.4069 17.3101 22.41 17.3101 22.41C17.3101 22.41 15.3487 24.4091 15.257 25.9489Z" stroke="white" stroke-width="0.53" stroke-miterlimit="10" stroke-linecap="round"/>
<path d="M26.5594 19.6448C28.0992 19.7365 29.0872 18.7751 29.0872 17.5918C29.0872 16.4114 28.1014 15.4485 26.5594 15.5387C25.0174 15.6289 23.0205 17.5918 23.0205 17.5918C23.0205 17.5918 25.0196 19.5531 26.5594 19.6448Z" stroke="white" stroke-width="0.53" stroke-miterlimit="10" stroke-linecap="round"/>
<path d="M24.6302 17.592C25.3572 16.797 25.6279 15.6595 25.2877 14.6744C24.9771 13.7744 24.2286 13.2367 23.2864 13.2367C23.0506 13.2386 22.8159 13.2694 22.5875 13.3284C22.1894 13.4299 21.8096 13.5931 21.4619 13.8121C21.6806 13.4643 21.8438 13.0845 21.9456 12.6864C22.1904 11.7073 21.8968 11.0594 21.6083 10.6896C21.1875 10.1505 20.499 9.84131 19.7195 9.84131C18.9637 9.84638 18.2367 10.1321 17.6797 10.643C17.1231 10.132 16.3963 9.84628 15.6407 9.84131C14.8605 9.84131 14.1727 10.1505 13.7518 10.6896C13.4627 11.0594 13.1698 11.7058 13.4146 12.6864C13.5161 13.0846 13.6793 13.4644 13.8983 13.8121C13.5507 13.5934 13.1712 13.4303 12.7734 13.3284C12.5452 13.27 12.3108 13.2397 12.0752 13.2382C11.1323 13.2382 10.3838 13.7758 10.0732 14.6759C9.733 15.661 10.0044 16.7985 10.7314 17.5935C10.0044 18.3893 9.73374 19.526 10.0732 20.5111C10.3846 21.4119 11.1323 21.9496 12.0752 21.9496C12.3108 21.9481 12.5452 21.9178 12.7734 21.8594C13.1714 21.7576 13.5512 21.5944 13.899 21.3757C13.6807 21.7228 13.5181 22.1018 13.4168 22.4991C13.172 23.4776 13.4649 24.1262 13.7541 24.496C14.1749 25.0351 14.8634 25.3443 15.6429 25.3443C16.3985 25.3393 17.1253 25.0535 17.6819 24.5426C18.2391 25.0532 18.966 25.3388 19.7217 25.3443C20.5012 25.3443 21.1897 25.0351 21.6106 24.496C21.899 24.1262 22.1926 23.4798 21.9478 22.4991C21.846 22.1011 21.6828 21.7213 21.4641 21.3735C21.8112 21.5922 22.1902 21.7557 22.5875 21.8579C22.8157 21.9163 23.0502 21.9466 23.2857 21.9481C24.2286 21.9481 24.9764 21.4105 25.2877 20.5104C25.6279 19.5253 25.3572 18.3878 24.6302 17.592Z" fill="black"/>
<path d="M17.6317 16.1809C17.6317 16.1809 20.9213 14.9798 21.5218 12.5791C22.1224 10.1785 19.0724 9.50547 17.676 11.2819C16.2834 9.50694 13.2342 10.1777 13.8347 12.5791C14.4352 14.9805 17.7241 16.1809 17.7241 16.1809" fill="white"/>
<path d="M17.6415 16.1807C17.6415 16.1807 20.2803 15.2193 20.7617 13.2912C21.2432 11.3631 18.7974 10.8255 17.6799 12.2514C16.5632 10.8255 14.1167 11.3639 14.5981 13.2912C15.0796 15.2185 17.7184 16.1807 17.7184 16.1807" fill="white"/>
<path d="M17.6547 16.1808C17.6547 16.1808 19.4127 15.5389 19.7329 14.2579C20.0531 12.977 18.4246 12.6153 17.6799 13.5649C16.9358 12.6153 15.3058 12.9733 15.6268 14.2579C15.9478 15.5425 17.7057 16.1808 17.7057 16.1808" fill="black"/>
<path d="M16.2684 17.64C16.2684 17.64 15.0674 14.3503 12.6667 13.7505C10.2661 13.1507 9.59305 16.1993 11.3695 17.5919C9.59453 18.9852 10.2653 22.0345 12.6667 21.4377C15.0681 20.8408 16.2684 17.5475 16.2684 17.5475" fill="white"/>
<path d="M16.2685 17.631C16.2685 17.631 15.3071 14.9914 13.379 14.51C11.451 14.0285 10.9133 16.475 12.3392 17.5918C10.9133 18.7093 11.4517 21.1558 13.379 20.6743C15.3064 20.1929 16.2685 17.5533 16.2685 17.5533" fill="white"/>
<path d="M16.2692 17.6175C16.2692 17.6175 15.6272 15.8596 14.3463 15.5386C13.0653 15.2176 12.7037 16.8476 13.6533 17.5917C12.7037 18.3364 13.0616 19.9657 14.3463 19.6455C15.6309 19.3252 16.2692 17.5665 16.2692 17.5665" fill="black"/>
<path d="M17.7283 19.0035C17.7283 19.0035 14.4387 20.2038 13.8389 22.6052C13.2391 25.0066 16.2876 25.6789 17.6803 23.9039C19.0736 25.6789 22.1229 25.0088 21.5261 22.6074C20.9292 20.206 17.6359 19.0057 17.6359 19.0057" fill="white"/>
<path d="M17.7184 19.0035C17.7184 19.0035 15.0796 19.9649 14.5981 21.893C14.1167 23.8211 16.5632 24.358 17.6799 22.9328C18.7974 24.358 21.2439 23.8203 20.7617 21.893C20.2795 19.9657 17.6415 19.0035 17.6415 19.0035" fill="white"/>
<path d="M17.7057 19.0035C17.7057 19.0035 15.9478 19.6454 15.6268 20.9264C15.3058 22.2073 16.9358 22.5682 17.6799 21.6194C18.4246 22.5682 20.0539 22.211 19.7329 20.9264C19.4119 19.6417 17.6547 19.0035 17.6547 19.0035" fill="black"/>
<path d="M19.0913 17.5439C19.0913 17.5439 20.2916 20.8335 22.693 21.4341C25.0944 22.0346 25.7667 18.9853 23.9895 17.5883C25.7645 16.1956 25.0944 13.1464 22.693 13.7469C20.2916 14.3475 19.0913 17.6363 19.0913 17.6363" fill="white"/>
<path d="M19.0913 17.5533C19.0913 17.5533 20.0528 20.1921 21.9808 20.6736C23.9089 21.1551 24.4458 18.7093 23.0207 17.5918C24.4458 16.475 23.9082 14.0285 21.9808 14.51C20.0535 14.9914 19.0913 17.6302 19.0913 17.6302" fill="white"/>
<path d="M19.0913 17.5667C19.0913 17.5667 19.7325 19.3247 21.0142 19.6449C22.2959 19.9652 22.6561 18.3366 21.7064 17.5919C22.6561 16.8478 22.2981 15.2186 21.0142 15.5388C19.7303 15.859 19.0913 17.6177 19.0913 17.6177" fill="black"/>
<path d="M17.6794 20.5185C17.1006 20.5185 16.5348 20.3468 16.0536 20.0252C15.5723 19.7037 15.1972 19.2466 14.9757 18.7119C14.7542 18.1771 14.6962 17.5887 14.8092 17.021C14.9221 16.4533 15.2008 15.9319 15.6101 15.5226C16.0194 15.1133 16.5408 14.8346 17.1085 14.7217C17.6762 14.6088 18.2646 14.6667 18.7993 14.8882C19.3341 15.1097 19.7911 15.4848 20.1127 15.9661C20.4343 16.4473 20.6059 17.0132 20.6059 17.592C20.6051 18.3679 20.2966 19.1118 19.7479 19.6604C19.1992 20.2091 18.4553 20.5177 17.6794 20.5185Z" fill="white"/>
<path d="M17.6795 19.6449C18.8134 19.6449 19.7326 18.7257 19.7326 17.5918C19.7326 16.4579 18.8134 15.5388 17.6795 15.5388C16.5456 15.5388 15.6265 16.4579 15.6265 17.5918C15.6265 18.7257 16.5456 19.6449 17.6795 19.6449Z" fill="black"/>
</svg>
