<svg width="30" height="21" viewBox="0 0 30 21" fill="none" xmlns="http://www.w3.org/2000/svg">
<g clip-path="url(#clip0_658_947)">
<path d="M23.3069 14.2476C23.2039 15.3955 22.4831 16.3071 21.4876 16.6447C21.1787 16.746 20.8355 16.8135 20.5609 16.8135C19.9087 16.8135 19.3252 16.5772 18.9133 16.1383C19.2222 17.3199 19.1192 18.3328 18.6043 19.008C18.2611 19.4807 17.7119 19.7846 17.094 19.8521C16.6821 20.5611 15.8927 21 15.0345 21C14.1764 21 13.3869 20.5611 12.975 19.8521C12.3572 19.7846 11.808 19.4807 11.4648 19.008C10.9499 18.299 10.8469 17.2862 11.1558 16.1383C10.7439 16.5772 10.1604 16.8135 9.50823 16.8135C9.19931 16.8135 8.89038 16.746 8.58146 16.6447C7.55171 16.3071 6.86521 15.3955 6.76223 14.2476C6.62493 12.9309 7.27711 11.6817 8.44416 11.0402C9.09633 10.6688 9.78283 10.5 10.435 10.5C9.78283 10.5 9.09633 10.2974 8.44416 9.95981C7.31143 9.31833 6.62493 8.06913 6.76223 6.75241C6.86521 5.6045 7.58603 4.69293 8.58146 4.35531C8.89038 4.25402 9.23363 4.1865 9.50823 4.1865C10.1604 4.1865 10.7439 4.42283 11.1558 4.86174C10.8126 3.71383 10.9156 2.70096 11.4304 1.99196C11.7737 1.51929 12.3229 1.21543 12.9407 1.14791C13.3526 0.438907 14.1421 0 15.0002 0C15.8583 0 16.6478 0.438907 17.0597 1.14791C17.6776 1.21543 18.2268 1.51929 18.57 1.99196C19.0849 2.70096 19.1879 3.71383 18.8789 4.8955C19.2908 4.45659 19.8744 4.22026 20.5265 4.22026C20.8355 4.22026 21.1444 4.28778 21.4533 4.38907C22.4831 4.72669 23.1696 5.63826 23.2725 6.78617C23.4098 8.10289 22.7577 9.35209 21.5906 9.99357C20.9384 10.365 20.2519 10.5338 19.5998 10.5338C20.2519 10.5338 20.9384 10.7363 21.5906 11.074C22.7577 11.6817 23.4098 12.9309 23.3069 14.2476Z" fill="black"/>
<path d="M23.3069 14.2476C23.2039 15.3955 22.4831 16.3071 21.4876 16.6447C21.1787 16.746 20.8355 16.8135 20.5609 16.8135C19.9087 16.8135 19.3252 16.5772 18.9133 16.1383C19.2222 17.3199 19.1192 18.3328 18.6043 19.008C18.2611 19.4807 17.7119 19.7846 17.094 19.8521C16.6821 20.5611 15.8927 21 15.0345 21C14.1764 21 13.3869 20.5611 12.975 19.8521C12.3572 19.7846 11.808 19.4807 11.4648 19.008C10.9499 18.299 10.8469 17.2862 11.1558 16.1383C10.7439 16.5772 10.1604 16.8135 9.50823 16.8135C9.19931 16.8135 8.89038 16.746 8.58146 16.6447C7.55171 16.3071 6.86521 15.3955 6.76223 14.2476C6.62493 12.9309 7.27711 11.6817 8.44416 11.0402C9.09633 10.6688 9.78283 10.5 10.435 10.5C9.78283 10.5 9.09633 10.2974 8.44416 9.95981C7.31143 9.31833 6.62493 8.06913 6.76223 6.75241C6.86521 5.6045 7.58603 4.69293 8.58146 4.35531C8.89038 4.25402 9.23363 4.1865 9.50823 4.1865C10.1604 4.1865 10.7439 4.42283 11.1558 4.86174C10.8126 3.71383 10.9156 2.70096 11.4304 1.99196C11.7737 1.51929 12.3229 1.21543 12.9407 1.14791C13.3526 0.438907 14.1421 0 15.0002 0C15.8583 0 16.6478 0.438907 17.0597 1.14791C17.6776 1.21543 18.2268 1.51929 18.57 1.99196C19.0849 2.70096 19.1879 3.71383 18.8789 4.8955C19.2908 4.45659 19.8744 4.22026 20.5265 4.22026C20.8355 4.22026 21.1444 4.28778 21.4533 4.38907C22.4831 4.72669 23.1696 5.63826 23.2725 6.78617C23.4098 8.10289 22.7577 9.35209 21.5906 9.99357C20.9384 10.365 20.2519 10.5338 19.5998 10.5338C20.2519 10.5338 20.9384 10.7363 21.5906 11.074C22.7577 11.6817 23.4098 12.9309 23.3069 14.2476Z" fill="black"/>
<path d="M18.089 4.963C18.0547 5.09805 18.0204 5.2331 17.9861 5.33439C18.192 3.95014 17.4712 3.20738 16.4415 3.2749C16.2355 2.66718 15.6863 2.22828 14.9998 2.22828C14.3133 2.22828 13.7641 2.70095 13.5582 3.30866C12.5284 3.20738 11.8076 3.95014 12.0135 5.36815C11.9792 5.2331 11.9449 5.13181 11.9106 4.99677C11.2241 2.90352 12.0822 1.75561 13.4209 1.85689C13.6268 1.18165 14.279 0.708984 14.9998 0.708984C15.755 0.708984 16.3728 1.18165 16.5788 1.85689C17.9174 1.72185 18.7755 2.86976 18.089 4.963Z" fill="white"/>
<path d="M18.3292 9.04826C18.1575 9.0145 17.9859 8.98073 17.8143 8.87945C17.677 8.81192 17.5397 8.71064 17.4024 8.60935C17.1964 8.40678 16.9905 8.17044 16.8189 7.86659C16.201 6.85372 15.7548 5.57077 15.034 5.57077C14.2788 5.57077 13.8669 6.88749 13.2491 7.86659C13.0774 8.13668 12.8715 8.40678 12.6655 8.60935C12.5282 8.71064 12.3909 8.81192 12.2536 8.87945C12.082 8.94697 11.9104 9.0145 11.7388 9.04826C12.3566 8.54183 12.5969 7.73154 12.3223 6.31353C12.2536 6.04344 12.185 5.70581 12.082 5.36819C11.8761 3.98395 12.5969 3.24118 13.6266 3.30871C13.8326 2.70099 14.3818 2.26208 15.0683 2.26208C15.7548 2.26208 16.304 2.70099 16.5099 3.30871C17.5397 3.20742 18.2605 3.95019 18.0546 5.36819C17.9516 5.70581 17.8829 6.00967 17.8143 6.31353C17.471 7.73154 17.7113 8.54183 18.3292 9.04826Z" fill="black"/>
<path d="M21.9679 7.22507C21.9679 8.67684 20.8352 9.79098 18.5697 9.55465C18.0205 9.31831 17.5056 8.87941 17.0938 8.27169C17.9175 9.28455 19.1189 9.55465 20.1487 9.08198C21.4187 8.50802 21.6933 7.09002 20.9038 6.58359C20.08 6.07716 19.1532 6.85368 19.5651 7.59645C19.3935 7.4614 19.2219 7.22507 19.0846 6.88745C19.0503 6.44854 19.2562 5.97587 19.7368 5.70577C20.5262 5.36815 21.9679 5.67201 21.9679 7.22507Z" fill="black"/>
<path d="M21.2815 9.35207C20.3204 9.89227 19.3936 9.95979 18.5698 9.58841C20.8353 9.82474 21.968 8.71059 21.968 7.25883C21.968 5.70577 20.5263 5.36815 19.7025 5.80706C19.1877 6.07715 19.016 6.51606 19.0504 6.98873V6.95497C18.7071 6.07715 19.4966 4.49034 21.2815 5.06429C22.9977 5.60449 23.1007 8.33921 21.2815 9.35207Z" fill="white"/>
<path d="M20.1142 9.11578C19.0844 9.58845 17.8831 9.2846 17.0593 8.3055C16.9563 8.17045 16.8876 8.0354 16.7847 7.90035C17.0593 8.33926 17.3682 8.71064 17.7801 8.87945C17.9517 8.94697 18.1233 9.0145 18.295 9.04826C19.359 9.21707 20.2858 8.57559 20.2515 8.23797C20.2172 8.00164 19.8739 7.96787 19.4963 7.66402C19.0844 6.92125 20.0112 6.11096 20.835 6.65115C21.6588 7.15759 21.4185 8.54183 20.1142 9.11578Z" fill="black"/>
<path d="M8.06641 7.22507C8.06641 8.67684 9.19913 9.79098 11.4646 9.55465C12.0138 9.31831 12.5286 8.87941 12.9405 8.27169C12.1167 9.28455 10.9154 9.55465 9.88563 9.08198C8.61561 8.50802 8.34101 7.09002 9.13048 6.58359C9.95428 6.07716 10.8811 6.85368 10.4692 7.59645C10.6408 7.4614 10.8124 7.22507 10.9497 6.88745C10.984 6.44854 10.7781 5.97587 10.2975 5.70577C9.47373 5.36815 8.06641 5.67201 8.06641 7.22507Z" fill="black"/>
<path d="M8.7527 9.35207C9.7138 9.89227 10.6406 9.95979 11.4644 9.58841C9.19892 9.82474 8.0662 8.71059 8.0662 7.25883C8.0662 5.70577 9.50785 5.36815 10.3316 5.80706C10.8465 6.07715 11.0181 6.51606 10.9838 6.98873V6.95497C11.3271 6.07715 10.5376 4.49034 8.7527 5.06429C7.00213 5.60449 6.89915 8.33921 8.7527 9.35207Z" fill="white"/>
<path d="M9.88559 9.11578C10.9153 9.58845 12.1167 9.2846 12.9405 8.3055C13.0435 8.17045 13.1121 8.0354 13.2151 7.90035C12.9405 8.33926 12.6316 8.71064 12.2197 8.87945C12.0481 8.94697 11.8764 9.0145 11.7048 9.04826C10.6407 9.21707 9.71397 8.57559 9.74829 8.23797C9.78262 8.00164 10.1259 7.96787 10.5034 7.66402C10.9153 6.92125 9.98857 6.11096 9.16477 6.65115C8.34097 7.15759 8.61557 8.54183 9.88559 9.11578Z" fill="black"/>
<path d="M18.089 16.0032C18.0547 15.8682 18.0204 15.7331 17.9861 15.6318C18.192 17.0161 17.4712 17.7588 16.4415 17.6913C16.2355 18.299 15.6863 18.7379 14.9998 18.7379C14.3133 18.7379 13.7641 18.299 13.5582 17.6913C12.5284 17.7926 11.8076 17.0498 12.0135 15.6318C11.9792 15.7669 11.9449 15.8682 11.9106 16.0032C11.2241 18.0965 12.0822 19.2444 13.4209 19.1431C13.6268 19.8183 14.279 20.291 14.9998 20.291C15.755 20.291 16.3728 19.8183 16.5788 19.1431C17.9174 19.2444 18.7755 18.0965 18.089 16.0032Z" fill="white"/>
<path d="M18.3292 11.9517C18.1575 11.9855 17.9859 12.0193 17.8143 12.1205C17.677 12.1881 17.5397 12.2894 17.4024 12.3906C17.1621 12.5594 16.9905 12.8295 16.8189 13.0996C16.201 14.1125 15.7548 15.3955 15.034 15.3955C14.2788 15.3955 13.8669 14.0787 13.2491 13.0996C13.0774 12.8295 12.8715 12.5594 12.6655 12.3569C12.5282 12.2556 12.3909 12.1543 12.2536 12.0868C12.082 12.0193 11.9104 11.9517 11.7388 11.918C12.3566 12.4244 12.5969 13.2347 12.3223 14.6527C12.2536 14.9228 12.185 15.2604 12.082 15.598C11.8761 16.9823 12.5969 17.725 13.6266 17.6575C13.8326 18.2652 14.3818 18.7041 15.0683 18.7041C15.7548 18.7041 16.304 18.2652 16.5099 17.6575C17.5397 17.7588 18.2605 17.016 18.0546 15.598C17.9516 15.2604 17.8829 14.9566 17.8143 14.6527C17.471 13.2685 17.7113 12.4582 18.3292 11.9517Z" fill="black"/>
<path d="M21.9679 13.7749C21.9679 12.3231 20.8352 11.209 18.5697 11.4453C18.0205 11.6816 17.5056 12.1205 17.0938 12.7283C17.9175 11.7154 19.1189 11.4453 20.1487 11.918C21.4187 12.4919 21.6933 13.9099 20.9038 14.4164C20.08 14.9228 19.1532 14.1463 19.5651 13.4035C19.3935 13.5386 19.2219 13.7749 19.0846 14.1125C19.0503 14.5514 19.2562 15.0241 19.7368 15.2942C20.5262 15.6318 21.9679 15.2942 21.9679 13.7749Z" fill="black"/>
<path d="M21.2815 11.6479C20.3204 11.1077 19.3936 11.0402 18.5698 11.4115C20.8353 11.1752 21.968 12.2893 21.968 13.7411C21.968 15.2942 20.5263 15.6318 19.7025 15.1929C19.1877 14.9228 19.016 14.4839 19.0504 14.0112V14.045C18.7071 14.9228 19.4966 16.5096 21.2815 15.9356C22.9977 15.3955 23.1007 12.6607 21.2815 11.6479Z" fill="white"/>
<path d="M20.1142 11.8843C19.0844 11.4116 17.8831 11.7154 17.0593 12.6945C16.9563 12.8296 16.8876 12.9646 16.7847 13.0997C17.0593 12.6608 17.3682 12.2894 17.7801 12.1206C17.9517 12.0531 18.1233 11.9855 18.295 11.9518C19.359 11.783 20.2858 12.4244 20.2515 12.7621C20.2172 12.9984 19.8739 13.0322 19.4963 13.336C19.0844 14.0788 20.0112 14.8891 20.835 14.3489C21.6588 13.8425 21.4185 12.4582 20.1142 11.8843Z" fill="black"/>
<path d="M8.06641 13.7749C8.06641 12.3231 9.19913 11.209 11.4646 11.4453C12.0138 11.6816 12.5286 12.1205 12.9405 12.7283C12.1167 11.7154 10.9154 11.4453 9.88563 11.918C8.61561 12.4919 8.34101 13.9099 9.13048 14.4164C9.95428 14.9228 10.8811 14.1463 10.4692 13.4035C10.6408 13.5386 10.8124 13.7749 10.9497 14.1125C10.984 14.5514 10.7781 15.0241 10.2975 15.2942C9.47373 15.6318 8.06641 15.2942 8.06641 13.7749Z" fill="black"/>
<path d="M8.7527 11.6479C9.7138 11.1077 10.6406 11.0402 11.4644 11.4115C9.19892 11.1752 8.0662 12.2893 8.0662 13.7411C8.0662 15.2942 9.50785 15.6318 10.3316 15.1929C10.8465 14.9228 11.0181 14.4839 10.9838 14.0112V14.045C11.3271 14.9228 10.5376 16.5096 8.7527 15.9356C7.00213 15.3955 6.89915 12.6607 8.7527 11.6479Z" fill="white"/>
<path d="M9.88559 11.8843C10.9153 11.4116 12.1167 11.7154 12.9405 12.6945C13.0435 12.8296 13.1121 12.9646 13.2151 13.0997C12.9405 12.6608 12.6316 12.2894 12.2197 12.1206C12.0481 12.0531 11.8764 11.9855 11.7048 11.9518C10.6407 11.783 9.71397 12.4244 9.74829 12.7621C9.78262 12.9984 10.1259 13.0322 10.5034 13.336C10.9153 14.0788 9.98857 14.8891 9.16477 14.3489C8.34097 13.8425 8.61557 12.4582 9.88559 11.8843Z" fill="black"/>
<path d="M24.0962 10.5C24.0962 11.2766 23.4783 11.9518 22.6545 11.9856C22.5516 11.8505 22.4486 11.7492 22.3456 11.6479C22.1397 11.4116 21.8651 11.2428 21.5905 11.074C21.5218 11.0402 21.4875 11.0065 21.4188 10.9727C21.3159 10.9052 21.2129 10.8714 21.1099 10.8377C20.9383 10.7701 20.7667 10.7026 20.6294 10.6688C20.3204 10.5676 19.9772 10.5338 19.6683 10.5338C19.9772 10.5338 20.2861 10.4663 20.6294 10.3987C20.801 10.365 20.9726 10.2975 21.1099 10.2299C21.2129 10.1962 21.3159 10.1286 21.4188 10.0949C21.4875 10.0611 21.5218 10.0274 21.5905 9.9936C21.8651 9.82479 22.1053 9.65598 22.3456 9.41965C22.4486 9.31836 22.5516 9.18331 22.6545 9.08202C23.444 9.04826 24.0962 9.7235 24.0962 10.5Z" fill="white"/>
<path d="M29.9999 10.5C29.9999 12.4582 28.5926 14.1126 26.7047 14.5177C25.9152 15.328 24.8168 15.7669 23.6841 15.7669C23.3752 15.7669 23.0662 15.7332 22.7573 15.6656C22.9289 15.4293 23.0662 15.1254 23.1692 14.8216C23.3408 14.8553 23.4781 14.8553 23.6498 14.8553C24.6452 14.8553 25.572 14.3827 26.1898 13.6399C27.8031 13.4711 29.0731 12.1206 29.0731 10.5C29.0731 8.87946 27.8031 7.52897 26.1898 7.36016C25.572 6.58364 24.6452 6.14473 23.6498 6.14473C23.4781 6.14473 23.3408 6.14473 23.1692 6.17849C23.0662 5.87463 22.9289 5.57077 22.7573 5.33444C23.0662 5.26692 23.3752 5.23315 23.6841 5.23315C24.8168 5.23315 25.9152 5.70582 26.7047 6.48235C28.6269 6.8875 29.9999 8.54184 29.9999 10.5Z" fill="black"/>
<path d="M29.0733 10.5001C29.0733 12.1207 27.8033 13.4711 26.19 13.64C25.5722 14.4165 24.6454 14.8554 23.65 14.8554C23.4784 14.8554 23.3411 14.8554 23.1694 14.8216C23.2381 14.6191 23.2724 14.4502 23.2724 14.2477C23.2724 14.1464 23.2724 14.0789 23.2724 13.9776C23.4097 14.0113 23.547 14.0113 23.65 14.0113C24.5424 14.0113 25.2976 13.5387 25.7095 12.8297C25.7438 12.8297 25.7438 12.8297 25.7781 12.8297C27.0825 12.8297 28.1466 11.783 28.1466 10.5001C28.1466 9.21712 27.0825 8.1705 25.7781 8.1705C25.7438 8.1705 25.7438 8.1705 25.7095 8.1705C25.2976 7.4615 24.5424 6.98883 23.65 6.98883C23.5127 6.98883 23.3754 6.98883 23.2724 7.02259C23.2724 6.9213 23.2724 6.85378 23.2724 6.75249C23.2381 6.54992 23.2038 6.34735 23.1694 6.17854C23.3411 6.14477 23.4784 6.14478 23.65 6.14478C24.6454 6.14478 25.5722 6.61744 26.19 7.36021C27.8033 7.52902 29.0733 8.8795 29.0733 10.5001Z" fill="white"/>
<path d="M25.0227 11.7829C25.0227 11.8167 25.0227 11.8505 25.0227 11.8505C25.0227 12.5932 24.4392 13.1672 23.684 13.1672C23.5124 13.1672 23.3751 13.1334 23.2035 13.0997C23.1005 12.6945 22.9289 12.2894 22.6543 11.9518C23.4438 11.918 24.0959 11.2765 24.0959 10.4662C24.0959 9.6897 23.4781 9.01445 22.6543 8.98069C22.8946 8.64307 23.1005 8.27169 23.2035 7.83278C23.3408 7.76526 23.5124 7.76526 23.684 7.76526C24.4392 7.76526 25.0227 8.33921 25.0227 9.08198C25.0227 9.11574 25.0227 9.1495 25.0227 9.1495C25.6749 9.25079 26.1554 9.79098 26.1554 10.4325C26.1554 11.0739 25.6406 11.6817 25.0227 11.7829Z" fill="white"/>
<path d="M28.2154 10.5C28.2154 11.783 27.1513 12.8296 25.847 12.8296C25.8127 12.8296 25.8127 12.8296 25.7783 12.8296C25.3664 13.5386 24.6113 14.0113 23.7188 14.0113C23.5815 14.0113 23.4442 14.0113 23.3413 13.9775C23.3413 13.6737 23.3069 13.4036 23.2383 13.0997C23.3756 13.1672 23.5472 13.1672 23.7188 13.1672C24.474 13.1672 25.0575 12.5933 25.0575 11.8505C25.0575 11.8167 25.0575 11.783 25.0575 11.783C25.7097 11.6817 26.1902 11.1415 26.1902 10.5C26.1902 9.85854 25.7097 9.31835 25.0575 9.21706C25.0575 9.1833 25.0575 9.14954 25.0575 9.14954C25.0575 8.40678 24.474 7.83282 23.7188 7.83282C23.5472 7.83282 23.4099 7.86658 23.2383 7.90034C23.3069 7.63025 23.3413 7.32639 23.3413 7.02253C23.4786 6.98877 23.6159 6.98877 23.7188 6.98877C24.6113 6.98877 25.3664 7.46144 25.7783 8.17044C25.8127 8.17044 25.8127 8.17044 25.847 8.17044C27.1513 8.17044 28.2154 9.21707 28.2154 10.5Z" fill="black"/>
<path d="M5.90381 10.5C5.90381 11.2766 6.52166 11.9518 7.34546 11.9856C7.44843 11.8505 7.55141 11.7492 7.65438 11.6479C7.86033 11.4116 8.13493 11.2428 8.40953 11.074C8.47818 11.0402 8.5125 11.0065 8.58115 10.9727C8.68413 10.9052 8.7871 10.8714 8.89008 10.8377C9.0617 10.7701 9.23333 10.7026 9.37063 10.6688C9.67955 10.5676 10.0228 10.5338 10.3317 10.5338C10.0228 10.5338 9.71388 10.4663 9.37063 10.3987C9.199 10.365 9.02738 10.2975 8.89008 10.2299C8.7871 10.1962 8.68413 10.1286 8.58115 10.0949C8.5125 10.0611 8.47818 10.0274 8.40953 9.9936C8.13493 9.82479 7.89465 9.65598 7.65438 9.41965C7.55141 9.31836 7.44843 9.18331 7.34546 9.08202C6.55598 9.04826 5.90381 9.7235 5.90381 10.5Z" fill="white"/>
<path d="M0 10.5C0 12.4582 1.40732 14.1126 3.29519 14.5177C4.08467 15.328 5.18307 15.7669 6.31579 15.7669C6.62471 15.7669 6.93364 15.7332 7.24256 15.6656C7.07094 15.4293 6.93364 15.1254 6.83066 14.8216C6.65904 14.8553 6.52174 14.8553 6.35011 14.8553C5.35469 14.8553 4.42792 14.3827 3.81007 13.6399C2.1968 13.4711 0.926773 12.1206 0.926773 10.5C0.926773 8.87946 2.1968 7.52897 3.81007 7.36016C4.42792 6.58364 5.35469 6.14473 6.35011 6.14473C6.52174 6.14473 6.65904 6.14473 6.83066 6.17849C6.93364 5.87463 7.07094 5.57077 7.24256 5.33444C6.93364 5.26692 6.62471 5.23315 6.31579 5.23315C5.18307 5.23315 4.08467 5.70582 3.29519 6.48235C1.40732 6.8875 0 8.54184 0 10.5Z" fill="black"/>
<path d="M0.926758 10.5001C0.926758 12.1207 2.19678 13.4711 3.81005 13.64C4.4279 14.4165 5.35468 14.8554 6.3501 14.8554C6.52172 14.8554 6.65902 14.8554 6.83065 14.8216C6.762 14.6191 6.72767 14.4502 6.72767 14.2477C6.72767 14.1464 6.72767 14.0789 6.72767 13.9776C6.59037 14.0113 6.45307 14.0113 6.3501 14.0113C5.45765 14.0113 4.7025 13.5387 4.2906 12.8297C4.25628 12.8297 4.25628 12.8297 4.22195 12.8297C2.9176 12.8297 1.85353 11.783 1.85353 10.5001C1.85353 9.21712 2.9176 8.1705 4.22195 8.1705C4.25628 8.1705 4.25628 8.1705 4.2906 8.1705C4.7025 7.4615 5.45765 6.98883 6.3501 6.98883C6.4874 6.98883 6.6247 6.98883 6.72767 7.02259C6.72767 6.9213 6.72767 6.85378 6.72767 6.75249C6.762 6.54992 6.79632 6.34735 6.83065 6.17854C6.65902 6.14477 6.52172 6.14478 6.3501 6.14478C5.35468 6.14478 4.4279 6.61744 3.81005 7.36021C2.19678 7.52902 0.926758 8.8795 0.926758 10.5001Z" fill="white"/>
<path d="M5.01163 11.7829C5.01163 11.8167 5.01163 11.8505 5.01163 11.8505C5.01163 12.5932 5.59515 13.1672 6.3503 13.1672C6.52193 13.1672 6.65923 13.1334 6.83085 13.0997C6.93383 12.6945 7.10545 12.2894 7.38005 11.9518C6.59058 11.918 5.9384 11.2765 5.9384 10.4662C5.9384 9.6897 6.55625 9.01445 7.38005 8.98069C7.13978 8.64307 6.93383 8.27169 6.83085 7.83278C6.69355 7.76526 6.52193 7.76526 6.3503 7.76526C5.59515 7.76526 5.01163 8.33921 5.01163 9.08198C5.01163 9.11574 5.01163 9.1495 5.01163 9.1495C4.35946 9.25079 3.87891 9.79098 3.87891 10.4325C3.87891 11.0739 4.35946 11.6817 5.01163 11.7829Z" fill="white"/>
<path d="M1.78467 10.5C1.78467 11.783 2.84874 12.8296 4.15309 12.8296C4.18741 12.8296 4.18741 12.8296 4.22174 12.8296C4.63364 13.5386 5.38879 14.0113 6.28124 14.0113C6.41854 14.0113 6.55584 14.0113 6.65881 13.9775C6.65881 13.6737 6.69314 13.4036 6.76179 13.0997C6.62449 13.1672 6.45286 13.1672 6.28124 13.1672C5.52609 13.1672 4.94256 12.5933 4.94256 11.8505C4.94256 11.8167 4.94256 11.783 4.94256 11.783C4.29039 11.6817 3.80984 11.1415 3.80984 10.5C3.80984 9.85854 4.29039 9.31835 4.94256 9.21706C4.94256 9.1833 4.94256 9.14954 4.94256 9.14954C4.94256 8.40678 5.52609 7.83282 6.28124 7.83282C6.45286 7.83282 6.59016 7.86658 6.76179 7.90034C6.69314 7.63025 6.65881 7.32639 6.65881 7.02253C6.52151 6.98877 6.38421 6.98877 6.28124 6.98877C5.38879 6.98877 4.63364 7.46144 4.22174 8.17044C4.18741 8.17044 4.18741 8.17044 4.15309 8.17044C2.88307 8.17044 1.78467 9.21707 1.78467 10.5Z" fill="black"/>
</g>
<defs>
<clipPath id="clip0_658_947">
<rect width="30" height="21" fill="white"/>
</clipPath>
</defs>
</svg>
