<svg width="25" height="28" viewBox="0 0 25 28" fill="none" xmlns="http://www.w3.org/2000/svg">
<path d="M12.3343 28C25.9748 23.1224 25.5927 11.4248 23.6948 9.66871C22.5973 8.65424 21.3134 8.36365 20.425 8.30012C20.3102 8.28988 20.199 8.25452 20.0991 8.19652C19.9993 8.13851 19.9133 8.05926 19.8471 7.96431C19.7809 7.86936 19.7362 7.76101 19.716 7.64684C19.6958 7.53267 19.7007 7.41544 19.7302 7.30335C20.4105 4.49117 17.7557 2.0956 15.6673 1.58212C13.3293 1.00405 12.3281 0 12.3281 0C12.3281 0 11.3279 1.00405 8.98994 1.58212C6.90152 2.10289 4.24776 4.48804 4.92803 7.30335C4.95742 7.41537 4.96215 7.53249 4.94188 7.64653C4.9216 7.76057 4.87682 7.86879 4.81066 7.96361C4.74449 8.05844 4.65854 8.13759 4.55881 8.19553C4.45908 8.25347 4.34798 8.28881 4.23327 8.29907C3.34385 8.36261 2.0589 8.6532 0.96344 9.66767C-0.934467 11.4227 -1.3155 23.1224 12.3343 28Z" fill="black"/>
<path d="M12.3279 1.15918C12.9202 1.55705 13.9338 2.09658 15.4486 2.47362C17.1829 2.90274 19.3677 4.91293 18.8427 7.08664C18.7825 7.33289 18.7765 7.58939 18.8251 7.83821C18.8738 8.08702 18.9759 8.32214 19.1243 8.52711C19.2678 8.72555 19.4528 8.89001 19.6662 9.00894C19.8795 9.12788 20.1162 9.1984 20.3596 9.21557C21.0999 9.26973 22.1726 9.50929 23.0765 10.3446C23.4969 10.7331 24.0757 12.6996 23.5114 15.4836C22.9036 18.4854 20.6402 23.9421 12.3289 27.023C4.0177 23.9421 1.75325 18.4822 1.1465 15.4826C0.582205 12.6975 1.161 10.7321 1.58138 10.3436C2.48425 9.51033 3.55694 9.26869 4.29829 9.21453C4.54165 9.19736 4.77832 9.12683 4.99171 9.0079C5.20509 8.88897 5.39003 8.72451 5.53354 8.52607C5.68164 8.32036 5.78323 8.08455 5.83116 7.83518C5.8791 7.5858 5.87222 7.3289 5.81103 7.08248C5.28607 4.90772 7.46768 2.89857 9.20407 2.46945C10.723 2.0997 11.7356 1.56226 12.3279 1.15918Z" fill="black"/>
<path d="M12.3276 2.2373C13.2381 2.74536 14.2136 3.12525 15.2268 3.36635C16.5832 3.70172 18.3258 5.32029 17.9509 6.87012C17.8595 7.24614 17.8508 7.63769 17.9254 8.01745C18 8.39721 18.156 8.75602 18.3827 9.06883C18.6047 9.37512 18.8904 9.62896 19.22 9.81264C19.5496 9.99632 19.9151 10.1054 20.291 10.1323C20.8791 10.175 21.726 10.3604 22.4312 10.9999C22.6496 11.3186 23.0938 12.9236 22.6124 15.3004C22.0532 18.0616 19.9721 23.0933 12.3256 26.0419C4.68217 23.0933 2.60099 18.0605 2.04083 15.2994C1.55937 12.9226 2.00356 11.3175 2.22203 10.9988C2.92715 10.3593 3.77515 10.1739 4.36326 10.1312C4.73884 10.1043 5.10408 9.99534 5.43348 9.81185C5.76288 9.62837 6.04853 9.3748 6.27048 9.06883C6.49651 8.7565 6.65213 8.39836 6.72652 8.01936C6.80091 7.64035 6.79227 7.24959 6.70121 6.87429C6.32847 5.32029 8.06796 3.70068 9.42538 3.3653C10.4398 3.12536 11.4164 2.74578 12.3276 2.2373Z" fill="white"/>
<path d="M12.3286 3.27734C13.1843 3.70488 14.0853 4.03367 15.0145 4.25744C15.9463 4.48867 17.2986 5.70416 17.0687 6.65301C16.9425 7.15765 16.9285 7.68405 17.0275 8.19478C17.1265 8.70551 17.3362 9.18801 17.6417 9.60795C17.9472 10.0279 18.3409 10.375 18.7948 10.6245C19.2488 10.874 19.7518 11.0197 20.2681 11.0515C20.6333 11.0784 20.99 11.1753 21.3191 11.3369C21.4424 11.3981 21.5503 11.4868 21.6346 11.5961C21.7189 11.7054 21.7774 11.8326 21.8057 11.968C21.9269 12.5607 22.02 13.6512 21.7229 15.1166C21.2124 17.6382 19.3114 22.2471 12.3307 25.0562C5.34891 22.244 3.44686 17.6372 2.9364 15.1156C2.63924 13.6522 2.72932 12.5617 2.85253 11.968C2.87626 11.8416 2.92733 11.7219 3.00212 11.6176C3.07691 11.5132 3.17359 11.4266 3.28533 11.3639C3.64139 11.182 4.03083 11.0757 4.42946 11.0515C4.93739 11.0154 5.43136 10.8681 5.87685 10.62C6.32234 10.372 6.70861 10.029 7.00867 9.61518C7.31374 9.1944 7.52378 8.71168 7.62411 8.20076C7.72444 7.68983 7.71264 7.16303 7.58953 6.65717C7.36485 5.70416 8.71088 4.48867 9.64275 4.25744C10.572 4.03392 11.473 3.70512 12.3286 3.27734Z" fill="white"/>
<path d="M12.3283 4.29688C13.1224 4.6582 13.9485 4.94379 14.7956 5.1499C15.4479 5.31134 16.2224 6.15083 16.181 6.43726C15.9659 7.32901 16.0265 8.26556 16.3547 9.12172C16.683 9.97789 17.2632 10.7129 18.0178 11.2284C18.6597 11.6589 19.4035 11.9105 20.1736 11.9575C20.3864 11.9728 20.5866 12.0651 20.7371 12.2173C20.8876 12.3695 20.9784 12.5713 20.9926 12.7855C21.0319 13.5061 20.9755 14.2287 20.8248 14.9342C20.363 17.2163 18.6411 21.4023 12.3272 24.0634C6.01121 21.4012 4.29036 17.2152 3.82753 14.9321C3.6826 14.243 3.62622 13.538 3.6598 12.8345C3.66949 12.613 3.75883 12.4026 3.9112 12.2424C4.06357 12.0822 4.26859 11.9832 4.48813 11.9637H4.49434C5.13441 11.9182 5.75686 11.7326 6.3181 11.4197C6.87935 11.1068 7.36582 10.6743 7.74346 10.1525C8.12738 9.62415 8.39184 9.01778 8.51829 8.37583C8.64474 7.73389 8.63013 7.07189 8.47549 6.43622C8.43304 6.15188 9.20856 5.31134 9.86087 5.1499C10.7081 4.94386 11.5341 4.65826 12.3283 4.29688Z" fill="black"/>
</svg>
