<svg width="30" height="29" viewBox="0 0 30 29" fill="none" xmlns="http://www.w3.org/2000/svg">
<path d="M15.507 15.3071L10.0725 13.5994C9.23165 13.336 8.49923 12.7979 8.00997 12.0842C7.52072 11.3706 7.2922 10.5096 7.36837 9.66003C7.46212 8.60651 7.98361 7.66345 8.83908 7.00641C9.69455 6.34938 10.761 6.06901 11.8449 6.21628L12.1291 6.25593C13.0666 6.3862 13.925 6.83649 14.5461 7.52751C15.1672 8.21852 15.51 9.10495 15.51 10.0197V15.3071H15.507ZM11.2766 7.31227C10.6555 7.31227 10.0608 7.51335 9.56564 7.89284C8.96505 8.35446 8.59884 9.01716 8.53439 9.75632C8.42599 10.9996 9.20529 12.1381 10.4328 12.5232L14.3352 13.7495V10.0225C14.3352 8.7028 13.3156 7.56433 11.9621 7.37741L11.6779 7.33776C11.5432 7.32077 11.4113 7.31227 11.2766 7.31227Z" fill="#1A1A1A"/>
<path d="M9.35467 20.2688C8.83025 20.2688 8.30877 20.1697 7.82244 19.9714C6.81463 19.5608 6.04998 18.7905 5.66619 17.7993C5.2824 16.808 5.33806 15.7404 5.81853 14.7916L5.94451 14.5424C6.36053 13.7211 7.07244 13.0698 7.94256 12.7129C8.8156 12.3561 9.79119 12.3164 10.6935 12.5968L15.8937 14.2309L12.5334 18.6998C12.0148 19.3909 11.259 19.8978 10.4064 20.1272C10.0637 20.2206 9.70916 20.2688 9.35467 20.2688ZM9.4865 13.5455C8.45525 13.5455 7.46795 14.1063 6.99627 15.038L6.87029 15.2872C6.53338 15.9528 6.49529 16.7033 6.76482 17.3971C7.03435 18.091 7.57049 18.6347 8.27947 18.9207C9.46892 19.405 10.8283 19.0397 11.5871 18.0287L13.9982 14.82L10.3332 13.6673C10.0549 13.588 9.76775 13.5455 9.4865 13.5455Z" fill="#1A1A1A"/>
<path d="M15.1173 24.0751C14.092 24.0751 13.1281 23.6984 12.3839 23.0018L12.1759 22.8063C11.4963 22.1691 11.0773 21.3167 10.9953 20.4048C10.9132 19.4929 11.174 18.581 11.7306 17.8418L14.9445 13.5654L18.3048 18.0344C18.8234 18.7254 19.09 19.5778 19.0519 20.4303C19.0138 21.2855 18.674 22.1097 18.0968 22.7582C17.382 23.5568 16.3859 24.0241 15.2931 24.0694C15.2345 24.0723 15.1759 24.0751 15.1173 24.0751ZM14.9445 15.4912L12.6798 18.5045C11.8771 19.5722 12.0119 21.0731 12.9933 21.9907L13.2013 22.1861C13.7521 22.7016 14.4787 22.9678 15.2463 22.9366C16.0138 22.9055 16.7111 22.577 17.215 22.0162C18.0587 21.0731 18.1203 19.7081 17.3615 18.6999L14.9445 15.4912Z" fill="#1A1A1A"/>
<path d="M20.3936 20.0734C20.0977 20.0734 19.7988 20.0422 19.5059 19.9743C18.583 19.7675 17.7686 19.2464 17.2119 18.5044L13.998 14.2281L19.4326 12.5204C20.2734 12.257 21.1934 12.274 22.0225 12.5742C22.8516 12.8715 23.5605 13.4408 24.0176 14.1714C24.583 15.0748 24.7324 16.134 24.4424 17.1536C24.1494 18.1731 23.458 19.0057 22.4912 19.4985L22.2363 19.6288C21.665 19.9261 21.0322 20.0734 20.3936 20.0734ZM15.8936 14.8256L18.1582 17.8417C18.9609 18.9094 20.4785 19.2493 21.6855 18.6319L21.9404 18.5016C22.6201 18.1533 23.1064 17.5699 23.3115 16.8534C23.5166 16.1369 23.4111 15.3949 23.0127 14.7605C22.3447 13.6928 21.0205 13.217 19.793 13.6022L15.8936 14.8256Z" fill="#1A1A1A"/>
<path d="M14.3584 15.3072V9.78472C14.3584 8.92944 14.6602 8.09116 15.2109 7.41997C15.7617 6.75161 16.5381 6.27583 17.3994 6.08042C18.4629 5.8397 19.5527 6.02944 20.4639 6.61284C21.375 7.19624 21.9814 8.09116 22.1689 9.13052L22.2188 9.40522C22.3828 10.3086 22.2012 11.2347 21.7119 12.0192C21.2227 12.8037 20.458 13.3927 19.5586 13.6731L14.3584 15.3072ZM18.3018 7.11128C18.0908 7.11128 17.877 7.13393 17.666 7.18208C16.4092 7.46528 15.5303 8.53579 15.5303 9.78188V13.7467L19.1953 12.5941C20.4961 12.1891 21.2988 10.9005 21.0645 9.60063L21.0146 9.32593C20.8828 8.59526 20.458 7.96655 19.8164 7.55874C19.3594 7.26138 18.8379 7.11128 18.3018 7.11128Z" fill="#1A1A1A"/>
<path d="M14.6836 7.93538L13.5176 7.82493C13.5938 7.0801 13.7051 6.44573 13.8486 5.98977C13.9307 5.72639 14.1797 4.92493 14.8565 4.92493C15.5332 4.92493 15.7822 5.72639 15.8643 5.98977C16.0049 6.44573 16.1192 7.0801 16.1953 7.82493L15.0293 7.93538C14.9795 7.44827 14.9209 7.06594 14.8594 6.77424C14.792 7.06594 14.7334 7.44827 14.6836 7.93538ZM7.89259 13.7467C7.18361 13.4465 6.59474 13.1463 6.19044 12.8773C5.95607 12.7215 5.24415 12.2457 5.45216 11.6227C5.66017 10.9996 6.52736 11.0195 6.81154 11.0251C7.30372 11.0364 7.9629 11.1271 8.71876 11.2885L8.46681 12.3958C7.97169 12.291 7.57911 12.2287 7.2715 12.1948C7.54103 12.342 7.89552 12.5148 8.36134 12.7102L7.89259 13.7467ZM9.58595 22.4779C9.43361 22.4779 9.27833 22.4382 9.13478 22.3363C8.58693 21.9511 8.87404 21.161 8.96779 20.9004C9.13185 20.453 9.42482 19.8752 9.8174 19.2295L10.8281 19.8044C10.5703 20.2264 10.3887 20.5691 10.2598 20.8409C10.4883 20.6399 10.7666 20.3652 11.1035 19.997L11.9795 20.7475C11.4668 21.3082 10.9893 21.7557 10.5967 22.0446C10.4326 22.1692 10.0137 22.4779 9.58595 22.4779ZM20.3613 22.4014C19.9336 22.4014 19.5176 22.0927 19.3506 21.9709C18.961 21.6821 18.4834 21.2346 17.9678 20.6739L18.8438 19.9234C19.1807 20.2915 19.4619 20.5634 19.6875 20.7645C19.5586 20.4926 19.377 20.1499 19.1192 19.728L20.1299 19.1531C20.5225 19.7988 20.8154 20.3765 20.9795 20.824C21.0733 21.0845 21.3604 21.8746 20.8125 22.2598C20.669 22.3617 20.5137 22.4014 20.3613 22.4014ZM21.9082 13.6249L21.4395 12.5856C21.9053 12.3902 22.2598 12.2174 22.5293 12.0701C22.2217 12.1041 21.8291 12.1664 21.334 12.2712L21.082 11.1639C21.8379 11.0025 22.4971 10.9118 22.9893 10.9005C23.2735 10.8948 24.1406 10.875 24.3486 11.4981C24.5567 12.1211 23.8447 12.5969 23.6104 12.7527C23.2061 13.0274 22.6172 13.3276 21.9082 13.6249Z" fill="#1A1A1A"/>
</svg>
