<svg width="33" height="27" viewBox="0 0 33 27" fill="none" xmlns="http://www.w3.org/2000/svg">
<path d="M10.0723 17.3937C10.0715 16.8517 10.1775 16.3148 10.3844 15.8139C10.5913 15.3129 10.8949 14.8576 11.2779 14.474C11.6608 14.0905 12.1157 13.7862 12.6164 13.5786C13.117 13.371 13.6537 13.2642 14.1958 13.2642C14.2309 12.4716 14.5706 11.7232 15.1438 11.1748C15.7171 10.6264 16.4799 10.3203 17.2732 10.3203C18.0665 10.3203 18.8293 10.6264 19.4026 11.1748C19.9759 11.7232 20.3155 12.4716 20.3507 13.2642C20.8927 13.2642 21.4294 13.371 21.9301 13.5786C22.4307 13.7862 22.8856 14.0905 23.2686 14.474C23.6515 14.8576 23.9551 15.3129 24.162 15.8139C24.3689 16.3148 24.4749 16.8517 24.4741 17.3937C24.4741 17.4604 24.4741 17.5271 24.4741 17.5938C22.6338 18.423 21.0195 19.6819 19.767 21.2648C18.5144 22.8476 17.6602 24.7081 17.2762 26.6897C16.8953 24.7078 16.0429 22.8466 14.7912 21.2635C13.5394 19.6803 11.925 18.4217 10.0844 17.5938C10.0723 17.521 10.0723 17.4543 10.0723 17.3937Z" fill="black"/>
<path d="M8.0957 16.8241C8.16665 15.6522 8.56675 14.5242 9.25004 13.5695C9.93332 12.6148 10.8721 11.8723 11.9584 11.4272L12.4921 11.2089L12.7589 10.6813C13.1658 9.82892 13.8058 9.10915 14.6047 8.60527C15.4037 8.10139 16.3289 7.83398 17.2735 7.83398C18.218 7.83398 19.1433 8.10139 19.9422 8.60527C20.7412 9.10915 21.3811 9.82892 21.7881 10.6813L22.0549 11.2089L22.5885 11.4272C23.6749 11.8723 24.6137 12.6148 25.2969 13.5695C25.9802 14.5242 26.3803 15.6522 26.4513 16.8241C25.7709 17.0251 25.1078 17.2807 24.4684 17.5881C24.4684 17.5214 24.4684 17.4547 24.4684 17.388C24.4692 16.846 24.3631 16.3092 24.1562 15.8082C23.9494 15.3072 23.6457 14.8519 23.2628 14.4684C22.8798 14.0848 22.4249 13.7806 21.9243 13.5729C21.4236 13.3653 20.8869 13.2585 20.3449 13.2585C20.3097 12.4659 19.9701 11.7175 19.3968 11.1691C18.8235 10.6207 18.0608 10.3146 17.2674 10.3146C16.4741 10.3146 15.7113 10.6207 15.138 11.1691C14.5648 11.7175 14.2252 12.4659 14.19 13.2585C13.648 13.2593 13.1114 13.3669 12.611 13.5753C12.1107 13.7836 11.6563 14.0886 11.2739 14.4727C10.8914 14.8568 10.5885 15.3125 10.3824 15.8138C10.1762 16.3151 10.071 16.8521 10.0726 17.3941C10.0726 17.4608 10.0726 17.5275 10.0726 17.5942C9.4353 17.285 8.77422 17.0274 8.0957 16.8241Z" fill="black"/>
<path d="M18.5436 14.7988C18.5436 15.7023 17.2763 22.2757 17.2763 22.2757C17.2763 22.2757 16.0028 15.7023 16.0028 14.7988C15.9563 14.4118 16.0637 14.022 16.3019 13.7134C16.5401 13.4049 16.8901 13.2023 17.2763 13.1494C17.6614 13.2037 18.0098 13.4069 18.2468 13.7153C18.4837 14.0237 18.5903 14.4127 18.5436 14.7988Z" fill="black"/>
<path d="M21.6421 17.394C21.3874 18.0428 18.5435 22.3118 18.5435 22.3118C18.5435 22.3118 19.3378 17.1454 19.5865 16.4965C19.6328 16.3495 19.7084 16.2135 19.8089 16.0965C19.9093 15.9796 20.0323 15.8843 20.1706 15.8162C20.3089 15.7482 20.4596 15.709 20.6135 15.7008C20.7674 15.6927 20.9214 15.7158 21.0661 15.7688C21.3504 15.916 21.5682 16.1658 21.6751 16.4676C21.7821 16.7694 21.7703 17.1006 21.6421 17.394Z" fill="black"/>
<path d="M12.8799 17.3946C13.1346 18.0434 15.9786 22.3124 15.9786 22.3124C15.9786 22.3124 15.1842 17.1459 14.9356 16.4971C14.8884 16.3542 14.8133 16.222 14.7148 16.1083C14.6162 15.9945 14.4961 15.9014 14.3613 15.8343C14.2266 15.7673 14.0799 15.7275 13.9297 15.7174C13.7795 15.7073 13.6289 15.727 13.4863 15.7755C13.1991 15.9185 12.9767 16.1651 12.8642 16.4656C12.7517 16.7661 12.7573 17.0981 12.8799 17.3946Z" fill="black"/>
<path d="M6.5918 16.4546C6.70654 15.0093 7.21554 13.6231 8.06341 12.447C8.91128 11.2709 10.0655 10.3499 11.4005 9.78424C11.9225 8.66705 12.7523 7.72193 13.7925 7.05977C14.8328 6.39761 16.0403 6.0459 17.2734 6.0459C18.5066 6.0459 19.7141 6.39761 20.7543 7.05977C21.7946 7.72193 22.6244 8.66705 23.1464 9.78424C24.4814 10.3499 25.6356 11.2709 26.4835 12.447C27.3313 13.6231 27.8403 15.0093 27.9551 16.4546C27.4467 16.547 26.9445 16.6706 26.4512 16.8245C26.3798 15.6519 25.9788 14.5234 25.2943 13.5687C24.6099 12.6139 23.6699 11.8718 22.5824 11.4276L22.0488 11.2093L21.782 10.6817C21.375 9.82931 20.7351 9.10954 19.9361 8.60566C19.1372 8.10178 18.2119 7.83438 17.2674 7.83438C16.3228 7.83438 15.3976 8.10178 14.5986 8.60566C13.7997 9.10954 13.1597 9.82931 12.7528 10.6817L12.486 11.2093L11.9523 11.4276C10.866 11.8727 9.92721 12.6152 9.24392 13.5699C8.56064 14.5246 8.16053 15.6526 8.08959 16.8245C7.59871 16.6694 7.09843 16.5459 6.5918 16.4546Z" fill="white"/>
<path d="M3.66895 16.2545V16.1635C3.78452 15.3444 4.08476 14.5624 4.54699 13.8764C5.00922 13.1904 5.62134 12.6184 6.33708 12.2038L6.81613 11.9369L6.86464 11.4215C6.97493 10.1816 7.47773 9.00916 8.29998 8.07458C9.12223 7.14001 10.2211 6.49199 11.4369 6.2247L11.9644 6.12161L12.1645 5.62437C12.5652 4.59363 13.268 3.708 14.1808 3.08356C15.0935 2.45912 16.1736 2.125 17.2795 2.125C18.3854 2.125 19.4655 2.45912 20.3782 3.08356C21.2909 3.708 21.9937 4.59363 22.3944 5.62437L22.5945 6.12161L23.1221 6.2247C24.3379 6.49199 25.4367 7.14001 26.259 8.07458C27.0812 9.00916 27.584 10.1816 27.6943 11.4215L27.7428 11.9369L28.2037 12.1977C28.9212 12.6155 29.534 13.1915 29.9953 13.8819C30.4566 14.5723 30.7543 15.3589 30.8657 16.1817V16.2727H30.3867C29.5731 16.2621 28.7605 16.3333 27.9611 16.4849C27.8464 15.0396 27.3374 13.6534 26.4895 12.4773C25.6416 11.3012 24.4874 10.3802 23.1524 9.81456C22.6304 8.69737 21.8006 7.75225 20.7604 7.09009C19.7201 6.42793 18.5126 6.07622 17.2795 6.07622C16.0464 6.07622 14.8388 6.42793 13.7986 7.09009C12.7583 7.75225 11.9285 8.69737 11.4065 9.81456C10.0716 10.3802 8.91732 11.3012 8.06945 12.4773C7.22158 13.6534 6.71257 15.0396 6.59783 16.4849C5.79847 16.333 4.98585 16.2619 4.17225 16.2727L3.66895 16.2545Z" fill="black"/>
<path d="M1.54639 16.6059V16.4361C1.63828 15.2895 1.99844 14.1807 2.5978 13.1989C3.19716 12.2172 4.01892 11.3902 4.99677 10.7845C5.18246 9.26715 5.82188 7.84121 6.83134 6.69325C7.8408 5.5453 9.17329 4.72882 10.6544 4.35065C11.2126 3.05858 12.1368 1.95815 13.3129 1.18505C14.4891 0.411951 15.8658 0 17.2732 0C18.6807 0 20.0574 0.411951 21.2336 1.18505C22.4097 1.95815 23.3338 3.05858 23.892 4.35065C25.3788 4.72353 26.7179 5.5377 27.7331 6.68608C28.7484 7.83445 29.3922 9.26324 29.58 10.7845C30.5487 11.3964 31.3611 12.2259 31.9528 13.207C32.5444 14.1881 32.8989 15.2938 32.9879 16.4361V16.6059L32.5089 16.4846L32.1996 16.4179C31.761 16.3346 31.3174 16.2799 30.8716 16.2542V16.1632C30.7561 15.3441 30.4558 14.5621 29.9936 13.8761C29.5314 13.1901 28.9192 12.6181 28.2035 12.2035L27.7366 11.9366L27.6881 11.4212C27.5778 10.1813 27.075 9.00887 26.2527 8.07429C25.4305 7.13971 24.3316 6.49169 23.1158 6.22441L22.5822 6.12738L22.3821 5.63014C21.9814 4.5994 21.2786 3.71377 20.3659 3.08933C19.4532 2.46489 18.3731 2.13077 17.2672 2.13077C16.1613 2.13077 15.0812 2.46489 14.1685 3.08933C13.2557 3.71377 12.5529 4.5994 12.1522 5.63014L11.9521 6.12738L11.4246 6.23047C10.2088 6.49776 9.10993 7.14577 8.28768 8.08035C7.46542 9.01493 6.96262 10.1874 6.85234 11.4273L6.81596 11.9366L6.3551 12.1974C5.63527 12.6138 5.02014 13.1893 4.55667 13.8797C4.0932 14.5702 3.79365 15.3575 3.6809 16.1814V16.2724C3.23315 16.2982 2.78753 16.3529 2.34683 16.4361L2.04363 16.5028C1.86171 16.521 1.70405 16.5634 1.54639 16.6059Z" fill="black"/>
</svg>
