<svg width="30" height="21" viewBox="0 0 30 21" fill="none" xmlns="http://www.w3.org/2000/svg">
<g clip-path="url(#clip0_795_1590)">
<path d="M23.3069 14.2476C23.2039 15.3955 22.4831 16.3071 21.4876 16.6447C21.1787 16.746 20.8355 16.8135 20.5609 16.8135C19.9087 16.8135 19.3252 16.5772 18.9133 16.1383C19.2222 17.3199 19.1192 18.3328 18.6043 19.008C18.2611 19.4807 17.7119 19.7846 17.094 19.8521C16.6821 20.5611 15.8927 21 15.0345 21C14.1764 21 13.3869 20.5611 12.975 19.8521C12.3572 19.7846 11.808 19.4807 11.4648 19.008C10.9499 18.299 10.8469 17.2862 11.1558 16.1383C10.7439 16.5772 10.1604 16.8135 9.50823 16.8135C9.19931 16.8135 8.89038 16.746 8.58146 16.6447C7.55171 16.3071 6.86521 15.3955 6.76223 14.2476C6.62493 12.9309 7.27711 11.6817 8.44416 11.0402C9.09633 10.6688 9.78283 10.5 10.435 10.5C9.78283 10.5 9.09633 10.2974 8.44416 9.95981C7.31143 9.31833 6.62493 8.06913 6.76223 6.75241C6.86521 5.6045 7.58603 4.69293 8.58146 4.35531C8.89038 4.25402 9.23363 4.1865 9.50823 4.1865C10.1604 4.1865 10.7439 4.42283 11.1558 4.86174C10.8126 3.71383 10.9156 2.70096 11.4304 1.99196C11.7737 1.51929 12.3229 1.21543 12.9407 1.14791C13.3526 0.438907 14.1421 0 15.0002 0C15.8583 0 16.6478 0.438907 17.0597 1.14791C17.6776 1.21543 18.2268 1.51929 18.57 1.99196C19.0849 2.70096 19.1879 3.71383 18.8789 4.8955C19.2908 4.45659 19.8744 4.22026 20.5265 4.22026C20.8355 4.22026 21.1444 4.28778 21.4533 4.38907C22.4831 4.72669 23.1696 5.63826 23.2725 6.78617C23.4098 8.10289 22.7577 9.35209 21.5906 9.99357C20.9384 10.365 20.2519 10.5338 19.5998 10.5338C20.2519 10.5338 20.9384 10.7363 21.5906 11.074C22.7577 11.6817 23.4098 12.9309 23.3069 14.2476Z" fill="black"/>
<path d="M23.3069 14.2476C23.2039 15.3955 22.4831 16.3071 21.4876 16.6447C21.1787 16.746 20.8355 16.8135 20.5609 16.8135C19.9087 16.8135 19.3252 16.5772 18.9133 16.1383C19.2222 17.3199 19.1192 18.3328 18.6043 19.008C18.2611 19.4807 17.7119 19.7846 17.094 19.8521C16.6821 20.5611 15.8927 21 15.0345 21C14.1764 21 13.3869 20.5611 12.975 19.8521C12.3572 19.7846 11.808 19.4807 11.4648 19.008C10.9499 18.299 10.8469 17.2862 11.1558 16.1383C10.7439 16.5772 10.1604 16.8135 9.50823 16.8135C9.19931 16.8135 8.89038 16.746 8.58146 16.6447C7.55171 16.3071 6.86521 15.3955 6.76223 14.2476C6.62493 12.9309 7.27711 11.6817 8.44416 11.0402C9.09633 10.6688 9.78283 10.5 10.435 10.5C9.78283 10.5 9.09633 10.2974 8.44416 9.95981C7.31143 9.31833 6.62493 8.06913 6.76223 6.75241C6.86521 5.6045 7.58603 4.69293 8.58146 4.35531C8.89038 4.25402 9.23363 4.1865 9.50823 4.1865C10.1604 4.1865 10.7439 4.42283 11.1558 4.86174C10.8126 3.71383 10.9156 2.70096 11.4304 1.99196C11.7737 1.51929 12.3229 1.21543 12.9407 1.14791C13.3526 0.438907 14.1421 0 15.0002 0C15.8583 0 16.6478 0.438907 17.0597 1.14791C17.6776 1.21543 18.2268 1.51929 18.57 1.99196C19.0849 2.70096 19.1879 3.71383 18.8789 4.8955C19.2908 4.45659 19.8744 4.22026 20.5265 4.22026C20.8355 4.22026 21.1444 4.28778 21.4533 4.38907C22.4831 4.72669 23.1696 5.63826 23.2725 6.78617C23.4098 8.10289 22.7577 9.35209 21.5906 9.99357C20.9384 10.365 20.2519 10.5338 19.5998 10.5338C20.2519 10.5338 20.9384 10.7363 21.5906 11.074C22.7577 11.6817 23.4098 12.9309 23.3069 14.2476Z" fill="black"/>
<path d="M18.089 4.963C18.0547 5.09805 18.0204 5.2331 17.9861 5.33439C18.192 3.95014 17.4712 3.20738 16.4415 3.2749C16.2355 2.66718 15.6863 2.22828 14.9998 2.22828C14.3133 2.22828 13.7641 2.70095 13.5582 3.30866C12.5284 3.20738 11.8076 3.95014 12.0135 5.36815C11.9792 5.2331 11.9449 5.13181 11.9106 4.99677C11.2241 2.90352 12.0822 1.75561 13.4209 1.85689C13.6268 1.18165 14.279 0.708984 14.9998 0.708984C15.755 0.708984 16.3728 1.18165 16.5788 1.85689C17.9174 1.72185 18.7755 2.86976 18.089 4.963Z" fill="white"/>
<path d="M18.3292 9.04789C18.1575 9.01413 17.9859 8.98037 17.8143 8.87908C17.677 8.81156 17.5397 8.71027 17.4024 8.60898C17.1964 8.40641 16.9905 8.17008 16.8189 7.86622C16.201 6.85336 15.7548 5.5704 15.034 5.5704C14.2788 5.5704 13.8669 6.88712 13.2491 7.86622C13.0774 8.13632 12.8715 8.40641 12.6655 8.60898C12.5282 8.71027 12.3909 8.81156 12.2536 8.87908C12.082 8.94661 11.9104 9.01413 11.7388 9.04789C12.3566 8.54146 12.5969 7.73117 12.3223 6.31317C12.2536 6.04307 12.185 5.70545 12.082 5.36783C11.8761 3.98358 12.5969 3.24082 13.6266 3.30834C13.8326 2.70063 14.3818 2.26172 15.0683 2.26172C15.7548 2.26172 16.304 2.70063 16.5099 3.30834C17.5397 3.20706 18.2605 3.94982 18.0546 5.36783C17.9516 5.70545 17.8829 6.00931 17.8143 6.31317C17.471 7.73117 17.7113 8.54146 18.3292 9.04789Z" fill="black"/>
<path d="M21.9679 7.22519C21.9679 8.67696 20.8352 9.7911 18.5697 9.55477C18.0205 9.31844 17.5056 8.87953 17.0938 8.27181C17.9175 9.28467 19.1189 9.55477 20.1487 9.0821C21.4187 8.50815 21.6933 7.09014 20.9038 6.58371C20.08 6.07728 19.1532 6.85381 19.5651 7.59657C19.3935 7.46152 19.2219 7.22519 19.0846 6.88757C19.0503 6.44866 19.2562 5.97599 19.7368 5.7059C20.5262 5.36828 21.9679 5.67213 21.9679 7.22519Z" fill="black"/>
<path d="M21.2815 9.35232C20.3204 9.89251 19.3936 9.96003 18.5698 9.58865C20.8353 9.82499 21.968 8.71084 21.968 7.25907C21.968 5.70602 20.5263 5.3684 19.7025 5.8073C19.1877 6.0774 19.016 6.51631 19.0504 6.98897V6.95521C18.7071 6.0774 19.4966 4.49058 21.2815 5.06454C22.9977 5.60473 23.1007 8.33946 21.2815 9.35232Z" fill="white"/>
<path d="M20.1142 9.11591C19.0844 9.58858 17.8831 9.28472 17.0593 8.30562C16.9563 8.17057 16.8876 8.03552 16.7847 7.90047C17.0593 8.33938 17.3682 8.71076 17.7801 8.87957C17.9517 8.9471 18.1233 9.01462 18.295 9.04838C19.359 9.21719 20.2858 8.57571 20.2515 8.23809C20.2172 8.00176 19.8739 7.968 19.4963 7.66414C19.0844 6.92137 20.0112 6.11108 20.835 6.65128C21.6588 7.15771 21.4185 8.54195 20.1142 9.11591Z" fill="black"/>
<path d="M8.06641 7.22519C8.06641 8.67696 9.19913 9.7911 11.4646 9.55477C12.0138 9.31844 12.5286 8.87953 12.9405 8.27181C12.1167 9.28467 10.9154 9.55477 9.88563 9.0821C8.61561 8.50815 8.34101 7.09014 9.13048 6.58371C9.95428 6.07728 10.8811 6.85381 10.4692 7.59657C10.6408 7.46152 10.8124 7.22519 10.9497 6.88757C10.984 6.44866 10.7781 5.97599 10.2975 5.7059C9.47373 5.36828 8.06641 5.67213 8.06641 7.22519Z" fill="black"/>
<path d="M8.7527 9.35232C9.7138 9.89251 10.6406 9.96003 11.4644 9.58865C9.19892 9.82499 8.0662 8.71084 8.0662 7.25907C8.0662 5.70602 9.50785 5.3684 10.3316 5.8073C10.8465 6.0774 11.0181 6.51631 10.9838 6.98897V6.95521C11.3271 6.0774 10.5376 4.49058 8.7527 5.06454C7.00213 5.60473 6.89915 8.33946 8.7527 9.35232Z" fill="white"/>
<path d="M9.88559 9.11591C10.9153 9.58858 12.1167 9.28472 12.9405 8.30562C13.0435 8.17057 13.1121 8.03552 13.2151 7.90047C12.9405 8.33938 12.6316 8.71076 12.2197 8.87957C12.0481 8.9471 11.8764 9.01462 11.7048 9.04838C10.6407 9.21719 9.71397 8.57571 9.74829 8.23809C9.78262 8.00176 10.1259 7.968 10.5034 7.66414C10.9153 6.92137 9.98857 6.11108 9.16477 6.65128C8.34097 7.15771 8.61557 8.54195 9.88559 9.11591Z" fill="black"/>
<path d="M18.089 16.0032C18.0547 15.8682 18.0204 15.7331 17.9861 15.6318C18.192 17.0161 17.4712 17.7588 16.4415 17.6913C16.2355 18.299 15.6863 18.7379 14.9998 18.7379C14.3133 18.7379 13.7641 18.299 13.5582 17.6913C12.5284 17.7926 11.8076 17.0498 12.0135 15.6318C11.9792 15.7669 11.9449 15.8682 11.9106 16.0032C11.2241 18.0965 12.0822 19.2444 13.4209 19.1431C13.6268 19.8183 14.279 20.291 14.9998 20.291C15.755 20.291 16.3728 19.8183 16.5788 19.1431C17.9174 19.2444 18.7755 18.0965 18.089 16.0032Z" fill="white"/>
<path d="M18.3292 11.9517C18.1575 11.9855 17.9859 12.0193 17.8143 12.1205C17.677 12.1881 17.5397 12.2894 17.4024 12.3906C17.1621 12.5594 16.9905 12.8295 16.8189 13.0996C16.201 14.1125 15.7548 15.3955 15.034 15.3955C14.2788 15.3955 13.8669 14.0787 13.2491 13.0996C13.0774 12.8295 12.8715 12.5594 12.6655 12.3569C12.5282 12.2556 12.3909 12.1543 12.2536 12.0868C12.082 12.0193 11.9104 11.9517 11.7388 11.918C12.3566 12.4244 12.5969 13.2347 12.3223 14.6527C12.2536 14.9228 12.185 15.2604 12.082 15.598C11.8761 16.9823 12.5969 17.725 13.6266 17.6575C13.8326 18.2652 14.3818 18.7041 15.0683 18.7041C15.7548 18.7041 16.304 18.2652 16.5099 17.6575C17.5397 17.7588 18.2605 17.016 18.0546 15.598C17.9516 15.2604 17.8829 14.9566 17.8143 14.6527C17.471 13.2685 17.7113 12.4582 18.3292 11.9517Z" fill="black"/>
<path d="M21.9679 13.7754C21.9679 12.3236 20.8352 11.2095 18.5697 11.4458C18.0205 11.6821 17.5056 12.121 17.0938 12.7288C17.9175 11.7159 19.1189 11.4458 20.1487 11.9185C21.4187 12.4924 21.6933 13.9104 20.9038 14.4169C20.08 14.9233 19.1532 14.1468 19.5651 13.404C19.3935 13.539 19.2219 13.7754 19.0846 14.113C19.0503 14.5519 19.2562 15.0246 19.7368 15.2947C20.5262 15.6323 21.9679 15.2947 21.9679 13.7754Z" fill="black"/>
<path d="M21.2815 11.6482C20.3204 11.108 19.3936 11.0405 18.5698 11.4119C20.8353 11.1756 21.968 12.2897 21.968 13.7415C21.968 15.2945 20.5263 15.6322 19.7025 15.1933C19.1877 14.9232 19.016 14.4842 19.0504 14.0116V14.0453C18.7071 14.9232 19.4966 16.51 21.2815 15.936C22.9977 15.3958 23.1007 12.6611 21.2815 11.6482Z" fill="white"/>
<path d="M20.1142 11.8847C19.0844 11.4121 17.8831 11.7159 17.0593 12.695C16.9563 12.8301 16.8876 12.9651 16.7847 13.1002C17.0593 12.6613 17.3682 12.2899 17.7801 12.1211C17.9517 12.0536 18.1233 11.986 18.295 11.9523C19.359 11.7835 20.2858 12.4249 20.2515 12.7626C20.2172 12.9989 19.8739 13.0327 19.4963 13.3365C19.0844 14.0793 20.0112 14.8896 20.835 14.3494C21.6588 13.8429 21.4185 12.4587 20.1142 11.8847Z" fill="black"/>
<path d="M8.06641 13.7754C8.06641 12.3236 9.19913 11.2095 11.4646 11.4458C12.0138 11.6821 12.5286 12.121 12.9405 12.7288C12.1167 11.7159 10.9154 11.4458 9.88563 11.9185C8.61561 12.4924 8.34101 13.9104 9.13048 14.4169C9.95428 14.9233 10.8811 14.1468 10.4692 13.404C10.6408 13.539 10.8124 13.7754 10.9497 14.113C10.984 14.5519 10.7781 15.0246 10.2975 15.2947C9.47373 15.6323 8.06641 15.2947 8.06641 13.7754Z" fill="black"/>
<path d="M8.7527 11.6482C9.7138 11.108 10.6406 11.0405 11.4644 11.4119C9.19892 11.1756 8.0662 12.2897 8.0662 13.7415C8.0662 15.2945 9.50785 15.6322 10.3316 15.1933C10.8465 14.9232 11.0181 14.4842 10.9838 14.0116V14.0453C11.3271 14.9232 10.5376 16.51 8.7527 15.936C7.00213 15.3958 6.89915 12.6611 8.7527 11.6482Z" fill="white"/>
<path d="M9.88559 11.8847C10.9153 11.4121 12.1167 11.7159 12.9405 12.695C13.0435 12.8301 13.1121 12.9651 13.2151 13.1002C12.9405 12.6613 12.6316 12.2899 12.2197 12.1211C12.0481 12.0536 11.8764 11.986 11.7048 11.9523C10.6407 11.7835 9.71397 12.4249 9.74829 12.7626C9.78262 12.9989 10.1259 13.0327 10.5034 13.3365C10.9153 14.0793 9.98857 14.8896 9.16477 14.3494C8.34097 13.8429 8.61557 12.4587 9.88559 11.8847Z" fill="black"/>
<path d="M24.0962 10.5003C24.0962 11.2768 23.4783 11.952 22.6545 11.9858C22.5516 11.8508 22.4486 11.7495 22.3456 11.6482C22.1397 11.4119 21.8651 11.243 21.5905 11.0742C21.5218 11.0405 21.4875 11.0067 21.4188 10.9729C21.3159 10.9054 21.2129 10.8717 21.1099 10.8379C20.9383 10.7704 20.7667 10.7028 20.6294 10.6691C20.3204 10.5678 19.9772 10.534 19.6683 10.534C19.9772 10.534 20.2861 10.4665 20.6294 10.399C20.801 10.3652 20.9726 10.2977 21.1099 10.2302C21.2129 10.1964 21.3159 10.1289 21.4188 10.0951C21.4875 10.0614 21.5218 10.0276 21.5905 9.99384C21.8651 9.82503 22.1053 9.65622 22.3456 9.41989C22.4486 9.3186 22.5516 9.18355 22.6545 9.08227C23.444 9.04851 24.0962 9.72375 24.0962 10.5003Z" fill="white"/>
<path d="M29.9999 10.5003C29.9999 12.4585 28.5926 14.1128 26.7047 14.518C25.9152 15.3283 24.8168 15.7672 23.6841 15.7672C23.3752 15.7672 23.0662 15.7334 22.7573 15.6659C22.9289 15.4295 23.0662 15.1257 23.1692 14.8218C23.3408 14.8556 23.4781 14.8556 23.6498 14.8556C24.6452 14.8556 25.572 14.3829 26.1898 13.6402C27.8031 13.4713 29.0731 12.1209 29.0731 10.5003C29.0731 8.8797 27.8031 7.52922 26.1898 7.36041C25.572 6.58388 24.6452 6.14497 23.6498 6.14497C23.4781 6.14497 23.3408 6.14497 23.1692 6.17874C23.0662 5.87488 22.9289 5.57102 22.7573 5.33468C23.0662 5.26716 23.3752 5.2334 23.6841 5.2334C24.8168 5.2334 25.9152 5.70607 26.7047 6.48259C28.6269 6.88774 29.9999 8.54208 29.9999 10.5003Z" fill="black"/>
<path d="M29.0733 10.4998C29.0733 12.1204 27.8033 13.4709 26.19 13.6397C25.5722 14.4162 24.6454 14.8551 23.65 14.8551C23.4784 14.8551 23.3411 14.8551 23.1694 14.8214C23.2381 14.6188 23.2724 14.45 23.2724 14.2474C23.2724 14.1461 23.2724 14.0786 23.2724 13.9773C23.4097 14.0111 23.547 14.0111 23.65 14.0111C24.5424 14.0111 25.2976 13.5384 25.7095 12.8294C25.7438 12.8294 25.7438 12.8294 25.7781 12.8294C27.0825 12.8294 28.1466 11.7828 28.1466 10.4998C28.1466 9.21688 27.0825 8.17025 25.7781 8.17025C25.7438 8.17025 25.7438 8.17025 25.7095 8.17025C25.2976 7.46125 24.5424 6.98858 23.65 6.98858C23.5127 6.98858 23.3754 6.98858 23.2724 7.02234C23.2724 6.92106 23.2724 6.85353 23.2724 6.75225C23.2381 6.54968 23.2038 6.3471 23.1694 6.17829C23.3411 6.14453 23.4784 6.14453 23.65 6.14453C24.6454 6.14453 25.5722 6.6172 26.19 7.35996C27.8033 7.52877 29.0733 8.87926 29.0733 10.4998Z" fill="white"/>
<path d="M25.0227 11.7833C25.0227 11.8171 25.0227 11.8508 25.0227 11.8508C25.0227 12.5936 24.4392 13.1676 23.684 13.1676C23.5124 13.1676 23.3751 13.1338 23.2035 13.1C23.1005 12.6949 22.9289 12.2897 22.6543 11.9521C23.4438 11.9184 24.0959 11.2769 24.0959 10.4666C24.0959 9.69006 23.4781 9.01482 22.6543 8.98106C22.8946 8.64344 23.1005 8.27206 23.2035 7.83315C23.3408 7.76563 23.5124 7.76562 23.684 7.76562C24.4392 7.76562 25.0227 8.33958 25.0227 9.08235C25.0227 9.11611 25.0227 9.14987 25.0227 9.14987C25.6749 9.25116 26.1554 9.79135 26.1554 10.4328C26.1554 11.0743 25.6406 11.682 25.0227 11.7833Z" fill="white"/>
<path d="M28.2154 10.5005C28.2154 11.7835 27.1513 12.8301 25.847 12.8301C25.8127 12.8301 25.8127 12.8301 25.7783 12.8301C25.3664 13.5391 24.6113 14.0118 23.7188 14.0118C23.5815 14.0118 23.4442 14.0118 23.3413 13.978C23.3413 13.6741 23.3069 13.404 23.2383 13.1002C23.3756 13.1677 23.5472 13.1677 23.7188 13.1677C24.474 13.1677 25.0575 12.5938 25.0575 11.851C25.0575 11.8172 25.0575 11.7835 25.0575 11.7835C25.7097 11.6822 26.1902 11.142 26.1902 10.5005C26.1902 9.85903 25.7097 9.31884 25.0575 9.21755C25.0575 9.18379 25.0575 9.15003 25.0575 9.15003C25.0575 8.40726 24.474 7.83331 23.7188 7.83331C23.5472 7.83331 23.4099 7.86707 23.2383 7.90083C23.3069 7.63074 23.3413 7.32688 23.3413 7.02302C23.4786 6.98926 23.6159 6.98926 23.7188 6.98926C24.6113 6.98926 25.3664 7.46193 25.7783 8.17093C25.8127 8.17093 25.8127 8.17093 25.847 8.17093C27.1513 8.17093 28.2154 9.21755 28.2154 10.5005Z" fill="black"/>
<path d="M5.90381 10.5003C5.90381 11.2768 6.52166 11.952 7.34546 11.9858C7.44843 11.8508 7.55141 11.7495 7.65438 11.6482C7.86033 11.4119 8.13493 11.243 8.40953 11.0742C8.47818 11.0405 8.5125 11.0067 8.58115 10.9729C8.68413 10.9054 8.7871 10.8717 8.89008 10.8379C9.0617 10.7704 9.23333 10.7028 9.37063 10.6691C9.67955 10.5678 10.0228 10.534 10.3317 10.534C10.0228 10.534 9.71388 10.4665 9.37063 10.399C9.199 10.3652 9.02738 10.2977 8.89008 10.2302C8.7871 10.1964 8.68413 10.1289 8.58115 10.0951C8.5125 10.0614 8.47818 10.0276 8.40953 9.99384C8.13493 9.82503 7.89465 9.65622 7.65438 9.41989C7.55141 9.3186 7.44843 9.18355 7.34546 9.08227C6.55598 9.04851 5.90381 9.72375 5.90381 10.5003Z" fill="white"/>
<path d="M0 10.5003C0 12.4585 1.40732 14.1128 3.29519 14.518C4.08467 15.3283 5.18307 15.7672 6.31579 15.7672C6.62471 15.7672 6.93364 15.7334 7.24256 15.6659C7.07094 15.4295 6.93364 15.1257 6.83066 14.8218C6.65904 14.8556 6.52174 14.8556 6.35011 14.8556C5.35469 14.8556 4.42792 14.3829 3.81007 13.6402C2.1968 13.4713 0.926773 12.1209 0.926773 10.5003C0.926773 8.8797 2.1968 7.52922 3.81007 7.36041C4.42792 6.58388 5.35469 6.14497 6.35011 6.14497C6.52174 6.14497 6.65904 6.14497 6.83066 6.17874C6.93364 5.87488 7.07094 5.57102 7.24256 5.33468C6.93364 5.26716 6.62471 5.2334 6.31579 5.2334C5.18307 5.2334 4.08467 5.70607 3.29519 6.48259C1.40732 6.88774 0 8.54208 0 10.5003Z" fill="black"/>
<path d="M0.926758 10.4998C0.926758 12.1204 2.19678 13.4709 3.81005 13.6397C4.4279 14.4162 5.35468 14.8551 6.3501 14.8551C6.52172 14.8551 6.65902 14.8551 6.83065 14.8214C6.762 14.6188 6.72767 14.45 6.72767 14.2474C6.72767 14.1461 6.72767 14.0786 6.72767 13.9773C6.59037 14.0111 6.45307 14.0111 6.3501 14.0111C5.45765 14.0111 4.7025 13.5384 4.2906 12.8294C4.25628 12.8294 4.25628 12.8294 4.22195 12.8294C2.9176 12.8294 1.85353 11.7828 1.85353 10.4998C1.85353 9.21688 2.9176 8.17025 4.22195 8.17025C4.25628 8.17025 4.25628 8.17025 4.2906 8.17025C4.7025 7.46125 5.45765 6.98858 6.3501 6.98858C6.4874 6.98858 6.6247 6.98858 6.72767 7.02234C6.72767 6.92106 6.72767 6.85353 6.72767 6.75225C6.762 6.54968 6.79632 6.3471 6.83065 6.17829C6.65902 6.14453 6.52172 6.14453 6.3501 6.14453C5.35468 6.14453 4.4279 6.6172 3.81005 7.35996C2.19678 7.52877 0.926758 8.87926 0.926758 10.4998Z" fill="white"/>
<path d="M5.01163 11.7833C5.01163 11.8171 5.01163 11.8508 5.01163 11.8508C5.01163 12.5936 5.59515 13.1676 6.3503 13.1676C6.52193 13.1676 6.65923 13.1338 6.83085 13.1C6.93383 12.6949 7.10545 12.2897 7.38005 11.9521C6.59058 11.9184 5.9384 11.2769 5.9384 10.4666C5.9384 9.69006 6.55625 9.01482 7.38005 8.98106C7.13978 8.64344 6.93383 8.27206 6.83085 7.83315C6.69355 7.76563 6.52193 7.76562 6.3503 7.76562C5.59515 7.76562 5.01163 8.33958 5.01163 9.08235C5.01163 9.11611 5.01163 9.14987 5.01163 9.14987C4.35946 9.25116 3.87891 9.79135 3.87891 10.4328C3.87891 11.0743 4.35946 11.682 5.01163 11.7833Z" fill="white"/>
<path d="M1.78467 10.5005C1.78467 11.7835 2.84874 12.8301 4.15309 12.8301C4.18741 12.8301 4.18741 12.8301 4.22174 12.8301C4.63364 13.5391 5.38879 14.0118 6.28124 14.0118C6.41854 14.0118 6.55584 14.0118 6.65881 13.978C6.65881 13.6741 6.69314 13.404 6.76179 13.1002C6.62449 13.1677 6.45286 13.1677 6.28124 13.1677C5.52609 13.1677 4.94256 12.5938 4.94256 11.851C4.94256 11.8172 4.94256 11.7835 4.94256 11.7835C4.29039 11.6822 3.80984 11.142 3.80984 10.5005C3.80984 9.85903 4.29039 9.31884 4.94256 9.21755C4.94256 9.18379 4.94256 9.15003 4.94256 9.15003C4.94256 8.40726 5.52609 7.83331 6.28124 7.83331C6.45286 7.83331 6.59016 7.86707 6.76179 7.90083C6.69314 7.63074 6.65881 7.32688 6.65881 7.02302C6.52151 6.98926 6.38421 6.98926 6.28124 6.98926C5.38879 6.98926 4.63364 7.46193 4.22174 8.17093C4.18741 8.17093 4.18741 8.17093 4.15309 8.17093C2.88307 8.17093 1.78467 9.21755 1.78467 10.5005Z" fill="black"/>
</g>
<defs>
<clipPath id="clip0_795_1590">
<rect width="30" height="21" fill="white"/>
</clipPath>
</defs>
</svg>
