<svg width="30" height="30" viewBox="0 0 30 30" fill="none" xmlns="http://www.w3.org/2000/svg">
<path d="M0 20.1798V18.7522C0.988856 18.8561 1.98669 18.6728 2.87415 18.2245C3.09599 18.1163 3.30812 17.9893 3.50821 17.8448C3.61832 17.7688 3.73222 17.6815 3.83853 17.5942C3.94484 17.5069 4.08152 17.3816 4.21821 17.2677C4.35489 17.1538 4.44221 17.0285 4.54473 16.888C4.64724 16.7475 4.71558 16.6754 4.79531 16.5615C4.87505 16.4476 4.89023 16.4286 4.932 16.3564C5.39167 16.5231 5.86075 16.6625 6.3368 16.7741C6.22113 16.982 6.09439 17.1835 5.95712 17.3778C5.85841 17.5221 5.7521 17.6587 5.6382 17.7954C5.50714 17.957 5.36774 18.1116 5.22055 18.2586C5.07248 18.4029 4.91681 18.5472 4.75735 18.6763C4.62341 18.791 4.48268 18.8975 4.33591 18.9952C4.07943 19.1801 3.80761 19.3427 3.5234 19.4812C2.43679 20.0373 1.21659 20.2792 0 20.1798Z" fill="black"/>
<path d="M0 9.19534V7.75637C0.102513 7.69183 0.197432 7.61589 0.292351 7.54375C0.38727 7.47161 0.50497 7.35392 0.603686 7.2552C0.702402 7.15648 0.801117 7.04638 0.896037 6.94007C0.990956 6.83376 1.04031 6.75023 1.10866 6.65151C1.24194 6.46912 1.36003 6.27611 1.46175 6.0744C1.56144 5.87325 1.64646 5.66515 1.71614 5.45174C1.83081 5.09992 1.90097 4.73512 1.92496 4.36586C1.95797 3.93323 1.92598 3.4981 1.83004 3.07496C1.79967 2.94207 1.7655 2.80919 1.72373 2.69528C1.62656 2.39957 1.49933 2.11459 1.34405 1.84481C1.42758 1.76887 1.51111 1.68914 1.59464 1.60561C1.67058 1.52968 1.74272 1.44994 1.81865 1.37021L1.97432 1.18797C2.05025 1.09685 2.12619 0.99813 2.19833 0.899414C2.33097 1.09488 2.4502 1.2991 2.55522 1.51069C2.59319 1.59043 2.63495 1.66636 2.66913 1.74609C2.86486 2.18644 3.00515 2.64939 3.08677 3.12432C3.15569 3.52668 3.18115 3.93528 3.16271 4.34308C3.14398 4.71451 3.08931 5.08326 2.99944 5.44414C2.92936 5.73735 2.83539 6.02433 2.71848 6.30221C2.66913 6.41991 2.61597 6.54141 2.55522 6.65911C2.43325 6.90586 2.29101 7.14207 2.12999 7.3653C2.04266 7.49439 1.95154 7.61209 1.85662 7.74498C1.7617 7.87787 1.63261 7.97279 1.51871 8.11706C1.4048 8.26134 1.25293 8.36765 1.11625 8.49674C0.979565 8.62583 0.873256 8.68278 0.736572 8.77391C0.510335 8.93 0.271593 9.06715 0.0227806 9.18396L0 9.19534Z" fill="black"/>
<path d="M0 7.75727V2.75313C0.26591 2.61638 0.519913 2.45763 0.759353 2.27853L0.861866 2.2064C0.861866 2.2064 0.861866 2.2064 0.884646 2.2064C0.975769 2.14185 1.06309 2.06971 1.15422 2.00137L1.33646 1.8457C1.49174 2.11548 1.61896 2.40046 1.71614 2.69618C1.7579 2.82147 1.79207 2.95436 1.82245 3.07586C1.91839 3.499 1.95038 3.93413 1.91737 4.36676C1.89338 4.73601 1.82322 5.10081 1.70854 5.45263C1.64133 5.66584 1.55885 5.87393 1.46175 6.0753C1.36906 6.27077 1.26115 6.45865 1.13903 6.63722C1.07069 6.73594 0.998549 6.83086 0.926411 6.92577C0.854272 7.02069 0.736572 7.13839 0.63406 7.24091C0.531547 7.34342 0.429034 7.43454 0.322725 7.52946C0.216416 7.62438 0.132887 7.67753 0.0303741 7.74208L0 7.75727Z" fill="black"/>
<path d="M0.873535 2.22101C0.873535 2.22101 0.873535 2.22101 0.896316 2.22101C0.987438 2.15646 1.07476 2.08432 1.16589 2.01598L1.34813 1.86031C1.43166 1.78438 1.51519 1.70465 1.59872 1.62112C1.67465 1.54518 1.74679 1.46545 1.82273 1.38572C2.09175 1.54247 2.37689 1.66977 2.6732 1.7654C2.79762 1.80806 2.92439 1.84356 3.05288 1.8717C3.4797 1.96887 3.91858 2.00214 4.35517 1.97042C4.72358 1.94699 5.08736 1.87551 5.43725 1.7578C5.65735 1.67758 5.87065 1.57981 6.0751 1.46545C6.26899 1.37287 6.45446 1.26362 6.62943 1.13893C6.73194 1.07059 6.82686 0.998449 6.91798 0.92631C7.00911 0.854172 7.1344 0.736472 7.23691 0.633959C7.33943 0.531446 7.43055 0.428934 7.52167 0.318828C7.60011 0.227533 7.67241 0.131137 7.73809 0.0302734H9.18086V0.0492573C9.05948 0.297539 8.91722 0.535058 8.75562 0.759252C8.66829 0.884546 8.57717 1.00604 8.48225 1.13893C8.38733 1.27182 8.23926 1.4123 8.10258 1.53759C7.96589 1.66288 7.8368 1.79197 7.70012 1.91727C7.56344 2.04256 7.45713 2.10331 7.32044 2.19063C7.09577 2.34948 6.85974 2.49161 6.61424 2.61587C6.50034 2.67282 6.37884 2.72598 6.25735 2.77533C5.98813 2.88612 5.70996 2.97376 5.42586 3.03731C5.06175 3.12921 4.68875 3.1814 4.3134 3.19298C3.90825 3.21442 3.50198 3.19022 3.10224 3.12084C2.62608 3.03855 2.16274 2.89432 1.72401 2.69181L1.48102 2.57411C1.27118 2.46953 1.06827 2.35158 0.873535 2.22101Z" fill="black"/>
<path d="M1.83398 1.35165L1.98965 1.1694C2.06559 1.07828 2.14152 0.979565 2.21366 0.880849C2.23775 0.841771 2.25931 0.801189 2.27821 0.759353C2.44939 0.518336 2.60171 0.264464 2.73382 0L7.74934 0C7.68366 0.100863 7.61137 0.19726 7.53293 0.288554C7.44181 0.39866 7.34689 0.50497 7.24817 0.603686C7.14946 0.702402 7.03935 0.801117 6.92924 0.896037C6.81914 0.990956 6.7432 1.04031 6.64069 1.10866C6.46325 1.24441 6.27391 1.36387 6.07497 1.46555C5.87425 1.56619 5.66607 1.65123 5.4523 1.71993C5.10241 1.83764 4.73864 1.90912 4.37022 1.93255C3.93363 1.96427 3.49475 1.931 3.06793 1.83384C2.93945 1.80569 2.81268 1.77019 2.68826 1.72753C2.39079 1.63336 2.10437 1.50734 1.83398 1.35165Z" fill="black"/>
<path d="M1.43138 13.0191C1.34405 12.9318 1.26053 12.8445 1.18079 12.7533C0.715648 12.2535 0.318612 11.6943 0 11.0904L0 10.6006C0.262238 10.2019 0.563682 9.83055 0.899833 9.49191C1.76989 8.62444 2.85184 7.99979 4.03813 7.68007C5.22442 7.36036 6.47373 7.3567 7.66187 7.66947C7.35083 6.48063 7.35608 5.23112 7.6771 4.04493C7.99812 2.85875 8.62376 1.77713 9.49191 0.907427C9.82899 0.568831 10.1991 0.264839 10.5968 0L11.0866 0C11.7978 0.375837 12.4481 0.857147 13.0153 1.42758C13.8797 2.28851 14.5398 3.33238 14.9472 4.48229C15.3546 5.63221 15.4989 6.85887 15.3693 8.07192C15.3392 8.36019 15.2935 8.64663 15.2326 8.92999C15.1947 9.11603 15.1491 9.30967 15.0959 9.48052C14.9772 9.9019 14.8222 10.3122 14.6327 10.7069C14.5723 10.8511 14.5039 10.9918 14.4277 11.1283C14.3072 11.3558 14.1741 11.5763 14.029 11.789C13.7859 12.1517 13.5142 12.4945 13.2165 12.8141L13.0191 13.0191L12.8141 13.2165C12.4892 13.5215 12.14 13.7996 11.77 14.048C11.5536 14.1923 11.3371 14.3252 11.1093 14.4277C10.9766 14.5036 10.8397 14.572 10.6993 14.6327C10.311 14.8228 9.90704 14.9791 9.49191 15.0997C9.31347 15.1491 9.13122 15.1985 8.94518 15.2326C8.75914 15.2668 8.60347 15.301 8.42882 15.3237C8.31492 15.3237 8.20481 15.3579 8.08711 15.3693C7.69129 15.4129 7.29259 15.4243 6.89493 15.4035C6.4131 15.3883 5.93381 15.3273 5.46355 15.2212C3.93593 14.8896 2.53611 14.1251 1.43138 13.0191Z" fill="black"/>
<path d="M1.71614 5.45975C0.97337 4.67622 0.390454 3.75542 0 2.74886C0.265777 2.61333 0.519776 2.45585 0.759353 2.27806C1.03702 3.02276 1.42065 3.72351 1.89838 4.35869C2.2115 4.75771 2.57818 5.11162 2.98805 5.41039C3.91181 6.06257 5.05102 6.33446 6.16974 6.16974C6.34091 5.05314 6.06836 3.91389 5.41039 2.99565C5.11363 2.58409 4.75947 2.21714 4.35869 1.90598C3.72245 1.42793 3.02202 1.04192 2.27806 0.759353C2.44924 0.518336 2.60157 0.264464 2.73367 0C3.73931 0.387054 4.66005 0.966059 5.44456 1.70475C5.75801 2.01057 6.03453 2.35208 6.26846 2.72228C6.65726 3.34027 6.91573 4.03116 7.02803 4.75259C7.14033 5.47402 7.10407 6.21078 6.9215 6.91771C6.21683 7.10043 5.48244 7.13845 4.76266 7.02948C4.04289 6.9205 3.35267 6.66678 2.73367 6.28365C2.36381 6.04924 2.02235 5.77276 1.71614 5.45975Z" fill="white"/>
<path d="M1.82996 3.08295C1.70269 2.92106 1.58601 2.75112 1.48066 2.57419C1.3657 2.3874 1.26052 2.19477 1.16553 1.99708L1.34777 1.84141C1.4313 1.76548 1.51483 1.68574 1.59836 1.60221C1.67429 1.52628 1.74643 1.44655 1.82237 1.36682L1.97804 1.18457C2.17708 1.2821 2.37098 1.38982 2.55894 1.5073C2.73271 1.61102 2.90008 1.72513 3.06011 1.849C3.55051 2.21972 3.97093 2.67485 4.30166 3.19306C4.67489 3.75105 4.91876 4.38537 5.01545 5.04968C4.35475 4.95051 3.7237 4.70819 3.16642 4.33968C2.65147 4.00139 2.19925 3.57615 1.82996 3.08295Z" fill="black"/>
<path d="M1.92488 4.37429C1.43653 3.73606 1.04386 3.03003 0.759277 2.27847L0.86179 2.20633C0.86179 2.20633 0.86179 2.20633 0.884571 2.20633C0.975693 2.14179 1.06682 2.07345 1.15414 2.00131C1.25296 2.19795 1.36195 2.38931 1.48066 2.57462C1.58602 2.75156 1.70269 2.9215 1.82997 3.08339C2.20399 3.57214 2.66005 3.99223 3.17782 4.32493C3.73509 4.69344 4.36615 4.93575 5.02684 5.03492C4.93016 4.37061 4.68629 3.73629 4.31305 3.1783C3.98232 2.6601 3.5619 2.20497 3.07151 1.83425C2.91147 1.71038 2.74411 1.59627 2.57033 1.49254C2.38237 1.37506 2.18848 1.26735 1.98943 1.16982C2.06536 1.07869 2.1413 0.979978 2.21344 0.881262C2.23753 0.842184 2.25909 0.801602 2.27798 0.759766C3.02392 1.04555 3.72568 1.43542 4.36241 1.91778C4.7694 2.23739 5.12755 2.61472 5.4255 3.03782C6.08347 3.95607 6.35602 5.09532 6.18486 6.21192C5.06614 6.37663 3.92692 6.10474 3.00317 5.45257C2.59552 5.14483 2.23263 4.78193 1.92488 4.37429Z" fill="black"/>
<path d="M1.18079 12.7538C1.46935 14.7015 3.26901 15.7912 4.91301 16.3835C4.87125 16.4556 4.82189 16.524 4.77633 16.5885C4.73077 16.6531 4.61307 16.8125 4.52574 16.9151C4.43842 17.0176 4.31313 17.1656 4.19922 17.2947C4.08532 17.4238 3.96382 17.5187 3.81955 17.6213C3.67527 17.7238 3.59933 17.7959 3.48923 17.8718C3.28914 18.0163 3.077 18.1434 2.85517 18.2515C1.97062 18.6872 0.980033 18.861 0 18.7527L0 11.0908C0.318612 11.6947 0.715648 12.2539 1.18079 12.7538Z" fill="black"/>
<path d="M20.1797 0H18.7521C18.8578 0.990151 18.6745 1.98972 18.2243 2.87795C18.1162 3.09978 17.9891 3.31192 17.8447 3.51201C17.7662 3.62591 17.6827 3.73602 17.5941 3.84233C17.4878 3.96762 17.3815 4.08912 17.2638 4.222C17.1461 4.35489 17.0284 4.44601 16.8841 4.54852C16.7398 4.65104 16.6677 4.71938 16.5576 4.79531L16.3525 4.93579C16.5162 5.39644 16.6556 5.86535 16.7702 6.3406C16.9776 6.22622 17.1779 6.09943 17.3701 5.96092C17.5162 5.86226 17.6569 5.75579 17.7915 5.64199C17.9527 5.51185 18.1061 5.3724 18.2509 5.22435C18.4012 5.07913 18.5419 4.92441 18.6724 4.76114C18.7825 4.62826 18.8926 4.48778 18.9913 4.3435C19.1754 4.08519 19.3379 3.81217 19.4773 3.52719C20.0363 2.44018 20.2797 1.21826 20.1797 0Z" fill="black"/>
<path d="M12.7494 1.18459C14.7009 1.47694 15.7868 3.27661 16.3829 4.92061L16.5879 4.78013C16.698 4.70419 16.8082 4.62066 16.9145 4.53334C17.0208 4.44601 17.1613 4.32072 17.2941 4.20682C17.427 4.09291 17.5181 3.96762 17.6245 3.82714C17.7308 3.68666 17.7953 3.61072 17.875 3.49682C18.0195 3.29673 18.1466 3.0846 18.2547 2.86276C18.6915 1.97592 18.8642 0.982203 18.7521 0L11.0864 0C11.6899 0.320947 12.2489 0.719164 12.7494 1.18459Z" fill="black"/>
<path d="M27.1875 0L0 27.1875V30L30 0H27.1875Z" fill="black"/>
</svg>
