<svg xmlns="http://www.w3.org/2000/svg" xmlns:xlink="http://www.w3.org/1999/xlink" viewBox="0 0 721.58 67.58"><defs><style>.cls-1{fill:none;}.cls-2{clip-path:url(#clip-path);}.cls-3{clip-path:url(#clip-path-2);}.cls-4{clip-path:url(#clip-path-3);}.cls-5{fill:#fefde8;}.cls-6{fill:#2f2725;}.cls-7{fill:#004657;}.cls-8{fill:#4b7885;}.cls-9{fill:#9d3e3f;}.cls-10{fill:#5a8a70;}.cls-11{clip-path:url(#clip-path-4);}.cls-12{clip-path:url(#clip-path-5);}.cls-13{clip-path:url(#clip-path-6);}</style><clipPath id="clip-path" transform="translate(32.8 16.9)"><rect class="cls-1" x="475.09" y="-147.1" width="33.79" height="327.99" transform="translate(508.87 -475.09) rotate(90)"/></clipPath><clipPath id="clip-path-2" transform="translate(32.8 16.9)"><polygon class="cls-1" points="627.98 0 655.98 33.79 0 33.79 27.99 0 627.98 0"/></clipPath><clipPath id="clip-path-3" transform="translate(32.8 16.9)"><rect class="cls-1" x="-0.01" width="655.98" height="33.79"/></clipPath><clipPath id="clip-path-4" transform="translate(32.8 16.9)"><rect class="cls-1" x="147.1" y="-147.1" width="33.79" height="327.99" transform="translate(180.89 -147.1) rotate(90)"/></clipPath><clipPath id="clip-path-5" transform="translate(32.8 16.9)"><polygon class="cls-1" points="27.99 0 0 33.79 655.98 33.79 627.98 0 27.99 0"/></clipPath><clipPath id="clip-path-6" transform="translate(32.8 16.9)"><rect class="cls-1" width="655.98" height="33.79" transform="translate(655.98 33.79) rotate(-180)"/></clipPath></defs><g id="图层_2" data-name="图层 2"><g id="文件图层"><g class="cls-2"><g class="cls-3"><g class="cls-4"><path class="cls-5" d="M0,33.79,32.8,50.68V16.89ZM30.07,45.65,18.56,39.72,7,33.79l11.52-5.93,11.51-5.93Z" transform="translate(32.8 16.9)"/><polygon class="cls-6" points="62.87 38.82 62.87 62.54 51.36 56.61 39.85 50.68 51.36 44.75 62.87 38.82"/><polygon class="cls-7" points="62.87 39.73 62.87 61.64 41.61 50.68 62.87 39.73"/><polygon class="cls-8" points="62.87 44.17 62.87 57.2 50.23 50.68 62.87 44.17"/><path class="cls-5" d="M30.07,30.15v7.27H25.52c-1.55,0-2.8-1.54-2.8-3.43v-.41c0-1.89,1.25-3.43,2.8-3.43Z" transform="translate(32.8 16.9)"/><path class="cls-9" d="M30.07,32.27v3H27.55a1,1,0,0,1-.88-1.07v-.89a1,1,0,0,1,.88-1.07Z" transform="translate(32.8 16.9)"/><path class="cls-8" d="M32.8,16.89V50.68L65.6,33.79Zm2.72,5L47,27.86l11.51,5.93L47,39.72,35.52,45.65Z" transform="translate(32.8 16.9)"/><polygon class="cls-6" points="68.33 38.82 68.33 62.54 79.84 56.61 91.35 50.68 79.84 44.75 68.33 38.82"/><polygon class="cls-10" points="68.33 39.73 68.33 61.64 89.59 50.68 68.33 39.73"/><polygon class="cls-7" points="68.33 44.17 68.33 57.2 80.97 50.68 68.33 44.17"/><path class="cls-5" d="M35.52,30.15v7.27h4.55c1.55,0,2.8-1.54,2.8-3.43v-.41c0-1.89-1.25-3.43-2.8-3.43Z" transform="translate(32.8 16.9)"/><path class="cls-9" d="M35.52,32.27v3h2.53a1,1,0,0,0,.87-1.07v-.89a1,1,0,0,0-.87-1.07Z" transform="translate(32.8 16.9)"/><path class="cls-5" d="M65.6,33.79,98.39,50.68V16.89ZM95.67,45.65,84.15,39.72,72.64,33.79l11.51-5.93,11.52-5.93Z" transform="translate(32.8 16.9)"/><polygon class="cls-6" points="128.47 38.82 128.47 62.54 116.95 56.61 105.44 50.68 116.95 44.75 128.47 38.82"/><polygon class="cls-7" points="128.47 39.73 128.47 61.64 107.2 50.68 128.47 39.73"/><polygon class="cls-8" points="128.47 44.17 128.47 57.2 115.83 50.68 128.47 44.17"/><path class="cls-5" d="M95.67,30.15v7.27H91.12c-1.55,0-2.8-1.54-2.8-3.43v-.41c0-1.89,1.25-3.43,2.8-3.43Z" transform="translate(32.8 16.9)"/><path class="cls-9" d="M95.67,32.27v3H93.14a1,1,0,0,1-.87-1.07v-.89a1,1,0,0,1,.87-1.07Z" transform="translate(32.8 16.9)"/><path class="cls-8" d="M98.39,16.89V50.68l32.8-16.89Zm2.73,5,11.51,5.93,11.52,5.93-11.52,5.93-11.51,5.93Z" transform="translate(32.8 16.9)"/><polygon class="cls-6" points="133.92 38.82 133.92 62.54 145.44 56.61 156.95 50.68 145.44 44.75 133.92 38.82"/><polygon class="cls-10" points="133.92 39.73 133.92 61.64 155.19 50.68 133.92 39.73"/><polygon class="cls-7" points="133.92 44.17 133.92 57.2 146.56 50.68 133.92 44.17"/><path class="cls-5" d="M101.12,30.15v7.27h4.55c1.55,0,2.8-1.54,2.8-3.43v-.41c0-1.89-1.25-3.43-2.8-3.43Z" transform="translate(32.8 16.9)"/><path class="cls-9" d="M101.12,32.27v3h2.52a1,1,0,0,0,.88-1.07v-.89a1,1,0,0,0-.88-1.07Z" transform="translate(32.8 16.9)"/><path class="cls-5" d="M131.19,33.79,164,50.68V16.89Zm30.07,11.86-11.51-5.93-11.51-5.93,11.51-5.93,11.51-5.93Z" transform="translate(32.8 16.9)"/><polygon class="cls-6" points="194.06 38.82 194.06 62.54 182.55 56.61 171.04 50.68 182.55 44.75 194.06 38.82"/><polygon class="cls-7" points="194.06 39.73 194.06 61.64 172.8 50.68 194.06 39.73"/><polygon class="cls-8" points="194.06 44.17 194.06 57.2 181.43 50.68 194.06 44.17"/><path class="cls-5" d="M161.26,30.15v7.27h-4.55c-1.54,0-2.79-1.54-2.79-3.43v-.41c0-1.89,1.25-3.43,2.79-3.43Z" transform="translate(32.8 16.9)"/><path class="cls-9" d="M161.26,32.27v3h-2.52a1,1,0,0,1-.87-1.07v-.89a1,1,0,0,1,.87-1.07Z" transform="translate(32.8 16.9)"/><path class="cls-8" d="M164,16.89V50.68l32.8-16.89Zm2.73,5,11.51,5.93,11.51,5.93-11.51,5.93-11.51,5.93Z" transform="translate(32.8 16.9)"/><polygon class="cls-6" points="199.52 38.82 199.52 62.54 211.03 56.61 222.54 50.68 211.03 44.75 199.52 38.82"/><polygon class="cls-10" points="199.52 39.73 199.52 61.64 220.78 50.68 199.52 39.73"/><polygon class="cls-7" points="199.52 44.17 199.52 57.2 212.16 50.68 199.52 44.17"/><path class="cls-5" d="M166.72,30.15v7.27h4.55c1.54,0,2.8-1.54,2.8-3.43v-.41c0-1.89-1.26-3.43-2.8-3.43Z" transform="translate(32.8 16.9)"/><path class="cls-9" d="M166.72,32.27v3h2.52a1,1,0,0,0,.88-1.07v-.89a1,1,0,0,0-.88-1.07Z" transform="translate(32.8 16.9)"/><path class="cls-5" d="M196.79,33.79l32.8,16.89V16.89Zm30.07,11.86-11.51-5.93-11.51-5.93,11.51-5.93,11.51-5.93Z" transform="translate(32.8 16.9)"/><polygon class="cls-6" points="259.66 38.82 259.66 62.54 248.15 56.61 236.64 50.68 248.15 44.75 259.66 38.82"/><polygon class="cls-7" points="259.66 39.73 259.66 61.64 238.4 50.68 259.66 39.73"/><polygon class="cls-8" points="259.66 44.17 259.66 57.2 247.02 50.68 259.66 44.17"/><path class="cls-5" d="M226.86,30.15v7.27h-4.55c-1.54,0-2.8-1.54-2.8-3.43v-.41c0-1.89,1.26-3.43,2.8-3.43Z" transform="translate(32.8 16.9)"/><path class="cls-9" d="M226.86,32.27v3h-2.52a1,1,0,0,1-.87-1.07v-.89a1,1,0,0,1,.87-1.07Z" transform="translate(32.8 16.9)"/><path class="cls-8" d="M229.59,16.89V50.68l32.8-16.89Zm2.73,5,11.51,5.93,11.51,5.93-11.51,5.93-11.51,5.93Z" transform="translate(32.8 16.9)"/><polygon class="cls-6" points="265.12 38.82 265.12 62.54 276.63 56.61 288.14 50.68 276.63 44.75 265.12 38.82"/><polygon class="cls-10" points="265.12 39.73 265.12 61.64 286.38 50.68 265.12 39.73"/><polygon class="cls-7" points="265.12 44.17 265.12 57.2 277.76 50.68 265.12 44.17"/><path class="cls-5" d="M232.32,30.15v7.27h4.55c1.54,0,2.8-1.54,2.8-3.43v-.41c0-1.89-1.26-3.43-2.8-3.43Z" transform="translate(32.8 16.9)"/><path class="cls-9" d="M232.32,32.27v3h2.52a1,1,0,0,0,.87-1.07v-.89a1,1,0,0,0-.87-1.07Z" transform="translate(32.8 16.9)"/><path class="cls-5" d="M262.39,33.79l32.8,16.89V16.89Zm30.07,11.86L281,39.72l-11.51-5.93L281,27.86l11.51-5.93Z" transform="translate(32.8 16.9)"/><polygon class="cls-6" points="325.26 38.82 325.26 62.54 313.75 56.61 302.24 50.68 313.75 44.75 325.26 38.82"/><polygon class="cls-7" points="325.26 39.73 325.26 61.64 304 50.68 325.26 39.73"/><polygon class="cls-8" points="325.26 44.17 325.26 57.2 312.62 50.68 325.26 44.17"/><path class="cls-5" d="M292.46,30.15v7.27h-4.55c-1.54,0-2.8-1.54-2.8-3.43v-.41c0-1.89,1.26-3.43,2.8-3.43Z" transform="translate(32.8 16.9)"/><path class="cls-9" d="M292.46,32.27v3h-2.52a1,1,0,0,1-.88-1.07v-.89a1,1,0,0,1,.88-1.07Z" transform="translate(32.8 16.9)"/><path class="cls-8" d="M295.19,16.89V50.68L328,33.79Zm2.73,5,11.51,5.93,11.51,5.93-11.51,5.93-11.51,5.93Z" transform="translate(32.8 16.9)"/><polygon class="cls-6" points="330.72 38.82 330.72 62.54 342.23 56.61 353.74 50.68 342.23 44.75 330.72 38.82"/><polygon class="cls-10" points="330.72 39.73 330.72 61.64 351.98 50.68 330.72 39.73"/><polygon class="cls-7" points="330.72 44.17 330.72 57.2 343.36 50.68 330.72 44.17"/><path class="cls-5" d="M297.92,30.15v7.27h4.55c1.54,0,2.79-1.54,2.79-3.43v-.41c0-1.89-1.25-3.43-2.79-3.43Z" transform="translate(32.8 16.9)"/><path class="cls-9" d="M297.92,32.27v3h2.52a1,1,0,0,0,.87-1.07v-.89a1,1,0,0,0-.87-1.07Z" transform="translate(32.8 16.9)"/><path class="cls-5" d="M328,33.79l32.8,16.89V16.89Zm30.07,11.86-11.51-5.93L335,33.79l11.52-5.93,11.51-5.93Z" transform="translate(32.8 16.9)"/><polygon class="cls-6" points="390.86 38.82 390.86 62.54 379.35 56.61 367.83 50.68 379.35 44.75 390.86 38.82"/><polygon class="cls-7" points="390.86 39.73 390.86 61.64 369.6 50.68 390.86 39.73"/><polygon class="cls-8" points="390.86 44.17 390.86 57.2 378.22 50.68 390.86 44.17"/><path class="cls-5" d="M358.06,30.15v7.27h-4.55c-1.55,0-2.8-1.54-2.8-3.43v-.41c0-1.89,1.25-3.43,2.8-3.43Z" transform="translate(32.8 16.9)"/><path class="cls-9" d="M358.06,32.27v3h-2.52a1,1,0,0,1-.88-1.07v-.89a1,1,0,0,1,.88-1.07Z" transform="translate(32.8 16.9)"/><path class="cls-8" d="M360.79,16.89V50.68l32.79-16.89Zm2.72,5L375,27.86l11.51,5.93L375,39.72l-11.52,5.93Z" transform="translate(32.8 16.9)"/><polygon class="cls-6" points="396.31 38.82 396.31 62.54 407.83 56.61 419.34 50.68 407.83 44.75 396.31 38.82"/><polygon class="cls-10" points="396.31 39.73 396.31 61.64 417.58 50.68 396.31 39.73"/><polygon class="cls-7" points="396.31 44.17 396.31 57.2 408.95 50.68 396.31 44.17"/><path class="cls-5" d="M363.51,30.15v7.27h4.55c1.55,0,2.8-1.54,2.8-3.43v-.41c0-1.89-1.25-3.43-2.8-3.43Z" transform="translate(32.8 16.9)"/><path class="cls-9" d="M363.51,32.27v3H366a1,1,0,0,0,.88-1.07v-.89a1,1,0,0,0-.88-1.07Z" transform="translate(32.8 16.9)"/><path class="cls-5" d="M393.58,33.79l32.8,16.89V16.89Zm30.07,11.86-11.51-5.93-11.51-5.93,11.51-5.93,11.51-5.93Z" transform="translate(32.8 16.9)"/><polygon class="cls-6" points="456.46 38.82 456.46 62.54 444.94 56.61 433.43 50.68 444.94 44.75 456.46 38.82"/><polygon class="cls-7" points="456.46 39.73 456.46 61.64 435.19 50.68 456.46 39.73"/><polygon class="cls-8" points="456.46 44.17 456.46 57.2 443.82 50.68 456.46 44.17"/><path class="cls-5" d="M423.65,30.15v7.27h-4.54c-1.55,0-2.8-1.54-2.8-3.43v-.41c0-1.89,1.25-3.43,2.8-3.43Z" transform="translate(32.8 16.9)"/><path class="cls-9" d="M423.65,32.27v3h-2.52a1,1,0,0,1-.87-1.07v-.89a1,1,0,0,1,.87-1.07Z" transform="translate(32.8 16.9)"/><path class="cls-8" d="M426.38,16.89V50.68l32.8-16.89Zm2.73,5,11.51,5.93,11.52,5.93-11.52,5.93-11.51,5.93Z" transform="translate(32.8 16.9)"/><polygon class="cls-6" points="461.91 38.82 461.91 62.54 473.42 56.61 484.94 50.68 473.42 44.75 461.91 38.82"/><polygon class="cls-10" points="461.91 39.73 461.91 61.64 483.18 50.68 461.91 39.73"/><polygon class="cls-7" points="461.91 44.17 461.91 57.2 474.55 50.68 461.91 44.17"/><path class="cls-5" d="M429.11,30.15v7.27h4.55c1.55,0,2.8-1.54,2.8-3.43v-.41c0-1.89-1.25-3.43-2.8-3.43Z" transform="translate(32.8 16.9)"/><path class="cls-9" d="M429.11,32.27v3h2.52a1,1,0,0,0,.88-1.07v-.89a1,1,0,0,0-.88-1.07Z" transform="translate(32.8 16.9)"/><path class="cls-5" d="M459.18,33.79,492,50.68V16.89Zm30.07,11.86-11.51-5.93-11.51-5.93,11.51-5.93,11.51-5.93Z" transform="translate(32.8 16.9)"/><polygon class="cls-6" points="522.05 38.82 522.05 62.54 510.54 56.61 499.03 50.68 510.54 44.75 522.05 38.82"/><polygon class="cls-7" points="522.05 39.73 522.05 61.64 500.79 50.68 522.05 39.73"/><polygon class="cls-8" points="522.05 44.17 522.05 57.2 509.41 50.68 522.05 44.17"/><path class="cls-5" d="M489.25,30.15v7.27H484.7c-1.54,0-2.79-1.54-2.79-3.43v-.41c0-1.89,1.25-3.43,2.79-3.43Z" transform="translate(32.8 16.9)"/><path class="cls-9" d="M489.25,32.27v3h-2.52a1,1,0,0,1-.87-1.07v-.89a1,1,0,0,1,.87-1.07Z" transform="translate(32.8 16.9)"/><path class="cls-8" d="M492,16.89V50.68l32.8-16.89Zm2.73,5,11.51,5.93,11.51,5.93-11.51,5.93-11.51,5.93Z" transform="translate(32.8 16.9)"/><polygon class="cls-6" points="527.51 38.82 527.51 62.54 539.02 56.61 550.53 50.68 539.02 44.75 527.51 38.82"/><polygon class="cls-10" points="527.51 39.73 527.51 61.64 548.77 50.68 527.51 39.73"/><polygon class="cls-7" points="527.51 44.17 527.51 57.2 540.15 50.68 527.51 44.17"/><path class="cls-5" d="M494.71,30.15v7.27h4.55c1.54,0,2.8-1.54,2.8-3.43v-.41c0-1.89-1.26-3.43-2.8-3.43Z" transform="translate(32.8 16.9)"/><path class="cls-9" d="M494.71,32.27v3h2.52a1,1,0,0,0,.87-1.07v-.89a1,1,0,0,0-.87-1.07Z" transform="translate(32.8 16.9)"/><path class="cls-5" d="M524.78,33.79l32.8,16.89V16.89Zm30.07,11.86-11.51-5.93-11.51-5.93,11.51-5.93,11.51-5.93Z" transform="translate(32.8 16.9)"/><polygon class="cls-6" points="587.65 38.82 587.65 62.54 576.14 56.61 564.63 50.68 576.14 44.75 587.65 38.82"/><polygon class="cls-7" points="587.65 39.73 587.65 61.64 566.39 50.68 587.65 39.73"/><polygon class="cls-8" points="587.65 44.17 587.65 57.2 575.01 50.68 587.65 44.17"/><path class="cls-5" d="M554.85,30.15v7.27H550.3c-1.54,0-2.8-1.54-2.8-3.43v-.41c0-1.89,1.26-3.43,2.8-3.43Z" transform="translate(32.8 16.9)"/><path class="cls-9" d="M554.85,32.27v3h-2.52a1,1,0,0,1-.87-1.07v-.89a1,1,0,0,1,.87-1.07Z" transform="translate(32.8 16.9)"/><path class="cls-8" d="M557.58,16.89V50.68l32.8-16.89Zm2.73,5,11.51,5.93,11.51,5.93-11.51,5.93-11.51,5.93Z" transform="translate(32.8 16.9)"/><polygon class="cls-6" points="593.11 38.82 593.11 62.54 604.62 56.61 616.13 50.68 604.62 44.75 593.11 38.82"/><polygon class="cls-10" points="593.11 39.73 593.11 61.64 614.37 50.68 593.11 39.73"/><polygon class="cls-7" points="593.11 44.17 593.11 57.2 605.75 50.68 593.11 44.17"/><path class="cls-5" d="M560.31,30.15v7.27h4.55c1.54,0,2.79-1.54,2.79-3.43v-.41c0-1.89-1.25-3.43-2.79-3.43Z" transform="translate(32.8 16.9)"/><path class="cls-9" d="M560.31,32.27v3h2.52a1,1,0,0,0,.87-1.07v-.89a1,1,0,0,0-.87-1.07Z" transform="translate(32.8 16.9)"/><path class="cls-5" d="M590.38,33.79l32.8,16.89V16.89Zm30.07,11.86-11.51-5.93-11.52-5.93,11.52-5.93,11.51-5.93Z" transform="translate(32.8 16.9)"/><polygon class="cls-6" points="653.25 38.82 653.25 62.54 641.74 56.61 630.23 50.68 641.74 44.75 653.25 38.82"/><polygon class="cls-7" points="653.25 39.73 653.25 61.64 631.99 50.68 653.25 39.73"/><polygon class="cls-8" points="653.25 44.17 653.25 57.2 640.61 50.68 653.25 44.17"/><path class="cls-5" d="M620.45,30.15v7.27H615.9c-1.55,0-2.8-1.54-2.8-3.43v-.41c0-1.89,1.25-3.43,2.8-3.43Z" transform="translate(32.8 16.9)"/><path class="cls-9" d="M620.45,32.27v3h-2.52a1,1,0,0,1-.88-1.07v-.89a1,1,0,0,1,.88-1.07Z" transform="translate(32.8 16.9)"/><path class="cls-8" d="M623.18,16.89V50.68L656,33.79Zm2.72,5,11.52,5.93,11.51,5.93-11.51,5.93L625.9,45.65Z" transform="translate(32.8 16.9)"/><polygon class="cls-6" points="658.71 38.82 658.71 62.54 670.22 56.61 681.73 50.68 670.22 44.75 658.71 38.82"/><polygon class="cls-10" points="658.71 39.73 658.71 61.64 679.97 50.68 658.71 39.73"/><polygon class="cls-7" points="658.71 44.17 658.71 57.2 671.35 50.68 658.71 44.17"/><path class="cls-5" d="M625.9,30.15v7.27h4.55c1.55,0,2.8-1.54,2.8-3.43v-.41c0-1.89-1.25-3.43-2.8-3.43Z" transform="translate(32.8 16.9)"/><path class="cls-9" d="M625.9,32.27v3h2.53a1,1,0,0,0,.87-1.07v-.89a1,1,0,0,0-.87-1.07Z" transform="translate(32.8 16.9)"/><path class="cls-5" d="M32.8,16.89V-16.9L0,0Zm-2.73-5L18.56,5.93,7,0,18.56-5.93l11.51-5.93Z" transform="translate(32.8 16.9)"/><polygon class="cls-6" points="62.87 28.76 62.87 5.04 51.36 10.96 39.85 16.89 51.36 22.82 62.87 28.76"/><polygon class="cls-7" points="62.87 27.85 62.87 5.94 41.61 16.89 62.87 27.85"/><polygon class="cls-8" points="62.87 23.41 62.87 10.38 50.23 16.89 62.87 23.41"/><path class="cls-5" d="M30.07,3.63V-3.64H25.52c-1.55,0-2.8,1.54-2.8,3.44V.2c0,1.9,1.25,3.43,2.8,3.43Z" transform="translate(32.8 16.9)"/><path class="cls-9" d="M30.07,1.52v-3H27.55a1,1,0,0,0-.88,1.07v.9a1,1,0,0,0,.88,1.07Z" transform="translate(32.8 16.9)"/><path class="cls-8" d="M65.6,0,32.8-16.9V16.89ZM35.52-11.86,47-5.93,58.55,0,47,5.93,35.52,11.86Z" transform="translate(32.8 16.9)"/><polygon class="cls-6" points="68.33 28.76 68.33 5.04 79.84 10.96 91.35 16.89 79.84 22.82 68.33 28.76"/><polygon class="cls-10" points="68.33 27.85 68.33 5.94 89.59 16.89 68.33 27.85"/><polygon class="cls-7" points="68.33 23.41 68.33 10.38 80.97 16.89 68.33 23.41"/><path class="cls-5" d="M35.52,3.63V-3.64h4.55c1.55,0,2.8,1.54,2.8,3.44V.2c0,1.9-1.25,3.43-2.8,3.43Z" transform="translate(32.8 16.9)"/><path class="cls-9" d="M35.52,1.52v-3h2.53a1,1,0,0,1,.87,1.07v.9a1,1,0,0,1-.87,1.07Z" transform="translate(32.8 16.9)"/><path class="cls-5" d="M98.39,16.89V-16.9L65.6,0Zm-2.72-5L84.15,5.93,72.64,0,84.15-5.93l11.52-5.93Z" transform="translate(32.8 16.9)"/><polygon class="cls-6" points="128.47 28.76 128.47 5.04 116.95 10.96 105.44 16.89 116.95 22.82 128.47 28.76"/><polygon class="cls-7" points="128.47 27.85 128.47 5.94 107.2 16.89 128.47 27.85"/><polygon class="cls-8" points="128.47 23.41 128.47 10.38 115.83 16.89 128.47 23.41"/><path class="cls-5" d="M95.67,3.63V-3.64H91.12c-1.55,0-2.8,1.54-2.8,3.44V.2c0,1.9,1.25,3.43,2.8,3.43Z" transform="translate(32.8 16.9)"/><path class="cls-9" d="M95.67,1.52v-3H93.14a1,1,0,0,0-.87,1.07v.9a1,1,0,0,0,.87,1.07Z" transform="translate(32.8 16.9)"/><path class="cls-8" d="M131.19,0,98.39-16.9V16.89ZM101.12-11.86l11.51,5.93L124.15,0,112.63,5.93l-11.51,5.93Z" transform="translate(32.8 16.9)"/><polygon class="cls-6" points="133.92 28.76 133.92 5.04 145.44 10.96 156.95 16.89 145.44 22.82 133.92 28.76"/><polygon class="cls-10" points="133.92 27.85 133.92 5.94 155.19 16.89 133.92 27.85"/><polygon class="cls-7" points="133.92 23.41 133.92 10.38 146.56 16.89 133.92 23.41"/><path class="cls-5" d="M101.12,3.63V-3.64h4.55c1.55,0,2.8,1.54,2.8,3.44V.2c0,1.9-1.25,3.43-2.8,3.43Z" transform="translate(32.8 16.9)"/><path class="cls-9" d="M101.12,1.52v-3h2.52a1,1,0,0,1,.88,1.07v.9a1,1,0,0,1-.88,1.07Z" transform="translate(32.8 16.9)"/><path class="cls-5" d="M164,16.89V-16.9L131.19,0Zm-2.73-5L149.75,5.93,138.24,0l11.51-5.93,11.51-5.93Z" transform="translate(32.8 16.9)"/><polygon class="cls-6" points="194.06 28.76 194.06 5.04 182.55 10.96 171.04 16.89 182.55 22.82 194.06 28.76"/><polygon class="cls-7" points="194.06 27.85 194.06 5.94 172.8 16.89 194.06 27.85"/><polygon class="cls-8" points="194.06 23.41 194.06 10.38 181.43 16.89 194.06 23.41"/><path class="cls-5" d="M161.26,3.63V-3.64h-4.55c-1.54,0-2.79,1.54-2.79,3.44V.2c0,1.9,1.25,3.43,2.79,3.43Z" transform="translate(32.8 16.9)"/><path class="cls-9" d="M161.26,1.52v-3h-2.52a1,1,0,0,0-.87,1.07v.9a1,1,0,0,0,.87,1.07Z" transform="translate(32.8 16.9)"/><path class="cls-8" d="M196.79,0,164-16.9V16.89ZM166.72-11.86l11.51,5.93L189.74,0,178.23,5.93l-11.51,5.93Z" transform="translate(32.8 16.9)"/><polygon class="cls-6" points="199.52 28.76 199.52 5.04 211.03 10.96 222.54 16.89 211.03 22.82 199.52 28.76"/><polygon class="cls-10" points="199.52 27.85 199.52 5.94 220.78 16.89 199.52 27.85"/><polygon class="cls-7" points="199.52 23.41 199.52 10.38 212.16 16.89 199.52 23.41"/><path class="cls-5" d="M166.72,3.63V-3.64h4.55c1.54,0,2.8,1.54,2.8,3.44V.2c0,1.9-1.26,3.43-2.8,3.43Z" transform="translate(32.8 16.9)"/><path class="cls-9" d="M166.72,1.52v-3h2.52a1,1,0,0,1,.88,1.07v.9a1,1,0,0,1-.88,1.07Z" transform="translate(32.8 16.9)"/><path class="cls-5" d="M229.59,16.89V-16.9L196.79,0Zm-2.73-5L215.35,5.93,203.84,0l11.51-5.93,11.51-5.93Z" transform="translate(32.8 16.9)"/><polygon class="cls-6" points="259.66 28.76 259.66 5.04 248.15 10.96 236.64 16.89 248.15 22.82 259.66 28.76"/><polygon class="cls-7" points="259.66 27.85 259.66 5.94 238.4 16.89 259.66 27.85"/><polygon class="cls-8" points="259.66 23.41 259.66 10.38 247.02 16.89 259.66 23.41"/><path class="cls-5" d="M226.86,3.63V-3.64h-4.55c-1.54,0-2.8,1.54-2.8,3.44V.2c0,1.9,1.26,3.43,2.8,3.43Z" transform="translate(32.8 16.9)"/><path class="cls-9" d="M226.86,1.52v-3h-2.52a1,1,0,0,0-.87,1.07v.9a1,1,0,0,0,.87,1.07Z" transform="translate(32.8 16.9)"/><path class="cls-8" d="M262.39,0l-32.8-16.9V16.89ZM232.32-11.86l11.51,5.93L255.34,0,243.83,5.93l-11.51,5.93Z" transform="translate(32.8 16.9)"/><polygon class="cls-6" points="265.12 28.76 265.12 5.04 276.63 10.96 288.14 16.89 276.63 22.82 265.12 28.76"/><polygon class="cls-10" points="265.12 27.85 265.12 5.94 286.38 16.89 265.12 27.85"/><polygon class="cls-7" points="265.12 23.41 265.12 10.38 277.76 16.89 265.12 23.41"/><path class="cls-5" d="M232.32,3.63V-3.64h4.55c1.54,0,2.8,1.54,2.8,3.44V.2c0,1.9-1.26,3.43-2.8,3.43Z" transform="translate(32.8 16.9)"/><path class="cls-9" d="M232.32,1.52v-3h2.52a1,1,0,0,1,.87,1.07v.9a1,1,0,0,1-.87,1.07Z" transform="translate(32.8 16.9)"/><path class="cls-5" d="M295.19,16.89V-16.9L262.39,0Zm-2.73-5L281,5.93,269.44,0,281-5.93l11.51-5.93Z" transform="translate(32.8 16.9)"/><polygon class="cls-6" points="325.26 28.76 325.26 5.04 313.75 10.96 302.24 16.89 313.75 22.82 325.26 28.76"/><polygon class="cls-7" points="325.26 27.85 325.26 5.94 304 16.89 325.26 27.85"/><polygon class="cls-8" points="325.26 23.41 325.26 10.38 312.62 16.89 325.26 23.41"/><path class="cls-5" d="M292.46,3.63V-3.64h-4.55c-1.54,0-2.8,1.54-2.8,3.44V.2c0,1.9,1.26,3.43,2.8,3.43Z" transform="translate(32.8 16.9)"/><path class="cls-9" d="M292.46,1.52v-3h-2.52a1,1,0,0,0-.88,1.07v.9a1,1,0,0,0,.88,1.07Z" transform="translate(32.8 16.9)"/><path class="cls-8" d="M328,0l-32.8-16.9V16.89ZM297.92-11.86l11.51,5.93L320.94,0,309.43,5.93l-11.51,5.93Z" transform="translate(32.8 16.9)"/><polygon class="cls-6" points="330.72 28.76 330.72 5.04 342.23 10.96 353.74 16.89 342.23 22.82 330.72 28.76"/><polygon class="cls-10" points="330.72 27.85 330.72 5.94 351.98 16.89 330.72 27.85"/><polygon class="cls-7" points="330.72 23.41 330.72 10.38 343.36 16.89 330.72 23.41"/><path class="cls-5" d="M297.92,3.63V-3.64h4.55c1.54,0,2.79,1.54,2.79,3.44V.2c0,1.9-1.25,3.43-2.79,3.43Z" transform="translate(32.8 16.9)"/><path class="cls-9" d="M297.92,1.52v-3h2.52a1,1,0,0,1,.87,1.07v.9a1,1,0,0,1-.87,1.07Z" transform="translate(32.8 16.9)"/><path class="cls-5" d="M360.79,16.89V-16.9L328,0Zm-2.73-5L346.55,5.93,335,0l11.52-5.93,11.51-5.93Z" transform="translate(32.8 16.9)"/><polygon class="cls-6" points="390.86 28.76 390.86 5.04 379.35 10.96 367.83 16.89 379.35 22.82 390.86 28.76"/><polygon class="cls-7" points="390.86 27.85 390.86 5.94 369.6 16.89 390.86 27.85"/><polygon class="cls-8" points="390.86 23.41 390.86 10.38 378.22 16.89 390.86 23.41"/><path class="cls-5" d="M358.06,3.63V-3.64h-4.55c-1.55,0-2.8,1.54-2.8,3.44V.2c0,1.9,1.25,3.43,2.8,3.43Z" transform="translate(32.8 16.9)"/><path class="cls-9" d="M358.06,1.52v-3h-2.52a1,1,0,0,0-.88,1.07v.9a1,1,0,0,0,.88,1.07Z" transform="translate(32.8 16.9)"/><path class="cls-8" d="M393.58,0,360.79-16.9V16.89ZM363.51-11.86,375-5.93,386.54,0,375,5.93l-11.52,5.93Z" transform="translate(32.8 16.9)"/><polygon class="cls-6" points="396.31 28.76 396.31 5.04 407.83 10.96 419.34 16.89 407.83 22.82 396.31 28.76"/><polygon class="cls-10" points="396.31 27.85 396.31 5.94 417.58 16.89 396.31 27.85"/><polygon class="cls-7" points="396.31 23.41 396.31 10.38 408.95 16.89 396.31 23.41"/><path class="cls-5" d="M363.51,3.63V-3.64h4.55c1.55,0,2.8,1.54,2.8,3.44V.2c0,1.9-1.25,3.43-2.8,3.43Z" transform="translate(32.8 16.9)"/><path class="cls-9" d="M363.51,1.52v-3H366a1,1,0,0,1,.88,1.07v.9A1,1,0,0,1,366,1.52Z" transform="translate(32.8 16.9)"/><path class="cls-5" d="M426.38,16.89V-16.9L393.58,0Zm-2.73-5L412.14,5.93,400.63,0l11.51-5.93,11.51-5.93Z" transform="translate(32.8 16.9)"/><polygon class="cls-6" points="456.46 28.76 456.46 5.04 444.94 10.96 433.43 16.89 444.94 22.82 456.46 28.76"/><polygon class="cls-7" points="456.46 27.85 456.46 5.94 435.19 16.89 456.46 27.85"/><polygon class="cls-8" points="456.46 23.41 456.46 10.38 443.82 16.89 456.46 23.41"/><path class="cls-5" d="M423.65,3.63V-3.64h-4.54c-1.55,0-2.8,1.54-2.8,3.44V.2c0,1.9,1.25,3.43,2.8,3.43Z" transform="translate(32.8 16.9)"/><path class="cls-9" d="M423.65,1.52v-3h-2.52a1,1,0,0,0-.87,1.07v.9a1,1,0,0,0,.87,1.07Z" transform="translate(32.8 16.9)"/><path class="cls-8" d="M459.18,0l-32.8-16.9V16.89ZM429.11-11.86l11.51,5.93L452.14,0,440.62,5.93l-11.51,5.93Z" transform="translate(32.8 16.9)"/><polygon class="cls-6" points="461.91 28.76 461.91 5.04 473.42 10.96 484.94 16.89 473.42 22.82 461.91 28.76"/><polygon class="cls-10" points="461.91 27.85 461.91 5.94 483.18 16.89 461.91 27.85"/><polygon class="cls-7" points="461.91 23.41 461.91 10.38 474.55 16.89 461.91 23.41"/><path class="cls-5" d="M429.11,3.63V-3.64h4.55c1.55,0,2.8,1.54,2.8,3.44V.2c0,1.9-1.25,3.43-2.8,3.43Z" transform="translate(32.8 16.9)"/><path class="cls-9" d="M429.11,1.52v-3h2.52a1,1,0,0,1,.88,1.07v.9a1,1,0,0,1-.88,1.07Z" transform="translate(32.8 16.9)"/><path class="cls-5" d="M492,16.89V-16.9L459.18,0Zm-2.73-5L477.74,5.93,466.23,0l11.51-5.93,11.51-5.93Z" transform="translate(32.8 16.9)"/><polygon class="cls-6" points="522.05 28.76 522.05 5.04 510.54 10.96 499.03 16.89 510.54 22.82 522.05 28.76"/><polygon class="cls-7" points="522.05 27.85 522.05 5.94 500.79 16.89 522.05 27.85"/><polygon class="cls-8" points="522.05 23.41 522.05 10.38 509.41 16.89 522.05 23.41"/><path class="cls-5" d="M489.25,3.63V-3.64H484.7c-1.54,0-2.79,1.54-2.79,3.44V.2c0,1.9,1.25,3.43,2.79,3.43Z" transform="translate(32.8 16.9)"/><path class="cls-9" d="M489.25,1.52v-3h-2.52a1,1,0,0,0-.87,1.07v.9a1,1,0,0,0,.87,1.07Z" transform="translate(32.8 16.9)"/><path class="cls-8" d="M524.78,0,492-16.9V16.89ZM494.71-11.86l11.51,5.93L517.73,0,506.22,5.93l-11.51,5.93Z" transform="translate(32.8 16.9)"/><polygon class="cls-6" points="527.51 28.76 527.51 5.04 539.02 10.96 550.53 16.89 539.02 22.82 527.51 28.76"/><polygon class="cls-10" points="527.51 27.85 527.51 5.94 548.77 16.89 527.51 27.85"/><polygon class="cls-7" points="527.51 23.41 527.51 10.38 540.15 16.89 527.51 23.41"/><path class="cls-5" d="M494.71,3.63V-3.64h4.55c1.54,0,2.8,1.54,2.8,3.44V.2c0,1.9-1.26,3.43-2.8,3.43Z" transform="translate(32.8 16.9)"/><path class="cls-9" d="M494.71,1.52v-3h2.52a1,1,0,0,1,.87,1.07v.9a1,1,0,0,1-.87,1.07Z" transform="translate(32.8 16.9)"/><path class="cls-5" d="M557.58,16.89V-16.9L524.78,0Zm-2.73-5L543.34,5.93,531.83,0l11.51-5.93,11.51-5.93Z" transform="translate(32.8 16.9)"/><polygon class="cls-6" points="587.65 28.76 587.65 5.04 576.14 10.96 564.63 16.89 576.14 22.82 587.65 28.76"/><polygon class="cls-7" points="587.65 27.85 587.65 5.94 566.39 16.89 587.65 27.85"/><polygon class="cls-8" points="587.65 23.41 587.65 10.38 575.01 16.89 587.65 23.41"/><path class="cls-5" d="M554.85,3.63V-3.64H550.3c-1.54,0-2.8,1.54-2.8,3.44V.2c0,1.9,1.26,3.43,2.8,3.43Z" transform="translate(32.8 16.9)"/><path class="cls-9" d="M554.85,1.52v-3h-2.52a1,1,0,0,0-.87,1.07v.9a1,1,0,0,0,.87,1.07Z" transform="translate(32.8 16.9)"/><path class="cls-8" d="M590.38,0l-32.8-16.9V16.89ZM560.31-11.86l11.51,5.93L583.33,0,571.82,5.93l-11.51,5.93Z" transform="translate(32.8 16.9)"/><polygon class="cls-6" points="593.11 28.76 593.11 5.04 604.62 10.96 616.13 16.89 604.62 22.82 593.11 28.76"/><polygon class="cls-10" points="593.11 27.85 593.11 5.94 614.37 16.89 593.11 27.85"/><polygon class="cls-7" points="593.11 23.41 593.11 10.38 605.75 16.89 593.11 23.41"/><path class="cls-5" d="M560.31,3.63V-3.64h4.55c1.54,0,2.79,1.54,2.79,3.44V.2c0,1.9-1.25,3.43-2.79,3.43Z" transform="translate(32.8 16.9)"/><path class="cls-9" d="M560.31,1.52v-3h2.52a1,1,0,0,1,.87,1.07v.9a1,1,0,0,1-.87,1.07Z" transform="translate(32.8 16.9)"/><path class="cls-5" d="M623.18,16.89V-16.9L590.38,0Zm-2.73-5L608.94,5.93,597.42,0l11.52-5.93,11.51-5.93Z" transform="translate(32.8 16.9)"/><polygon class="cls-6" points="653.25 28.76 653.25 5.04 641.74 10.96 630.23 16.89 641.74 22.82 653.25 28.76"/><polygon class="cls-7" points="653.25 27.85 653.25 5.94 631.99 16.89 653.25 27.85"/><polygon class="cls-8" points="653.25 23.41 653.25 10.38 640.61 16.89 653.25 23.41"/><path class="cls-5" d="M620.45,3.63V-3.64H615.9c-1.55,0-2.8,1.54-2.8,3.44V.2c0,1.9,1.25,3.43,2.8,3.43Z" transform="translate(32.8 16.9)"/><path class="cls-9" d="M620.45,1.52v-3h-2.52a1,1,0,0,0-.88,1.07v.9a1,1,0,0,0,.88,1.07Z" transform="translate(32.8 16.9)"/><path class="cls-8" d="M656,0l-32.8-16.9V16.89ZM625.9-11.86l11.52,5.93L648.93,0,637.42,5.93,625.9,11.86Z" transform="translate(32.8 16.9)"/><polygon class="cls-6" points="658.71 28.76 658.71 5.04 670.22 10.96 681.73 16.89 670.22 22.82 658.71 28.76"/><polygon class="cls-10" points="658.71 27.85 658.71 5.94 679.97 16.89 658.71 27.85"/><polygon class="cls-8" points="658.71 23.41 658.71 10.38 671.35 16.89 658.71 23.41"/><path class="cls-5" d="M625.9,3.63V-3.64h4.55c1.55,0,2.8,1.54,2.8,3.44V.2c0,1.9-1.25,3.43-2.8,3.43Z" transform="translate(32.8 16.9)"/><path class="cls-9" d="M625.9,1.52v-3h2.53a1,1,0,0,1,.87,1.07v.9a1,1,0,0,1-.87,1.07Z" transform="translate(32.8 16.9)"/><path class="cls-5" d="M-32.8,16.89,0,33.79V0ZM-2.73,28.75l-11.51-5.93-11.51-5.93L-14.24,11-2.73,5Z" transform="translate(32.8 16.9)"/><polygon class="cls-6" points="30.07 21.93 30.07 45.65 18.56 39.72 7.05 33.79 18.56 27.86 30.07 21.93"/><polygon class="cls-7" points="30.07 22.84 30.07 44.74 8.81 33.79 30.07 22.84"/><polygon class="cls-8" points="30.07 27.28 30.07 40.3 17.43 33.79 30.07 27.28"/><path class="cls-5" d="M-2.73,13.26v7.27H-7.28c-1.54,0-2.8-1.54-2.8-3.44v-.4c0-1.9,1.26-3.43,2.8-3.43Z" transform="translate(32.8 16.9)"/><path class="cls-9" d="M-2.73,15.37v3H-5.25a1,1,0,0,1-.88-1.07v-.9a1,1,0,0,1,.88-1.07Z" transform="translate(32.8 16.9)"/><path class="cls-8" d="M0,0V33.79l32.8-16.9ZM2.73,5,14.24,11l11.51,5.93L14.24,22.82,2.73,28.75Z" transform="translate(32.8 16.9)"/><polygon class="cls-6" points="35.53 21.93 35.53 45.65 47.04 39.72 58.55 33.79 47.04 27.86 35.53 21.93"/><polygon class="cls-10" points="35.53 22.84 35.53 44.74 56.79 33.79 35.53 22.84"/><polygon class="cls-7" points="35.53 27.28 35.53 40.3 48.17 33.79 35.53 27.28"/><path class="cls-5" d="M2.73,13.26v7.27H7.28c1.54,0,2.79-1.54,2.79-3.44v-.4c0-1.9-1.25-3.43-2.79-3.43Z" transform="translate(32.8 16.9)"/><path class="cls-9" d="M2.73,15.37v3H5.25a1,1,0,0,0,.87-1.07v-.9a1,1,0,0,0-.87-1.07Z" transform="translate(32.8 16.9)"/><path class="cls-5" d="M32.8,16.89l32.8,16.9V0ZM62.87,28.75,51.36,22.82,39.84,16.89,51.36,11,62.87,5Z" transform="translate(32.8 16.9)"/><polygon class="cls-6" points="95.67 21.93 95.67 45.65 84.16 39.72 72.64 33.79 84.16 27.86 95.67 21.93"/><polygon class="cls-7" points="95.67 22.84 95.67 44.74 74.41 33.79 95.67 22.84"/><polygon class="cls-8" points="95.67 27.28 95.67 40.3 83.03 33.79 95.67 27.28"/><path class="cls-5" d="M62.87,13.26v7.27H58.32c-1.55,0-2.8-1.54-2.8-3.44v-.4c0-1.9,1.25-3.43,2.8-3.43Z" transform="translate(32.8 16.9)"/><path class="cls-9" d="M62.87,15.37v3H60.35a1,1,0,0,1-.88-1.07v-.9a1,1,0,0,1,.88-1.07Z" transform="translate(32.8 16.9)"/><path class="cls-8" d="M65.6,0V33.79l32.79-16.9Zm2.72,5L79.84,11l11.51,5.93L79.84,22.82,68.32,28.75Z" transform="translate(32.8 16.9)"/><polygon class="cls-6" points="101.13 21.93 101.13 45.65 112.64 39.72 124.15 33.79 112.64 27.86 101.13 21.93"/><polygon class="cls-10" points="101.13 22.84 101.13 44.74 122.39 33.79 101.13 22.84"/><polygon class="cls-7" points="101.13 27.28 101.13 40.3 113.77 33.79 101.13 27.28"/><path class="cls-5" d="M68.32,13.26v7.27h4.55c1.55,0,2.8-1.54,2.8-3.44v-.4c0-1.9-1.25-3.43-2.8-3.43Z" transform="translate(32.8 16.9)"/><path class="cls-9" d="M68.32,15.37v3h2.53a1,1,0,0,0,.87-1.07v-.9a1,1,0,0,0-.87-1.07Z" transform="translate(32.8 16.9)"/><path class="cls-5" d="M98.39,16.89l32.8,16.9V0Zm30.08,11.86L117,22.82l-11.51-5.93L117,11,128.47,5Z" transform="translate(32.8 16.9)"/><polygon class="cls-6" points="161.27 21.93 161.27 45.65 149.75 39.72 138.24 33.79 149.75 27.86 161.27 21.93"/><polygon class="cls-7" points="161.27 22.84 161.27 44.74 140 33.79 161.27 22.84"/><polygon class="cls-8" points="161.27 27.28 161.27 40.3 148.63 33.79 161.27 27.28"/><path class="cls-5" d="M128.47,13.26v7.27h-4.55c-1.55,0-2.8-1.54-2.8-3.44v-.4c0-1.9,1.25-3.43,2.8-3.43Z" transform="translate(32.8 16.9)"/><path class="cls-9" d="M128.47,15.37v3h-2.53a1,1,0,0,1-.87-1.07v-.9a1,1,0,0,1,.87-1.07Z" transform="translate(32.8 16.9)"/><path class="cls-8" d="M131.19,0V33.79L164,16.89Zm2.73,5L145.43,11,157,16.89l-11.52,5.93-11.51,5.93Z" transform="translate(32.8 16.9)"/><polygon class="cls-6" points="166.72 21.93 166.72 45.65 178.24 39.72 189.75 33.79 178.24 27.86 166.72 21.93"/><polygon class="cls-10" points="166.72 22.84 166.72 44.74 187.99 33.79 166.72 22.84"/><polygon class="cls-7" points="166.72 27.28 166.72 40.3 179.36 33.79 166.72 27.28"/><path class="cls-5" d="M133.92,13.26v7.27h4.55c1.55,0,2.8-1.54,2.8-3.44v-.4c0-1.9-1.25-3.43-2.8-3.43Z" transform="translate(32.8 16.9)"/><path class="cls-9" d="M133.92,15.37v3h2.52a1,1,0,0,0,.88-1.07v-.9a1,1,0,0,0-.88-1.07Z" transform="translate(32.8 16.9)"/><path class="cls-5" d="M164,16.89l32.8,16.9V0Zm30.07,11.86-11.51-5.93L171,16.89,182.55,11,194.06,5Z" transform="translate(32.8 16.9)"/><polygon class="cls-6" points="226.86 21.93 226.86 45.65 215.35 39.72 203.84 33.79 215.35 27.86 226.86 21.93"/><polygon class="cls-7" points="226.86 22.84 226.86 44.74 205.6 33.79 226.86 22.84"/><polygon class="cls-8" points="226.86 27.28 226.86 40.3 214.22 33.79 226.86 27.28"/><path class="cls-5" d="M194.06,13.26v7.27h-4.55c-1.54,0-2.79-1.54-2.79-3.44v-.4c0-1.9,1.25-3.43,2.79-3.43Z" transform="translate(32.8 16.9)"/><path class="cls-9" d="M194.06,15.37v3h-2.52a1,1,0,0,1-.87-1.07v-.9a1,1,0,0,1,.87-1.07Z" transform="translate(32.8 16.9)"/><path class="cls-8" d="M196.79,0V33.79l32.8-16.9Zm2.73,5L211,11l11.51,5.93L211,22.82l-11.51,5.93Z" transform="translate(32.8 16.9)"/><polygon class="cls-6" points="232.32 21.93 232.32 45.65 243.83 39.72 255.34 33.79 243.83 27.86 232.32 21.93"/><polygon class="cls-10" points="232.32 22.84 232.32 44.74 253.58 33.79 232.32 22.84"/><polygon class="cls-7" points="232.32 27.28 232.32 40.3 244.96 33.79 232.32 27.28"/><path class="cls-5" d="M199.52,13.26v7.27h4.55c1.54,0,2.8-1.54,2.8-3.44v-.4c0-1.9-1.26-3.43-2.8-3.43Z" transform="translate(32.8 16.9)"/><path class="cls-9" d="M199.52,15.37v3H202a1,1,0,0,0,.87-1.07v-.9a1,1,0,0,0-.87-1.07Z" transform="translate(32.8 16.9)"/><path class="cls-5" d="M229.59,16.89l32.8,16.9V0Zm30.07,11.86-11.51-5.93-11.51-5.93L248.15,11,259.66,5Z" transform="translate(32.8 16.9)"/><polygon class="cls-6" points="292.46 21.93 292.46 45.65 280.95 39.72 269.44 33.79 280.95 27.86 292.46 21.93"/><polygon class="cls-7" points="292.46 22.84 292.46 44.74 271.2 33.79 292.46 22.84"/><polygon class="cls-8" points="292.46 27.28 292.46 40.3 279.82 33.79 292.46 27.28"/><path class="cls-5" d="M259.66,13.26v7.27h-4.55c-1.54,0-2.8-1.54-2.8-3.44v-.4c0-1.9,1.26-3.43,2.8-3.43Z" transform="translate(32.8 16.9)"/><path class="cls-9" d="M259.66,15.37v3h-2.52a1,1,0,0,1-.87-1.07v-.9a1,1,0,0,1,.87-1.07Z" transform="translate(32.8 16.9)"/><path class="cls-8" d="M262.39,0V33.79l32.8-16.9Zm2.73,5L276.63,11l11.51,5.93-11.51,5.93-11.51,5.93Z" transform="translate(32.8 16.9)"/><polygon class="cls-6" points="297.92 21.93 297.92 45.65 309.43 39.72 320.94 33.79 309.43 27.86 297.92 21.93"/><polygon class="cls-10" points="297.92 22.84 297.92 44.74 319.18 33.79 297.92 22.84"/><polygon class="cls-7" points="297.92 27.28 297.92 40.3 310.56 33.79 297.92 27.28"/><path class="cls-5" d="M265.12,13.26v7.27h4.55c1.54,0,2.79-1.54,2.79-3.44v-.4c0-1.9-1.25-3.43-2.79-3.43Z" transform="translate(32.8 16.9)"/><path class="cls-9" d="M265.12,15.37v3h2.52a1,1,0,0,0,.87-1.07v-.9a1,1,0,0,0-.87-1.07Z" transform="translate(32.8 16.9)"/><path class="cls-5" d="M295.19,16.89,328,33.79V0Zm30.07,11.86-11.51-5.93-11.52-5.93L313.75,11,325.26,5Z" transform="translate(32.8 16.9)"/><polygon class="cls-6" points="358.06 21.93 358.06 45.65 346.55 39.72 335.04 33.79 346.55 27.86 358.06 21.93"/><polygon class="cls-7" points="358.06 22.84 358.06 44.74 336.8 33.79 358.06 22.84"/><polygon class="cls-8" points="358.06 27.28 358.06 40.3 345.42 33.79 358.06 27.28"/><path class="cls-5" d="M325.26,13.26v7.27h-4.55c-1.55,0-2.8-1.54-2.8-3.44v-.4c0-1.9,1.25-3.43,2.8-3.43Z" transform="translate(32.8 16.9)"/><path class="cls-9" d="M325.26,15.37v3h-2.52a1,1,0,0,1-.88-1.07v-.9a1,1,0,0,1,.88-1.07Z" transform="translate(32.8 16.9)"/><path class="cls-8" d="M328,0V33.79l32.8-16.9Zm2.72,5L342.23,11l11.51,5.93-11.51,5.93-11.52,5.93Z" transform="translate(32.8 16.9)"/><polygon class="cls-6" points="363.52 21.93 363.52 45.65 375.03 39.72 386.54 33.79 375.03 27.86 363.52 21.93"/><polygon class="cls-10" points="363.52 22.84 363.52 44.74 384.78 33.79 363.52 22.84"/><polygon class="cls-7" points="363.52 27.28 363.52 40.3 376.16 33.79 363.52 27.28"/><path class="cls-5" d="M330.71,13.26v7.27h4.55c1.55,0,2.8-1.54,2.8-3.44v-.4c0-1.9-1.25-3.43-2.8-3.43Z" transform="translate(32.8 16.9)"/><path class="cls-9" d="M330.71,15.37v3h2.53a1,1,0,0,0,.87-1.07v-.9a1,1,0,0,0-.87-1.07Z" transform="translate(32.8 16.9)"/><path class="cls-5" d="M360.79,16.89l32.79,16.9V0Zm30.07,11.86-11.52-5.93-11.51-5.93L379.34,11,390.86,5Z" transform="translate(32.8 16.9)"/><polygon class="cls-6" points="423.66 21.93 423.66 45.65 412.14 39.72 400.63 33.79 412.14 27.86 423.66 21.93"/><polygon class="cls-7" points="423.66 22.84 423.66 44.74 402.39 33.79 423.66 22.84"/><polygon class="cls-8" points="423.66 27.28 423.66 40.3 411.02 33.79 423.66 27.28"/><path class="cls-5" d="M390.86,13.26v7.27h-4.55c-1.55,0-2.8-1.54-2.8-3.44v-.4c0-1.9,1.25-3.43,2.8-3.43Z" transform="translate(32.8 16.9)"/><path class="cls-9" d="M390.86,15.37v3h-2.53a1,1,0,0,1-.87-1.07v-.9a1,1,0,0,1,.87-1.07Z" transform="translate(32.8 16.9)"/><path class="cls-8" d="M393.58,0V33.79l32.8-16.9Zm2.73,5L407.82,11l11.52,5.93-11.52,5.93-11.51,5.93Z" transform="translate(32.8 16.9)"/><polygon class="cls-6" points="429.11 21.93 429.11 45.65 440.63 39.72 452.14 33.79 440.63 27.86 429.11 21.93"/><polygon class="cls-10" points="429.11 22.84 429.11 44.74 450.38 33.79 429.11 22.84"/><polygon class="cls-7" points="429.11 27.28 429.11 40.3 441.75 33.79 429.11 27.28"/><path class="cls-5" d="M396.31,13.26v7.27h4.55c1.55,0,2.8-1.54,2.8-3.44v-.4c0-1.9-1.25-3.43-2.8-3.43Z" transform="translate(32.8 16.9)"/><path class="cls-9" d="M396.31,15.37v3h2.52a1,1,0,0,0,.88-1.07v-.9a1,1,0,0,0-.88-1.07Z" transform="translate(32.8 16.9)"/><path class="cls-5" d="M426.38,16.89l32.8,16.9V0Zm30.07,11.86-11.51-5.93-11.51-5.93L444.94,11,456.45,5Z" transform="translate(32.8 16.9)"/><polygon class="cls-6" points="489.25 21.93 489.25 45.65 477.74 39.72 466.23 33.79 477.74 27.86 489.25 21.93"/><polygon class="cls-7" points="489.25 22.84 489.25 44.74 467.99 33.79 489.25 22.84"/><polygon class="cls-8" points="489.25 27.28 489.25 40.3 476.62 33.79 489.25 27.28"/><path class="cls-5" d="M456.45,13.26v7.27H451.9c-1.54,0-2.79-1.54-2.79-3.44v-.4c0-1.9,1.25-3.43,2.79-3.43Z" transform="translate(32.8 16.9)"/><path class="cls-9" d="M456.45,15.37v3h-2.52a1,1,0,0,1-.87-1.07v-.9a1,1,0,0,1,.87-1.07Z" transform="translate(32.8 16.9)"/><path class="cls-8" d="M459.18,0V33.79L492,16.89Zm2.73,5L473.42,11l11.51,5.93-11.51,5.93-11.51,5.93Z" transform="translate(32.8 16.9)"/><polygon class="cls-6" points="494.71 21.93 494.71 45.65 506.22 39.72 517.74 33.79 506.22 27.86 494.71 21.93"/><polygon class="cls-10" points="494.71 22.84 494.71 44.74 515.97 33.79 494.71 22.84"/><polygon class="cls-7" points="494.71 27.28 494.71 40.3 507.35 33.79 494.71 27.28"/><path class="cls-5" d="M461.91,13.26v7.27h4.55c1.54,0,2.8-1.54,2.8-3.44v-.4c0-1.9-1.26-3.43-2.8-3.43Z" transform="translate(32.8 16.9)"/><path class="cls-9" d="M461.91,15.37v3h2.52a1,1,0,0,0,.87-1.07v-.9a1,1,0,0,0-.87-1.07Z" transform="translate(32.8 16.9)"/><path class="cls-5" d="M492,16.89l32.8,16.9V0Zm30.07,11.86-11.51-5.93L499,16.89,510.54,11,522.05,5Z" transform="translate(32.8 16.9)"/><polygon class="cls-6" points="554.85 21.93 554.85 45.65 543.34 39.72 531.83 33.79 543.34 27.86 554.85 21.93"/><polygon class="cls-7" points="554.85 22.84 554.85 44.74 533.59 33.79 554.85 22.84"/><polygon class="cls-8" points="554.85 27.28 554.85 40.3 542.21 33.79 554.85 27.28"/><path class="cls-5" d="M522.05,13.26v7.27H517.5c-1.54,0-2.8-1.54-2.8-3.44v-.4c0-1.9,1.26-3.43,2.8-3.43Z" transform="translate(32.8 16.9)"/><path class="cls-9" d="M522.05,15.37v3h-2.52a1,1,0,0,1-.87-1.07v-.9a1,1,0,0,1,.87-1.07Z" transform="translate(32.8 16.9)"/><path class="cls-8" d="M524.78,0V33.79l32.8-16.9Zm2.73,5L539,11l11.51,5.93L539,22.82l-11.51,5.93Z" transform="translate(32.8 16.9)"/><polygon class="cls-6" points="560.31 21.93 560.31 45.65 571.82 39.72 583.33 33.79 571.82 27.86 560.31 21.93"/><polygon class="cls-10" points="560.31 22.84 560.31 44.74 581.57 33.79 560.31 22.84"/><polygon class="cls-7" points="560.31 27.28 560.31 40.3 572.95 33.79 560.31 27.28"/><path class="cls-5" d="M527.51,13.26v7.27h4.55c1.54,0,2.8-1.54,2.8-3.44v-.4c0-1.9-1.26-3.43-2.8-3.43Z" transform="translate(32.8 16.9)"/><path class="cls-9" d="M527.51,15.37v3H530a1,1,0,0,0,.87-1.07v-.9a1,1,0,0,0-.87-1.07Z" transform="translate(32.8 16.9)"/><path class="cls-5" d="M557.58,16.89l32.8,16.9V0Zm30.07,11.86-11.51-5.93-11.51-5.93L576.14,11,587.65,5Z" transform="translate(32.8 16.9)"/><polygon class="cls-6" points="620.45 21.93 620.45 45.65 608.94 39.72 597.43 33.79 608.94 27.86 620.45 21.93"/><polygon class="cls-7" points="620.45 22.84 620.45 44.74 599.19 33.79 620.45 22.84"/><polygon class="cls-8" points="620.45 27.28 620.45 40.3 607.81 33.79 620.45 27.28"/><path class="cls-5" d="M587.65,13.26v7.27H583.1c-1.54,0-2.8-1.54-2.8-3.44v-.4c0-1.9,1.26-3.43,2.8-3.43Z" transform="translate(32.8 16.9)"/><path class="cls-9" d="M587.65,15.37v3h-2.52a1,1,0,0,1-.88-1.07v-.9a1,1,0,0,1,.88-1.07Z" transform="translate(32.8 16.9)"/><path class="cls-8" d="M590.38,0V33.79l32.8-16.9Zm2.73,5L604.62,11l11.51,5.93-11.51,5.93-11.51,5.93Z" transform="translate(32.8 16.9)"/><polygon class="cls-6" points="625.91 21.93 625.91 45.65 637.42 39.72 648.93 33.79 637.42 27.86 625.91 21.93"/><polygon class="cls-10" points="625.91 22.84 625.91 44.74 647.17 33.79 625.91 22.84"/><polygon class="cls-7" points="625.91 27.28 625.91 40.3 638.55 33.79 625.91 27.28"/><path class="cls-5" d="M593.11,13.26v7.27h4.55c1.54,0,2.79-1.54,2.79-3.44v-.4c0-1.9-1.25-3.43-2.79-3.43Z" transform="translate(32.8 16.9)"/><path class="cls-9" d="M593.11,15.37v3h2.52a1,1,0,0,0,.87-1.07v-.9a1,1,0,0,0-.87-1.07Z" transform="translate(32.8 16.9)"/><path class="cls-5" d="M623.41,17.72l32.8,16.89V.82Zm30.07,11.85L642,23.64l-11.51-5.92L642,11.79l11.51-5.94Z" transform="translate(32.8 16.9)"/><polygon class="cls-6" points="686.05 21.93 686.05 45.65 674.54 39.72 663.02 33.79 674.54 27.86 686.05 21.93"/><polygon class="cls-10" points="686.05 22.84 686.05 44.74 664.78 33.79 686.05 22.84"/><polygon class="cls-7" points="686.05 27.28 686.05 40.3 673.41 33.79 686.05 27.28"/><path class="cls-5" d="M653.25,13.26v7.27H648.7c-1.55,0-2.8-1.54-2.8-3.44v-.4c0-1.9,1.25-3.43,2.8-3.43Z" transform="translate(32.8 16.9)"/><path class="cls-9" d="M653.25,15.37v3h-2.52a1,1,0,0,1-.88-1.07v-.9a1,1,0,0,1,.88-1.07Z" transform="translate(32.8 16.9)"/><path class="cls-8" d="M656,0V33.79l32.79-16.9Zm2.72,5L670.22,11l11.51,5.93-11.51,5.93L658.7,28.75Z" transform="translate(32.8 16.9)"/><polygon class="cls-6" points="691.5 21.93 691.5 45.65 703.02 39.72 714.53 33.79 703.02 27.86 691.5 21.93"/><polygon class="cls-10" points="691.5 22.84 691.5 44.74 712.77 33.79 691.5 22.84"/><polygon class="cls-7" points="691.5 27.28 691.5 40.3 704.14 33.79 691.5 27.28"/><path class="cls-5" d="M658.7,13.26v7.27h4.55c1.55,0,2.8-1.54,2.8-3.44v-.4c0-1.9-1.25-3.43-2.8-3.43Z" transform="translate(32.8 16.9)"/><path class="cls-9" d="M658.7,15.37v3h2.52a1,1,0,0,0,.88-1.07v-.9a1,1,0,0,0-.88-1.07Z" transform="translate(32.8 16.9)"/></g></g></g><g class="cls-11"><g class="cls-12"><g class="cls-13"><path class="cls-5" d="M623.18,16.89V50.68L656,33.79Zm2.72,5,11.52,5.93,11.51,5.93-11.51,5.93L625.9,45.65Z" transform="translate(32.8 16.9)"/><polygon class="cls-6" points="658.71 38.82 658.71 62.54 670.22 56.61 681.73 50.68 670.22 44.75 658.71 38.82"/><polygon class="cls-7" points="658.71 39.73 658.71 61.64 679.97 50.68 658.71 39.73"/><polygon class="cls-8" points="658.71 44.17 658.71 57.2 671.35 50.68 658.71 44.17"/><path class="cls-5" d="M625.9,30.15v7.27h4.55c1.55,0,2.8-1.54,2.8-3.43v-.41c0-1.89-1.25-3.43-2.8-3.43Z" transform="translate(32.8 16.9)"/><path class="cls-9" d="M625.9,32.27v3h2.53a1,1,0,0,0,.87-1.07v-.89a1,1,0,0,0-.87-1.07Z" transform="translate(32.8 16.9)"/><path class="cls-8" d="M590.38,33.79l32.8,16.89V16.89Zm30.07,11.86-11.51-5.93-11.52-5.93,11.52-5.93,11.51-5.93Z" transform="translate(32.8 16.9)"/><polygon class="cls-6" points="653.25 38.82 653.25 62.54 641.74 56.61 630.23 50.68 641.74 44.75 653.25 38.82"/><polygon class="cls-10" points="653.25 39.73 653.25 61.64 631.99 50.68 653.25 39.73"/><polygon class="cls-7" points="653.25 44.17 653.25 57.2 640.61 50.68 653.25 44.17"/><path class="cls-5" d="M620.45,30.15v7.27H615.9c-1.55,0-2.8-1.54-2.8-3.43v-.41c0-1.89,1.25-3.43,2.8-3.43Z" transform="translate(32.8 16.9)"/><path class="cls-9" d="M620.45,32.27v3h-2.52a1,1,0,0,1-.88-1.07v-.89a1,1,0,0,1,.88-1.07Z" transform="translate(32.8 16.9)"/><path class="cls-5" d="M557.58,16.89V50.68l32.8-16.89Zm2.73,5,11.51,5.93,11.51,5.93-11.51,5.93-11.51,5.93Z" transform="translate(32.8 16.9)"/><polygon class="cls-6" points="593.11 38.82 593.11 62.54 604.62 56.61 616.13 50.68 604.62 44.75 593.11 38.82"/><polygon class="cls-7" points="593.11 39.73 593.11 61.64 614.37 50.68 593.11 39.73"/><polygon class="cls-8" points="593.11 44.17 593.11 57.2 605.75 50.68 593.11 44.17"/><path class="cls-5" d="M560.31,30.15v7.27h4.55c1.54,0,2.79-1.54,2.79-3.43v-.41c0-1.89-1.25-3.43-2.79-3.43Z" transform="translate(32.8 16.9)"/><path class="cls-9" d="M560.31,32.27v3h2.52a1,1,0,0,0,.87-1.07v-.89a1,1,0,0,0-.87-1.07Z" transform="translate(32.8 16.9)"/><path class="cls-8" d="M524.78,33.79l32.8,16.89V16.89Zm30.07,11.86-11.51-5.93-11.51-5.93,11.51-5.93,11.51-5.93Z" transform="translate(32.8 16.9)"/><polygon class="cls-6" points="587.65 38.82 587.65 62.54 576.14 56.61 564.63 50.68 576.14 44.75 587.65 38.82"/><polygon class="cls-10" points="587.65 39.73 587.65 61.64 566.39 50.68 587.65 39.73"/><polygon class="cls-7" points="587.65 44.17 587.65 57.2 575.01 50.68 587.65 44.17"/><path class="cls-5" d="M554.85,30.15v7.27H550.3c-1.54,0-2.8-1.54-2.8-3.43v-.41c0-1.89,1.26-3.43,2.8-3.43Z" transform="translate(32.8 16.9)"/><path class="cls-9" d="M554.85,32.27v3h-2.52a1,1,0,0,1-.87-1.07v-.89a1,1,0,0,1,.87-1.07Z" transform="translate(32.8 16.9)"/><path class="cls-5" d="M492,16.89V50.68l32.8-16.89Zm2.73,5,11.51,5.93,11.51,5.93-11.51,5.93-11.51,5.93Z" transform="translate(32.8 16.9)"/><polygon class="cls-6" points="527.51 38.82 527.51 62.54 539.02 56.61 550.53 50.68 539.02 44.75 527.51 38.82"/><polygon class="cls-7" points="527.51 39.73 527.51 61.64 548.77 50.68 527.51 39.73"/><polygon class="cls-8" points="527.51 44.17 527.51 57.2 540.15 50.68 527.51 44.17"/><path class="cls-5" d="M494.71,30.15v7.27h4.55c1.54,0,2.8-1.54,2.8-3.43v-.41c0-1.89-1.26-3.43-2.8-3.43Z" transform="translate(32.8 16.9)"/><path class="cls-9" d="M494.71,32.27v3h2.52a1,1,0,0,0,.87-1.07v-.89a1,1,0,0,0-.87-1.07Z" transform="translate(32.8 16.9)"/><path class="cls-8" d="M459.18,33.79,492,50.68V16.89Zm30.07,11.86-11.51-5.93-11.51-5.93,11.51-5.93,11.51-5.93Z" transform="translate(32.8 16.9)"/><polygon class="cls-6" points="522.05 38.82 522.05 62.54 510.54 56.61 499.03 50.68 510.54 44.75 522.05 38.82"/><polygon class="cls-10" points="522.05 39.73 522.05 61.64 500.79 50.68 522.05 39.73"/><polygon class="cls-7" points="522.05 44.17 522.05 57.2 509.41 50.68 522.05 44.17"/><path class="cls-5" d="M489.25,30.15v7.27H484.7c-1.54,0-2.8-1.54-2.8-3.43v-.41c0-1.89,1.26-3.43,2.8-3.43Z" transform="translate(32.8 16.9)"/><path class="cls-9" d="M489.25,32.27v3h-2.52a1,1,0,0,1-.87-1.07v-.89a1,1,0,0,1,.87-1.07Z" transform="translate(32.8 16.9)"/><path class="cls-5" d="M426.38,16.89V50.68l32.8-16.89Zm2.73,5,11.51,5.93,11.52,5.93-11.52,5.93-11.51,5.93Z" transform="translate(32.8 16.9)"/><polygon class="cls-6" points="461.91 38.82 461.91 62.54 473.42 56.61 484.94 50.68 473.42 44.75 461.91 38.82"/><polygon class="cls-7" points="461.91 39.73 461.91 61.64 483.18 50.68 461.91 39.73"/><polygon class="cls-8" points="461.91 44.17 461.91 57.2 474.55 50.68 461.91 44.17"/><path class="cls-5" d="M429.11,30.15v7.27h4.55c1.55,0,2.8-1.54,2.8-3.43v-.41c0-1.89-1.25-3.43-2.8-3.43Z" transform="translate(32.8 16.9)"/><path class="cls-9" d="M429.11,32.27v3h2.52a1,1,0,0,0,.88-1.07v-.89a1,1,0,0,0-.88-1.07Z" transform="translate(32.8 16.9)"/><path class="cls-8" d="M393.58,33.79l32.8,16.89V16.89Zm30.07,11.86-11.51-5.93-11.51-5.93,11.51-5.93,11.51-5.93Z" transform="translate(32.8 16.9)"/><polygon class="cls-6" points="456.46 38.82 456.46 62.54 444.94 56.61 433.43 50.68 444.94 44.75 456.46 38.82"/><polygon class="cls-10" points="456.46 39.73 456.46 61.64 435.19 50.68 456.46 39.73"/><polygon class="cls-7" points="456.46 44.17 456.46 57.2 443.82 50.68 456.46 44.17"/><path class="cls-5" d="M423.65,30.15v7.27h-4.54c-1.55,0-2.8-1.54-2.8-3.43v-.41c0-1.89,1.25-3.43,2.8-3.43Z" transform="translate(32.8 16.9)"/><path class="cls-9" d="M423.65,32.27v3h-2.52a1,1,0,0,1-.87-1.07v-.89a1,1,0,0,1,.87-1.07Z" transform="translate(32.8 16.9)"/><path class="cls-5" d="M360.79,16.89V50.68l32.79-16.89Zm2.72,5L375,27.86l11.51,5.93L375,39.72l-11.52,5.93Z" transform="translate(32.8 16.9)"/><polygon class="cls-6" points="396.31 38.82 396.31 62.54 407.83 56.61 419.34 50.68 407.83 44.75 396.31 38.82"/><polygon class="cls-7" points="396.31 39.73 396.31 61.64 417.58 50.68 396.31 39.73"/><polygon class="cls-8" points="396.31 44.17 396.31 57.2 408.95 50.68 396.31 44.17"/><path class="cls-5" d="M363.51,30.15v7.27h4.55c1.55,0,2.8-1.54,2.8-3.43v-.41c0-1.89-1.25-3.43-2.8-3.43Z" transform="translate(32.8 16.9)"/><path class="cls-9" d="M363.51,32.27v3H366a1,1,0,0,0,.88-1.07v-.89a1,1,0,0,0-.88-1.07Z" transform="translate(32.8 16.9)"/><path class="cls-8" d="M328,33.79l32.8,16.89V16.89Zm30.07,11.86-11.51-5.93L335,33.79l11.52-5.93,11.51-5.93Z" transform="translate(32.8 16.9)"/><polygon class="cls-6" points="390.86 38.82 390.86 62.54 379.35 56.61 367.83 50.68 379.35 44.75 390.86 38.82"/><polygon class="cls-10" points="390.86 39.73 390.86 61.64 369.6 50.68 390.86 39.73"/><polygon class="cls-7" points="390.86 44.17 390.86 57.2 378.22 50.68 390.86 44.17"/><path class="cls-5" d="M358.06,30.15v7.27h-4.55c-1.55,0-2.8-1.54-2.8-3.43v-.41c0-1.89,1.25-3.43,2.8-3.43Z" transform="translate(32.8 16.9)"/><path class="cls-9" d="M358.06,32.27v3h-2.52a1,1,0,0,1-.88-1.07v-.89a1,1,0,0,1,.88-1.07Z" transform="translate(32.8 16.9)"/><path class="cls-5" d="M295.19,16.89V50.68L328,33.79Zm2.73,5,11.51,5.93,11.51,5.93-11.51,5.93-11.51,5.93Z" transform="translate(32.8 16.9)"/><polygon class="cls-6" points="330.72 38.82 330.72 62.54 342.23 56.61 353.74 50.68 342.23 44.75 330.72 38.82"/><polygon class="cls-7" points="330.72 39.73 330.72 61.64 351.98 50.68 330.72 39.73"/><polygon class="cls-8" points="330.72 44.17 330.72 57.2 343.36 50.68 330.72 44.17"/><path class="cls-5" d="M297.92,30.15v7.27h4.55c1.54,0,2.79-1.54,2.79-3.43v-.41c0-1.89-1.25-3.43-2.79-3.43Z" transform="translate(32.8 16.9)"/><path class="cls-9" d="M297.92,32.27v3h2.52a1,1,0,0,0,.87-1.07v-.89a1,1,0,0,0-.87-1.07Z" transform="translate(32.8 16.9)"/><path class="cls-8" d="M262.39,33.79l32.8,16.89V16.89Zm30.07,11.86L281,39.72l-11.51-5.93L281,27.86l11.51-5.93Z" transform="translate(32.8 16.9)"/><polygon class="cls-6" points="325.26 38.82 325.26 62.54 313.75 56.61 302.24 50.68 313.75 44.75 325.26 38.82"/><polygon class="cls-10" points="325.26 39.73 325.26 61.64 304 50.68 325.26 39.73"/><polygon class="cls-7" points="325.26 44.17 325.26 57.2 312.62 50.68 325.26 44.17"/><path class="cls-5" d="M292.46,30.15v7.27h-4.55c-1.54,0-2.8-1.54-2.8-3.43v-.41c0-1.89,1.26-3.43,2.8-3.43Z" transform="translate(32.8 16.9)"/><path class="cls-9" d="M292.46,32.27v3h-2.52a1,1,0,0,1-.88-1.07v-.89a1,1,0,0,1,.88-1.07Z" transform="translate(32.8 16.9)"/><path class="cls-5" d="M229.59,16.89V50.68l32.8-16.89Zm2.73,5,11.51,5.93,11.51,5.93-11.51,5.93-11.51,5.93Z" transform="translate(32.8 16.9)"/><polygon class="cls-6" points="265.12 38.82 265.12 62.54 276.63 56.61 288.14 50.68 276.63 44.75 265.12 38.82"/><polygon class="cls-7" points="265.12 39.73 265.12 61.64 286.38 50.68 265.12 39.73"/><polygon class="cls-8" points="265.12 44.17 265.12 57.2 277.76 50.68 265.12 44.17"/><path class="cls-5" d="M232.32,30.15v7.27h4.55c1.54,0,2.8-1.54,2.8-3.43v-.41c0-1.89-1.26-3.43-2.8-3.43Z" transform="translate(32.8 16.9)"/><path class="cls-9" d="M232.32,32.27v3h2.52a1,1,0,0,0,.87-1.07v-.89a1,1,0,0,0-.87-1.07Z" transform="translate(32.8 16.9)"/><path class="cls-8" d="M196.79,33.79l32.8,16.89V16.89Zm30.07,11.86-11.51-5.93-11.51-5.93,11.51-5.93,11.51-5.93Z" transform="translate(32.8 16.9)"/><polygon class="cls-6" points="259.66 38.82 259.66 62.54 248.15 56.61 236.64 50.68 248.15 44.75 259.66 38.82"/><polygon class="cls-10" points="259.66 39.73 259.66 61.64 238.4 50.68 259.66 39.73"/><polygon class="cls-7" points="259.66 44.17 259.66 57.2 247.02 50.68 259.66 44.17"/><path class="cls-5" d="M226.86,30.15v7.27h-4.55c-1.54,0-2.8-1.54-2.8-3.43v-.41c0-1.89,1.26-3.43,2.8-3.43Z" transform="translate(32.8 16.9)"/><path class="cls-9" d="M226.86,32.27v3h-2.52a1,1,0,0,1-.87-1.07v-.89a1,1,0,0,1,.87-1.07Z" transform="translate(32.8 16.9)"/><path class="cls-5" d="M164,16.89V50.68l32.8-16.89Zm2.73,5,11.51,5.93,11.51,5.93-11.51,5.93-11.51,5.93Z" transform="translate(32.8 16.9)"/><polygon class="cls-6" points="199.52 38.82 199.52 62.54 211.03 56.61 222.54 50.68 211.03 44.75 199.52 38.82"/><polygon class="cls-7" points="199.52 39.73 199.52 61.64 220.78 50.68 199.52 39.73"/><polygon class="cls-8" points="199.52 44.17 199.52 57.2 212.16 50.68 199.52 44.17"/><path class="cls-5" d="M166.72,30.15v7.27h4.55c1.54,0,2.8-1.54,2.8-3.43v-.41c0-1.89-1.26-3.43-2.8-3.43Z" transform="translate(32.8 16.9)"/><path class="cls-9" d="M166.72,32.27v3h2.52a1,1,0,0,0,.87-1.07v-.89a1,1,0,0,0-.87-1.07Z" transform="translate(32.8 16.9)"/><path class="cls-8" d="M131.19,33.79,164,50.68V16.89Zm30.07,11.86-11.51-5.93-11.51-5.93,11.51-5.93,11.51-5.93Z" transform="translate(32.8 16.9)"/><polygon class="cls-6" points="194.06 38.82 194.06 62.54 182.55 56.61 171.04 50.68 182.55 44.75 194.06 38.82"/><polygon class="cls-10" points="194.06 39.73 194.06 61.64 172.8 50.68 194.06 39.73"/><polygon class="cls-7" points="194.06 44.17 194.06 57.2 181.43 50.68 194.06 44.17"/><path class="cls-5" d="M161.26,30.15v7.27h-4.55c-1.54,0-2.79-1.54-2.79-3.43v-.41c0-1.89,1.25-3.43,2.79-3.43Z" transform="translate(32.8 16.9)"/><path class="cls-9" d="M161.26,32.27v3h-2.52a1,1,0,0,1-.87-1.07v-.89a1,1,0,0,1,.87-1.07Z" transform="translate(32.8 16.9)"/><path class="cls-5" d="M98.39,16.89V50.68l32.8-16.89Zm2.73,5,11.51,5.93,11.52,5.93-11.52,5.93-11.51,5.93Z" transform="translate(32.8 16.9)"/><polygon class="cls-6" points="133.92 38.82 133.92 62.54 145.44 56.61 156.95 50.68 145.44 44.75 133.92 38.82"/><polygon class="cls-7" points="133.92 39.73 133.92 61.64 155.19 50.68 133.92 39.73"/><polygon class="cls-8" points="133.92 44.17 133.92 57.2 146.56 50.68 133.92 44.17"/><path class="cls-5" d="M101.12,30.15v7.27h4.55c1.55,0,2.8-1.54,2.8-3.43v-.41c0-1.89-1.25-3.43-2.8-3.43Z" transform="translate(32.8 16.9)"/><path class="cls-9" d="M101.12,32.27v3h2.52a1,1,0,0,0,.88-1.07v-.89a1,1,0,0,0-.88-1.07Z" transform="translate(32.8 16.9)"/><path class="cls-8" d="M65.6,33.79,98.39,50.68V16.89ZM95.67,45.65,84.15,39.72,72.64,33.79l11.51-5.93,11.52-5.93Z" transform="translate(32.8 16.9)"/><polygon class="cls-6" points="128.47 38.82 128.47 62.54 116.95 56.61 105.44 50.68 116.95 44.75 128.47 38.82"/><polygon class="cls-10" points="128.47 39.73 128.47 61.64 107.2 50.68 128.47 39.73"/><polygon class="cls-7" points="128.47 44.17 128.47 57.2 115.83 50.68 128.47 44.17"/><path class="cls-5" d="M95.67,30.15v7.27H91.12c-1.55,0-2.8-1.54-2.8-3.43v-.41c0-1.89,1.25-3.43,2.8-3.43Z" transform="translate(32.8 16.9)"/><path class="cls-9" d="M95.67,32.27v3H93.14a1,1,0,0,1-.87-1.07v-.89a1,1,0,0,1,.87-1.07Z" transform="translate(32.8 16.9)"/><path class="cls-5" d="M32.8,16.89V50.68L65.6,33.79Zm2.72,5L47,27.86l11.51,5.93L47,39.72,35.52,45.65Z" transform="translate(32.8 16.9)"/><polygon class="cls-6" points="68.33 38.82 68.33 62.54 79.84 56.61 91.35 50.68 79.84 44.75 68.33 38.82"/><polygon class="cls-7" points="68.33 39.73 68.33 61.64 89.59 50.68 68.33 39.73"/><polygon class="cls-8" points="68.33 44.17 68.33 57.2 80.97 50.68 68.33 44.17"/><path class="cls-5" d="M35.52,30.15v7.27h4.55c1.55,0,2.8-1.54,2.8-3.43v-.41c0-1.89-1.25-3.43-2.8-3.43Z" transform="translate(32.8 16.9)"/><path class="cls-9" d="M35.52,32.27v3h2.53a1,1,0,0,0,.87-1.07v-.89a1,1,0,0,0-.87-1.07Z" transform="translate(32.8 16.9)"/><path class="cls-8" d="M0,33.79,32.8,50.68V16.89ZM30.07,45.65,18.56,39.72,7,33.79l11.52-5.93,11.51-5.93Z" transform="translate(32.8 16.9)"/><polygon class="cls-6" points="62.87 38.82 62.87 62.54 51.36 56.61 39.85 50.68 51.36 44.75 62.87 38.82"/><polygon class="cls-10" points="62.87 39.73 62.87 61.64 41.61 50.68 62.87 39.73"/><polygon class="cls-7" points="62.87 44.17 62.87 57.2 50.23 50.68 62.87 44.17"/><path class="cls-5" d="M30.07,30.15v7.27H25.52c-1.55,0-2.8-1.54-2.8-3.43v-.41c0-1.89,1.25-3.43,2.8-3.43Z" transform="translate(32.8 16.9)"/><path class="cls-9" d="M30.07,32.27v3H27.55a1,1,0,0,1-.88-1.07v-.89a1,1,0,0,1,.88-1.07Z" transform="translate(32.8 16.9)"/><path class="cls-5" d="M656,0,623.18-16.9V16.89ZM625.9-11.86l11.52,5.93L648.93,0,637.42,5.93,625.9,11.86Z" transform="translate(32.8 16.9)"/><polygon class="cls-6" points="658.71 28.76 658.71 5.04 670.22 10.96 681.73 16.89 670.22 22.82 658.71 28.76"/><polygon class="cls-7" points="658.71 27.85 658.71 5.94 679.97 16.89 658.71 27.85"/><polygon class="cls-8" points="658.71 23.41 658.71 10.38 671.35 16.89 658.71 23.41"/><path class="cls-5" d="M625.9,3.63V-3.64h4.55c1.55,0,2.8,1.54,2.8,3.44V.2c0,1.9-1.25,3.43-2.8,3.43Z" transform="translate(32.8 16.9)"/><path class="cls-9" d="M625.9,1.52v-3h2.53a1,1,0,0,1,.87,1.07v.9a1,1,0,0,1-.87,1.07Z" transform="translate(32.8 16.9)"/><path class="cls-8" d="M623.18,16.89V-16.9L590.38,0Zm-2.73-5L608.94,5.93,597.42,0l11.52-5.93,11.51-5.93Z" transform="translate(32.8 16.9)"/><polygon class="cls-6" points="653.25 28.76 653.25 5.04 641.74 10.96 630.23 16.89 641.74 22.82 653.25 28.76"/><polygon class="cls-10" points="653.25 27.85 653.25 5.94 631.99 16.89 653.25 27.85"/><polygon class="cls-7" points="653.25 23.41 653.25 10.38 640.61 16.89 653.25 23.41"/><path class="cls-5" d="M620.45,3.63V-3.64H615.9c-1.55,0-2.8,1.54-2.8,3.44V.2c0,1.9,1.25,3.43,2.8,3.43Z" transform="translate(32.8 16.9)"/><path class="cls-9" d="M620.45,1.52v-3h-2.52a1,1,0,0,0-.88,1.07v.9a1,1,0,0,0,.88,1.07Z" transform="translate(32.8 16.9)"/><path class="cls-5" d="M590.38,0l-32.8-16.9V16.89ZM560.31-11.86l11.51,5.93L583.33,0,571.82,5.93l-11.51,5.93Z" transform="translate(32.8 16.9)"/><polygon class="cls-6" points="593.11 28.76 593.11 5.04 604.62 10.96 616.13 16.89 604.62 22.82 593.11 28.76"/><polygon class="cls-7" points="593.11 27.85 593.11 5.94 614.37 16.89 593.11 27.85"/><polygon class="cls-8" points="593.11 23.41 593.11 10.38 605.75 16.89 593.11 23.41"/><path class="cls-5" d="M560.31,3.63V-3.64h4.55c1.54,0,2.79,1.54,2.79,3.44V.2c0,1.9-1.25,3.43-2.79,3.43Z" transform="translate(32.8 16.9)"/><path class="cls-9" d="M560.31,1.52v-3h2.52a1,1,0,0,1,.87,1.07v.9a1,1,0,0,1-.87,1.07Z" transform="translate(32.8 16.9)"/><path class="cls-8" d="M557.58,16.89V-16.9L524.78,0Zm-2.73-5L543.34,5.93,531.83,0l11.51-5.93,11.51-5.93Z" transform="translate(32.8 16.9)"/><polygon class="cls-6" points="587.65 28.76 587.65 5.04 576.14 10.96 564.63 16.89 576.14 22.82 587.65 28.76"/><polygon class="cls-10" points="587.65 27.85 587.65 5.94 566.39 16.89 587.65 27.85"/><polygon class="cls-7" points="587.65 23.41 587.65 10.38 575.01 16.89 587.65 23.41"/><path class="cls-5" d="M554.85,3.63V-3.64H550.3c-1.54,0-2.8,1.54-2.8,3.44V.2c0,1.9,1.26,3.43,2.8,3.43Z" transform="translate(32.8 16.9)"/><path class="cls-9" d="M554.85,1.52v-3h-2.52a1,1,0,0,0-.87,1.07v.9a1,1,0,0,0,.87,1.07Z" transform="translate(32.8 16.9)"/><path class="cls-5" d="M524.78,0,492-16.9V16.89ZM494.71-11.86l11.51,5.93L517.73,0,506.22,5.93l-11.51,5.93Z" transform="translate(32.8 16.9)"/><polygon class="cls-6" points="527.51 28.76 527.51 5.04 539.02 10.96 550.53 16.89 539.02 22.82 527.51 28.76"/><polygon class="cls-7" points="527.51 27.85 527.51 5.94 548.77 16.89 527.51 27.85"/><polygon class="cls-8" points="527.51 23.41 527.51 10.38 540.15 16.89 527.51 23.41"/><path class="cls-5" d="M494.71,3.63V-3.64h4.55c1.54,0,2.8,1.54,2.8,3.44V.2c0,1.9-1.26,3.43-2.8,3.43Z" transform="translate(32.8 16.9)"/><path class="cls-9" d="M494.71,1.52v-3h2.52a1,1,0,0,1,.87,1.07v.9a1,1,0,0,1-.87,1.07Z" transform="translate(32.8 16.9)"/><path class="cls-8" d="M492,16.89V-16.9L459.18,0Zm-2.73-5L477.74,5.93,466.23,0l11.51-5.93,11.51-5.93Z" transform="translate(32.8 16.9)"/><polygon class="cls-6" points="522.05 28.76 522.05 5.04 510.54 10.96 499.03 16.89 510.54 22.82 522.05 28.76"/><polygon class="cls-10" points="522.05 27.85 522.05 5.94 500.79 16.89 522.05 27.85"/><polygon class="cls-7" points="522.05 23.41 522.05 10.38 509.41 16.89 522.05 23.41"/><path class="cls-5" d="M489.25,3.63V-3.64H484.7c-1.54,0-2.8,1.54-2.8,3.44V.2c0,1.9,1.26,3.43,2.8,3.43Z" transform="translate(32.8 16.9)"/><path class="cls-9" d="M489.25,1.52v-3h-2.52a1,1,0,0,0-.87,1.07v.9a1,1,0,0,0,.87,1.07Z" transform="translate(32.8 16.9)"/><path class="cls-5" d="M459.18,0l-32.8-16.9V16.89ZM429.11-11.86l11.51,5.93L452.14,0,440.62,5.93l-11.51,5.93Z" transform="translate(32.8 16.9)"/><polygon class="cls-6" points="461.91 28.76 461.91 5.04 473.42 10.96 484.94 16.89 473.42 22.82 461.91 28.76"/><polygon class="cls-7" points="461.91 27.85 461.91 5.94 483.18 16.89 461.91 27.85"/><polygon class="cls-8" points="461.91 23.41 461.91 10.38 474.55 16.89 461.91 23.41"/><path class="cls-5" d="M429.11,3.63V-3.64h4.55c1.55,0,2.8,1.54,2.8,3.44V.2c0,1.9-1.25,3.43-2.8,3.43Z" transform="translate(32.8 16.9)"/><path class="cls-9" d="M429.11,1.52v-3h2.52a1,1,0,0,1,.88,1.07v.9a1,1,0,0,1-.88,1.07Z" transform="translate(32.8 16.9)"/><path class="cls-8" d="M426.38,16.89V-16.9L393.58,0Zm-2.73-5L412.14,5.93,400.63,0l11.51-5.93,11.51-5.93Z" transform="translate(32.8 16.9)"/><polygon class="cls-6" points="456.46 28.76 456.46 5.04 444.94 10.96 433.43 16.89 444.94 22.82 456.46 28.76"/><polygon class="cls-10" points="456.46 27.85 456.46 5.94 435.19 16.89 456.46 27.85"/><polygon class="cls-7" points="456.46 23.41 456.46 10.38 443.82 16.89 456.46 23.41"/><path class="cls-5" d="M423.65,3.63V-3.64h-4.54c-1.55,0-2.8,1.54-2.8,3.44V.2c0,1.9,1.25,3.43,2.8,3.43Z" transform="translate(32.8 16.9)"/><path class="cls-9" d="M423.65,1.52v-3h-2.52a1,1,0,0,0-.87,1.07v.9a1,1,0,0,0,.87,1.07Z" transform="translate(32.8 16.9)"/><path class="cls-5" d="M393.58,0,360.79-16.9V16.89ZM363.51-11.86,375-5.93,386.54,0,375,5.93l-11.52,5.93Z" transform="translate(32.8 16.9)"/><polygon class="cls-6" points="396.31 28.76 396.31 5.04 407.83 10.96 419.34 16.89 407.83 22.82 396.31 28.76"/><polygon class="cls-7" points="396.31 27.85 396.31 5.94 417.58 16.89 396.31 27.85"/><polygon class="cls-8" points="396.31 23.41 396.31 10.38 408.95 16.89 396.31 23.41"/><path class="cls-5" d="M363.51,3.63V-3.64h4.55c1.55,0,2.8,1.54,2.8,3.44V.2c0,1.9-1.25,3.43-2.8,3.43Z" transform="translate(32.8 16.9)"/><path class="cls-9" d="M363.51,1.52v-3H366a1,1,0,0,1,.88,1.07v.9A1,1,0,0,1,366,1.52Z" transform="translate(32.8 16.9)"/><path class="cls-8" d="M360.79,16.89V-16.9L328,0Zm-2.73-5L346.55,5.93,335,0l11.52-5.93,11.51-5.93Z" transform="translate(32.8 16.9)"/><polygon class="cls-6" points="390.86 28.76 390.86 5.04 379.35 10.96 367.83 16.89 379.35 22.82 390.86 28.76"/><polygon class="cls-10" points="390.86 27.85 390.86 5.94 369.6 16.89 390.86 27.85"/><polygon class="cls-7" points="390.86 23.41 390.86 10.38 378.22 16.89 390.86 23.41"/><path class="cls-5" d="M358.06,3.63V-3.64h-4.55c-1.55,0-2.8,1.54-2.8,3.44V.2c0,1.9,1.25,3.43,2.8,3.43Z" transform="translate(32.8 16.9)"/><path class="cls-9" d="M358.06,1.52v-3h-2.52a1,1,0,0,0-.88,1.07v.9a1,1,0,0,0,.88,1.07Z" transform="translate(32.8 16.9)"/><path class="cls-5" d="M328,0l-32.8-16.9V16.89ZM297.92-11.86l11.51,5.93L320.94,0,309.43,5.93l-11.51,5.93Z" transform="translate(32.8 16.9)"/><polygon class="cls-6" points="330.72 28.76 330.72 5.04 342.23 10.96 353.74 16.89 342.23 22.82 330.72 28.76"/><polygon class="cls-7" points="330.72 27.85 330.72 5.94 351.98 16.89 330.72 27.85"/><polygon class="cls-8" points="330.72 23.41 330.72 10.38 343.36 16.89 330.72 23.41"/><path class="cls-5" d="M297.92,3.63V-3.64h4.55c1.54,0,2.79,1.54,2.79,3.44V.2c0,1.9-1.25,3.43-2.79,3.43Z" transform="translate(32.8 16.9)"/><path class="cls-9" d="M297.92,1.52v-3h2.52a1,1,0,0,1,.87,1.07v.9a1,1,0,0,1-.87,1.07Z" transform="translate(32.8 16.9)"/><path class="cls-8" d="M295.19,16.89V-16.9L262.39,0Zm-2.73-5L281,5.93,269.44,0,281-5.93l11.51-5.93Z" transform="translate(32.8 16.9)"/><polygon class="cls-6" points="325.26 28.76 325.26 5.04 313.75 10.96 302.24 16.89 313.75 22.82 325.26 28.76"/><polygon class="cls-10" points="325.26 27.85 325.26 5.94 304 16.89 325.26 27.85"/><polygon class="cls-7" points="325.26 23.41 325.26 10.38 312.62 16.89 325.26 23.41"/><path class="cls-5" d="M292.46,3.63V-3.64h-4.55c-1.54,0-2.8,1.54-2.8,3.44V.2c0,1.9,1.26,3.43,2.8,3.43Z" transform="translate(32.8 16.9)"/><path class="cls-9" d="M292.46,1.52v-3h-2.52a1,1,0,0,0-.88,1.07v.9a1,1,0,0,0,.88,1.07Z" transform="translate(32.8 16.9)"/><path class="cls-5" d="M262.39,0l-32.8-16.9V16.89ZM232.32-11.86l11.51,5.93L255.34,0,243.83,5.93l-11.51,5.93Z" transform="translate(32.8 16.9)"/><polygon class="cls-6" points="265.12 28.76 265.12 5.04 276.63 10.96 288.14 16.89 276.63 22.82 265.12 28.76"/><polygon class="cls-7" points="265.12 27.85 265.12 5.94 286.38 16.89 265.12 27.85"/><polygon class="cls-8" points="265.12 23.41 265.12 10.38 277.76 16.89 265.12 23.41"/><path class="cls-5" d="M232.32,3.63V-3.64h4.55c1.54,0,2.8,1.54,2.8,3.44V.2c0,1.9-1.26,3.43-2.8,3.43Z" transform="translate(32.8 16.9)"/><path class="cls-9" d="M232.32,1.52v-3h2.52a1,1,0,0,1,.87,1.07v.9a1,1,0,0,1-.87,1.07Z" transform="translate(32.8 16.9)"/><path class="cls-8" d="M229.59,16.89V-16.9L196.79,0Zm-2.73-5L215.35,5.93,203.84,0l11.51-5.93,11.51-5.93Z" transform="translate(32.8 16.9)"/><polygon class="cls-6" points="259.66 28.76 259.66 5.04 248.15 10.96 236.64 16.89 248.15 22.82 259.66 28.76"/><polygon class="cls-10" points="259.66 27.85 259.66 5.94 238.4 16.89 259.66 27.85"/><polygon class="cls-7" points="259.66 23.41 259.66 10.38 247.02 16.89 259.66 23.41"/><path class="cls-5" d="M226.86,3.63V-3.64h-4.55c-1.54,0-2.8,1.54-2.8,3.44V.2c0,1.9,1.26,3.43,2.8,3.43Z" transform="translate(32.8 16.9)"/><path class="cls-9" d="M226.86,1.52v-3h-2.52a1,1,0,0,0-.87,1.07v.9a1,1,0,0,0,.87,1.07Z" transform="translate(32.8 16.9)"/><path class="cls-5" d="M196.79,0,164-16.9V16.89ZM166.72-11.86l11.51,5.93L189.74,0,178.23,5.93l-11.51,5.93Z" transform="translate(32.8 16.9)"/><polygon class="cls-6" points="199.52 28.76 199.52 5.04 211.03 10.96 222.54 16.89 211.03 22.82 199.52 28.76"/><polygon class="cls-7" points="199.52 27.85 199.52 5.94 220.78 16.89 199.52 27.85"/><polygon class="cls-8" points="199.52 23.41 199.52 10.38 212.16 16.89 199.52 23.41"/><path class="cls-5" d="M166.72,3.63V-3.64h4.55c1.54,0,2.8,1.54,2.8,3.44V.2c0,1.9-1.26,3.43-2.8,3.43Z" transform="translate(32.8 16.9)"/><path class="cls-9" d="M166.72,1.52v-3h2.52a1,1,0,0,1,.87,1.07v.9a1,1,0,0,1-.87,1.07Z" transform="translate(32.8 16.9)"/><path class="cls-8" d="M164,16.89V-16.9L131.19,0Zm-2.73-5L149.75,5.93,138.24,0l11.51-5.93,11.51-5.93Z" transform="translate(32.8 16.9)"/><polygon class="cls-6" points="194.06 28.76 194.06 5.04 182.55 10.96 171.04 16.89 182.55 22.82 194.06 28.76"/><polygon class="cls-10" points="194.06 27.85 194.06 5.94 172.8 16.89 194.06 27.85"/><polygon class="cls-7" points="194.06 23.41 194.06 10.38 181.43 16.89 194.06 23.41"/><path class="cls-5" d="M161.26,3.63V-3.64h-4.55c-1.54,0-2.79,1.54-2.79,3.44V.2c0,1.9,1.25,3.43,2.79,3.43Z" transform="translate(32.8 16.9)"/><path class="cls-9" d="M161.26,1.52v-3h-2.52a1,1,0,0,0-.87,1.07v.9a1,1,0,0,0,.87,1.07Z" transform="translate(32.8 16.9)"/><path class="cls-5" d="M131.19,0,98.39-16.9V16.89ZM101.12-11.86l11.51,5.93L124.15,0,112.63,5.93l-11.51,5.93Z" transform="translate(32.8 16.9)"/><polygon class="cls-6" points="133.92 28.76 133.92 5.04 145.44 10.96 156.95 16.89 145.44 22.82 133.92 28.76"/><polygon class="cls-7" points="133.92 27.85 133.92 5.94 155.19 16.89 133.92 27.85"/><polygon class="cls-8" points="133.92 23.41 133.92 10.38 146.56 16.89 133.92 23.41"/><path class="cls-5" d="M101.12,3.63V-3.64h4.55c1.55,0,2.8,1.54,2.8,3.44V.2c0,1.9-1.25,3.43-2.8,3.43Z" transform="translate(32.8 16.9)"/><path class="cls-9" d="M101.12,1.52v-3h2.52a1,1,0,0,1,.88,1.07v.9a1,1,0,0,1-.88,1.07Z" transform="translate(32.8 16.9)"/><path class="cls-8" d="M98.39,16.89V-16.9L65.6,0Zm-2.72-5L84.15,5.93,72.64,0,84.15-5.93l11.52-5.93Z" transform="translate(32.8 16.9)"/><polygon class="cls-6" points="128.47 28.76 128.47 5.04 116.95 10.96 105.44 16.89 116.95 22.82 128.47 28.76"/><polygon class="cls-10" points="128.47 27.85 128.47 5.94 107.2 16.89 128.47 27.85"/><polygon class="cls-7" points="128.47 23.41 128.47 10.38 115.83 16.89 128.47 23.41"/><path class="cls-5" d="M95.67,3.63V-3.64H91.12c-1.55,0-2.8,1.54-2.8,3.44V.2c0,1.9,1.25,3.43,2.8,3.43Z" transform="translate(32.8 16.9)"/><path class="cls-9" d="M95.67,1.52v-3H93.14a1,1,0,0,0-.87,1.07v.9a1,1,0,0,0,.87,1.07Z" transform="translate(32.8 16.9)"/><path class="cls-5" d="M65.6,0,32.8-16.9V16.89ZM35.52-11.86,47-5.93,58.55,0,47,5.93,35.52,11.86Z" transform="translate(32.8 16.9)"/><polygon class="cls-6" points="68.33 28.76 68.33 5.04 79.84 10.96 91.35 16.89 79.84 22.82 68.33 28.76"/><polygon class="cls-7" points="68.33 27.85 68.33 5.94 89.59 16.89 68.33 27.85"/><polygon class="cls-8" points="68.33 23.41 68.33 10.38 80.97 16.89 68.33 23.41"/><path class="cls-5" d="M35.52,3.63V-3.64h4.55c1.55,0,2.8,1.54,2.8,3.44V.2c0,1.9-1.25,3.43-2.8,3.43Z" transform="translate(32.8 16.9)"/><path class="cls-9" d="M35.52,1.52v-3h2.53a1,1,0,0,1,.87,1.07v.9a1,1,0,0,1-.87,1.07Z" transform="translate(32.8 16.9)"/><path class="cls-8" d="M32.8,16.89V-16.9L0,0Zm-2.73-5L18.56,5.93,7,0,18.56-5.93l11.51-5.93Z" transform="translate(32.8 16.9)"/><polygon class="cls-6" points="62.87 28.76 62.87 5.04 51.36 10.96 39.85 16.89 51.36 22.82 62.87 28.76"/><polygon class="cls-10" points="62.87 27.85 62.87 5.94 41.61 16.89 62.87 27.85"/><polygon class="cls-8" points="62.87 23.41 62.87 10.38 50.23 16.89 62.87 23.41"/><path class="cls-5" d="M30.07,3.63V-3.64H25.52c-1.55,0-2.8,1.54-2.8,3.44V.2c0,1.9,1.25,3.43,2.8,3.43Z" transform="translate(32.8 16.9)"/><path class="cls-9" d="M30.07,1.52v-3H27.55a1,1,0,0,0-.88,1.07v.9a1,1,0,0,0,.88,1.07Z" transform="translate(32.8 16.9)"/><path class="cls-5" d="M656,0V33.79l32.8-16.9Zm2.73,5L670.22,11l11.51,5.93-11.51,5.93L658.7,28.75Z" transform="translate(32.8 16.9)"/><polygon class="cls-6" points="691.5 21.93 691.5 45.65 703.02 39.72 714.53 33.79 703.02 27.86 691.5 21.93"/><polygon class="cls-7" points="691.5 22.84 691.5 44.74 712.77 33.79 691.5 22.84"/><polygon class="cls-8" points="691.5 27.28 691.5 40.3 704.14 33.79 691.5 27.28"/><path class="cls-5" d="M658.7,13.26v7.27h4.55c1.55,0,2.8-1.54,2.8-3.44v-.4c0-1.9-1.25-3.43-2.8-3.43Z" transform="translate(32.8 16.9)"/><path class="cls-9" d="M658.7,15.37v3h2.52a1,1,0,0,0,.88-1.07v-.9a1,1,0,0,0-.88-1.07Z" transform="translate(32.8 16.9)"/><path class="cls-8" d="M623.18,16.89,656,33.79V0Zm30.07,11.86-11.52-5.93-11.51-5.93L641.73,11,653.25,5Z" transform="translate(32.8 16.9)"/><polygon class="cls-6" points="686.05 21.93 686.05 45.65 674.54 39.72 663.02 33.79 674.54 27.86 686.05 21.93"/><polygon class="cls-10" points="686.05 22.84 686.05 44.74 664.78 33.79 686.05 22.84"/><polygon class="cls-7" points="686.05 27.28 686.05 40.3 673.41 33.79 686.05 27.28"/><path class="cls-5" d="M653.25,13.26v7.27H648.7c-1.55,0-2.8-1.54-2.8-3.44v-.4c0-1.9,1.25-3.43,2.8-3.43Z" transform="translate(32.8 16.9)"/><path class="cls-9" d="M653.25,15.37v3h-2.52a1,1,0,0,1-.88-1.07v-.9a1,1,0,0,1,.88-1.07Z" transform="translate(32.8 16.9)"/><path class="cls-5" d="M590.38,0V33.79l32.8-16.9Zm2.73,5L604.62,11l11.51,5.93-11.51,5.93-11.51,5.93Z" transform="translate(32.8 16.9)"/><polygon class="cls-6" points="625.91 21.93 625.91 45.65 637.42 39.72 648.93 33.79 637.42 27.86 625.91 21.93"/><polygon class="cls-7" points="625.91 22.84 625.91 44.74 647.17 33.79 625.91 22.84"/><polygon class="cls-8" points="625.91 27.28 625.91 40.3 638.55 33.79 625.91 27.28"/><path class="cls-5" d="M593.11,13.26v7.27h4.54c1.55,0,2.8-1.54,2.8-3.44v-.4c0-1.9-1.25-3.43-2.8-3.43Z" transform="translate(32.8 16.9)"/><path class="cls-9" d="M593.11,15.37v3h2.52a1,1,0,0,0,.87-1.07v-.9a1,1,0,0,0-.87-1.07Z" transform="translate(32.8 16.9)"/><path class="cls-8" d="M557.58,16.89l32.8,16.9V0Zm30.07,11.86-11.51-5.93-11.51-5.93L576.14,11,587.65,5Z" transform="translate(32.8 16.9)"/><polygon class="cls-6" points="620.45 21.93 620.45 45.65 608.94 39.72 597.43 33.79 608.94 27.86 620.45 21.93"/><polygon class="cls-10" points="620.45 22.84 620.45 44.74 599.19 33.79 620.45 22.84"/><polygon class="cls-7" points="620.45 27.28 620.45 40.3 607.81 33.79 620.45 27.28"/><path class="cls-5" d="M587.65,13.26v7.27H583.1c-1.54,0-2.8-1.54-2.8-3.44v-.4c0-1.9,1.26-3.43,2.8-3.43Z" transform="translate(32.8 16.9)"/><path class="cls-9" d="M587.65,15.37v3h-2.52a1,1,0,0,1-.88-1.07v-.9a1,1,0,0,1,.88-1.07Z" transform="translate(32.8 16.9)"/><path class="cls-5" d="M524.78,0V33.79l32.8-16.9Zm2.73,5L539,11l11.51,5.93L539,22.82l-11.51,5.93Z" transform="translate(32.8 16.9)"/><polygon class="cls-6" points="560.31 21.93 560.31 45.65 571.82 39.72 583.33 33.79 571.82 27.86 560.31 21.93"/><polygon class="cls-7" points="560.31 22.84 560.31 44.74 581.57 33.79 560.31 22.84"/><polygon class="cls-8" points="560.31 27.28 560.31 40.3 572.95 33.79 560.31 27.28"/><path class="cls-5" d="M527.51,13.26v7.27h4.55c1.54,0,2.8-1.54,2.8-3.44v-.4c0-1.9-1.26-3.43-2.8-3.43Z" transform="translate(32.8 16.9)"/><path class="cls-9" d="M527.51,15.37v3H530a1,1,0,0,0,.87-1.07v-.9a1,1,0,0,0-.87-1.07Z" transform="translate(32.8 16.9)"/><path class="cls-8" d="M492,16.89l32.8,16.9V0Zm30.07,11.86-11.51-5.93L499,16.89,510.54,11,522.05,5Z" transform="translate(32.8 16.9)"/><polygon class="cls-6" points="554.85 21.93 554.85 45.65 543.34 39.72 531.83 33.79 543.34 27.86 554.85 21.93"/><polygon class="cls-10" points="554.85 22.84 554.85 44.74 533.59 33.79 554.85 22.84"/><polygon class="cls-7" points="554.85 27.28 554.85 40.3 542.21 33.79 554.85 27.28"/><path class="cls-5" d="M522.05,13.26v7.27H517.5c-1.54,0-2.8-1.54-2.8-3.44v-.4c0-1.9,1.26-3.43,2.8-3.43Z" transform="translate(32.8 16.9)"/><path class="cls-9" d="M522.05,15.37v3h-2.52a1,1,0,0,1-.87-1.07v-.9a1,1,0,0,1,.87-1.07Z" transform="translate(32.8 16.9)"/><path class="cls-5" d="M459.18,0V33.79L492,16.89Zm2.73,5L473.42,11l11.51,5.93-11.51,5.93-11.51,5.93Z" transform="translate(32.8 16.9)"/><polygon class="cls-6" points="494.71 21.93 494.71 45.65 506.22 39.72 517.74 33.79 506.22 27.86 494.71 21.93"/><polygon class="cls-7" points="494.71 22.84 494.71 44.74 515.97 33.79 494.71 22.84"/><polygon class="cls-8" points="494.71 27.28 494.71 40.3 507.35 33.79 494.71 27.28"/><path class="cls-5" d="M461.91,13.26v7.27h4.55c1.54,0,2.8-1.54,2.8-3.44v-.4c0-1.9-1.26-3.43-2.8-3.43Z" transform="translate(32.8 16.9)"/><path class="cls-9" d="M461.91,15.37v3h2.52a1,1,0,0,0,.87-1.07v-.9a1,1,0,0,0-.87-1.07Z" transform="translate(32.8 16.9)"/><path class="cls-8" d="M426.38,16.89l32.8,16.9V0Zm30.07,11.86-11.51-5.93-11.51-5.93L444.94,11,456.45,5Z" transform="translate(32.8 16.9)"/><polygon class="cls-6" points="489.25 21.93 489.25 45.65 477.74 39.72 466.23 33.79 477.74 27.86 489.25 21.93"/><polygon class="cls-10" points="489.25 22.84 489.25 44.74 467.99 33.79 489.25 22.84"/><polygon class="cls-7" points="489.25 27.28 489.25 40.3 476.61 33.79 489.25 27.28"/><path class="cls-5" d="M456.45,13.26v7.27H451.9c-1.54,0-2.79-1.54-2.79-3.44v-.4c0-1.9,1.25-3.43,2.79-3.43Z" transform="translate(32.8 16.9)"/><path class="cls-9" d="M456.45,15.37v3h-2.52a1,1,0,0,1-.87-1.07v-.9a1,1,0,0,1,.87-1.07Z" transform="translate(32.8 16.9)"/><path class="cls-5" d="M393.58,0V33.79l32.8-16.9Zm2.73,5L407.82,11l11.52,5.93-11.52,5.93-11.51,5.93Z" transform="translate(32.8 16.9)"/><polygon class="cls-6" points="429.11 21.93 429.11 45.65 440.63 39.72 452.14 33.79 440.63 27.86 429.11 21.93"/><polygon class="cls-7" points="429.11 22.84 429.11 44.74 450.38 33.79 429.11 22.84"/><polygon class="cls-8" points="429.11 27.28 429.11 40.3 441.75 33.79 429.11 27.28"/><path class="cls-5" d="M396.31,13.26v7.27h4.55c1.55,0,2.8-1.54,2.8-3.44v-.4c0-1.9-1.25-3.43-2.8-3.43Z" transform="translate(32.8 16.9)"/><path class="cls-9" d="M396.31,15.37v3h2.52a1,1,0,0,0,.88-1.07v-.9a1,1,0,0,0-.88-1.07Z" transform="translate(32.8 16.9)"/><path class="cls-8" d="M360.79,16.89l32.79,16.9V0Zm30.07,11.86-11.52-5.93-11.51-5.93L379.34,11,390.86,5Z" transform="translate(32.8 16.9)"/><polygon class="cls-6" points="423.66 21.93 423.66 45.65 412.14 39.72 400.63 33.79 412.14 27.86 423.66 21.93"/><polygon class="cls-10" points="423.66 22.84 423.66 44.74 402.39 33.79 423.66 22.84"/><polygon class="cls-7" points="423.66 27.28 423.66 40.3 411.02 33.79 423.66 27.28"/><path class="cls-5" d="M390.86,13.26v7.27h-4.55c-1.55,0-2.8-1.54-2.8-3.44v-.4c0-1.9,1.25-3.43,2.8-3.43Z" transform="translate(32.8 16.9)"/><path class="cls-9" d="M390.86,15.37v3h-2.53a1,1,0,0,1-.87-1.07v-.9a1,1,0,0,1,.87-1.07Z" transform="translate(32.8 16.9)"/><path class="cls-5" d="M328,0V33.79l32.8-16.9Zm2.72,5L342.23,11l11.51,5.93-11.51,5.93-11.52,5.93Z" transform="translate(32.8 16.9)"/><polygon class="cls-6" points="363.52 21.93 363.52 45.65 375.03 39.72 386.54 33.79 375.03 27.86 363.52 21.93"/><polygon class="cls-7" points="363.52 22.84 363.52 44.74 384.78 33.79 363.52 22.84"/><polygon class="cls-8" points="363.52 27.28 363.52 40.3 376.16 33.79 363.52 27.28"/><path class="cls-5" d="M330.71,13.26v7.27h4.55c1.55,0,2.8-1.54,2.8-3.44v-.4c0-1.9-1.25-3.43-2.8-3.43Z" transform="translate(32.8 16.9)"/><path class="cls-9" d="M330.71,15.37v3h2.53a1,1,0,0,0,.87-1.07v-.9a1,1,0,0,0-.87-1.07Z" transform="translate(32.8 16.9)"/><path class="cls-8" d="M295.19,16.89,328,33.79V0Zm30.07,11.86-11.51-5.93-11.52-5.93L313.75,11,325.26,5Z" transform="translate(32.8 16.9)"/><polygon class="cls-6" points="358.06 21.93 358.06 45.65 346.55 39.72 335.04 33.79 346.55 27.86 358.06 21.93"/><polygon class="cls-10" points="358.06 22.84 358.06 44.74 336.8 33.79 358.06 22.84"/><polygon class="cls-7" points="358.06 27.28 358.06 40.3 345.42 33.79 358.06 27.28"/><path class="cls-5" d="M325.26,13.26v7.27h-4.55c-1.55,0-2.8-1.54-2.8-3.44v-.4c0-1.9,1.25-3.43,2.8-3.43Z" transform="translate(32.8 16.9)"/><path class="cls-9" d="M325.26,15.37v3h-2.52a1,1,0,0,1-.88-1.07v-.9a1,1,0,0,1,.88-1.07Z" transform="translate(32.8 16.9)"/><path class="cls-5" d="M262.39,0V33.79l32.8-16.9Zm2.73,5L276.63,11l11.51,5.93-11.51,5.93-11.51,5.93Z" transform="translate(32.8 16.9)"/><polygon class="cls-6" points="297.92 21.93 297.92 45.65 309.43 39.72 320.94 33.79 309.43 27.86 297.92 21.93"/><polygon class="cls-7" points="297.92 22.84 297.92 44.74 319.18 33.79 297.92 22.84"/><polygon class="cls-8" points="297.92 27.28 297.92 40.3 310.56 33.79 297.92 27.28"/><path class="cls-5" d="M265.12,13.26v7.27h4.55c1.54,0,2.79-1.54,2.79-3.44v-.4c0-1.9-1.25-3.43-2.79-3.43Z" transform="translate(32.8 16.9)"/><path class="cls-9" d="M265.12,15.37v3h2.52a1,1,0,0,0,.87-1.07v-.9a1,1,0,0,0-.87-1.07Z" transform="translate(32.8 16.9)"/><path class="cls-8" d="M229.59,16.89l32.8,16.9V0Zm30.07,11.86-11.51-5.93-11.51-5.93L248.15,11,259.66,5Z" transform="translate(32.8 16.9)"/><polygon class="cls-6" points="292.46 21.93 292.46 45.65 280.95 39.72 269.44 33.79 280.95 27.86 292.46 21.93"/><polygon class="cls-10" points="292.46 22.84 292.46 44.74 271.2 33.79 292.46 22.84"/><polygon class="cls-7" points="292.46 27.28 292.46 40.3 279.82 33.79 292.46 27.28"/><path class="cls-5" d="M259.66,13.26v7.27h-4.55c-1.54,0-2.8-1.54-2.8-3.44v-.4c0-1.9,1.26-3.43,2.8-3.43Z" transform="translate(32.8 16.9)"/><path class="cls-9" d="M259.66,15.37v3h-2.52a1,1,0,0,1-.87-1.07v-.9a1,1,0,0,1,.87-1.07Z" transform="translate(32.8 16.9)"/><path class="cls-5" d="M196.79,0V33.79l32.8-16.9Zm2.73,5L211,11l11.51,5.93L211,22.82l-11.51,5.93Z" transform="translate(32.8 16.9)"/><polygon class="cls-6" points="232.32 21.93 232.32 45.65 243.83 39.72 255.34 33.79 243.83 27.86 232.32 21.93"/><polygon class="cls-7" points="232.32 22.84 232.32 44.74 253.58 33.79 232.32 22.84"/><polygon class="cls-8" points="232.32 27.28 232.32 40.3 244.96 33.79 232.32 27.28"/><path class="cls-5" d="M199.52,13.26v7.27h4.55c1.54,0,2.8-1.54,2.8-3.44v-.4c0-1.9-1.26-3.43-2.8-3.43Z" transform="translate(32.8 16.9)"/><path class="cls-9" d="M199.52,15.37v3H202a1,1,0,0,0,.87-1.07v-.9a1,1,0,0,0-.87-1.07Z" transform="translate(32.8 16.9)"/><path class="cls-8" d="M164,16.89l32.8,16.9V0Zm30.07,11.86-11.51-5.93L171,16.89,182.55,11,194.06,5Z" transform="translate(32.8 16.9)"/><polygon class="cls-6" points="226.86 21.93 226.86 45.65 215.35 39.72 203.84 33.79 215.35 27.86 226.86 21.93"/><polygon class="cls-10" points="226.86 22.84 226.86 44.74 205.6 33.79 226.86 22.84"/><polygon class="cls-7" points="226.86 27.28 226.86 40.3 214.22 33.79 226.86 27.28"/><path class="cls-5" d="M194.06,13.26v7.27h-4.55c-1.54,0-2.79-1.54-2.79-3.44v-.4c0-1.9,1.25-3.43,2.79-3.43Z" transform="translate(32.8 16.9)"/><path class="cls-9" d="M194.06,15.37v3h-2.52a1,1,0,0,1-.87-1.07v-.9a1,1,0,0,1,.87-1.07Z" transform="translate(32.8 16.9)"/><path class="cls-5" d="M131.19,0V33.79L164,16.89Zm2.73,5L145.43,11,157,16.89l-11.52,5.93-11.51,5.93Z" transform="translate(32.8 16.9)"/><polygon class="cls-6" points="166.72 21.93 166.72 45.65 178.23 39.72 189.75 33.79 178.23 27.86 166.72 21.93"/><polygon class="cls-7" points="166.72 22.84 166.72 44.74 187.99 33.79 166.72 22.84"/><polygon class="cls-8" points="166.72 27.28 166.72 40.3 179.36 33.79 166.72 27.28"/><path class="cls-5" d="M133.92,13.26v7.27h4.55c1.55,0,2.8-1.54,2.8-3.44v-.4c0-1.9-1.25-3.43-2.8-3.43Z" transform="translate(32.8 16.9)"/><path class="cls-9" d="M133.92,15.37v3h2.52a1,1,0,0,0,.88-1.07v-.9a1,1,0,0,0-.88-1.07Z" transform="translate(32.8 16.9)"/><path class="cls-8" d="M98.39,16.89l32.8,16.9V0Zm30.07,11.86L117,22.82l-11.51-5.93L117,11,128.46,5Z" transform="translate(32.8 16.9)"/><polygon class="cls-6" points="161.27 21.93 161.27 45.65 149.75 39.72 138.24 33.79 149.75 27.86 161.27 21.93"/><polygon class="cls-10" points="161.27 22.84 161.27 44.74 140 33.79 161.27 22.84"/><polygon class="cls-7" points="161.27 27.28 161.27 40.3 148.63 33.79 161.27 27.28"/><path class="cls-5" d="M128.46,13.26v7.27h-4.54c-1.55,0-2.8-1.54-2.8-3.44v-.4c0-1.9,1.25-3.43,2.8-3.43Z" transform="translate(32.8 16.9)"/><path class="cls-9" d="M128.46,15.37v3h-2.52a1,1,0,0,1-.87-1.07v-.9a1,1,0,0,1,.87-1.07Z" transform="translate(32.8 16.9)"/><path class="cls-5" d="M65.6,0V33.79l32.79-16.9Zm2.72,5L79.84,11l11.51,5.93L79.84,22.82,68.32,28.75Z" transform="translate(32.8 16.9)"/><polygon class="cls-6" points="101.13 21.93 101.13 45.65 112.64 39.72 124.15 33.79 112.64 27.86 101.13 21.93"/><polygon class="cls-7" points="101.13 22.84 101.13 44.74 122.39 33.79 101.13 22.84"/><polygon class="cls-8" points="101.13 27.28 101.13 40.3 113.77 33.79 101.13 27.28"/><path class="cls-5" d="M68.32,13.26v7.27h4.55c1.55,0,2.8-1.54,2.8-3.44v-.4c0-1.9-1.25-3.43-2.8-3.43Z" transform="translate(32.8 16.9)"/><path class="cls-9" d="M68.32,15.37v3h2.52a1,1,0,0,0,.88-1.07v-.9a1,1,0,0,0-.88-1.07Z" transform="translate(32.8 16.9)"/><path class="cls-8" d="M32.8,16.89l32.8,16.9V0ZM62.87,28.75,51.36,22.82,39.84,16.89,51.36,11,62.87,5Z" transform="translate(32.8 16.9)"/><polygon class="cls-6" points="95.67 21.93 95.67 45.65 84.16 39.72 72.64 33.79 84.16 27.86 95.67 21.93"/><polygon class="cls-10" points="95.67 22.84 95.67 44.74 74.41 33.79 95.67 22.84"/><polygon class="cls-7" points="95.67 27.28 95.67 40.3 83.03 33.79 95.67 27.28"/><path class="cls-5" d="M62.87,13.26v7.27H58.32c-1.55,0-2.8-1.54-2.8-3.44v-.4c0-1.9,1.25-3.43,2.8-3.43Z" transform="translate(32.8 16.9)"/><path class="cls-9" d="M62.87,15.37v3H60.35a1,1,0,0,1-.88-1.07v-.9a1,1,0,0,1,.88-1.07Z" transform="translate(32.8 16.9)"/><path class="cls-5" d="M0,0V33.79l32.8-16.9ZM2.73,5,14.24,11l11.51,5.93L14.24,22.82,2.73,28.75Z" transform="translate(32.8 16.9)"/><polygon class="cls-6" points="35.53 21.93 35.53 45.65 47.04 39.72 58.55 33.79 47.04 27.86 35.53 21.93"/><polygon class="cls-10" points="35.53 22.84 35.53 44.74 56.79 33.79 35.53 22.84"/><polygon class="cls-7" points="35.53 27.28 35.53 40.3 48.17 33.79 35.53 27.28"/><path class="cls-5" d="M2.73,13.26v7.27H7.28c1.54,0,2.79-1.54,2.79-3.44v-.4c0-1.9-1.25-3.43-2.79-3.43Z" transform="translate(32.8 16.9)"/><path class="cls-9" d="M2.73,15.37v3H5.25a1,1,0,0,0,.87-1.07v-.9a1,1,0,0,0-.87-1.07Z" transform="translate(32.8 16.9)"/><path class="cls-8" d="M-32.8,16.89,0,33.79V0ZM-2.73,28.75l-11.51-5.93-11.51-5.93L-14.24,11-2.73,5Z" transform="translate(32.8 16.9)"/><polygon class="cls-6" points="30.07 21.93 30.07 45.65 18.56 39.72 7.05 33.79 18.56 27.86 30.07 21.93"/><polygon class="cls-10" points="30.07 22.84 30.07 44.74 8.81 33.79 30.07 22.84"/><polygon class="cls-7" points="30.07 27.28 30.07 40.3 17.43 33.79 30.07 27.28"/><path class="cls-5" d="M-2.73,13.26v7.27H-7.28c-1.54,0-2.8-1.54-2.8-3.44v-.4c0-1.9,1.26-3.43,2.8-3.43Z" transform="translate(32.8 16.9)"/><path class="cls-9" d="M-2.73,15.37v3H-5.25a1,1,0,0,1-.88-1.07v-.9a1,1,0,0,1,.88-1.07Z" transform="translate(32.8 16.9)"/></g></g></g></g></g></svg>