<svg xmlns="http://www.w3.org/2000/svg" viewBox="0 0 719.35 50.39"><defs><style>.cls-1{fill:#260008;}.cls-2,.cls-8{fill:#659178;}.cls-11,.cls-2,.cls-6,.cls-9{stroke:#dcd6ca;stroke-miterlimit:10;}.cls-3{fill:#005e3e;}.cls-4{fill:#dcd6ca;}.cls-5,.cls-6{fill:#492f1c;}.cls-7,.cls-9{fill:#6f411d;}.cls-10{fill:#4d7495;}.cls-11{fill:#944427;}</style></defs><g id="图层_2" data-name="图层 2"><g id="文件图层"><polygon class="cls-1" points="0 50.39 37.53 0 683.18 0 719.35 48.56 0 50.39"/><path class="cls-2" d="M351.2,41.52c5.09,0,9.23-3.51,9.23-7.83V15.8H342V33.69C342,38,346.11,41.52,351.2,41.52Z"/><path class="cls-3" d="M351.2,40.22c4.24,0,7.7-2.93,7.7-6.53V17.1H343.5V33.69C343.5,37.29,347,40.22,351.2,40.22Z"/><path class="cls-1" d="M351.2,37.63c2.55,0,4.64-1.77,4.64-3.94v-14h-9.28v14C346.56,35.86,348.64,37.63,351.2,37.63Z"/><path class="cls-4" d="M351.2,36.33a2.9,2.9,0,0,0,3.1-2.64V21h-6.21V33.69A2.91,2.91,0,0,0,351.2,36.33Z"/><path class="cls-5" d="M351.2,35.68a2.19,2.19,0,0,0,2.34-2v-12h-4.69v12A2.2,2.2,0,0,0,351.2,35.68Z"/><path class="cls-4" d="M351.2,22.95h0a.81.81,0,0,1,.81.81V34.38a0,0,0,0,1,0,0h-1.62a0,0,0,0,1,0,0V23.76A.81.81,0,0,1,351.2,22.95Z" transform="translate(702.39 57.33) rotate(-180)"/><path class="cls-6" d="M332.73,41.52c-5.09,0-9.23-3.51-9.23-7.83V15.8H342V33.69C342,38,337.82,41.52,332.73,41.52Z"/><path class="cls-7" d="M332.73,40.22c-4.25,0-7.7-2.93-7.7-6.53V17.1h15.4V33.69C340.43,37.29,337,40.22,332.73,40.22Z"/><path class="cls-5" d="M332.73,37.63c-2.56,0-4.64-1.77-4.64-3.94v-14h9.28v14C337.37,35.86,335.29,37.63,332.73,37.63Z"/><path class="cls-4" d="M332.73,36.33a2.91,2.91,0,0,1-3.11-2.64V21h6.22V33.69A2.91,2.91,0,0,1,332.73,36.33Z"/><path class="cls-8" d="M332.73,35.68a2.19,2.19,0,0,1-2.34-2v-12h4.68v12A2.19,2.19,0,0,1,332.73,35.68Z"/><path class="cls-3" d="M331.92,22.95h1.62a0,0,0,0,1,0,0V33.57a.81.81,0,0,1-.81.81h0a.81.81,0,0,1-.81-.81V22.95a0,0,0,0,1,0,0Z"/><path class="cls-9" d="M332.73,41.52c-5.09,0-9.23-3.51-9.23-7.83V15.8H342V33.69C342,38,337.82,41.52,332.73,41.52Z"/><path class="cls-8" d="M332.73,40.22c-4.25,0-7.7-2.93-7.7-6.53V17.1h15.4V33.69C340.43,37.29,337,40.22,332.73,40.22Z"/><path class="cls-10" d="M332.73,37.63c-2.56,0-4.64-1.77-4.64-3.94v-14h9.28v14C337.37,35.86,335.29,37.63,332.73,37.63Z"/><path class="cls-4" d="M332.73,36.33a2.91,2.91,0,0,1-3.11-2.64V21h6.22V33.69A2.91,2.91,0,0,1,332.73,36.33Z"/><path class="cls-5" d="M332.73,35.68a2.19,2.19,0,0,1-2.34-2v-12h4.68v12A2.19,2.19,0,0,1,332.73,35.68Z"/><path class="cls-1" d="M331.92,22.95h1.62a0,0,0,0,1,0,0V33.57a.81.81,0,0,1-.81.81h0a.81.81,0,0,1-.81-.81V22.95a0,0,0,0,1,0,0Z"/><path class="cls-9" d="M314.26,41.52c5.1,0,9.24-3.51,9.24-7.83V15.8H305V33.69C305,38,309.17,41.52,314.26,41.52Z"/><path class="cls-8" d="M314.26,40.22c4.25,0,7.71-2.93,7.71-6.53V17.1H306.56V33.69C306.56,37.29,310,40.22,314.26,40.22Z"/><path class="cls-10" d="M314.26,37.63c2.56,0,4.64-1.77,4.64-3.94v-14h-9.27v14C309.63,35.86,311.71,37.63,314.26,37.63Z"/><path class="cls-4" d="M314.26,36.33a2.91,2.91,0,0,0,3.11-2.64V21h-6.21V33.69A2.9,2.9,0,0,0,314.26,36.33Z"/><path class="cls-5" d="M314.26,35.68a2.19,2.19,0,0,0,2.35-2v-12h-4.69v12A2.19,2.19,0,0,0,314.26,35.68Z"/><path class="cls-1" d="M314.26,22.95h0a.81.81,0,0,1,.81.81V34.38a0,0,0,0,1,0,0h-1.62a0,0,0,0,1,0,0V23.76A.81.81,0,0,1,314.26,22.95Z" transform="translate(628.53 57.33) rotate(-180)"/><path class="cls-11" d="M314.26,41.52c5.1,0,9.24-3.51,9.24-7.83V15.8H305V33.69C305,38,309.17,41.52,314.26,41.52Z"/><path class="cls-5" d="M314.26,40.22c4.25,0,7.71-2.93,7.71-6.53V17.1H306.56V33.69C306.56,37.29,310,40.22,314.26,40.22Z"/><path class="cls-1" d="M314.26,37.63c2.56,0,4.64-1.77,4.64-3.94v-14h-9.27v14C309.63,35.86,311.71,37.63,314.26,37.63Z"/><path class="cls-4" d="M314.26,36.33a2.91,2.91,0,0,0,3.11-2.64V21h-6.21V33.69A2.9,2.9,0,0,0,314.26,36.33Z"/><path class="cls-10" d="M314.26,35.68a2.19,2.19,0,0,0,2.35-2v-12h-4.69v12A2.19,2.19,0,0,0,314.26,35.68Z"/><path class="cls-5" d="M314.26,22.95h0a.81.81,0,0,1,.81.81V34.38a0,0,0,0,1,0,0h-1.62a0,0,0,0,1,0,0V23.76A.81.81,0,0,1,314.26,22.95Z" transform="translate(628.53 57.33) rotate(-180)"/><path class="cls-9" d="M295.8,41.52c-5.09,0-9.23-3.51-9.23-7.83V15.8H305V33.69C305,38,300.89,41.52,295.8,41.52Z"/><path class="cls-5" d="M295.8,40.22c-4.25,0-7.7-2.93-7.7-6.53V17.1h15.4V33.69C303.5,37.29,300.05,40.22,295.8,40.22Z"/><path class="cls-1" d="M295.8,37.63c-2.56,0-4.64-1.77-4.64-3.94v-14h9.28v14C300.44,35.86,298.36,37.63,295.8,37.63Z"/><path class="cls-4" d="M295.8,36.33a2.91,2.91,0,0,1-3.11-2.64V21h6.22V33.69A2.91,2.91,0,0,1,295.8,36.33Z"/><path class="cls-10" d="M295.8,35.68a2.19,2.19,0,0,1-2.34-2v-12h4.68v12A2.19,2.19,0,0,1,295.8,35.68Z"/><path class="cls-5" d="M295,22.95h1.62a0,0,0,0,1,0,0V33.57a.81.81,0,0,1-.81.81h0a.81.81,0,0,1-.81-.81V22.95A0,0,0,0,1,295,22.95Z"/><path class="cls-2" d="M277.33,41.52c5.09,0,9.24-3.51,9.24-7.83V15.8H268.1V33.69C268.1,38,272.24,41.52,277.33,41.52Z"/><path class="cls-3" d="M277.33,40.22c4.25,0,7.7-2.93,7.7-6.53V17.1h-15.4V33.69C269.63,37.29,273.09,40.22,277.33,40.22Z"/><path class="cls-1" d="M277.33,37.63c2.56,0,4.64-1.77,4.64-3.94v-14h-9.28v14C272.69,35.86,274.77,37.63,277.33,37.63Z"/><path class="cls-4" d="M277.33,36.33a2.91,2.91,0,0,0,3.11-2.64V21h-6.21V33.69A2.9,2.9,0,0,0,277.33,36.33Z"/><path class="cls-5" d="M277.33,35.68a2.19,2.19,0,0,0,2.34-2v-12H275v12A2.19,2.19,0,0,0,277.33,35.68Z"/><path class="cls-4" d="M277.33,22.95h0a.81.81,0,0,1,.81.81V34.38a0,0,0,0,1,0,0h-1.62a0,0,0,0,1,0,0V23.76a.81.81,0,0,1,.81-.81Z" transform="translate(554.67 57.33) rotate(-180)"/><path class="cls-6" d="M258.87,41.52c-5.09,0-9.24-3.51-9.24-7.83V15.8H268.1V33.69C268.1,38,264,41.52,258.87,41.52Z"/><path class="cls-7" d="M258.87,40.22c-4.25,0-7.71-2.93-7.71-6.53V17.1h15.41V33.69C266.57,37.29,263.11,40.22,258.87,40.22Z"/><path class="cls-5" d="M258.87,37.63c-2.56,0-4.64-1.77-4.64-3.94v-14h9.28v14C263.51,35.86,261.42,37.63,258.87,37.63Z"/><path class="cls-4" d="M258.87,36.33a2.91,2.91,0,0,1-3.11-2.64V21H262V33.69A2.9,2.9,0,0,1,258.87,36.33Z"/><path class="cls-8" d="M258.87,35.68a2.2,2.2,0,0,1-2.35-2v-12h4.69v12A2.19,2.19,0,0,1,258.87,35.68Z"/><path class="cls-3" d="M258.06,22.95h1.62a0,0,0,0,1,0,0V33.57a.81.81,0,0,1-.81.81h0a.81.81,0,0,1-.81-.81V22.95a0,0,0,0,1,0,0Z"/><path class="cls-9" d="M258.87,41.52c-5.09,0-9.24-3.51-9.24-7.83V15.8H268.1V33.69C268.1,38,264,41.52,258.87,41.52Z"/><path class="cls-8" d="M258.87,40.22c-4.25,0-7.71-2.93-7.71-6.53V17.1h15.41V33.69C266.57,37.29,263.11,40.22,258.87,40.22Z"/><path class="cls-10" d="M258.87,37.63c-2.56,0-4.64-1.77-4.64-3.94v-14h9.28v14C263.51,35.86,261.42,37.63,258.87,37.63Z"/><path class="cls-4" d="M258.87,36.33a2.91,2.91,0,0,1-3.11-2.64V21H262V33.69A2.9,2.9,0,0,1,258.87,36.33Z"/><path class="cls-5" d="M258.87,35.68a2.2,2.2,0,0,1-2.35-2v-12h4.69v12A2.19,2.19,0,0,1,258.87,35.68Z"/><path class="cls-1" d="M258.06,22.95h1.62a0,0,0,0,1,0,0V33.57a.81.81,0,0,1-.81.81h0a.81.81,0,0,1-.81-.81V22.95a0,0,0,0,1,0,0Z"/><path class="cls-9" d="M240.4,41.52c5.09,0,9.23-3.51,9.23-7.83V15.8H231.17V33.69C231.17,38,235.31,41.52,240.4,41.52Z"/><path class="cls-8" d="M240.4,40.22c4.25,0,7.7-2.93,7.7-6.53V17.1H232.7V33.69C232.7,37.29,236.15,40.22,240.4,40.22Z"/><path class="cls-10" d="M240.4,37.63c2.56,0,4.64-1.77,4.64-3.94v-14h-9.28v14C235.76,35.86,237.84,37.63,240.4,37.63Z"/><path class="cls-4" d="M240.4,36.33a2.91,2.91,0,0,0,3.11-2.64V21h-6.22V33.69A2.91,2.91,0,0,0,240.4,36.33Z"/><path class="cls-5" d="M240.4,35.68a2.19,2.19,0,0,0,2.34-2v-12h-4.68v12A2.19,2.19,0,0,0,240.4,35.68Z"/><path class="cls-1" d="M240.4,22.95h0a.81.81,0,0,1,.81.81V34.38a0,0,0,0,1,0,0h-1.62a0,0,0,0,1,0,0V23.76A.81.81,0,0,1,240.4,22.95Z" transform="translate(480.8 57.33) rotate(-180)"/><path class="cls-11" d="M240.4,41.52c5.09,0,9.23-3.51,9.23-7.83V15.8H231.17V33.69C231.17,38,235.31,41.52,240.4,41.52Z"/><path class="cls-5" d="M240.4,40.22c4.25,0,7.7-2.93,7.7-6.53V17.1H232.7V33.69C232.7,37.29,236.15,40.22,240.4,40.22Z"/><path class="cls-1" d="M240.4,37.63c2.56,0,4.64-1.77,4.64-3.94v-14h-9.28v14C235.76,35.86,237.84,37.63,240.4,37.63Z"/><path class="cls-4" d="M240.4,36.33a2.91,2.91,0,0,0,3.11-2.64V21h-6.22V33.69A2.91,2.91,0,0,0,240.4,36.33Z"/><path class="cls-10" d="M240.4,35.68a2.19,2.19,0,0,0,2.34-2v-12h-4.68v12A2.19,2.19,0,0,0,240.4,35.68Z"/><path class="cls-5" d="M240.4,22.95h0a.81.81,0,0,1,.81.81V34.38a0,0,0,0,1,0,0h-1.62a0,0,0,0,1,0,0V23.76A.81.81,0,0,1,240.4,22.95Z" transform="translate(480.8 57.33) rotate(-180)"/><path class="cls-9" d="M221.93,41.52c-5.09,0-9.23-3.51-9.23-7.83V15.8h18.47V33.69C231.17,38,227,41.52,221.93,41.52Z"/><path class="cls-5" d="M221.93,40.22c-4.24,0-7.7-2.93-7.7-6.53V17.1h15.41V33.69C229.64,37.29,226.18,40.22,221.93,40.22Z"/><path class="cls-1" d="M221.93,37.63c-2.55,0-4.63-1.77-4.63-3.94v-14h9.27v14C226.57,35.86,224.49,37.63,221.93,37.63Z"/><path class="cls-4" d="M221.93,36.33a2.9,2.9,0,0,1-3.1-2.64V21H225V33.69A2.91,2.91,0,0,1,221.93,36.33Z"/><path class="cls-10" d="M221.93,35.68a2.19,2.19,0,0,1-2.34-2v-12h4.69v12A2.19,2.19,0,0,1,221.93,35.68Z"/><path class="cls-5" d="M221.12,22.95h1.62a0,0,0,0,1,0,0V33.57a.81.81,0,0,1-.81.81h0a.81.81,0,0,1-.81-.81V22.95A0,0,0,0,1,221.12,22.95Z"/><path class="cls-2" d="M203.47,41.52c5.09,0,9.23-3.51,9.23-7.83V15.8H194.24V33.69C194.24,38,198.38,41.52,203.47,41.52Z"/><path class="cls-3" d="M203.47,40.22c4.25,0,7.7-2.93,7.7-6.53V17.1h-15.4V33.69C195.77,37.29,199.22,40.22,203.47,40.22Z"/><path class="cls-1" d="M203.47,37.63c2.56,0,4.64-1.77,4.64-3.94v-14h-9.28v14C198.83,35.86,200.91,37.63,203.47,37.63Z"/><path class="cls-4" d="M203.47,36.33a2.91,2.91,0,0,0,3.11-2.64V21h-6.22V33.69A2.91,2.91,0,0,0,203.47,36.33Z"/><path class="cls-5" d="M203.47,35.68a2.19,2.19,0,0,0,2.34-2v-12h-4.68v12A2.19,2.19,0,0,0,203.47,35.68Z"/><path class="cls-4" d="M203.47,22.95h0a.81.81,0,0,1,.81.81V34.38a0,0,0,0,1,0,0h-1.62a0,0,0,0,1,0,0V23.76A.81.81,0,0,1,203.47,22.95Z" transform="translate(406.94 57.33) rotate(-180)"/><path class="cls-6" d="M185,41.52c-5.09,0-9.23-3.51-9.23-7.83V15.8h18.47V33.69C194.24,38,190.09,41.52,185,41.52Z"/><path class="cls-7" d="M185,40.22c-4.24,0-7.7-2.93-7.7-6.53V17.1h15.4V33.69C192.7,37.29,189.25,40.22,185,40.22Z"/><path class="cls-5" d="M185,37.63c-2.56,0-4.64-1.77-4.64-3.94v-14h9.28v14C189.64,35.86,187.56,37.63,185,37.63Z"/><path class="cls-4" d="M185,36.33a2.9,2.9,0,0,1-3.1-2.64V21h6.21V33.69A2.91,2.91,0,0,1,185,36.33Z"/><path class="cls-8" d="M185,35.68a2.19,2.19,0,0,1-2.34-2v-12h4.68v12A2.19,2.19,0,0,1,185,35.68Z"/><path class="cls-3" d="M184.19,22.95h1.62a0,0,0,0,1,0,0V33.57a.81.81,0,0,1-.81.81h0a.81.81,0,0,1-.81-.81V22.95A0,0,0,0,1,184.19,22.95Z"/><path class="cls-9" d="M185,41.52c-5.09,0-9.23-3.51-9.23-7.83V15.8h18.47V33.69C194.24,38,190.09,41.52,185,41.52Z"/><path class="cls-8" d="M185,40.22c-4.24,0-7.7-2.93-7.7-6.53V17.1h15.4V33.69C192.7,37.29,189.25,40.22,185,40.22Z"/><path class="cls-10" d="M185,37.63c-2.56,0-4.64-1.77-4.64-3.94v-14h9.28v14C189.64,35.86,187.56,37.63,185,37.63Z"/><path class="cls-4" d="M185,36.33a2.9,2.9,0,0,1-3.1-2.64V21h6.21V33.69A2.91,2.91,0,0,1,185,36.33Z"/><path class="cls-5" d="M185,35.68a2.19,2.19,0,0,1-2.34-2v-12h4.68v12A2.19,2.19,0,0,1,185,35.68Z"/><path class="cls-1" d="M184.19,22.95h1.62a0,0,0,0,1,0,0V33.57a.81.81,0,0,1-.81.81h0a.81.81,0,0,1-.81-.81V22.95A0,0,0,0,1,184.19,22.95Z"/><path class="cls-9" d="M166.54,41.52c5.09,0,9.23-3.51,9.23-7.83V15.8H157.3V33.69C157.3,38,161.45,41.52,166.54,41.52Z"/><path class="cls-8" d="M166.54,40.22c4.24,0,7.7-2.93,7.7-6.53V17.1h-15.4V33.69C158.84,37.29,162.29,40.22,166.54,40.22Z"/><path class="cls-10" d="M166.54,37.63c2.55,0,4.64-1.77,4.64-3.94v-14H161.9v14C161.9,35.86,164,37.63,166.54,37.63Z"/><path class="cls-4" d="M166.54,36.33a2.9,2.9,0,0,0,3.1-2.64V21h-6.21V33.69A2.91,2.91,0,0,0,166.54,36.33Z"/><path class="cls-5" d="M166.54,35.68a2.19,2.19,0,0,0,2.34-2v-12H164.2v12A2.19,2.19,0,0,0,166.54,35.68Z"/><path class="cls-1" d="M166.54,22.95h0a.81.81,0,0,1,.81.81V34.38a0,0,0,0,1,0,0h-1.62a0,0,0,0,1,0,0V23.76A.81.81,0,0,1,166.54,22.95Z" transform="translate(333.07 57.33) rotate(-180)"/><path class="cls-11" d="M166.54,41.52c5.09,0,9.23-3.51,9.23-7.83V15.8H157.3V33.69C157.3,38,161.45,41.52,166.54,41.52Z"/><path class="cls-5" d="M166.54,40.22c4.24,0,7.7-2.93,7.7-6.53V17.1h-15.4V33.69C158.84,37.29,162.29,40.22,166.54,40.22Z"/><path class="cls-1" d="M166.54,37.63c2.55,0,4.64-1.77,4.64-3.94v-14H161.9v14C161.9,35.86,164,37.63,166.54,37.63Z"/><path class="cls-4" d="M166.54,36.33a2.9,2.9,0,0,0,3.1-2.64V21h-6.21V33.69A2.91,2.91,0,0,0,166.54,36.33Z"/><path class="cls-10" d="M166.54,35.68a2.19,2.19,0,0,0,2.34-2v-12H164.2v12A2.19,2.19,0,0,0,166.54,35.68Z"/><path class="cls-5" d="M166.54,22.95h0a.81.81,0,0,1,.81.81V34.38a0,0,0,0,1,0,0h-1.62a0,0,0,0,1,0,0V23.76A.81.81,0,0,1,166.54,22.95Z" transform="translate(333.07 57.33) rotate(-180)"/><path class="cls-9" d="M148.07,41.52c-5.09,0-9.23-3.51-9.23-7.83V15.8H157.3V33.69C157.3,38,153.16,41.52,148.07,41.52Z"/><path class="cls-5" d="M148.07,40.22c-4.25,0-7.7-2.93-7.7-6.53V17.1h15.4V33.69C155.77,37.29,152.32,40.22,148.07,40.22Z"/><path class="cls-1" d="M148.07,37.63c-2.56,0-4.64-1.77-4.64-3.94v-14h9.28v14C152.71,35.86,150.63,37.63,148.07,37.63Z"/><path class="cls-4" d="M148.07,36.33A2.91,2.91,0,0,1,145,33.69V21h6.22V33.69A2.91,2.91,0,0,1,148.07,36.33Z"/><path class="cls-10" d="M148.07,35.68a2.19,2.19,0,0,1-2.34-2v-12h4.68v12A2.19,2.19,0,0,1,148.07,35.68Z"/><path class="cls-5" d="M147.26,22.95h1.62a0,0,0,0,1,0,0V33.57a.81.81,0,0,1-.81.81h0a.81.81,0,0,1-.81-.81V22.95A0,0,0,0,1,147.26,22.95Z"/><path class="cls-2" d="M129.6,41.52c5.1,0,9.24-3.51,9.24-7.83V15.8H120.37V33.69C120.37,38,124.51,41.52,129.6,41.52Z"/><path class="cls-3" d="M129.6,40.22c4.25,0,7.71-2.93,7.71-6.53V17.1H121.9V33.69C121.9,37.29,125.36,40.22,129.6,40.22Z"/><path class="cls-1" d="M129.6,37.63c2.56,0,4.64-1.77,4.64-3.94v-14H125v14C125,35.86,127.05,37.63,129.6,37.63Z"/><path class="cls-4" d="M129.6,36.33a2.91,2.91,0,0,0,3.11-2.64V21H126.5V33.69A2.9,2.9,0,0,0,129.6,36.33Z"/><path class="cls-5" d="M129.6,35.68a2.19,2.19,0,0,0,2.35-2v-12h-4.69v12A2.19,2.19,0,0,0,129.6,35.68Z"/><path class="cls-4" d="M129.61,22.95h0a.81.81,0,0,1,.81.81V34.38a0,0,0,0,1,0,0h-1.62a0,0,0,0,1,0,0V23.76A.81.81,0,0,1,129.61,22.95Z" transform="translate(259.21 57.33) rotate(-180)"/><path class="cls-6" d="M111.14,41.52c-5.09,0-9.23-3.51-9.23-7.83V15.8h18.46V33.69C120.37,38,116.23,41.52,111.14,41.52Z"/><path class="cls-7" d="M111.14,40.22c-4.25,0-7.7-2.93-7.7-6.53V17.1h15.4V33.69C118.84,37.29,115.39,40.22,111.14,40.22Z"/><path class="cls-5" d="M111.14,37.63c-2.56,0-4.64-1.77-4.64-3.94v-14h9.28v14C115.78,35.86,113.7,37.63,111.14,37.63Z"/><path class="cls-4" d="M111.14,36.33A2.91,2.91,0,0,1,108,33.69V21h6.22V33.69A2.91,2.91,0,0,1,111.14,36.33Z"/><path class="cls-8" d="M111.14,35.68a2.19,2.19,0,0,1-2.34-2v-12h4.68v12A2.19,2.19,0,0,1,111.14,35.68Z"/><path class="cls-3" d="M110.33,22.95h1.62a0,0,0,0,1,0,0V33.57a.81.81,0,0,1-.81.81h0a.81.81,0,0,1-.81-.81V22.95A0,0,0,0,1,110.33,22.95Z"/><path class="cls-9" d="M111.14,41.52c-5.09,0-9.23-3.51-9.23-7.83V15.8h18.46V33.69C120.37,38,116.23,41.52,111.14,41.52Z"/><path class="cls-8" d="M111.14,40.22c-4.25,0-7.7-2.93-7.7-6.53V17.1h15.4V33.69C118.84,37.29,115.39,40.22,111.14,40.22Z"/><path class="cls-10" d="M111.14,37.63c-2.56,0-4.64-1.77-4.64-3.94v-14h9.28v14C115.78,35.86,113.7,37.63,111.14,37.63Z"/><path class="cls-4" d="M111.14,36.33A2.91,2.91,0,0,1,108,33.69V21h6.22V33.69A2.91,2.91,0,0,1,111.14,36.33Z"/><path class="cls-5" d="M111.14,35.68a2.19,2.19,0,0,1-2.34-2v-12h4.68v12A2.19,2.19,0,0,1,111.14,35.68Z"/><path class="cls-1" d="M110.33,22.95h1.62a0,0,0,0,1,0,0V33.57a.81.81,0,0,1-.81.81h0a.81.81,0,0,1-.81-.81V22.95A0,0,0,0,1,110.33,22.95Z"/><path class="cls-9" d="M92.67,41.52c5.09,0,9.24-3.51,9.24-7.83V15.8H83.44V33.69C83.44,38,87.58,41.52,92.67,41.52Z"/><path class="cls-8" d="M92.67,40.22c4.25,0,7.7-2.93,7.7-6.53V17.1H85V33.69C85,37.29,88.43,40.22,92.67,40.22Z"/><path class="cls-10" d="M92.67,37.63c2.56,0,4.64-1.77,4.64-3.94v-14H88v14C88,35.86,90.11,37.63,92.67,37.63Z"/><path class="cls-4" d="M92.67,36.33a2.91,2.91,0,0,0,3.11-2.64V21H89.57V33.69A2.9,2.9,0,0,0,92.67,36.33Z"/><path class="cls-5" d="M92.67,35.68a2.19,2.19,0,0,0,2.34-2v-12H90.33v12A2.19,2.19,0,0,0,92.67,35.68Z"/><path class="cls-1" d="M92.67,22.95h0a.81.81,0,0,1,.81.81V34.38a0,0,0,0,1,0,0H91.86a0,0,0,0,1,0,0V23.76a.81.81,0,0,1,.81-.81Z" transform="translate(185.35 57.33) rotate(-180)"/><path class="cls-11" d="M92.67,41.52c5.09,0,9.24-3.51,9.24-7.83V15.8H83.44V33.69C83.44,38,87.58,41.52,92.67,41.52Z"/><path class="cls-5" d="M92.67,40.22c4.25,0,7.7-2.93,7.7-6.53V17.1H85V33.69C85,37.29,88.43,40.22,92.67,40.22Z"/><path class="cls-1" d="M92.67,37.63c2.56,0,4.64-1.77,4.64-3.94v-14H88v14C88,35.86,90.11,37.63,92.67,37.63Z"/><path class="cls-4" d="M92.67,36.33a2.91,2.91,0,0,0,3.11-2.64V21H89.57V33.69A2.9,2.9,0,0,0,92.67,36.33Z"/><path class="cls-10" d="M92.67,35.68a2.19,2.19,0,0,0,2.34-2v-12H90.33v12A2.19,2.19,0,0,0,92.67,35.68Z"/><path class="cls-5" d="M92.67,22.95h0a.81.81,0,0,1,.81.81V34.38a0,0,0,0,1,0,0H91.86a0,0,0,0,1,0,0V23.76a.81.81,0,0,1,.81-.81Z" transform="translate(185.35 57.33) rotate(-180)"/><path class="cls-9" d="M74.21,41.52C69.12,41.52,65,38,65,33.69V15.8H83.44V33.69C83.44,38,79.3,41.52,74.21,41.52Z"/><path class="cls-5" d="M74.21,40.22c-4.25,0-7.7-2.93-7.7-6.53V17.1h15.4V33.69C81.91,37.29,78.45,40.22,74.21,40.22Z"/><path class="cls-1" d="M74.21,37.63c-2.56,0-4.64-1.77-4.64-3.94v-14h9.28v14C78.85,35.86,76.76,37.63,74.21,37.63Z"/><path class="cls-4" d="M74.21,36.33a2.91,2.91,0,0,1-3.11-2.64V21h6.21V33.69A2.9,2.9,0,0,1,74.21,36.33Z"/><path class="cls-10" d="M74.21,35.68a2.19,2.19,0,0,1-2.34-2v-12h4.68v12A2.19,2.19,0,0,1,74.21,35.68Z"/><path class="cls-5" d="M73.4,22.95H75a0,0,0,0,1,0,0V33.57a.81.81,0,0,1-.81.81h0a.81.81,0,0,1-.81-.81V22.95a0,0,0,0,1,0,0Z"/><path class="cls-2" d="M55.74,41.52C60.83,41.52,65,38,65,33.69V15.8H46.51V33.69C46.51,38,50.65,41.52,55.74,41.52Z"/><path class="cls-3" d="M55.74,40.22c4.25,0,7.7-2.93,7.7-6.53V17.1H48V33.69C48,37.29,51.49,40.22,55.74,40.22Z"/><path class="cls-1" d="M55.74,37.63c2.56,0,4.64-1.77,4.64-3.94v-14H51.1v14C51.1,35.86,53.18,37.63,55.74,37.63Z"/><path class="cls-4" d="M55.74,36.33a2.91,2.91,0,0,0,3.11-2.64V21H52.63V33.69A2.91,2.91,0,0,0,55.74,36.33Z"/><path class="cls-5" d="M55.74,35.68a2.19,2.19,0,0,0,2.34-2v-12H53.4v12A2.19,2.19,0,0,0,55.74,35.68Z"/><path class="cls-4" d="M55.74,22.95h0a.81.81,0,0,1,.81.81V34.38a0,0,0,0,1,0,0H54.93a0,0,0,0,1,0,0V23.76A.81.81,0,0,1,55.74,22.95Z" transform="translate(111.48 57.33) rotate(-180)"/><path class="cls-6" d="M37.27,41.52C32.18,41.52,28,38,28,33.69V15.8H46.51V33.69C46.51,38,42.37,41.52,37.27,41.52Z"/><path class="cls-7" d="M37.27,40.22c-4.24,0-7.7-2.93-7.7-6.53V17.1H45V33.69C45,37.29,41.52,40.22,37.27,40.22Z"/><path class="cls-5" d="M37.27,37.63c-2.55,0-4.63-1.77-4.63-3.94v-14h9.27v14C41.91,35.86,39.83,37.63,37.27,37.63Z"/><path class="cls-4" d="M37.27,36.33a2.9,2.9,0,0,1-3.1-2.64V21h6.21V33.69A2.91,2.91,0,0,1,37.27,36.33Z"/><path class="cls-8" d="M37.27,35.68a2.19,2.19,0,0,1-2.34-2v-12h4.69v12A2.19,2.19,0,0,1,37.27,35.68Z"/><path class="cls-3" d="M36.46,22.95h1.62a0,0,0,0,1,0,0V33.57a.81.81,0,0,1-.81.81h0a.81.81,0,0,1-.81-.81V22.95a0,0,0,0,1,0,0Z"/><path class="cls-9" d="M37.27,41.52C32.18,41.52,28,38,28,33.69V15.8H46.51V33.69C46.51,38,42.37,41.52,37.27,41.52Z"/><path class="cls-8" d="M37.27,40.22c-4.24,0-7.7-2.93-7.7-6.53V17.1H45V33.69C45,37.29,41.52,40.22,37.27,40.22Z"/><path class="cls-10" d="M37.27,37.63c-2.55,0-4.63-1.77-4.63-3.94v-14h9.27v14C41.91,35.86,39.83,37.63,37.27,37.63Z"/><path class="cls-4" d="M37.27,36.33a2.9,2.9,0,0,1-3.1-2.64V21h6.21V33.69A2.91,2.91,0,0,1,37.27,36.33Z"/><path class="cls-5" d="M37.27,35.68a2.19,2.19,0,0,1-2.34-2v-12h4.69v12A2.19,2.19,0,0,1,37.27,35.68Z"/><path class="cls-1" d="M36.46,22.95h1.62a0,0,0,0,1,0,0V33.57a.81.81,0,0,1-.81.81h0a.81.81,0,0,1-.81-.81V22.95a0,0,0,0,1,0,0Z"/><path class="cls-2" d="M646.65,41.52c5.09,0,9.24-3.51,9.24-7.83V15.8H637.42V33.69C637.42,38,641.56,41.52,646.65,41.52Z"/><path class="cls-3" d="M646.65,40.22c4.25,0,7.7-2.93,7.7-6.53V17.1H639V33.69C639,37.29,642.41,40.22,646.65,40.22Z"/><path class="cls-1" d="M646.65,37.63c2.56,0,4.64-1.77,4.64-3.94v-14H642v14C642,35.86,644.09,37.63,646.65,37.63Z"/><path class="cls-4" d="M646.65,36.33a2.91,2.91,0,0,0,3.11-2.64V21h-6.22V33.69A2.91,2.91,0,0,0,646.65,36.33Z"/><path class="cls-5" d="M646.65,35.68a2.19,2.19,0,0,0,2.34-2v-12h-4.68v12A2.19,2.19,0,0,0,646.65,35.68Z"/><path class="cls-4" d="M646.65,22.95h0a.81.81,0,0,1,.81.81V34.38a0,0,0,0,1,0,0h-1.62a0,0,0,0,1,0,0V23.76A.81.81,0,0,1,646.65,22.95Z" transform="translate(1293.3 57.33) rotate(-180)"/><path class="cls-6" d="M628.19,41.52c-5.1,0-9.24-3.51-9.24-7.83V15.8h18.47V33.69C637.42,38,633.28,41.52,628.19,41.52Z"/><path class="cls-7" d="M628.19,40.22c-4.25,0-7.71-2.93-7.71-6.53V17.1h15.41V33.69C635.89,37.29,632.43,40.22,628.19,40.22Z"/><path class="cls-5" d="M628.19,37.63c-2.56,0-4.64-1.77-4.64-3.94v-14h9.27v14C632.82,35.86,630.74,37.63,628.19,37.63Z"/><path class="cls-4" d="M628.19,36.33a2.91,2.91,0,0,1-3.11-2.64V21h6.21V33.69A2.9,2.9,0,0,1,628.19,36.33Z"/><path class="cls-8" d="M628.19,35.68a2.19,2.19,0,0,1-2.35-2v-12h4.69v12A2.19,2.19,0,0,1,628.19,35.68Z"/><path class="cls-3" d="M627.38,22.95H629a0,0,0,0,1,0,0V33.57a.81.81,0,0,1-.81.81h0a.81.81,0,0,1-.81-.81V22.95A0,0,0,0,1,627.38,22.95Z"/><path class="cls-9" d="M628.19,41.52c-5.1,0-9.24-3.51-9.24-7.83V15.8h18.47V33.69C637.42,38,633.28,41.52,628.19,41.52Z"/><path class="cls-8" d="M628.19,40.22c-4.25,0-7.71-2.93-7.71-6.53V17.1h15.41V33.69C635.89,37.29,632.43,40.22,628.19,40.22Z"/><path class="cls-10" d="M628.19,37.63c-2.56,0-4.64-1.77-4.64-3.94v-14h9.27v14C632.82,35.86,630.74,37.63,628.19,37.63Z"/><path class="cls-4" d="M628.19,36.33a2.91,2.91,0,0,1-3.11-2.64V21h6.21V33.69A2.9,2.9,0,0,1,628.19,36.33Z"/><path class="cls-5" d="M628.19,35.68a2.19,2.19,0,0,1-2.35-2v-12h4.69v12A2.19,2.19,0,0,1,628.19,35.68Z"/><path class="cls-1" d="M627.38,22.95H629a0,0,0,0,1,0,0V33.57a.81.81,0,0,1-.81.81h0a.81.81,0,0,1-.81-.81V22.95A0,0,0,0,1,627.38,22.95Z"/><path class="cls-9" d="M609.72,41.52c5.09,0,9.23-3.51,9.23-7.83V15.8H600.49V33.69C600.49,38,604.63,41.52,609.72,41.52Z"/><path class="cls-8" d="M609.72,40.22c4.25,0,7.7-2.93,7.7-6.53V17.1H602V33.69C602,37.29,605.47,40.22,609.72,40.22Z"/><path class="cls-10" d="M609.72,37.63c2.56,0,4.64-1.77,4.64-3.94v-14h-9.28v14C605.08,35.86,607.16,37.63,609.72,37.63Z"/><path class="cls-4" d="M609.72,36.33a2.91,2.91,0,0,0,3.11-2.64V21h-6.22V33.69A2.91,2.91,0,0,0,609.72,36.33Z"/><path class="cls-5" d="M609.72,35.68a2.19,2.19,0,0,0,2.34-2v-12h-4.68v12A2.19,2.19,0,0,0,609.72,35.68Z"/><path class="cls-1" d="M609.72,22.95h0a.81.81,0,0,1,.81.81V34.38a0,0,0,0,1,0,0h-1.62a0,0,0,0,1,0,0V23.76A.81.81,0,0,1,609.72,22.95Z" transform="translate(1219.44 57.33) rotate(-180)"/><path class="cls-11" d="M609.72,41.52c5.09,0,9.23-3.51,9.23-7.83V15.8H600.49V33.69C600.49,38,604.63,41.52,609.72,41.52Z"/><path class="cls-5" d="M609.72,40.22c4.25,0,7.7-2.93,7.7-6.53V17.1H602V33.69C602,37.29,605.47,40.22,609.72,40.22Z"/><path class="cls-1" d="M609.72,37.63c2.56,0,4.64-1.77,4.64-3.94v-14h-9.28v14C605.08,35.86,607.16,37.63,609.72,37.63Z"/><path class="cls-4" d="M609.72,36.33a2.91,2.91,0,0,0,3.11-2.64V21h-6.22V33.69A2.91,2.91,0,0,0,609.72,36.33Z"/><path class="cls-10" d="M609.72,35.68a2.19,2.19,0,0,0,2.34-2v-12h-4.68v12A2.19,2.19,0,0,0,609.72,35.68Z"/><path class="cls-5" d="M609.72,22.95h0a.81.81,0,0,1,.81.81V34.38a0,0,0,0,1,0,0h-1.62a0,0,0,0,1,0,0V23.76A.81.81,0,0,1,609.72,22.95Z" transform="translate(1219.44 57.33) rotate(-180)"/><path class="cls-9" d="M591.25,41.52c-5.09,0-9.23-3.51-9.23-7.83V15.8h18.47V33.69C600.49,38,596.35,41.52,591.25,41.52Z"/><path class="cls-5" d="M591.25,40.22c-4.24,0-7.7-2.93-7.7-6.53V17.1H599V33.69C599,37.29,595.5,40.22,591.25,40.22Z"/><path class="cls-1" d="M591.25,37.63c-2.55,0-4.63-1.77-4.63-3.94v-14h9.27v14C595.89,35.86,593.81,37.63,591.25,37.63Z"/><path class="cls-4" d="M591.25,36.33a2.9,2.9,0,0,1-3.1-2.64V21h6.21V33.69A2.91,2.91,0,0,1,591.25,36.33Z"/><path class="cls-10" d="M591.25,35.68a2.19,2.19,0,0,1-2.34-2v-12h4.69v12A2.19,2.19,0,0,1,591.25,35.68Z"/><path class="cls-5" d="M590.44,22.95h1.62a0,0,0,0,1,0,0V33.57a.81.81,0,0,1-.81.81h0a.81.81,0,0,1-.81-.81V22.95A0,0,0,0,1,590.44,22.95Z"/><path class="cls-9" d="M665.12,41.52c-5.09,0-9.23-3.51-9.23-7.83V15.8h18.46V33.69C674.35,38,670.21,41.52,665.12,41.52Z"/><path class="cls-5" d="M665.12,40.22c-4.25,0-7.7-2.93-7.7-6.53V17.1h15.4V33.69C672.82,37.29,669.36,40.22,665.12,40.22Z"/><path class="cls-1" d="M665.12,37.63c-2.56,0-4.64-1.77-4.64-3.94v-14h9.28v14C669.76,35.86,667.68,37.63,665.12,37.63Z"/><path class="cls-4" d="M665.12,36.33A2.91,2.91,0,0,1,662,33.69V21h6.22V33.69A2.91,2.91,0,0,1,665.12,36.33Z"/><path class="cls-10" d="M665.12,35.68a2.19,2.19,0,0,1-2.34-2v-12h4.68v12A2.19,2.19,0,0,1,665.12,35.68Z"/><path class="cls-5" d="M664.31,22.95h1.62a0,0,0,0,1,0,0V33.57a.81.81,0,0,1-.81.81h0a.81.81,0,0,1-.81-.81V22.95A0,0,0,0,1,664.31,22.95Z"/><path class="cls-11" d="M683.27,41.52c-5.1,0-9.24-3.51-9.24-7.83V15.8H692.5V33.69C692.5,38,688.36,41.52,683.27,41.52Z"/><path class="cls-5" d="M683.27,40.22c-4.25,0-7.71-2.93-7.71-6.53V17.1H691V33.69C691,37.29,687.51,40.22,683.27,40.22Z"/><path class="cls-1" d="M683.27,37.63c-2.56,0-4.64-1.77-4.64-3.94v-14h9.27v14C687.9,35.86,685.82,37.63,683.27,37.63Z"/><path class="cls-4" d="M683.27,36.33a2.91,2.91,0,0,1-3.11-2.64V21h6.21V33.69A2.9,2.9,0,0,1,683.27,36.33Z"/><path class="cls-10" d="M683.27,35.68a2.19,2.19,0,0,1-2.35-2v-12h4.69v12A2.19,2.19,0,0,1,683.27,35.68Z"/><path class="cls-5" d="M682.45,22.95h1.62a0,0,0,0,1,0,0V33.57a.81.81,0,0,1-.81.81h0a.81.81,0,0,1-.81-.81V22.95A0,0,0,0,1,682.45,22.95Z"/><path class="cls-2" d="M572.79,41.52c5.09,0,9.23-3.51,9.23-7.83V15.8H563.56V33.69C563.56,38,567.7,41.52,572.79,41.52Z"/><path class="cls-3" d="M572.79,40.22c4.25,0,7.7-2.93,7.7-6.53V17.1h-15.4V33.69C565.09,37.29,568.54,40.22,572.79,40.22Z"/><path class="cls-1" d="M572.79,37.63c2.56,0,4.64-1.77,4.64-3.94v-14h-9.28v14C568.15,35.86,570.23,37.63,572.79,37.63Z"/><path class="cls-4" d="M572.79,36.33a2.91,2.91,0,0,0,3.11-2.64V21h-6.22V33.69A2.91,2.91,0,0,0,572.79,36.33Z"/><path class="cls-5" d="M572.79,35.68a2.19,2.19,0,0,0,2.34-2v-12h-4.68v12A2.19,2.19,0,0,0,572.79,35.68Z"/><path class="cls-4" d="M572.79,22.95h0a.81.81,0,0,1,.81.81V34.38a0,0,0,0,1,0,0H572a0,0,0,0,1,0,0V23.76A.81.81,0,0,1,572.79,22.95Z" transform="translate(1145.58 57.33) rotate(-180)"/><path class="cls-6" d="M554.32,41.52c-5.09,0-9.23-3.51-9.23-7.83V15.8h18.47V33.69C563.56,38,559.41,41.52,554.32,41.52Z"/><path class="cls-7" d="M554.32,40.22c-4.24,0-7.7-2.93-7.7-6.53V17.1H562V33.69C562,37.29,558.57,40.22,554.32,40.22Z"/><path class="cls-5" d="M554.32,37.63c-2.56,0-4.64-1.77-4.64-3.94v-14H559v14C559,35.86,556.88,37.63,554.32,37.63Z"/><path class="cls-4" d="M554.32,36.33a2.91,2.91,0,0,1-3.11-2.64V21h6.22V33.69A2.91,2.91,0,0,1,554.32,36.33Z"/><path class="cls-8" d="M554.32,35.68a2.19,2.19,0,0,1-2.34-2v-12h4.68v12A2.19,2.19,0,0,1,554.32,35.68Z"/><path class="cls-3" d="M553.51,22.95h1.62a0,0,0,0,1,0,0V33.57a.81.81,0,0,1-.81.81h0a.81.81,0,0,1-.81-.81V22.95A0,0,0,0,1,553.51,22.95Z"/><path class="cls-9" d="M554.32,41.52c-5.09,0-9.23-3.51-9.23-7.83V15.8h18.47V33.69C563.56,38,559.41,41.52,554.32,41.52Z"/><path class="cls-8" d="M554.32,40.22c-4.24,0-7.7-2.93-7.7-6.53V17.1H562V33.69C562,37.29,558.57,40.22,554.32,40.22Z"/><path class="cls-10" d="M554.32,37.63c-2.56,0-4.64-1.77-4.64-3.94v-14H559v14C559,35.86,556.88,37.63,554.32,37.63Z"/><path class="cls-4" d="M554.32,36.33a2.91,2.91,0,0,1-3.11-2.64V21h6.22V33.69A2.91,2.91,0,0,1,554.32,36.33Z"/><path class="cls-5" d="M554.32,35.68a2.19,2.19,0,0,1-2.34-2v-12h4.68v12A2.19,2.19,0,0,1,554.32,35.68Z"/><path class="cls-1" d="M553.51,22.95h1.62a0,0,0,0,1,0,0V33.57a.81.81,0,0,1-.81.81h0a.81.81,0,0,1-.81-.81V22.95A0,0,0,0,1,553.51,22.95Z"/><path class="cls-9" d="M535.86,41.52c5.09,0,9.23-3.51,9.23-7.83V15.8H526.62V33.69C526.62,38,530.77,41.52,535.86,41.52Z"/><path class="cls-8" d="M535.86,40.22c4.24,0,7.7-2.93,7.7-6.53V17.1H528.15V33.69C528.15,37.29,531.61,40.22,535.86,40.22Z"/><path class="cls-10" d="M535.86,37.63c2.55,0,4.64-1.77,4.64-3.94v-14h-9.28v14C531.22,35.86,533.3,37.63,535.86,37.63Z"/><path class="cls-4" d="M535.86,36.33a2.9,2.9,0,0,0,3.1-2.64V21h-6.21V33.69A2.91,2.91,0,0,0,535.86,36.33Z"/><path class="cls-5" d="M535.86,35.68a2.19,2.19,0,0,0,2.34-2v-12h-4.69v12A2.2,2.2,0,0,0,535.86,35.68Z"/><path class="cls-1" d="M535.86,22.95h0a.81.81,0,0,1,.81.81V34.38a0,0,0,0,1,0,0H535a0,0,0,0,1,0,0V23.76A.81.81,0,0,1,535.86,22.95Z" transform="translate(1071.71 57.33) rotate(-180)"/><path class="cls-11" d="M535.86,41.52c5.09,0,9.23-3.51,9.23-7.83V15.8H526.62V33.69C526.62,38,530.77,41.52,535.86,41.52Z"/><path class="cls-5" d="M535.86,40.22c4.24,0,7.7-2.93,7.7-6.53V17.1H528.15V33.69C528.15,37.29,531.61,40.22,535.86,40.22Z"/><path class="cls-1" d="M535.86,37.63c2.55,0,4.64-1.77,4.64-3.94v-14h-9.28v14C531.22,35.86,533.3,37.63,535.86,37.63Z"/><path class="cls-4" d="M535.86,36.33a2.9,2.9,0,0,0,3.1-2.64V21h-6.21V33.69A2.91,2.91,0,0,0,535.86,36.33Z"/><path class="cls-10" d="M535.86,35.68a2.19,2.19,0,0,0,2.34-2v-12h-4.69v12A2.2,2.2,0,0,0,535.86,35.68Z"/><path class="cls-5" d="M535.86,22.95h0a.81.81,0,0,1,.81.81V34.38a0,0,0,0,1,0,0H535a0,0,0,0,1,0,0V23.76A.81.81,0,0,1,535.86,22.95Z" transform="translate(1071.71 57.33) rotate(-180)"/><path class="cls-9" d="M517.39,41.52c-5.09,0-9.23-3.51-9.23-7.83V15.8h18.46V33.69C526.62,38,522.48,41.52,517.39,41.52Z"/><path class="cls-5" d="M517.39,40.22c-4.25,0-7.7-2.93-7.7-6.53V17.1h15.4V33.69C525.09,37.29,521.64,40.22,517.39,40.22Z"/><path class="cls-1" d="M517.39,37.63c-2.56,0-4.64-1.77-4.64-3.94v-14H522v14C522,35.86,520,37.63,517.39,37.63Z"/><path class="cls-4" d="M517.39,36.33a2.91,2.91,0,0,1-3.11-2.64V21h6.22V33.69A2.91,2.91,0,0,1,517.39,36.33Z"/><path class="cls-10" d="M517.39,35.68a2.19,2.19,0,0,1-2.34-2v-12h4.68v12A2.19,2.19,0,0,1,517.39,35.68Z"/><path class="cls-5" d="M516.58,22.95h1.62a0,0,0,0,1,0,0V33.57a.81.81,0,0,1-.81.81h0a.81.81,0,0,1-.81-.81V22.95A0,0,0,0,1,516.58,22.95Z"/><path class="cls-2" d="M498.92,41.52c5.1,0,9.24-3.51,9.24-7.83V15.8H489.69V33.69C489.69,38,493.83,41.52,498.92,41.52Z"/><path class="cls-3" d="M498.92,40.22c4.25,0,7.71-2.93,7.71-6.53V17.1H491.22V33.69C491.22,37.29,494.68,40.22,498.92,40.22Z"/><path class="cls-1" d="M498.92,37.63c2.56,0,4.64-1.77,4.64-3.94v-14h-9.27v14C494.29,35.86,496.37,37.63,498.92,37.63Z"/><path class="cls-4" d="M498.92,36.33A2.91,2.91,0,0,0,502,33.69V21h-6.21V33.69A2.9,2.9,0,0,0,498.92,36.33Z"/><path class="cls-5" d="M498.92,35.68a2.19,2.19,0,0,0,2.35-2v-12h-4.69v12A2.19,2.19,0,0,0,498.92,35.68Z"/><path class="cls-4" d="M498.92,22.95h0a.81.81,0,0,1,.81.81V34.38a0,0,0,0,1,0,0h-1.62a0,0,0,0,1,0,0V23.76A.81.81,0,0,1,498.92,22.95Z" transform="translate(997.85 57.33) rotate(-180)"/><path class="cls-6" d="M480.46,41.52c-5.09,0-9.23-3.51-9.23-7.83V15.8h18.46V33.69C489.69,38,485.55,41.52,480.46,41.52Z"/><path class="cls-7" d="M480.46,40.22c-4.25,0-7.7-2.93-7.7-6.53V17.1h15.4V33.69C488.16,37.29,484.7,40.22,480.46,40.22Z"/><path class="cls-5" d="M480.46,37.63c-2.56,0-4.64-1.77-4.64-3.94v-14h9.28v14C485.1,35.86,483,37.63,480.46,37.63Z"/><path class="cls-4" d="M480.46,36.33a2.91,2.91,0,0,1-3.11-2.64V21h6.22V33.69A2.91,2.91,0,0,1,480.46,36.33Z"/><path class="cls-8" d="M480.46,35.68a2.19,2.19,0,0,1-2.34-2v-12h4.68v12A2.19,2.19,0,0,1,480.46,35.68Z"/><path class="cls-3" d="M479.65,22.95h1.62a0,0,0,0,1,0,0V33.57a.81.81,0,0,1-.81.81h0a.81.81,0,0,1-.81-.81V22.95a0,0,0,0,1,0,0Z"/><path class="cls-9" d="M480.46,41.52c-5.09,0-9.23-3.51-9.23-7.83V15.8h18.46V33.69C489.69,38,485.55,41.52,480.46,41.52Z"/><path class="cls-8" d="M480.46,40.22c-4.25,0-7.7-2.93-7.7-6.53V17.1h15.4V33.69C488.16,37.29,484.7,40.22,480.46,40.22Z"/><path class="cls-10" d="M480.46,37.63c-2.56,0-4.64-1.77-4.64-3.94v-14h9.28v14C485.1,35.86,483,37.63,480.46,37.63Z"/><path class="cls-4" d="M480.46,36.33a2.91,2.91,0,0,1-3.11-2.64V21h6.22V33.69A2.91,2.91,0,0,1,480.46,36.33Z"/><path class="cls-5" d="M480.46,35.68a2.19,2.19,0,0,1-2.34-2v-12h4.68v12A2.19,2.19,0,0,1,480.46,35.68Z"/><path class="cls-1" d="M479.65,22.95h1.62a0,0,0,0,1,0,0V33.57a.81.81,0,0,1-.81.81h0a.81.81,0,0,1-.81-.81V22.95a0,0,0,0,1,0,0Z"/><path class="cls-9" d="M462,41.52c5.09,0,9.24-3.51,9.24-7.83V15.8H452.76V33.69C452.76,38,456.9,41.52,462,41.52Z"/><path class="cls-8" d="M462,40.22c4.25,0,7.7-2.93,7.7-6.53V17.1h-15.4V33.69C454.29,37.29,457.75,40.22,462,40.22Z"/><path class="cls-10" d="M462,37.63c2.56,0,4.64-1.77,4.64-3.94v-14h-9.28v14C457.35,35.86,459.43,37.63,462,37.63Z"/><path class="cls-4" d="M462,36.33a2.91,2.91,0,0,0,3.11-2.64V21h-6.21V33.69A2.9,2.9,0,0,0,462,36.33Z"/><path class="cls-5" d="M462,35.68a2.19,2.19,0,0,0,2.34-2v-12h-4.68v12A2.19,2.19,0,0,0,462,35.68Z"/><path class="cls-1" d="M462,22.95h0a.81.81,0,0,1,.81.81V34.38a0,0,0,0,1,0,0h-1.62a0,0,0,0,1,0,0V23.76A.81.81,0,0,1,462,22.95Z" transform="translate(923.99 57.33) rotate(-180)"/><path class="cls-11" d="M462,41.52c5.09,0,9.24-3.51,9.24-7.83V15.8H452.76V33.69C452.76,38,456.9,41.52,462,41.52Z"/><path class="cls-5" d="M462,40.22c4.25,0,7.7-2.93,7.7-6.53V17.1h-15.4V33.69C454.29,37.29,457.75,40.22,462,40.22Z"/><path class="cls-1" d="M462,37.63c2.56,0,4.64-1.77,4.64-3.94v-14h-9.28v14C457.35,35.86,459.43,37.63,462,37.63Z"/><path class="cls-4" d="M462,36.33a2.91,2.91,0,0,0,3.11-2.64V21h-6.21V33.69A2.9,2.9,0,0,0,462,36.33Z"/><path class="cls-10" d="M462,35.68a2.19,2.19,0,0,0,2.34-2v-12h-4.68v12A2.19,2.19,0,0,0,462,35.68Z"/><path class="cls-5" d="M462,22.95h0a.81.81,0,0,1,.81.81V34.38a0,0,0,0,1,0,0h-1.62a0,0,0,0,1,0,0V23.76A.81.81,0,0,1,462,22.95Z" transform="translate(923.99 57.33) rotate(-180)"/><path class="cls-9" d="M443.53,41.52c-5.09,0-9.24-3.51-9.24-7.83V15.8h18.47V33.69C452.76,38,448.62,41.52,443.53,41.52Z"/><path class="cls-5" d="M443.53,40.22c-4.25,0-7.71-2.93-7.71-6.53V17.1h15.41V33.69C451.23,37.29,447.77,40.22,443.53,40.22Z"/><path class="cls-1" d="M443.53,37.63c-2.56,0-4.64-1.77-4.64-3.94v-14h9.27v14C448.16,35.86,446.08,37.63,443.53,37.63Z"/><path class="cls-4" d="M443.53,36.33a2.91,2.91,0,0,1-3.11-2.64V21h6.21V33.69A2.9,2.9,0,0,1,443.53,36.33Z"/><path class="cls-10" d="M443.53,35.68a2.19,2.19,0,0,1-2.35-2v-12h4.69v12A2.19,2.19,0,0,1,443.53,35.68Z"/><path class="cls-5" d="M442.72,22.95h1.62a0,0,0,0,1,0,0V33.57a.81.81,0,0,1-.81.81h0a.81.81,0,0,1-.81-.81V22.95a0,0,0,0,1,0,0Z"/><path class="cls-2" d="M425.06,41.52c5.09,0,9.23-3.51,9.23-7.83V15.8H415.83V33.69C415.83,38,420,41.52,425.06,41.52Z"/><path class="cls-3" d="M425.06,40.22c4.25,0,7.7-2.93,7.7-6.53V17.1h-15.4V33.69C417.36,37.29,420.81,40.22,425.06,40.22Z"/><path class="cls-1" d="M425.06,37.63c2.56,0,4.64-1.77,4.64-3.94v-14h-9.28v14C420.42,35.86,422.5,37.63,425.06,37.63Z"/><path class="cls-4" d="M425.06,36.33a2.91,2.91,0,0,0,3.11-2.64V21H422V33.69A2.91,2.91,0,0,0,425.06,36.33Z"/><path class="cls-5" d="M425.06,35.68a2.19,2.19,0,0,0,2.34-2v-12h-4.68v12A2.19,2.19,0,0,0,425.06,35.68Z"/><path class="cls-4" d="M425.06,22.95h0a.81.81,0,0,1,.81.81V34.38a0,0,0,0,1,0,0h-1.62a0,0,0,0,1,0,0V23.76A.81.81,0,0,1,425.06,22.95Z" transform="translate(850.12 57.33) rotate(-180)"/><path class="cls-6" d="M406.59,41.52c-5.09,0-9.23-3.51-9.23-7.83V15.8h18.47V33.69C415.83,38,411.69,41.52,406.59,41.52Z"/><path class="cls-7" d="M406.59,40.22c-4.24,0-7.7-2.93-7.7-6.53V17.1H414.3V33.69C414.3,37.29,410.84,40.22,406.59,40.22Z"/><path class="cls-5" d="M406.59,37.63c-2.55,0-4.63-1.77-4.63-3.94v-14h9.27v14C411.23,35.86,409.15,37.63,406.59,37.63Z"/><path class="cls-4" d="M406.59,36.33a2.9,2.9,0,0,1-3.1-2.64V21h6.21V33.69A2.91,2.91,0,0,1,406.59,36.33Z"/><path class="cls-8" d="M406.59,35.68a2.19,2.19,0,0,1-2.34-2v-12h4.69v12A2.19,2.19,0,0,1,406.59,35.68Z"/><path class="cls-3" d="M405.78,22.95h1.62a0,0,0,0,1,0,0V33.57a.81.81,0,0,1-.81.81h0a.81.81,0,0,1-.81-.81V22.95A0,0,0,0,1,405.78,22.95Z"/><path class="cls-9" d="M406.59,41.52c-5.09,0-9.23-3.51-9.23-7.83V15.8h18.47V33.69C415.83,38,411.69,41.52,406.59,41.52Z"/><path class="cls-8" d="M406.59,40.22c-4.24,0-7.7-2.93-7.7-6.53V17.1H414.3V33.69C414.3,37.29,410.84,40.22,406.59,40.22Z"/><path class="cls-10" d="M406.59,37.63c-2.55,0-4.63-1.77-4.63-3.94v-14h9.27v14C411.23,35.86,409.15,37.63,406.59,37.63Z"/><path class="cls-4" d="M406.59,36.33a2.9,2.9,0,0,1-3.1-2.64V21h6.21V33.69A2.91,2.91,0,0,1,406.59,36.33Z"/><path class="cls-5" d="M406.59,35.68a2.19,2.19,0,0,1-2.34-2v-12h4.69v12A2.19,2.19,0,0,1,406.59,35.68Z"/><path class="cls-1" d="M405.78,22.95h1.62a0,0,0,0,1,0,0V33.57a.81.81,0,0,1-.81.81h0a.81.81,0,0,1-.81-.81V22.95A0,0,0,0,1,405.78,22.95Z"/><path class="cls-9" d="M388.13,41.52c5.09,0,9.23-3.51,9.23-7.83V15.8H378.9V33.69C378.9,38,383,41.52,388.13,41.52Z"/><path class="cls-8" d="M388.13,40.22c4.25,0,7.7-2.93,7.7-6.53V17.1h-15.4V33.69C380.43,37.29,383.88,40.22,388.13,40.22Z"/><path class="cls-10" d="M388.13,37.63c2.56,0,4.64-1.77,4.64-3.94v-14h-9.28v14C383.49,35.86,385.57,37.63,388.13,37.63Z"/><path class="cls-4" d="M388.13,36.33a2.91,2.91,0,0,0,3.11-2.64V21H385V33.69A2.91,2.91,0,0,0,388.13,36.33Z"/><path class="cls-5" d="M388.13,35.68a2.19,2.19,0,0,0,2.34-2v-12h-4.68v12A2.19,2.19,0,0,0,388.13,35.68Z"/><path class="cls-1" d="M388.13,22.95h0a.81.81,0,0,1,.81.81V34.38a0,0,0,0,1,0,0h-1.62a0,0,0,0,1,0,0V23.76A.81.81,0,0,1,388.13,22.95Z" transform="translate(776.26 57.33) rotate(-180)"/><path class="cls-11" d="M388.13,41.52c5.09,0,9.23-3.51,9.23-7.83V15.8H378.9V33.69C378.9,38,383,41.52,388.13,41.52Z"/><path class="cls-5" d="M388.13,40.22c4.25,0,7.7-2.93,7.7-6.53V17.1h-15.4V33.69C380.43,37.29,383.88,40.22,388.13,40.22Z"/><path class="cls-1" d="M388.13,37.63c2.56,0,4.64-1.77,4.64-3.94v-14h-9.28v14C383.49,35.86,385.57,37.63,388.13,37.63Z"/><path class="cls-4" d="M388.13,36.33a2.91,2.91,0,0,0,3.11-2.64V21H385V33.69A2.91,2.91,0,0,0,388.13,36.33Z"/><path class="cls-10" d="M388.13,35.68a2.19,2.19,0,0,0,2.34-2v-12h-4.68v12A2.19,2.19,0,0,0,388.13,35.68Z"/><path class="cls-5" d="M388.13,22.95h0a.81.81,0,0,1,.81.81V34.38a0,0,0,0,1,0,0h-1.62a0,0,0,0,1,0,0V23.76A.81.81,0,0,1,388.13,22.95Z" transform="translate(776.26 57.33) rotate(-180)"/><path class="cls-9" d="M369.66,41.52c-5.09,0-9.23-3.51-9.23-7.83V15.8H378.9V33.69C378.9,38,374.75,41.52,369.66,41.52Z"/><path class="cls-5" d="M369.66,40.22c-4.24,0-7.7-2.93-7.7-6.53V17.1h15.4V33.69C377.36,37.29,373.91,40.22,369.66,40.22Z"/><path class="cls-1" d="M369.66,37.63c-2.56,0-4.64-1.77-4.64-3.94v-14h9.28v14C374.3,35.86,372.22,37.63,369.66,37.63Z"/><path class="cls-4" d="M369.66,36.33a2.91,2.91,0,0,1-3.11-2.64V21h6.22V33.69A2.91,2.91,0,0,1,369.66,36.33Z"/><path class="cls-10" d="M369.66,35.68a2.19,2.19,0,0,1-2.34-2v-12H372v12A2.19,2.19,0,0,1,369.66,35.68Z"/><path class="cls-5" d="M368.85,22.95h1.62a0,0,0,0,1,0,0V33.57a.81.81,0,0,1-.81.81h0a.81.81,0,0,1-.81-.81V22.95A0,0,0,0,1,368.85,22.95Z"/><path class="cls-2" d="M369.93,27.57c-5.24,0-9.5-3.62-9.5-8.06V1.12h19V19.51C379.42,24,375.16,27.57,369.93,27.57Z"/><path class="cls-3" d="M369.93,26.23c-4.37,0-7.92-3-7.92-6.72V2.45h15.84V19.51C377.85,23.22,374.29,26.23,369.93,26.23Z"/><path class="cls-1" d="M369.93,23.56c-2.63,0-4.77-1.82-4.77-4V5.13h9.54V19.51C374.7,21.74,372.56,23.56,369.93,23.56Z"/><path class="cls-4" d="M369.93,22.22a3,3,0,0,1-3.2-2.71v-13h6.39V19.51A3,3,0,0,1,369.93,22.22Z"/><path class="cls-5" d="M369.93,21.56a2.25,2.25,0,0,1-2.41-2V7.13h4.82V19.51A2.25,2.25,0,0,1,369.93,21.56Z"/><path class="cls-4" d="M369.09,8.47h1.67a0,0,0,0,1,0,0V19.39a.83.83,0,0,1-.83.83h0a.83.83,0,0,1-.83-.83V8.47A0,0,0,0,1,369.09,8.47Z"/><path class="cls-6" d="M388.92,27.57c5.23,0,9.49-3.62,9.49-8.06V1.12h-19V19.51C379.42,24,383.68,27.57,388.92,27.57Z"/><path class="cls-7" d="M388.92,26.23c4.36,0,7.92-3,7.92-6.72V2.45H381V19.51C381,23.22,384.55,26.23,388.92,26.23Z"/><path class="cls-5" d="M388.92,23.56c2.63,0,4.77-1.82,4.77-4V5.13h-9.54V19.51C384.15,21.74,386.29,23.56,388.92,23.56Z"/><path class="cls-4" d="M388.92,22.22a3,3,0,0,0,3.19-2.71v-13h-6.39V19.51A3,3,0,0,0,388.92,22.22Z"/><path class="cls-8" d="M388.92,21.56a2.25,2.25,0,0,0,2.4-2V7.13h-4.81V19.51A2.25,2.25,0,0,0,388.92,21.56Z"/><path class="cls-3" d="M388.92,8.47h0a.83.83,0,0,1,.83.83V20.22a0,0,0,0,1,0,0h-1.67a0,0,0,0,1,0,0V9.3A.83.83,0,0,1,388.92,8.47Z" transform="translate(777.83 28.69) rotate(-180)"/><path class="cls-9" d="M388.92,27.57c5.23,0,9.49-3.62,9.49-8.06V1.12h-19V19.51C379.42,24,383.68,27.57,388.92,27.57Z"/><path class="cls-8" d="M388.92,26.23c4.36,0,7.92-3,7.92-6.72V2.45H381V19.51C381,23.22,384.55,26.23,388.92,26.23Z"/><path class="cls-10" d="M388.92,23.56c2.63,0,4.77-1.82,4.77-4V5.13h-9.54V19.51C384.15,21.74,386.29,23.56,388.92,23.56Z"/><path class="cls-4" d="M388.92,22.22a3,3,0,0,0,3.19-2.71v-13h-6.39V19.51A3,3,0,0,0,388.92,22.22Z"/><path class="cls-5" d="M388.92,21.56a2.25,2.25,0,0,0,2.4-2V7.13h-4.81V19.51A2.25,2.25,0,0,0,388.92,21.56Z"/><path class="cls-1" d="M388.92,8.47h0a.83.83,0,0,1,.83.83V20.22a0,0,0,0,1,0,0h-1.67a0,0,0,0,1,0,0V9.3A.83.83,0,0,1,388.92,8.47Z" transform="translate(777.83 28.69) rotate(-180)"/><path class="cls-9" d="M407.91,27.57c-5.24,0-9.5-3.62-9.5-8.06V1.12h19V19.51C417.4,24,413.14,27.57,407.91,27.57Z"/><path class="cls-8" d="M407.91,26.23c-4.37,0-7.92-3-7.92-6.72V2.45h15.83V19.51C415.82,23.22,412.27,26.23,407.91,26.23Z"/><path class="cls-10" d="M407.91,23.56c-2.64,0-4.77-1.82-4.77-4V5.13h9.54V19.51C412.68,21.74,410.54,23.56,407.91,23.56Z"/><path class="cls-4" d="M407.91,22.22a3,3,0,0,1-3.2-2.71v-13h6.39V19.51A3,3,0,0,1,407.91,22.22Z"/><path class="cls-5" d="M407.91,21.56a2.25,2.25,0,0,1-2.41-2V7.13h4.81V19.51A2.25,2.25,0,0,1,407.91,21.56Z"/><path class="cls-1" d="M407.07,8.47h1.67a0,0,0,0,1,0,0V19.39a.83.83,0,0,1-.83.83h0a.83.83,0,0,1-.83-.83V8.47A0,0,0,0,1,407.07,8.47Z"/><path class="cls-11" d="M407.91,27.57c-5.24,0-9.5-3.62-9.5-8.06V1.12h19V19.51C417.4,24,413.14,27.57,407.91,27.57Z"/><path class="cls-5" d="M407.91,26.23c-4.37,0-7.92-3-7.92-6.72V2.45h15.83V19.51C415.82,23.22,412.27,26.23,407.91,26.23Z"/><path class="cls-1" d="M407.91,23.56c-2.64,0-4.77-1.82-4.77-4V5.13h9.54V19.51C412.68,21.74,410.54,23.56,407.91,23.56Z"/><path class="cls-4" d="M407.91,22.22a3,3,0,0,1-3.2-2.71v-13h6.39V19.51A3,3,0,0,1,407.91,22.22Z"/><path class="cls-10" d="M407.91,21.56a2.25,2.25,0,0,1-2.41-2V7.13h4.81V19.51A2.25,2.25,0,0,1,407.91,21.56Z"/><path class="cls-5" d="M407.07,8.47h1.67a0,0,0,0,1,0,0V19.39a.83.83,0,0,1-.83.83h0a.83.83,0,0,1-.83-.83V8.47A0,0,0,0,1,407.07,8.47Z"/><path class="cls-9" d="M426.89,27.57c5.24,0,9.5-3.62,9.5-8.06V1.12h-19V19.51C417.4,24,421.66,27.57,426.89,27.57Z"/><path class="cls-5" d="M426.89,26.23c4.37,0,7.92-3,7.92-6.72V2.45H419V19.51C419,23.22,422.53,26.23,426.89,26.23Z"/><path class="cls-1" d="M426.89,23.56c2.63,0,4.77-1.82,4.77-4V5.13h-9.54V19.51C422.12,21.74,424.26,23.56,426.89,23.56Z"/><path class="cls-4" d="M426.89,22.22a3,3,0,0,0,3.2-2.71v-13H423.7V19.51A3,3,0,0,0,426.89,22.22Z"/><path class="cls-10" d="M426.89,21.56a2.25,2.25,0,0,0,2.41-2V7.13h-4.81V19.51A2.25,2.25,0,0,0,426.89,21.56Z"/><path class="cls-5" d="M426.89,8.47h0a.83.83,0,0,1,.83.83V20.22a0,0,0,0,1,0,0h-1.67a0,0,0,0,1,0,0V9.3A.83.83,0,0,1,426.89,8.47Z" transform="translate(853.79 28.69) rotate(-180)"/><path class="cls-2" d="M445.88,27.57c-5.23,0-9.49-3.62-9.49-8.06V1.12h19V19.51C455.38,24,451.12,27.57,445.88,27.57Z"/><path class="cls-3" d="M445.88,26.23c-4.36,0-7.92-3-7.92-6.72V2.45H453.8V19.51C453.8,23.22,450.25,26.23,445.88,26.23Z"/><path class="cls-1" d="M445.88,23.56c-2.63,0-4.77-1.82-4.77-4V5.13h9.54V19.51C450.65,21.74,448.51,23.56,445.88,23.56Z"/><path class="cls-4" d="M445.88,22.22a3,3,0,0,1-3.19-2.71v-13h6.39V19.51A3,3,0,0,1,445.88,22.22Z"/><path class="cls-5" d="M445.88,21.56a2.25,2.25,0,0,1-2.41-2V7.13h4.82V19.51A2.25,2.25,0,0,1,445.88,21.56Z"/><path class="cls-4" d="M445,8.47h1.67a0,0,0,0,1,0,0V19.39a.83.83,0,0,1-.83.83h0a.83.83,0,0,1-.83-.83V8.47a0,0,0,0,1,0,0Z"/><path class="cls-6" d="M464.87,27.57c5.24,0,9.49-3.62,9.49-8.06V1.12h-19V19.51C455.38,24,459.64,27.57,464.87,27.57Z"/><path class="cls-7" d="M464.87,26.23c4.37,0,7.92-3,7.92-6.72V2.45H457V19.51C457,23.22,460.5,26.23,464.87,26.23Z"/><path class="cls-5" d="M464.87,23.56c2.63,0,4.77-1.82,4.77-4V5.13H460.1V19.51C460.1,21.74,462.24,23.56,464.87,23.56Z"/><path class="cls-4" d="M464.87,22.22a3,3,0,0,0,3.2-2.71v-13h-6.39V19.51A3,3,0,0,0,464.87,22.22Z"/><path class="cls-8" d="M464.87,21.56a2.25,2.25,0,0,0,2.41-2V7.13h-4.82V19.51A2.25,2.25,0,0,0,464.87,21.56Z"/><path class="cls-3" d="M464.87,8.47h0a.83.83,0,0,1,.83.83V20.22a0,0,0,0,1,0,0H464a0,0,0,0,1,0,0V9.3A.83.83,0,0,1,464.87,8.47Z" transform="translate(929.74 28.69) rotate(-180)"/><path class="cls-9" d="M464.87,27.57c5.24,0,9.49-3.62,9.49-8.06V1.12h-19V19.51C455.38,24,459.64,27.57,464.87,27.57Z"/><path class="cls-8" d="M464.87,26.23c4.37,0,7.92-3,7.92-6.72V2.45H457V19.51C457,23.22,460.5,26.23,464.87,26.23Z"/><path class="cls-10" d="M464.87,23.56c2.63,0,4.77-1.82,4.77-4V5.13H460.1V19.51C460.1,21.74,462.24,23.56,464.87,23.56Z"/><path class="cls-4" d="M464.87,22.22a3,3,0,0,0,3.2-2.71v-13h-6.39V19.51A3,3,0,0,0,464.87,22.22Z"/><path class="cls-5" d="M464.87,21.56a2.25,2.25,0,0,0,2.41-2V7.13h-4.82V19.51A2.25,2.25,0,0,0,464.87,21.56Z"/><path class="cls-1" d="M464.87,8.47h0a.83.83,0,0,1,.83.83V20.22a0,0,0,0,1,0,0H464a0,0,0,0,1,0,0V9.3A.83.83,0,0,1,464.87,8.47Z" transform="translate(929.74 28.69) rotate(-180)"/><path class="cls-9" d="M483.86,27.57c-5.24,0-9.5-3.62-9.5-8.06V1.12h19V19.51C493.35,24,489.09,27.57,483.86,27.57Z"/><path class="cls-8" d="M483.86,26.23c-4.37,0-7.92-3-7.92-6.72V2.45h15.84V19.51C491.78,23.22,488.23,26.23,483.86,26.23Z"/><path class="cls-10" d="M483.86,23.56c-2.63,0-4.77-1.82-4.77-4V5.13h9.54V19.51C488.63,21.74,486.49,23.56,483.86,23.56Z"/><path class="cls-4" d="M483.86,22.22a3,3,0,0,1-3.2-2.71v-13h6.39V19.51A3,3,0,0,1,483.86,22.22Z"/><path class="cls-5" d="M483.86,21.56a2.25,2.25,0,0,1-2.41-2V7.13h4.82V19.51A2.25,2.25,0,0,1,483.86,21.56Z"/><path class="cls-1" d="M483,8.47h1.67a0,0,0,0,1,0,0V19.39a.83.83,0,0,1-.83.83h0a.83.83,0,0,1-.83-.83V8.47a0,0,0,0,1,0,0Z"/><path class="cls-11" d="M483.86,27.57c-5.24,0-9.5-3.62-9.5-8.06V1.12h19V19.51C493.35,24,489.09,27.57,483.86,27.57Z"/><path class="cls-5" d="M483.86,26.23c-4.37,0-7.92-3-7.92-6.72V2.45h15.84V19.51C491.78,23.22,488.23,26.23,483.86,26.23Z"/><path class="cls-1" d="M483.86,23.56c-2.63,0-4.77-1.82-4.77-4V5.13h9.54V19.51C488.63,21.74,486.49,23.56,483.86,23.56Z"/><path class="cls-4" d="M483.86,22.22a3,3,0,0,1-3.2-2.71v-13h6.39V19.51A3,3,0,0,1,483.86,22.22Z"/><path class="cls-10" d="M483.86,21.56a2.25,2.25,0,0,1-2.41-2V7.13h4.82V19.51A2.25,2.25,0,0,1,483.86,21.56Z"/><path class="cls-5" d="M483,8.47h1.67a0,0,0,0,1,0,0V19.39a.83.83,0,0,1-.83.83h0a.83.83,0,0,1-.83-.83V8.47a0,0,0,0,1,0,0Z"/><path class="cls-9" d="M502.85,27.57c5.23,0,9.49-3.62,9.49-8.06V1.12h-19V19.51C493.35,24,497.61,27.57,502.85,27.57Z"/><path class="cls-5" d="M502.85,26.23c4.36,0,7.92-3,7.92-6.72V2.45H494.93V19.51C494.93,23.22,498.48,26.23,502.85,26.23Z"/><path class="cls-1" d="M502.85,23.56c2.63,0,4.77-1.82,4.77-4V5.13h-9.54V19.51C498.08,21.74,500.22,23.56,502.85,23.56Z"/><path class="cls-4" d="M502.85,22.22A3,3,0,0,0,506,19.51v-13h-6.39V19.51A3,3,0,0,0,502.85,22.22Z"/><path class="cls-10" d="M502.85,21.56a2.25,2.25,0,0,0,2.41-2V7.13h-4.82V19.51A2.25,2.25,0,0,0,502.85,21.56Z"/><path class="cls-5" d="M502.85,8.47h0a.83.83,0,0,1,.83.83V20.22a0,0,0,0,1,0,0H502a0,0,0,0,1,0,0V9.3A.83.83,0,0,1,502.85,8.47Z" transform="translate(1005.7 28.69) rotate(-180)"/><path class="cls-2" d="M521.84,27.57c-5.24,0-9.5-3.62-9.5-8.06V1.12h19V19.51C531.33,24,527.07,27.57,521.84,27.57Z"/><path class="cls-3" d="M521.84,26.23c-4.37,0-7.92-3-7.92-6.72V2.45h15.84V19.51C529.76,23.22,526.2,26.23,521.84,26.23Z"/><path class="cls-1" d="M521.84,23.56c-2.63,0-4.77-1.82-4.77-4V5.13h9.54V19.51C526.61,21.74,524.47,23.56,521.84,23.56Z"/><path class="cls-4" d="M521.84,22.22a3,3,0,0,1-3.2-2.71v-13H525V19.51A3,3,0,0,1,521.84,22.22Z"/><path class="cls-5" d="M521.84,21.56a2.25,2.25,0,0,1-2.41-2V7.13h4.81V19.51A2.25,2.25,0,0,1,521.84,21.56Z"/><path class="cls-4" d="M521,8.47h1.67a0,0,0,0,1,0,0V19.39a.83.83,0,0,1-.83.83h0a.83.83,0,0,1-.83-.83V8.47a0,0,0,0,1,0,0Z"/><path class="cls-6" d="M540.82,27.57c5.24,0,9.5-3.62,9.5-8.06V1.12h-19V19.51C531.33,24,535.59,27.57,540.82,27.57Z"/><path class="cls-7" d="M540.82,26.23c4.37,0,7.92-3,7.92-6.72V2.45H532.91V19.51C532.91,23.22,536.46,26.23,540.82,26.23Z"/><path class="cls-5" d="M540.82,23.56c2.64,0,4.77-1.82,4.77-4V5.13h-9.54V19.51C536.05,21.74,538.19,23.56,540.82,23.56Z"/><path class="cls-4" d="M540.82,22.22a3,3,0,0,0,3.2-2.71v-13h-6.39V19.51A3,3,0,0,0,540.82,22.22Z"/><path class="cls-8" d="M540.82,21.56a2.25,2.25,0,0,0,2.41-2V7.13h-4.81V19.51A2.25,2.25,0,0,0,540.82,21.56Z"/><path class="cls-3" d="M540.82,8.47h0a.83.83,0,0,1,.83.83V20.22a0,0,0,0,1,0,0H540a0,0,0,0,1,0,0V9.3A.83.83,0,0,1,540.82,8.47Z" transform="translate(1081.65 28.69) rotate(-180)"/><path class="cls-9" d="M540.82,27.57c5.24,0,9.5-3.62,9.5-8.06V1.12h-19V19.51C531.33,24,535.59,27.57,540.82,27.57Z"/><path class="cls-8" d="M540.82,26.23c4.37,0,7.92-3,7.92-6.72V2.45H532.91V19.51C532.91,23.22,536.46,26.23,540.82,26.23Z"/><path class="cls-10" d="M540.82,23.56c2.64,0,4.77-1.82,4.77-4V5.13h-9.54V19.51C536.05,21.74,538.19,23.56,540.82,23.56Z"/><path class="cls-4" d="M540.82,22.22a3,3,0,0,0,3.2-2.71v-13h-6.39V19.51A3,3,0,0,0,540.82,22.22Z"/><path class="cls-5" d="M540.82,21.56a2.25,2.25,0,0,0,2.41-2V7.13h-4.81V19.51A2.25,2.25,0,0,0,540.82,21.56Z"/><path class="cls-1" d="M540.82,8.47h0a.83.83,0,0,1,.83.83V20.22a0,0,0,0,1,0,0H540a0,0,0,0,1,0,0V9.3A.83.83,0,0,1,540.82,8.47Z" transform="translate(1081.65 28.69) rotate(-180)"/><path class="cls-9" d="M559.81,27.57c-5.23,0-9.49-3.62-9.49-8.06V1.12h19V19.51C569.31,24,565.05,27.57,559.81,27.57Z"/><path class="cls-8" d="M559.81,26.23c-4.36,0-7.92-3-7.92-6.72V2.45h15.84V19.51C567.73,23.22,564.18,26.23,559.81,26.23Z"/><path class="cls-10" d="M559.81,23.56c-2.63,0-4.77-1.82-4.77-4V5.13h9.54V19.51C564.58,21.74,562.44,23.56,559.81,23.56Z"/><path class="cls-4" d="M559.81,22.22a3,3,0,0,1-3.19-2.71v-13H563V19.51A3,3,0,0,1,559.81,22.22Z"/><path class="cls-5" d="M559.81,21.56a2.25,2.25,0,0,1-2.4-2V7.13h4.81V19.51A2.25,2.25,0,0,1,559.81,21.56Z"/><path class="cls-1" d="M559,8.47h1.67a0,0,0,0,1,0,0V19.39a.83.83,0,0,1-.83.83h0a.83.83,0,0,1-.83-.83V8.47A0,0,0,0,1,559,8.47Z"/><path class="cls-11" d="M559.81,27.57c-5.23,0-9.49-3.62-9.49-8.06V1.12h19V19.51C569.31,24,565.05,27.57,559.81,27.57Z"/><path class="cls-5" d="M559.81,26.23c-4.36,0-7.92-3-7.92-6.72V2.45h15.84V19.51C567.73,23.22,564.18,26.23,559.81,26.23Z"/><path class="cls-1" d="M559.81,23.56c-2.63,0-4.77-1.82-4.77-4V5.13h9.54V19.51C564.58,21.74,562.44,23.56,559.81,23.56Z"/><path class="cls-4" d="M559.81,22.22a3,3,0,0,1-3.19-2.71v-13H563V19.51A3,3,0,0,1,559.81,22.22Z"/><path class="cls-10" d="M559.81,21.56a2.25,2.25,0,0,1-2.4-2V7.13h4.81V19.51A2.25,2.25,0,0,1,559.81,21.56Z"/><path class="cls-5" d="M559,8.47h1.67a0,0,0,0,1,0,0V19.39a.83.83,0,0,1-.83.83h0a.83.83,0,0,1-.83-.83V8.47A0,0,0,0,1,559,8.47Z"/><path class="cls-9" d="M578.8,27.57c5.24,0,9.5-3.62,9.5-8.06V1.12h-19V19.51C569.31,24,573.57,27.57,578.8,27.57Z"/><path class="cls-5" d="M578.8,26.23c4.37,0,7.92-3,7.92-6.72V2.45H570.88V19.51C570.88,23.22,574.43,26.23,578.8,26.23Z"/><path class="cls-1" d="M578.8,23.56c2.63,0,4.77-1.82,4.77-4V5.13H574V19.51C574,21.74,576.17,23.56,578.8,23.56Z"/><path class="cls-4" d="M578.8,22.22a3,3,0,0,0,3.2-2.71v-13h-6.39V19.51A3,3,0,0,0,578.8,22.22Z"/><path class="cls-10" d="M578.8,21.56a2.25,2.25,0,0,0,2.41-2V7.13h-4.82V19.51A2.25,2.25,0,0,0,578.8,21.56Z"/><path class="cls-5" d="M578.8,8.47h0a.83.83,0,0,1,.83.83V20.22a0,0,0,0,1,0,0H578a0,0,0,0,1,0,0V9.3A.83.83,0,0,1,578.8,8.47Z" transform="translate(1157.6 28.69) rotate(-180)"/><path class="cls-2" d="M597.79,27.57c-5.24,0-9.49-3.62-9.49-8.06V1.12h19V19.51C607.28,24,603,27.57,597.79,27.57Z"/><path class="cls-3" d="M597.79,26.23c-4.37,0-7.92-3-7.92-6.72V2.45h15.84V19.51C605.71,23.22,602.16,26.23,597.79,26.23Z"/><path class="cls-1" d="M597.79,23.56c-2.63,0-4.77-1.82-4.77-4V5.13h9.54V19.51C602.56,21.74,600.42,23.56,597.79,23.56Z"/><path class="cls-4" d="M597.79,22.22a3,3,0,0,1-3.2-2.71v-13H601V19.51A3,3,0,0,1,597.79,22.22Z"/><path class="cls-5" d="M597.79,21.56a2.25,2.25,0,0,1-2.41-2V7.13h4.82V19.51A2.25,2.25,0,0,1,597.79,21.56Z"/><path class="cls-4" d="M597,8.47h1.67a0,0,0,0,1,0,0V19.39a.83.83,0,0,1-.83.83h0a.83.83,0,0,1-.83-.83V8.47a0,0,0,0,1,0,0Z"/><path class="cls-6" d="M616.78,27.57c5.23,0,9.49-3.62,9.49-8.06V1.12h-19V19.51C607.28,24,611.54,27.57,616.78,27.57Z"/><path class="cls-7" d="M616.78,26.23c4.37,0,7.92-3,7.92-6.72V2.45H608.86V19.51C608.86,23.22,612.41,26.23,616.78,26.23Z"/><path class="cls-5" d="M616.78,23.56c2.63,0,4.77-1.82,4.77-4V5.13H612V19.51C612,21.74,614.15,23.56,616.78,23.56Z"/><path class="cls-4" d="M616.78,22.22A3,3,0,0,0,620,19.51v-13h-6.39V19.51A3,3,0,0,0,616.78,22.22Z"/><path class="cls-8" d="M616.78,21.56a2.25,2.25,0,0,0,2.41-2V7.13h-4.82V19.51A2.25,2.25,0,0,0,616.78,21.56Z"/><path class="cls-3" d="M616.78,8.47h0a.83.83,0,0,1,.83.83V20.22a0,0,0,0,1,0,0h-1.67a0,0,0,0,1,0,0V9.3a.83.83,0,0,1,.83-.83Z" transform="translate(1233.56 28.69) rotate(-180)"/><path class="cls-9" d="M616.78,27.57c5.23,0,9.49-3.62,9.49-8.06V1.12h-19V19.51C607.28,24,611.54,27.57,616.78,27.57Z"/><path class="cls-8" d="M616.78,26.23c4.37,0,7.92-3,7.92-6.72V2.45H608.86V19.51C608.86,23.22,612.41,26.23,616.78,26.23Z"/><path class="cls-10" d="M616.78,23.56c2.63,0,4.77-1.82,4.77-4V5.13H612V19.51C612,21.74,614.15,23.56,616.78,23.56Z"/><path class="cls-4" d="M616.78,22.22A3,3,0,0,0,620,19.51v-13h-6.39V19.51A3,3,0,0,0,616.78,22.22Z"/><path class="cls-5" d="M616.78,21.56a2.25,2.25,0,0,0,2.41-2V7.13h-4.82V19.51A2.25,2.25,0,0,0,616.78,21.56Z"/><path class="cls-1" d="M616.78,8.47h0a.83.83,0,0,1,.83.83V20.22a0,0,0,0,1,0,0h-1.67a0,0,0,0,1,0,0V9.3a.83.83,0,0,1,.83-.83Z" transform="translate(1233.56 28.69) rotate(-180)"/><path class="cls-9" d="M635.77,27.57c-5.24,0-9.5-3.62-9.5-8.06V1.12h19V19.51C645.26,24,641,27.57,635.77,27.57Z"/><path class="cls-8" d="M635.77,26.23c-4.37,0-7.92-3-7.92-6.72V2.45h15.84V19.51C643.69,23.22,640.13,26.23,635.77,26.23Z"/><path class="cls-10" d="M635.77,23.56c-2.63,0-4.77-1.82-4.77-4V5.13h9.54V19.51C640.54,21.74,638.4,23.56,635.77,23.56Z"/><path class="cls-4" d="M635.77,22.22a3,3,0,0,1-3.2-2.71v-13H639V19.51A3,3,0,0,1,635.77,22.22Z"/><path class="cls-5" d="M635.77,21.56a2.25,2.25,0,0,1-2.41-2V7.13h4.81V19.51A2.25,2.25,0,0,1,635.77,21.56Z"/><path class="cls-1" d="M634.93,8.47h1.67a0,0,0,0,1,0,0V19.39a.83.83,0,0,1-.83.83h0a.83.83,0,0,1-.83-.83V8.47a0,0,0,0,1,0,0Z"/><path class="cls-11" d="M635.77,27.57c-5.24,0-9.5-3.62-9.5-8.06V1.12h19V19.51C645.26,24,641,27.57,635.77,27.57Z"/><path class="cls-5" d="M635.77,26.23c-4.37,0-7.92-3-7.92-6.72V2.45h15.84V19.51C643.69,23.22,640.13,26.23,635.77,26.23Z"/><path class="cls-1" d="M635.77,23.56c-2.63,0-4.77-1.82-4.77-4V5.13h9.54V19.51C640.54,21.74,638.4,23.56,635.77,23.56Z"/><path class="cls-4" d="M635.77,22.22a3,3,0,0,1-3.2-2.71v-13H639V19.51A3,3,0,0,1,635.77,22.22Z"/><path class="cls-10" d="M635.77,21.56a2.25,2.25,0,0,1-2.41-2V7.13h4.81V19.51A2.25,2.25,0,0,1,635.77,21.56Z"/><path class="cls-5" d="M634.93,8.47h1.67a0,0,0,0,1,0,0V19.39a.83.83,0,0,1-.83.83h0a.83.83,0,0,1-.83-.83V8.47a0,0,0,0,1,0,0Z"/><path class="cls-9" d="M654.76,27.57c5.23,0,9.49-3.62,9.49-8.06V1.12h-19V19.51C645.26,24,649.52,27.57,654.76,27.57Z"/><path class="cls-5" d="M654.76,26.23c4.36,0,7.92-3,7.92-6.72V2.45H646.84V19.51C646.84,23.22,650.39,26.23,654.76,26.23Z"/><path class="cls-1" d="M654.76,23.56c2.63,0,4.77-1.82,4.77-4V5.13H650V19.51C650,21.74,652.13,23.56,654.76,23.56Z"/><path class="cls-4" d="M654.76,22.22A3,3,0,0,0,658,19.51v-13h-6.39V19.51A3,3,0,0,0,654.76,22.22Z"/><path class="cls-10" d="M654.76,21.56a2.25,2.25,0,0,0,2.4-2V7.13h-4.81V19.51A2.25,2.25,0,0,0,654.76,21.56Z"/><path class="cls-5" d="M654.76,8.47h0a.83.83,0,0,1,.83.83V20.22a0,0,0,0,1,0,0h-1.67a0,0,0,0,1,0,0V9.3A.83.83,0,0,1,654.76,8.47Z" transform="translate(1309.51 28.69) rotate(-180)"/><path class="cls-2" d="M673.74,27.57c-5.23,0-9.49-3.62-9.49-8.06V1.12h19V19.51C683.24,24,679,27.57,673.74,27.57Z"/><path class="cls-3" d="M673.74,26.23c-4.36,0-7.92-3-7.92-6.72V2.45h15.84V19.51C681.66,23.22,678.11,26.23,673.74,26.23Z"/><path class="cls-1" d="M673.74,23.56c-2.63,0-4.77-1.82-4.77-4V5.13h9.54V19.51C678.51,21.74,676.37,23.56,673.74,23.56Z"/><path class="cls-4" d="M673.74,22.22a3,3,0,0,1-3.19-2.71v-13h6.39V19.51A3,3,0,0,1,673.74,22.22Z"/><path class="cls-5" d="M673.74,21.56a2.25,2.25,0,0,1-2.4-2V7.13h4.81V19.51A2.25,2.25,0,0,1,673.74,21.56Z"/><path class="cls-4" d="M672.91,8.47h1.67a0,0,0,0,1,0,0V19.39a.83.83,0,0,1-.83.83h0a.83.83,0,0,1-.83-.83V8.47A0,0,0,0,1,672.91,8.47Z"/><path class="cls-2" d="M66.11,27.57c-5.23,0-9.49-3.62-9.49-8.06V1.12h19V19.51C75.61,24,71.35,27.57,66.11,27.57Z"/><path class="cls-3" d="M66.11,26.23c-4.36,0-7.92-3-7.92-6.72V2.45H74V19.51C74,23.22,70.48,26.23,66.11,26.23Z"/><path class="cls-1" d="M66.11,23.56c-2.63,0-4.77-1.82-4.77-4V5.13h9.54V19.51C70.88,21.74,68.74,23.56,66.11,23.56Z"/><path class="cls-4" d="M66.11,22.22a3,3,0,0,1-3.19-2.71v-13h6.39V19.51A3,3,0,0,1,66.11,22.22Z"/><path class="cls-5" d="M66.11,21.56a2.25,2.25,0,0,1-2.41-2V7.13h4.82V19.51A2.25,2.25,0,0,1,66.11,21.56Z"/><path class="cls-4" d="M65.28,8.47h1.67a0,0,0,0,1,0,0V19.39a.83.83,0,0,1-.83.83h0a.83.83,0,0,1-.83-.83V8.47A0,0,0,0,1,65.28,8.47Z"/><path class="cls-6" d="M85.1,27.57c5.24,0,9.49-3.62,9.49-8.06V1.12h-19V19.51C75.61,24,79.87,27.57,85.1,27.57Z"/><path class="cls-7" d="M85.1,26.23c4.37,0,7.92-3,7.92-6.72V2.45H77.18V19.51C77.18,23.22,80.73,26.23,85.1,26.23Z"/><path class="cls-5" d="M85.1,23.56c2.63,0,4.77-1.82,4.77-4V5.13H80.33V19.51C80.33,21.74,82.47,23.56,85.1,23.56Z"/><path class="cls-4" d="M85.1,22.22a3,3,0,0,0,3.2-2.71v-13H81.91V19.51A3,3,0,0,0,85.1,22.22Z"/><path class="cls-8" d="M85.1,21.56a2.25,2.25,0,0,0,2.41-2V7.13H82.69V19.51A2.25,2.25,0,0,0,85.1,21.56Z"/><path class="cls-3" d="M85.1,8.47h0a.83.83,0,0,1,.83.83V20.22a0,0,0,0,1,0,0H84.27a0,0,0,0,1,0,0V9.3a.83.83,0,0,1,.83-.83Z" transform="translate(170.2 28.69) rotate(-180)"/><path class="cls-9" d="M85.1,27.57c5.24,0,9.49-3.62,9.49-8.06V1.12h-19V19.51C75.61,24,79.87,27.57,85.1,27.57Z"/><path class="cls-8" d="M85.1,26.23c4.37,0,7.92-3,7.92-6.72V2.45H77.18V19.51C77.18,23.22,80.73,26.23,85.1,26.23Z"/><path class="cls-10" d="M85.1,23.56c2.63,0,4.77-1.82,4.77-4V5.13H80.33V19.51C80.33,21.74,82.47,23.56,85.1,23.56Z"/><path class="cls-4" d="M85.1,22.22a3,3,0,0,0,3.2-2.71v-13H81.91V19.51A3,3,0,0,0,85.1,22.22Z"/><path class="cls-5" d="M85.1,21.56a2.25,2.25,0,0,0,2.41-2V7.13H82.69V19.51A2.25,2.25,0,0,0,85.1,21.56Z"/><path class="cls-1" d="M85.1,8.47h0a.83.83,0,0,1,.83.83V20.22a0,0,0,0,1,0,0H84.27a0,0,0,0,1,0,0V9.3a.83.83,0,0,1,.83-.83Z" transform="translate(170.2 28.69) rotate(-180)"/><path class="cls-9" d="M104.09,27.57c-5.24,0-9.5-3.62-9.5-8.06V1.12h19V19.51C113.58,24,109.32,27.57,104.09,27.57Z"/><path class="cls-8" d="M104.09,26.23c-4.37,0-7.92-3-7.92-6.72V2.45H112V19.51C112,23.22,108.46,26.23,104.09,26.23Z"/><path class="cls-10" d="M104.09,23.56c-2.63,0-4.77-1.82-4.77-4V5.13h9.54V19.51C108.86,21.74,106.72,23.56,104.09,23.56Z"/><path class="cls-4" d="M104.09,22.22a3,3,0,0,1-3.2-2.71v-13h6.39V19.51A3,3,0,0,1,104.09,22.22Z"/><path class="cls-5" d="M104.09,21.56a2.25,2.25,0,0,1-2.41-2V7.13h4.82V19.51A2.25,2.25,0,0,1,104.09,21.56Z"/><path class="cls-1" d="M103.26,8.47h1.67a0,0,0,0,1,0,0V19.39a.83.83,0,0,1-.83.83h0a.83.83,0,0,1-.83-.83V8.47A0,0,0,0,1,103.26,8.47Z"/><path class="cls-11" d="M104.09,27.57c-5.24,0-9.5-3.62-9.5-8.06V1.12h19V19.51C113.58,24,109.32,27.57,104.09,27.57Z"/><path class="cls-5" d="M104.09,26.23c-4.37,0-7.92-3-7.92-6.72V2.45H112V19.51C112,23.22,108.46,26.23,104.09,26.23Z"/><path class="cls-1" d="M104.09,23.56c-2.63,0-4.77-1.82-4.77-4V5.13h9.54V19.51C108.86,21.74,106.72,23.56,104.09,23.56Z"/><path class="cls-4" d="M104.09,22.22a3,3,0,0,1-3.2-2.71v-13h6.39V19.51A3,3,0,0,1,104.09,22.22Z"/><path class="cls-10" d="M104.09,21.56a2.25,2.25,0,0,1-2.41-2V7.13h4.82V19.51A2.25,2.25,0,0,1,104.09,21.56Z"/><path class="cls-5" d="M103.26,8.47h1.67a0,0,0,0,1,0,0V19.39a.83.83,0,0,1-.83.83h0a.83.83,0,0,1-.83-.83V8.47A0,0,0,0,1,103.26,8.47Z"/><path class="cls-9" d="M123.08,27.57c5.23,0,9.49-3.62,9.49-8.06V1.12h-19V19.51C113.58,24,117.84,27.57,123.08,27.57Z"/><path class="cls-5" d="M123.08,26.23c4.36,0,7.92-3,7.92-6.72V2.45H115.16V19.51C115.16,23.22,118.71,26.23,123.08,26.23Z"/><path class="cls-1" d="M123.08,23.56c2.63,0,4.77-1.82,4.77-4V5.13h-9.54V19.51C118.31,21.74,120.45,23.56,123.08,23.56Z"/><path class="cls-4" d="M123.08,22.22a3,3,0,0,0,3.19-2.71v-13h-6.39V19.51A3,3,0,0,0,123.08,22.22Z"/><path class="cls-10" d="M123.08,21.56a2.25,2.25,0,0,0,2.41-2V7.13h-4.82V19.51A2.25,2.25,0,0,0,123.08,21.56Z"/><path class="cls-5" d="M123.08,8.47h0a.83.83,0,0,1,.83.83V20.22a0,0,0,0,1,0,0h-1.67a0,0,0,0,1,0,0V9.3A.83.83,0,0,1,123.08,8.47Z" transform="translate(246.16 28.69) rotate(-180)"/><path class="cls-9" d="M47.12,27.57c5.24,0,9.5-3.62,9.5-8.06V1.12h-19V19.51C37.63,24,41.89,27.57,47.12,27.57Z"/><path class="cls-5" d="M47.12,26.23c4.37,0,7.92-3,7.92-6.72V2.45H39.2V19.51C39.2,23.22,42.76,26.23,47.12,26.23Z"/><path class="cls-1" d="M47.12,23.56c2.63,0,4.77-1.82,4.77-4V5.13H42.35V19.51C42.35,21.74,44.49,23.56,47.12,23.56Z"/><path class="cls-4" d="M47.12,22.22a3,3,0,0,0,3.2-2.71v-13H43.93V19.51A3,3,0,0,0,47.12,22.22Z"/><path class="cls-10" d="M47.12,21.56a2.25,2.25,0,0,0,2.41-2V7.13H44.72V19.51A2.25,2.25,0,0,0,47.12,21.56Z"/><path class="cls-5" d="M47.12,8.47h0A.83.83,0,0,1,48,9.3V20.22a0,0,0,0,1,0,0H46.29a0,0,0,0,1,0,0V9.3a.83.83,0,0,1,.83-.83Z" transform="translate(94.25 28.69) rotate(-180)"/><path class="cls-2" d="M142.07,27.57c-5.24,0-9.5-3.62-9.5-8.06V1.12h19V19.51C151.56,24,147.3,27.57,142.07,27.57Z"/><path class="cls-3" d="M142.07,26.23c-4.37,0-7.92-3-7.92-6.72V2.45H150V19.51C150,23.22,146.43,26.23,142.07,26.23Z"/><path class="cls-1" d="M142.07,23.56c-2.63,0-4.77-1.82-4.77-4V5.13h9.54V19.51C146.84,21.74,144.7,23.56,142.07,23.56Z"/><path class="cls-4" d="M142.07,22.22a3,3,0,0,1-3.2-2.71v-13h6.39V19.51A3,3,0,0,1,142.07,22.22Z"/><path class="cls-5" d="M142.07,21.56a2.25,2.25,0,0,1-2.41-2V7.13h4.81V19.51A2.25,2.25,0,0,1,142.07,21.56Z"/><path class="cls-4" d="M141.23,8.47h1.67a0,0,0,0,1,0,0V19.39a.83.83,0,0,1-.83.83h0a.83.83,0,0,1-.83-.83V8.47a0,0,0,0,1,0,0Z"/><path class="cls-6" d="M161.05,27.57c5.24,0,9.5-3.62,9.5-8.06V1.12h-19V19.51C151.56,24,155.82,27.57,161.05,27.57Z"/><path class="cls-7" d="M161.05,26.23c4.37,0,7.92-3,7.92-6.72V2.45H153.14V19.51C153.14,23.22,156.69,26.23,161.05,26.23Z"/><path class="cls-5" d="M161.05,23.56c2.64,0,4.77-1.82,4.77-4V5.13h-9.54V19.51C156.28,21.74,158.42,23.56,161.05,23.56Z"/><path class="cls-4" d="M161.05,22.22a3,3,0,0,0,3.2-2.71v-13h-6.39V19.51A3,3,0,0,0,161.05,22.22Z"/><path class="cls-8" d="M161.05,21.56a2.25,2.25,0,0,0,2.41-2V7.13h-4.81V19.51A2.25,2.25,0,0,0,161.05,21.56Z"/><path class="cls-3" d="M161.05,8.47h0a.83.83,0,0,1,.83.83V20.22a0,0,0,0,1,0,0h-1.67a0,0,0,0,1,0,0V9.3A.83.83,0,0,1,161.05,8.47Z" transform="translate(322.11 28.69) rotate(-180)"/><path class="cls-9" d="M161.05,27.57c5.24,0,9.5-3.62,9.5-8.06V1.12h-19V19.51C151.56,24,155.82,27.57,161.05,27.57Z"/><path class="cls-8" d="M161.05,26.23c4.37,0,7.92-3,7.92-6.72V2.45H153.14V19.51C153.14,23.22,156.69,26.23,161.05,26.23Z"/><path class="cls-10" d="M161.05,23.56c2.64,0,4.77-1.82,4.77-4V5.13h-9.54V19.51C156.28,21.74,158.42,23.56,161.05,23.56Z"/><path class="cls-4" d="M161.05,22.22a3,3,0,0,0,3.2-2.71v-13h-6.39V19.51A3,3,0,0,0,161.05,22.22Z"/><path class="cls-5" d="M161.05,21.56a2.25,2.25,0,0,0,2.41-2V7.13h-4.81V19.51A2.25,2.25,0,0,0,161.05,21.56Z"/><path class="cls-1" d="M161.05,8.47h0a.83.83,0,0,1,.83.83V20.22a0,0,0,0,1,0,0h-1.67a0,0,0,0,1,0,0V9.3A.83.83,0,0,1,161.05,8.47Z" transform="translate(322.11 28.69) rotate(-180)"/><path class="cls-9" d="M180,27.57c-5.23,0-9.49-3.62-9.49-8.06V1.12h19V19.51C189.54,24,185.28,27.57,180,27.57Z"/><path class="cls-8" d="M180,26.23c-4.36,0-7.92-3-7.92-6.72V2.45H188V19.51C188,23.22,184.41,26.23,180,26.23Z"/><path class="cls-10" d="M180,23.56c-2.63,0-4.77-1.82-4.77-4V5.13h9.54V19.51C184.81,21.74,182.67,23.56,180,23.56Z"/><path class="cls-4" d="M180,22.22a3,3,0,0,1-3.19-2.71v-13h6.39V19.51A3,3,0,0,1,180,22.22Z"/><path class="cls-5" d="M180,21.56a2.25,2.25,0,0,1-2.4-2V7.13h4.81V19.51A2.25,2.25,0,0,1,180,21.56Z"/><path class="cls-1" d="M179.21,8.47h1.67a0,0,0,0,1,0,0V19.39a.83.83,0,0,1-.83.83h0a.83.83,0,0,1-.83-.83V8.47a0,0,0,0,1,0,0Z"/><path class="cls-11" d="M180,27.57c-5.23,0-9.49-3.62-9.49-8.06V1.12h19V19.51C189.54,24,185.28,27.57,180,27.57Z"/><path class="cls-5" d="M180,26.23c-4.36,0-7.92-3-7.92-6.72V2.45H188V19.51C188,23.22,184.41,26.23,180,26.23Z"/><path class="cls-1" d="M180,23.56c-2.63,0-4.77-1.82-4.77-4V5.13h9.54V19.51C184.81,21.74,182.67,23.56,180,23.56Z"/><path class="cls-4" d="M180,22.22a3,3,0,0,1-3.19-2.71v-13h6.39V19.51A3,3,0,0,1,180,22.22Z"/><path class="cls-10" d="M180,21.56a2.25,2.25,0,0,1-2.4-2V7.13h4.81V19.51A2.25,2.25,0,0,1,180,21.56Z"/><path class="cls-5" d="M179.21,8.47h1.67a0,0,0,0,1,0,0V19.39a.83.83,0,0,1-.83.83h0a.83.83,0,0,1-.83-.83V8.47a0,0,0,0,1,0,0Z"/><path class="cls-9" d="M199,27.57c5.24,0,9.5-3.62,9.5-8.06V1.12h-19V19.51C189.54,24,193.8,27.57,199,27.57Z"/><path class="cls-5" d="M199,26.23c4.37,0,7.92-3,7.92-6.72V2.45H191.11V19.51C191.11,23.22,194.66,26.23,199,26.23Z"/><path class="cls-1" d="M199,23.56c2.63,0,4.77-1.82,4.77-4V5.13h-9.54V19.51C194.26,21.74,196.4,23.56,199,23.56Z"/><path class="cls-4" d="M199,22.22a3,3,0,0,0,3.2-2.71v-13h-6.39V19.51A3,3,0,0,0,199,22.22Z"/><path class="cls-10" d="M199,21.56a2.25,2.25,0,0,0,2.41-2V7.13h-4.82V19.51A2.25,2.25,0,0,0,199,21.56Z"/><path class="cls-5" d="M199,8.47h0a.83.83,0,0,1,.83.83V20.22a0,0,0,0,1,0,0H198.2a0,0,0,0,1,0,0V9.3A.83.83,0,0,1,199,8.47Z" transform="translate(398.06 28.69) rotate(-180)"/><path class="cls-2" d="M218,27.57c-5.24,0-9.49-3.62-9.49-8.06V1.12h19V19.51C227.51,24,223.26,27.57,218,27.57Z"/><path class="cls-3" d="M218,26.23c-4.37,0-7.92-3-7.92-6.72V2.45h15.84V19.51C225.94,23.22,222.39,26.23,218,26.23Z"/><path class="cls-1" d="M218,23.56c-2.63,0-4.77-1.82-4.77-4V5.13h9.54V19.51C222.79,21.74,220.65,23.56,218,23.56Z"/><path class="cls-4" d="M218,22.22a3,3,0,0,1-3.2-2.71v-13h6.4V19.51A3,3,0,0,1,218,22.22Z"/><path class="cls-5" d="M218,21.56a2.25,2.25,0,0,1-2.41-2V7.13h4.82V19.51A2.25,2.25,0,0,1,218,21.56Z"/><path class="cls-4" d="M217.19,8.47h1.67a0,0,0,0,1,0,0V19.39a.83.83,0,0,1-.83.83h0a.83.83,0,0,1-.83-.83V8.47A0,0,0,0,1,217.19,8.47Z"/><path class="cls-6" d="M237,27.57c5.23,0,9.49-3.62,9.49-8.06V1.12h-19V19.51C227.51,24,231.77,27.57,237,27.57Z"/><path class="cls-7" d="M237,26.23c4.37,0,7.92-3,7.92-6.72V2.45H229.09V19.51C229.09,23.22,232.64,26.23,237,26.23Z"/><path class="cls-5" d="M237,23.56c2.63,0,4.77-1.82,4.77-4V5.13h-9.54V19.51C232.24,21.74,234.38,23.56,237,23.56Z"/><path class="cls-4" d="M237,22.22a3,3,0,0,0,3.19-2.71v-13h-6.39V19.51A3,3,0,0,0,237,22.22Z"/><path class="cls-8" d="M237,21.56a2.25,2.25,0,0,0,2.41-2V7.13H234.6V19.51A2.25,2.25,0,0,0,237,21.56Z"/><path class="cls-3" d="M237,8.47h0a.83.83,0,0,1,.83.83V20.22a0,0,0,0,1,0,0h-1.67a0,0,0,0,1,0,0V9.3A.83.83,0,0,1,237,8.47Z" transform="translate(474.02 28.69) rotate(-180)"/><path class="cls-9" d="M237,27.57c5.23,0,9.49-3.62,9.49-8.06V1.12h-19V19.51C227.51,24,231.77,27.57,237,27.57Z"/><path class="cls-8" d="M237,26.23c4.37,0,7.92-3,7.92-6.72V2.45H229.09V19.51C229.09,23.22,232.64,26.23,237,26.23Z"/><path class="cls-10" d="M237,23.56c2.63,0,4.77-1.82,4.77-4V5.13h-9.54V19.51C232.24,21.74,234.38,23.56,237,23.56Z"/><path class="cls-4" d="M237,22.22a3,3,0,0,0,3.19-2.71v-13h-6.39V19.51A3,3,0,0,0,237,22.22Z"/><path class="cls-5" d="M237,21.56a2.25,2.25,0,0,0,2.41-2V7.13H234.6V19.51A2.25,2.25,0,0,0,237,21.56Z"/><path class="cls-1" d="M237,8.47h0a.83.83,0,0,1,.83.83V20.22a0,0,0,0,1,0,0h-1.67a0,0,0,0,1,0,0V9.3A.83.83,0,0,1,237,8.47Z" transform="translate(474.02 28.69) rotate(-180)"/><path class="cls-9" d="M256,27.57c-5.24,0-9.5-3.62-9.5-8.06V1.12h19V19.51C265.49,24,261.23,27.57,256,27.57Z"/><path class="cls-8" d="M256,26.23c-4.37,0-7.92-3-7.92-6.72V2.45h15.84V19.51C263.92,23.22,260.36,26.23,256,26.23Z"/><path class="cls-10" d="M256,23.56c-2.63,0-4.77-1.82-4.77-4V5.13h9.54V19.51C260.77,21.74,258.63,23.56,256,23.56Z"/><path class="cls-4" d="M256,22.22a3,3,0,0,1-3.2-2.71v-13h6.39V19.51A3,3,0,0,1,256,22.22Z"/><path class="cls-5" d="M256,21.56a2.25,2.25,0,0,1-2.41-2V7.13h4.81V19.51A2.25,2.25,0,0,1,256,21.56Z"/><path class="cls-1" d="M255.16,8.47h1.67a0,0,0,0,1,0,0V19.39a.83.83,0,0,1-.83.83h0a.83.83,0,0,1-.83-.83V8.47a0,0,0,0,1,0,0Z"/><path class="cls-11" d="M256,27.57c-5.24,0-9.5-3.62-9.5-8.06V1.12h19V19.51C265.49,24,261.23,27.57,256,27.57Z"/><path class="cls-5" d="M256,26.23c-4.37,0-7.92-3-7.92-6.72V2.45h15.84V19.51C263.92,23.22,260.36,26.23,256,26.23Z"/><path class="cls-1" d="M256,23.56c-2.63,0-4.77-1.82-4.77-4V5.13h9.54V19.51C260.77,21.74,258.63,23.56,256,23.56Z"/><path class="cls-4" d="M256,22.22a3,3,0,0,1-3.2-2.71v-13h6.39V19.51A3,3,0,0,1,256,22.22Z"/><path class="cls-10" d="M256,21.56a2.25,2.25,0,0,1-2.41-2V7.13h4.81V19.51A2.25,2.25,0,0,1,256,21.56Z"/><path class="cls-5" d="M255.16,8.47h1.67a0,0,0,0,1,0,0V19.39a.83.83,0,0,1-.83.83h0a.83.83,0,0,1-.83-.83V8.47a0,0,0,0,1,0,0Z"/><path class="cls-9" d="M275,27.57c5.23,0,9.49-3.62,9.49-8.06V1.12h-19V19.51C265.49,24,269.75,27.57,275,27.57Z"/><path class="cls-5" d="M275,26.23c4.36,0,7.92-3,7.92-6.72V2.45H267.07V19.51C267.07,23.22,270.62,26.23,275,26.23Z"/><path class="cls-1" d="M275,23.56c2.63,0,4.77-1.82,4.77-4V5.13h-9.54V19.51C270.22,21.74,272.36,23.56,275,23.56Z"/><path class="cls-4" d="M275,22.22a3,3,0,0,0,3.19-2.71v-13h-6.39V19.51A3,3,0,0,0,275,22.22Z"/><path class="cls-10" d="M275,21.56a2.25,2.25,0,0,0,2.4-2V7.13h-4.81V19.51A2.25,2.25,0,0,0,275,21.56Z"/><path class="cls-5" d="M275,8.47h0a.83.83,0,0,1,.83.83V20.22a0,0,0,0,1,0,0h-1.67a0,0,0,0,1,0,0V9.3A.83.83,0,0,1,275,8.47Z" transform="translate(549.97 28.69) rotate(-180)"/><path class="cls-2" d="M294,27.57c-5.23,0-9.49-3.62-9.49-8.06V1.12h19V19.51C303.47,24,299.21,27.57,294,27.57Z"/><path class="cls-3" d="M294,26.23c-4.36,0-7.92-3-7.92-6.72V2.45h15.84V19.51C301.89,23.22,298.34,26.23,294,26.23Z"/><path class="cls-1" d="M294,23.56c-2.63,0-4.77-1.82-4.77-4V5.13h9.54V19.51C298.74,21.74,296.6,23.56,294,23.56Z"/><path class="cls-4" d="M294,22.22a3,3,0,0,1-3.19-2.71v-13h6.39V19.51A3,3,0,0,1,294,22.22Z"/><path class="cls-5" d="M294,21.56a2.25,2.25,0,0,1-2.4-2V7.13h4.81V19.51A2.25,2.25,0,0,1,294,21.56Z"/><path class="cls-4" d="M293.14,8.47h1.67a0,0,0,0,1,0,0V19.39a.83.83,0,0,1-.83.83h0a.83.83,0,0,1-.83-.83V8.47A0,0,0,0,1,293.14,8.47Z"/><path class="cls-6" d="M313,27.57c5.24,0,9.5-3.62,9.5-8.06V1.12h-19V19.51C303.47,24,307.73,27.57,313,27.57Z"/><path class="cls-7" d="M313,26.23c4.37,0,7.92-3,7.92-6.72V2.45H305V19.51C305,23.22,308.6,26.23,313,26.23Z"/><path class="cls-5" d="M313,23.56c2.63,0,4.77-1.82,4.77-4V5.13h-9.54V19.51C308.19,21.74,310.33,23.56,313,23.56Z"/><path class="cls-4" d="M313,22.22a3,3,0,0,0,3.2-2.71v-13h-6.39V19.51A3,3,0,0,0,313,22.22Z"/><path class="cls-8" d="M313,21.56a2.25,2.25,0,0,0,2.41-2V7.13h-4.82V19.51A2.26,2.26,0,0,0,313,21.56Z"/><path class="cls-3" d="M313,8.47h0a.83.83,0,0,1,.83.83V20.22a0,0,0,0,1,0,0h-1.67a0,0,0,0,1,0,0V9.3A.83.83,0,0,1,313,8.47Z" transform="translate(625.93 28.69) rotate(-180)"/><path class="cls-9" d="M313,27.57c5.24,0,9.5-3.62,9.5-8.06V1.12h-19V19.51C303.47,24,307.73,27.57,313,27.57Z"/><path class="cls-8" d="M313,26.23c4.37,0,7.92-3,7.92-6.72V2.45H305V19.51C305,23.22,308.6,26.23,313,26.23Z"/><path class="cls-10" d="M313,23.56c2.63,0,4.77-1.82,4.77-4V5.13h-9.54V19.51C308.19,21.74,310.33,23.56,313,23.56Z"/><path class="cls-4" d="M313,22.22a3,3,0,0,0,3.2-2.71v-13h-6.39V19.51A3,3,0,0,0,313,22.22Z"/><path class="cls-5" d="M313,21.56a2.25,2.25,0,0,0,2.41-2V7.13h-4.82V19.51A2.26,2.26,0,0,0,313,21.56Z"/><path class="cls-1" d="M313,8.47h0a.83.83,0,0,1,.83.83V20.22a0,0,0,0,1,0,0h-1.67a0,0,0,0,1,0,0V9.3A.83.83,0,0,1,313,8.47Z" transform="translate(625.93 28.69) rotate(-180)"/><path class="cls-9" d="M332,27.57c-5.23,0-9.49-3.62-9.49-8.06V1.12h19V19.51C341.45,24,337.19,27.57,332,27.57Z"/><path class="cls-8" d="M332,26.23c-4.37,0-7.92-3-7.92-6.72V2.45h15.84V19.51C339.87,23.22,336.32,26.23,332,26.23Z"/><path class="cls-10" d="M332,23.56c-2.63,0-4.77-1.82-4.77-4V5.13h9.54V19.51C336.72,21.74,334.58,23.56,332,23.56Z"/><path class="cls-4" d="M332,22.22a3,3,0,0,1-3.19-2.71v-13h6.39V19.51A3,3,0,0,1,332,22.22Z"/><path class="cls-5" d="M332,21.56a2.25,2.25,0,0,1-2.41-2V7.13h4.82V19.51A2.25,2.25,0,0,1,332,21.56Z"/><path class="cls-1" d="M331.12,8.47h1.67a0,0,0,0,1,0,0V19.39a.83.83,0,0,1-.83.83h0a.83.83,0,0,1-.83-.83V8.47a0,0,0,0,1,0,0Z"/><path class="cls-11" d="M332,27.57c-5.23,0-9.49-3.62-9.49-8.06V1.12h19V19.51C341.45,24,337.19,27.57,332,27.57Z"/><path class="cls-5" d="M332,26.23c-4.37,0-7.92-3-7.92-6.72V2.45h15.84V19.51C339.87,23.22,336.32,26.23,332,26.23Z"/><path class="cls-1" d="M332,23.56c-2.63,0-4.77-1.82-4.77-4V5.13h9.54V19.51C336.72,21.74,334.58,23.56,332,23.56Z"/><path class="cls-4" d="M332,22.22a3,3,0,0,1-3.19-2.71v-13h6.39V19.51A3,3,0,0,1,332,22.22Z"/><path class="cls-10" d="M332,21.56a2.25,2.25,0,0,1-2.41-2V7.13h4.82V19.51A2.25,2.25,0,0,1,332,21.56Z"/><path class="cls-5" d="M331.12,8.47h1.67a0,0,0,0,1,0,0V19.39a.83.83,0,0,1-.83.83h0a.83.83,0,0,1-.83-.83V8.47a0,0,0,0,1,0,0Z"/><path class="cls-9" d="M350.94,27.57c5.24,0,9.49-3.62,9.49-8.06V1.12h-19V19.51C341.45,24,345.7,27.57,350.94,27.57Z"/><path class="cls-5" d="M350.94,26.23c4.37,0,7.92-3,7.92-6.72V2.45H343V19.51C343,23.22,346.57,26.23,350.94,26.23Z"/><path class="cls-1" d="M350.94,23.56c2.63,0,4.77-1.82,4.77-4V5.13h-9.54V19.51C346.17,21.74,348.31,23.56,350.94,23.56Z"/><path class="cls-4" d="M350.94,22.22a3,3,0,0,0,3.2-2.71v-13h-6.4V19.51A3,3,0,0,0,350.94,22.22Z"/><path class="cls-10" d="M350.94,21.56a2.25,2.25,0,0,0,2.41-2V7.13h-4.82V19.51A2.25,2.25,0,0,0,350.94,21.56Z"/><path class="cls-5" d="M350.94,8.47h0a.83.83,0,0,1,.83.83V20.22a0,0,0,0,1,0,0h-1.67a0,0,0,0,1,0,0V9.3A.83.83,0,0,1,350.94,8.47Z" transform="translate(701.88 28.69) rotate(-180)"/></g></g></svg>