<svg xmlns="http://www.w3.org/2000/svg" viewBox="0 0 724.96 22.02"><defs><style>.cls-1{fill:#9ec4d5;}.cls-2{fill:#452019;}.cls-3{fill:#f1f4e7;}.cls-4{fill:none;stroke:#529977;stroke-miterlimit:10;stroke-width:0.5px;}</style></defs><g id="图层_2" data-name="图层 2"><g id="文件图层"><polygon class="cls-1" points="0 20.01 20.11 0 702.84 0 724.96 22.02 0 20.01"/><path class="cls-2" d="M220.53,10.62c-.24,1.55-1.44,4.47-7.09,4.47a12.05,12.05,0,0,1-4.33-.83C211.24,12.62,214.82,10.89,220.53,10.62Z"/><path class="cls-2" d="M207.34,6a18.21,18.21,0,0,0,7.33,3.72,18.09,18.09,0,0,0-7.33,3.71A15.1,15.1,0,0,1,203,9.69,15.21,15.21,0,0,1,207.34,6Z"/><path class="cls-2" d="M213.44,4.28c5.65,0,6.85,2.92,7.09,4.47-5.72-.26-9.3-2-11.43-3.64A11.94,11.94,0,0,1,213.44,4.28Z"/><path class="cls-3" d="M209.1,5.11c2.13,1.64,5.71,3.38,11.43,3.64a4.72,4.72,0,0,1,.05.94,4.62,4.62,0,0,1-.05.93c-5.71.27-9.29,2-11.42,3.64a13.2,13.2,0,0,1-1.77-.86,18.09,18.09,0,0,1,7.33-3.71A18.21,18.21,0,0,1,207.34,6,14.38,14.38,0,0,1,209.1,5.11Z"/><path class="cls-4" d="M209.1,5.11a14.38,14.38,0,0,0-1.76.86A15.21,15.21,0,0,0,203,9.69a15.1,15.1,0,0,0,4.33,3.71,13.2,13.2,0,0,0,1.77.86,12.05,12.05,0,0,0,4.33.83c5.65,0,6.85-2.92,7.09-4.47a4.62,4.62,0,0,0,.05-.93,4.72,4.72,0,0,0-.05-.94c-.24-1.55-1.44-4.47-7.09-4.47A11.94,11.94,0,0,0,209.1,5.11Z"/><path class="cls-2" d="M190.2,10.62c-.25,1.55-1.44,4.47-7.1,4.47a12.05,12.05,0,0,1-4.33-.83C180.9,12.62,184.48,10.89,190.2,10.62Z"/><path class="cls-2" d="M177,6a18.07,18.07,0,0,0,7.33,3.72A18,18,0,0,0,177,13.4a15.23,15.23,0,0,1-4.34-3.71A15.35,15.35,0,0,1,177,6Z"/><path class="cls-2" d="M183.1,4.28c5.66,0,6.85,2.92,7.1,4.47-5.73-.26-9.31-2-11.43-3.64A11.84,11.84,0,0,1,183.1,4.28Z"/><path class="cls-3" d="M178.77,5.11c2.12,1.64,5.7,3.38,11.43,3.64a4.22,4.22,0,0,1,0,.94,4.13,4.13,0,0,1,0,.93c-5.72.27-9.3,2-11.43,3.64A12.5,12.5,0,0,1,177,13.4a18,18,0,0,1,7.33-3.71A18.07,18.07,0,0,1,177,6,13.7,13.7,0,0,1,178.77,5.11Z"/><path class="cls-4" d="M178.77,5.11A13.7,13.7,0,0,0,177,6a15.35,15.35,0,0,0-4.34,3.72A15.23,15.23,0,0,0,177,13.4a12.5,12.5,0,0,0,1.76.86,12.05,12.05,0,0,0,4.33.83c5.66,0,6.85-2.92,7.1-4.47a4.13,4.13,0,0,0,0-.93,4.22,4.22,0,0,0,0-.94c-.25-1.55-1.44-4.47-7.1-4.47A11.84,11.84,0,0,0,178.77,5.11Z"/><path class="cls-2" d="M159.86,10.62c-.24,1.55-1.44,4.47-7.09,4.47a12,12,0,0,1-4.33-.83C150.56,12.62,154.14,10.89,159.86,10.62Z"/><path class="cls-2" d="M146.67,6A18.21,18.21,0,0,0,154,9.69a18.09,18.09,0,0,0-7.33,3.71,15.23,15.23,0,0,1-4.34-3.71A15.35,15.35,0,0,1,146.67,6Z"/><path class="cls-2" d="M152.77,4.28c5.65,0,6.85,2.92,7.09,4.47-5.73-.26-9.3-2-11.43-3.64A11.85,11.85,0,0,1,152.77,4.28Z"/><path class="cls-3" d="M148.43,5.11c2.13,1.64,5.7,3.38,11.43,3.64a4.22,4.22,0,0,1,0,.94,4.13,4.13,0,0,1,0,.93c-5.72.27-9.3,2-11.42,3.64a12.63,12.63,0,0,1-1.77-.86A18.09,18.09,0,0,1,154,9.69,18.21,18.21,0,0,1,146.67,6,13.7,13.7,0,0,1,148.43,5.11Z"/><path class="cls-4" d="M148.43,5.11a13.7,13.7,0,0,0-1.76.86,15.35,15.35,0,0,0-4.34,3.72,15.23,15.23,0,0,0,4.34,3.71,12.63,12.63,0,0,0,1.77.86,12,12,0,0,0,4.33.83c5.65,0,6.85-2.92,7.09-4.47a4.13,4.13,0,0,0,0-.93,4.22,4.22,0,0,0,0-.94c-.24-1.55-1.44-4.47-7.09-4.47A11.85,11.85,0,0,0,148.43,5.11Z"/><path class="cls-2" d="M129.52,10.62c-.24,1.55-1.44,4.47-7.09,4.47a12,12,0,0,1-4.33-.83C120.23,12.62,123.8,10.89,129.52,10.62Z"/><path class="cls-2" d="M116.33,6a18.21,18.21,0,0,0,7.33,3.72,18.09,18.09,0,0,0-7.33,3.71A15.1,15.1,0,0,1,112,9.69,15.21,15.21,0,0,1,116.33,6Z"/><path class="cls-2" d="M122.43,4.28c5.65,0,6.85,2.92,7.09,4.47-5.72-.26-9.3-2-11.43-3.64A11.89,11.89,0,0,1,122.43,4.28Z"/><path class="cls-3" d="M118.09,5.11c2.13,1.64,5.71,3.38,11.43,3.64a4.72,4.72,0,0,1,0,.94,4.62,4.62,0,0,1,0,.93c-5.72.27-9.29,2-11.42,3.64a13.2,13.2,0,0,1-1.77-.86,18.09,18.09,0,0,1,7.33-3.71A18.21,18.21,0,0,1,116.33,6,14.38,14.38,0,0,1,118.09,5.11Z"/><path class="cls-4" d="M118.09,5.11a14.38,14.38,0,0,0-1.76.86A15.21,15.21,0,0,0,112,9.69a15.1,15.1,0,0,0,4.33,3.71,13.2,13.2,0,0,0,1.77.86,12,12,0,0,0,4.33.83c5.65,0,6.85-2.92,7.09-4.47a4.62,4.62,0,0,0,0-.93,4.72,4.72,0,0,0,0-.94c-.24-1.55-1.44-4.47-7.09-4.47A11.89,11.89,0,0,0,118.09,5.11Z"/><path class="cls-2" d="M99.19,10.62c-.25,1.55-1.44,4.47-7.1,4.47a12.05,12.05,0,0,1-4.33-.83C89.89,12.62,93.47,10.89,99.19,10.62Z"/><path class="cls-2" d="M86,6a18.09,18.09,0,0,0,7.32,3.72A18,18,0,0,0,86,13.4a15.23,15.23,0,0,1-4.34-3.71A15.35,15.35,0,0,1,86,6Z"/><path class="cls-2" d="M92.09,4.28c5.66,0,6.85,2.92,7.1,4.47-5.73-.26-9.31-2-11.43-3.64A11.84,11.84,0,0,1,92.09,4.28Z"/><path class="cls-3" d="M87.76,5.11c2.12,1.64,5.7,3.38,11.43,3.64a5.12,5.12,0,0,1,0,.94,5,5,0,0,1,0,.93c-5.72.27-9.3,2-11.43,3.64A12.5,12.5,0,0,1,86,13.4a18,18,0,0,1,7.32-3.71A18.09,18.09,0,0,1,86,6,13.7,13.7,0,0,1,87.76,5.11Z"/><path class="cls-4" d="M87.76,5.11A13.7,13.7,0,0,0,86,6a15.35,15.35,0,0,0-4.34,3.72A15.23,15.23,0,0,0,86,13.4a12.5,12.5,0,0,0,1.76.86,12.05,12.05,0,0,0,4.33.83c5.66,0,6.85-2.92,7.1-4.47a5,5,0,0,0,0-.93,5.12,5.12,0,0,0,0-.94c-.25-1.55-1.44-4.47-7.1-4.47A11.84,11.84,0,0,0,87.76,5.11Z"/><path class="cls-2" d="M68.85,10.62c-.24,1.55-1.44,4.47-7.09,4.47a12,12,0,0,1-4.33-.83C59.55,12.62,63.13,10.89,68.85,10.62Z"/><path class="cls-2" d="M55.66,6A18.07,18.07,0,0,0,63,9.69a18,18,0,0,0-7.33,3.71,15.23,15.23,0,0,1-4.34-3.71A15.35,15.35,0,0,1,55.66,6Z"/><path class="cls-2" d="M61.76,4.28c5.65,0,6.85,2.92,7.09,4.47-5.73-.26-9.31-2-11.43-3.64A11.85,11.85,0,0,1,61.76,4.28Z"/><path class="cls-3" d="M57.42,5.11c2.12,1.64,5.7,3.38,11.43,3.64a4.22,4.22,0,0,1,0,.94,4.13,4.13,0,0,1,0,.93c-5.72.27-9.3,2-11.42,3.64a12.63,12.63,0,0,1-1.77-.86A18,18,0,0,1,63,9.69,18.07,18.07,0,0,1,55.66,6,13.7,13.7,0,0,1,57.42,5.11Z"/><path class="cls-4" d="M57.42,5.11A13.7,13.7,0,0,0,55.66,6a15.35,15.35,0,0,0-4.34,3.72,15.23,15.23,0,0,0,4.34,3.71,12.63,12.63,0,0,0,1.77.86,12,12,0,0,0,4.33.83c5.65,0,6.85-2.92,7.09-4.47a4.13,4.13,0,0,0,0-.93,4.22,4.22,0,0,0,0-.94c-.24-1.55-1.44-4.47-7.09-4.47A11.85,11.85,0,0,0,57.42,5.11Z"/><path class="cls-2" d="M38.51,10.62c-.24,1.55-1.44,4.47-7.09,4.47a12,12,0,0,1-4.33-.83C29.22,12.62,32.79,10.89,38.51,10.62Z"/><path class="cls-2" d="M25.32,6a18.21,18.21,0,0,0,7.33,3.72,18.09,18.09,0,0,0-7.33,3.71A15.23,15.23,0,0,1,21,9.69,15.35,15.35,0,0,1,25.32,6Z"/><path class="cls-2" d="M31.42,4.28c5.65,0,6.85,2.92,7.09,4.47-5.72-.26-9.3-2-11.43-3.64A11.89,11.89,0,0,1,31.42,4.28Z"/><path class="cls-3" d="M27.08,5.11c2.13,1.64,5.71,3.38,11.43,3.64a4.22,4.22,0,0,1,0,.94,4.13,4.13,0,0,1,0,.93c-5.72.27-9.29,2-11.42,3.64a13.2,13.2,0,0,1-1.77-.86,18.09,18.09,0,0,1,7.33-3.71A18.21,18.21,0,0,1,25.32,6,14.38,14.38,0,0,1,27.08,5.11Z"/><path class="cls-4" d="M27.08,5.11A14.38,14.38,0,0,0,25.32,6,15.35,15.35,0,0,0,21,9.69a15.23,15.23,0,0,0,4.34,3.71,13.2,13.2,0,0,0,1.77.86,12,12,0,0,0,4.33.83c5.65,0,6.85-2.92,7.09-4.47a4.13,4.13,0,0,0,0-.93,4.22,4.22,0,0,0,0-.94c-.24-1.55-1.44-4.47-7.09-4.47A11.89,11.89,0,0,0,27.08,5.11Z"/><path class="cls-2" d="M250.87,10.62c-.24,1.55-1.44,4.47-7.09,4.47a12,12,0,0,1-4.33-.83C241.57,12.62,245.15,10.89,250.87,10.62Z"/><path class="cls-2" d="M237.68,6A18.21,18.21,0,0,0,245,9.69a18.09,18.09,0,0,0-7.33,3.71,15.23,15.23,0,0,1-4.34-3.71A15.35,15.35,0,0,1,237.68,6Z"/><path class="cls-2" d="M243.78,4.28c5.65,0,6.85,2.92,7.09,4.47-5.72-.26-9.3-2-11.43-3.64A11.89,11.89,0,0,1,243.78,4.28Z"/><path class="cls-3" d="M239.44,5.11c2.13,1.64,5.71,3.38,11.43,3.64a4.22,4.22,0,0,1,0,.94,4.13,4.13,0,0,1,0,.93c-5.72.27-9.3,2-11.42,3.64a12.63,12.63,0,0,1-1.77-.86A18.09,18.09,0,0,1,245,9.69,18.21,18.21,0,0,1,237.68,6,13.7,13.7,0,0,1,239.44,5.11Z"/><path class="cls-4" d="M239.44,5.11a13.7,13.7,0,0,0-1.76.86,15.35,15.35,0,0,0-4.34,3.72,15.23,15.23,0,0,0,4.34,3.71,12.63,12.63,0,0,0,1.77.86,12,12,0,0,0,4.33.83c5.65,0,6.85-2.92,7.09-4.47a4.13,4.13,0,0,0,0-.93,4.22,4.22,0,0,0,0-.94c-.24-1.55-1.44-4.47-7.09-4.47A11.89,11.89,0,0,0,239.44,5.11Z"/><path class="cls-2" d="M281.21,10.62c-.25,1.55-1.44,4.47-7.09,4.47a12,12,0,0,1-4.33-.83C271.91,12.62,275.49,10.89,281.21,10.62Z"/><path class="cls-2" d="M268,6a18.07,18.07,0,0,0,7.33,3.72A18,18,0,0,0,268,13.4a15.23,15.23,0,0,1-4.34-3.71A15.35,15.35,0,0,1,268,6Z"/><path class="cls-2" d="M274.12,4.28c5.65,0,6.84,2.92,7.09,4.47-5.73-.26-9.31-2-11.43-3.64A11.85,11.85,0,0,1,274.12,4.28Z"/><path class="cls-3" d="M269.78,5.11c2.12,1.64,5.7,3.38,11.43,3.64a4.22,4.22,0,0,1,0,.94,4.13,4.13,0,0,1,0,.93c-5.72.27-9.3,2-11.42,3.64A12.63,12.63,0,0,1,268,13.4a18,18,0,0,1,7.33-3.71A18.07,18.07,0,0,1,268,6,13.7,13.7,0,0,1,269.78,5.11Z"/><path class="cls-4" d="M269.78,5.11A13.7,13.7,0,0,0,268,6a15.35,15.35,0,0,0-4.34,3.72A15.23,15.23,0,0,0,268,13.4a12.63,12.63,0,0,0,1.77.86,12,12,0,0,0,4.33.83c5.65,0,6.84-2.92,7.09-4.47a4.13,4.13,0,0,0,0-.93,4.22,4.22,0,0,0,0-.94c-.25-1.55-1.44-4.47-7.09-4.47A11.85,11.85,0,0,0,269.78,5.11Z"/><path class="cls-2" d="M311.54,10.62c-.24,1.55-1.43,4.47-7.09,4.47a12.05,12.05,0,0,1-4.33-.83C302.25,12.62,305.83,10.89,311.54,10.62Z"/><path class="cls-2" d="M298.35,6a18.21,18.21,0,0,0,7.33,3.72,18.09,18.09,0,0,0-7.33,3.71A15.27,15.27,0,0,1,294,9.69,15.39,15.39,0,0,1,298.35,6Z"/><path class="cls-2" d="M304.45,4.28c5.66,0,6.85,2.92,7.09,4.47-5.72-.26-9.3-2-11.42-3.64A11.84,11.84,0,0,1,304.45,4.28Z"/><path class="cls-3" d="M300.12,5.11c2.12,1.64,5.7,3.38,11.42,3.64a4.72,4.72,0,0,1,0,.94,4.62,4.62,0,0,1,0,.93c-5.71.27-9.29,2-11.42,3.64a13.2,13.2,0,0,1-1.77-.86,18.09,18.09,0,0,1,7.33-3.71A18.21,18.21,0,0,1,298.35,6,14.53,14.53,0,0,1,300.12,5.11Z"/><path class="cls-4" d="M300.12,5.11a14.53,14.53,0,0,0-1.77.86A15.39,15.39,0,0,0,294,9.69a15.27,15.27,0,0,0,4.33,3.71,13.2,13.2,0,0,0,1.77.86,12.05,12.05,0,0,0,4.33.83c5.66,0,6.85-2.92,7.09-4.47a4.62,4.62,0,0,0,0-.93,4.72,4.72,0,0,0,0-.94c-.24-1.55-1.43-4.47-7.09-4.47A11.84,11.84,0,0,0,300.12,5.11Z"/><path class="cls-2" d="M520.32,11.57c-.25,1.54-1.44,4.46-7.1,4.46a12.05,12.05,0,0,1-4.33-.83C511,13.56,514.6,11.83,520.32,11.57Z"/><path class="cls-2" d="M507.13,6.91a18.09,18.09,0,0,0,7.32,3.72,18,18,0,0,0-7.32,3.71,15.23,15.23,0,0,1-4.34-3.71A15.35,15.35,0,0,1,507.13,6.91Z"/><path class="cls-2" d="M513.22,5.22c5.66,0,6.85,2.92,7.1,4.47-5.73-.26-9.31-2-11.43-3.63A11.84,11.84,0,0,1,513.22,5.22Z"/><path class="cls-3" d="M508.89,6.06c2.12,1.63,5.7,3.37,11.43,3.63a5.12,5.12,0,0,1,0,.94,5.12,5.12,0,0,1,0,.94c-5.72.26-9.3,2-11.43,3.63a12.5,12.5,0,0,1-1.76-.86,18,18,0,0,1,7.32-3.71,18.09,18.09,0,0,1-7.32-3.72A12.48,12.48,0,0,1,508.89,6.06Z"/><path class="cls-4" d="M508.89,6.06a12.48,12.48,0,0,0-1.76.85,15.35,15.35,0,0,0-4.34,3.72,15.23,15.23,0,0,0,4.34,3.71,12.5,12.5,0,0,0,1.76.86,12.05,12.05,0,0,0,4.33.83c5.66,0,6.85-2.92,7.1-4.46a5.12,5.12,0,0,0,0-.94,5.12,5.12,0,0,0,0-.94c-.25-1.55-1.44-4.47-7.1-4.47A11.84,11.84,0,0,0,508.89,6.06Z"/><path class="cls-2" d="M490,11.57c-.24,1.54-1.44,4.46-7.09,4.46a12,12,0,0,1-4.33-.83C480.68,13.56,484.26,11.83,490,11.57Z"/><path class="cls-2" d="M476.79,6.91a18.21,18.21,0,0,0,7.33,3.72,18.09,18.09,0,0,0-7.33,3.71,15.23,15.23,0,0,1-4.34-3.71A15.35,15.35,0,0,1,476.79,6.91Z"/><path class="cls-2" d="M482.89,5.22c5.65,0,6.85,2.92,7.09,4.47-5.73-.26-9.3-2-11.43-3.63A11.85,11.85,0,0,1,482.89,5.22Z"/><path class="cls-3" d="M478.55,6.06c2.13,1.63,5.7,3.37,11.43,3.63a4.22,4.22,0,0,1,0,.94,4.22,4.22,0,0,1,0,.94c-5.72.26-9.3,2-11.42,3.63a12.63,12.63,0,0,1-1.77-.86,18.09,18.09,0,0,1,7.33-3.71,18.21,18.21,0,0,1-7.33-3.72A12.48,12.48,0,0,1,478.55,6.06Z"/><path class="cls-4" d="M478.55,6.06a12.48,12.48,0,0,0-1.76.85,15.35,15.35,0,0,0-4.34,3.72,15.23,15.23,0,0,0,4.34,3.71,12.63,12.63,0,0,0,1.77.86,12,12,0,0,0,4.33.83c5.65,0,6.85-2.92,7.09-4.46a4.22,4.22,0,0,0,0-.94,4.22,4.22,0,0,0,0-.94c-.24-1.55-1.44-4.47-7.09-4.47A11.85,11.85,0,0,0,478.55,6.06Z"/><path class="cls-2" d="M459.64,11.57c-.24,1.54-1.44,4.46-7.09,4.46a12,12,0,0,1-4.33-.83C450.35,13.56,453.92,11.83,459.64,11.57Z"/><path class="cls-2" d="M446.45,6.91a18.21,18.21,0,0,0,7.33,3.72,18.09,18.09,0,0,0-7.33,3.71,15.1,15.1,0,0,1-4.33-3.71A15.21,15.21,0,0,1,446.45,6.91Z"/><path class="cls-2" d="M452.55,5.22c5.65,0,6.85,2.92,7.09,4.47-5.72-.26-9.3-2-11.43-3.63A11.89,11.89,0,0,1,452.55,5.22Z"/><path class="cls-3" d="M448.21,6.06c2.13,1.63,5.71,3.37,11.43,3.63a4.22,4.22,0,0,1,0,.94,4.22,4.22,0,0,1,0,.94c-5.72.26-9.29,2-11.42,3.63a13.2,13.2,0,0,1-1.77-.86,18.09,18.09,0,0,1,7.33-3.71,18.21,18.21,0,0,1-7.33-3.72A13,13,0,0,1,448.21,6.06Z"/><path class="cls-4" d="M448.21,6.06a13,13,0,0,0-1.76.85,15.21,15.21,0,0,0-4.33,3.72,15.1,15.1,0,0,0,4.33,3.71,13.2,13.2,0,0,0,1.77.86,12,12,0,0,0,4.33.83c5.65,0,6.85-2.92,7.09-4.46a4.22,4.22,0,0,0,0-.94,4.22,4.22,0,0,0,0-.94c-.24-1.55-1.44-4.47-7.09-4.47A11.89,11.89,0,0,0,448.21,6.06Z"/><path class="cls-2" d="M429.3,11.57c-.24,1.54-1.43,4.46-7.09,4.46a12.05,12.05,0,0,1-4.33-.83C420,13.56,423.59,11.83,429.3,11.57Z"/><path class="cls-2" d="M416.12,6.91a18.09,18.09,0,0,0,7.32,3.72,18,18,0,0,0-7.32,3.71,15.23,15.23,0,0,1-4.34-3.71A15.35,15.35,0,0,1,416.12,6.91Z"/><path class="cls-2" d="M422.21,5.22c5.66,0,6.85,2.92,7.09,4.47-5.72-.26-9.3-2-11.42-3.63A11.84,11.84,0,0,1,422.21,5.22Z"/><path class="cls-3" d="M417.88,6.06c2.12,1.63,5.7,3.37,11.42,3.63a4.72,4.72,0,0,1,.05.94,4.72,4.72,0,0,1-.05.94c-5.71.26-9.29,2-11.42,3.63a12.5,12.5,0,0,1-1.76-.86,18,18,0,0,1,7.32-3.71,18.09,18.09,0,0,1-7.32-3.72A12.48,12.48,0,0,1,417.88,6.06Z"/><path class="cls-4" d="M417.88,6.06a12.48,12.48,0,0,0-1.76.85,15.35,15.35,0,0,0-4.34,3.72,15.23,15.23,0,0,0,4.34,3.71,12.5,12.5,0,0,0,1.76.86,12.05,12.05,0,0,0,4.33.83c5.66,0,6.85-2.92,7.09-4.46a4.72,4.72,0,0,0,.05-.94,4.72,4.72,0,0,0-.05-.94c-.24-1.55-1.43-4.47-7.09-4.47A11.84,11.84,0,0,0,417.88,6.06Z"/><path class="cls-2" d="M399,11.57c-.25,1.54-1.44,4.46-7.09,4.46a12,12,0,0,1-4.33-.83C389.67,13.56,393.25,11.83,399,11.57Z"/><path class="cls-2" d="M385.78,6.91a18.07,18.07,0,0,0,7.33,3.72,18,18,0,0,0-7.33,3.71,15.23,15.23,0,0,1-4.34-3.71A15.35,15.35,0,0,1,385.78,6.91Z"/><path class="cls-2" d="M391.88,5.22c5.65,0,6.84,2.92,7.09,4.47-5.73-.26-9.31-2-11.43-3.63A11.85,11.85,0,0,1,391.88,5.22Z"/><path class="cls-3" d="M387.54,6.06c2.12,1.63,5.7,3.37,11.43,3.63a4.22,4.22,0,0,1,0,.94,4.22,4.22,0,0,1,0,.94c-5.72.26-9.3,2-11.42,3.63a12.63,12.63,0,0,1-1.77-.86,18,18,0,0,1,7.33-3.71,18.07,18.07,0,0,1-7.33-3.72A12.48,12.48,0,0,1,387.54,6.06Z"/><path class="cls-4" d="M387.54,6.06a12.48,12.48,0,0,0-1.76.85,15.35,15.35,0,0,0-4.34,3.72,15.23,15.23,0,0,0,4.34,3.71,12.63,12.63,0,0,0,1.77.86,12,12,0,0,0,4.33.83c5.65,0,6.84-2.92,7.09-4.46a4.22,4.22,0,0,0,0-.94,4.22,4.22,0,0,0,0-.94c-.25-1.55-1.44-4.47-7.09-4.47A11.85,11.85,0,0,0,387.54,6.06Z"/><path class="cls-2" d="M368.63,11.57c-.24,1.54-1.44,4.46-7.09,4.46a12,12,0,0,1-4.33-.83C359.33,13.56,362.91,11.83,368.63,11.57Z"/><path class="cls-2" d="M355.44,6.91a18.21,18.21,0,0,0,7.33,3.72,18.09,18.09,0,0,0-7.33,3.71,15.23,15.23,0,0,1-4.34-3.71A15.35,15.35,0,0,1,355.44,6.91Z"/><path class="cls-2" d="M361.54,5.22c5.65,0,6.85,2.92,7.09,4.47-5.72-.26-9.3-2-11.43-3.63A11.89,11.89,0,0,1,361.54,5.22Z"/><path class="cls-3" d="M357.2,6.06c2.13,1.63,5.71,3.37,11.43,3.63a4.22,4.22,0,0,1,0,.94,4.22,4.22,0,0,1,0,.94c-5.72.26-9.3,2-11.42,3.63a13.2,13.2,0,0,1-1.77-.86,18.09,18.09,0,0,1,7.33-3.71,18.21,18.21,0,0,1-7.33-3.72A13,13,0,0,1,357.2,6.06Z"/><path class="cls-4" d="M357.2,6.06a13,13,0,0,0-1.76.85,15.35,15.35,0,0,0-4.34,3.72,15.23,15.23,0,0,0,4.34,3.71,13.2,13.2,0,0,0,1.77.86,12,12,0,0,0,4.33.83c5.65,0,6.85-2.92,7.09-4.46a4.22,4.22,0,0,0,0-.94,4.22,4.22,0,0,0,0-.94c-.24-1.55-1.44-4.47-7.09-4.47A11.89,11.89,0,0,0,357.2,6.06Z"/><path class="cls-2" d="M338.29,11.57c-.24,1.54-1.43,4.46-7.09,4.46a12.05,12.05,0,0,1-4.33-.83C329,13.56,332.58,11.83,338.29,11.57Z"/><path class="cls-2" d="M325.1,6.91a18.21,18.21,0,0,0,7.33,3.72,18.09,18.09,0,0,0-7.33,3.71,15.1,15.1,0,0,1-4.33-3.71A15.21,15.21,0,0,1,325.1,6.91Z"/><path class="cls-2" d="M331.2,5.22c5.66,0,6.85,2.92,7.09,4.47-5.72-.26-9.3-2-11.43-3.63A11.94,11.94,0,0,1,331.2,5.22Z"/><path class="cls-3" d="M326.86,6.06c2.13,1.63,5.71,3.37,11.43,3.63a4.72,4.72,0,0,1,0,.94,4.72,4.72,0,0,1,0,.94c-5.71.26-9.29,2-11.42,3.63a13.2,13.2,0,0,1-1.77-.86,18.09,18.09,0,0,1,7.33-3.71,18.21,18.21,0,0,1-7.33-3.72A13.64,13.64,0,0,1,326.86,6.06Z"/><path class="cls-4" d="M326.86,6.06a13.64,13.64,0,0,0-1.76.85,15.21,15.21,0,0,0-4.33,3.72,15.1,15.1,0,0,0,4.33,3.71,13.2,13.2,0,0,0,1.77.86,12.05,12.05,0,0,0,4.33.83c5.66,0,6.85-2.92,7.09-4.46a4.72,4.72,0,0,0,0-.94,4.72,4.72,0,0,0,0-.94c-.24-1.55-1.43-4.47-7.09-4.47A11.94,11.94,0,0,0,326.86,6.06Z"/><path class="cls-2" d="M550.65,11.57c-.24,1.54-1.44,4.46-7.09,4.46a12,12,0,0,1-4.33-.83C541.36,13.56,544.93,11.83,550.65,11.57Z"/><path class="cls-2" d="M537.46,6.91a18.21,18.21,0,0,0,7.33,3.72,18.09,18.09,0,0,0-7.33,3.71,15.1,15.1,0,0,1-4.33-3.71A15.21,15.21,0,0,1,537.46,6.91Z"/><path class="cls-2" d="M543.56,5.22c5.65,0,6.85,2.92,7.09,4.47-5.72-.26-9.3-2-11.43-3.63A11.89,11.89,0,0,1,543.56,5.22Z"/><path class="cls-3" d="M539.22,6.06c2.13,1.63,5.71,3.37,11.43,3.63a4.72,4.72,0,0,1,.05.94,4.72,4.72,0,0,1-.05.94c-5.72.26-9.29,2-11.42,3.63a13.2,13.2,0,0,1-1.77-.86,18.09,18.09,0,0,1,7.33-3.71,18.21,18.21,0,0,1-7.33-3.72A13,13,0,0,1,539.22,6.06Z"/><path class="cls-4" d="M539.22,6.06a13,13,0,0,0-1.76.85,15.21,15.21,0,0,0-4.33,3.72,15.1,15.1,0,0,0,4.33,3.71,13.2,13.2,0,0,0,1.77.86,12,12,0,0,0,4.33.83c5.65,0,6.85-2.92,7.09-4.46a4.72,4.72,0,0,0,.05-.94,4.72,4.72,0,0,0-.05-.94c-.24-1.55-1.44-4.47-7.09-4.47A11.89,11.89,0,0,0,539.22,6.06Z"/><path class="cls-2" d="M581,11.57c-.24,1.54-1.44,4.46-7.09,4.46a12,12,0,0,1-4.33-.83C571.69,13.56,575.27,11.83,581,11.57Z"/><path class="cls-2" d="M567.8,6.91a18.21,18.21,0,0,0,7.33,3.72,18.09,18.09,0,0,0-7.33,3.71,15.23,15.23,0,0,1-4.34-3.71A15.35,15.35,0,0,1,567.8,6.91Z"/><path class="cls-2" d="M573.9,5.22c5.65,0,6.85,2.92,7.09,4.47-5.73-.26-9.3-2-11.43-3.63A11.85,11.85,0,0,1,573.9,5.22Z"/><path class="cls-3" d="M569.56,6.06c2.13,1.63,5.7,3.37,11.43,3.63a4.22,4.22,0,0,1,0,.94,4.22,4.22,0,0,1,0,.94c-5.72.26-9.3,2-11.42,3.63a12.63,12.63,0,0,1-1.77-.86,18.09,18.09,0,0,1,7.33-3.71,18.21,18.21,0,0,1-7.33-3.72A12.48,12.48,0,0,1,569.56,6.06Z"/><path class="cls-4" d="M569.56,6.06a12.48,12.48,0,0,0-1.76.85,15.35,15.35,0,0,0-4.34,3.72,15.23,15.23,0,0,0,4.34,3.71,12.63,12.63,0,0,0,1.77.86,12,12,0,0,0,4.33.83c5.65,0,6.85-2.92,7.09-4.46a4.22,4.22,0,0,0,0-.94,4.22,4.22,0,0,0,0-.94c-.24-1.55-1.44-4.47-7.09-4.47A11.85,11.85,0,0,0,569.56,6.06Z"/><path class="cls-2" d="M611.33,11.57c-.25,1.54-1.44,4.46-7.1,4.46a12.05,12.05,0,0,1-4.33-.83C602,13.56,605.61,11.83,611.33,11.57Z"/><path class="cls-2" d="M598.14,6.91a18.07,18.07,0,0,0,7.33,3.72,18,18,0,0,0-7.33,3.71,15.23,15.23,0,0,1-4.34-3.71A15.35,15.35,0,0,1,598.14,6.91Z"/><path class="cls-2" d="M604.23,5.22c5.66,0,6.85,2.92,7.1,4.47-5.73-.26-9.31-2-11.43-3.63A11.84,11.84,0,0,1,604.23,5.22Z"/><path class="cls-3" d="M599.9,6.06c2.12,1.63,5.7,3.37,11.43,3.63a4.22,4.22,0,0,1,0,.94,4.22,4.22,0,0,1,0,.94c-5.72.26-9.3,2-11.43,3.63a13.06,13.06,0,0,1-1.76-.86,18,18,0,0,1,7.33-3.71,18.07,18.07,0,0,1-7.33-3.72A12.48,12.48,0,0,1,599.9,6.06Z"/><path class="cls-4" d="M599.9,6.06a12.48,12.48,0,0,0-1.76.85,15.35,15.35,0,0,0-4.34,3.72,15.23,15.23,0,0,0,4.34,3.71,13.06,13.06,0,0,0,1.76.86,12.05,12.05,0,0,0,4.33.83c5.66,0,6.85-2.92,7.1-4.46a4.22,4.22,0,0,0,0-.94,4.22,4.22,0,0,0,0-.94c-.25-1.55-1.44-4.47-7.1-4.47A11.84,11.84,0,0,0,599.9,6.06Z"/><path class="cls-2" d="M696.55,11.57c-.24,1.54-1.44,4.46-7.09,4.46a12,12,0,0,1-4.33-.83C687.25,13.56,690.83,11.83,696.55,11.57Z"/><path class="cls-2" d="M683.36,6.91a18.21,18.21,0,0,0,7.33,3.72,18.09,18.09,0,0,0-7.33,3.71A15.23,15.23,0,0,1,679,10.63,15.35,15.35,0,0,1,683.36,6.91Z"/><path class="cls-2" d="M689.46,5.22c5.65,0,6.85,2.92,7.09,4.47-5.72-.26-9.3-2-11.43-3.63A11.89,11.89,0,0,1,689.46,5.22Z"/><path class="cls-3" d="M685.12,6.06c2.13,1.63,5.71,3.37,11.43,3.63a4.22,4.22,0,0,1,0,.94,4.22,4.22,0,0,1,0,.94c-5.72.26-9.3,2-11.42,3.63a13.2,13.2,0,0,1-1.77-.86,18.09,18.09,0,0,1,7.33-3.71,18.21,18.21,0,0,1-7.33-3.72A13,13,0,0,1,685.12,6.06Z"/><path class="cls-4" d="M685.12,6.06a13,13,0,0,0-1.76.85A15.35,15.35,0,0,0,679,10.63a15.23,15.23,0,0,0,4.34,3.71,13.2,13.2,0,0,0,1.77.86,12,12,0,0,0,4.33.83c5.65,0,6.85-2.92,7.09-4.46a4.22,4.22,0,0,0,0-.94,4.22,4.22,0,0,0,0-.94c-.24-1.55-1.44-4.47-7.09-4.47A11.89,11.89,0,0,0,685.12,6.06Z"/><path class="cls-2" d="M666.21,11.57C666,13.11,664.78,16,659.12,16a12.05,12.05,0,0,1-4.33-.83C656.92,13.56,660.5,11.83,666.21,11.57Z"/><path class="cls-2" d="M653,6.91a18.21,18.21,0,0,0,7.33,3.72A18.09,18.09,0,0,0,653,14.34a15.1,15.1,0,0,1-4.33-3.71A15.21,15.21,0,0,1,653,6.91Z"/><path class="cls-2" d="M659.12,5.22c5.66,0,6.85,2.92,7.09,4.47-5.72-.26-9.3-2-11.42-3.63A11.84,11.84,0,0,1,659.12,5.22Z"/><path class="cls-3" d="M654.79,6.06c2.12,1.63,5.7,3.37,11.42,3.63a4.72,4.72,0,0,1,0,.94,4.72,4.72,0,0,1,0,.94c-5.71.26-9.29,2-11.42,3.63a13.2,13.2,0,0,1-1.77-.86,18.09,18.09,0,0,1,7.33-3.71A18.21,18.21,0,0,1,653,6.91,13.16,13.16,0,0,1,654.79,6.06Z"/><path class="cls-4" d="M654.79,6.06a13.16,13.16,0,0,0-1.77.85,15.21,15.21,0,0,0-4.33,3.72A15.1,15.1,0,0,0,653,14.34a13.2,13.2,0,0,0,1.77.86,12.05,12.05,0,0,0,4.33.83c5.66,0,6.85-2.92,7.09-4.46a4.72,4.72,0,0,0,0-.94,4.72,4.72,0,0,0,0-.94c-.24-1.55-1.43-4.47-7.09-4.47A11.84,11.84,0,0,0,654.79,6.06Z"/><path class="cls-2" d="M635.88,11.57c-.25,1.54-1.44,4.46-7.09,4.46a12,12,0,0,1-4.33-.83C626.58,13.56,630.16,11.83,635.88,11.57Z"/><path class="cls-2" d="M622.69,6.91A18.07,18.07,0,0,0,630,10.63a18,18,0,0,0-7.33,3.71,15.23,15.23,0,0,1-4.34-3.71A15.35,15.35,0,0,1,622.69,6.91Z"/><path class="cls-2" d="M628.79,5.22c5.65,0,6.84,2.92,7.09,4.47-5.73-.26-9.31-2-11.43-3.63A11.85,11.85,0,0,1,628.79,5.22Z"/><path class="cls-3" d="M624.45,6.06c2.12,1.63,5.7,3.37,11.43,3.63a4.22,4.22,0,0,1,0,.94,4.22,4.22,0,0,1,0,.94c-5.72.26-9.3,2-11.42,3.63a12.63,12.63,0,0,1-1.77-.86A18,18,0,0,1,630,10.63a18.07,18.07,0,0,1-7.33-3.72A12.48,12.48,0,0,1,624.45,6.06Z"/><path class="cls-4" d="M624.45,6.06a12.48,12.48,0,0,0-1.76.85,15.35,15.35,0,0,0-4.34,3.72,15.23,15.23,0,0,0,4.34,3.71,12.63,12.63,0,0,0,1.77.86,12,12,0,0,0,4.33.83c5.65,0,6.84-2.92,7.09-4.46a4.22,4.22,0,0,0,0-.94,4.22,4.22,0,0,0,0-.94c-.25-1.55-1.44-4.47-7.09-4.47A11.85,11.85,0,0,0,624.45,6.06Z"/><path class="cls-2" d="M697.55,11.57c-.24,1.54-1.44,4.46-7.09,4.46a12,12,0,0,1-4.33-.83C688.25,13.56,691.83,11.83,697.55,11.57Z"/><path class="cls-2" d="M684.36,6.91a18.21,18.21,0,0,0,7.33,3.72,18.09,18.09,0,0,0-7.33,3.71A15.23,15.23,0,0,1,680,10.63,15.35,15.35,0,0,1,684.36,6.91Z"/><path class="cls-2" d="M690.46,5.22c5.65,0,6.85,2.92,7.09,4.47-5.72-.26-9.3-2-11.43-3.63A11.89,11.89,0,0,1,690.46,5.22Z"/><path class="cls-3" d="M686.12,6.06c2.13,1.63,5.71,3.37,11.43,3.63a4.22,4.22,0,0,1,0,.94,4.22,4.22,0,0,1,0,.94c-5.72.26-9.3,2-11.42,3.63a13.2,13.2,0,0,1-1.77-.86,18.09,18.09,0,0,1,7.33-3.71,18.21,18.21,0,0,1-7.33-3.72A13,13,0,0,1,686.12,6.06Z"/><path class="cls-4" d="M686.12,6.06a13,13,0,0,0-1.76.85A15.35,15.35,0,0,0,680,10.63a15.23,15.23,0,0,0,4.34,3.71,13.2,13.2,0,0,0,1.77.86,12,12,0,0,0,4.33.83c5.65,0,6.85-2.92,7.09-4.46a4.22,4.22,0,0,0,0-.94,4.22,4.22,0,0,0,0-.94c-.24-1.55-1.44-4.47-7.09-4.47A11.89,11.89,0,0,0,686.12,6.06Z"/><path class="cls-2" d="M667.21,11.57C667,13.11,665.78,16,660.12,16a12.05,12.05,0,0,1-4.33-.83C657.92,13.56,661.5,11.83,667.21,11.57Z"/><path class="cls-2" d="M654,6.91a18.21,18.21,0,0,0,7.33,3.72A18.09,18.09,0,0,0,654,14.34a15.1,15.1,0,0,1-4.33-3.71A15.21,15.21,0,0,1,654,6.91Z"/><path class="cls-2" d="M660.12,5.22c5.66,0,6.85,2.92,7.09,4.47-5.72-.26-9.3-2-11.42-3.63A11.84,11.84,0,0,1,660.12,5.22Z"/><path class="cls-3" d="M655.79,6.06c2.12,1.63,5.7,3.37,11.42,3.63a4.72,4.72,0,0,1,0,.94,4.72,4.72,0,0,1,0,.94c-5.71.26-9.29,2-11.42,3.63a13.2,13.2,0,0,1-1.77-.86,18.09,18.09,0,0,1,7.33-3.71A18.21,18.21,0,0,1,654,6.91,13.16,13.16,0,0,1,655.79,6.06Z"/><path class="cls-4" d="M655.79,6.06a13.16,13.16,0,0,0-1.77.85,15.21,15.21,0,0,0-4.33,3.72A15.1,15.1,0,0,0,654,14.34a13.2,13.2,0,0,0,1.77.86,12.05,12.05,0,0,0,4.33.83c5.66,0,6.85-2.92,7.09-4.46a4.72,4.72,0,0,0,0-.94,4.72,4.72,0,0,0,0-.94c-.24-1.55-1.43-4.47-7.09-4.47A11.84,11.84,0,0,0,655.79,6.06Z"/><path class="cls-2" d="M636.88,11.57c-.25,1.54-1.44,4.46-7.09,4.46a12,12,0,0,1-4.33-.83C627.58,13.56,631.16,11.83,636.88,11.57Z"/><path class="cls-2" d="M623.69,6.91A18.07,18.07,0,0,0,631,10.63a18,18,0,0,0-7.33,3.71,15.23,15.23,0,0,1-4.34-3.71A15.35,15.35,0,0,1,623.69,6.91Z"/><path class="cls-2" d="M629.79,5.22c5.65,0,6.84,2.92,7.09,4.47-5.73-.26-9.31-2-11.43-3.63A11.85,11.85,0,0,1,629.79,5.22Z"/><path class="cls-3" d="M625.45,6.06c2.12,1.63,5.7,3.37,11.43,3.63a4.22,4.22,0,0,1,0,.94,4.22,4.22,0,0,1,0,.94c-5.72.26-9.3,2-11.42,3.63a12.63,12.63,0,0,1-1.77-.86A18,18,0,0,1,631,10.63a18.07,18.07,0,0,1-7.33-3.72A12.48,12.48,0,0,1,625.45,6.06Z"/><path class="cls-4" d="M625.45,6.06a12.48,12.48,0,0,0-1.76.85,15.35,15.35,0,0,0-4.34,3.72,15.23,15.23,0,0,0,4.34,3.71,12.63,12.63,0,0,0,1.77.86,12,12,0,0,0,4.33.83c5.65,0,6.84-2.92,7.09-4.46a4.22,4.22,0,0,0,0-.94,4.22,4.22,0,0,0,0-.94c-.25-1.55-1.44-4.47-7.09-4.47A11.85,11.85,0,0,0,625.45,6.06Z"/><path class="cls-2" d="M698.55,11.57c-.24,1.54-1.44,4.46-7.09,4.46a12,12,0,0,1-4.33-.83C689.25,13.56,692.83,11.83,698.55,11.57Z"/><path class="cls-2" d="M685.36,6.91a18.21,18.21,0,0,0,7.33,3.72,18.09,18.09,0,0,0-7.33,3.71A15.23,15.23,0,0,1,681,10.63,15.35,15.35,0,0,1,685.36,6.91Z"/><path class="cls-2" d="M691.46,5.22c5.65,0,6.85,2.92,7.09,4.47-5.72-.26-9.3-2-11.43-3.63A11.89,11.89,0,0,1,691.46,5.22Z"/><path class="cls-3" d="M687.12,6.06c2.13,1.63,5.71,3.37,11.43,3.63a4.22,4.22,0,0,1,0,.94,4.22,4.22,0,0,1,0,.94c-5.72.26-9.3,2-11.42,3.63a13.2,13.2,0,0,1-1.77-.86,18.09,18.09,0,0,1,7.33-3.71,18.21,18.21,0,0,1-7.33-3.72A13,13,0,0,1,687.12,6.06Z"/><path class="cls-4" d="M687.12,6.06a13,13,0,0,0-1.76.85A15.35,15.35,0,0,0,681,10.63a15.23,15.23,0,0,0,4.34,3.71,13.2,13.2,0,0,0,1.77.86,12,12,0,0,0,4.33.83c5.65,0,6.85-2.92,7.09-4.46a4.22,4.22,0,0,0,0-.94,4.22,4.22,0,0,0,0-.94c-.24-1.55-1.44-4.47-7.09-4.47A11.89,11.89,0,0,0,687.12,6.06Z"/><path class="cls-2" d="M668.21,11.57C668,13.11,666.78,16,661.12,16a12.05,12.05,0,0,1-4.33-.83C658.92,13.56,662.5,11.83,668.21,11.57Z"/><path class="cls-2" d="M655,6.91a18.21,18.21,0,0,0,7.33,3.72A18.09,18.09,0,0,0,655,14.34a15.1,15.1,0,0,1-4.33-3.71A15.21,15.21,0,0,1,655,6.91Z"/><path class="cls-2" d="M661.12,5.22c5.66,0,6.85,2.92,7.09,4.47-5.72-.26-9.3-2-11.42-3.63A11.84,11.84,0,0,1,661.12,5.22Z"/><path class="cls-3" d="M656.79,6.06c2.12,1.63,5.7,3.37,11.42,3.63a4.72,4.72,0,0,1,0,.94,4.72,4.72,0,0,1,0,.94c-5.71.26-9.29,2-11.42,3.63a13.2,13.2,0,0,1-1.77-.86,18.09,18.09,0,0,1,7.33-3.71A18.21,18.21,0,0,1,655,6.91,13.16,13.16,0,0,1,656.79,6.06Z"/><path class="cls-4" d="M656.79,6.06a13.16,13.16,0,0,0-1.77.85,15.21,15.21,0,0,0-4.33,3.72A15.1,15.1,0,0,0,655,14.34a13.2,13.2,0,0,0,1.77.86,12.05,12.05,0,0,0,4.33.83c5.66,0,6.85-2.92,7.09-4.46a4.72,4.72,0,0,0,0-.94,4.72,4.72,0,0,0,0-.94c-.24-1.55-1.43-4.47-7.09-4.47A11.84,11.84,0,0,0,656.79,6.06Z"/><path class="cls-2" d="M637.88,11.57c-.25,1.54-1.44,4.46-7.09,4.46a12,12,0,0,1-4.33-.83C628.58,13.56,632.16,11.83,637.88,11.57Z"/><path class="cls-2" d="M624.69,6.91A18.07,18.07,0,0,0,632,10.63a18,18,0,0,0-7.33,3.71,15.23,15.23,0,0,1-4.34-3.71A15.35,15.35,0,0,1,624.69,6.91Z"/><path class="cls-2" d="M630.79,5.22c5.65,0,6.84,2.92,7.09,4.47-5.73-.26-9.31-2-11.43-3.63A11.85,11.85,0,0,1,630.79,5.22Z"/><path class="cls-3" d="M626.45,6.06c2.12,1.63,5.7,3.37,11.43,3.63a4.22,4.22,0,0,1,0,.94,4.22,4.22,0,0,1,0,.94c-5.72.26-9.3,2-11.42,3.63a12.63,12.63,0,0,1-1.77-.86A18,18,0,0,1,632,10.63a18.07,18.07,0,0,1-7.33-3.72A12.48,12.48,0,0,1,626.45,6.06Z"/><path class="cls-4" d="M626.45,6.06a12.48,12.48,0,0,0-1.76.85,15.35,15.35,0,0,0-4.34,3.72,15.23,15.23,0,0,0,4.34,3.71,12.63,12.63,0,0,0,1.77.86,12,12,0,0,0,4.33.83c5.65,0,6.84-2.92,7.09-4.46a4.22,4.22,0,0,0,0-.94,4.22,4.22,0,0,0,0-.94c-.25-1.55-1.44-4.47-7.09-4.47A11.85,11.85,0,0,0,626.45,6.06Z"/></g></g></svg>