<svg xmlns="http://www.w3.org/2000/svg" xmlns:xlink="http://www.w3.org/1999/xlink" viewBox="0 0 1363.35 27.8"><defs><style>.cls-1,.cls-2{fill:#feefe2;}.cls-1,.cls-11{stroke:#feefe2;stroke-linecap:round;stroke-linejoin:round;stroke-width:2.72px;}.cls-3{clip-path:url(#clip-path);}.cls-4{fill:#00a27f;}.cls-5{fill:#00362b;}.cls-6{fill:#e4a651;}.cls-7{fill:#69453b;}.cls-8{fill:#565f9a;}.cls-9{fill:#1b274d;}.cls-10{fill:#4b2928;}.cls-11{fill:none;}</style><clipPath id="clip-path"><polygon class="cls-1" points="1361.99 26.44 1.36 26.44 26.44 1.36 1336.91 1.36 1361.99 26.44"/></clipPath></defs><g id="图层_2" data-name="图层 2"><g id="文件图层"><polygon class="cls-2" points="1361.99 26.44 1.36 26.44 26.44 1.36 1336.91 1.36 1361.99 26.44"/><g class="cls-3"><path class="cls-4" d="M76.16,18.39a6.48,6.48,0,0,0,1.58,1.28,7.19,7.19,0,0,1-13-.67,4.73,4.73,0,0,1-.54,0,5.14,5.14,0,0,1,0-10.27,4.75,4.75,0,0,1,.54,0,7.19,7.19,0,0,1,13-.66,6.44,6.44,0,0,0-1.58,1.27,5.23,5.23,0,0,0-9.27.78l-.39,0a3.73,3.73,0,1,0,0,7.46,2.55,2.55,0,0,0,.39,0,5.23,5.23,0,0,0,9.27.78Z"/><path class="cls-5" d="M75.09,16.82a6.32,6.32,0,0,0,1.07,1.57,5.23,5.23,0,0,1-9.27-.78,2.55,2.55,0,0,1-.39,0,3.73,3.73,0,1,1,0-7.46l.39,0a5.23,5.23,0,0,1,9.27-.78A6.56,6.56,0,0,0,75.09,11,3.51,3.51,0,0,0,73,10.3a3.61,3.61,0,1,0,2.11,6.52Z"/><path class="cls-6" d="M59.28,18.39a6.48,6.48,0,0,0,1.58,1.28,7.19,7.19,0,0,1-13-.67,4.55,4.55,0,0,1-.53,0,5.14,5.14,0,1,1,0-10.27,4.58,4.58,0,0,1,.53,0,7.19,7.19,0,0,1,13-.66,6.44,6.44,0,0,0-1.58,1.27,5.23,5.23,0,0,0-9.27.78l-.39,0a3.73,3.73,0,1,0,0,7.46,2.55,2.55,0,0,0,.39,0,5.23,5.23,0,0,0,9.27.78Z"/><path class="cls-7" d="M58.22,16.82a6.56,6.56,0,0,0,1.06,1.57A5.23,5.23,0,0,1,50,17.61a2.55,2.55,0,0,1-.39,0,3.73,3.73,0,1,1,0-7.46l.39,0a5.23,5.23,0,0,1,9.27-.78A6.83,6.83,0,0,0,58.22,11a3.56,3.56,0,0,0-2.12-.69,3.61,3.61,0,1,0,2.12,6.52Z"/><path class="cls-8" d="M42.4,18.39A6.48,6.48,0,0,0,44,19.67,7.19,7.19,0,0,1,31,19a4.55,4.55,0,0,1-.53,0,5.14,5.14,0,0,1,0-10.27,4.58,4.58,0,0,1,.53,0,7.19,7.19,0,0,1,13-.66A6.44,6.44,0,0,0,42.4,9.41a5.23,5.23,0,0,0-9.27.78l-.39,0a3.73,3.73,0,1,0,0,7.46,2.55,2.55,0,0,0,.39,0,5.23,5.23,0,0,0,9.27.78Z"/><path class="cls-9" d="M41.34,16.82a6.56,6.56,0,0,0,1.06,1.57,5.23,5.23,0,0,1-9.27-.78,2.55,2.55,0,0,1-.39,0,3.73,3.73,0,1,1,0-7.46l.39,0a5.23,5.23,0,0,1,9.27-.78A6.83,6.83,0,0,0,41.34,11a3.54,3.54,0,0,0-2.12-.69,3.61,3.61,0,1,0,2.12,6.52Z"/><path class="cls-7" d="M25.52,18.39a6.35,6.35,0,0,0,1.59,1.28,7.19,7.19,0,0,1-13-.67,4.9,4.9,0,0,1-.54,0,5.14,5.14,0,0,1,0-10.27,4.89,4.89,0,0,1,.54,0,7.19,7.19,0,0,1,13-.66,6.31,6.31,0,0,0-1.59,1.27,5.23,5.23,0,0,0-9.27.78l-.39,0a3.73,3.73,0,0,0,0,7.46,2.55,2.55,0,0,0,.39,0,5.23,5.23,0,0,0,9.27.78Z"/><path class="cls-10" d="M24.46,16.82a6.56,6.56,0,0,0,1.06,1.57,5.23,5.23,0,0,1-9.27-.78,2.55,2.55,0,0,1-.39,0,3.73,3.73,0,0,1,0-7.46l.39,0a5.23,5.23,0,0,1,9.27-.78A6.83,6.83,0,0,0,24.46,11a3.54,3.54,0,0,0-2.12-.69,3.61,3.61,0,1,0,2.12,6.52Z"/><path class="cls-4" d="M143.67,18.39a6.35,6.35,0,0,0,1.59,1.28,7.19,7.19,0,0,1-13-.67,4.9,4.9,0,0,1-.54,0,5.14,5.14,0,0,1,0-10.27,4.89,4.89,0,0,1,.54,0,7.19,7.19,0,0,1,13-.66,6.31,6.31,0,0,0-1.59,1.27,5.23,5.23,0,0,0-9.27.78l-.39,0a3.73,3.73,0,0,0,0,7.46,2.55,2.55,0,0,0,.39,0,5.23,5.23,0,0,0,9.27.78Z"/><path class="cls-5" d="M142.61,16.82a6.56,6.56,0,0,0,1.06,1.57,5.23,5.23,0,0,1-9.27-.78,2.55,2.55,0,0,1-.39,0,3.73,3.73,0,0,1,0-7.46l.39,0a5.23,5.23,0,0,1,9.27-.78A6.83,6.83,0,0,0,142.61,11a3.54,3.54,0,0,0-2.12-.69,3.61,3.61,0,1,0,2.12,6.52Z"/><path class="cls-6" d="M126.79,18.39a6.53,6.53,0,0,0,1.59,1.28,7.19,7.19,0,0,1-13-.67,4.9,4.9,0,0,1-.54,0,5.14,5.14,0,0,1,0-10.27,4.89,4.89,0,0,1,.54,0,7.19,7.19,0,0,1,13-.66,6.49,6.49,0,0,0-1.59,1.27,5.23,5.23,0,0,0-9.27.78l-.38,0a3.73,3.73,0,1,0,0,7.46,2.42,2.42,0,0,0,.38,0,5.23,5.23,0,0,0,9.27.78Z"/><path class="cls-7" d="M125.73,16.82a6.56,6.56,0,0,0,1.06,1.57,5.23,5.23,0,0,1-9.27-.78,2.42,2.42,0,0,1-.38,0,3.73,3.73,0,1,1,0-7.46l.38,0a5.23,5.23,0,0,1,9.27-.78A6.83,6.83,0,0,0,125.73,11a3.54,3.54,0,0,0-2.12-.69,3.61,3.61,0,1,0,2.12,6.52Z"/><path class="cls-8" d="M109.91,18.39a6.73,6.73,0,0,0,1.59,1.28,7.19,7.19,0,0,1-13-.67A4.9,4.9,0,0,1,98,19,5.14,5.14,0,0,1,98,8.77a4.89,4.89,0,0,1,.54,0,7.19,7.19,0,0,1,13-.66,6.68,6.68,0,0,0-1.59,1.27,5.22,5.22,0,0,0-9.26.78l-.39,0a3.73,3.73,0,1,0,0,7.46,2.55,2.55,0,0,0,.39,0,5.22,5.22,0,0,0,9.26.78Z"/><path class="cls-9" d="M108.85,16.82a6.56,6.56,0,0,0,1.06,1.57,5.22,5.22,0,0,1-9.26-.78,2.55,2.55,0,0,1-.39,0,3.73,3.73,0,1,1,0-7.46l.39,0a5.22,5.22,0,0,1,9.26-.78A6.83,6.83,0,0,0,108.85,11a3.53,3.53,0,0,0-2.11-.69,3.61,3.61,0,1,0,2.11,6.52Z"/><path class="cls-7" d="M93,18.39a6.73,6.73,0,0,0,1.59,1.28,7.19,7.19,0,0,1-13-.67,4.73,4.73,0,0,1-.54,0,5.14,5.14,0,0,1,0-10.27,4.75,4.75,0,0,1,.54,0,7.19,7.19,0,0,1,13-.66A6.68,6.68,0,0,0,93,9.41a5.22,5.22,0,0,0-9.26.78l-.39,0a3.73,3.73,0,1,0,0,7.46,2.55,2.55,0,0,0,.39,0,5.22,5.22,0,0,0,9.26.78Z"/><path class="cls-10" d="M92,16.82A6.56,6.56,0,0,0,93,18.39a5.22,5.22,0,0,1-9.26-.78,2.55,2.55,0,0,1-.39,0,3.73,3.73,0,1,1,0-7.46l.39,0A5.22,5.22,0,0,1,93,9.41,6.83,6.83,0,0,0,92,11a3.51,3.51,0,0,0-2.11-.69A3.61,3.61,0,1,0,92,16.82Z"/><path class="cls-4" d="M211.18,18.39a6.73,6.73,0,0,0,1.59,1.28,7.19,7.19,0,0,1-13-.67,4.73,4.73,0,0,1-.54,0,5.14,5.14,0,0,1,0-10.27,4.75,4.75,0,0,1,.54,0,7.19,7.19,0,0,1,13-.66,6.68,6.68,0,0,0-1.59,1.27,5.22,5.22,0,0,0-9.26.78l-.39,0a3.73,3.73,0,1,0,0,7.46,2.55,2.55,0,0,0,.39,0,5.22,5.22,0,0,0,9.26.78Z"/><path class="cls-5" d="M210.12,16.82a6.56,6.56,0,0,0,1.06,1.57,5.22,5.22,0,0,1-9.26-.78,2.55,2.55,0,0,1-.39,0,3.73,3.73,0,1,1,0-7.46l.39,0a5.22,5.22,0,0,1,9.26-.78A6.83,6.83,0,0,0,210.12,11,3.51,3.51,0,0,0,208,10.3a3.61,3.61,0,1,0,2.11,6.52Z"/><path class="cls-6" d="M194.31,18.39a6.48,6.48,0,0,0,1.58,1.28,7.19,7.19,0,0,1-13-.67,4.73,4.73,0,0,1-.54,0,5.14,5.14,0,0,1,0-10.27,4.75,4.75,0,0,1,.54,0,7.19,7.19,0,0,1,13-.66,6.44,6.44,0,0,0-1.58,1.27,5.23,5.23,0,0,0-9.27.78l-.39,0a3.73,3.73,0,1,0,0,7.46,2.55,2.55,0,0,0,.39,0,5.23,5.23,0,0,0,9.27.78Z"/><path class="cls-7" d="M193.24,16.82a6.32,6.32,0,0,0,1.07,1.57,5.23,5.23,0,0,1-9.27-.78,2.55,2.55,0,0,1-.39,0,3.73,3.73,0,1,1,0-7.46l.39,0a5.23,5.23,0,0,1,9.27-.78A6.56,6.56,0,0,0,193.24,11a3.51,3.51,0,0,0-2.11-.69,3.61,3.61,0,1,0,2.11,6.52Z"/><path class="cls-8" d="M177.43,18.39A6.48,6.48,0,0,0,179,19.67,7.19,7.19,0,0,1,166,19a4.55,4.55,0,0,1-.53,0,5.14,5.14,0,1,1,0-10.27,4.58,4.58,0,0,1,.53,0,7.19,7.19,0,0,1,13-.66,6.44,6.44,0,0,0-1.58,1.27,5.23,5.23,0,0,0-9.27.78l-.39,0a3.73,3.73,0,1,0,0,7.46,2.55,2.55,0,0,0,.39,0,5.23,5.23,0,0,0,9.27.78Z"/><path class="cls-9" d="M176.37,16.82a6.56,6.56,0,0,0,1.06,1.57,5.23,5.23,0,0,1-9.27-.78,2.55,2.55,0,0,1-.39,0,3.73,3.73,0,1,1,0-7.46l.39,0a5.23,5.23,0,0,1,9.27-.78A6.83,6.83,0,0,0,176.37,11a3.56,3.56,0,0,0-2.12-.69,3.61,3.61,0,1,0,2.12,6.52Z"/><path class="cls-7" d="M160.55,18.39a6.48,6.48,0,0,0,1.58,1.28,7.19,7.19,0,0,1-13-.67,4.55,4.55,0,0,1-.53,0,5.14,5.14,0,0,1,0-10.27,4.58,4.58,0,0,1,.53,0,7.19,7.19,0,0,1,13-.66,6.44,6.44,0,0,0-1.58,1.27,5.23,5.23,0,0,0-9.27.78l-.39,0a3.73,3.73,0,1,0,0,7.46,2.55,2.55,0,0,0,.39,0,5.23,5.23,0,0,0,9.27.78Z"/><path class="cls-10" d="M159.49,16.82a6.56,6.56,0,0,0,1.06,1.57,5.23,5.23,0,0,1-9.27-.78,2.55,2.55,0,0,1-.39,0,3.73,3.73,0,1,1,0-7.46l.39,0a5.23,5.23,0,0,1,9.27-.78A6.83,6.83,0,0,0,159.49,11a3.54,3.54,0,0,0-2.12-.69,3.61,3.61,0,1,0,2.12,6.52Z"/><path class="cls-4" d="M278.7,18.39a6.48,6.48,0,0,0,1.58,1.28,7.19,7.19,0,0,1-13-.67,4.55,4.55,0,0,1-.53,0,5.14,5.14,0,0,1,0-10.27,4.58,4.58,0,0,1,.53,0,7.19,7.19,0,0,1,13-.66,6.44,6.44,0,0,0-1.58,1.27,5.23,5.23,0,0,0-9.27.78l-.39,0a3.73,3.73,0,1,0,0,7.46,2.55,2.55,0,0,0,.39,0,5.23,5.23,0,0,0,9.27.78Z"/><path class="cls-5" d="M277.64,16.82a6.56,6.56,0,0,0,1.06,1.57,5.23,5.23,0,0,1-9.27-.78,2.55,2.55,0,0,1-.39,0,3.73,3.73,0,1,1,0-7.46l.39,0a5.23,5.23,0,0,1,9.27-.78A6.83,6.83,0,0,0,277.64,11a3.54,3.54,0,0,0-2.12-.69,3.61,3.61,0,1,0,2.12,6.52Z"/><path class="cls-6" d="M261.82,18.39a6.35,6.35,0,0,0,1.59,1.28,7.19,7.19,0,0,1-13-.67,4.9,4.9,0,0,1-.54,0,5.14,5.14,0,0,1,0-10.27,4.89,4.89,0,0,1,.54,0,7.19,7.19,0,0,1,13-.66,6.31,6.31,0,0,0-1.59,1.27,5.23,5.23,0,0,0-9.27.78l-.39,0a3.73,3.73,0,0,0,0,7.46,2.55,2.55,0,0,0,.39,0,5.23,5.23,0,0,0,9.27.78Z"/><path class="cls-7" d="M260.76,16.82a6.56,6.56,0,0,0,1.06,1.57,5.23,5.23,0,0,1-9.27-.78,2.55,2.55,0,0,1-.39,0,3.73,3.73,0,0,1,0-7.46l.39,0a5.23,5.23,0,0,1,9.27-.78A6.83,6.83,0,0,0,260.76,11a3.54,3.54,0,0,0-2.12-.69,3.61,3.61,0,1,0,2.12,6.52Z"/><path class="cls-8" d="M244.94,18.39a6.53,6.53,0,0,0,1.59,1.28,7.19,7.19,0,0,1-13-.67,4.9,4.9,0,0,1-.54,0,5.14,5.14,0,0,1,0-10.27,4.89,4.89,0,0,1,.54,0,7.19,7.19,0,0,1,13-.66,6.49,6.49,0,0,0-1.59,1.27,5.23,5.23,0,0,0-9.27.78l-.38,0a3.73,3.73,0,1,0,0,7.46,2.42,2.42,0,0,0,.38,0,5.23,5.23,0,0,0,9.27.78Z"/><path class="cls-9" d="M243.88,16.82a6.56,6.56,0,0,0,1.06,1.57,5.23,5.23,0,0,1-9.27-.78,2.42,2.42,0,0,1-.38,0,3.73,3.73,0,1,1,0-7.46l.38,0a5.23,5.23,0,0,1,9.27-.78A6.83,6.83,0,0,0,243.88,11a3.54,3.54,0,0,0-2.12-.69,3.61,3.61,0,1,0,2.12,6.52Z"/><path class="cls-7" d="M228.06,18.39a6.73,6.73,0,0,0,1.59,1.28,7.19,7.19,0,0,1-13-.67,4.9,4.9,0,0,1-.54,0,5.14,5.14,0,0,1,0-10.27,4.89,4.89,0,0,1,.54,0,7.19,7.19,0,0,1,13-.66,6.68,6.68,0,0,0-1.59,1.27,5.22,5.22,0,0,0-9.26.78l-.39,0a3.73,3.73,0,1,0,0,7.46,2.55,2.55,0,0,0,.39,0,5.22,5.22,0,0,0,9.26.78Z"/><path class="cls-10" d="M227,16.82a6.56,6.56,0,0,0,1.06,1.57,5.22,5.22,0,0,1-9.26-.78,2.55,2.55,0,0,1-.39,0,3.73,3.73,0,1,1,0-7.46l.39,0a5.22,5.22,0,0,1,9.26-.78A6.83,6.83,0,0,0,227,11a3.51,3.51,0,0,0-2.11-.69A3.61,3.61,0,1,0,227,16.82Z"/><path class="cls-4" d="M346.21,18.39a6.73,6.73,0,0,0,1.59,1.28,7.19,7.19,0,0,1-13-.67,4.9,4.9,0,0,1-.54,0,5.14,5.14,0,0,1,0-10.27,4.89,4.89,0,0,1,.54,0,7.19,7.19,0,0,1,13-.66,6.68,6.68,0,0,0-1.59,1.27,5.22,5.22,0,0,0-9.26.78l-.39,0a3.73,3.73,0,1,0,0,7.46,2.55,2.55,0,0,0,.39,0,5.22,5.22,0,0,0,9.26.78Z"/><path class="cls-5" d="M345.15,16.82a6.56,6.56,0,0,0,1.06,1.57,5.22,5.22,0,0,1-9.26-.78,2.55,2.55,0,0,1-.39,0,3.73,3.73,0,1,1,0-7.46l.39,0a5.22,5.22,0,0,1,9.26-.78A6.83,6.83,0,0,0,345.15,11,3.51,3.51,0,0,0,343,10.3a3.61,3.61,0,1,0,2.11,6.52Z"/><path class="cls-6" d="M329.34,18.39a6.48,6.48,0,0,0,1.58,1.28,7.19,7.19,0,0,1-13-.67,4.73,4.73,0,0,1-.54,0,5.14,5.14,0,0,1,0-10.27,4.75,4.75,0,0,1,.54,0,7.19,7.19,0,0,1,13-.66,6.44,6.44,0,0,0-1.58,1.27,5.23,5.23,0,0,0-9.27.78l-.39,0a3.73,3.73,0,1,0,0,7.46,2.55,2.55,0,0,0,.39,0,5.23,5.23,0,0,0,9.27.78Z"/><path class="cls-7" d="M328.27,16.82a6.32,6.32,0,0,0,1.07,1.57,5.23,5.23,0,0,1-9.27-.78,2.55,2.55,0,0,1-.39,0,3.73,3.73,0,1,1,0-7.46l.39,0a5.23,5.23,0,0,1,9.27-.78A6.56,6.56,0,0,0,328.27,11a3.51,3.51,0,0,0-2.11-.69,3.61,3.61,0,1,0,2.11,6.52Z"/><path class="cls-8" d="M312.46,18.39A6.48,6.48,0,0,0,314,19.67a7.19,7.19,0,0,1-13-.67,4.73,4.73,0,0,1-.54,0,5.14,5.14,0,0,1,0-10.27,4.75,4.75,0,0,1,.54,0,7.19,7.19,0,0,1,13-.66,6.44,6.44,0,0,0-1.58,1.27,5.23,5.23,0,0,0-9.27.78l-.39,0a3.73,3.73,0,1,0,0,7.46,2.55,2.55,0,0,0,.39,0,5.23,5.23,0,0,0,9.27.78Z"/><path class="cls-9" d="M311.39,16.82a6.32,6.32,0,0,0,1.07,1.57,5.23,5.23,0,0,1-9.27-.78,2.55,2.55,0,0,1-.39,0,3.73,3.73,0,1,1,0-7.46l.39,0a5.23,5.23,0,0,1,9.27-.78A6.56,6.56,0,0,0,311.39,11a3.51,3.51,0,0,0-2.11-.69,3.61,3.61,0,1,0,2.11,6.52Z"/><path class="cls-7" d="M295.58,18.39a6.48,6.48,0,0,0,1.58,1.28,7.19,7.19,0,0,1-13-.67,4.55,4.55,0,0,1-.53,0,5.14,5.14,0,1,1,0-10.27,4.58,4.58,0,0,1,.53,0,7.19,7.19,0,0,1,13-.66,6.44,6.44,0,0,0-1.58,1.27,5.23,5.23,0,0,0-9.27.78l-.39,0a3.73,3.73,0,1,0,0,7.46,2.55,2.55,0,0,0,.39,0,5.23,5.23,0,0,0,9.27.78Z"/><path class="cls-10" d="M294.52,16.82a6.56,6.56,0,0,0,1.06,1.57,5.23,5.23,0,0,1-9.27-.78,2.55,2.55,0,0,1-.39,0,3.73,3.73,0,1,1,0-7.46l.39,0a5.23,5.23,0,0,1,9.27-.78A6.83,6.83,0,0,0,294.52,11a3.56,3.56,0,0,0-2.12-.69,3.61,3.61,0,1,0,2.12,6.52Z"/><path class="cls-4" d="M413.73,18.39a6.48,6.48,0,0,0,1.58,1.28,7.19,7.19,0,0,1-13-.67,4.55,4.55,0,0,1-.53,0,5.14,5.14,0,1,1,0-10.27,4.58,4.58,0,0,1,.53,0,7.19,7.19,0,0,1,13-.66,6.44,6.44,0,0,0-1.58,1.27,5.23,5.23,0,0,0-9.27.78l-.39,0a3.73,3.73,0,1,0,0,7.46,2.55,2.55,0,0,0,.39,0,5.23,5.23,0,0,0,9.27.78Z"/><path class="cls-5" d="M412.67,16.82a6.56,6.56,0,0,0,1.06,1.57,5.23,5.23,0,0,1-9.27-.78,2.55,2.55,0,0,1-.39,0,3.73,3.73,0,1,1,0-7.46l.39,0a5.23,5.23,0,0,1,9.27-.78A6.83,6.83,0,0,0,412.67,11a3.56,3.56,0,0,0-2.12-.69,3.61,3.61,0,1,0,2.12,6.52Z"/><path class="cls-6" d="M396.85,18.39a6.48,6.48,0,0,0,1.58,1.28,7.19,7.19,0,0,1-13-.67,4.55,4.55,0,0,1-.53,0,5.14,5.14,0,0,1,0-10.27,4.58,4.58,0,0,1,.53,0,7.19,7.19,0,0,1,13-.66,6.44,6.44,0,0,0-1.58,1.27,5.23,5.23,0,0,0-9.27.78l-.39,0a3.73,3.73,0,1,0,0,7.46,2.55,2.55,0,0,0,.39,0,5.23,5.23,0,0,0,9.27.78Z"/><path class="cls-7" d="M395.79,16.82a6.56,6.56,0,0,0,1.06,1.57,5.23,5.23,0,0,1-9.27-.78,2.55,2.55,0,0,1-.39,0,3.73,3.73,0,1,1,0-7.46l.39,0a5.23,5.23,0,0,1,9.27-.78A6.83,6.83,0,0,0,395.79,11a3.54,3.54,0,0,0-2.12-.69,3.61,3.61,0,1,0,2.12,6.52Z"/><path class="cls-8" d="M380,18.39a6.35,6.35,0,0,0,1.59,1.28,7.19,7.19,0,0,1-13-.67,4.9,4.9,0,0,1-.54,0,5.14,5.14,0,0,1,0-10.27,4.89,4.89,0,0,1,.54,0,7.19,7.19,0,0,1,13-.66A6.31,6.31,0,0,0,380,9.41a5.23,5.23,0,0,0-9.27.78l-.39,0a3.73,3.73,0,0,0,0,7.46,2.55,2.55,0,0,0,.39,0,5.23,5.23,0,0,0,9.27.78Z"/><path class="cls-9" d="M378.91,16.82A6.56,6.56,0,0,0,380,18.39a5.23,5.23,0,0,1-9.27-.78,2.55,2.55,0,0,1-.39,0,3.73,3.73,0,0,1,0-7.46l.39,0A5.23,5.23,0,0,1,380,9.41,6.83,6.83,0,0,0,378.91,11a3.54,3.54,0,0,0-2.12-.69,3.61,3.61,0,1,0,2.12,6.52Z"/><path class="cls-7" d="M363.09,18.39a6.53,6.53,0,0,0,1.59,1.28,7.19,7.19,0,0,1-13-.67,4.9,4.9,0,0,1-.54,0,5.14,5.14,0,0,1,0-10.27,4.89,4.89,0,0,1,.54,0,7.19,7.19,0,0,1,13-.66,6.49,6.49,0,0,0-1.59,1.27,5.23,5.23,0,0,0-9.27.78l-.38,0a3.73,3.73,0,1,0,0,7.46,2.42,2.42,0,0,0,.38,0,5.23,5.23,0,0,0,9.27.78Z"/><path class="cls-10" d="M362,16.82a6.56,6.56,0,0,0,1.06,1.57,5.23,5.23,0,0,1-9.27-.78,2.42,2.42,0,0,1-.38,0,3.73,3.73,0,1,1,0-7.46l.38,0a5.23,5.23,0,0,1,9.27-.78A6.83,6.83,0,0,0,362,11a3.54,3.54,0,0,0-2.12-.69A3.61,3.61,0,1,0,362,16.82Z"/><path class="cls-4" d="M481.24,18.39a6.73,6.73,0,0,0,1.59,1.28,7.19,7.19,0,0,1-13-.67,4.9,4.9,0,0,1-.54,0,5.14,5.14,0,0,1,0-10.27,4.89,4.89,0,0,1,.54,0,7.19,7.19,0,0,1,13-.66,6.68,6.68,0,0,0-1.59,1.27,5.23,5.23,0,0,0-9.27.78l-.38,0a3.73,3.73,0,1,0,0,7.46,2.42,2.42,0,0,0,.38,0,5.23,5.23,0,0,0,9.27.78Z"/><path class="cls-5" d="M480.18,16.82a6.56,6.56,0,0,0,1.06,1.57,5.23,5.23,0,0,1-9.27-.78,2.42,2.42,0,0,1-.38,0,3.73,3.73,0,1,1,0-7.46l.38,0a5.23,5.23,0,0,1,9.27-.78A6.83,6.83,0,0,0,480.18,11a3.54,3.54,0,0,0-2.12-.69,3.61,3.61,0,1,0,2.12,6.52Z"/><path class="cls-6" d="M464.36,18.39A6.73,6.73,0,0,0,466,19.67,7.19,7.19,0,0,1,453,19a4.73,4.73,0,0,1-.54,0,5.14,5.14,0,0,1,0-10.27,4.75,4.75,0,0,1,.54,0,7.19,7.19,0,0,1,13-.66,6.68,6.68,0,0,0-1.59,1.27,5.22,5.22,0,0,0-9.26.78l-.39,0a3.73,3.73,0,1,0,0,7.46,2.55,2.55,0,0,0,.39,0,5.22,5.22,0,0,0,9.26.78Z"/><path class="cls-7" d="M463.3,16.82a6.56,6.56,0,0,0,1.06,1.57,5.22,5.22,0,0,1-9.26-.78,2.55,2.55,0,0,1-.39,0,3.73,3.73,0,1,1,0-7.46l.39,0a5.22,5.22,0,0,1,9.26-.78A6.83,6.83,0,0,0,463.3,11a3.51,3.51,0,0,0-2.11-.69,3.61,3.61,0,1,0,2.11,6.52Z"/><path class="cls-8" d="M447.49,18.39a6.48,6.48,0,0,0,1.58,1.28,7.19,7.19,0,0,1-13-.67,4.73,4.73,0,0,1-.54,0,5.14,5.14,0,0,1,0-10.27,4.75,4.75,0,0,1,.54,0,7.19,7.19,0,0,1,13-.66,6.44,6.44,0,0,0-1.58,1.27,5.23,5.23,0,0,0-9.27.78l-.39,0a3.73,3.73,0,1,0,0,7.46,2.55,2.55,0,0,0,.39,0,5.23,5.23,0,0,0,9.27.78Z"/><path class="cls-9" d="M446.42,16.82a6.32,6.32,0,0,0,1.07,1.57,5.23,5.23,0,0,1-9.27-.78,2.55,2.55,0,0,1-.39,0,3.73,3.73,0,1,1,0-7.46l.39,0a5.23,5.23,0,0,1,9.27-.78A6.56,6.56,0,0,0,446.42,11a3.51,3.51,0,0,0-2.11-.69,3.61,3.61,0,1,0,2.11,6.52Z"/><path class="cls-7" d="M430.61,18.39a6.48,6.48,0,0,0,1.58,1.28,7.19,7.19,0,0,1-13-.67,4.73,4.73,0,0,1-.54,0,5.14,5.14,0,0,1,0-10.27,4.75,4.75,0,0,1,.54,0,7.19,7.19,0,0,1,13-.66,6.44,6.44,0,0,0-1.58,1.27,5.23,5.23,0,0,0-9.27.78l-.39,0a3.73,3.73,0,1,0,0,7.46,2.55,2.55,0,0,0,.39,0,5.23,5.23,0,0,0,9.27.78Z"/><path class="cls-10" d="M429.55,16.82a6,6,0,0,0,1.06,1.57,5.23,5.23,0,0,1-9.27-.78,2.55,2.55,0,0,1-.39,0,3.73,3.73,0,1,1,0-7.46l.39,0a5.23,5.23,0,0,1,9.27-.78A6.25,6.25,0,0,0,429.55,11a3.56,3.56,0,0,0-2.12-.69,3.61,3.61,0,1,0,2.12,6.52Z"/><path class="cls-4" d="M548.76,18.39a6.48,6.48,0,0,0,1.58,1.28,7.19,7.19,0,0,1-13-.67,4.73,4.73,0,0,1-.54,0,5.14,5.14,0,0,1,0-10.27,4.75,4.75,0,0,1,.54,0,7.19,7.19,0,0,1,13-.66,6.44,6.44,0,0,0-1.58,1.27,5.23,5.23,0,0,0-9.27.78l-.39,0a3.73,3.73,0,1,0,0,7.46,2.55,2.55,0,0,0,.39,0,5.23,5.23,0,0,0,9.27.78Z"/><path class="cls-5" d="M547.7,16.82a6,6,0,0,0,1.06,1.57,5.23,5.23,0,0,1-9.27-.78,2.55,2.55,0,0,1-.39,0,3.73,3.73,0,1,1,0-7.46l.39,0a5.23,5.23,0,0,1,9.27-.78A6.25,6.25,0,0,0,547.7,11a3.56,3.56,0,0,0-2.12-.69,3.61,3.61,0,1,0,2.12,6.52Z"/><path class="cls-6" d="M531.88,18.39a6.48,6.48,0,0,0,1.58,1.28,7.19,7.19,0,0,1-13-.67,4.55,4.55,0,0,1-.53,0,5.14,5.14,0,1,1,0-10.27,4.58,4.58,0,0,1,.53,0,7.19,7.19,0,0,1,13-.66,6.44,6.44,0,0,0-1.58,1.27,5.23,5.23,0,0,0-9.27.78l-.39,0a3.73,3.73,0,1,0,0,7.46,2.55,2.55,0,0,0,.39,0,5.23,5.23,0,0,0,9.27.78Z"/><path class="cls-7" d="M530.82,16.82a6.56,6.56,0,0,0,1.06,1.57,5.23,5.23,0,0,1-9.27-.78,2.55,2.55,0,0,1-.39,0,3.73,3.73,0,1,1,0-7.46l.39,0a5.23,5.23,0,0,1,9.27-.78A6.83,6.83,0,0,0,530.82,11a3.56,3.56,0,0,0-2.12-.69,3.61,3.61,0,1,0,2.12,6.52Z"/><path class="cls-8" d="M515,18.39a6.35,6.35,0,0,0,1.59,1.28,7.19,7.19,0,0,1-13-.67,4.55,4.55,0,0,1-.53,0,5.14,5.14,0,0,1,0-10.27,4.58,4.58,0,0,1,.53,0,7.2,7.2,0,0,1,13-.66A6.31,6.31,0,0,0,515,9.41a5.23,5.23,0,0,0-9.27.78l-.39,0a3.73,3.73,0,1,0,0,7.46,2.55,2.55,0,0,0,.39,0,5.23,5.23,0,0,0,9.27.78Z"/><path class="cls-9" d="M513.94,16.82A6.56,6.56,0,0,0,515,18.39a5.23,5.23,0,0,1-9.27-.78,2.55,2.55,0,0,1-.39,0,3.73,3.73,0,1,1,0-7.46l.39,0A5.23,5.23,0,0,1,515,9.41,6.83,6.83,0,0,0,513.94,11a3.54,3.54,0,0,0-2.12-.69,3.61,3.61,0,1,0,2.12,6.52Z"/><path class="cls-7" d="M498.12,18.39a6.35,6.35,0,0,0,1.59,1.28,7.19,7.19,0,0,1-13-.67,4.9,4.9,0,0,1-.54,0,5.14,5.14,0,0,1,0-10.27,4.89,4.89,0,0,1,.54,0,7.19,7.19,0,0,1,13-.66,6.31,6.31,0,0,0-1.59,1.27,5.23,5.23,0,0,0-9.27.78l-.39,0a3.73,3.73,0,0,0,0,7.46,2.55,2.55,0,0,0,.39,0,5.23,5.23,0,0,0,9.27.78Z"/><path class="cls-10" d="M497.06,16.82a6.56,6.56,0,0,0,1.06,1.57,5.23,5.23,0,0,1-9.27-.78,2.55,2.55,0,0,1-.39,0,3.73,3.73,0,0,1,0-7.46l.39,0a5.23,5.23,0,0,1,9.27-.78A6.83,6.83,0,0,0,497.06,11a3.54,3.54,0,0,0-2.12-.69,3.61,3.61,0,1,0,2.12,6.52Z"/><path class="cls-4" d="M616.27,18.39a6.35,6.35,0,0,0,1.59,1.28,7.19,7.19,0,0,1-13-.67,4.9,4.9,0,0,1-.54,0,5.14,5.14,0,0,1,0-10.27,4.89,4.89,0,0,1,.54,0,7.19,7.19,0,0,1,13-.66,6.31,6.31,0,0,0-1.59,1.27,5.23,5.23,0,0,0-9.27.78l-.39,0a3.73,3.73,0,0,0,0,7.46,2.55,2.55,0,0,0,.39,0,5.23,5.23,0,0,0,9.27.78Z"/><path class="cls-5" d="M615.21,16.82a6.56,6.56,0,0,0,1.06,1.57,5.23,5.23,0,0,1-9.27-.78,2.55,2.55,0,0,1-.39,0,3.73,3.73,0,0,1,0-7.46l.39,0a5.23,5.23,0,0,1,9.27-.78A6.83,6.83,0,0,0,615.21,11a3.54,3.54,0,0,0-2.12-.69,3.61,3.61,0,1,0,2.12,6.52Z"/><path class="cls-6" d="M599.39,18.39A6.73,6.73,0,0,0,601,19.67,7.19,7.19,0,0,1,588,19a4.9,4.9,0,0,1-.54,0,5.14,5.14,0,0,1,0-10.27l.54,0a7.19,7.19,0,0,1,13-.66,6.68,6.68,0,0,0-1.59,1.27,5.23,5.23,0,0,0-9.27.78l-.38,0a3.73,3.73,0,1,0,0,7.46,2.42,2.42,0,0,0,.38,0,5.23,5.23,0,0,0,9.27.78Z"/><path class="cls-7" d="M598.33,16.82a6.56,6.56,0,0,0,1.06,1.57,5.23,5.23,0,0,1-9.27-.78,2.42,2.42,0,0,1-.38,0,3.73,3.73,0,1,1,0-7.46l.38,0a5.23,5.23,0,0,1,9.27-.78A6.83,6.83,0,0,0,598.33,11a3.54,3.54,0,0,0-2.12-.69,3.61,3.61,0,1,0,2.12,6.52Z"/><path class="cls-8" d="M582.51,18.39a6.73,6.73,0,0,0,1.59,1.28,7.19,7.19,0,0,1-13-.67,4.73,4.73,0,0,1-.54,0,5.14,5.14,0,0,1,0-10.27,4.75,4.75,0,0,1,.54,0,7.19,7.19,0,0,1,13-.66,6.68,6.68,0,0,0-1.59,1.27,5.22,5.22,0,0,0-9.26.78l-.39,0a3.73,3.73,0,1,0,0,7.46,2.55,2.55,0,0,0,.39,0,5.22,5.22,0,0,0,9.26.78Z"/><path class="cls-9" d="M581.45,16.82a6.56,6.56,0,0,0,1.06,1.57,5.22,5.22,0,0,1-9.26-.78,2.55,2.55,0,0,1-.39,0,3.73,3.73,0,1,1,0-7.46l.39,0a5.22,5.22,0,0,1,9.26-.78A6.83,6.83,0,0,0,581.45,11a3.51,3.51,0,0,0-2.11-.69,3.61,3.61,0,1,0,2.11,6.52Z"/><path class="cls-7" d="M565.64,18.39a6.48,6.48,0,0,0,1.58,1.28,7.19,7.19,0,0,1-13-.67,4.73,4.73,0,0,1-.54,0,5.14,5.14,0,0,1,0-10.27,4.75,4.75,0,0,1,.54,0,7.19,7.19,0,0,1,13-.66,6.44,6.44,0,0,0-1.58,1.27,5.23,5.23,0,0,0-9.27.78l-.39,0a3.73,3.73,0,1,0,0,7.46,2.55,2.55,0,0,0,.39,0,5.23,5.23,0,0,0,9.27.78Z"/><path class="cls-10" d="M564.57,16.82a6.32,6.32,0,0,0,1.07,1.57,5.23,5.23,0,0,1-9.27-.78,2.55,2.55,0,0,1-.39,0,3.73,3.73,0,1,1,0-7.46l.39,0a5.23,5.23,0,0,1,9.27-.78A6.56,6.56,0,0,0,564.57,11a3.51,3.51,0,0,0-2.11-.69,3.61,3.61,0,1,0,2.11,6.52Z"/><path class="cls-4" d="M683.79,18.39a6.48,6.48,0,0,0,1.58,1.28,7.19,7.19,0,0,1-13-.67,4.73,4.73,0,0,1-.54,0,5.14,5.14,0,0,1,0-10.27,4.75,4.75,0,0,1,.54,0,7.19,7.19,0,0,1,13-.66,6.44,6.44,0,0,0-1.58,1.27,5.23,5.23,0,0,0-9.27.78l-.39,0a3.73,3.73,0,1,0,0,7.46,2.55,2.55,0,0,0,.39,0,5.23,5.23,0,0,0,9.27.78Z"/><path class="cls-5" d="M682.72,16.82a6.32,6.32,0,0,0,1.07,1.57,5.23,5.23,0,0,1-9.27-.78,2.55,2.55,0,0,1-.39,0,3.73,3.73,0,1,1,0-7.46l.39,0a5.23,5.23,0,0,1,9.27-.78A6.56,6.56,0,0,0,682.72,11a3.51,3.51,0,0,0-2.11-.69,3.61,3.61,0,1,0,2.11,6.52Z"/><path class="cls-6" d="M666.91,18.39a6.48,6.48,0,0,0,1.58,1.28,7.19,7.19,0,0,1-13-.67,4.56,4.56,0,0,1-.54,0,5.14,5.14,0,0,1,0-10.27,4.63,4.63,0,0,1,.54,0,7.19,7.19,0,0,1,13-.66,6.44,6.44,0,0,0-1.58,1.27,5.23,5.23,0,0,0-9.27.78l-.39,0a3.73,3.73,0,1,0,0,7.46,2.55,2.55,0,0,0,.39,0,5.23,5.23,0,0,0,9.27.78Z"/><path class="cls-7" d="M665.85,16.82a6,6,0,0,0,1.06,1.57,5.23,5.23,0,0,1-9.27-.78,2.55,2.55,0,0,1-.39,0,3.73,3.73,0,1,1,0-7.46l.39,0a5.23,5.23,0,0,1,9.27-.78A6.25,6.25,0,0,0,665.85,11a3.56,3.56,0,0,0-2.12-.69,3.61,3.61,0,1,0,2.12,6.52Z"/><path class="cls-8" d="M650,18.39a6.48,6.48,0,0,0,1.58,1.28,7.19,7.19,0,0,1-13-.67,4.55,4.55,0,0,1-.53,0,5.14,5.14,0,1,1,0-10.27,4.58,4.58,0,0,1,.53,0,7.19,7.19,0,0,1,13-.66A6.44,6.44,0,0,0,650,9.41a5.23,5.23,0,0,0-9.27.78l-.39,0a3.73,3.73,0,1,0,0,7.46,2.55,2.55,0,0,0,.39,0,5.23,5.23,0,0,0,9.27.78Z"/><path class="cls-9" d="M649,16.82A6.56,6.56,0,0,0,650,18.39a5.23,5.23,0,0,1-9.27-.78,2.55,2.55,0,0,1-.39,0,3.73,3.73,0,1,1,0-7.46l.39,0A5.23,5.23,0,0,1,650,9.41,6.83,6.83,0,0,0,649,11a3.56,3.56,0,0,0-2.12-.69A3.61,3.61,0,1,0,649,16.82Z"/><path class="cls-7" d="M633.15,18.39a6.35,6.35,0,0,0,1.59,1.28,7.19,7.19,0,0,1-13-.67,4.55,4.55,0,0,1-.53,0,5.14,5.14,0,0,1,0-10.27,4.58,4.58,0,0,1,.53,0,7.2,7.2,0,0,1,13-.66,6.31,6.31,0,0,0-1.59,1.27,5.23,5.23,0,0,0-9.27.78l-.39,0a3.73,3.73,0,1,0,0,7.46,2.55,2.55,0,0,0,.39,0,5.23,5.23,0,0,0,9.27.78Z"/><path class="cls-10" d="M632.09,16.82a6.56,6.56,0,0,0,1.06,1.57,5.23,5.23,0,0,1-9.27-.78,2.55,2.55,0,0,1-.39,0,3.73,3.73,0,1,1,0-7.46l.39,0a5.23,5.23,0,0,1,9.27-.78A6.83,6.83,0,0,0,632.09,11,3.54,3.54,0,0,0,630,10.3a3.61,3.61,0,1,0,2.12,6.52Z"/><path class="cls-4" d="M751.3,18.39a6.35,6.35,0,0,0,1.59,1.28,7.19,7.19,0,0,1-13-.67,4.55,4.55,0,0,1-.53,0,5.14,5.14,0,0,1,0-10.27,4.58,4.58,0,0,1,.53,0,7.2,7.2,0,0,1,13-.66,6.31,6.31,0,0,0-1.59,1.27,5.23,5.23,0,0,0-9.27.78l-.39,0a3.73,3.73,0,1,0,0,7.46,2.55,2.55,0,0,0,.39,0,5.23,5.23,0,0,0,9.27.78Z"/><path class="cls-5" d="M750.24,16.82a6.56,6.56,0,0,0,1.06,1.57,5.23,5.23,0,0,1-9.27-.78,2.55,2.55,0,0,1-.39,0,3.73,3.73,0,1,1,0-7.46l.39,0a5.23,5.23,0,0,1,9.27-.78A6.83,6.83,0,0,0,750.24,11a3.54,3.54,0,0,0-2.12-.69,3.61,3.61,0,1,0,2.12,6.52Z"/><path class="cls-6" d="M734.42,18.39A6.35,6.35,0,0,0,736,19.67,7.19,7.19,0,0,1,723,19a4.9,4.9,0,0,1-.54,0,5.14,5.14,0,0,1,0-10.27,4.89,4.89,0,0,1,.54,0,7.19,7.19,0,0,1,13-.66,6.31,6.31,0,0,0-1.59,1.27,5.23,5.23,0,0,0-9.27.78l-.38,0a3.73,3.73,0,1,0,0,7.46,2.48,2.48,0,0,0,.38,0,5.23,5.23,0,0,0,9.27.78Z"/><path class="cls-7" d="M733.36,16.82a6.56,6.56,0,0,0,1.06,1.57,5.23,5.23,0,0,1-9.27-.78,2.48,2.48,0,0,1-.38,0,3.73,3.73,0,1,1,0-7.46l.38,0a5.23,5.23,0,0,1,9.27-.78A6.83,6.83,0,0,0,733.36,11a3.54,3.54,0,0,0-2.12-.69,3.61,3.61,0,1,0,2.12,6.52Z"/><path class="cls-8" d="M717.54,18.39a6.73,6.73,0,0,0,1.59,1.28,7.19,7.19,0,0,1-13-.67,4.9,4.9,0,0,1-.54,0,5.14,5.14,0,0,1,0-10.27,4.89,4.89,0,0,1,.54,0,7.19,7.19,0,0,1,13-.66,6.68,6.68,0,0,0-1.59,1.27,5.23,5.23,0,0,0-9.27.78l-.38,0a3.73,3.73,0,1,0,0,7.46,2.36,2.36,0,0,0,.38,0,5.23,5.23,0,0,0,9.27.78Z"/><path class="cls-9" d="M716.48,16.82a6.56,6.56,0,0,0,1.06,1.57,5.23,5.23,0,0,1-9.27-.78,2.36,2.36,0,0,1-.38,0,3.73,3.73,0,1,1,0-7.46l.38,0a5.23,5.23,0,0,1,9.27-.78A6.83,6.83,0,0,0,716.48,11a3.54,3.54,0,0,0-2.12-.69,3.61,3.61,0,1,0,2.12,6.52Z"/><path class="cls-7" d="M700.66,18.39a6.73,6.73,0,0,0,1.59,1.28,7.19,7.19,0,0,1-13-.67,4.73,4.73,0,0,1-.54,0,5.14,5.14,0,0,1,0-10.27,4.75,4.75,0,0,1,.54,0,7.19,7.19,0,0,1,13-.66,6.68,6.68,0,0,0-1.59,1.27,5.22,5.22,0,0,0-9.26.78l-.39,0a3.73,3.73,0,1,0,0,7.46,2.55,2.55,0,0,0,.39,0,5.22,5.22,0,0,0,9.26.78Z"/><path class="cls-10" d="M699.6,16.82a6.56,6.56,0,0,0,1.06,1.57,5.22,5.22,0,0,1-9.26-.78,2.55,2.55,0,0,1-.39,0,3.73,3.73,0,1,1,0-7.46l.39,0a5.22,5.22,0,0,1,9.26-.78A6.83,6.83,0,0,0,699.6,11a3.51,3.51,0,0,0-2.11-.69,3.61,3.61,0,1,0,2.11,6.52Z"/><path class="cls-4" d="M818.81,18.39a6.73,6.73,0,0,0,1.59,1.28,7.19,7.19,0,0,1-13-.67,4.73,4.73,0,0,1-.54,0,5.14,5.14,0,0,1,0-10.27,4.75,4.75,0,0,1,.54,0,7.19,7.19,0,0,1,13-.66,6.68,6.68,0,0,0-1.59,1.27,5.22,5.22,0,0,0-9.26.78l-.39,0a3.73,3.73,0,1,0,0,7.46,2.55,2.55,0,0,0,.39,0,5.22,5.22,0,0,0,9.26.78Z"/><path class="cls-5" d="M817.75,16.82a6.56,6.56,0,0,0,1.06,1.57,5.22,5.22,0,0,1-9.26-.78,2.55,2.55,0,0,1-.39,0,3.73,3.73,0,1,1,0-7.46l.39,0a5.22,5.22,0,0,1,9.26-.78A6.83,6.83,0,0,0,817.75,11a3.51,3.51,0,0,0-2.11-.69,3.61,3.61,0,1,0,2.11,6.52Z"/><path class="cls-6" d="M801.94,18.39a6.48,6.48,0,0,0,1.58,1.28,7.19,7.19,0,0,1-13-.67,4.73,4.73,0,0,1-.54,0,5.14,5.14,0,0,1,0-10.27,4.75,4.75,0,0,1,.54,0,7.19,7.19,0,0,1,13-.66,6.44,6.44,0,0,0-1.58,1.27,5.23,5.23,0,0,0-9.27.78l-.39,0a3.73,3.73,0,1,0,0,7.46,2.55,2.55,0,0,0,.39,0,5.23,5.23,0,0,0,9.27.78Z"/><path class="cls-7" d="M800.87,16.82a6.32,6.32,0,0,0,1.07,1.57,5.23,5.23,0,0,1-9.27-.78,2.55,2.55,0,0,1-.39,0,3.73,3.73,0,1,1,0-7.46l.39,0a5.23,5.23,0,0,1,9.27-.78A6.56,6.56,0,0,0,800.87,11a3.51,3.51,0,0,0-2.11-.69,3.61,3.61,0,1,0,2.11,6.52Z"/><path class="cls-8" d="M785.06,18.39a6.48,6.48,0,0,0,1.58,1.28,7.19,7.19,0,0,1-13-.67,4.56,4.56,0,0,1-.54,0,5.14,5.14,0,0,1,0-10.27,4.63,4.63,0,0,1,.54,0,7.19,7.19,0,0,1,13-.66,6.44,6.44,0,0,0-1.58,1.27,5.23,5.23,0,0,0-9.27.78l-.39,0a3.73,3.73,0,1,0,0,7.46,2.55,2.55,0,0,0,.39,0,5.23,5.23,0,0,0,9.27.78Z"/><path class="cls-9" d="M784,16.82a6.28,6.28,0,0,0,1.06,1.57,5.23,5.23,0,0,1-9.27-.78,2.55,2.55,0,0,1-.39,0,3.73,3.73,0,1,1,0-7.46l.39,0a5.23,5.23,0,0,1,9.27-.78A6.53,6.53,0,0,0,784,11a3.56,3.56,0,0,0-2.12-.69A3.61,3.61,0,1,0,784,16.82Z"/><path class="cls-7" d="M768.18,18.39a6.48,6.48,0,0,0,1.58,1.28,7.19,7.19,0,0,1-13-.67,4.55,4.55,0,0,1-.53,0,5.14,5.14,0,1,1,0-10.27,4.58,4.58,0,0,1,.53,0,7.19,7.19,0,0,1,13-.66,6.44,6.44,0,0,0-1.58,1.27,5.23,5.23,0,0,0-9.27.78l-.39,0a3.73,3.73,0,1,0,0,7.46,2.55,2.55,0,0,0,.39,0,5.23,5.23,0,0,0,9.27.78Z"/><path class="cls-10" d="M767.12,16.82a6.56,6.56,0,0,0,1.06,1.57,5.23,5.23,0,0,1-9.27-.78,2.55,2.55,0,0,1-.39,0,3.73,3.73,0,1,1,0-7.46l.39,0a5.23,5.23,0,0,1,9.27-.78A6.83,6.83,0,0,0,767.12,11,3.56,3.56,0,0,0,765,10.3a3.61,3.61,0,1,0,2.12,6.52Z"/><path class="cls-4" d="M886.33,18.39a6.48,6.48,0,0,0,1.58,1.28,7.19,7.19,0,0,1-13-.67,4.55,4.55,0,0,1-.53,0,5.14,5.14,0,0,1,0-10.27,4.58,4.58,0,0,1,.53,0,7.19,7.19,0,0,1,13-.66,6.44,6.44,0,0,0-1.58,1.27,5.23,5.23,0,0,0-9.27.78l-.39,0a3.73,3.73,0,1,0,0,7.46,2.55,2.55,0,0,0,.39,0,5.23,5.23,0,0,0,9.27.78Z"/><path class="cls-5" d="M885.27,16.82a6.56,6.56,0,0,0,1.06,1.57,5.23,5.23,0,0,1-9.27-.78,2.55,2.55,0,0,1-.39,0,3.73,3.73,0,1,1,0-7.46l.39,0a5.23,5.23,0,0,1,9.27-.78A6.83,6.83,0,0,0,885.27,11a3.54,3.54,0,0,0-2.12-.69,3.61,3.61,0,1,0,2.12,6.52Z"/><path class="cls-6" d="M869.45,18.39A6.35,6.35,0,0,0,871,19.67a7.19,7.19,0,0,1-13-.67,4.9,4.9,0,0,1-.54,0,5.14,5.14,0,0,1,0-10.27,4.89,4.89,0,0,1,.54,0,7.19,7.19,0,0,1,13-.66,6.31,6.31,0,0,0-1.59,1.27,5.23,5.23,0,0,0-9.27.78l-.39,0a3.73,3.73,0,1,0,0,7.46,2.55,2.55,0,0,0,.39,0,5.23,5.23,0,0,0,9.27.78Z"/><path class="cls-7" d="M868.39,16.82a6.56,6.56,0,0,0,1.06,1.57,5.23,5.23,0,0,1-9.27-.78,2.55,2.55,0,0,1-.39,0,3.73,3.73,0,1,1,0-7.46l.39,0a5.23,5.23,0,0,1,9.27-.78A6.83,6.83,0,0,0,868.39,11a3.54,3.54,0,0,0-2.12-.69,3.61,3.61,0,1,0,2.12,6.52Z"/><path class="cls-8" d="M852.57,18.39a6.35,6.35,0,0,0,1.59,1.28,7.19,7.19,0,0,1-13-.67,4.9,4.9,0,0,1-.54,0,5.14,5.14,0,0,1,0-10.27,4.89,4.89,0,0,1,.54,0,7.19,7.19,0,0,1,13-.66,6.31,6.31,0,0,0-1.59,1.27,5.23,5.23,0,0,0-9.27.78l-.38,0a3.73,3.73,0,1,0,0,7.46,2.48,2.48,0,0,0,.38,0,5.23,5.23,0,0,0,9.27.78Z"/><path class="cls-9" d="M851.51,16.82a6.56,6.56,0,0,0,1.06,1.57,5.23,5.23,0,0,1-9.27-.78,2.48,2.48,0,0,1-.38,0,3.73,3.73,0,1,1,0-7.46l.38,0a5.23,5.23,0,0,1,9.27-.78A6.83,6.83,0,0,0,851.51,11a3.54,3.54,0,0,0-2.12-.69,3.61,3.61,0,1,0,2.12,6.52Z"/><path class="cls-7" d="M835.69,18.39a6.73,6.73,0,0,0,1.59,1.28,7.19,7.19,0,0,1-13-.67,4.9,4.9,0,0,1-.54,0,5.14,5.14,0,0,1,0-10.27,4.89,4.89,0,0,1,.54,0,7.19,7.19,0,0,1,13-.66,6.68,6.68,0,0,0-1.59,1.27,5.23,5.23,0,0,0-9.27.78l-.38,0a3.73,3.73,0,1,0,0,7.46,2.36,2.36,0,0,0,.38,0,5.23,5.23,0,0,0,9.27.78Z"/><path class="cls-10" d="M834.63,16.82a6.56,6.56,0,0,0,1.06,1.57,5.23,5.23,0,0,1-9.27-.78,2.36,2.36,0,0,1-.38,0,3.73,3.73,0,1,1,0-7.46l.38,0a5.23,5.23,0,0,1,9.27-.78A6.83,6.83,0,0,0,834.63,11a3.54,3.54,0,0,0-2.12-.69,3.61,3.61,0,1,0,2.12,6.52Z"/><path class="cls-4" d="M953.84,18.39a6.73,6.73,0,0,0,1.59,1.28,7.19,7.19,0,0,1-13-.67,4.9,4.9,0,0,1-.54,0,5.14,5.14,0,0,1,0-10.27,4.89,4.89,0,0,1,.54,0,7.19,7.19,0,0,1,13-.66,6.68,6.68,0,0,0-1.59,1.27,5.23,5.23,0,0,0-9.27.78l-.38,0a3.73,3.73,0,1,0,0,7.46,2.36,2.36,0,0,0,.38,0,5.23,5.23,0,0,0,9.27.78Z"/><path class="cls-5" d="M952.78,16.82a6.56,6.56,0,0,0,1.06,1.57,5.23,5.23,0,0,1-9.27-.78,2.36,2.36,0,0,1-.38,0,3.73,3.73,0,1,1,0-7.46l.38,0a5.23,5.23,0,0,1,9.27-.78A6.83,6.83,0,0,0,952.78,11a3.54,3.54,0,0,0-2.12-.69,3.61,3.61,0,1,0,2.12,6.52Z"/><path class="cls-6" d="M937,18.39a6.73,6.73,0,0,0,1.59,1.28,7.19,7.19,0,0,1-13-.67,4.73,4.73,0,0,1-.54,0,5.14,5.14,0,0,1,0-10.27,4.75,4.75,0,0,1,.54,0,7.19,7.19,0,0,1,13-.66A6.68,6.68,0,0,0,937,9.41a5.22,5.22,0,0,0-9.26.78l-.39,0a3.73,3.73,0,1,0,0,7.46,2.55,2.55,0,0,0,.39,0,5.22,5.22,0,0,0,9.26.78Z"/><path class="cls-7" d="M935.9,16.82A6.56,6.56,0,0,0,937,18.39a5.22,5.22,0,0,1-9.26-.78,2.55,2.55,0,0,1-.39,0,3.73,3.73,0,1,1,0-7.46l.39,0A5.22,5.22,0,0,1,937,9.41,6.83,6.83,0,0,0,935.9,11a3.51,3.51,0,0,0-2.11-.69,3.61,3.61,0,1,0,2.11,6.52Z"/><path class="cls-8" d="M920.09,18.39a6.48,6.48,0,0,0,1.58,1.28,7.19,7.19,0,0,1-13-.67,4.73,4.73,0,0,1-.54,0,5.14,5.14,0,0,1,0-10.27,4.75,4.75,0,0,1,.54,0,7.19,7.19,0,0,1,13-.66,6.44,6.44,0,0,0-1.58,1.27,5.23,5.23,0,0,0-9.27.78l-.39,0a3.73,3.73,0,1,0,0,7.46,2.55,2.55,0,0,0,.39,0,5.23,5.23,0,0,0,9.27.78Z"/><path class="cls-9" d="M919,16.82a6.32,6.32,0,0,0,1.07,1.57,5.23,5.23,0,0,1-9.27-.78,2.55,2.55,0,0,1-.39,0,3.73,3.73,0,1,1,0-7.46l.39,0a5.23,5.23,0,0,1,9.27-.78A6.56,6.56,0,0,0,919,11a3.51,3.51,0,0,0-2.11-.69A3.61,3.61,0,1,0,919,16.82Z"/><path class="cls-7" d="M903.21,18.39a6.48,6.48,0,0,0,1.58,1.28,7.19,7.19,0,0,1-13-.67,4.56,4.56,0,0,1-.54,0,5.14,5.14,0,0,1,0-10.27,4.63,4.63,0,0,1,.54,0,7.19,7.19,0,0,1,13-.66,6.44,6.44,0,0,0-1.58,1.27,5.23,5.23,0,0,0-9.27.78l-.39,0a3.73,3.73,0,1,0,0,7.46,2.55,2.55,0,0,0,.39,0,5.23,5.23,0,0,0,9.27.78Z"/><path class="cls-10" d="M902.15,16.82a6.28,6.28,0,0,0,1.06,1.57,5.23,5.23,0,0,1-9.27-.78,2.55,2.55,0,0,1-.39,0,3.73,3.73,0,1,1,0-7.46l.39,0a5.23,5.23,0,0,1,9.27-.78A6.53,6.53,0,0,0,902.15,11,3.56,3.56,0,0,0,900,10.3a3.61,3.61,0,1,0,2.12,6.52Z"/><path class="cls-4" d="M1021.36,18.39a6.48,6.48,0,0,0,1.58,1.28,7.19,7.19,0,0,1-13-.67,4.56,4.56,0,0,1-.54,0,5.14,5.14,0,0,1,0-10.27,4.63,4.63,0,0,1,.54,0,7.19,7.19,0,0,1,13-.66,6.44,6.44,0,0,0-1.58,1.27,5.23,5.23,0,0,0-9.27.78l-.39,0a3.73,3.73,0,1,0,0,7.46,2.55,2.55,0,0,0,.39,0,5.23,5.23,0,0,0,9.27.78Z"/><path class="cls-5" d="M1020.3,16.82a6.28,6.28,0,0,0,1.06,1.57,5.23,5.23,0,0,1-9.27-.78,2.55,2.55,0,0,1-.39,0,3.73,3.73,0,1,1,0-7.46l.39,0a5.23,5.23,0,0,1,9.27-.78A6.53,6.53,0,0,0,1020.3,11a3.56,3.56,0,0,0-2.12-.69,3.61,3.61,0,1,0,2.12,6.52Z"/><path class="cls-6" d="M1004.48,18.39a6.48,6.48,0,0,0,1.58,1.28,7.19,7.19,0,0,1-13-.67,4.55,4.55,0,0,1-.53,0,5.14,5.14,0,0,1,0-10.27,4.58,4.58,0,0,1,.53,0,7.19,7.19,0,0,1,13-.66,6.44,6.44,0,0,0-1.58,1.27,5.23,5.23,0,0,0-9.27.78l-.39,0a3.73,3.73,0,1,0,0,7.46,2.55,2.55,0,0,0,.39,0,5.23,5.23,0,0,0,9.27.78Z"/><path class="cls-7" d="M1003.42,16.82a6.56,6.56,0,0,0,1.06,1.57,5.23,5.23,0,0,1-9.27-.78,2.55,2.55,0,0,1-.39,0,3.73,3.73,0,1,1,0-7.46l.39,0a5.23,5.23,0,0,1,9.27-.78,6.83,6.83,0,0,0-1.06,1.58,3.54,3.54,0,0,0-2.12-.69,3.61,3.61,0,1,0,2.12,6.52Z"/><path class="cls-8" d="M987.6,18.39a6.35,6.35,0,0,0,1.59,1.28,7.19,7.19,0,0,1-13-.67,4.9,4.9,0,0,1-.54,0,5.14,5.14,0,0,1,0-10.27,4.89,4.89,0,0,1,.54,0,7.19,7.19,0,0,1,13-.66,6.31,6.31,0,0,0-1.59,1.27,5.23,5.23,0,0,0-9.27.78l-.39,0a3.73,3.73,0,1,0,0,7.46,2.55,2.55,0,0,0,.39,0,5.23,5.23,0,0,0,9.27.78Z"/><path class="cls-9" d="M986.54,16.82a6.56,6.56,0,0,0,1.06,1.57,5.23,5.23,0,0,1-9.27-.78,2.55,2.55,0,0,1-.39,0,3.73,3.73,0,1,1,0-7.46l.39,0a5.23,5.23,0,0,1,9.27-.78A6.83,6.83,0,0,0,986.54,11a3.54,3.54,0,0,0-2.12-.69,3.61,3.61,0,1,0,2.12,6.52Z"/><path class="cls-7" d="M970.72,18.39a6.35,6.35,0,0,0,1.59,1.28,7.19,7.19,0,0,1-13-.67,4.9,4.9,0,0,1-.54,0,5.14,5.14,0,0,1,0-10.27,4.89,4.89,0,0,1,.54,0,7.19,7.19,0,0,1,13-.66,6.31,6.31,0,0,0-1.59,1.27,5.23,5.23,0,0,0-9.27.78l-.38,0a3.73,3.73,0,1,0,0,7.46,2.48,2.48,0,0,0,.38,0,5.23,5.23,0,0,0,9.27.78Z"/><path class="cls-10" d="M969.66,16.82a6.56,6.56,0,0,0,1.06,1.57,5.23,5.23,0,0,1-9.27-.78,2.48,2.48,0,0,1-.38,0,3.73,3.73,0,1,1,0-7.46l.38,0a5.23,5.23,0,0,1,9.27-.78A6.83,6.83,0,0,0,969.66,11a3.54,3.54,0,0,0-2.12-.69,3.61,3.61,0,1,0,2.12,6.52Z"/><path class="cls-4" d="M1088.87,18.39a6.53,6.53,0,0,0,1.59,1.28,7.19,7.19,0,0,1-13-.67,4.9,4.9,0,0,1-.54,0,5.14,5.14,0,0,1,0-10.27l.54,0a7.19,7.19,0,0,1,13-.66,6.49,6.49,0,0,0-1.59,1.27,5.23,5.23,0,0,0-9.27.78l-.38,0a3.73,3.73,0,1,0,0,7.46,2.48,2.48,0,0,0,.38,0,5.23,5.23,0,0,0,9.27.78Z"/><path class="cls-5" d="M1087.81,16.82a6.56,6.56,0,0,0,1.06,1.57,5.23,5.23,0,0,1-9.27-.78,2.48,2.48,0,0,1-.38,0,3.73,3.73,0,1,1,0-7.46l.38,0a5.23,5.23,0,0,1,9.27-.78,6.83,6.83,0,0,0-1.06,1.58,3.54,3.54,0,0,0-2.12-.69,3.61,3.61,0,1,0,2.12,6.52Z"/><path class="cls-6" d="M1072,18.39a6.73,6.73,0,0,0,1.59,1.28,7.19,7.19,0,0,1-13-.67,4.9,4.9,0,0,1-.54,0,5.14,5.14,0,0,1,0-10.27,4.89,4.89,0,0,1,.54,0,7.19,7.19,0,0,1,13-.66A6.68,6.68,0,0,0,1072,9.41a5.23,5.23,0,0,0-9.27.78l-.38,0a3.73,3.73,0,1,0,0,7.46,2.36,2.36,0,0,0,.38,0,5.23,5.23,0,0,0,9.27.78Z"/><path class="cls-7" d="M1070.93,16.82a6.56,6.56,0,0,0,1.06,1.57,5.23,5.23,0,0,1-9.27-.78,2.36,2.36,0,0,1-.38,0,3.73,3.73,0,1,1,0-7.46l.38,0a5.23,5.23,0,0,1,9.27-.78,6.83,6.83,0,0,0-1.06,1.58,3.53,3.53,0,0,0-2.11-.69,3.61,3.61,0,1,0,2.11,6.52Z"/><path class="cls-8" d="M1055.11,18.39a6.73,6.73,0,0,0,1.59,1.28,7.19,7.19,0,0,1-13-.67,4.73,4.73,0,0,1-.54,0,5.14,5.14,0,0,1,0-10.27,4.75,4.75,0,0,1,.54,0,7.19,7.19,0,0,1,13-.66,6.68,6.68,0,0,0-1.59,1.27,5.22,5.22,0,0,0-9.26.78l-.39,0a3.73,3.73,0,1,0,0,7.46,2.55,2.55,0,0,0,.39,0,5.22,5.22,0,0,0,9.26.78Z"/><path class="cls-9" d="M1054.05,16.82a6.56,6.56,0,0,0,1.06,1.57,5.22,5.22,0,0,1-9.26-.78,2.55,2.55,0,0,1-.39,0,3.73,3.73,0,1,1,0-7.46l.39,0a5.22,5.22,0,0,1,9.26-.78,6.83,6.83,0,0,0-1.06,1.58,3.51,3.51,0,0,0-2.11-.69,3.61,3.61,0,1,0,2.11,6.52Z"/><path class="cls-7" d="M1038.24,18.39a6.48,6.48,0,0,0,1.58,1.28,7.19,7.19,0,0,1-13-.67,4.73,4.73,0,0,1-.54,0,5.14,5.14,0,0,1,0-10.27,4.75,4.75,0,0,1,.54,0,7.19,7.19,0,0,1,13-.66,6.44,6.44,0,0,0-1.58,1.27,5.23,5.23,0,0,0-9.27.78l-.39,0a3.73,3.73,0,1,0,0,7.46,2.55,2.55,0,0,0,.39,0,5.23,5.23,0,0,0,9.27.78Z"/><path class="cls-10" d="M1037.17,16.82a6.32,6.32,0,0,0,1.07,1.57,5.23,5.23,0,0,1-9.27-.78,2.55,2.55,0,0,1-.39,0,3.73,3.73,0,1,1,0-7.46l.39,0a5.23,5.23,0,0,1,9.27-.78,6.56,6.56,0,0,0-1.07,1.58,3.51,3.51,0,0,0-2.11-.69,3.61,3.61,0,1,0,2.11,6.52Z"/><path class="cls-4" d="M1156.39,18.39a6.48,6.48,0,0,0,1.58,1.28,7.19,7.19,0,0,1-13-.67,4.73,4.73,0,0,1-.54,0,5.14,5.14,0,0,1,0-10.27,4.75,4.75,0,0,1,.54,0,7.19,7.19,0,0,1,13-.66,6.44,6.44,0,0,0-1.58,1.27,5.23,5.23,0,0,0-9.27.78l-.39,0a3.73,3.73,0,1,0,0,7.46,2.55,2.55,0,0,0,.39,0,5.23,5.23,0,0,0,9.27.78Z"/><path class="cls-5" d="M1155.32,16.82a6.32,6.32,0,0,0,1.07,1.57,5.23,5.23,0,0,1-9.27-.78,2.55,2.55,0,0,1-.39,0,3.73,3.73,0,1,1,0-7.46l.39,0a5.23,5.23,0,0,1,9.27-.78,6.56,6.56,0,0,0-1.07,1.58,3.51,3.51,0,0,0-2.11-.69,3.61,3.61,0,1,0,2.11,6.52Z"/><path class="cls-6" d="M1139.51,18.39a6.48,6.48,0,0,0,1.58,1.28,7.19,7.19,0,0,1-13-.67,4.56,4.56,0,0,1-.54,0,5.14,5.14,0,0,1,0-10.27,4.63,4.63,0,0,1,.54,0,7.19,7.19,0,0,1,13-.66,6.44,6.44,0,0,0-1.58,1.27,5.23,5.23,0,0,0-9.27.78l-.39,0a3.73,3.73,0,1,0,0,7.46,2.55,2.55,0,0,0,.39,0,5.23,5.23,0,0,0,9.27.78Z"/><path class="cls-7" d="M1138.45,16.82a6.28,6.28,0,0,0,1.06,1.57,5.23,5.23,0,0,1-9.27-.78,2.55,2.55,0,0,1-.39,0,3.73,3.73,0,1,1,0-7.46l.39,0a5.23,5.23,0,0,1,9.27-.78,6.53,6.53,0,0,0-1.06,1.58,3.56,3.56,0,0,0-2.12-.69,3.61,3.61,0,1,0,2.12,6.52Z"/><path class="cls-8" d="M1122.63,18.39a6.48,6.48,0,0,0,1.58,1.28,7.19,7.19,0,0,1-13-.67,4.55,4.55,0,0,1-.53,0,5.14,5.14,0,0,1,0-10.27,4.58,4.58,0,0,1,.53,0,7.19,7.19,0,0,1,13-.66,6.44,6.44,0,0,0-1.58,1.27,5.23,5.23,0,0,0-9.27.78l-.39,0a3.73,3.73,0,1,0,0,7.46,2.55,2.55,0,0,0,.39,0,5.23,5.23,0,0,0,9.27.78Z"/><path class="cls-9" d="M1121.57,16.82a6.56,6.56,0,0,0,1.06,1.57,5.23,5.23,0,0,1-9.27-.78,2.55,2.55,0,0,1-.39,0,3.73,3.73,0,1,1,0-7.46l.39,0a5.23,5.23,0,0,1,9.27-.78,6.83,6.83,0,0,0-1.06,1.58,3.54,3.54,0,0,0-2.12-.69,3.61,3.61,0,1,0,2.12,6.52Z"/><path class="cls-7" d="M1105.75,18.39a6.35,6.35,0,0,0,1.59,1.28,7.19,7.19,0,0,1-13-.67,4.9,4.9,0,0,1-.54,0,5.14,5.14,0,0,1,0-10.27,4.89,4.89,0,0,1,.54,0,7.19,7.19,0,0,1,13-.66,6.31,6.31,0,0,0-1.59,1.27,5.23,5.23,0,0,0-9.27.78l-.39,0a3.73,3.73,0,1,0,0,7.46,2.55,2.55,0,0,0,.39,0,5.23,5.23,0,0,0,9.27.78Z"/><path class="cls-10" d="M1104.69,16.82a6.56,6.56,0,0,0,1.06,1.57,5.23,5.23,0,0,1-9.27-.78,2.55,2.55,0,0,1-.39,0,3.73,3.73,0,1,1,0-7.46l.39,0a5.23,5.23,0,0,1,9.27-.78,6.83,6.83,0,0,0-1.06,1.58,3.54,3.54,0,0,0-2.12-.69,3.61,3.61,0,1,0,2.12,6.52Z"/><path class="cls-4" d="M1223.9,18.39a6.35,6.35,0,0,0,1.59,1.28,7.19,7.19,0,0,1-13-.67,4.9,4.9,0,0,1-.54,0,5.14,5.14,0,0,1,0-10.27,4.89,4.89,0,0,1,.54,0,7.19,7.19,0,0,1,13-.66,6.31,6.31,0,0,0-1.59,1.27,5.23,5.23,0,0,0-9.27.78l-.39,0a3.73,3.73,0,0,0,0,7.46,2.55,2.55,0,0,0,.39,0,5.23,5.23,0,0,0,9.27.78Z"/><path class="cls-5" d="M1222.84,16.82a6.56,6.56,0,0,0,1.06,1.57,5.23,5.23,0,0,1-9.27-.78,2.55,2.55,0,0,1-.39,0,3.73,3.73,0,0,1,0-7.46l.39,0a5.23,5.23,0,0,1,9.27-.78,6.83,6.83,0,0,0-1.06,1.58,3.54,3.54,0,0,0-2.12-.69,3.61,3.61,0,1,0,2.12,6.52Z"/><path class="cls-6" d="M1207,18.39a6.53,6.53,0,0,0,1.59,1.28,7.19,7.19,0,0,1-13-.67,4.9,4.9,0,0,1-.54,0,5.14,5.14,0,0,1,0-10.27,4.89,4.89,0,0,1,.54,0,7.19,7.19,0,0,1,13-.66A6.49,6.49,0,0,0,1207,9.41a5.23,5.23,0,0,0-9.27.78l-.38,0a3.73,3.73,0,1,0,0,7.46,2.48,2.48,0,0,0,.38,0,5.23,5.23,0,0,0,9.27.78Z"/><path class="cls-7" d="M1206,16.82a6.56,6.56,0,0,0,1.06,1.57,5.23,5.23,0,0,1-9.27-.78,2.48,2.48,0,0,1-.38,0,3.73,3.73,0,1,1,0-7.46l.38,0a5.23,5.23,0,0,1,9.27-.78A6.83,6.83,0,0,0,1206,11a3.54,3.54,0,0,0-2.12-.69,3.61,3.61,0,1,0,2.12,6.52Z"/><path class="cls-8" d="M1190.14,18.39a6.73,6.73,0,0,0,1.59,1.28,7.19,7.19,0,0,1-13-.67,4.9,4.9,0,0,1-.54,0,5.14,5.14,0,0,1,0-10.27,4.89,4.89,0,0,1,.54,0,7.19,7.19,0,0,1,13-.66,6.68,6.68,0,0,0-1.59,1.27,5.23,5.23,0,0,0-9.27.78l-.38,0a3.73,3.73,0,1,0,0,7.46,2.36,2.36,0,0,0,.38,0,5.23,5.23,0,0,0,9.27.78Z"/><path class="cls-9" d="M1189.08,16.82a6.56,6.56,0,0,0,1.06,1.57,5.23,5.23,0,0,1-9.27-.78,2.36,2.36,0,0,1-.38,0,3.73,3.73,0,1,1,0-7.46l.38,0a5.23,5.23,0,0,1,9.27-.78,6.83,6.83,0,0,0-1.06,1.58,3.53,3.53,0,0,0-2.11-.69,3.61,3.61,0,1,0,2.11,6.52Z"/><path class="cls-7" d="M1173.26,18.39a6.73,6.73,0,0,0,1.59,1.28,7.19,7.19,0,0,1-13-.67,4.73,4.73,0,0,1-.54,0,5.14,5.14,0,0,1,0-10.27,4.75,4.75,0,0,1,.54,0,7.19,7.19,0,0,1,13-.66,6.68,6.68,0,0,0-1.59,1.27,5.22,5.22,0,0,0-9.26.78l-.39,0a3.73,3.73,0,1,0,0,7.46,2.55,2.55,0,0,0,.39,0,5.22,5.22,0,0,0,9.26.78Z"/><path class="cls-10" d="M1172.2,16.82a6.56,6.56,0,0,0,1.06,1.57,5.22,5.22,0,0,1-9.26-.78,2.55,2.55,0,0,1-.39,0,3.73,3.73,0,1,1,0-7.46l.39,0a5.22,5.22,0,0,1,9.26-.78A6.83,6.83,0,0,0,1172.2,11a3.51,3.51,0,0,0-2.11-.69,3.61,3.61,0,1,0,2.11,6.52Z"/><path class="cls-4" d="M1291.41,18.39a6.73,6.73,0,0,0,1.59,1.28,7.19,7.19,0,0,1-13-.67,4.73,4.73,0,0,1-.54,0,5.14,5.14,0,0,1,0-10.27,4.75,4.75,0,0,1,.54,0,7.19,7.19,0,0,1,13-.66,6.68,6.68,0,0,0-1.59,1.27,5.22,5.22,0,0,0-9.26.78l-.39,0a3.73,3.73,0,1,0,0,7.46,2.55,2.55,0,0,0,.39,0,5.22,5.22,0,0,0,9.26.78Z"/><path class="cls-5" d="M1290.35,16.82a6.56,6.56,0,0,0,1.06,1.57,5.22,5.22,0,0,1-9.26-.78,2.55,2.55,0,0,1-.39,0,3.73,3.73,0,1,1,0-7.46l.39,0a5.22,5.22,0,0,1,9.26-.78,6.83,6.83,0,0,0-1.06,1.58,3.51,3.51,0,0,0-2.11-.69,3.61,3.61,0,1,0,2.11,6.52Z"/><path class="cls-6" d="M1274.54,18.39a6.48,6.48,0,0,0,1.58,1.28,7.19,7.19,0,0,1-13-.67,4.73,4.73,0,0,1-.54,0,5.14,5.14,0,0,1,0-10.27,4.75,4.75,0,0,1,.54,0,7.19,7.19,0,0,1,13-.66,6.44,6.44,0,0,0-1.58,1.27,5.23,5.23,0,0,0-9.27.78l-.39,0a3.73,3.73,0,1,0,0,7.46,2.55,2.55,0,0,0,.39,0,5.23,5.23,0,0,0,9.27.78Z"/><path class="cls-7" d="M1273.47,16.82a6.32,6.32,0,0,0,1.07,1.57,5.23,5.23,0,0,1-9.27-.78,2.55,2.55,0,0,1-.39,0,3.73,3.73,0,1,1,0-7.46l.39,0a5.23,5.23,0,0,1,9.27-.78,6.56,6.56,0,0,0-1.07,1.58,3.51,3.51,0,0,0-2.11-.69,3.61,3.61,0,1,0,2.11,6.52Z"/><path class="cls-8" d="M1257.66,18.39a6.48,6.48,0,0,0,1.58,1.28,7.19,7.19,0,0,1-13-.67,4.56,4.56,0,0,1-.54,0,5.14,5.14,0,0,1,0-10.27,4.63,4.63,0,0,1,.54,0,7.19,7.19,0,0,1,13-.66,6.44,6.44,0,0,0-1.58,1.27,5.23,5.23,0,0,0-9.27.78l-.39,0a3.73,3.73,0,1,0,0,7.46,2.55,2.55,0,0,0,.39,0,5.23,5.23,0,0,0,9.27.78Z"/><path class="cls-9" d="M1256.6,16.82a6.28,6.28,0,0,0,1.06,1.57,5.23,5.23,0,0,1-9.27-.78,2.55,2.55,0,0,1-.39,0,3.73,3.73,0,1,1,0-7.46l.39,0a5.23,5.23,0,0,1,9.27-.78A6.53,6.53,0,0,0,1256.6,11a3.56,3.56,0,0,0-2.12-.69,3.61,3.61,0,1,0,2.12,6.52Z"/><path class="cls-7" d="M1240.78,18.39a6.48,6.48,0,0,0,1.58,1.28,7.19,7.19,0,0,1-13-.67,4.55,4.55,0,0,1-.53,0,5.14,5.14,0,0,1,0-10.27,4.58,4.58,0,0,1,.53,0,7.19,7.19,0,0,1,13-.66,6.44,6.44,0,0,0-1.58,1.27,5.23,5.23,0,0,0-9.27.78l-.39,0a3.73,3.73,0,1,0,0,7.46,2.55,2.55,0,0,0,.39,0,5.23,5.23,0,0,0,9.27.78Z"/><path class="cls-10" d="M1239.72,16.82a6.56,6.56,0,0,0,1.06,1.57,5.23,5.23,0,0,1-9.27-.78,2.55,2.55,0,0,1-.39,0,3.73,3.73,0,1,1,0-7.46l.39,0a5.23,5.23,0,0,1,9.27-.78,6.83,6.83,0,0,0-1.06,1.58,3.54,3.54,0,0,0-2.12-.69,3.61,3.61,0,1,0,2.12,6.52Z"/><path class="cls-4" d="M1358.93,18.39a6.48,6.48,0,0,0,1.58,1.28,7.19,7.19,0,0,1-13-.67,4.55,4.55,0,0,1-.53,0,5.14,5.14,0,0,1,0-10.27,4.58,4.58,0,0,1,.53,0,7.19,7.19,0,0,1,13-.66,6.44,6.44,0,0,0-1.58,1.27,5.23,5.23,0,0,0-9.27.78l-.39,0a3.73,3.73,0,1,0,0,7.46,2.55,2.55,0,0,0,.39,0,5.23,5.23,0,0,0,9.27.78Z"/><path class="cls-5" d="M1357.87,16.82a6.56,6.56,0,0,0,1.06,1.57,5.23,5.23,0,0,1-9.27-.78,2.55,2.55,0,0,1-.39,0,3.73,3.73,0,1,1,0-7.46l.39,0a5.23,5.23,0,0,1,9.27-.78,6.83,6.83,0,0,0-1.06,1.58,3.54,3.54,0,0,0-2.12-.69,3.61,3.61,0,1,0,2.12,6.52Z"/><path class="cls-6" d="M1342.05,18.39a6.35,6.35,0,0,0,1.59,1.28,7.19,7.19,0,0,1-13-.67,4.9,4.9,0,0,1-.54,0,5.14,5.14,0,0,1,0-10.27,4.89,4.89,0,0,1,.54,0,7.19,7.19,0,0,1,13-.66,6.31,6.31,0,0,0-1.59,1.27,5.23,5.23,0,0,0-9.27.78l-.39,0a3.73,3.73,0,0,0,0,7.46,2.55,2.55,0,0,0,.39,0,5.23,5.23,0,0,0,9.27.78Z"/><path class="cls-7" d="M1341,16.82a6.56,6.56,0,0,0,1.06,1.57,5.23,5.23,0,0,1-9.27-.78,2.55,2.55,0,0,1-.39,0,3.73,3.73,0,0,1,0-7.46l.39,0a5.23,5.23,0,0,1,9.27-.78A6.83,6.83,0,0,0,1341,11a3.54,3.54,0,0,0-2.12-.69,3.61,3.61,0,1,0,2.12,6.52Z"/><path class="cls-8" d="M1325.17,18.39a6.53,6.53,0,0,0,1.59,1.28,7.19,7.19,0,0,1-13-.67,4.9,4.9,0,0,1-.54,0,5.14,5.14,0,0,1,0-10.27,4.89,4.89,0,0,1,.54,0,7.19,7.19,0,0,1,13-.66,6.49,6.49,0,0,0-1.59,1.27,5.23,5.23,0,0,0-9.27.78l-.38,0a3.73,3.73,0,1,0,0,7.46,2.42,2.42,0,0,0,.38,0,5.23,5.23,0,0,0,9.27.78Z"/><path class="cls-9" d="M1324.11,16.82a6.56,6.56,0,0,0,1.06,1.57,5.23,5.23,0,0,1-9.27-.78,2.42,2.42,0,0,1-.38,0,3.73,3.73,0,1,1,0-7.46l.38,0a5.23,5.23,0,0,1,9.27-.78,6.83,6.83,0,0,0-1.06,1.58,3.54,3.54,0,0,0-2.12-.69,3.61,3.61,0,1,0,2.12,6.52Z"/><path class="cls-7" d="M1308.29,18.39a6.73,6.73,0,0,0,1.59,1.28,7.19,7.19,0,0,1-13-.67,4.9,4.9,0,0,1-.54,0,5.14,5.14,0,0,1,0-10.27,4.89,4.89,0,0,1,.54,0,7.19,7.19,0,0,1,13-.66,6.68,6.68,0,0,0-1.59,1.27,5.22,5.22,0,0,0-9.26.78l-.39,0a3.73,3.73,0,1,0,0,7.46,2.55,2.55,0,0,0,.39,0,5.22,5.22,0,0,0,9.26.78Z"/><path class="cls-10" d="M1307.23,16.82a6.56,6.56,0,0,0,1.06,1.57,5.22,5.22,0,0,1-9.26-.78,2.55,2.55,0,0,1-.39,0,3.73,3.73,0,1,1,0-7.46l.39,0a5.22,5.22,0,0,1,9.26-.78,6.83,6.83,0,0,0-1.06,1.58,3.53,3.53,0,0,0-2.11-.69,3.61,3.61,0,1,0,2.11,6.52Z"/></g><polygon class="cls-11" points="1361.99 26.44 1.36 26.44 26.44 1.36 1336.91 1.36 1361.99 26.44"/></g></g></svg>