<svg xmlns="http://www.w3.org/2000/svg" viewBox="0 0 724.96 22.02"><defs><style>.cls-1{fill:#298e87;}.cls-2,.cls-3{fill:none;stroke-miterlimit:10;}.cls-2{stroke:#f1f4e7;stroke-width:8px;}.cls-3{stroke:#4b2928;}.cls-4{fill:#f1f4e7;}.cls-5{fill:#452019;}</style></defs><g id="图层_2" data-name="图层 2"><g id="文件图层"><polygon class="cls-1" points="0 20.01 20.11 0 702.84 0 724.96 22.02 0 20.01"/><line class="cls-2" x1="12.95" y1="8.62" x2="710.4" y2="9.77"/><line class="cls-3" x1="510.65" y1="9.77" x2="17.86" y2="9.77"/><path class="cls-4" d="M270.94,2.25c7.95,0,10.31,7.51,10.31,7.51s-2.36,7.53-10.31,7.53h-.25a11.74,11.74,0,0,1-10-5.57,10.47,10.47,0,0,1-1-2,10.64,10.64,0,0,1,1-1.93,11.8,11.8,0,0,1,10-5.57Z"/><path class="cls-5" d="M261.34,11.69a10.62,10.62,0,0,1,9.35,5.59,11.74,11.74,0,0,1-10-5.57Z"/><path class="cls-5" d="M270.69,2.26a10.6,10.6,0,0,1-9.35,5.59l-.63,0A11.8,11.8,0,0,1,270.69,2.26Z"/><rect class="cls-5" x="270.36" y="7.32" width="4.9" height="4.9" transform="translate(458.82 209.57) rotate(-135)"/><path class="cls-4" d="M235.55,2.25c7.94,0,10.31,7.51,10.31,7.51s-2.37,7.53-10.31,7.53h-.25a11.73,11.73,0,0,1-10-5.57,10.21,10.21,0,0,1-1-2,10.37,10.37,0,0,1,1-1.93,11.79,11.79,0,0,1,10-5.57Z"/><path class="cls-5" d="M226,11.69a10.62,10.62,0,0,1,9.35,5.59,11.73,11.73,0,0,1-10-5.57Z"/><path class="cls-5" d="M235.3,2.26A10.61,10.61,0,0,1,226,7.85l-.63,0A11.79,11.79,0,0,1,235.3,2.26Z"/><rect class="cls-5" x="234.96" y="7.32" width="4.9" height="4.9" transform="translate(398.39 184.54) rotate(-135)"/><path class="cls-4" d="M200.15,2.25c7.94,0,10.31,7.51,10.31,7.51s-2.37,7.53-10.31,7.53h-.25a11.74,11.74,0,0,1-10-5.57,10.47,10.47,0,0,1-1-2,10.64,10.64,0,0,1,1-1.93,11.8,11.8,0,0,1,10-5.57Z"/><path class="cls-5" d="M190.55,11.69a10.62,10.62,0,0,1,9.35,5.59,11.74,11.74,0,0,1-10-5.57Z"/><path class="cls-5" d="M199.9,2.26a10.6,10.6,0,0,1-9.35,5.59l-.63,0A11.8,11.8,0,0,1,199.9,2.26Z"/><rect class="cls-5" x="199.57" y="7.32" width="4.9" height="4.9" transform="translate(337.97 159.51) rotate(-135)"/><path class="cls-4" d="M164.76,2.25c7.94,0,10.31,7.51,10.31,7.51s-2.37,7.53-10.31,7.53h-.25a11.73,11.73,0,0,1-10-5.57,10.21,10.21,0,0,1-1-2,10.37,10.37,0,0,1,1-1.93,11.79,11.79,0,0,1,10-5.57Z"/><path class="cls-5" d="M155.16,11.69a10.62,10.62,0,0,1,9.35,5.59,11.73,11.73,0,0,1-10-5.57Z"/><path class="cls-5" d="M164.51,2.26a10.61,10.61,0,0,1-9.35,5.59l-.63,0A11.79,11.79,0,0,1,164.51,2.26Z"/><rect class="cls-5" x="164.17" y="7.32" width="4.9" height="4.9" transform="translate(277.54 134.49) rotate(-135)"/><path class="cls-4" d="M129.36,2.25c7.94,0,10.31,7.51,10.31,7.51s-2.37,7.53-10.31,7.53h-.25a11.74,11.74,0,0,1-10-5.57,10.47,10.47,0,0,1-1-2,10.64,10.64,0,0,1,1-1.93,11.8,11.8,0,0,1,10-5.57Z"/><path class="cls-5" d="M119.76,11.69a10.62,10.62,0,0,1,9.35,5.59,11.74,11.74,0,0,1-10-5.57Z"/><path class="cls-5" d="M129.11,2.26a10.6,10.6,0,0,1-9.35,5.59l-.63,0A11.8,11.8,0,0,1,129.11,2.26Z"/><rect class="cls-5" x="128.77" y="7.32" width="4.9" height="4.9" transform="translate(217.12 109.46) rotate(-135)"/><path class="cls-4" d="M94,2.25c7.94,0,10.31,7.51,10.31,7.51S101.91,17.29,94,17.29h-.26a11.72,11.72,0,0,1-10-5.57,10.21,10.21,0,0,1-1-2,10.37,10.37,0,0,1,1-1.93,11.78,11.78,0,0,1,10-5.57Z"/><path class="cls-5" d="M84.37,11.69a10.6,10.6,0,0,1,9.34,5.59,11.72,11.72,0,0,1-10-5.57Z"/><path class="cls-5" d="M93.71,2.26a10.58,10.58,0,0,1-9.34,5.59l-.63,0A11.78,11.78,0,0,1,93.71,2.26Z"/><rect class="cls-5" x="93.38" y="7.32" width="4.9" height="4.9" transform="translate(156.69 84.43) rotate(-135)"/><path class="cls-4" d="M58.57,2.25c7.94,0,10.31,7.51,10.31,7.51s-2.37,7.53-10.31,7.53h-.25a11.73,11.73,0,0,1-10-5.57,10.47,10.47,0,0,1-1-2,10.64,10.64,0,0,1,1-1.93,11.79,11.79,0,0,1,10-5.57Z"/><path class="cls-5" d="M49,11.69a10.62,10.62,0,0,1,9.35,5.59,11.73,11.73,0,0,1-10-5.57Z"/><path class="cls-5" d="M58.32,2.26A10.6,10.6,0,0,1,49,7.85l-.63,0A11.79,11.79,0,0,1,58.32,2.26Z"/><rect class="cls-5" x="57.98" y="7.32" width="4.9" height="4.9" transform="translate(96.27 59.41) rotate(-135)"/><path class="cls-4" d="M23.17,2.25c8,0,10.32,7.51,10.32,7.51s-2.37,7.53-10.32,7.53h-.25a11.74,11.74,0,0,1-10-5.57,10.47,10.47,0,0,1-1-2,10.37,10.37,0,0,1,1-1.93,11.77,11.77,0,0,1,10-5.57Z"/><path class="cls-4" d="M306.34,2.25c7.94,0,10.31,7.51,10.31,7.51s-2.37,7.53-10.31,7.53h-.25a11.73,11.73,0,0,1-10-5.57,10.21,10.21,0,0,1-1-2,10.37,10.37,0,0,1,1-1.93,11.79,11.79,0,0,1,10-5.57Z"/><path class="cls-5" d="M296.74,11.69a10.62,10.62,0,0,1,9.35,5.59,11.73,11.73,0,0,1-10-5.57Z"/><path class="cls-5" d="M306.09,2.26a10.61,10.61,0,0,1-9.35,5.59l-.63,0A11.79,11.79,0,0,1,306.09,2.26Z"/><rect class="cls-5" x="305.75" y="7.32" width="4.9" height="4.9" transform="translate(519.24 234.59) rotate(-135)"/><path class="cls-4" d="M341.73,2.25c7.95,0,10.32,7.51,10.32,7.51s-2.37,7.53-10.32,7.53h-.25a11.74,11.74,0,0,1-10-5.57,10.47,10.47,0,0,1-1-2,10.37,10.37,0,0,1,1-1.93,11.77,11.77,0,0,1,10-5.57Z"/><path class="cls-5" d="M332.14,11.69a10.6,10.6,0,0,1,9.34,5.59,11.74,11.74,0,0,1-10-5.57Z"/><path class="cls-5" d="M341.48,2.26a10.59,10.59,0,0,1-9.34,5.59l-.63,0A11.77,11.77,0,0,1,341.48,2.26Z"/><rect class="cls-5" x="341.15" y="7.32" width="4.9" height="4.9" transform="translate(579.67 259.62) rotate(-135)"/><path class="cls-4" d="M377.13,2.25c7.94,0,10.31,7.51,10.31,7.51s-2.37,7.53-10.31,7.53h-.25a11.73,11.73,0,0,1-10-5.57,11,11,0,0,1-1-2,11.19,11.19,0,0,1,1-1.93,11.79,11.79,0,0,1,10-5.57Z"/><path class="cls-5" d="M367.53,11.69a10.62,10.62,0,0,1,9.35,5.59,11.73,11.73,0,0,1-10-5.57Z"/><path class="cls-5" d="M376.88,2.26a10.61,10.61,0,0,1-9.35,5.59l-.63,0A11.79,11.79,0,0,1,376.88,2.26Z"/><rect class="cls-5" x="376.54" y="7.32" width="4.9" height="4.9" transform="translate(640.09 284.65) rotate(-135)"/><path class="cls-4" d="M412.52,2.25c8,0,10.32,7.51,10.32,7.51s-2.37,7.53-10.32,7.53h-.25a11.74,11.74,0,0,1-10-5.57,10.47,10.47,0,0,1-1-2,10.37,10.37,0,0,1,1-1.93,11.77,11.77,0,0,1,10-5.57Z"/><path class="cls-5" d="M402.93,11.69a10.6,10.6,0,0,1,9.34,5.59,11.74,11.74,0,0,1-10-5.57Z"/><path class="cls-5" d="M412.27,2.26a10.59,10.59,0,0,1-9.34,5.59l-.63,0A11.77,11.77,0,0,1,412.27,2.26Z"/><rect class="cls-5" x="411.94" y="7.32" width="4.9" height="4.9" transform="translate(700.52 309.67) rotate(-135)"/><path class="cls-4" d="M447.92,2.25c7.94,0,10.31,7.51,10.31,7.51s-2.37,7.53-10.31,7.53h-.25a11.73,11.73,0,0,1-10-5.57,10.47,10.47,0,0,1-1-2,10.64,10.64,0,0,1,1-1.93,11.79,11.79,0,0,1,10-5.57Z"/><path class="cls-5" d="M438.32,11.69a10.62,10.62,0,0,1,9.35,5.59,11.73,11.73,0,0,1-10-5.57Z"/><path class="cls-5" d="M447.67,2.26a10.61,10.61,0,0,1-9.35,5.59l-.63,0A11.79,11.79,0,0,1,447.67,2.26Z"/><rect class="cls-5" x="447.33" y="7.32" width="4.9" height="4.9" transform="translate(760.94 334.7) rotate(-135)"/><path class="cls-4" d="M483.31,2.25c7.95,0,10.32,7.51,10.32,7.51s-2.37,7.53-10.32,7.53h-.25a11.74,11.74,0,0,1-10-5.57,10.47,10.47,0,0,1-1-2,10.37,10.37,0,0,1,1-1.93,11.77,11.77,0,0,1,10-5.57Z"/><path class="cls-5" d="M473.72,11.69a10.6,10.6,0,0,1,9.34,5.59,11.74,11.74,0,0,1-10-5.57Z"/><path class="cls-5" d="M483.06,2.26a10.59,10.59,0,0,1-9.34,5.59l-.63,0A11.77,11.77,0,0,1,483.06,2.26Z"/><rect class="cls-5" x="482.73" y="7.32" width="4.9" height="4.9" transform="translate(821.37 359.73) rotate(-135)"/><line class="cls-3" x1="710.4" y1="9.77" x2="517.79" y2="9.77"/><path class="cls-4" d="M700.09,2.25c7.94,0,10.31,7.51,10.31,7.51s-2.37,7.53-10.31,7.53h-.25a11.73,11.73,0,0,1-10-5.57,10.21,10.21,0,0,1-1-2,10.37,10.37,0,0,1,1-1.93,11.79,11.79,0,0,1,10-5.57Z"/><path class="cls-5" d="M690.49,11.69a10.62,10.62,0,0,1,9.35,5.59,11.73,11.73,0,0,1-10-5.57Z"/><path class="cls-5" d="M699.84,2.26a10.61,10.61,0,0,1-9.35,5.59l-.63,0A11.79,11.79,0,0,1,699.84,2.26Z"/><rect class="cls-5" x="699.5" y="7.32" width="4.9" height="4.9" transform="translate(1191.43 513) rotate(-135)"/><path class="cls-4" d="M664.69,2.25c7.94,0,10.31,7.51,10.31,7.51s-2.37,7.53-10.31,7.53h-.25a11.74,11.74,0,0,1-10-5.57,10.47,10.47,0,0,1-1-2,10.64,10.64,0,0,1,1-1.93,11.8,11.8,0,0,1,10-5.57Z"/><path class="cls-5" d="M655.09,11.69a10.62,10.62,0,0,1,9.35,5.59,11.74,11.74,0,0,1-10-5.57Z"/><path class="cls-5" d="M664.44,2.26a10.6,10.6,0,0,1-9.35,5.59l-.63,0A11.8,11.8,0,0,1,664.44,2.26Z"/><rect class="cls-5" x="664.1" y="7.32" width="4.9" height="4.9" transform="translate(1131.01 487.97) rotate(-135)"/><path class="cls-4" d="M629.3,2.25c7.94,0,10.31,7.51,10.31,7.51s-2.37,7.53-10.31,7.53H629a11.72,11.72,0,0,1-10-5.57,10.21,10.21,0,0,1-1-2,10.37,10.37,0,0,1,1-1.93,11.78,11.78,0,0,1,10-5.57Z"/><path class="cls-5" d="M619.7,11.69A10.6,10.6,0,0,1,629,17.28a11.72,11.72,0,0,1-10-5.57Z"/><path class="cls-5" d="M629,2.26a10.58,10.58,0,0,1-9.34,5.59l-.63,0A11.78,11.78,0,0,1,629,2.26Z"/><rect class="cls-5" x="628.71" y="7.32" width="4.9" height="4.9" transform="translate(1070.58 462.95) rotate(-135)"/><path class="cls-4" d="M593.9,2.25c7.94,0,10.31,7.51,10.31,7.51s-2.37,7.53-10.31,7.53h-.25a11.73,11.73,0,0,1-10-5.57,10.47,10.47,0,0,1-1-2,10.64,10.64,0,0,1,1-1.93,11.79,11.79,0,0,1,10-5.57Z"/><path class="cls-5" d="M584.3,11.69a10.62,10.62,0,0,1,9.35,5.59,11.73,11.73,0,0,1-10-5.57Z"/><path class="cls-5" d="M593.65,2.26a10.6,10.6,0,0,1-9.35,5.59l-.63,0A11.79,11.79,0,0,1,593.65,2.26Z"/><rect class="cls-5" x="593.31" y="7.32" width="4.9" height="4.9" transform="translate(1010.15 437.92) rotate(-135)"/><path class="cls-4" d="M558.5,2.25c8,0,10.32,7.51,10.32,7.51s-2.37,7.53-10.32,7.53h-.25a11.74,11.74,0,0,1-10-5.57,10.47,10.47,0,0,1-1-2,10.37,10.37,0,0,1,1-1.93,11.77,11.77,0,0,1,10-5.57Z"/><path class="cls-5" d="M548.91,11.69a10.6,10.6,0,0,1,9.34,5.59,11.74,11.74,0,0,1-10-5.57Z"/><path class="cls-5" d="M558.25,2.26a10.58,10.58,0,0,1-9.34,5.59l-.63,0A11.77,11.77,0,0,1,558.25,2.26Z"/><rect class="cls-5" x="557.92" y="7.32" width="4.9" height="4.9" transform="translate(949.73 412.89) rotate(-135)"/><path class="cls-4" d="M523.11,2.25c7.94,0,10.31,7.51,10.31,7.51s-2.37,7.53-10.31,7.53h-.25a11.73,11.73,0,0,1-10-5.57,10.47,10.47,0,0,1-1-2,10.64,10.64,0,0,1,1-1.93,11.79,11.79,0,0,1,10-5.57Z"/><path class="cls-5" d="M513.51,11.69a10.62,10.62,0,0,1,9.35,5.59,11.73,11.73,0,0,1-10-5.57Z"/><path class="cls-5" d="M522.86,2.26a10.6,10.6,0,0,1-9.35,5.59l-.63,0A11.79,11.79,0,0,1,522.86,2.26Z"/><rect class="cls-5" x="522.52" y="7.32" width="4.9" height="4.9" transform="translate(889.3 387.87) rotate(-135)"/></g></g></svg>