<svg xmlns="http://www.w3.org/2000/svg" viewBox="0 0 335.41 335.41"><defs><style>.cls-1{fill:#298e87;}.cls-2{fill:#529977;}.cls-3{fill:#f1f4e7;}.cls-4{fill:#452019;}.cls-5{fill:#231615;}.cls-6{fill:#374d64;}</style></defs><g id="图层_2" data-name="图层 2"><g id="文件图层"><path class="cls-1" d="M245.24,200.11l51.44,21c18.4-5.57,20.95-27,20.95-27,19.09-6.31,17.76-26.45,17.76-26.45s1.33-20.15-17.76-26.46c0,0-2.55-21.39-20.95-27l-51.44,21Z"/><path class="cls-2" d="M245.24,187.81l31.92,13c11.41-3.45,13-16.73,13-16.73,11.84-3.91,11-16.41,11-16.41s.82-12.5-11-16.42c0,0-1.59-13.27-13-16.73l-31.92,13Z"/><path class="cls-1" d="M245.44,135.79l51.24-21.51c9.07-17-4.26-33.88-4.26-33.88,9-18-6.14-31.27-6.14-31.27S273,34,255,43c0,0-16.93-13.33-33.88-4.26L199.62,90Z"/><path class="cls-2" d="M236.75,127.1l31.79-13.35c5.63-10.52-2.64-21-2.64-21,5.61-11.15-3.81-19.4-3.81-19.4s-8.26-9.42-19.41-3.82c0,0-10.5-8.26-21-2.64L208.31,98.66Z"/><path class="cls-1" d="M200.11,90.17l21-51.44c-5.57-18.4-27-20.95-27-20.95C187.85-1.31,167.71,0,167.71,0s-20.15-1.33-26.46,17.76c0,0-21.39,2.55-27,20.95l21,51.44Z"/><path class="cls-2" d="M187.81,90.17l13-31.91c-3.45-11.42-16.73-13-16.73-13-3.91-11.85-16.41-11-16.41-11s-12.5-.82-16.42,11c0,0-13.27,1.58-16.73,13l13,31.91Z"/><path class="cls-1" d="M135.79,90,114.28,38.73C97.33,29.66,80.4,43,80.4,43c-18-9-31.27,6.14-31.27,6.14S34,62.44,43,80.4c0,0-13.33,16.93-4.26,33.88L90,135.79Z"/><path class="cls-2" d="M127.1,98.66,113.75,66.87c-10.52-5.62-21,2.64-21,2.64-11.15-5.6-19.4,3.82-19.4,3.82s-9.42,8.25-3.82,19.4c0,0-8.26,10.5-2.64,21L98.66,127.1Z"/><path class="cls-1" d="M90.17,135.3l-51.44-21c-18.4,5.58-20.95,27-20.95,27C-1.31,147.56,0,167.71,0,167.71s-1.33,20.14,17.76,26.45c0,0,2.55,21.4,20.95,27l51.44-21Z"/><path class="cls-2" d="M90.17,147.6l-31.91-13c-11.42,3.46-13,16.73-13,16.73-11.85,3.92-11,16.42-11,16.42s-.82,12.5,11,16.41c0,0,1.58,13.28,13,16.73l31.91-13Z"/><path class="cls-1" d="M90,199.62,38.73,221.13C29.66,238.08,43,255,43,255c-9,18,6.14,31.27,6.14,31.27s13.31,15.18,31.27,6.14c0,0,16.93,13.33,33.88,4.26l21.51-51.24Z"/><path class="cls-2" d="M98.66,208.31,66.87,221.66c-5.62,10.52,2.64,21,2.64,21-5.6,11.15,3.82,19.41,3.82,19.41s8.25,9.42,19.4,3.81c0,0,10.5,8.27,21,2.64l13.35-31.79Z"/><path class="cls-1" d="M135.3,245.24l-21,51.44c5.58,18.4,27,20.95,27,20.95,6.31,19.09,26.46,17.76,26.46,17.76s20.14,1.33,26.45-17.76c0,0,21.4-2.55,27-20.95l-21-51.44Z"/><path class="cls-2" d="M147.6,245.24l-13,31.92c3.46,11.41,16.73,13,16.73,13,3.92,11.84,16.42,11,16.42,11s12.5.82,16.41-11c0,0,13.28-1.59,16.73-13l-13-31.92Z"/><path class="cls-1" d="M199.62,245.44l21.51,51.24c17,9.07,33.88-4.26,33.88-4.26,18,9,31.27-6.14,31.27-6.14S301.46,273,292.42,255c0,0,13.33-16.93,4.26-33.88l-51.24-21.51Z"/><path class="cls-2" d="M208.31,236.75l13.35,31.79c10.52,5.63,21-2.64,21-2.64,11.15,5.61,19.41-3.81,19.41-3.81s9.42-8.26,3.81-19.41c0,0,8.27-10.5,2.64-21l-31.79-13.35Z"/><path class="cls-3" d="M202.79,252.4c22.57-7.8,22.64-27,22.64-27s19.17-.07,27-22.64c10.45-21.48-3.07-35.08-3.07-35.08s13.52-13.61,3.07-35.09c-7.8-22.57-27-22.63-27-22.63s-.07-19.18-22.64-27c-21.48-10.44-35.08,3.07-35.08,3.07S154.1,72.57,132.62,83C110.05,90.81,110,110,110,110s-19.18.06-27,22.63c-10.44,21.48,3.07,35.09,3.07,35.09S72.57,181.31,83,202.79c7.8,22.57,27,22.64,27,22.64s.06,19.17,22.63,27c21.48,10.45,35.09-3.07,35.09-3.07S181.31,262.85,202.79,252.4Z"/><path class="cls-4" d="M109.91,167.71a57.8,57.8,0,1,1,57.8,57.79A57.87,57.87,0,0,1,109.91,167.71Z"/><circle class="cls-5" cx="167.71" cy="167.71" r="34.09"/><path class="cls-6" d="M122.09,161.79a6,6,0,0,1,6,6h0a6,6,0,0,1-6,6h0a6,6,0,0,1-6-6h0A6,6,0,0,1,122.09,161.79ZM120,148a6,6,0,0,1,7.81-3.23h0a6,6,0,0,1,3.24,7.79h0a6,6,0,0,1-7.81,3.25h0a6,6,0,0,1-3.68-5.52h0A6.09,6.09,0,0,1,120,148Zm3.28,31.69a6,6,0,0,1,7.81,3.23h0a6,6,0,0,1-3.22,7.81h0a6,6,0,0,1-7.81-3.21h0a5.82,5.82,0,0,1-.46-2.29h0A6,6,0,0,1,123.3,179.7Zm7.91-48.45a6,6,0,0,1,8.45,0h0a6,6,0,0,1,0,8.45h0a6,6,0,0,1-8.45,0h0a6,6,0,0,1-1.75-4.25h0A6,6,0,0,1,131.21,131.25Zm.08,64.55a6,6,0,0,1,8.45,0h0a6,6,0,0,1,0,8.45h0a6,6,0,0,1-8.45,0h0a6,6,0,0,1-1.75-4.22h0A6,6,0,0,1,131.29,195.8ZM148,120.05a6,6,0,0,1,7.81,3.23h0a6,6,0,0,1-3.23,7.81h0a6,6,0,0,1-7.81-3.23h0a5.82,5.82,0,0,1-.46-2.29h0A6,6,0,0,1,148,120.05Zm-3.13,87.57a6,6,0,0,1,7.81-3.25h0a6,6,0,0,1,3.25,7.79h0a6,6,0,0,1-7.81,3.27h0a6,6,0,0,1-3.69-5.54h0A6,6,0,0,1,144.82,207.62Zm22.89-91.49a6,6,0,0,1,6,6h0a6,6,0,0,1-6,6h0a6,6,0,0,1-6-6h0A6,6,0,0,1,167.71,116.13Zm.1,91.21a6,6,0,0,1,6,5.95h0a6,6,0,0,1-6,6h0a6,6,0,0,1-6-6h0A6,6,0,0,1,167.81,207.34Zm11.6-84.14a6,6,0,0,1,7.79-3.27h0a6,6,0,0,1,3.27,7.79h0A6,6,0,0,1,182.7,131h0a6,6,0,0,1-3.73-5.54h0A6.14,6.14,0,0,1,179.41,123.2ZM183,204.27a6,6,0,0,1,7.81,3.21h0a6,6,0,0,1-3.2,7.83h0a6,6,0,0,1-7.81-3.21h0a5.94,5.94,0,0,1-.48-2.31h0A6,6,0,0,1,183,204.27Zm12.56-73.18a6,6,0,0,1,8.44,0h0a6,6,0,0,1,0,8.47h0a6,6,0,0,1-8.44,0h0a6,6,0,0,1-1.78-4.27h0A6,6,0,0,1,195.55,131.09Zm.27,64.53a6,6,0,0,1,8.45,0h0a6,6,0,0,1,0,8.45h0a6,6,0,0,1-8.47,0h0a6,6,0,0,1-1.75-4.24h0A6,6,0,0,1,195.82,195.62Zm11.64-51.06a5.94,5.94,0,0,1,7.81,3.19h0a6,6,0,0,1-3.19,7.83h0a6,6,0,0,1-7.83-3.21h0a5.91,5.91,0,0,1-.46-2.31h0A6,6,0,0,1,207.46,144.56Zm-3.07,38.17a6,6,0,0,1,7.79-3.27h0a6,6,0,0,1,3.27,7.81h0a6,6,0,0,1-7.81,3.25h0a6,6,0,0,1-3.71-5.52h0A5.72,5.72,0,0,1,204.39,182.73Zm8.89-21.2a6,6,0,0,1,6,6h0a6,6,0,0,1-5.95,6h0a6,6,0,0,1-6-5.94h0v0h0v0h0A6,6,0,0,1,213.28,161.53Z"/></g></g></svg>