<svg xmlns="http://www.w3.org/2000/svg" viewBox="0 0 267.99 284.69"><defs><style>.cls-1{fill:#298e87;}.cls-2{fill:#374d64;}.cls-3{fill:#9ec4d5;}.cls-4{fill:#529977;}.cls-5{fill:#f1f4e7;}</style></defs><g id="图层_2" data-name="图层 2"><g id="文件图层"><path class="cls-1" d="M112.69,237.18v.06C126.31,253.43,134,270,134,284.69c0-14.71,7.69-31.26,21.3-47.45v-.06c-1.46-16.37-6.1-42.49-21.3-53C118.8,194.69,114.16,220.81,112.69,237.18Z"/><path class="cls-2" d="M96.52,220.75a163,163,0,0,1,16.17,16.43c1.47-16.37,6.11-42.49,21.31-53,15.2,10.54,19.84,36.66,21.3,53a162,162,0,0,1,16.18-16.43c2.07-17.35,2-42.24-15.57-42.92,0,0,1.89-45.79-21.91-45.79h-.06c-23.75,0-21.86,45.79-21.86,45.79C94.56,178.51,94.44,203.4,96.52,220.75Z"/><path class="cls-3" d="M87,212.84q5,3.87,9.52,7.91c-2.07-17.35-2-42.24,15.57-42.92,0,0-1.89-45.79,21.85-45.79H134c23.8,0,21.91,45.79,21.91,45.79,17.52.68,17.64,25.57,15.57,42.92,3-2.64,6.1-5.21,9.4-7.85H181c.61-12.26-.55-25.93-7.08-34.64a22.71,22.71,0,0,0-9.34-7.36c-.37-10.48-2.57-29.36-12.58-39.85A24.44,24.44,0,0,0,134,123.33H134A24.53,24.53,0,0,0,116,131.05c-10,10.49-12.15,29.37-12.52,39.85a22.33,22.33,0,0,0-9.34,7.36C87.63,187,86.41,200.58,87,212.84Z"/><path class="cls-4" d="M64.37,197.45A204.38,204.38,0,0,1,87,212.84c-.61-12.26.61-25.87,7.14-34.58a22.21,22.21,0,0,1,9.34-7.36c.36-10.48,2.56-29.36,12.51-39.85a24.54,24.54,0,0,1,18-7.72H134A24.46,24.46,0,0,1,152,131.05c10,10.49,12.2,29.37,12.57,39.85a22.64,22.64,0,0,1,9.34,7.36c6.53,8.71,7.69,22.38,7.08,34.64a232.58,232.58,0,0,1,22.71-15.51C216,125,181.08,132,181.08,132c0-56-47.06-49-47.06-49a38.88,38.88,0,0,0-4.76-.25c-12,0-42.37,4.42-42.37,49.3C86.89,132,51.92,124.92,64.37,197.45Z"/><path class="cls-5" d="M.55,170.91a245.51,245.51,0,0,1,34.2,11c-12.95-91.29,44-85.22,44-85.22C79.24,35.46,125.53,33,133,33h1s54.7-2.92,55.17,63.69c0,0,57.08-6.07,44,85.22a249.78,249.78,0,0,1,34.32-11c1.22-16.63.35-31.56-2.73-44.63-.58-2.74-1.33-5.42-2.15-8A86.31,86.31,0,0,0,256.2,103a78.23,78.23,0,0,0-11.1-15.81,72.18,72.18,0,0,0-26-18.08A92.76,92.76,0,0,0,204,34.59,81.19,81.19,0,0,0,193.94,23.1C172.16,2.51,145.56.12,135.75,0h-3.49c-9.7.12-36.41,2.51-58.19,23.1-9.35,8.81-20.09,23.39-25.2,46a72.44,72.44,0,0,0-26,18.08C5.31,106.33-2.18,134.45.55,170.91Z"/><path class="cls-1" d="M29.71,180.22a245,245,0,0,1,34.67,17.23C51.93,124.92,86.91,132,86.91,132c0-44.88,30.4-49.3,42.36-49.3A38.88,38.88,0,0,1,134,83S181.1,76.06,181.1,132c0,0,34.91-7,22.58,65.35a261,261,0,0,1,34.55-17.17C252,84.27,192,90.65,192,90.65c-.49-70-58-66.95-58-66.95h-1c-7.88,0-56.53,2.58-57,67C76,90.65,16.1,84.27,29.71,180.22Z"/></g></g></svg>