<svg xmlns="http://www.w3.org/2000/svg" viewBox="0 0 81.04 81.01"><defs><style>.cls-1{fill:#452019;}.cls-2{fill:#529977;}.cls-3{fill:#374d64;}.cls-4{fill:#298e87;}.cls-5{fill:#9ec4d5;}.cls-6{fill:#f1f4e7;}</style></defs><g id="图层_2" data-name="图层 2"><g id="文件图层"><path class="cls-1" d="M.08,69.93V0H69.89V.14a134.31,134.31,0,0,1-11.58,19.4c-.56.9-1.23,1.79-1.9,2.69-1.84,2.51-3.75,5-5.7,7.38l-4,4.64-.33.34q-2.77,3.1-5.71,6-3.11,3.1-6.38,6l-4.64,4c-2.24,1.79-4.47,3.58-6.82,5.25a2.22,2.22,0,0,1-.56.45c-.84.62-1.74,1.29-2.63,1.85A143.28,143.28,0,0,1,.28,69.77C.24,69.87.13,69.87.08,69.93Z"/><path class="cls-2" d="M35,40a16.63,16.63,0,1,0-4.31,26.62,15.78,15.78,0,0,0,2.06-1.23c.37-.25.73-.53,1.07-.81A15.63,15.63,0,0,0,35,63.47,14.84,14.84,0,0,0,36,62.3c.28-.34.55-.69.8-1.06a14.75,14.75,0,0,0,1.23-2.06A16.6,16.6,0,0,0,35,40Z"/><path class="cls-3" d="M32.42,42.51a13,13,0,1,0-3.37,20.84,10.29,10.29,0,0,0,1.61-1q.43-.3.84-.63a10.4,10.4,0,0,0,.92-.84c.29-.29.57-.6.83-.91s.43-.55.63-.84a11.66,11.66,0,0,0,1-1.61A13,13,0,0,0,32.42,42.51Z"/><path class="cls-2" d="M40,35a16.63,16.63,0,1,1,26.62-4.3,13.84,13.84,0,0,1-1.23,2.06c-.25.37-.52.72-.81,1.07s-.69.79-1.06,1.17A14.54,14.54,0,0,1,62.33,36a12.89,12.89,0,0,1-1.07.8,15.17,15.17,0,0,1-2,1.24A16.63,16.63,0,0,1,40,35Z"/><path class="cls-3" d="M42.53,32.41A13,13,0,1,1,63.37,29a10.29,10.29,0,0,1-1,1.61q-.3.44-.63.84a10.4,10.4,0,0,1-.84.92c-.29.29-.6.57-.91.83a10.2,10.2,0,0,1-.84.63,11.66,11.66,0,0,1-1.61,1A13,13,0,0,1,42.53,32.41Z"/><path class="cls-4" d="M.05,81V69.13h0V33a21.85,21.85,0,0,1,16.43,6.25c7.18,7.17,8.12,18.41,3.11,27.7A26.45,26.45,0,0,1,17.65,70c-.4.56-.81,1.09-1.25,1.61s-1.06,1.2-1.63,1.78S13.61,74.49,13,75s-1.06.86-1.62,1.26A22.74,22.74,0,0,1,8.3,78.19,25.7,25.7,0,0,1,.05,81Z"/><path class="cls-2" d="M.05,76.3V69.13h0V37.63A17.16,17.16,0,0,1,13.22,42.5C18.77,48.05,19.7,57,15.53,64.72a19.67,19.67,0,0,1-1.61,2.53l-.05.07c-.29.42-.62.84-1,1.29s-.89,1-1.37,1.49S10.5,71,10,71.45a13.09,13.09,0,0,1-1.3,1l-.08.06a19.76,19.76,0,0,1-2.47,1.56A22.25,22.25,0,0,1,.05,76.3Z"/><path class="cls-5" d="M.05,72.73v-3.6h0v-28A13.8,13.8,0,0,1,10.76,45c4.46,4.46,5.14,11.74,1.71,18.12a17.29,17.29,0,0,1-1.35,2.12l-.07.1c-.26.37-.52.71-.83,1.08s-.76.87-1.17,1.27-.82.79-1.25,1.15a12,12,0,0,1-1.07.82l-.11.09a15.5,15.5,0,0,1-2,1.29A18.66,18.66,0,0,1,.05,72.73Z"/><path class="cls-5" d="M.05,69.12V44.57A10.4,10.4,0,0,1,8.3,47.41c3.36,3.36,3.8,9,1.1,14a13.7,13.7,0,0,1-1.08,1.71l-.09.13c-.22.31-.43.58-.68.87s-.65.68-1,1-.68.65-1,1a3.77,3.77,0,0,1-.82.64l-.15.1a11.87,11.87,0,0,1-1.63,1A15.24,15.24,0,0,1,.05,69.12Z"/><path class="cls-1" d="M.05,65.41V48.07a7,7,0,0,1,5.79,1.8c2.27,2.27,2.47,6.25.5,9.9a11.81,11.81,0,0,1-.82,1.3l-.1.14c-.19.27-.35.46-.53.68s-.49.56-.76.83-.53.51-.8.75l-.58.45L2.57,64a9.71,9.71,0,0,1-1.22.78A11.74,11.74,0,0,1,.05,65.41Z"/><path class="cls-4" d="M81,.05H33a21.87,21.87,0,0,0,6.25,16.44c7.18,7.18,18.42,8.12,27.71,3.11A25.29,25.29,0,0,0,70,17.66c.55-.39,1.08-.8,1.6-1.24a21.21,21.21,0,0,0,1.78-1.64C74,14.22,74.52,13.62,75,13s.86-1.06,1.25-1.61a23.55,23.55,0,0,0,1.94-3.09A25.76,25.76,0,0,0,81,.05Z"/><path class="cls-2" d="M76.33.05H37.64a17.19,17.19,0,0,0,4.84,13.16C48,18.76,57,19.69,64.71,15.52a19.6,19.6,0,0,0,2.53-1.6h.08c.41-.29.84-.62,1.28-1s1-.88,1.49-1.36.93-1,1.36-1.48a10.9,10.9,0,0,0,1-1.31V8.7A17.22,17.22,0,0,0,74,6.22,22,22,0,0,0,76.33.05Z"/><path class="cls-5" d="M72.76.05H41.11A13.74,13.74,0,0,0,45,10.75c4.46,4.46,11.74,5.15,18.12,1.71a19.41,19.41,0,0,0,2.12-1.34l.11-.07c.36-.26.71-.53,1.08-.84s.86-.76,1.26-1.16.79-.82,1.16-1.26a13.1,13.1,0,0,0,.82-1.06l.08-.11a14.11,14.11,0,0,0,1.29-2A19.25,19.25,0,0,0,72.76.05Z"/><path class="cls-5" d="M69.15.05H44.58A10.37,10.37,0,0,0,47.43,8.3c3.36,3.36,9,3.8,14,1.1a15.34,15.34,0,0,0,1.71-1.08l.13-.09c.31-.22.58-.43.87-.68a11.71,11.71,0,0,0,1.06-1c.34-.38.64-.68.94-1a6.49,6.49,0,0,0,.64-.82l.11-.15a12.94,12.94,0,0,0,1-1.63A15.24,15.24,0,0,0,69.15.05Z"/><path class="cls-1" d="M65.48.05H48.09a7,7,0,0,0,1.8,5.79c2.27,2.27,6.25,2.46,9.9.5a13.52,13.52,0,0,0,1.3-.82l.14-.1c.24-.17.46-.35.68-.54a8.39,8.39,0,0,0,.83-.75c.26-.26.51-.54.75-.81a5.24,5.24,0,0,0,.45-.58l.13-.17a10.49,10.49,0,0,0,.78-1.22C65.08.93,65.29.49,65.48.05Z"/><path class="cls-2" d="M38.42,55a79.82,79.82,0,0,1,9.48-1.6c2.89-.33,5-.47,5-.47A101.27,101.27,0,0,1,55,38.41c1.59-6.33.12-20.56-14.81-17.93a18.33,18.33,0,0,1-.36,2.32c-.11.5-.23,1-.37,1.48a19.88,19.88,0,0,1-1.26,3.32h0a9.61,9.61,0,0,1-.56,1.11h0a15.46,15.46,0,0,1-1.08,1.79,21.58,21.58,0,0,1-2.19,2.76c-.18.19-.35.38-.54.56s-.36.36-.55.53a21.75,21.75,0,0,1-2.77,2.2,20.24,20.24,0,0,1-1.79,1.08h0c-.36.2-.73.39-1.11.56h0a20.76,20.76,0,0,1-3.32,1.25c-.49.14-1,.27-1.48.37a20.36,20.36,0,0,1-2.32.37C17.85,55.1,32.09,56.57,38.42,55Z"/><path class="cls-3" d="M22.81,39.81c.5-.1,1-.23,1.48-.37-.4,4,3.44,8.66,7.73,9.59,7.09,1.55,14.09-2.94,14.09-2.94s4.49-7,2.94-14.09c-.94-4.28-5.59-8.12-9.59-7.72.14-.49.26-1,.37-1.48C49,21.8,54.42,31.63,52,39.6a62.17,62.17,0,0,0-2.46,9.89h0A60.09,60.09,0,0,0,39.63,52C31.65,54.41,21.78,48.93,22.81,39.81Z"/><path class="cls-6" d="M24.29,39.41a20.76,20.76,0,0,0,3.32-1.25c0,2.81,2.81,6.1,5.82,6.87,5.11,1.32,10-1.68,10-1.68s3-4.85,1.68-10c-.78-3-4.07-5.84-6.88-5.82a19.88,19.88,0,0,0,1.26-3.32c4-.4,8.65,3.44,9.59,7.72C50.63,39,46.14,46,46.14,46s-7,4.49-14.09,2.94C27.73,48.1,23.89,43.41,24.29,39.41Z"/><path class="cls-1" d="M27.61,38.19c.38-.17.75-.36,1.11-.56a6.61,6.61,0,0,0,4.42,4.53,11.19,11.19,0,0,0,7.73-1.3s2.32-3.77,1.3-7.73a6.59,6.59,0,0,0-4.53-4.42,9.61,9.61,0,0,0,.56-1.11c2.81,0,6.1,2.81,6.88,5.82,1.31,5.11-1.68,10-1.68,10s-4.86,3-10,1.68C30.42,44.29,27.59,41,27.61,38.19Z"/><path class="cls-6" d="M28.72,37.63a20.24,20.24,0,0,0,1.79-1.08,4.45,4.45,0,0,0,2.9,2.86,4.49,4.49,0,0,0,6-6,4.39,4.39,0,0,0-2.86-2.9,15.46,15.46,0,0,0,1.08-1.79,6.59,6.59,0,0,1,4.53,4.42,11.19,11.19,0,0,1-1.3,7.73s-3.77,2.32-7.73,1.29A6.6,6.6,0,0,1,28.72,37.63Z"/><path class="cls-3" d="M30.48,36.55a21.75,21.75,0,0,0,2.77-2.2c.19-.17.37-.35.55-.53l.54-.56a21.58,21.58,0,0,0,2.19-2.76,4.39,4.39,0,0,1,2.86,2.9,4.49,4.49,0,0,1-6,6A4.41,4.41,0,0,1,30.48,36.55Z"/><path class="cls-2" d="M.05,53.17V49.41a13.44,13.44,0,0,0,7.56-1.36,9.71,9.71,0,0,0,1.67-1,9.05,9.05,0,0,0,.87-.66c.35-.27.68-.56,1-.86a7.75,7.75,0,0,0,.86-1c.27-.38.45-.57.65-.86l.37-.54a36.54,36.54,0,0,0,3.7,1.1,16.18,16.18,0,0,1-1,1.58,11.54,11.54,0,0,1-.84,1.11c-.34.42-.71.82-1.09,1.21a16.21,16.21,0,0,1-1.23,1.11,12.67,12.67,0,0,1-1.1.83,14.42,14.42,0,0,1-2.19,1.34A17.23,17.23,0,0,1,.05,53.17Z"/><path class="cls-2" d="M.05,24.25V20.41h0c.26-.18.52-.37.76-.57s.57-.5.83-.76.52-.54.76-.83A7.09,7.09,0,0,0,3,17.49,10.18,10.18,0,0,0,3.84,16a10.76,10.76,0,0,0,.67-1.65,11.08,11.08,0,0,0,.56-2.85,11.42,11.42,0,0,0-.26-3.4,7.08,7.08,0,0,0-.28-1,11.52,11.52,0,0,0-1-2.24c.23-.2.45-.41.66-.62s.4-.41.59-.63h0l.41-.48c.2-.25.4-.5.59-.76A15.88,15.88,0,0,1,6.71,4q.17.31.3.63a14.09,14.09,0,0,1,1.1,3.63,14.93,14.93,0,0,1-.22,6.1,13.69,13.69,0,0,1-.74,2.27c-.13.31-.27.63-.43.93A13.6,13.6,0,0,1,5.6,19.44c-.23.33-.47.65-.73,1a14.54,14.54,0,0,1-2,2,12.2,12.2,0,0,1-1,.73A13.6,13.6,0,0,1,0,24.29.07.07,0,0,0,.05,24.25Z"/><path class="cls-3" d="M.05,20.41V7.28h0a14,14,0,0,0,2-1.21l.27-.19h.06l.7-.55.48-.41a11.52,11.52,0,0,1,1,2.24,7.08,7.08,0,0,1,.28,1,11.42,11.42,0,0,1,.26,3.4,11.08,11.08,0,0,1-.56,2.85,10.76,10.76,0,0,1-.67,1.65A10.18,10.18,0,0,1,3,17.51a7.09,7.09,0,0,1-.56.76c-.24.29-.5.57-.76.83s-.54.52-.83.76-.5.39-.76.57Z"/><path class="cls-2" d="M2.35,5.87h.06l.7-.55.48-.41c.23-.2.45-.41.66-.62s.4-.41.59-.63h0a11.43,11.43,0,0,0,2.23,1c.33.11.68.2,1,.28a11.62,11.62,0,0,0,3.43.26,10.76,10.76,0,0,0,2.86-.57A9.59,9.59,0,0,0,16,4a9.43,9.43,0,0,0,1.46-.88,8.26,8.26,0,0,0,.76-.56c.29-.24.56-.5.83-.76A10,10,0,0,0,19.8.94c.24-.29.39-.5.57-.76v0h3.8a0,0,0,0,0,0,0,13.6,13.6,0,0,1-1.12,1.87,12.2,12.2,0,0,1-.73,1,11,11,0,0,1-1,1.06l-1.06,1a10.13,10.13,0,0,1-1,.72A12.64,12.64,0,0,1,17.4,7q-.45.23-.93.42a13.78,13.78,0,0,1-2.25.74,15.82,15.82,0,0,1-6.13.23,15.37,15.37,0,0,1-3.63-1.1c-.21-.1-.43-.2-.63-.31A12.94,12.94,0,0,1,2.35,5.87Z"/><path class="cls-3" d="M4.88,3.59l.41-.48c.2-.25.4-.5.59-.76.07-.1.14-.19.19-.28a13.08,13.08,0,0,0,1.2-2H20.48v0c-.18.26-.37.52-.57.76s-.5.57-.76.83-.54.52-.83.76a8.26,8.26,0,0,1-.76.56,9.43,9.43,0,0,1-1.46.88,9.59,9.59,0,0,1-1.63.66,10.76,10.76,0,0,1-2.86.57,11.62,11.62,0,0,1-3.43-.26,9.73,9.73,0,0,1-1-.28A11.48,11.48,0,0,1,4.88,3.59Z"/><path class="cls-2" d="M3.82,34.31c-.23-.23-.45-.46-.67-.7a20.68,20.68,0,0,1-3.1-4.38V28a17.87,17.87,0,0,1,2.37-2.9A18.89,18.89,0,0,1,5,22.9a18,18,0,0,1,4.48-2.26,18.62,18.62,0,0,1,10.76-.42,18.52,18.52,0,0,1,4.83-17.8A17.87,17.87,0,0,1,28,.05h1.28A21.47,21.47,0,0,1,40.48,21.32a17,17,0,0,1-.36,2.25A12.28,12.28,0,0,1,39.76,25a19.66,19.66,0,0,1-1.22,3.23A9.14,9.14,0,0,1,38,29.33a16.81,16.81,0,0,1-1,1.75,22.15,22.15,0,0,1-2.14,2.69l-.52.54-.55.52A21.22,21.22,0,0,1,31.09,37,15.46,15.46,0,0,1,29.35,38c-.36.2-.72.39-1.09.55A19.66,19.66,0,0,1,25,39.79c-.47.14-1,.26-1.45.36s-.89.18-1.36.24c-.29,0-.59.09-.89.12a20.73,20.73,0,0,1-3.15.09,19.85,19.85,0,0,1-3.76-.48A21.44,21.44,0,0,1,3.82,34.31Z"/><path class="cls-6" d="M4.56,14.41A22.07,22.07,0,0,1,.07,7.28a14,14,0,0,0,2-1.21,21.54,21.54,0,0,0,3,5.49,14.17,14.17,0,0,0,2.87,2.76,11.59,11.59,0,0,0,8.37,2,11.43,11.43,0,0,0-2-8.37,13.71,13.71,0,0,0-2.78-2.86A21.4,21.4,0,0,0,6,2a13.08,13.08,0,0,0,1.2-2,22.05,22.05,0,0,1,7.15,4.49,15.22,15.22,0,0,1,2.17,2.69,14.18,14.18,0,0,1,1.72,11h0a14.17,14.17,0,0,1-11-1.72A14.57,14.57,0,0,1,4.56,14.41Z"/><path class="cls-3" d="M4.86,8.15A13.86,13.86,0,0,1,4,6.8a15,15,0,0,1-.84-1.52l.48-.41c.23-.2.45-.41.66-.62s.4-.41.59-.63h0l.41-.48c.54.27,1.06.55,1.52.84a11.9,11.9,0,0,1,1.32.91,14,14,0,0,1,3.28,3.53,12,12,0,0,1,1.88,4.89,11.84,11.84,0,0,1-4.88-1.87A13.91,13.91,0,0,1,4.86,8.15Z"/><path class="cls-2" d="M5.12,11.55a21.54,21.54,0,0,1-3-5.49l.27-.19h.06c.24-.18.48-.36.7-.55A15,15,0,0,0,4,6.84,13.86,13.86,0,0,0,4.9,8.19a14,14,0,0,0,3.55,3.26,11.84,11.84,0,0,0,4.88,1.87,12,12,0,0,0-1.88-4.89A14,14,0,0,0,8.17,4.9,11.9,11.9,0,0,0,6.85,4c-.46-.29-1-.57-1.52-.84.2-.25.4-.5.59-.76.07-.1.14-.19.19-.28A21.4,21.4,0,0,1,11.6,5.16,13.71,13.71,0,0,1,14.38,8a11.43,11.43,0,0,1,2,8.37,11.59,11.59,0,0,1-8.37-2A14.14,14.14,0,0,1,5.12,11.55Z"/><path class="cls-3" d="M3.15,33.61c.77,5.14,5.51,8,9.84,9.57l-.37.54c-.2.29-.42.58-.65.86s-.56.65-.86,1-.65.59-1,.86a9.05,9.05,0,0,1-.87.66,9.71,9.71,0,0,1-1.67,1A13.44,13.44,0,0,1,0,49.46V29.23A20.86,20.86,0,0,0,3.15,33.61Z"/><path class="cls-2" d="M53.19.05H49.48a13.54,13.54,0,0,1-1.36,7.56,11.35,11.35,0,0,1-1,1.67c-.2.29-.43.59-.66.87s-.56.68-.86,1a8.49,8.49,0,0,1-1,.86c-.37.27-.56.45-.86.66L43.2,13a32,32,0,0,1,1.1,3.7,16.33,16.33,0,0,0,1.59-1,12.78,12.78,0,0,0,1.1-.84,12.75,12.75,0,0,0,1.22-1.1,15.93,15.93,0,0,0,1.1-1.22,12.78,12.78,0,0,0,.84-1.1,16,16,0,0,0,1.28-2.15A17.29,17.29,0,0,0,53.19.05Z"/><path class="cls-3" d="M33.63,3.15c5.13.76,8,5.51,9.56,9.83l.54-.36c.3-.21.59-.43.86-.66l1-.86c.3-.32.59-.65.86-1s.46-.58.66-.87a11.35,11.35,0,0,0,1-1.67A13.54,13.54,0,0,0,49.47,0H29.24A20.61,20.61,0,0,1,33.63,3.15Z"/><path class="cls-6" d="M45,20.41S43.29,3.41,32.53,3c-8.46-.3-11,9.11-8.72,15.91a6.25,6.25,0,0,0,4.63,4.14C31.7,23.77,37.4,24,45,20.41Z"/><path class="cls-6" d="M3.15,33.61c0-.35-.08-.72-.1-1.09A8.38,8.38,0,0,1,8.18,24.2,13.68,13.68,0,0,1,13,23a15.85,15.85,0,0,1,6,.76,6.23,6.23,0,0,1,4.14,4.63,23.75,23.75,0,0,1-.88,12A33.47,33.47,0,0,1,20.46,45a31.82,31.82,0,0,1-3.76-.67h0a36.54,36.54,0,0,1-3.7-1.1C8.66,41.62,3.92,38.75,3.15,33.61Z"/></g></g></svg>