<svg xmlns="http://www.w3.org/2000/svg" viewBox="0 0 286.41 348.67"><defs><style>.cls-1{fill:#298e87;}.cls-2{fill:#f1f4e7;}.cls-3{fill:#529977;}.cls-4{fill:#374d64;}</style></defs><g id="图层_2" data-name="图层 2"><g id="文件图层"><path class="cls-1" d="M230,91.58A42.79,42.79,0,0,0,181,34a38.34,38.34,0,0,0-76.2.13A42.8,42.8,0,0,0,56,91.88,143.2,143.2,0,1,0,230,91.58Z"/><path class="cls-2" d="M142.9,26.6c17.56,0,32.28,12.16,35.62,28a40.92,40.92,0,0,1,8.11-.53c20.88.71,38,17.14,39.59,37.47a39.09,39.09,0,0,1-1.39,13.68A130.93,130.93,0,1,1,12.18,207.65,130.14,130.14,0,0,1,61.23,105.52,39.09,39.09,0,0,1,59.8,91.84C61.28,71.51,78.38,55,99.27,54.23a40.78,40.78,0,0,1,8.09.5C110.65,38.87,125.33,26.63,142.9,26.6Z"/><path class="cls-3" d="M143,53.21c15.39,0,28.57,9.46,33.07,22a40.89,40.89,0,0,1,7.09,0c18.11,1.47,33.2,15.18,36.26,32.16a36.61,36.61,0,0,1,.25,11.55,117.51,117.51,0,0,1,42.45,90.34,118.86,118.86,0,1,1-237.71.4,117.48,117.48,0,0,1,42.12-90.46,36.63,36.63,0,0,1,.21-11.56c3-17,18-30.76,36.16-32.29a39.48,39.48,0,0,1,7.05,0C114.38,62.77,127.54,53.23,143,53.21Z"/><path class="cls-4" d="M143,79.81c13.22,0,24.86,6.77,30.53,16a43.41,43.41,0,0,1,6.07.45c15.34,2.22,28.36,13.21,32.93,26.85a37.87,37.87,0,0,1,1.9,9.43,105.08,105.08,0,0,1,35.48,78.69,106.69,106.69,0,1,1-213.37.37,105.06,105.06,0,0,1,35.2-78.79,37.87,37.87,0,0,1,1.85-9.44c4.53-13.66,17.52-24.7,32.86-27a41,41,0,0,1,6-.45C118.11,86.67,129.75,79.83,143,79.81Z"/><path class="cls-2" d="M143,106.41a43.34,43.34,0,0,1,28,10,47.82,47.82,0,0,1,34.65,22.47,48.72,48.72,0,0,1,3.53,7.3,93.21,93.21,0,0,1,28.52,67.06,94.51,94.51,0,1,1-189,.32A93.16,93.16,0,0,1,77,146.42a48.57,48.57,0,0,1,3.5-7.31A47.79,47.79,0,0,1,110,117.43a48.46,48.46,0,0,1,5-.92A43.5,43.5,0,0,1,143,106.41Z"/></g></g></svg>