<svg xmlns="http://www.w3.org/2000/svg" xmlns:xlink="http://www.w3.org/1999/xlink" viewBox="0 0 738.01 53.49"><defs><style>.cls-1{fill:none;}.cls-2{fill:#005737;}.cls-3{clip-path:url(#clip-path);}.cls-4{fill:#4b2928;stroke:#2f0000;stroke-miterlimit:10;}.cls-5{fill:#925841;}.cls-6{fill:#6a3526;}.cls-7{fill:#2a4c59;}</style><clipPath id="clip-path" transform="translate(0 6.8)"><polygon class="cls-1" points="0 39.18 39.18 0 698.12 0 738.01 39.89 0 39.18"/></clipPath></defs><g id="图层_2" data-name="图层 2"><g id="文件图层"><polygon class="cls-2" points="0 45.98 39.18 6.8 698.12 6.8 738.01 46.69 0 45.98"/><g class="cls-3"><path class="cls-4" d="M13.26,26.32a3.58,3.58,0,0,0,5.43,3.94,3.57,3.57,0,0,0,6.7,0,3.58,3.58,0,0,0,5.43-3.94,3.58,3.58,0,0,0,2.07-6.38,3.58,3.58,0,0,0-2.07-6.37,3.59,3.59,0,0,0-5.43-4,3.58,3.58,0,0,0-6.7,0,3.59,3.59,0,0,0-5.43,4,3.57,3.57,0,0,0-2.07,6.37,3.58,3.58,0,0,0,2.07,6.38Z" transform="translate(0 6.8)"/><path class="cls-5" d="M23.47,21.73c1.78,1,4,3.22,3.29,4.64a2.12,2.12,0,0,1-2.21,1.31,2.12,2.12,0,0,1-2.56.24c-1.36-.76-.89-3.8-.06-5.69Z" transform="translate(0 6.8)"/><path class="cls-5" d="M24.18,19.14c1.54-1.38,4.28-2.76,5.43-1.7a2.11,2.11,0,0,1,.56,2.5,2.13,2.13,0,0,1-.56,2.51c-1.15,1.06-3.89-.32-5.43-1.7Z" transform="translate(0 6.8)"/><path class="cls-5" d="M21.93,17.66c-.83-1.89-1.3-4.93.06-5.69a2.12,2.12,0,0,1,2.56.24,2.12,2.12,0,0,1,2.21,1.31c.66,1.42-1.51,3.6-3.29,4.64Z" transform="translate(0 6.8)"/><path class="cls-5" d="M19.83,19.34c-2,.21-5.09-.29-5.39-1.81a2.13,2.13,0,0,1,1-2.37,2.11,2.11,0,0,1,1.93-1.69c1.55-.19,2.95,2.54,3.39,4.56Z" transform="translate(0 6.8)"/><path class="cls-5" d="M20.78,21.86c-.44,2-1.84,4.75-3.39,4.56a2.11,2.11,0,0,1-1.93-1.69,2.13,2.13,0,0,1-1-2.37c.3-1.52,3.34-2,5.39-1.81Z" transform="translate(0 6.8)"/><circle class="cls-6" cx="22.04" cy="26.74" r="3.44"/><circle class="cls-7" cx="22.04" cy="26.74" r="1.65"/><path class="cls-4" d="M79.07,7.92a3.6,3.6,0,0,0-3.91,1.17,3.58,3.58,0,0,0-6.37,2.08,3.58,3.58,0,0,0-4,5.42,3.59,3.59,0,0,0,0,6.71,3.58,3.58,0,0,0,4,5.42,3.58,3.58,0,0,0,6.37,2.08,3.58,3.58,0,0,0,6.38-2.08,3.58,3.58,0,0,0,3.94-5.42,3.58,3.58,0,0,0,0-6.71,3.58,3.58,0,0,0-3.94-5.42A3.6,3.6,0,0,0,79.07,7.92Z" transform="translate(0 6.8)"/><path class="cls-5" d="M77,21.38c1,1.78,3.22,3.94,4.63,3.29a2.13,2.13,0,0,0,1.32-2.21,2.12,2.12,0,0,0,.24-2.56c-.76-1.36-3.8-.9-5.69-.06Z" transform="translate(0 6.8)"/><path class="cls-5" d="M74.35,22.09c-1.37,1.54-2.75,4.28-1.7,5.42a2.12,2.12,0,0,0,2.51.57,2.12,2.12,0,0,0,2.51-.57c1.06-1.14-.32-3.88-1.7-5.42Z" transform="translate(0 6.8)"/><path class="cls-5" d="M72.87,19.84C71,19,68,18.54,67.19,19.9a2.12,2.12,0,0,0,.24,2.56,2.13,2.13,0,0,0,1.31,2.21c1.41.65,3.6-1.51,4.63-3.29Z" transform="translate(0 6.8)"/><path class="cls-5" d="M74.56,17.73c.21-2.05-.29-5.08-1.81-5.38a2.12,2.12,0,0,0-2.37,1,2.12,2.12,0,0,0-1.69,1.94c-.19,1.54,2.54,2.95,4.56,3.39Z" transform="translate(0 6.8)"/><path class="cls-5" d="M77.08,18.69c2-.44,4.75-1.85,4.56-3.39a2.12,2.12,0,0,0-1.7-1.94,2.11,2.11,0,0,0-2.36-1c-1.53.3-2,3.33-1.81,5.38Z" transform="translate(0 6.8)"/><circle class="cls-6" cx="75.16" cy="26.74" r="3.44"/><circle class="cls-7" cx="75.16" cy="26.74" r="1.65"/><path class="cls-4" d="M52.07,21.4a3.59,3.59,0,0,0-3.91,1.18,3.57,3.57,0,0,0-6.37,2.07,3.59,3.59,0,0,0-3.95,5.42,3.59,3.59,0,0,0,0,6.71,3.59,3.59,0,0,0,3.95,5.43,3.58,3.58,0,0,0,6.37,2.07,3.58,3.58,0,0,0,6.38-2.07,3.59,3.59,0,0,0,4-5.43,3.59,3.59,0,0,0,0-6.71,3.59,3.59,0,0,0-4-5.42A3.58,3.58,0,0,0,52.07,21.4Z" transform="translate(0 6.8)"/><path class="cls-5" d="M50,34.86c1,1.78,3.22,4,4.64,3.29a2.12,2.12,0,0,0,1.31-2.21,2.12,2.12,0,0,0,.24-2.56c-.76-1.36-3.8-.89-5.69-.06Z" transform="translate(0 6.8)"/><path class="cls-5" d="M47.36,35.57C46,37.11,44.6,39.85,45.66,41a2.1,2.1,0,0,0,2.5.57A2.12,2.12,0,0,0,50.67,41c1.06-1.14-.32-3.88-1.7-5.42Z" transform="translate(0 6.8)"/><path class="cls-5" d="M45.88,33.32C44,32.49,41,32,40.19,33.38a2.12,2.12,0,0,0,.24,2.56,2.12,2.12,0,0,0,1.31,2.21c1.42.66,3.6-1.51,4.64-3.29Z" transform="translate(0 6.8)"/><path class="cls-5" d="M47.56,31.22c.21-2.06-.29-5.09-1.81-5.39a2.13,2.13,0,0,0-2.37,1,2.11,2.11,0,0,0-1.69,1.93c-.19,1.55,2.54,2.95,4.56,3.39Z" transform="translate(0 6.8)"/><path class="cls-5" d="M50.08,32.17c2-.44,4.75-1.84,4.56-3.39A2.11,2.11,0,0,0,53,26.85a2.13,2.13,0,0,0-2.37-1c-1.52.3-2,3.33-1.81,5.39Z" transform="translate(0 6.8)"/><circle class="cls-6" cx="48.16" cy="40.23" r="3.44"/><circle class="cls-7" cx="48.16" cy="40.23" r="1.65"/><path class="cls-4" d="M54.54,15.24a3.59,3.59,0,0,0,4-5.43,3.58,3.58,0,0,0,0-6.7,3.59,3.59,0,0,0-4-5.43,3.56,3.56,0,0,0-2.47-3.24,3.58,3.58,0,0,0-3.91,1.17,3.56,3.56,0,0,0-3.9-1.17,3.56,3.56,0,0,0-2.47,3.24,3.59,3.59,0,0,0-3.95,5.43,3.58,3.58,0,0,0,0,6.7,3.59,3.59,0,0,0,3.95,5.43,3.58,3.58,0,0,0,6.37,2.07,3.58,3.58,0,0,0,6.38-2.07Z" transform="translate(0 6.8)"/><path class="cls-5" d="M50,5c1-1.78,3.22-3.95,4.64-3.29A2.12,2.12,0,0,1,55.9,4a2.12,2.12,0,0,1,.24,2.56c-.76,1.36-3.8.89-5.69.06Z" transform="translate(0 6.8)"/><path class="cls-5" d="M47.36,4.32C46,2.78,44.6,0,45.66-1.11a2.11,2.11,0,0,1,2.5-.56,2.13,2.13,0,0,1,2.51.56C51.73,0,50.35,2.78,49,4.32Z" transform="translate(0 6.8)"/><path class="cls-5" d="M45.88,6.57C44,7.4,41,7.87,40.19,6.51A2.12,2.12,0,0,1,40.43,4a2.12,2.12,0,0,1,1.31-2.21c1.42-.66,3.6,1.51,4.64,3.29Z" transform="translate(0 6.8)"/><path class="cls-5" d="M47.56,8.67c.21,2.05-.29,5.09-1.81,5.39a2.13,2.13,0,0,1-2.37-1,2.11,2.11,0,0,1-1.69-1.93c-.19-1.55,2.54-2.95,4.56-3.39Z" transform="translate(0 6.8)"/><path class="cls-5" d="M50.08,7.72c2,.44,4.75,1.84,4.56,3.39A2.11,2.11,0,0,1,53,13a2.13,2.13,0,0,1-2.37,1c-1.52-.3-2-3.34-1.81-5.39Z" transform="translate(0 6.8)"/><circle class="cls-6" cx="48.16" cy="13.26" r="3.44"/><circle class="cls-7" cx="48.16" cy="13.26" r="1.65"/><path class="cls-4" d="M132.2,7.92a3.6,3.6,0,0,0-3.91,1.17,3.58,3.58,0,0,0-6.38,2.08A3.58,3.58,0,0,0,118,16.59a3.59,3.59,0,0,0,0,6.71,3.58,3.58,0,0,0,3.94,5.42,3.58,3.58,0,0,0,6.38,2.08,3.58,3.58,0,0,0,6.38-2.08,3.58,3.58,0,0,0,3.94-5.42,3.59,3.59,0,0,0,0-6.71,3.58,3.58,0,0,0-3.94-5.42A3.6,3.6,0,0,0,132.2,7.92Z" transform="translate(0 6.8)"/><path class="cls-5" d="M130.08,21.38c1,1.78,3.22,3.94,4.63,3.29A2.11,2.11,0,0,0,136,22.46a2.12,2.12,0,0,0,.24-2.56c-.76-1.36-3.79-.9-5.68-.06Z" transform="translate(0 6.8)"/><path class="cls-5" d="M127.48,22.09c-1.38,1.54-2.76,4.28-1.7,5.42a2.12,2.12,0,0,0,2.51.57,2.12,2.12,0,0,0,2.51-.57c1.06-1.14-.33-3.88-1.7-5.42Z" transform="translate(0 6.8)"/><path class="cls-5" d="M126,19.84c-1.89-.84-4.93-1.3-5.68.06a2.13,2.13,0,0,0,.23,2.56,2.13,2.13,0,0,0,1.32,2.21c1.41.65,3.59-1.51,4.63-3.29Z" transform="translate(0 6.8)"/><path class="cls-5" d="M127.68,17.73c.21-2.05-.28-5.08-1.81-5.38a2.11,2.11,0,0,0-2.36,1,2.13,2.13,0,0,0-1.7,1.94c-.18,1.54,2.55,2.95,4.56,3.39Z" transform="translate(0 6.8)"/><path class="cls-5" d="M130.2,18.69c2-.44,4.75-1.85,4.57-3.39a2.13,2.13,0,0,0-1.7-1.94,2.11,2.11,0,0,0-2.36-1c-1.53.3-2,3.33-1.82,5.38Z" transform="translate(0 6.8)"/><circle class="cls-6" cx="128.29" cy="26.74" r="3.44"/><circle class="cls-7" cx="128.29" cy="26.74" r="1.65"/><path class="cls-4" d="M105.63,21.4a3.57,3.57,0,0,0-3.9,1.18,3.58,3.58,0,0,0-6.38,2.07,3.58,3.58,0,0,0-3.94,5.42,3.58,3.58,0,0,0,0,6.71,3.58,3.58,0,0,0,3.94,5.43,3.58,3.58,0,0,0,6.38,2.07,3.58,3.58,0,0,0,6.37-2.07,3.59,3.59,0,0,0,4-5.43,3.59,3.59,0,0,0,0-6.71,3.59,3.59,0,0,0-4-5.42A3.58,3.58,0,0,0,105.63,21.4Z" transform="translate(0 6.8)"/><path class="cls-5" d="M103.51,34.86c1,1.78,3.22,4,4.64,3.29a2.12,2.12,0,0,0,1.31-2.21,2.12,2.12,0,0,0,.24-2.56c-.76-1.36-3.8-.89-5.68-.06Z" transform="translate(0 6.8)"/><path class="cls-5" d="M100.92,35.57c-1.38,1.54-2.76,4.28-1.7,5.42a2.12,2.12,0,0,0,2.51.57,2.1,2.1,0,0,0,2.5-.57c1.06-1.14-.32-3.88-1.69-5.42Z" transform="translate(0 6.8)"/><path class="cls-5" d="M99.44,33.32c-1.89-.83-4.93-1.3-5.69.06A2.12,2.12,0,0,0,94,35.94a2.12,2.12,0,0,0,1.31,2.21c1.42.66,3.6-1.51,4.64-3.29Z" transform="translate(0 6.8)"/><path class="cls-5" d="M101.12,31.22c.21-2.06-.28-5.09-1.81-5.39a2.13,2.13,0,0,0-2.36,1,2.12,2.12,0,0,0-1.7,1.93c-.19,1.55,2.54,2.95,4.56,3.39Z" transform="translate(0 6.8)"/><path class="cls-5" d="M103.64,32.17c2-.44,4.75-1.84,4.56-3.39a2.11,2.11,0,0,0-1.69-1.93,2.13,2.13,0,0,0-2.37-1c-1.52.3-2,3.33-1.81,5.39Z" transform="translate(0 6.8)"/><circle class="cls-6" cx="101.73" cy="40.23" r="3.44"/><circle class="cls-7" cx="101.73" cy="40.23" r="1.65"/><path class="cls-4" d="M108.1,15.24a3.59,3.59,0,0,0,4-5.43,3.58,3.58,0,0,0,0-6.7,3.59,3.59,0,0,0-4-5.43,3.56,3.56,0,0,0-2.47-3.24,3.56,3.56,0,0,0-3.9,1.17,3.58,3.58,0,0,0-3.91-1.17,3.57,3.57,0,0,0-2.47,3.24,3.58,3.58,0,0,0-3.94,5.43,3.57,3.57,0,0,0,0,6.7,3.58,3.58,0,0,0,3.94,5.43,3.58,3.58,0,0,0,6.38,2.07,3.58,3.58,0,0,0,6.37-2.07Z" transform="translate(0 6.8)"/><path class="cls-5" d="M103.51,5c1-1.78,3.22-3.95,4.64-3.29A2.12,2.12,0,0,1,109.46,4a2.12,2.12,0,0,1,.24,2.56c-.76,1.36-3.8.89-5.68.06Z" transform="translate(0 6.8)"/><path class="cls-5" d="M100.92,4.32C99.54,2.78,98.16,0,99.22-1.11a2.13,2.13,0,0,1,2.51-.56,2.11,2.11,0,0,1,2.5.56c1.06,1.15-.32,3.89-1.69,5.43Z" transform="translate(0 6.8)"/><path class="cls-5" d="M99.44,6.57c-1.89.83-4.93,1.3-5.69-.06A2.12,2.12,0,0,1,94,4,2.12,2.12,0,0,1,95.3,1.74c1.42-.66,3.6,1.51,4.64,3.29Z" transform="translate(0 6.8)"/><path class="cls-5" d="M101.12,8.67c.21,2.05-.28,5.09-1.81,5.39A2.13,2.13,0,0,1,97,13a2.12,2.12,0,0,1-1.7-1.93c-.19-1.55,2.54-2.95,4.56-3.39Z" transform="translate(0 6.8)"/><path class="cls-5" d="M103.64,7.72c2,.44,4.75,1.84,4.56,3.39A2.11,2.11,0,0,1,106.51,13a2.13,2.13,0,0,1-2.37,1c-1.52-.3-2-3.34-1.81-5.39Z" transform="translate(0 6.8)"/><circle class="cls-6" cx="101.73" cy="13.26" r="3.44"/><circle class="cls-7" cx="101.73" cy="13.26" r="1.65"/><path class="cls-4" d="M185.32,7.92a3.6,3.6,0,0,0-3.91,1.17A3.58,3.58,0,0,0,175,11.17a3.58,3.58,0,0,0-3.95,5.42,3.59,3.59,0,0,0,0,6.71A3.58,3.58,0,0,0,175,28.72a3.58,3.58,0,0,0,6.37,2.08,3.58,3.58,0,0,0,6.38-2.08,3.58,3.58,0,0,0,3.94-5.42,3.58,3.58,0,0,0,0-6.71,3.58,3.58,0,0,0-3.94-5.42A3.6,3.6,0,0,0,185.32,7.92Z" transform="translate(0 6.8)"/><path class="cls-5" d="M183.2,21.38c1,1.78,3.22,3.94,4.63,3.29a2.13,2.13,0,0,0,1.32-2.21,2.12,2.12,0,0,0,.24-2.56c-.76-1.36-3.8-.9-5.69-.06Z" transform="translate(0 6.8)"/><path class="cls-5" d="M180.6,22.09c-1.37,1.54-2.75,4.28-1.7,5.42a5.81,5.81,0,0,0,5,0c1.06-1.14-.32-3.88-1.7-5.42Z" transform="translate(0 6.8)"/><path class="cls-5" d="M179.12,19.84c-1.88-.84-4.92-1.3-5.68.06a2.12,2.12,0,0,0,.24,2.56A2.13,2.13,0,0,0,175,24.67c1.41.65,3.6-1.51,4.63-3.29Z" transform="translate(0 6.8)"/><path class="cls-5" d="M180.81,17.73c.21-2.05-.29-5.08-1.81-5.38a2.12,2.12,0,0,0-2.37,1,2.12,2.12,0,0,0-1.69,1.94c-.19,1.54,2.54,2.95,4.56,3.39Z" transform="translate(0 6.8)"/><path class="cls-5" d="M183.33,18.69c2-.44,4.75-1.85,4.56-3.39a2.12,2.12,0,0,0-1.7-1.94,2.11,2.11,0,0,0-2.36-1c-1.53.3-2,3.33-1.81,5.38Z" transform="translate(0 6.8)"/><circle class="cls-6" cx="181.41" cy="26.74" r="3.44"/><circle class="cls-7" cx="181.41" cy="26.74" r="1.65"/><path class="cls-4" d="M158.76,21.4a3.59,3.59,0,0,0-3.91,1.18,3.58,3.58,0,0,0-6.38,2.07,3.58,3.58,0,0,0-3.94,5.42,3.59,3.59,0,0,0,0,6.71,3.58,3.58,0,0,0,3.94,5.43,3.58,3.58,0,0,0,6.38,2.07,3.58,3.58,0,0,0,6.38-2.07,3.58,3.58,0,0,0,3.94-5.43,3.59,3.59,0,0,0,0-6.71,3.58,3.58,0,0,0-3.94-5.42A3.6,3.6,0,0,0,158.76,21.4Z" transform="translate(0 6.8)"/><path class="cls-5" d="M156.64,34.86c1,1.78,3.22,4,4.63,3.29a2.12,2.12,0,0,0,1.32-2.21,2.12,2.12,0,0,0,.23-2.56c-.76-1.36-3.79-.89-5.68-.06Z" transform="translate(0 6.8)"/><path class="cls-5" d="M154,35.57c-1.37,1.54-2.76,4.28-1.7,5.42a2.12,2.12,0,0,0,2.51.57,2.12,2.12,0,0,0,2.51-.57c1.06-1.14-.32-3.88-1.7-5.42Z" transform="translate(0 6.8)"/><path class="cls-5" d="M152.56,33.32c-1.89-.83-4.92-1.3-5.68.06a2.12,2.12,0,0,0,.24,2.56,2.11,2.11,0,0,0,1.31,2.21c1.41.66,3.59-1.51,4.63-3.29Z" transform="translate(0 6.8)"/><path class="cls-5" d="M154.25,31.22c.2-2.06-.29-5.09-1.82-5.39a2.13,2.13,0,0,0-2.36,1,2.13,2.13,0,0,0-1.7,1.93c-.18,1.55,2.55,2.95,4.57,3.39Z" transform="translate(0 6.8)"/><path class="cls-5" d="M156.77,32.17c2-.44,4.74-1.84,4.56-3.39a2.13,2.13,0,0,0-1.7-1.93,2.13,2.13,0,0,0-2.36-1c-1.53.3-2,3.33-1.81,5.39Z" transform="translate(0 6.8)"/><circle class="cls-6" cx="154.85" cy="40.23" r="3.44"/><circle class="cls-7" cx="154.85" cy="40.23" r="1.65"/><path class="cls-4" d="M161.23,15.24a3.58,3.58,0,0,0,3.94-5.43,3.58,3.58,0,0,0,0-6.7,3.58,3.58,0,0,0-3.94-5.43,3.57,3.57,0,0,0-2.47-3.24,3.58,3.58,0,0,0-3.91,1.17,3.58,3.58,0,0,0-3.91-1.17,3.57,3.57,0,0,0-2.47,3.24A3.6,3.6,0,0,0,144.62-1a3.59,3.59,0,0,0-.09,4.08,3.58,3.58,0,0,0,0,6.7,3.58,3.58,0,0,0,3.94,5.43,3.58,3.58,0,0,0,6.38,2.07,3.58,3.58,0,0,0,6.38-2.07Z" transform="translate(0 6.8)"/><path class="cls-5" d="M156.64,5c1-1.78,3.22-3.95,4.63-3.29A2.12,2.12,0,0,1,162.59,4a2.12,2.12,0,0,1,.23,2.56c-.76,1.36-3.79.89-5.68.06Z" transform="translate(0 6.8)"/><path class="cls-5" d="M154,4.32c-1.37-1.54-2.76-4.28-1.7-5.43a2.13,2.13,0,0,1,2.51-.56,2.13,2.13,0,0,1,2.51.56c1.06,1.15-.32,3.89-1.7,5.43Z" transform="translate(0 6.8)"/><path class="cls-5" d="M152.56,6.57c-1.89.83-4.92,1.3-5.68-.06A2.12,2.12,0,0,1,147.12,4a2.11,2.11,0,0,1,1.31-2.21c1.41-.66,3.59,1.51,4.63,3.29Z" transform="translate(0 6.8)"/><path class="cls-5" d="M154.25,8.67c.2,2.05-.29,5.09-1.82,5.39a2.13,2.13,0,0,1-2.36-1,2.13,2.13,0,0,1-1.7-1.93c-.18-1.55,2.55-2.95,4.57-3.39Z" transform="translate(0 6.8)"/><path class="cls-5" d="M156.77,7.72c2,.44,4.74,1.84,4.56,3.39a2.13,2.13,0,0,1-1.7,1.93,2.13,2.13,0,0,1-2.36,1c-1.53-.3-2-3.34-1.81-5.39Z" transform="translate(0 6.8)"/><circle class="cls-6" cx="154.85" cy="13.26" r="3.44"/><circle class="cls-7" cx="154.85" cy="13.26" r="1.65"/><path class="cls-4" d="M238.45,7.92a3.6,3.6,0,0,0-3.91,1.17,3.58,3.58,0,0,0-6.38,2.08,3.58,3.58,0,0,0-3.94,5.42,3.59,3.59,0,0,0,0,6.71,3.58,3.58,0,0,0,3.94,5.42,3.58,3.58,0,0,0,6.38,2.08,3.58,3.58,0,0,0,6.38-2.08,3.58,3.58,0,0,0,3.94-5.42,3.59,3.59,0,0,0,0-6.71,3.58,3.58,0,0,0-3.94-5.42A3.6,3.6,0,0,0,238.45,7.92Z" transform="translate(0 6.8)"/><path class="cls-5" d="M236.33,21.38c1,1.78,3.22,3.94,4.63,3.29a2.11,2.11,0,0,0,1.31-2.21,2.12,2.12,0,0,0,.24-2.56c-.76-1.36-3.79-.9-5.68-.06Z" transform="translate(0 6.8)"/><path class="cls-5" d="M233.73,22.09c-1.38,1.54-2.76,4.28-1.7,5.42a5.81,5.81,0,0,0,5,0c1.06-1.14-.33-3.88-1.7-5.42Z" transform="translate(0 6.8)"/><path class="cls-5" d="M232.25,19.84c-1.89-.84-4.93-1.3-5.68.06a2.13,2.13,0,0,0,.23,2.56,2.13,2.13,0,0,0,1.32,2.21c1.41.65,3.59-1.51,4.63-3.29Z" transform="translate(0 6.8)"/><path class="cls-5" d="M233.93,17.73c.21-2.05-.28-5.08-1.81-5.38a2.11,2.11,0,0,0-2.36,1,2.13,2.13,0,0,0-1.7,1.94c-.18,1.54,2.55,2.95,4.56,3.39Z" transform="translate(0 6.8)"/><path class="cls-5" d="M236.45,18.69c2-.44,4.75-1.85,4.57-3.39a2.13,2.13,0,0,0-1.7-1.94,2.11,2.11,0,0,0-2.36-1c-1.53.3-2,3.33-1.82,5.38Z" transform="translate(0 6.8)"/><circle class="cls-6" cx="234.54" cy="26.74" r="3.44"/><circle class="cls-7" cx="234.54" cy="26.74" r="1.65"/><path class="cls-4" d="M211.88,21.4a3.57,3.57,0,0,0-3.9,1.18,3.58,3.58,0,0,0-6.38,2.07,3.58,3.58,0,0,0-3.94,5.42,3.58,3.58,0,0,0,0,6.71,3.58,3.58,0,0,0,3.94,5.43A3.58,3.58,0,0,0,208,44.28a3.58,3.58,0,0,0,6.37-2.07,3.59,3.59,0,0,0,4-5.43,3.59,3.59,0,0,0,0-6.71,3.59,3.59,0,0,0-4-5.42A3.58,3.58,0,0,0,211.88,21.4Z" transform="translate(0 6.8)"/><path class="cls-5" d="M209.77,34.86c1,1.78,3.21,4,4.63,3.29a2.12,2.12,0,0,0,1.31-2.21,2.12,2.12,0,0,0,.24-2.56c-.76-1.36-3.8-.89-5.68-.06Z" transform="translate(0 6.8)"/><path class="cls-5" d="M207.17,35.57c-1.38,1.54-2.76,4.28-1.7,5.42a5.79,5.79,0,0,0,5,0c1.06-1.14-.32-3.88-1.69-5.42Z" transform="translate(0 6.8)"/><path class="cls-5" d="M205.69,33.32c-1.89-.83-4.93-1.3-5.69.06a2.12,2.12,0,0,0,.24,2.56,2.12,2.12,0,0,0,1.32,2.21c1.41.66,3.59-1.51,4.63-3.29Z" transform="translate(0 6.8)"/><path class="cls-5" d="M207.37,31.22c.21-2.06-.28-5.09-1.81-5.39a2.13,2.13,0,0,0-2.36,1,2.12,2.12,0,0,0-1.7,1.93c-.19,1.55,2.54,2.95,4.56,3.39Z" transform="translate(0 6.8)"/><path class="cls-5" d="M209.89,32.17c2-.44,4.75-1.84,4.56-3.39a2.11,2.11,0,0,0-1.69-1.93,2.13,2.13,0,0,0-2.37-1c-1.52.3-2,3.33-1.81,5.39Z" transform="translate(0 6.8)"/><circle class="cls-6" cx="207.98" cy="40.23" r="3.44"/><circle class="cls-7" cx="207.98" cy="40.23" r="1.65"/><path class="cls-4" d="M214.35,15.24a3.59,3.59,0,0,0,4-5.43,3.58,3.58,0,0,0,0-6.7,3.59,3.59,0,0,0-4-5.43,3.56,3.56,0,0,0-2.47-3.24A3.56,3.56,0,0,0,208-4.39a3.58,3.58,0,0,0-3.91-1.17,3.57,3.57,0,0,0-2.47,3.24,3.58,3.58,0,0,0-3.94,5.43,3.57,3.57,0,0,0,0,6.7,3.58,3.58,0,0,0,3.94,5.43A3.58,3.58,0,0,0,208,17.31a3.58,3.58,0,0,0,6.37-2.07Z" transform="translate(0 6.8)"/><path class="cls-5" d="M209.77,5c1-1.78,3.21-3.95,4.63-3.29A2.12,2.12,0,0,1,215.71,4,2.12,2.12,0,0,1,216,6.51c-.76,1.36-3.8.89-5.68.06Z" transform="translate(0 6.8)"/><path class="cls-5" d="M207.17,4.32c-1.38-1.54-2.76-4.28-1.7-5.43A2.13,2.13,0,0,1,208-1.67a2.11,2.11,0,0,1,2.5.56c1.06,1.15-.32,3.89-1.69,5.43Z" transform="translate(0 6.8)"/><path class="cls-5" d="M205.69,6.57c-1.89.83-4.93,1.3-5.69-.06A2.12,2.12,0,0,1,200.24,4a2.12,2.12,0,0,1,1.32-2.21c1.41-.66,3.59,1.51,4.63,3.29Z" transform="translate(0 6.8)"/><path class="cls-5" d="M207.37,8.67c.21,2.05-.28,5.09-1.81,5.39a2.13,2.13,0,0,1-2.36-1,2.12,2.12,0,0,1-1.7-1.93c-.19-1.55,2.54-2.95,4.56-3.39Z" transform="translate(0 6.8)"/><path class="cls-5" d="M209.89,7.72c2,.44,4.75,1.84,4.56,3.39A2.11,2.11,0,0,1,212.76,13a2.13,2.13,0,0,1-2.37,1c-1.52-.3-2-3.34-1.81-5.39Z" transform="translate(0 6.8)"/><circle class="cls-6" cx="207.98" cy="13.26" r="3.44"/><circle class="cls-7" cx="207.98" cy="13.26" r="1.65"/><path class="cls-4" d="M291.57,7.92a3.6,3.6,0,0,0-3.91,1.17,3.58,3.58,0,0,0-6.37,2.08,3.58,3.58,0,0,0-4,5.42,3.59,3.59,0,0,0,0,6.71,3.58,3.58,0,0,0,4,5.42,3.58,3.58,0,0,0,6.37,2.08A3.58,3.58,0,0,0,294,28.72,3.58,3.58,0,0,0,298,23.3a3.58,3.58,0,0,0,0-6.71A3.58,3.58,0,0,0,294,11.17,3.6,3.6,0,0,0,291.57,7.92Z" transform="translate(0 6.8)"/><path class="cls-5" d="M289.45,21.38c1,1.78,3.22,3.94,4.63,3.29a2.13,2.13,0,0,0,1.32-2.21,2.12,2.12,0,0,0,.24-2.56c-.76-1.36-3.8-.9-5.69-.06Z" transform="translate(0 6.8)"/><path class="cls-5" d="M286.85,22.09c-1.37,1.54-2.75,4.28-1.7,5.42a5.81,5.81,0,0,0,5,0c1.06-1.14-.32-3.88-1.7-5.42Z" transform="translate(0 6.8)"/><path class="cls-5" d="M285.37,19.84c-1.88-.84-4.92-1.3-5.68.06a2.12,2.12,0,0,0,.24,2.56,2.13,2.13,0,0,0,1.31,2.21c1.41.65,3.6-1.51,4.63-3.29Z" transform="translate(0 6.8)"/><path class="cls-5" d="M287.06,17.73c.21-2.05-.29-5.08-1.81-5.38a2.12,2.12,0,0,0-2.37,1,2.12,2.12,0,0,0-1.69,1.94c-.19,1.54,2.54,2.95,4.56,3.39Z" transform="translate(0 6.8)"/><path class="cls-5" d="M289.58,18.69c2-.44,4.75-1.85,4.56-3.39a2.12,2.12,0,0,0-1.7-1.94,2.11,2.11,0,0,0-2.36-1c-1.53.3-2,3.33-1.81,5.38Z" transform="translate(0 6.8)"/><circle class="cls-6" cx="287.66" cy="26.74" r="3.44"/><circle class="cls-7" cx="287.66" cy="26.74" r="1.65"/><path class="cls-4" d="M265,21.4a3.59,3.59,0,0,0-3.91,1.18,3.58,3.58,0,0,0-6.38,2.07,3.58,3.58,0,0,0-3.94,5.42,3.59,3.59,0,0,0,0,6.71,3.58,3.58,0,0,0,3.94,5.43,3.58,3.58,0,0,0,6.38,2.07,3.58,3.58,0,0,0,6.38-2.07,3.58,3.58,0,0,0,3.94-5.43,3.59,3.59,0,0,0,0-6.71,3.58,3.58,0,0,0-3.94-5.42A3.6,3.6,0,0,0,265,21.4Z" transform="translate(0 6.8)"/><path class="cls-5" d="M262.89,34.86c1,1.78,3.22,4,4.63,3.29a2.12,2.12,0,0,0,1.32-2.21,2.12,2.12,0,0,0,.23-2.56c-.76-1.36-3.79-.89-5.68-.06Z" transform="translate(0 6.8)"/><path class="cls-5" d="M260.29,35.57c-1.37,1.54-2.76,4.28-1.7,5.42a5.81,5.81,0,0,0,5,0c1.06-1.14-.32-3.88-1.7-5.42Z" transform="translate(0 6.8)"/><path class="cls-5" d="M258.81,33.32c-1.89-.83-4.92-1.3-5.68.06a2.12,2.12,0,0,0,.24,2.56,2.11,2.11,0,0,0,1.31,2.21c1.41.66,3.59-1.51,4.63-3.29Z" transform="translate(0 6.8)"/><path class="cls-5" d="M260.5,31.22c.2-2.06-.29-5.09-1.82-5.39a2.13,2.13,0,0,0-2.36,1,2.13,2.13,0,0,0-1.7,1.93c-.18,1.55,2.55,2.95,4.57,3.39Z" transform="translate(0 6.8)"/><path class="cls-5" d="M263,32.17c2-.44,4.74-1.84,4.56-3.39a2.13,2.13,0,0,0-1.7-1.93,2.13,2.13,0,0,0-2.36-1c-1.53.3-2,3.33-1.81,5.39Z" transform="translate(0 6.8)"/><circle class="cls-6" cx="261.1" cy="40.23" r="3.44"/><circle class="cls-7" cx="261.1" cy="40.23" r="1.65"/><path class="cls-4" d="M267.48,15.24a3.58,3.58,0,0,0,3.94-5.43,3.58,3.58,0,0,0,0-6.7,3.58,3.58,0,0,0-3.94-5.43A3.57,3.57,0,0,0,265-5.56a3.58,3.58,0,0,0-3.91,1.17,3.58,3.58,0,0,0-3.91-1.17,3.57,3.57,0,0,0-2.47,3.24A3.6,3.6,0,0,0,250.87-1a3.59,3.59,0,0,0-.09,4.08,3.58,3.58,0,0,0,0,6.7,3.58,3.58,0,0,0,3.94,5.43,3.58,3.58,0,0,0,6.38,2.07,3.58,3.58,0,0,0,6.38-2.07Z" transform="translate(0 6.8)"/><path class="cls-5" d="M262.89,5c1-1.78,3.22-3.95,4.63-3.29A2.12,2.12,0,0,1,268.84,4a2.12,2.12,0,0,1,.23,2.56c-.76,1.36-3.79.89-5.68.06Z" transform="translate(0 6.8)"/><path class="cls-5" d="M260.29,4.32c-1.37-1.54-2.76-4.28-1.7-5.43a5.91,5.91,0,0,1,5,0c1.06,1.15-.32,3.89-1.7,5.43Z" transform="translate(0 6.8)"/><path class="cls-5" d="M258.81,6.57c-1.89.83-4.92,1.3-5.68-.06A2.12,2.12,0,0,1,253.37,4a2.11,2.11,0,0,1,1.31-2.21c1.41-.66,3.59,1.51,4.63,3.29Z" transform="translate(0 6.8)"/><path class="cls-5" d="M260.5,8.67c.2,2.05-.29,5.09-1.82,5.39a2.13,2.13,0,0,1-2.36-1,2.13,2.13,0,0,1-1.7-1.93c-.18-1.55,2.55-2.95,4.57-3.39Z" transform="translate(0 6.8)"/><path class="cls-5" d="M263,7.72c2,.44,4.74,1.84,4.56,3.39a2.13,2.13,0,0,1-1.7,1.93,2.13,2.13,0,0,1-2.36,1c-1.53-.3-2-3.34-1.81-5.39Z" transform="translate(0 6.8)"/><circle class="cls-6" cx="261.1" cy="13.26" r="3.44"/><circle class="cls-7" cx="261.1" cy="13.26" r="1.65"/><path class="cls-4" d="M344.7,7.92a3.6,3.6,0,0,0-3.91,1.17,3.58,3.58,0,0,0-6.38,2.08,3.58,3.58,0,0,0-3.94,5.42,3.59,3.59,0,0,0,0,6.71,3.58,3.58,0,0,0,3.94,5.42,3.58,3.58,0,0,0,6.38,2.08,3.58,3.58,0,0,0,6.38-2.08,3.58,3.58,0,0,0,3.94-5.42,3.59,3.59,0,0,0,0-6.71,3.58,3.58,0,0,0-3.94-5.42A3.6,3.6,0,0,0,344.7,7.92Z" transform="translate(0 6.8)"/><path class="cls-5" d="M342.58,21.38c1,1.78,3.22,3.94,4.63,3.29a2.11,2.11,0,0,0,1.31-2.21,2.12,2.12,0,0,0,.24-2.56c-.76-1.36-3.79-.9-5.68-.06Z" transform="translate(0 6.8)"/><path class="cls-5" d="M340,22.09c-1.38,1.54-2.76,4.28-1.7,5.42a5.81,5.81,0,0,0,5,0c1.06-1.14-.33-3.88-1.7-5.42Z" transform="translate(0 6.8)"/><path class="cls-5" d="M338.5,19.84c-1.89-.84-4.93-1.3-5.68.06a2.13,2.13,0,0,0,.23,2.56,2.13,2.13,0,0,0,1.32,2.21c1.41.65,3.59-1.51,4.63-3.29Z" transform="translate(0 6.8)"/><path class="cls-5" d="M340.18,17.73c.21-2.05-.28-5.08-1.81-5.38a2.11,2.11,0,0,0-2.36,1,2.13,2.13,0,0,0-1.7,1.94c-.18,1.54,2.55,2.95,4.56,3.39Z" transform="translate(0 6.8)"/><path class="cls-5" d="M342.7,18.69c2-.44,4.75-1.85,4.57-3.39a2.13,2.13,0,0,0-1.7-1.94,2.11,2.11,0,0,0-2.36-1c-1.53.3-2,3.33-1.82,5.38Z" transform="translate(0 6.8)"/><circle class="cls-6" cx="340.79" cy="26.74" r="3.44"/><circle class="cls-7" cx="340.79" cy="26.74" r="1.65"/><path class="cls-4" d="M318.13,21.4a3.57,3.57,0,0,0-3.9,1.18,3.58,3.58,0,0,0-6.38,2.07,3.58,3.58,0,0,0-3.94,5.42,3.58,3.58,0,0,0,0,6.71,3.58,3.58,0,0,0,3.94,5.43,3.58,3.58,0,0,0,6.38,2.07,3.58,3.58,0,0,0,6.37-2.07,3.59,3.59,0,0,0,3.95-5.43,3.59,3.59,0,0,0,0-6.71,3.59,3.59,0,0,0-3.95-5.42A3.58,3.58,0,0,0,318.13,21.4Z" transform="translate(0 6.8)"/><path class="cls-5" d="M316,34.86c1,1.78,3.21,4,4.63,3.29A2.12,2.12,0,0,0,322,35.94a2.12,2.12,0,0,0,.24-2.56c-.76-1.36-3.8-.89-5.68-.06Z" transform="translate(0 6.8)"/><path class="cls-5" d="M313.42,35.57c-1.38,1.54-2.76,4.28-1.7,5.42a5.79,5.79,0,0,0,5,0c1.06-1.14-.32-3.88-1.69-5.42Z" transform="translate(0 6.8)"/><path class="cls-5" d="M311.94,33.32c-1.89-.83-4.93-1.3-5.69.06a2.12,2.12,0,0,0,.24,2.56,2.12,2.12,0,0,0,1.32,2.21c1.41.66,3.59-1.51,4.63-3.29Z" transform="translate(0 6.8)"/><path class="cls-5" d="M313.62,31.22c.21-2.06-.28-5.09-1.81-5.39a2.13,2.13,0,0,0-2.36,1,2.12,2.12,0,0,0-1.7,1.93c-.19,1.55,2.54,2.95,4.56,3.39Z" transform="translate(0 6.8)"/><path class="cls-5" d="M316.14,32.17c2-.44,4.75-1.84,4.56-3.39A2.11,2.11,0,0,0,319,26.85a2.13,2.13,0,0,0-2.37-1c-1.52.3-2,3.33-1.81,5.39Z" transform="translate(0 6.8)"/><circle class="cls-6" cx="314.23" cy="40.23" r="3.44"/><circle class="cls-7" cx="314.23" cy="40.23" r="1.65"/><path class="cls-4" d="M320.6,15.24a3.59,3.59,0,0,0,3.95-5.43,3.58,3.58,0,0,0,0-6.7,3.59,3.59,0,0,0-3.95-5.43,3.56,3.56,0,0,0-2.47-3.24,3.56,3.56,0,0,0-3.9,1.17,3.58,3.58,0,0,0-3.91-1.17,3.57,3.57,0,0,0-2.47,3.24,3.58,3.58,0,0,0-3.94,5.43,3.57,3.57,0,0,0,0,6.7,3.58,3.58,0,0,0,3.94,5.43,3.58,3.58,0,0,0,6.38,2.07,3.58,3.58,0,0,0,6.37-2.07Z" transform="translate(0 6.8)"/><path class="cls-5" d="M316,5c1-1.78,3.21-3.95,4.63-3.29A2.12,2.12,0,0,1,322,4a2.12,2.12,0,0,1,.24,2.56c-.76,1.36-3.8.89-5.68.06Z" transform="translate(0 6.8)"/><path class="cls-5" d="M313.42,4.32C312,2.78,310.66,0,311.72-1.11a2.13,2.13,0,0,1,2.51-.56,2.11,2.11,0,0,1,2.5.56c1.06,1.15-.32,3.89-1.69,5.43Z" transform="translate(0 6.8)"/><path class="cls-5" d="M311.94,6.57c-1.89.83-4.93,1.3-5.69-.06A2.12,2.12,0,0,1,306.49,4a2.12,2.12,0,0,1,1.32-2.21c1.41-.66,3.59,1.51,4.63,3.29Z" transform="translate(0 6.8)"/><path class="cls-5" d="M313.62,8.67c.21,2.05-.28,5.09-1.81,5.39a2.13,2.13,0,0,1-2.36-1,2.12,2.12,0,0,1-1.7-1.93c-.19-1.55,2.54-2.95,4.56-3.39Z" transform="translate(0 6.8)"/><path class="cls-5" d="M316.14,7.72c2,.44,4.75,1.84,4.56,3.39A2.11,2.11,0,0,1,319,13a2.13,2.13,0,0,1-2.37,1c-1.52-.3-2-3.34-1.81-5.39Z" transform="translate(0 6.8)"/><circle class="cls-6" cx="314.23" cy="13.26" r="3.44"/><circle class="cls-7" cx="314.23" cy="13.26" r="1.65"/><path class="cls-4" d="M397.82,7.92a3.6,3.6,0,0,0-3.91,1.17,3.58,3.58,0,0,0-6.37,2.08,3.58,3.58,0,0,0-4,5.42,3.59,3.59,0,0,0,0,6.71,3.58,3.58,0,0,0,4,5.42,3.58,3.58,0,0,0,6.37,2.08,3.58,3.58,0,0,0,6.38-2.08,3.58,3.58,0,0,0,3.94-5.42,3.58,3.58,0,0,0,0-6.71,3.58,3.58,0,0,0-3.94-5.42A3.6,3.6,0,0,0,397.82,7.92Z" transform="translate(0 6.8)"/><path class="cls-5" d="M395.7,21.38c1,1.78,3.22,3.94,4.63,3.29a2.13,2.13,0,0,0,1.32-2.21,2.12,2.12,0,0,0,.24-2.56c-.76-1.36-3.8-.9-5.69-.06Z" transform="translate(0 6.8)"/><path class="cls-5" d="M393.1,22.09c-1.37,1.54-2.75,4.28-1.7,5.42a5.81,5.81,0,0,0,5,0c1.06-1.14-.32-3.88-1.7-5.42Z" transform="translate(0 6.8)"/><path class="cls-5" d="M391.62,19.84c-1.88-.84-4.92-1.3-5.68.06a2.12,2.12,0,0,0,.24,2.56,2.13,2.13,0,0,0,1.31,2.21c1.41.65,3.6-1.51,4.63-3.29Z" transform="translate(0 6.8)"/><path class="cls-5" d="M393.31,17.73c.21-2.05-.29-5.08-1.81-5.38a2.12,2.12,0,0,0-2.37,1,2.12,2.12,0,0,0-1.69,1.94c-.19,1.54,2.54,2.95,4.56,3.39Z" transform="translate(0 6.8)"/><path class="cls-5" d="M395.83,18.69c2-.44,4.75-1.85,4.56-3.39a2.12,2.12,0,0,0-1.7-1.94,2.11,2.11,0,0,0-2.36-1c-1.53.3-2,3.33-1.81,5.38Z" transform="translate(0 6.8)"/><circle class="cls-6" cx="393.91" cy="26.74" r="3.44"/><circle class="cls-7" cx="393.91" cy="26.74" r="1.65"/><path class="cls-4" d="M371.26,21.4a3.59,3.59,0,0,0-3.91,1.18A3.58,3.58,0,0,0,361,24.65,3.58,3.58,0,0,0,357,30.07a3.59,3.59,0,0,0,0,6.71A3.58,3.58,0,0,0,361,42.21a3.58,3.58,0,0,0,6.38,2.07,3.58,3.58,0,0,0,6.38-2.07,3.58,3.58,0,0,0,3.94-5.43,3.59,3.59,0,0,0,0-6.71,3.58,3.58,0,0,0-3.94-5.42A3.6,3.6,0,0,0,371.26,21.4Z" transform="translate(0 6.8)"/><path class="cls-5" d="M369.14,34.86c1,1.78,3.22,4,4.63,3.29a2.12,2.12,0,0,0,1.32-2.21,2.12,2.12,0,0,0,.23-2.56c-.76-1.36-3.79-.89-5.68-.06Z" transform="translate(0 6.8)"/><path class="cls-5" d="M366.54,35.57c-1.37,1.54-2.76,4.28-1.7,5.42a5.81,5.81,0,0,0,5,0c1.06-1.14-.32-3.88-1.7-5.42Z" transform="translate(0 6.8)"/><path class="cls-5" d="M365.06,33.32c-1.89-.83-4.92-1.3-5.68.06a2.12,2.12,0,0,0,.24,2.56,2.11,2.11,0,0,0,1.31,2.21c1.41.66,3.59-1.51,4.63-3.29Z" transform="translate(0 6.8)"/><path class="cls-5" d="M366.75,31.22c.2-2.06-.29-5.09-1.82-5.39a2.13,2.13,0,0,0-2.36,1,2.13,2.13,0,0,0-1.7,1.93c-.18,1.55,2.55,2.95,4.57,3.39Z" transform="translate(0 6.8)"/><path class="cls-5" d="M369.27,32.17c2-.44,4.74-1.84,4.56-3.39a2.13,2.13,0,0,0-1.7-1.93,2.13,2.13,0,0,0-2.36-1c-1.53.3-2,3.33-1.81,5.39Z" transform="translate(0 6.8)"/><circle class="cls-6" cx="367.35" cy="40.23" r="3.44"/><circle class="cls-7" cx="367.35" cy="40.23" r="1.65"/><path class="cls-4" d="M373.73,15.24a3.58,3.58,0,0,0,3.94-5.43,3.58,3.58,0,0,0,0-6.7,3.58,3.58,0,0,0-3.94-5.43,3.57,3.57,0,0,0-2.47-3.24,3.58,3.58,0,0,0-3.91,1.17,3.58,3.58,0,0,0-3.91-1.17A3.57,3.57,0,0,0,361-2.32,3.6,3.6,0,0,0,357.12-1,3.59,3.59,0,0,0,357,3.11a3.58,3.58,0,0,0,0,6.7A3.58,3.58,0,0,0,361,15.24a3.58,3.58,0,0,0,6.38,2.07,3.58,3.58,0,0,0,6.38-2.07Z" transform="translate(0 6.8)"/><path class="cls-5" d="M369.14,5c1-1.78,3.22-3.95,4.63-3.29A2.12,2.12,0,0,1,375.09,4a2.12,2.12,0,0,1,.23,2.56c-.76,1.36-3.79.89-5.68.06Z" transform="translate(0 6.8)"/><path class="cls-5" d="M366.54,4.32c-1.37-1.54-2.76-4.28-1.7-5.43a5.91,5.91,0,0,1,5,0c1.06,1.15-.32,3.89-1.7,5.43Z" transform="translate(0 6.8)"/><path class="cls-5" d="M365.06,6.57c-1.89.83-4.92,1.3-5.68-.06A2.12,2.12,0,0,1,359.62,4a2.11,2.11,0,0,1,1.31-2.21c1.41-.66,3.59,1.51,4.63,3.29Z" transform="translate(0 6.8)"/><path class="cls-5" d="M366.75,8.67c.2,2.05-.29,5.09-1.82,5.39a2.13,2.13,0,0,1-2.36-1,2.13,2.13,0,0,1-1.7-1.93c-.18-1.55,2.55-2.95,4.57-3.39Z" transform="translate(0 6.8)"/><path class="cls-5" d="M369.27,7.72c2,.44,4.74,1.84,4.56,3.39a2.13,2.13,0,0,1-1.7,1.93,2.13,2.13,0,0,1-2.36,1c-1.53-.3-2-3.34-1.81-5.39Z" transform="translate(0 6.8)"/><circle class="cls-6" cx="367.35" cy="13.26" r="3.44"/><circle class="cls-7" cx="367.35" cy="13.26" r="1.65"/><path class="cls-4" d="M424.38,21.4a3.57,3.57,0,0,0-3.9,1.18,3.58,3.58,0,0,0-6.38,2.07,3.58,3.58,0,0,0-3.94,5.42,3.58,3.58,0,0,0,0,6.71,3.58,3.58,0,0,0,3.94,5.43,3.58,3.58,0,0,0,6.38,2.07,3.58,3.58,0,0,0,6.37-2.07,3.59,3.59,0,0,0,3.95-5.43,3.59,3.59,0,0,0,0-6.71,3.59,3.59,0,0,0-3.95-5.42A3.58,3.58,0,0,0,424.38,21.4Z" transform="translate(0 6.8)"/><path class="cls-5" d="M422.27,34.86c1,1.78,3.21,4,4.63,3.29a2.12,2.12,0,0,0,1.31-2.21,2.12,2.12,0,0,0,.24-2.56c-.76-1.36-3.8-.89-5.68-.06Z" transform="translate(0 6.8)"/><path class="cls-5" d="M419.67,35.57c-1.38,1.54-2.76,4.28-1.7,5.42a5.79,5.79,0,0,0,5,0c1.06-1.14-.32-3.88-1.69-5.42Z" transform="translate(0 6.8)"/><path class="cls-5" d="M418.19,33.32c-1.89-.83-4.93-1.3-5.69.06a2.12,2.12,0,0,0,.24,2.56,2.12,2.12,0,0,0,1.32,2.21c1.41.66,3.59-1.51,4.63-3.29Z" transform="translate(0 6.8)"/><path class="cls-5" d="M419.87,31.22c.21-2.06-.28-5.09-1.81-5.39a2.13,2.13,0,0,0-2.36,1,2.12,2.12,0,0,0-1.7,1.93c-.19,1.55,2.54,2.95,4.56,3.39Z" transform="translate(0 6.8)"/><path class="cls-5" d="M422.39,32.17c2-.44,4.75-1.84,4.56-3.39a2.11,2.11,0,0,0-1.69-1.93,2.13,2.13,0,0,0-2.37-1c-1.52.3-2,3.33-1.81,5.39Z" transform="translate(0 6.8)"/><circle class="cls-6" cx="420.48" cy="40.23" r="3.44"/><circle class="cls-7" cx="420.48" cy="40.23" r="1.65"/><path class="cls-4" d="M426.85,15.24a3.59,3.59,0,0,0,3.95-5.43,3.58,3.58,0,0,0,0-6.7,3.59,3.59,0,0,0-3.95-5.43,3.56,3.56,0,0,0-2.47-3.24,3.56,3.56,0,0,0-3.9,1.17,3.58,3.58,0,0,0-3.91-1.17,3.57,3.57,0,0,0-2.47,3.24,3.58,3.58,0,0,0-3.94,5.43,3.57,3.57,0,0,0,0,6.7,3.58,3.58,0,0,0,3.94,5.43,3.58,3.58,0,0,0,6.38,2.07,3.58,3.58,0,0,0,6.37-2.07Z" transform="translate(0 6.8)"/><path class="cls-5" d="M422.27,5c1-1.78,3.21-3.95,4.63-3.29A2.12,2.12,0,0,1,428.21,4a2.12,2.12,0,0,1,.24,2.56c-.76,1.36-3.8.89-5.68.06Z" transform="translate(0 6.8)"/><path class="cls-5" d="M419.67,4.32C418.29,2.78,416.91,0,418-1.11a2.13,2.13,0,0,1,2.51-.56,2.11,2.11,0,0,1,2.5.56c1.06,1.15-.32,3.89-1.69,5.43Z" transform="translate(0 6.8)"/><path class="cls-5" d="M418.19,6.57c-1.89.83-4.93,1.3-5.69-.06A2.12,2.12,0,0,1,412.74,4a2.12,2.12,0,0,1,1.32-2.21c1.41-.66,3.59,1.51,4.63,3.29Z" transform="translate(0 6.8)"/><path class="cls-5" d="M419.87,8.67c.21,2.05-.28,5.09-1.81,5.39a2.13,2.13,0,0,1-2.36-1,2.12,2.12,0,0,1-1.7-1.93c-.19-1.55,2.54-2.95,4.56-3.39Z" transform="translate(0 6.8)"/><path class="cls-5" d="M422.39,7.72c2,.44,4.75,1.84,4.56,3.39A2.11,2.11,0,0,1,425.26,13a2.13,2.13,0,0,1-2.37,1c-1.52-.3-2-3.34-1.81-5.39Z" transform="translate(0 6.8)"/><circle class="cls-6" cx="420.48" cy="13.26" r="3.44"/><circle class="cls-7" cx="420.48" cy="13.26" r="1.65"/><path class="cls-4" d="M459.06,23.85a3.58,3.58,0,0,0-1.17-3.91,3.58,3.58,0,0,0-2.07-6.37,3.59,3.59,0,0,0-5.43-4,3.58,3.58,0,0,0-6.7,0,3.59,3.59,0,0,0-5.43,4,3.57,3.57,0,0,0-2.07,6.37,3.58,3.58,0,0,0,2.07,6.38,3.58,3.58,0,0,0,5.43,3.94,3.57,3.57,0,0,0,6.7,0,3.58,3.58,0,0,0,5.43-3.94A3.56,3.56,0,0,0,459.06,23.85Z" transform="translate(0 6.8)"/><path class="cls-5" d="M445.61,21.73c-1.79,1-3.95,3.22-3.3,4.64a2.14,2.14,0,0,0,2.22,1.31,2.12,2.12,0,0,0,2.56.24c1.36-.76.89-3.8.06-5.69Z" transform="translate(0 6.8)"/><path class="cls-5" d="M444.89,19.14c-1.53-1.38-4.28-2.76-5.42-1.7a2.11,2.11,0,0,0-.56,2.5,2.13,2.13,0,0,0,.56,2.51c1.14,1.06,3.89-.32,5.42-1.7Z" transform="translate(0 6.8)"/><path class="cls-5" d="M447.15,17.66c.83-1.89,1.3-4.93-.06-5.69a2.12,2.12,0,0,0-2.56.24,2.14,2.14,0,0,0-2.22,1.31c-.65,1.42,1.51,3.6,3.3,4.64Z" transform="translate(0 6.8)"/><path class="cls-5" d="M449.25,19.34c2.05.21,5.08-.29,5.38-1.81a2.12,2.12,0,0,0-1-2.37,2.11,2.11,0,0,0-1.93-1.69c-1.55-.19-3,2.54-3.39,4.56Z" transform="translate(0 6.8)"/><path class="cls-5" d="M448.3,21.86c.43,2,1.84,4.75,3.39,4.56a2.11,2.11,0,0,0,1.93-1.69,2.12,2.12,0,0,0,1-2.37c-.3-1.52-3.33-2-5.38-1.81Z" transform="translate(0 6.8)"/><circle class="cls-6" cx="447.04" cy="26.74" r="3.44"/><circle class="cls-7" cx="447.04" cy="26.74" r="1.65"/><path class="cls-4" d="M503.22,7.92a3.6,3.6,0,0,0-3.91,1.17,3.58,3.58,0,0,0-6.38,2.08A3.58,3.58,0,0,0,489,16.59a3.59,3.59,0,0,0,0,6.71,3.58,3.58,0,0,0,3.94,5.42,3.58,3.58,0,0,0,6.38,2.08,3.58,3.58,0,0,0,6.38-2.08,3.58,3.58,0,0,0,3.94-5.42,3.59,3.59,0,0,0,0-6.71,3.58,3.58,0,0,0-3.94-5.42A3.6,3.6,0,0,0,503.22,7.92Z" transform="translate(0 6.8)"/><path class="cls-5" d="M501.1,21.38c1,1.78,3.22,3.94,4.63,3.29a2.13,2.13,0,0,0,1.32-2.21,2.13,2.13,0,0,0,.23-2.56c-.76-1.36-3.79-.9-5.68-.06Z" transform="translate(0 6.8)"/><path class="cls-5" d="M498.5,22.09c-1.38,1.54-2.76,4.28-1.7,5.42a5.81,5.81,0,0,0,5,0c1.06-1.14-.32-3.88-1.7-5.42Z" transform="translate(0 6.8)"/><path class="cls-5" d="M497,19.84c-1.89-.84-4.92-1.3-5.68.06a2.13,2.13,0,0,0,.23,2.56,2.13,2.13,0,0,0,1.32,2.21c1.41.65,3.59-1.51,4.63-3.29Z" transform="translate(0 6.8)"/><path class="cls-5" d="M498.7,17.73c.21-2.05-.28-5.08-1.81-5.38a2.11,2.11,0,0,0-2.36,1,2.13,2.13,0,0,0-1.7,1.94c-.18,1.54,2.55,2.95,4.56,3.39Z" transform="translate(0 6.8)"/><path class="cls-5" d="M501.22,18.69c2-.44,4.75-1.85,4.57-3.39a2.13,2.13,0,0,0-1.7-1.94,2.11,2.11,0,0,0-2.36-1c-1.53.3-2,3.33-1.81,5.38Z" transform="translate(0 6.8)"/><circle class="cls-6" cx="499.31" cy="26.74" r="3.44"/><circle class="cls-7" cx="499.31" cy="26.74" r="1.65"/><path class="cls-4" d="M476.65,21.4a3.57,3.57,0,0,0-3.9,1.18,3.58,3.58,0,0,0-6.38,2.07,3.58,3.58,0,0,0-3.94,5.42,3.58,3.58,0,0,0,0,6.71,3.58,3.58,0,0,0,3.94,5.43,3.58,3.58,0,0,0,6.38,2.07,3.59,3.59,0,0,0,6.38-2.07,3.58,3.58,0,0,0,3.94-5.43,3.59,3.59,0,0,0,0-6.71,3.58,3.58,0,0,0-3.94-5.42A3.61,3.61,0,0,0,476.65,21.4Z" transform="translate(0 6.8)"/><path class="cls-5" d="M474.54,34.86c1,1.78,3.22,4,4.63,3.29a2.12,2.12,0,0,0,1.31-2.21,2.12,2.12,0,0,0,.24-2.56c-.76-1.36-3.8-.89-5.68-.06Z" transform="translate(0 6.8)"/><path class="cls-5" d="M471.94,35.57c-1.38,1.54-2.76,4.28-1.7,5.42a5.81,5.81,0,0,0,5,0c1.05-1.14-.33-3.88-1.7-5.42Z" transform="translate(0 6.8)"/><path class="cls-5" d="M470.46,33.32c-1.89-.83-4.93-1.3-5.68.06a2.12,2.12,0,0,0,.23,2.56,2.12,2.12,0,0,0,1.32,2.21c1.41.66,3.59-1.51,4.63-3.29Z" transform="translate(0 6.8)"/><path class="cls-5" d="M472.14,31.22c.21-2.06-.28-5.09-1.81-5.39a2.13,2.13,0,0,0-2.36,1,2.13,2.13,0,0,0-1.7,1.93c-.19,1.55,2.55,2.95,4.56,3.39Z" transform="translate(0 6.8)"/><path class="cls-5" d="M474.66,32.17c2-.44,4.75-1.84,4.56-3.39a2.11,2.11,0,0,0-1.69-1.93,2.13,2.13,0,0,0-2.36-1c-1.53.3-2,3.33-1.82,5.39Z" transform="translate(0 6.8)"/><circle class="cls-6" cx="472.75" cy="40.23" r="3.44"/><circle class="cls-7" cx="472.75" cy="40.23" r="1.65"/><path class="cls-4" d="M479.13,15.24a3.58,3.58,0,0,0,3.94-5.43,3.58,3.58,0,0,0,0-6.7A3.6,3.6,0,0,0,483-1a3.6,3.6,0,0,0-3.85-1.35,3.58,3.58,0,0,0-2.48-3.24,3.56,3.56,0,0,0-3.9,1.17,3.58,3.58,0,0,0-3.91-1.17,3.57,3.57,0,0,0-2.47,3.24,3.58,3.58,0,0,0-3.94,5.43,3.57,3.57,0,0,0,0,6.7,3.58,3.58,0,0,0,3.94,5.43,3.58,3.58,0,0,0,6.38,2.07,3.59,3.59,0,0,0,6.38-2.07Z" transform="translate(0 6.8)"/><path class="cls-5" d="M474.54,5c1-1.78,3.22-3.95,4.63-3.29A2.12,2.12,0,0,1,480.48,4a2.12,2.12,0,0,1,.24,2.56c-.76,1.36-3.8.89-5.68.06Z" transform="translate(0 6.8)"/><path class="cls-5" d="M471.94,4.32c-1.38-1.54-2.76-4.28-1.7-5.43a5.91,5.91,0,0,1,5,0c1.05,1.15-.33,3.89-1.7,5.43Z" transform="translate(0 6.8)"/><path class="cls-5" d="M470.46,6.57c-1.89.83-4.93,1.3-5.68-.06A2.12,2.12,0,0,1,465,4a2.12,2.12,0,0,1,1.32-2.21c1.41-.66,3.59,1.51,4.63,3.29Z" transform="translate(0 6.8)"/><path class="cls-5" d="M472.14,8.67c.21,2.05-.28,5.09-1.81,5.39A2.13,2.13,0,0,1,468,13a2.13,2.13,0,0,1-1.7-1.93c-.19-1.55,2.55-2.95,4.56-3.39Z" transform="translate(0 6.8)"/><path class="cls-5" d="M474.66,7.72c2,.44,4.75,1.84,4.56,3.39A2.11,2.11,0,0,1,477.53,13a2.13,2.13,0,0,1-2.36,1c-1.53-.3-2-3.34-1.82-5.39Z" transform="translate(0 6.8)"/><circle class="cls-6" cx="472.75" cy="13.26" r="3.44"/><circle class="cls-7" cx="472.75" cy="13.26" r="1.65"/><path class="cls-4" d="M529.78,21.4a3.59,3.59,0,0,0-3.91,1.18A3.57,3.57,0,0,0,522,21.4a3.61,3.61,0,0,0-2.48,3.25,3.58,3.58,0,0,0-3.94,5.42,3.59,3.59,0,0,0,0,6.71,3.58,3.58,0,0,0,3.94,5.43,3.59,3.59,0,0,0,6.38,2.07,3.58,3.58,0,0,0,6.38-2.07,3.58,3.58,0,0,0,3.94-5.43,3.58,3.58,0,0,0,0-6.71,3.58,3.58,0,0,0-3.94-5.42A3.6,3.6,0,0,0,529.78,21.4Z" transform="translate(0 6.8)"/><path class="cls-5" d="M527.66,34.86c1,1.78,3.22,4,4.63,3.29a2.12,2.12,0,0,0,1.32-2.21,2.12,2.12,0,0,0,.23-2.56c-.75-1.36-3.79-.89-5.68-.06Z" transform="translate(0 6.8)"/><path class="cls-5" d="M525.06,35.57c-1.37,1.54-2.75,4.28-1.7,5.42a5.81,5.81,0,0,0,5,0c1.06-1.14-.32-3.88-1.7-5.42Z" transform="translate(0 6.8)"/><path class="cls-5" d="M523.58,33.32c-1.88-.83-4.92-1.3-5.68.06a2.12,2.12,0,0,0,.24,2.56,2.12,2.12,0,0,0,1.31,2.21c1.41.66,3.6-1.51,4.63-3.29Z" transform="translate(0 6.8)"/><path class="cls-5" d="M525.27,31.22c.21-2.06-.29-5.09-1.82-5.39a2.13,2.13,0,0,0-2.36,1,2.11,2.11,0,0,0-1.69,1.93c-.19,1.55,2.54,2.95,4.56,3.39Z" transform="translate(0 6.8)"/><path class="cls-5" d="M527.79,32.17c2-.44,4.75-1.84,4.56-3.39a2.13,2.13,0,0,0-1.7-1.93,2.13,2.13,0,0,0-2.36-1c-1.53.3-2,3.33-1.81,5.39Z" transform="translate(0 6.8)"/><circle class="cls-6" cx="525.87" cy="40.23" r="3.44"/><circle class="cls-7" cx="525.87" cy="40.23" r="1.65"/><path class="cls-4" d="M532.25,15.24a3.58,3.58,0,0,0,3.94-5.43,3.57,3.57,0,0,0,0-6.7,3.58,3.58,0,0,0-3.94-5.43,3.57,3.57,0,0,0-2.47-3.24,3.58,3.58,0,0,0-3.91,1.17A3.56,3.56,0,0,0,522-5.56a3.58,3.58,0,0,0-2.48,3.24A3.6,3.6,0,0,0,515.64-1a3.6,3.6,0,0,0-.09,4.08,3.58,3.58,0,0,0,0,6.7,3.58,3.58,0,0,0,3.94,5.43,3.59,3.59,0,0,0,6.38,2.07,3.58,3.58,0,0,0,6.38-2.07Z" transform="translate(0 6.8)"/><path class="cls-5" d="M527.66,5c1-1.78,3.22-3.95,4.63-3.29A2.12,2.12,0,0,1,533.61,4a2.12,2.12,0,0,1,.23,2.56c-.75,1.36-3.79.89-5.68.06Z" transform="translate(0 6.8)"/><path class="cls-5" d="M525.06,4.32c-1.37-1.54-2.75-4.28-1.7-5.43a5.91,5.91,0,0,1,5,0c1.06,1.15-.32,3.89-1.7,5.43Z" transform="translate(0 6.8)"/><path class="cls-5" d="M523.58,6.57c-1.88.83-4.92,1.3-5.68-.06A2.12,2.12,0,0,1,518.14,4a2.12,2.12,0,0,1,1.31-2.21c1.41-.66,3.6,1.51,4.63,3.29Z" transform="translate(0 6.8)"/><path class="cls-5" d="M525.27,8.67c.21,2.05-.29,5.09-1.82,5.39a2.13,2.13,0,0,1-2.36-1,2.11,2.11,0,0,1-1.69-1.93c-.19-1.55,2.54-2.95,4.56-3.39Z" transform="translate(0 6.8)"/><path class="cls-5" d="M527.79,7.72c2,.44,4.75,1.84,4.56,3.39a2.13,2.13,0,0,1-1.7,1.93,2.13,2.13,0,0,1-2.36,1c-1.53-.3-2-3.34-1.81-5.39Z" transform="translate(0 6.8)"/><circle class="cls-6" cx="525.87" cy="13.26" r="3.44"/><circle class="cls-7" cx="525.87" cy="13.26" r="1.65"/><path class="cls-4" d="M564.46,23.85a3.6,3.6,0,0,0-1.17-3.91,3.58,3.58,0,0,0-2.08-6.37,3.58,3.58,0,0,0-5.42-4,3.59,3.59,0,0,0-6.71,0,3.58,3.58,0,0,0-5.42,4,3.58,3.58,0,0,0-2.08,6.37,3.58,3.58,0,0,0,2.08,6.38,3.58,3.58,0,0,0,5.42,3.94,3.58,3.58,0,0,0,6.71,0,3.58,3.58,0,0,0,5.42-3.94A3.58,3.58,0,0,0,564.46,23.85Z" transform="translate(0 6.8)"/><path class="cls-5" d="M551,21.73c-1.78,1-3.94,3.22-3.29,4.64a2.13,2.13,0,0,0,2.21,1.31,2.12,2.12,0,0,0,2.56.24c1.36-.76.9-3.8.06-5.69Z" transform="translate(0 6.8)"/><path class="cls-5" d="M550.29,19.14c-1.54-1.38-4.28-2.76-5.42-1.7a2.1,2.1,0,0,0-.57,2.5,2.12,2.12,0,0,0,.57,2.51c1.14,1.06,3.88-.32,5.42-1.7Z" transform="translate(0 6.8)"/><path class="cls-5" d="M552.54,17.66c.84-1.89,1.3-4.93-.06-5.69a2.12,2.12,0,0,0-2.56.24,2.13,2.13,0,0,0-2.21,1.31c-.65,1.42,1.51,3.6,3.29,4.64Z" transform="translate(0 6.8)"/><path class="cls-5" d="M554.65,19.34c2.05.21,5.08-.29,5.38-1.81a2.13,2.13,0,0,0-1-2.37,2.11,2.11,0,0,0-1.93-1.69c-1.54-.19-3,2.54-3.39,4.56Z" transform="translate(0 6.8)"/><path class="cls-5" d="M553.69,21.86c.44,2,1.85,4.75,3.39,4.56A2.11,2.11,0,0,0,559,24.73a2.13,2.13,0,0,0,1-2.37c-.3-1.52-3.33-2-5.38-1.81Z" transform="translate(0 6.8)"/><circle class="cls-6" cx="552.43" cy="26.74" r="3.44"/><circle class="cls-7" cx="552.43" cy="26.74" r="1.65"/><path class="cls-4" d="M607.75,8.48a7.12,7.12,0,0,1-7.82,0,3.59,3.59,0,0,0-2.47,3.25,3.58,3.58,0,0,0-3.94,5.42,3.59,3.59,0,0,0,0,6.71,3.58,3.58,0,0,0,3.94,5.42,6.78,6.78,0,0,0,12.76,0,3.58,3.58,0,0,0,3.94-5.42,3.59,3.59,0,0,0,0-6.71,3.58,3.58,0,0,0-3.94-5.42A3.59,3.59,0,0,0,607.75,8.48Z" transform="translate(0 6.8)"/><path class="cls-5" d="M605.63,21.94c1,1.78,3.22,3.94,4.63,3.29A2.13,2.13,0,0,0,611.58,23a2.13,2.13,0,0,0,.23-2.56c-.76-1.36-3.79-.9-5.68-.06Z" transform="translate(0 6.8)"/><path class="cls-5" d="M603,22.65c-1.38,1.54-2.76,4.28-1.7,5.42a5.81,5.81,0,0,0,5,0c1.06-1.14-.32-3.88-1.7-5.42Z" transform="translate(0 6.8)"/><path class="cls-5" d="M601.55,20.4c-1.89-.84-4.92-1.3-5.68.06A2.13,2.13,0,0,0,596.1,23a2.13,2.13,0,0,0,1.32,2.21c1.41.65,3.59-1.51,4.63-3.29Z" transform="translate(0 6.8)"/><path class="cls-5" d="M603.23,18.29c.21-2.05-.28-5.08-1.81-5.38a2.11,2.11,0,0,0-2.36,1,2.13,2.13,0,0,0-1.7,1.94c-.18,1.54,2.55,2.95,4.57,3.39Z" transform="translate(0 6.8)"/><path class="cls-5" d="M605.76,19.25c2-.44,4.74-1.85,4.56-3.39a2.13,2.13,0,0,0-1.7-1.94,2.11,2.11,0,0,0-2.36-1c-1.53.3-2,3.33-1.81,5.38Z" transform="translate(0 6.8)"/><circle class="cls-6" cx="603.84" cy="27.3" r="3.44"/><circle class="cls-7" cx="603.84" cy="27.3" r="1.65"/><path class="cls-4" d="M581.18,22a7.05,7.05,0,0,1-7.81,0,3.6,3.6,0,0,0-2.47,3.25A3.58,3.58,0,0,0,567,30.63a3.58,3.58,0,0,0,0,6.71,3.58,3.58,0,0,0,3.94,5.43,6.79,6.79,0,0,0,12.76,0,3.58,3.58,0,0,0,3.94-5.43,3.59,3.59,0,0,0,0-6.71,3.58,3.58,0,0,0-3.94-5.42A3.61,3.61,0,0,0,581.18,22Z" transform="translate(0 6.8)"/><path class="cls-5" d="M579.07,35.42c1,1.78,3.22,3.95,4.63,3.29A2.12,2.12,0,0,0,585,36.5a2.12,2.12,0,0,0,.24-2.56c-.76-1.36-3.8-.89-5.68-.06Z" transform="translate(0 6.8)"/><path class="cls-5" d="M576.47,36.13c-1.38,1.54-2.76,4.28-1.7,5.42a5.81,5.81,0,0,0,5,0c1.05-1.14-.33-3.88-1.7-5.42Z" transform="translate(0 6.8)"/><path class="cls-5" d="M575,33.88c-1.89-.83-4.93-1.3-5.68.06a2.12,2.12,0,0,0,.23,2.56,2.12,2.12,0,0,0,1.32,2.21c1.41.66,3.59-1.51,4.63-3.29Z" transform="translate(0 6.8)"/><path class="cls-5" d="M576.67,31.78c.21-2.06-.28-5.09-1.81-5.39a2.13,2.13,0,0,0-2.36,1,2.13,2.13,0,0,0-1.7,1.93c-.19,1.55,2.55,2.95,4.56,3.39Z" transform="translate(0 6.8)"/><path class="cls-5" d="M579.19,32.73c2-.44,4.75-1.84,4.56-3.39a2.11,2.11,0,0,0-1.69-1.93,2.13,2.13,0,0,0-2.36-1c-1.53.3-2,3.33-1.82,5.39Z" transform="translate(0 6.8)"/><circle class="cls-6" cx="577.28" cy="40.79" r="3.44"/><circle class="cls-7" cx="577.28" cy="40.79" r="1.65"/><path class="cls-4" d="M583.66,15.8a3.58,3.58,0,0,0,3.94-5.43,3.58,3.58,0,0,0,0-6.7,3.6,3.6,0,0,0-.09-4.08,3.6,3.6,0,0,0-3.85-1.35A3.58,3.58,0,0,0,581.18-5a3.56,3.56,0,0,0-3.9,1.17A3.58,3.58,0,0,0,573.37-5a3.57,3.57,0,0,0-2.47,3.24A3.58,3.58,0,0,0,567,3.67a3.57,3.57,0,0,0,0,6.7,3.58,3.58,0,0,0,3.94,5.43,6.79,6.79,0,0,0,12.76,0Z" transform="translate(0 6.8)"/><path class="cls-5" d="M579.07,5.59c1-1.79,3.22-3.95,4.63-3.29A2.12,2.12,0,0,1,585,4.51a2.12,2.12,0,0,1,.24,2.56c-.76,1.36-3.8.89-5.68.06Z" transform="translate(0 6.8)"/><path class="cls-5" d="M576.47,4.88c-1.38-1.54-2.76-4.28-1.7-5.43a5.91,5.91,0,0,1,5,0c1.05,1.15-.33,3.89-1.7,5.43Z" transform="translate(0 6.8)"/><path class="cls-5" d="M575,7.13c-1.89.83-4.93,1.3-5.68-.06a2.12,2.12,0,0,1,.23-2.56,2.12,2.12,0,0,1,1.32-2.21c1.41-.66,3.59,1.5,4.63,3.29Z" transform="translate(0 6.8)"/><path class="cls-5" d="M576.67,9.23c.21,2-.28,5.09-1.81,5.39a2.13,2.13,0,0,1-2.36-1,2.13,2.13,0,0,1-1.7-1.93c-.19-1.55,2.55-2.95,4.56-3.39Z" transform="translate(0 6.8)"/><path class="cls-5" d="M579.19,8.28c2,.44,4.75,1.84,4.56,3.39a2.11,2.11,0,0,1-1.69,1.93,2.13,2.13,0,0,1-2.36,1c-1.53-.3-2-3.34-1.82-5.39Z" transform="translate(0 6.8)"/><circle class="cls-6" cx="577.28" cy="13.82" r="3.44"/><circle class="cls-7" cx="577.28" cy="13.82" r="1.65"/><path class="cls-4" d="M634.31,22a7.05,7.05,0,0,1-7.81,0A3.61,3.61,0,0,0,624,25.21a3.58,3.58,0,0,0-3.94,5.42,3.59,3.59,0,0,0,0,6.71A3.58,3.58,0,0,0,624,42.77a6.78,6.78,0,0,0,12.76,0,3.58,3.58,0,0,0,3.94-5.43,3.58,3.58,0,0,0,0-6.71,3.58,3.58,0,0,0-3.94-5.42A3.6,3.6,0,0,0,634.31,22Z" transform="translate(0 6.8)"/><path class="cls-5" d="M632.19,35.42c1,1.78,3.22,3.95,4.63,3.29a2.12,2.12,0,0,0,1.32-2.21,2.12,2.12,0,0,0,.23-2.56c-.75-1.36-3.79-.89-5.68-.06Z" transform="translate(0 6.8)"/><path class="cls-5" d="M629.59,36.13c-1.37,1.54-2.75,4.28-1.7,5.42a5.81,5.81,0,0,0,5,0c1.06-1.14-.32-3.88-1.7-5.42Z" transform="translate(0 6.8)"/><path class="cls-5" d="M628.11,33.88c-1.88-.83-4.92-1.3-5.68.06a2.12,2.12,0,0,0,.24,2.56A2.12,2.12,0,0,0,624,38.71c1.41.66,3.6-1.51,4.63-3.29Z" transform="translate(0 6.8)"/><path class="cls-5" d="M629.8,31.78c.21-2.06-.29-5.09-1.82-5.39a2.13,2.13,0,0,0-2.36,1,2.11,2.11,0,0,0-1.69,1.93c-.19,1.55,2.54,2.95,4.56,3.39Z" transform="translate(0 6.8)"/><path class="cls-5" d="M632.32,32.73c2-.44,4.75-1.84,4.56-3.39a2.13,2.13,0,0,0-1.7-1.93,2.13,2.13,0,0,0-2.36-1c-1.53.3-2,3.33-1.81,5.39Z" transform="translate(0 6.8)"/><circle class="cls-6" cx="630.4" cy="40.79" r="3.44"/><circle class="cls-7" cx="630.4" cy="40.79" r="1.65"/><path class="cls-4" d="M636.78,15.8a3.58,3.58,0,0,0,3.94-5.43,3.57,3.57,0,0,0,0-6.7,3.58,3.58,0,0,0-3.94-5.43A3.57,3.57,0,0,0,634.31-5a3.58,3.58,0,0,0-3.91,1.17A3.56,3.56,0,0,0,626.5-5,3.58,3.58,0,0,0,624-1.76a3.6,3.6,0,0,0-3.85,1.35,3.6,3.6,0,0,0-.09,4.08,3.58,3.58,0,0,0,0,6.7A3.58,3.58,0,0,0,624,15.8a6.78,6.78,0,0,0,12.76,0Z" transform="translate(0 6.8)"/><path class="cls-5" d="M632.19,5.59c1-1.79,3.22-3.95,4.63-3.29a2.12,2.12,0,0,1,1.32,2.21,2.12,2.12,0,0,1,.23,2.56c-.75,1.36-3.79.89-5.68.06Z" transform="translate(0 6.8)"/><path class="cls-5" d="M629.59,4.88c-1.37-1.54-2.75-4.28-1.7-5.43a5.91,5.91,0,0,1,5,0c1.06,1.15-.32,3.89-1.7,5.43Z" transform="translate(0 6.8)"/><path class="cls-5" d="M628.11,7.13c-1.88.83-4.92,1.3-5.68-.06a2.12,2.12,0,0,1,.24-2.56A2.12,2.12,0,0,1,624,2.3c1.41-.66,3.6,1.5,4.63,3.29Z" transform="translate(0 6.8)"/><path class="cls-5" d="M629.8,9.23c.21,2-.29,5.09-1.82,5.39a2.13,2.13,0,0,1-2.36-1,2.11,2.11,0,0,1-1.69-1.93c-.19-1.55,2.54-2.95,4.56-3.39Z" transform="translate(0 6.8)"/><path class="cls-5" d="M632.32,8.28c2,.44,4.75,1.84,4.56,3.39a2.13,2.13,0,0,1-1.7,1.93,2.13,2.13,0,0,1-2.36,1c-1.53-.3-2-3.34-1.81-5.39Z" transform="translate(0 6.8)"/><circle class="cls-6" cx="630.4" cy="13.82" r="3.44"/><circle class="cls-7" cx="630.4" cy="13.82" r="1.65"/><path class="cls-4" d="M669,24.41a3.6,3.6,0,0,0-1.17-3.91,3.58,3.58,0,0,0-2.08-6.37,3.58,3.58,0,0,0-5.42-4,3.59,3.59,0,0,0-6.71,0,3.58,3.58,0,0,0-5.42,4,3.58,3.58,0,0,0-2.08,6.37,3.58,3.58,0,0,0,2.08,6.38,3.58,3.58,0,0,0,5.42,3.94,3.58,3.58,0,0,0,6.71,0,3.58,3.58,0,0,0,5.42-3.94A3.6,3.6,0,0,0,669,24.41Z" transform="translate(0 6.8)"/><path class="cls-5" d="M655.53,22.29c-1.78,1-3.94,3.22-3.29,4.64a2.13,2.13,0,0,0,2.21,1.31,2.12,2.12,0,0,0,2.56.24c1.36-.76.9-3.8.06-5.69Z" transform="translate(0 6.8)"/><path class="cls-5" d="M654.82,19.7c-1.54-1.38-4.28-2.76-5.42-1.7a2.1,2.1,0,0,0-.57,2.5A2.12,2.12,0,0,0,649.4,23c1.14,1.06,3.88-.32,5.42-1.7Z" transform="translate(0 6.8)"/><path class="cls-5" d="M657.07,18.22c.84-1.89,1.3-4.93-.06-5.69a2.12,2.12,0,0,0-2.56.24,2.13,2.13,0,0,0-2.21,1.31c-.65,1.42,1.51,3.6,3.29,4.64Z" transform="translate(0 6.8)"/><path class="cls-5" d="M659.18,19.9c2.05.21,5.08-.29,5.38-1.81a2.13,2.13,0,0,0-1-2.37A2.1,2.1,0,0,0,661.61,14c-1.54-.19-3,2.54-3.39,4.56Z" transform="translate(0 6.8)"/><path class="cls-5" d="M658.22,22.42c.44,2,1.85,4.75,3.39,4.56a2.12,2.12,0,0,0,1.93-1.7,2.11,2.11,0,0,0,1-2.36c-.3-1.52-3.33-2-5.38-1.81Z" transform="translate(0 6.8)"/><circle class="cls-6" cx="656.97" cy="27.3" r="3.44"/><circle class="cls-7" cx="656.97" cy="27.3" r="1.65"/><path class="cls-4" d="M685.71,20.84a7.05,7.05,0,0,1-7.81,0,3.6,3.6,0,0,0-2.47,3.25,3.58,3.58,0,0,0-3.94,5.42,3.59,3.59,0,0,0,0,6.71,3.58,3.58,0,0,0,3.94,5.43,6.79,6.79,0,0,0,12.76,0,3.58,3.58,0,0,0,3.94-5.43,3.59,3.59,0,0,0,0-6.71,3.58,3.58,0,0,0-3.94-5.42A3.61,3.61,0,0,0,685.71,20.84Z" transform="translate(0 6.8)"/><path class="cls-5" d="M683.6,34.3c1,1.78,3.22,4,4.63,3.29a2.12,2.12,0,0,0,1.31-2.21,2.12,2.12,0,0,0,.24-2.56c-.76-1.36-3.8-.89-5.68-.06Z" transform="translate(0 6.8)"/><path class="cls-5" d="M681,35c-1.38,1.54-2.76,4.28-1.7,5.42a5.81,5.81,0,0,0,5,0c1.06-1.14-.33-3.88-1.7-5.42Z" transform="translate(0 6.8)"/><path class="cls-5" d="M679.52,32.76c-1.89-.83-4.93-1.3-5.68.06a2.12,2.12,0,0,0,.23,2.56,2.12,2.12,0,0,0,1.32,2.21c1.41.66,3.59-1.51,4.63-3.29Z" transform="translate(0 6.8)"/><path class="cls-5" d="M681.2,30.66c.21-2.05-.28-5.09-1.81-5.39a2.13,2.13,0,0,0-2.36,1,2.13,2.13,0,0,0-1.7,1.93c-.19,1.55,2.55,3,4.56,3.39Z" transform="translate(0 6.8)"/><path class="cls-5" d="M683.72,31.61c2-.44,4.75-1.84,4.57-3.39a2.13,2.13,0,0,0-1.7-1.93,2.13,2.13,0,0,0-2.36-1c-1.53.3-2,3.34-1.82,5.39Z" transform="translate(0 6.8)"/><circle class="cls-6" cx="681.81" cy="39.67" r="3.44"/><circle class="cls-7" cx="681.81" cy="39.67" r="1.65"/><path class="cls-4" d="M688.19,14.68a3.58,3.58,0,0,0,3.94-5.43,3.58,3.58,0,0,0,0-6.7A3.6,3.6,0,0,0,692-1.53a3.6,3.6,0,0,0-3.85-1.35,3.58,3.58,0,0,0-2.48-3.24,3.56,3.56,0,0,0-3.9,1.17,3.58,3.58,0,0,0-3.91-1.17,3.57,3.57,0,0,0-2.47,3.24,3.59,3.59,0,0,0-3.85,1.35,3.59,3.59,0,0,0-.09,4.08,3.58,3.58,0,0,0,0,6.7,3.58,3.58,0,0,0,3.94,5.43,6.78,6.78,0,0,0,12.76,0Z" transform="translate(0 6.8)"/><path class="cls-5" d="M683.6,4.47c1-1.78,3.22-3.95,4.63-3.29a2.12,2.12,0,0,1,1.31,2.21A2.12,2.12,0,0,1,689.78,6c-.76,1.36-3.8.89-5.68.06Z" transform="translate(0 6.8)"/><path class="cls-5" d="M681,3.76c-1.38-1.54-2.76-4.28-1.7-5.43a2.13,2.13,0,0,1,2.51-.56,2.13,2.13,0,0,1,2.51.56c1.06,1.15-.33,3.89-1.7,5.43Z" transform="translate(0 6.8)"/><path class="cls-5" d="M679.52,6c-1.89.83-4.93,1.3-5.68-.06a2.12,2.12,0,0,1,.23-2.56,2.12,2.12,0,0,1,1.32-2.21C676.8.52,679,2.69,680,4.47Z" transform="translate(0 6.8)"/><path class="cls-5" d="M681.2,8.11c.21,2.05-.28,5.09-1.81,5.39a2.13,2.13,0,0,1-2.36-1,2.13,2.13,0,0,1-1.7-1.93c-.19-1.55,2.55-3,4.56-3.39Z" transform="translate(0 6.8)"/><path class="cls-5" d="M683.72,7.16c2,.44,4.75,1.84,4.57,3.39a2.13,2.13,0,0,1-1.7,1.93,2.13,2.13,0,0,1-2.36,1c-1.53-.3-2-3.34-1.82-5.39Z" transform="translate(0 6.8)"/><circle class="cls-6" cx="681.81" cy="12.7" r="3.44"/><circle class="cls-7" cx="681.81" cy="12.7" r="1.65"/><path class="cls-4" d="M720.39,23.29a3.58,3.58,0,0,0-1.17-3.91A3.58,3.58,0,0,0,717.15,13a3.59,3.59,0,0,0-5.43-3.95,3.58,3.58,0,0,0-6.7,0A3.59,3.59,0,0,0,699.59,13a3.58,3.58,0,0,0-2.07,6.37,3.58,3.58,0,0,0,2.07,6.38A3.59,3.59,0,0,0,705,29.71a3.58,3.58,0,0,0,6.7,0,3.59,3.59,0,0,0,5.43-3.95A3.56,3.56,0,0,0,720.39,23.29Z" transform="translate(0 6.8)"/><path class="cls-5" d="M706.94,21.17c-1.79,1-4,3.22-3.29,4.64a2.12,2.12,0,0,0,2.21,1.31,2.12,2.12,0,0,0,2.56.24c1.36-.76.89-3.8.06-5.69Z" transform="translate(0 6.8)"/><path class="cls-5" d="M706.23,18.58c-1.54-1.38-4.29-2.76-5.43-1.7a2.11,2.11,0,0,0-.56,2.5,2.13,2.13,0,0,0,.56,2.51c1.14,1.06,3.89-.32,5.43-1.7Z" transform="translate(0 6.8)"/><path class="cls-5" d="M708.48,17.1c.83-1.89,1.3-4.93-.06-5.69a2.12,2.12,0,0,0-2.56.24A2.12,2.12,0,0,0,703.65,13c-.66,1.42,1.5,3.6,3.29,4.64Z" transform="translate(0 6.8)"/><path class="cls-5" d="M710.58,18.78c2,.21,5.09-.29,5.39-1.81a2.13,2.13,0,0,0-1-2.37A2.11,2.11,0,0,0,713,12.91c-1.55-.19-3,2.54-3.39,4.56Z" transform="translate(0 6.8)"/><path class="cls-5" d="M709.63,21.3c.43,2,1.84,4.75,3.39,4.56A2.11,2.11,0,0,0,715,24.17a2.13,2.13,0,0,0,1-2.37c-.3-1.52-3.34-2-5.39-1.81Z" transform="translate(0 6.8)"/><circle class="cls-6" cx="708.37" cy="26.18" r="3.44"/><circle class="cls-7" cx="708.37" cy="26.18" r="1.65"/></g></g></g></svg>