<svg xmlns="http://www.w3.org/2000/svg" xmlns:xlink="http://www.w3.org/1999/xlink" viewBox="0 0 1054.77 58.03"><defs><style>.cls-1,.cls-10{fill:#b5b0a7;}.cls-1,.cls-12,.cls-2,.cls-3,.cls-6{stroke:#60b79c;stroke-linecap:round;stroke-linejoin:round;stroke-width:2.78px;}.cls-13,.cls-2{fill:#00473e;}.cls-3{fill:#b8d6d3;}.cls-4{fill:#f8f4e1;}.cls-5{fill:#00816b;}.cls-6{fill:#601922;}.cls-7{fill:#60b79c;}.cls-8{fill:#59acbd;}.cls-9{fill:#004772;}.cls-11{clip-path:url(#clip-path);}.cls-12{fill:none;}.cls-14{clip-path:url(#clip-path-2);}</style><clipPath id="clip-path" transform="translate(9.76)"><polygon id="SVGID" class="cls-1" points="943.13 1.39 978.62 1.39 1033.86 56.63 943.13 56.63 943.13 1.39"/></clipPath><clipPath id="clip-path-2" transform="translate(9.76)"><polygon id="SVGID-2" data-name="SVGID" class="cls-2" points="92.12 1.39 56.63 1.39 1.39 56.63 92.12 56.63 92.12 1.39"/></clipPath></defs><g id="图层_2" data-name="图层 2"><g id="文件图层"><rect class="cls-3" x="330.44" y="-24.17" width="55.25" height="106.38" transform="translate(338.81 387.08) rotate(-90)"/><path class="cls-4" d="M341.19,31.8c.6,2.92-2.56,4.06-3.48,2.56s-2.21-2-2.9-.85,1,2.82,1,3.75-1.86,1.16-2.2,0-3-1-3.37.78A2.88,2.88,0,0,0,332,41.32c-1.5,1.5-1.91,5.45-.63,7.42s4.75,1.39,5.45,0-.12-3.83-.58-5.34,1.39-2.9,1.74.47,2.09,5,4.52,5.1,3.6-2.32,2.21-3.59-3.37-2.67-3-5.11,1.39-3.25,2.44-2.9-.35,1.62.34,3.65,3.37,3,4.41.64-.46-5.1,0-5.8,2.55-.81,3.25,3.25,2.44,5.69,4.29,5.69,3.77-1,3.66-3.19-2.61-2.38-3.48-3.08-1.1-2.64,1.68-1.62a24.3,24.3,0,0,0,8.58,1.74c2.09.11,3.86,1.59,2.09,3.71-1.61,1.93-4.51.68-6.38,1.62a3.42,3.42,0,0,0,.12,6c2.9,1.75,7.19.47,8.93-2.66s.35-5.92,2.09-6.73,4.17.46,2.9,2.78-2.38,4.76-1.39,6.85,6.38,2.26,7.48-2.38-.93-7.42-2.9-8.41,1.42-2.73,4.72-1.51,2.79,3.31,1.57,4.7-2,6.44.94,7.66,6.89-1.4,7.06-5.57-4.69-6.44-4.78-8.27,1.91-2.78,3.57.87,2.78,4.88,5,5,2.34-2.35,2.34-2.78,2.53.52,2.18,3.3-.52,4.18.61,5,3.74.61,3.83-3.74-2.7-7.74-6.18-8.44-6.09-1-5.83-3.65,3-2.61,5.05-1.92,5.39,1.31,6.35-1.82-1.48-4.27-2.87-4.7-.53-1.66.78-3.57.87-6.18-2.44-7S399,17,400.06,18.73s-.87,7.39-2.09,4-1.31-5.14-3.39-4.09-2.79,3.71-1.74,7.2-3.92,7.11-6.62,6.48,2.7-2,3-7.68,3-5.57,3.66-9.31-.44-8.09-3.22-8.7-5.22,1.22-4.35,4.79,3,6.09,1.74,6.87-3.4-.43-3.31-5-2.7-6.67-6.09-6.72-5.22,2.46-3,5.59,5,2.53,5.74,5.05-.18,6,1,7.83,3,3.91,1.13,7-7.75,3.22-6.7,1.48,3.83-4.26,3.3-8.53-3.74-4.87-4.69-7.57-3.14-10-7.05-10.81-8.39,2.27-7.75,6.29c.47,2.87,4.27,4.18,7.4,4.26s4.87.09,4.61,2.09a18.67,18.67,0,0,0,1.92,8.53c1.13,1.91-1,5.48-5,6s-4.53.17-2.27-2.09,4.31-4.42,3.92-7.57c-.47-3.71-4.72-4.92-6.5-2.52-1.56,2.12-.75,4,0,6.09s-2.47,5.74-8.38,5.74c-2.17,0-3.91-2-1.65-2.52s4.87.09,6.26-2.26,1.13-6.27-3.39-6.18-7.4,6.18-9.14,6.09-2.26-1.83.61-3.31,5.48-2.52,5.4-5.65-5.92-4.79-7.83-1.48-1.22,6.41-2.35,7.81-4.7-.24-2.61-4.68,4.35-3.83,5.13-6.61c1.05-3.74-2.74-6.31-6.13-3.79s-2.66,8.75-2.39,10,.08,4.74-1.4,3.56c-1-.81-1.72-3.36-.17-6.43s2.26-8.53,1.22-9.66-6.17.52-6.61,5.22,1.3,7.39,1.65,9.22-1.74,3.31-3.39.09.34-4.35,0-8.09-1.95-4.88-4.18-4.88c-2.58,0-3.92,3.48-3,6.36s1.66,4.69,1.66,5.82-3,1.31-3-3-.49-8.42-2.61-9.57c-2.35-1.28-5.57.61-5.13,5.22s-.87,5-1.92,5.65-1.65,4.26.87,5.05,4.27-1.57,6.18-.79-.45,2.71-2.26,4.46c-2.31,2.24-.79,5.81.52,8.59s.37,9.1,4.48,11,8.92,1.26,9-2.31a4.89,4.89,0,0,0-5.13-4.95c-2,.08-5-1.22-3.83-2.18s5.4.87,6-1.3-2.53-3.83-4.53-4.27S317.67,31,319.67,29s3-3,3,0,.95,5.29,3,4.85,2-2.95,4.53-3.48,4.52.61,7,.44S341,31,341.19,31.8Z" transform="translate(9.76)"/><rect class="cls-1" x="543.19" y="-24.17" width="55.25" height="106.38" transform="translate(551.56 599.83) rotate(-90)"/><path class="cls-4" d="M553.94,31.8c.61,2.92-2.55,4.06-3.48,2.56s-2.21-2-2.9-.85,1,2.82,1,3.75-1.85,1.16-2.2,0-3-1-3.37.78a2.89,2.89,0,0,0,1.69,3.28c-1.51,1.5-1.92,5.45-.64,7.42s4.75,1.39,5.45,0-.12-3.83-.58-5.34,1.39-2.9,1.74.47,2.09,5,4.52,5.1,3.6-2.32,2.21-3.59-3.37-2.67-3-5.11,1.39-3.25,2.44-2.9-.35,1.62.35,3.65,3.36,3,4.4.64-.46-5.1,0-5.8,2.56-.81,3.25,3.25,2.44,5.69,4.29,5.69,3.77-1,3.66-3.19-2.61-2.38-3.48-3.08-1.09-2.64,1.68-1.62a24.34,24.34,0,0,0,8.58,1.74c2.09.11,3.86,1.59,2.09,3.71-1.61,1.93-4.51.68-6.38,1.62a3.42,3.42,0,0,0,.12,6c2.9,1.75,7.19.47,8.93-2.66s.35-5.92,2.09-6.73,4.17.46,2.9,2.78-2.38,4.76-1.39,6.85,6.38,2.26,7.48-2.38-.93-7.42-2.9-8.41,1.42-2.73,4.73-1.51,2.78,3.31,1.56,4.7-2,6.44.94,7.66,6.89-1.4,7.07-5.57-4.7-6.44-4.79-8.27,1.92-2.78,3.57.87,2.78,4.88,5,5,2.35-2.35,2.35-2.78,2.52.52,2.17,3.3-.52,4.18.61,5,3.74.61,3.83-3.74a8.17,8.17,0,0,0-6.18-8.44c-3.48-.7-6.09-1-5.83-3.65s3-2.61,5-1.92,5.39,1.31,6.35-1.82S617.42,24,616,23.6s-.52-1.66.78-3.57.87-6.18-2.43-7-2.61,3.92-1.57,5.66-.87,7.39-2.09,4-1.3-5.14-3.39-4.09-2.79,3.71-1.74,7.2S601.67,33,599,32.32s2.69-2,2.95-7.68,3-5.57,3.66-9.31-.44-8.09-3.22-8.7-5.22,1.22-4.35,4.79,3,6.09,1.74,6.87-3.39-.43-3.31-5-2.69-6.67-6.09-6.72-5.22,2.46-3,5.59,5,2.53,5.74,5.05-.17,6,1,7.83,3,3.91,1.13,7-7.75,3.22-6.7,1.48,3.83-4.26,3.3-8.53S588,20,587.06,17.33s-3.14-10-7-10.81-8.39,2.27-7.74,6.29c.46,2.87,4.26,4.18,7.39,4.26s4.87.09,4.61,2.09a18.8,18.8,0,0,0,1.92,8.53c1.13,1.91-1,5.48-5,6s-4.53.17-2.26-2.09,4.3-4.42,3.91-7.57c-.46-3.71-4.72-4.92-6.49-2.52-1.57,2.12-.76,4,0,6.09s-2.48,5.74-8.39,5.74c-2.17,0-3.91-2-1.65-2.52s4.87.09,6.26-2.26,1.14-6.27-3.39-6.18-7.39,6.18-9.13,6.09-2.27-1.83.61-3.31,5.48-2.52,5.39-5.65-5.92-4.79-7.83-1.48-1.22,6.41-2.35,7.81-4.7-.24-2.61-4.68,4.36-3.83,5.13-6.61c1.05-3.74-2.74-6.31-6.13-3.79s-2.65,8.75-2.39,10,.08,4.74-1.39,3.56c-1-.81-1.73-3.36-.18-6.43s2.26-8.53,1.22-9.66-6.16.52-6.61,5.22,1.3,7.39,1.65,9.22-1.74,3.31-3.39.09.35-4.35,0-8.09-2-4.88-4.18-4.88c-2.58,0-3.91,3.48-3,6.36s1.65,4.69,1.65,5.82-3,1.31-3-3-.49-8.42-2.61-9.57c-2.35-1.28-5.57.61-5.13,5.22s-.87,5-1.92,5.65-1.65,4.26.87,5.05,4.27-1.57,6.18-.79-.45,2.71-2.26,4.46c-2.31,2.24-.78,5.81.52,8.59s.37,9.1,4.48,11,8.92,1.26,9-2.31a4.9,4.9,0,0,0-5.14-4.95c-2,.08-5-1.22-3.82-2.18s5.39.87,6-1.3-2.52-3.83-4.53-4.27S530.42,31,532.42,29s3-3,3,0,1,5.29,3,4.85,2-2.95,4.53-3.48,4.52.61,7,.44S553.77,31,553.94,31.8Z" transform="translate(9.76)"/><rect class="cls-2" x="436.82" y="-24.17" width="55.25" height="106.38" transform="translate(445.18 493.45) rotate(-90)"/><path class="cls-5" d="M447.56,31.8c.61,2.92-2.55,4.06-3.48,2.56s-2.2-2-2.9-.85,1.05,2.82,1.05,3.75-1.86,1.16-2.21,0-3-1-3.36.78a2.87,2.87,0,0,0,1.68,3.28c-1.51,1.5-1.91,5.45-.64,7.42s4.76,1.39,5.45,0-.11-3.83-.58-5.34,1.4-2.9,1.74.47,2.09,5,4.53,5.1,3.59-2.32,2.2-3.59-3.36-2.67-3-5.11,1.39-3.25,2.43-2.9-.35,1.62.35,3.65,3.36,3,4.41.64-.47-5.1,0-5.8,2.55-.81,3.25,3.25,2.43,5.69,4.29,5.69,3.77-1,3.65-3.19-2.61-2.38-3.48-3.08-1.09-2.64,1.68-1.62a24.34,24.34,0,0,0,8.59,1.74c2.09.11,3.86,1.59,2.09,3.71-1.62,1.93-4.52.68-6.38,1.62a3.42,3.42,0,0,0,.11,6c2.9,1.75,7.19.47,8.93-2.66s.35-5.92,2.09-6.73,4.18.46,2.9,2.78-2.38,4.76-1.39,6.85,6.38,2.26,7.48-2.38-.92-7.42-2.9-8.41,1.42-2.73,4.73-1.51,2.78,3.31,1.57,4.7-2.05,6.44.93,7.66,6.9-1.4,7.07-5.57-4.7-6.44-4.78-8.27,1.91-2.78,3.56.87,2.79,4.88,5,5,2.35-2.35,2.35-2.78,2.52.52,2.18,3.3-.53,4.18.6,5,3.75.61,3.83-3.74A8.16,8.16,0,0,0,507,35.69c-3.48-.7-6.09-1-5.83-3.65s2.95-2.61,5-1.92,5.4,1.31,6.35-1.82S511,24,509.65,23.6s-.52-1.66.79-3.57.87-6.18-2.44-7-2.61,3.92-1.57,5.66-.87,7.39-2.08,4S503,17.59,501,18.64s-2.78,3.71-1.74,7.2S495.3,33,492.6,32.32s2.7-2,3-7.68,3-5.57,3.65-9.31-.43-8.09-3.22-8.7-5.22,1.22-4.35,4.79,3,6.09,1.74,6.87-3.39-.43-3.3-5-2.7-6.67-6.09-6.72-5.22,2.46-3.05,5.59,5.05,2.53,5.74,5.05-.17,6,1,7.83,3,3.91,1.13,7-7.74,3.22-6.7,1.48,3.83-4.26,3.31-8.53-3.74-4.87-4.7-7.57-3.13-10-7.05-10.81-8.39,2.27-7.74,6.29c.46,2.87,4.26,4.18,7.4,4.26s4.87.09,4.61,2.09a18.79,18.79,0,0,0,1.91,8.53c1.13,1.91-1,5.48-4.95,6s-4.53.17-2.27-2.09,4.31-4.42,3.91-7.57c-.46-3.71-4.71-4.92-6.49-2.52-1.57,2.12-.75,4,0,6.09s-2.48,5.74-8.38,5.74c-2.18,0-3.92-2-1.66-2.52s4.88.09,6.27-2.26,1.13-6.27-3.39-6.18-7.4,6.18-9.14,6.09-2.26-1.83.61-3.31,5.48-2.52,5.39-5.65-5.91-4.79-7.83-1.48-1.21,6.41-2.35,7.81-4.69-.24-2.61-4.68,4.36-3.83,5.14-6.61c1-3.74-2.74-6.31-6.14-3.79s-2.65,8.75-2.39,10,.09,4.74-1.39,3.56c-1-.81-1.73-3.36-.17-6.43s2.26-8.53,1.21-9.66-6.16.52-6.6,5.22,1.3,7.39,1.64,9.22-1.74,3.31-3.39.09.35-4.35,0-8.09-1.94-4.88-4.17-4.88c-2.59,0-3.92,3.48-3.05,6.36s1.65,4.69,1.65,5.82-2.95,1.31-2.95-3-.49-8.42-2.61-9.57c-2.35-1.28-5.57.61-5.14,5.22s-.87,5-1.91,5.65-1.65,4.26.87,5.05,4.26-1.57,6.18-.79-.46,2.71-2.27,4.46c-2.3,2.24-.78,5.81.53,8.59s.36,9.1,4.48,11,8.91,1.26,9-2.31a4.89,4.89,0,0,0-5.13-4.95c-2,.08-5-1.22-3.83-2.18s5.39.87,6-1.3S430,34,428,33.6,424,31,426,29s3-3,3,0,1,5.29,3.05,4.85,2-2.95,4.52-3.48,4.53.61,7.05.44S447.39,31,447.56,31.8Z" transform="translate(9.76)"/><rect class="cls-3" x="755.94" y="-24.17" width="55.25" height="106.38" transform="translate(764.31 812.58) rotate(-90)"/><path class="cls-4" d="M766.69,31.8c.61,2.92-2.55,4.06-3.48,2.56s-2.2-2-2.9-.85,1,2.82,1,3.75-1.85,1.16-2.2,0-3-1-3.36.78a2.87,2.87,0,0,0,1.68,3.28c-1.51,1.5-1.92,5.45-.64,7.42s4.76,1.39,5.45,0-.11-3.83-.58-5.34,1.39-2.9,1.74.47,2.09,5,4.53,5.1,3.59-2.32,2.2-3.59-3.36-2.67-3-5.11,1.4-3.25,2.44-2.9-.35,1.62.35,3.65,3.36,3,4.41.64-.47-5.1,0-5.8,2.55-.81,3.24,3.25,2.44,5.69,4.3,5.69,3.77-1,3.65-3.19-2.61-2.38-3.48-3.08-1.09-2.64,1.68-1.62a24.34,24.34,0,0,0,8.59,1.74c2.08.11,3.85,1.59,2.08,3.71C792.8,44.29,789.9,43,788,44a3.42,3.42,0,0,0,.12,6c2.9,1.75,7.19.47,8.93-2.66s.35-5.92,2.09-6.73,4.18.46,2.9,2.78-2.38,4.76-1.39,6.85,6.38,2.26,7.48-2.38-.93-7.42-2.9-8.41S806.68,36.73,810,38s2.78,3.31,1.56,4.7-2,6.44.94,7.66,6.89-1.4,7.07-5.57-4.7-6.44-4.79-8.27,1.92-2.78,3.57.87,2.78,4.88,5,5,2.35-2.35,2.35-2.78,2.52.52,2.17,3.3-.52,4.18.61,5,3.74.61,3.83-3.74a8.17,8.17,0,0,0-6.18-8.44c-3.48-.7-6.09-1-5.83-3.65s3-2.61,5-1.92,5.39,1.31,6.35-1.82-1.48-4.27-2.87-4.7-.52-1.66.78-3.57.87-6.18-2.43-7-2.61,3.92-1.57,5.66-.87,7.39-2.09,4-1.3-5.14-3.39-4.09-2.78,3.71-1.74,7.2-3.92,7.11-6.61,6.48,2.69-2,3-7.68,2.95-5.57,3.65-9.31-.44-8.09-3.22-8.7-5.22,1.22-4.35,4.79,3,6.09,1.74,6.87-3.39-.43-3.31-5-2.69-6.67-6.09-6.72-5.22,2.46-3,5.59,5,2.53,5.74,5.05-.17,6,1,7.83,3,3.91,1.13,7-7.74,3.22-6.7,1.48,3.83-4.26,3.31-8.53-3.74-4.87-4.7-7.57-3.13-10-7-10.81-8.39,2.27-7.74,6.29c.46,2.87,4.26,4.18,7.39,4.26s4.88.09,4.61,2.09a18.8,18.8,0,0,0,1.92,8.53c1.13,1.91-1,5.48-5,6s-4.52.17-2.26-2.09S796,27.18,795.63,24c-.46-3.71-4.72-4.92-6.49-2.52-1.57,2.12-.76,4,0,6.09s-2.48,5.74-8.38,5.74c-2.18,0-3.92-2-1.66-2.52s4.87.09,6.27-2.26,1.13-6.27-3.4-6.18-7.39,6.18-9.13,6.09-2.26-1.83.61-3.31,5.48-2.52,5.39-5.65S772.93,14.72,771,18s-1.22,6.41-2.35,7.81-4.7-.24-2.61-4.68,4.36-3.83,5.14-6.61c1-3.74-2.75-6.31-6.14-3.79s-2.65,8.75-2.39,10,.09,4.74-1.39,3.56c-1-.81-1.73-3.36-.18-6.43s2.27-8.53,1.22-9.66-6.16.52-6.6,5.22,1.29,7.39,1.64,9.22-1.74,3.31-3.39.09.35-4.35,0-8.09S752,9.76,749.78,9.76c-2.58,0-3.91,3.48-3,6.36s1.65,4.69,1.65,5.82-3,1.31-3-3-.49-8.42-2.61-9.57c-2.35-1.28-5.57.61-5.13,5.22s-.87,5-1.91,5.65-1.66,4.26.87,5.05,4.26-1.57,6.17-.79-.45,2.71-2.26,4.46c-2.3,2.24-.78,5.81.52,8.59s.37,9.1,4.48,11,8.92,1.26,9-2.31a4.89,4.89,0,0,0-5.14-4.95c-2,.08-4.95-1.22-3.82-2.18s5.39.87,6-1.3-2.52-3.83-4.52-4.27S743.17,31,745.17,29s3-3,3,0,1,5.29,3,4.85,2-2.95,4.52-3.48,4.52.61,7,.44S766.52,31,766.69,31.8Z" transform="translate(9.76)"/><rect class="cls-2" x="862.32" y="-24.17" width="55.25" height="106.38" transform="translate(870.69 918.96) rotate(-90)"/><path class="cls-5" d="M873.07,31.8c.6,2.92-2.56,4.06-3.48,2.56s-2.21-2-2.9-.85,1,2.82,1,3.75-1.86,1.16-2.2,0-3-1-3.37.78a2.88,2.88,0,0,0,1.68,3.28c-1.5,1.5-1.91,5.45-.63,7.42s4.75,1.39,5.45,0-.12-3.83-.58-5.34,1.39-2.9,1.74.47,2.09,5,4.52,5.1,3.6-2.32,2.21-3.59-3.37-2.67-3-5.11,1.39-3.25,2.44-2.9-.35,1.62.34,3.65,3.37,3,4.41.64-.46-5.1,0-5.8,2.55-.81,3.25,3.25,2.44,5.69,4.29,5.69,3.77-1,3.66-3.19-2.61-2.38-3.48-3.08-1.1-2.64,1.68-1.62a24.3,24.3,0,0,0,8.58,1.74c2.09.11,3.86,1.59,2.09,3.71-1.61,1.93-4.51.68-6.38,1.62a3.42,3.42,0,0,0,.12,6c2.9,1.75,7.19.47,8.93-2.66s.35-5.92,2.09-6.73,4.17.46,2.9,2.78-2.38,4.76-1.4,6.85,6.38,2.26,7.49-2.38-.93-7.42-2.9-8.41,1.42-2.73,4.72-1.51,2.79,3.31,1.57,4.7-2,6.44.94,7.66,6.89-1.4,7.06-5.57-4.69-6.44-4.78-8.27,1.91-2.78,3.57.87,2.78,4.88,4.95,5S932,40,932,39.52s2.53.52,2.18,3.3-.52,4.18.61,5,3.74.61,3.83-3.74-2.7-7.74-6.18-8.44-6.09-1-5.83-3.65,3-2.61,5-1.92,5.39,1.31,6.35-1.82-1.48-4.27-2.87-4.7-.53-1.66.78-3.57.87-6.18-2.44-7-2.61,3.92-1.56,5.66-.87,7.39-2.09,4-1.31-5.14-3.39-4.09-2.79,3.71-1.74,7.2S920.8,33,918.1,32.32s2.7-2,3-7.68,3-5.57,3.66-9.31-.44-8.09-3.22-8.7-5.22,1.22-4.35,4.79,3,6.09,1.74,6.87-3.4-.43-3.31-5-2.7-6.67-6.09-6.72-5.22,2.46-3,5.59,5,2.53,5.74,5.05-.18,6,.95,7.83,3,3.91,1.14,7-7.75,3.22-6.7,1.48,3.82-4.26,3.3-8.53-3.74-4.87-4.7-7.57-3.13-10-7-10.81-8.39,2.27-7.75,6.29c.47,2.87,4.27,4.18,7.4,4.26s4.87.09,4.61,2.09a18.79,18.79,0,0,0,1.91,8.53c1.14,1.91-1,5.48-4.95,6s-4.53.17-2.27-2.09S902.4,27.18,902,24c-.47-3.71-4.72-4.92-6.5-2.52-1.56,2.12-.75,4,0,6.09s-2.47,5.74-8.38,5.74c-2.17,0-3.91-2-1.65-2.52s4.87.09,6.26-2.26,1.13-6.27-3.39-6.18-7.4,6.18-9.14,6.09-2.26-1.83.61-3.31,5.48-2.52,5.4-5.65-5.92-4.79-7.83-1.48-1.22,6.41-2.35,7.81-4.7-.24-2.61-4.68,4.35-3.83,5.13-6.61c1.05-3.74-2.74-6.31-6.13-3.79s-2.66,8.75-2.39,10,.08,4.74-1.4,3.56c-1-.81-1.72-3.36-.17-6.43s2.26-8.53,1.22-9.66-6.17.52-6.61,5.22,1.3,7.39,1.65,9.22-1.74,3.31-3.4.09.35-4.35,0-8.09-1.94-4.88-4.17-4.88c-2.58,0-3.92,3.48-3,6.36s1.66,4.69,1.66,5.82-3,1.31-3-3-.49-8.42-2.61-9.57c-2.35-1.28-5.57.61-5.13,5.22s-.87,5-1.92,5.65-1.65,4.26.87,5.05,4.26-1.57,6.18-.79-.45,2.71-2.26,4.46c-2.31,2.24-.79,5.81.52,8.59s.37,9.1,4.48,11,8.92,1.26,9-2.31a4.89,4.89,0,0,0-5.13-4.95c-2,.08-5-1.22-3.83-2.18s5.4.87,6-1.3-2.53-3.83-4.53-4.27S849.55,31,851.55,29s3-3,3,0,1,5.29,3,4.85,2-2.95,4.53-3.48,4.52.61,7,.44S872.9,31,873.07,31.8Z" transform="translate(9.76)"/><rect class="cls-6" x="224.06" y="-24.17" width="55.25" height="106.38" transform="translate(232.43 280.7) rotate(-90)"/><path class="cls-7" d="M266.36,25.71c2.32-12.52-2.19-17.86-5.64-19.13-3.82-1.41-6.57.4-6.93,3.68s1.33,5.83,4.52,7.63S265.22,21.77,266.36,25.71Z" transform="translate(9.76)"/><path class="cls-5" d="M265,19.3c0,.25,0,.5,0,.75a28.55,28.55,0,0,0-5.72-3.87c-1.63-.93-3.57-2.56-3.57-5.11a5.83,5.83,0,0,1,0-.59,2.73,2.73,0,0,1,1.12-2.07,3.68,3.68,0,0,1,3.16,0c2.41.89,5,4.21,5,10.87Z" transform="translate(9.76)"/><path class="cls-8" d="M267.64,24.25c4.33-12,10.91-14.31,14.54-13.67,4,.72,5.46,3.67,4.11,6.68s-4.09,4.36-7.76,4.3S270.62,21.42,267.64,24.25Z" transform="translate(9.76)"/><path class="cls-9" d="M272,19.39c-.13.21-.25.43-.37.65a28.6,28.6,0,0,1,6.88-.45c1.88,0,4.38-.4,5.67-2.61a4.25,4.25,0,0,0,.27-.52,2.7,2.7,0,0,0,.08-2.35,3.7,3.7,0,0,0-2.74-1.58c-2.53-.45-6.43,1.11-9.79,6.86Z" transform="translate(9.76)"/><path class="cls-7" d="M249.31,44.8a2.38,2.38,0,1,0,0,4.76,2.38,2.38,0,0,0,4.76,0,2.38,2.38,0,0,0,0-4.76,2.38,2.38,0,0,0-4.76,0Z" transform="translate(9.76)"/><path class="cls-5" d="M250.39,45.88a1.3,1.3,0,1,0,0,2.6,1.3,1.3,0,0,0,2.59,0,1.3,1.3,0,1,0,0-2.6,1.3,1.3,0,1,0-2.59,0Z" transform="translate(9.76)"/><path class="cls-8" d="M249.39,37.21a2.3,2.3,0,0,0-2.24,2.84,2.27,2.27,0,0,0,1.69,1.7,2.32,2.32,0,0,0,2.34-.79.65.65,0,0,1,1,0A2.3,2.3,0,1,0,254,37.21a2.3,2.3,0,0,0-4.6,0Z" transform="translate(9.76)"/><path class="cls-9" d="M255.1,39.51a1.33,1.33,0,0,1,0,.28,1.11,1.11,0,0,1-1.95.42,1.84,1.84,0,0,0-1.43-.68,1.82,1.82,0,0,0-1.43.69,1.13,1.13,0,0,1-1.15.38,1.11,1.11,0,0,1-.81-.81,1.33,1.33,0,0,1,0-.28,1.12,1.12,0,0,1,1.12-1.11h1.18V37.21a1.12,1.12,0,1,1,2.23,0V38.4H254a1.09,1.09,0,0,1,1.11,1.11Z" transform="translate(9.76)"/><path class="cls-8" d="M251.69,14.67a5.39,5.39,0,0,1,5.37,5,5.94,5.94,0,0,1,4.78,5.81,6,6,0,0,1-.32,1.92A6.27,6.27,0,0,1,260.3,38a4.71,4.71,0,0,0-3.87-2A4.74,4.74,0,0,0,247,36a4.71,4.71,0,0,0-3.87,2,6.27,6.27,0,0,1-1.22-10.64,6,6,0,0,1-.32-1.92,5.93,5.93,0,0,1,4.77-5.81A5.4,5.4,0,0,1,251.69,14.67Z" transform="translate(9.76)"/><path class="cls-9" d="M251.69,16.64a3.43,3.43,0,0,1,3.4,3.15l.12,1.49,1.47.3a4,4,0,0,1,3.19,3.87,4.05,4.05,0,0,1-.22,1.28l-.45,1.33,1.1.86a4.29,4.29,0,0,1,1.67,3.4,4.34,4.34,0,0,1-1.38,3.15c-.9-2.1-3.94-6.19-8.9-6.19s-8,4.09-8.91,6.19a4.33,4.33,0,0,1-1.37-3.15,4.28,4.28,0,0,1,1.66-3.4l1.1-.86-.45-1.33a4.05,4.05,0,0,1-.22-1.28,4,4,0,0,1,3.2-3.87l1.46-.3.12-1.49A3.43,3.43,0,0,1,251.69,16.64Z" transform="translate(9.76)"/><path class="cls-7" d="M256.29,44.58c9,.39,14.45-2.76,18-7.49,3.16-4.18,2.26-7.28,1-8.18a3.15,3.15,0,0,0-4.12.58c-1.13-1.37-4.35-1.56-5.93,3.71A19.45,19.45,0,0,1,256.29,44.58Z" transform="translate(9.76)"/><path class="cls-5" d="M274.51,31.73a7.49,7.49,0,0,1-1.76,4.17,16.1,16.1,0,0,1-10.41,6.36,21.2,21.2,0,0,0,4.81-8.49c.63-2.11,1.26-3,2.08-3,1.18,0,1.83,1.66,1.83,1.66l1.53-1.54h0a1.13,1.13,0,0,1,1.91.79v.07Z" transform="translate(9.76)"/><path class="cls-8" d="M259,46.16c11.69,2.7,19.69-2.28,22.56-5.53a9,9,0,0,1,7.83-3.08c2.26.17,5.4-.29,6.09-4.12s-2.82-6.25-6.78-5.88-6.9,2-11.63,9.39S262.55,45.61,259,46.16Z" transform="translate(9.76)"/><path class="cls-9" d="M293.61,32.48a3.21,3.21,0,0,1-.06.6c-.25,1.37-.92,2.74-4,2.5a10.93,10.93,0,0,0-9.46,3.74,17.25,17.25,0,0,1-7.55,4.59,18.63,18.63,0,0,0,6.2-5.91c4.77-7.45,7.22-8.22,10.15-8.49a5.13,5.13,0,0,1,3.87,1.07,2.5,2.5,0,0,1,.85,1.9Z" transform="translate(9.76)"/><path class="cls-7" d="M237,25.71c-2.32-12.52,2.18-17.86,5.64-19.13,3.81-1.41,6.56.4,6.92,3.68s-1.33,5.83-4.52,7.63S238.16,21.77,237,25.71Z" transform="translate(9.76)"/><path class="cls-5" d="M238.35,19.3c0,.25,0,.5,0,.75a28.21,28.21,0,0,1,5.71-3.87c1.64-.93,3.58-2.56,3.58-5.11a3.9,3.9,0,0,0,0-.59,2.7,2.7,0,0,0-1.12-2.07,3.68,3.68,0,0,0-3.16,0c-2.41.89-5,4.21-5,10.87Z" transform="translate(9.76)"/><path class="cls-8" d="M235.73,24.25c-4.32-12-10.91-14.31-14.53-13.67-4,.72-5.46,3.67-4.12,6.68s4.1,4.36,7.76,4.3S232.76,21.42,235.73,24.25Z" transform="translate(9.76)"/><path class="cls-9" d="M231.34,19.39l.37.65a28.71,28.71,0,0,0-6.89-.45c-1.88,0-4.38-.4-5.67-2.61a4.25,4.25,0,0,1-.27-.52,2.7,2.7,0,0,1-.07-2.35,3.66,3.66,0,0,1,2.73-1.58c2.53-.45,6.44,1.11,9.8,6.86Z" transform="translate(9.76)"/><path class="cls-7" d="M247.09,44.58c-9,.39-14.45-2.76-18-7.49-3.16-4.18-2.26-7.28-1-8.18a3.14,3.14,0,0,1,4.11.58c1.14-1.37,4.35-1.56,5.93,3.71A19.46,19.46,0,0,0,247.09,44.58Z" transform="translate(9.76)"/><path class="cls-5" d="M228.87,31.73a7.42,7.42,0,0,0,1.76,4.17A16.1,16.1,0,0,0,241,42.26a21.2,21.2,0,0,1-4.81-8.49c-.64-2.11-1.27-3-2.08-3-1.19,0-1.83,1.66-1.83,1.66l-1.53-1.54h0a1.13,1.13,0,0,0-1.9.79v.07Z" transform="translate(9.76)"/><path class="cls-8" d="M244.36,46.16c-11.68,2.7-19.69-2.28-22.56-5.53A9,9,0,0,0,214,37.55c-2.26.17-5.39-.29-6.09-4.12s2.83-6.25,6.79-5.88,6.89,2,11.62,9.39S240.83,45.61,244.36,46.16Z" transform="translate(9.76)"/><path class="cls-9" d="M209.77,32.48a4.28,4.28,0,0,0,0,.6c.25,1.37.92,2.74,4,2.5a10.91,10.91,0,0,1,9.46,3.74,17.31,17.31,0,0,0,7.55,4.59,18.63,18.63,0,0,1-6.2-5.91c-4.77-7.45-7.21-8.22-10.14-8.49a5.12,5.12,0,0,0-3.87,1.07,2.47,2.47,0,0,0-.85,1.9Z" transform="translate(9.76)"/><rect class="cls-6" x="649.57" y="-24.17" width="55.25" height="106.38" transform="translate(657.94 706.21) rotate(-90)"/><path class="cls-7" d="M691.86,25.71c2.32-12.52-2.18-17.86-5.64-19.13-3.82-1.41-6.56.4-6.93,3.68s1.34,5.83,4.53,7.63S690.72,21.77,691.86,25.71Z" transform="translate(9.76)"/><path class="cls-5" d="M690.52,19.3c0,.25,0,.5,0,.75a28.49,28.49,0,0,0-5.71-3.87c-1.64-.93-3.58-2.56-3.58-5.11a5.83,5.83,0,0,1,0-.59,2.73,2.73,0,0,1,1.12-2.07,3.7,3.7,0,0,1,3.17,0c2.41.89,5,4.21,5,10.87Z" transform="translate(9.76)"/><path class="cls-8" d="M693.15,24.25c4.32-12,10.9-14.31,14.53-13.67,4,.72,5.46,3.67,4.12,6.68s-4.1,4.36-7.76,4.3S696.12,21.42,693.15,24.25Z" transform="translate(9.76)"/><path class="cls-9" d="M697.54,19.39c-.13.21-.25.43-.37.65a28.68,28.68,0,0,1,6.89-.45c1.88,0,4.37-.4,5.67-2.61.09-.16.18-.34.26-.52a2.67,2.67,0,0,0,.08-2.35,3.68,3.68,0,0,0-2.73-1.58c-2.53-.45-6.44,1.11-9.8,6.86Z" transform="translate(9.76)"/><path class="cls-7" d="M674.81,44.8a2.38,2.38,0,1,0,0,4.76,2.38,2.38,0,0,0,4.76,0,2.38,2.38,0,0,0,0-4.76,2.38,2.38,0,1,0-4.76,0Z" transform="translate(9.76)"/><path class="cls-5" d="M675.89,45.88a1.3,1.3,0,0,0,0,2.6,1.3,1.3,0,0,0,2.6,0,1.3,1.3,0,0,0,0-2.6,1.3,1.3,0,1,0-2.6,0Z" transform="translate(9.76)"/><path class="cls-8" d="M674.89,37.21A2.3,2.3,0,1,0,676.68,41a.65.65,0,0,1,1,0,2.31,2.31,0,0,0,2.33.79,2.27,2.27,0,0,0,1.7-1.7,2.31,2.31,0,0,0-2.24-2.84,2.3,2.3,0,1,0-4.6,0Z" transform="translate(9.76)"/><path class="cls-9" d="M680.61,39.51a1.33,1.33,0,0,1,0,.28,1.12,1.12,0,0,1-2,.42,1.84,1.84,0,0,0-1.43-.68,1.82,1.82,0,0,0-1.43.69,1.13,1.13,0,0,1-1.15.38,1.1,1.1,0,0,1-.8-.81.9.9,0,0,1,0-.28,1.12,1.12,0,0,1,1.12-1.11h1.18V37.21a1.12,1.12,0,0,1,2.24,0V38.4h1.18a1.11,1.11,0,0,1,1.12,1.11Z" transform="translate(9.76)"/><path class="cls-8" d="M677.19,14.67a5.38,5.38,0,0,1,5.37,5,5.94,5.94,0,0,1,4.78,5.81,5.77,5.77,0,0,1-.32,1.92A6.27,6.27,0,0,1,685.81,38a4.75,4.75,0,0,0-3.88-2,4.74,4.74,0,0,0-9.47,0,4.75,4.75,0,0,0-3.88,2,6.28,6.28,0,0,1-1.22-10.64,6,6,0,0,1-.32-1.92,5.93,5.93,0,0,1,4.78-5.81A5.39,5.39,0,0,1,677.19,14.67Z" transform="translate(9.76)"/><path class="cls-9" d="M677.19,16.64a3.43,3.43,0,0,1,3.4,3.15l.12,1.49,1.47.3a4,4,0,0,1,3.19,3.87,3.79,3.79,0,0,1-.22,1.28l-.44,1.33,1.1.86a4.3,4.3,0,0,1,.28,6.55c-.9-2.1-3.93-6.19-8.9-6.19s-8,4.09-8.9,6.19a4.3,4.3,0,0,1,.28-6.55l1.1-.86-.44-1.33a3.8,3.8,0,0,1-.23-1.28,4,4,0,0,1,3.2-3.87l1.47-.3.12-1.49A3.42,3.42,0,0,1,677.19,16.64Z" transform="translate(9.76)"/><path class="cls-7" d="M681.79,44.58c9,.39,14.45-2.76,18-7.49,3.16-4.18,2.26-7.28,1-8.18a3.15,3.15,0,0,0-4.12.58c-1.13-1.37-4.35-1.56-5.93,3.71A19.41,19.41,0,0,1,681.79,44.58Z" transform="translate(9.76)"/><path class="cls-5" d="M700,31.73a7.42,7.42,0,0,1-1.76,4.17,16.1,16.1,0,0,1-10.41,6.36,21.2,21.2,0,0,0,4.81-8.49c.64-2.11,1.26-3,2.08-3,1.19,0,1.83,1.66,1.83,1.66l1.53-1.54h0a1.13,1.13,0,0,1,1.91.79v.07Z" transform="translate(9.76)"/><path class="cls-8" d="M684.51,46.16c11.69,2.7,19.69-2.28,22.57-5.53a9,9,0,0,1,7.83-3.08c2.26.17,5.39-.29,6.09-4.12s-2.83-6.25-6.79-5.88-6.89,2-11.62,9.39S688.05,45.61,684.51,46.16Z" transform="translate(9.76)"/><path class="cls-9" d="M719.11,32.48a3.21,3.21,0,0,1-.06.6c-.24,1.37-.91,2.74-4,2.5a10.91,10.91,0,0,0-9.46,3.74,17.31,17.31,0,0,1-7.55,4.59,18.82,18.82,0,0,0,6.2-5.91c4.77-7.45,7.21-8.22,10.14-8.49a5.13,5.13,0,0,1,3.87,1.07,2.47,2.47,0,0,1,.85,1.9Z" transform="translate(9.76)"/><path class="cls-7" d="M662.52,25.71c-2.32-12.52,2.19-17.86,5.64-19.13,3.82-1.41,6.56.4,6.93,3.68s-1.34,5.83-4.53,7.63S663.66,21.77,662.52,25.71Z" transform="translate(9.76)"/><path class="cls-5" d="M663.86,19.3c0,.25,0,.5,0,.75a28.77,28.77,0,0,1,5.71-3.87c1.64-.93,3.58-2.56,3.58-5.11a5.83,5.83,0,0,0,0-.59A2.73,2.73,0,0,0,672,8.41a3.68,3.68,0,0,0-3.16,0c-2.42.89-5,4.21-5,10.87Z" transform="translate(9.76)"/><path class="cls-8" d="M661.24,24.25c-4.33-12-10.91-14.31-14.54-13.67-4,.72-5.46,3.67-4.11,6.68s4.09,4.36,7.75,4.3S658.26,21.42,661.24,24.25Z" transform="translate(9.76)"/><path class="cls-9" d="M656.84,19.39c.13.21.25.43.37.65a28.65,28.65,0,0,0-6.89-.45c-1.88,0-4.37-.4-5.66-2.61a4.25,4.25,0,0,1-.27-.52,2.7,2.7,0,0,1-.08-2.35,3.7,3.7,0,0,1,2.74-1.58c2.53-.45,6.43,1.11,9.79,6.86Z" transform="translate(9.76)"/><path class="cls-7" d="M672.59,44.58c-9,.39-14.45-2.76-18-7.49-3.17-4.18-2.27-7.28-1-8.18a3.15,3.15,0,0,1,4.12.58c1.13-1.37,4.35-1.56,5.93,3.71A19.45,19.45,0,0,0,672.59,44.58Z" transform="translate(9.76)"/><path class="cls-5" d="M654.37,31.73a7.49,7.49,0,0,0,1.76,4.17,16.1,16.1,0,0,0,10.41,6.36,21.2,21.2,0,0,1-4.81-8.49c-.63-2.11-1.26-3-2.08-3-1.19,0-1.83,1.66-1.83,1.66l-1.53-1.54h0a1.13,1.13,0,0,0-1.91.79v.07Z" transform="translate(9.76)"/><path class="cls-8" d="M669.87,46.16c-11.69,2.7-19.69-2.28-22.56-5.53a9,9,0,0,0-7.83-3.08c-2.27.17-5.4-.29-6.09-4.12s2.82-6.25,6.78-5.88,6.89,2,11.63,9.39S666.33,45.61,669.87,46.16Z" transform="translate(9.76)"/><path class="cls-9" d="M635.27,32.48a3.21,3.21,0,0,0,.06.6c.25,1.37.92,2.74,4,2.5a10.94,10.94,0,0,1,9.47,3.74,17.21,17.21,0,0,0,7.54,4.59,18.82,18.82,0,0,1-6.2-5.91c-4.77-7.45-7.21-8.22-10.14-8.49a5.13,5.13,0,0,0-3.87,1.07,2.5,2.5,0,0,0-.85,1.9Z" transform="translate(9.76)"/><polygon id="SVGID-3" data-name="SVGID" class="cls-10" points="952.89 1.39 988.38 1.39 1043.62 56.63 952.89 56.63 952.89 1.39"/><g class="cls-11"><path class="cls-4" d="M979.44,31.8c.61,2.92-2.55,4.06-3.48,2.56s-2.2-2-2.9-.85,1.05,2.82,1.05,3.75-1.86,1.16-2.21,0-3-1-3.36.78a2.87,2.87,0,0,0,1.68,3.28c-1.51,1.5-1.91,5.45-.64,7.42s4.76,1.39,5.45,0-.11-3.83-.58-5.34,1.4-2.9,1.74.47,2.09,5,4.53,5.1,3.59-2.32,2.2-3.59-3.36-2.67-3-5.11,1.39-3.25,2.43-2.9S982,39,982.69,41s3.36,3,4.41.64-.47-5.1,0-5.8,2.55-.81,3.25,3.25,2.43,5.69,4.29,5.69,3.77-1,3.65-3.19-2.61-2.38-3.48-3.08-1.09-2.64,1.68-1.62a24.34,24.34,0,0,0,8.59,1.74c2.09.11,3.86,1.59,2.09,3.71-1.62,1.93-4.52.68-6.38,1.62a3.42,3.42,0,0,0,.11,6c2.9,1.75,7.19.47,8.93-2.66s.35-5.92,2.09-6.73,4.18.46,2.9,2.78-2.38,4.76-1.39,6.85,6.38,2.26,7.48-2.38-.93-7.42-2.9-8.41,1.42-2.73,4.73-1.51,2.78,3.31,1.57,4.7-2,6.44.93,7.66,6.9-1.4,7.07-5.57-4.7-6.44-4.79-8.27,1.92-2.78,3.57.87,2.79,4.88,5,5,2.35-2.35,2.35-2.78,2.52.52,2.17,3.3-.52,4.18.61,5,3.75.61,3.83-3.74a8.17,8.17,0,0,0-6.18-8.44c-3.48-.7-6.09-1-5.82-3.65s3-2.61,5-1.92,5.4,1.31,6.35-1.82-1.48-4.27-2.87-4.7-.52-1.66.78-3.57.87-6.18-2.43-7-2.61,3.92-1.57,5.66-.87,7.39-2.09,4-1.3-5.14-3.39-4.09-2.78,3.71-1.74,7.2-3.91,7.11-6.61,6.48,2.7-2,3-7.68,3-5.57,3.65-9.31-.43-8.09-3.22-8.7-5.22,1.22-4.35,4.79,3,6.09,1.74,6.87-3.39-.43-3.3-5-2.7-6.67-6.09-6.72-5.22,2.46-3,5.59,5,2.53,5.74,5.05-.17,6,1,7.83,3,3.91,1.13,7-7.74,3.22-6.7,1.48,3.83-4.26,3.31-8.53-3.74-4.87-4.7-7.57-3.13-10-7-10.81-8.39,2.27-7.74,6.29c.46,2.87,4.26,4.18,7.4,4.26s4.87.09,4.61,2.09a18.79,18.79,0,0,0,1.91,8.53c1.13,1.91-1,5.48-5,6s-4.53.17-2.27-2.09,4.31-4.42,3.91-7.57c-.46-3.71-4.72-4.92-6.49-2.52-1.57,2.12-.75,4,0,6.09s-2.48,5.74-8.38,5.74c-2.18,0-3.92-2-1.66-2.52s4.88.09,6.27-2.26,1.13-6.27-3.39-6.18-7.4,6.18-9.14,6.09-2.26-1.83.61-3.31,5.48-2.52,5.39-5.65-5.91-4.79-7.83-1.48-1.21,6.41-2.35,7.81-4.69-.24-2.61-4.68,4.36-3.83,5.14-6.61c1-3.74-2.74-6.31-6.14-3.79s-2.65,8.75-2.39,10,.09,4.74-1.39,3.56c-1-.81-1.73-3.36-.18-6.43s2.27-8.53,1.22-9.66-6.16.52-6.6,5.22,1.3,7.39,1.64,9.22-1.74,3.31-3.39.09.35-4.35,0-8.09-1.94-4.88-4.18-4.88c-2.58,0-3.91,3.48-3,6.36s1.65,4.69,1.65,5.82-3,1.31-3-3-.48-8.42-2.61-9.57c-2.34-1.28-5.56.61-5.13,5.22s-.87,5-1.91,5.65-1.66,4.26.87,5.05,4.26-1.57,6.17-.79-.45,2.71-2.26,4.46c-2.3,2.24-.78,5.81.52,8.59s.37,9.1,4.49,11,8.91,1.26,9-2.31a4.89,4.89,0,0,0-5.13-4.95c-2,.08-5-1.22-3.83-2.18s5.39.87,6-1.3-2.52-3.83-4.52-4.27S955.92,31,957.92,29s3-3,3,0,1,5.29,3,4.85,2-2.95,4.52-3.48,4.52.61,7,.44S979.27,31,979.44,31.8Z" transform="translate(9.76)"/></g><polygon id="SVGID-4" data-name="SVGID" class="cls-12" points="952.89 1.39 988.38 1.39 1043.62 56.63 952.89 56.63 952.89 1.39"/><rect class="cls-1" x="117.69" y="-24.17" width="55.25" height="106.38" transform="translate(126.06 174.33) rotate(-90)"/><path class="cls-4" d="M162.19,31.8c-.61,2.92,2.55,4.06,3.48,2.56s2.2-2,2.9-.85-1,2.82-1,3.75,1.86,1.16,2.21,0,3-1,3.36.78a2.87,2.87,0,0,1-1.68,3.28c1.51,1.5,1.91,5.45.64,7.42s-4.76,1.39-5.45,0,.11-3.83.58-5.34-1.4-2.9-1.74.47-2.09,5-4.53,5.1-3.59-2.32-2.2-3.59,3.36-2.67,3-5.11-1.39-3.25-2.43-2.9.35,1.62-.35,3.65-3.36,3-4.41.64.47-5.1,0-5.8-2.55-.81-3.25,3.25S148.85,44.8,147,44.8s-3.77-1-3.65-3.19,2.61-2.38,3.48-3.08,1.09-2.64-1.68-1.62a24.34,24.34,0,0,1-8.59,1.74c-2.09.11-3.86,1.59-2.09,3.71,1.62,1.93,4.52.68,6.38,1.62a3.42,3.42,0,0,1-.11,6c-2.9,1.75-7.19.47-8.93-2.66s-.35-5.92-2.09-6.73-4.18.46-2.9,2.78,2.38,4.76,1.39,6.85-6.38,2.26-7.48-2.38.93-7.42,2.9-8.41-1.42-2.73-4.73-1.51-2.78,3.31-1.57,4.7,2.05,6.44-.93,7.66-6.9-1.4-7.07-5.57,4.7-6.44,4.79-8.27-1.92-2.78-3.57.87-2.79,4.88-5,5-2.35-2.35-2.35-2.78-2.52.52-2.18,3.3.53,4.18-.6,5-3.75.61-3.83-3.74a8.16,8.16,0,0,1,6.17-8.44c3.48-.7,6.1-1,5.83-3.65s-3-2.61-5-1.92-5.4,1.31-6.35-1.82,1.48-4.27,2.87-4.7.52-1.66-.79-3.57-.87-6.18,2.44-7,2.61,3.92,1.57,5.66.87,7.39,2.08,4,1.31-5.14,3.4-4.09,2.78,3.71,1.74,7.2,3.91,7.11,6.61,6.48-2.7-2-3-7.68-3-5.57-3.65-9.31.43-8.09,3.22-8.7,5.22,1.22,4.35,4.79-3,6.09-1.74,6.87,3.39-.43,3.3-5,2.7-6.67,6.09-6.72,5.22,2.46,3,5.59-5,2.53-5.74,5.05.17,6-1,7.83-3,3.91-1.13,7,7.74,3.22,6.7,1.48-3.83-4.26-3.31-8.53,3.74-4.87,4.7-7.57,3.13-10,7.05-10.81,8.39,2.27,7.74,6.29c-.46,2.87-4.26,4.18-7.4,4.26s-4.87.09-4.61,2.09a18.79,18.79,0,0,1-1.91,8.53c-1.13,1.91,1,5.48,4.95,6s4.53.17,2.27-2.09-4.31-4.42-3.91-7.57c.46-3.71,4.71-4.92,6.49-2.52,1.57,2.12.75,4,0,6.09s2.48,5.74,8.38,5.74c2.18,0,3.92-2,1.66-2.52s-4.88.09-6.27-2.26-1.13-6.27,3.39-6.18,7.4,6.18,9.14,6.09,2.26-1.83-.61-3.31S150,22.64,150,19.51,156,14.72,157.87,18s1.21,6.41,2.35,7.81,4.69-.24,2.61-4.68-4.36-3.83-5.14-6.61c-1-3.74,2.74-6.31,6.14-3.79s2.65,8.75,2.39,10-.09,4.74,1.39,3.56c1-.81,1.73-3.36.17-6.43s-2.26-8.53-1.21-9.66,6.16.52,6.6,5.22-1.3,7.39-1.64,9.22,1.74,3.31,3.39.09-.35-4.35,0-8.09,1.94-4.88,4.18-4.88c2.58,0,3.91,3.48,3,6.36s-1.65,4.69-1.65,5.82,3,1.31,3-3,.48-8.42,2.61-9.57c2.34-1.28,5.56.61,5.13,5.22s.87,5,1.91,5.65,1.66,4.26-.87,5.05-4.26-1.57-6.17-.79.45,2.71,2.26,4.46c2.3,2.24.78,5.81-.52,8.59s-.37,9.1-4.49,11-8.91,1.26-9-2.31a4.89,4.89,0,0,1,5.13-4.95c2,.08,5-1.22,3.83-2.18s-5.39.87-6-1.3,2.52-3.83,4.52-4.27S185.71,31,183.71,29s-3-3-3,0-1,5.29-3.05,4.85-2-2.95-4.52-3.48-4.53.61-7.05.44S162.36,31,162.19,31.8Z" transform="translate(9.76)"/><polygon id="SVGID-5" data-name="SVGID" class="cls-13" points="101.88 1.39 66.39 1.39 11.15 56.63 101.88 56.63 101.88 1.39"/><g class="cls-14"><path class="cls-4" d="M55.81,31.8c-.61,2.92,2.55,4.06,3.48,2.56s2.21-2,2.9-.85-1,2.82-1,3.75,1.85,1.16,2.2,0,3-1,3.37.78A2.89,2.89,0,0,1,65,41.32c1.51,1.5,1.92,5.45.64,7.42s-4.75,1.39-5.45,0,.12-3.83.58-5.34-1.39-2.9-1.74.47-2.09,5-4.52,5.1-3.6-2.32-2.21-3.59,3.37-2.67,3-5.11S54,37,52.91,37.37,53.26,39,52.56,41s-3.36,3-4.4.64.46-5.1,0-5.8-2.56-.81-3.25,3.25-2.44,5.69-4.29,5.69-3.77-1-3.66-3.19,2.61-2.38,3.48-3.08,1.09-2.64-1.68-1.62a24.34,24.34,0,0,1-8.58,1.74c-2.09.11-3.86,1.59-2.09,3.71C29.7,44.29,32.6,43,34.47,44a3.42,3.42,0,0,1-.12,6c-2.9,1.75-7.19.47-8.93-2.66s-.35-5.92-2.09-6.73-4.17.46-2.9,2.78,2.38,4.76,1.39,6.85-6.38,2.26-7.48-2.38.93-7.42,2.9-8.41S15.82,36.73,12.51,38,9.73,41.26,11,42.65s2,6.44-.94,7.66-6.89-1.4-7.07-5.57,4.7-6.44,4.79-8.27-1.91-2.78-3.57.87-2.78,4.88-5,5S-3.15,40-3.15,39.52s-2.52.52-2.17,3.3.52,4.18-.61,5-3.74.61-3.83-3.74a8.17,8.17,0,0,1,6.18-8.44c3.48-.7,6.09-1,5.83-3.65s-3-2.61-5-1.92-5.39,1.31-6.35-1.82S-7.67,24-6.28,23.6s.52-1.66-.78-3.57-.87-6.18,2.43-7S-2,17-3.06,18.73s.87,7.39,2.09,4,1.3-5.14,3.39-4.09,2.79,3.71,1.74,7.2S8.08,33,10.77,32.32s-2.69-2-2.95-7.68-3-5.57-3.66-9.31.44-8.09,3.22-8.7,5.22,1.22,4.35,4.79-3,6.09-1.74,6.87,3.39-.43,3.31-5S16,6.57,19.39,6.52s5.22,2.46,3,5.59-5,2.53-5.74,5.05.17,6-1,7.83-3,3.91-1.13,7,7.75,3.22,6.7,1.48S17.47,29.17,18,24.9s3.74-4.87,4.69-7.57,3.14-10,7-10.81,8.39,2.27,7.74,6.29C37,15.68,33.22,17,30.09,17.07s-4.87.09-4.61,2.09a18.8,18.8,0,0,1-1.92,8.53c-1.13,1.91,1,5.48,5,6s4.53.17,2.26-2.09-4.3-4.42-3.91-7.57c.46-3.71,4.72-4.92,6.49-2.52,1.57,2.12.76,4,0,6.09s2.48,5.74,8.39,5.74c2.17,0,3.91-2,1.65-2.52s-4.87.09-6.26-2.26S36,22.29,40.53,22.38s7.39,6.18,9.13,6.09,2.27-1.83-.61-3.31-5.48-2.52-5.39-5.65,5.92-4.79,7.83-1.48,1.22,6.41,2.35,7.81,4.7-.24,2.61-4.68-4.36-3.83-5.13-6.61c-1-3.74,2.74-6.31,6.13-3.79s2.65,8.75,2.39,10-.08,4.74,1.39,3.56c1-.81,1.73-3.36.18-6.43S59.15,9.33,60.19,8.2s6.16.52,6.61,5.22-1.3,7.39-1.65,9.22,1.74,3.31,3.39.09-.34-4.35,0-8.09,1.95-4.88,4.18-4.88c2.58,0,3.91,3.48,3,6.36s-1.65,4.69-1.65,5.82,3,1.31,3-3,.49-8.42,2.61-9.57c2.35-1.28,5.57.61,5.13,5.22s.87,5,1.92,5.65,1.65,4.26-.87,5.05-4.27-1.57-6.18-.79.45,2.71,2.26,4.46c2.31,2.24.78,5.81-.52,8.59s-.37,9.1-4.48,11-8.92,1.26-9-2.31a4.9,4.9,0,0,1,5.14-4.95c2,.08,5-1.22,3.83-2.18s-5.4.87-6-1.3S73.42,34,75.42,33.6,79.33,31,77.33,29s-3-3-3,0-1,5.29-3,4.85-2-2.95-4.53-3.48-4.52.61-7,.44S56,31,55.81,31.8Z" transform="translate(9.76)"/></g><polygon id="SVGID-6" data-name="SVGID" class="cls-12" points="101.88 1.39 66.39 1.39 11.15 56.63 101.88 56.63 101.88 1.39"/></g></g></svg>