<svg xmlns="http://www.w3.org/2000/svg" xmlns:xlink="http://www.w3.org/1999/xlink" viewBox="0 0 1554.69 58.03"><defs><style>.cls-1,.cls-2{fill:#601922;}.cls-1,.cls-11,.cls-4{stroke:#60b79c;}.cls-1,.cls-10,.cls-11,.cls-4{stroke-linecap:round;stroke-linejoin:round;}.cls-1,.cls-11{stroke-width:2.78px;}.cls-3{clip-path:url(#clip-path);}.cls-11,.cls-4{fill:none;}.cls-4{stroke-width:2.09px;}.cls-5{fill:#60b79c;}.cls-6{fill:#00816b;}.cls-7{fill:#00473e;}.cls-8{fill:#59acbd;}.cls-10,.cls-9{fill:#004772;}.cls-10{stroke:#59acbd;stroke-width:1.39px;}</style><clipPath id="clip-path" transform="translate(169.08)"><polygon id="SVGID" class="cls-1" points="1144.35 56.64 1089.1 1.39 56.63 1.39 1.39 56.64 1144.35 56.64"/></clipPath></defs><g id="图层_2" data-name="图层 2"><g id="文件图层"><polygon id="SVGID-2" data-name="SVGID" class="cls-2" points="1313.43 56.64 1258.19 1.39 225.72 1.39 170.48 56.64 1313.43 56.64"/><g class="cls-3"><path class="cls-4" d="M1093.65,53.35c21.75,3,32.51-8.68,31.95-23.59-.46-12.25-9.18-25.63-30.28-25.63s-32,21.93-35.71,29.17c-3,5.78-9.69,18.7-27.21,19.88a54.87,54.87,0,0,1-17.53-1.36" transform="translate(169.08)"/><path class="cls-5" d="M996.15,32.19c6.56.63,6.78,4.63,6.78,4.63a6.64,6.64,0,0,1,7.19,6.07c4.71,2,6,6.21,5.9,10.29a15.85,15.85,0,0,1-2.34-.63c.05-3.81-2.84-7.48-4.82-7.85-.62-3.82-4.18-6.29-6.78-5.68a6.21,6.21,0,0,0-5.27-4.7A16.11,16.11,0,0,1,996.15,32.19Z" transform="translate(169.08)"/><path class="cls-6" d="M996.81,34.32a6.21,6.21,0,0,1,5.27,4.7c2.6-.61,6.16,1.86,6.78,5.68,2,.37,4.87,4,4.82,7.85C1005.41,49.63,999,40.15,996.81,34.32Z" transform="translate(169.08)"/><path class="cls-4" d="M1057.18,37.68c2.1-3.75,2.43-9.36,2.43-11.21,0-15-9.46-22.34-20.54-22.34-6,0-8.61,1.33-9.74,2.72" transform="translate(169.08)"/><path class="cls-5" d="M1003.93,19.12c.42-.6.84-1.18,1.25-1.73A14,14,0,0,0,1017,13.25c2.23.23,7.23-.68,9.27-5.13l1.76.21c-1.31,6.17-7.4,7.39-9.93,7.13A14.17,14.17,0,0,1,1003.93,19.12Z" transform="translate(169.08)"/><path class="cls-6" d="M1005.18,17.39c5.5-7.29,10.61-10.36,21.09-9.27-2,4.45-7,5.36-9.27,5.13A14,14,0,0,1,1005.18,17.39Z" transform="translate(169.08)"/><path class="cls-5" d="M1054.73,19.12c-.42-.6-.84-1.18-1.25-1.73a14,14,0,0,1-11.82-4.14c-2.23.23-7.23-.68-9.27-5.13l-1.76.21c1.31,6.17,7.4,7.39,9.93,7.13A14.17,14.17,0,0,0,1054.73,19.12Z" transform="translate(169.08)"/><path class="cls-6" d="M1053.48,17.39C1048,10.1,1042.87,7,1032.39,8.12c2,4.45,7,5.36,9.27,5.13A14,14,0,0,0,1053.48,17.39Z" transform="translate(169.08)"/><path class="cls-5" d="M1007.13,28.1a7.73,7.73,0,0,1,12-6.47,7.12,7.12,0,0,0,3.26,5.42,4.79,4.79,0,0,0,.24.73,7.18,7.18,0,0,0,13.44,0,4.79,4.79,0,0,0,.24-.73,7.2,7.2,0,0,0,3.26-5.42,7.73,7.73,0,0,1,12,6.47,7.75,7.75,0,0,1-5.82,7.5,7.74,7.74,0,0,1-7.33,10.22,7.48,7.48,0,0,1-1.44-.14,7.74,7.74,0,0,1-15.22,0,7.48,7.48,0,0,1-1.44.14A7.74,7.74,0,0,1,1013,35.6,7.74,7.74,0,0,1,1007.13,28.1Z" transform="translate(169.08)"/><path class="cls-6" d="M1014.87,23.32a4.9,4.9,0,0,1,1.58.27,10,10,0,0,0,3.41,5.29,10.14,10.14,0,0,0,18.94,0,10,10,0,0,0,3.4-5.29,5,5,0,0,1,1.59-.27,4.78,4.78,0,0,1,1.18,9.41l-3.09.8,1,3a4.73,4.73,0,0,1,.26,1.53,4.79,4.79,0,0,1-4.78,4.78,4.38,4.38,0,0,1-.88-.09l-2.93-.56-.54,2.93a4.78,4.78,0,0,1-9.4,0l-.54-2.93-2.93.56a4.38,4.38,0,0,1-.88.09,4.79,4.79,0,0,1-4.78-4.78,5,5,0,0,1,.25-1.53l1-3-3.09-.8a4.78,4.78,0,0,1,1.18-9.41Z" transform="translate(169.08)"/><path class="cls-7" d="M1022.6,18.88l.32-.48a28.11,28.11,0,0,1,6.41-6.5,28.11,28.11,0,0,1,6.41,6.5s.22.33.32.48a4.24,4.24,0,0,1-1.55,5.79,4.44,4.44,0,0,1-1,.4c0,.06,0,.11,0,.17a4.23,4.23,0,1,1-8.46,0v-.17a4.58,4.58,0,0,1-.95-.4A4.24,4.24,0,0,1,1022.6,18.88Z" transform="translate(169.08)"/><path class="cls-4" d="M1223.12,53.35c21.75,3,32.51-8.68,32-23.59-.46-12.25-9.18-25.63-30.28-25.63-23.87,0-32,21.93-35.71,29.17-3,5.78-9.69,18.7-27.21,19.88-10.79.64-28.47-1.45-36.5-26.07" transform="translate(169.08)"/><path class="cls-4" d="M1186.65,37.68c2.1-3.75,2.43-9.36,2.43-11.21,0-15-9.46-22.34-20.54-22.34-6,0-8.61,1.33-9.74,2.72" transform="translate(169.08)"/><path class="cls-4" d="M1352.59,53.35c21.75,3,32.51-8.68,32-23.59-.46-12.25-9.18-25.63-30.28-25.63-23.87,0-32,21.93-35.71,29.17-3,5.78-9.69,19.35-27.21,20.52-10.79.65-28.47-2.09-36.5-26.71" transform="translate(169.08)"/><path class="cls-4" d="M1316.12,37.68c2.1-3.75,2.43-9.36,2.43-11.21,0-15-9.46-22.34-20.54-22.34-6,0-8.61,1.33-9.74,2.72" transform="translate(169.08)"/><path class="cls-5" d="M1197.72,40.78c.42.6.84,1.18,1.25,1.73a14,14,0,0,1,11.82,4.14c2.23-.23,7.23.68,9.27,5.14l1.76-.22c-1.31-6.17-7.4-7.39-9.93-7.13A14.17,14.17,0,0,0,1197.72,40.78Z" transform="translate(169.08)"/><path class="cls-6" d="M1199,42.51c5.5,7.29,10.61,10.36,21.09,9.28-2-4.46-7-5.37-9.27-5.14A14,14,0,0,0,1199,42.51Z" transform="translate(169.08)"/><path class="cls-5" d="M1248.53,40.78c-.43.6-.85,1.18-1.26,1.73a14,14,0,0,0-11.82,4.14c-2.23-.23-7.23.68-9.27,5.14l-1.76-.22c1.31-6.17,7.4-7.39,9.93-7.13A14.18,14.18,0,0,1,1248.53,40.78Z" transform="translate(169.08)"/><path class="cls-6" d="M1247.27,42.51c-5.5,7.29-10.6,10.36-21.09,9.28,2-4.46,7-5.37,9.27-5.14A14,14,0,0,1,1247.27,42.51Z" transform="translate(169.08)"/><path class="cls-5" d="M1200.92,31.8a7.73,7.73,0,0,0,12,6.47,7.12,7.12,0,0,1,3.26-5.42,4.79,4.79,0,0,1,.24-.73,7.18,7.18,0,0,1,13.44,0,4.79,4.79,0,0,1,.24.73,7.21,7.21,0,0,1,3.26,5.42,7.74,7.74,0,1,0,6.16-14,7.74,7.74,0,0,0-7.33-10.22,7.56,7.56,0,0,0-1.44.14,7.74,7.74,0,0,0-15.22,0,7.48,7.48,0,0,0-1.44-.14,7.74,7.74,0,0,0-7.33,10.22A7.75,7.75,0,0,0,1200.92,31.8Z" transform="translate(169.08)"/><path class="cls-6" d="M1208.67,36.58a4.63,4.63,0,0,0,1.57-.27,10,10,0,0,1,3.41-5.29,10.14,10.14,0,0,1,18.94,0,10,10,0,0,1,3.4,5.28,5,5,0,0,0,1.59.27,4.78,4.78,0,0,0,1.18-9.41l-3.09-.79,1-3a5,5,0,0,0,.25-1.53,4.79,4.79,0,0,0-4.78-4.78,4.38,4.38,0,0,0-.88.09l-2.93.57-.54-2.94a4.78,4.78,0,0,0-9.4,0l-.54,2.94-2.93-.57a4.38,4.38,0,0,0-.88-.09,4.79,4.79,0,0,0-4.78,4.78,4.73,4.73,0,0,0,.26,1.53l1,3-3.09.79a4.78,4.78,0,0,0,1.19,9.41Z" transform="translate(169.08)"/><path class="cls-7" d="M1216.39,41l.32.48a28.11,28.11,0,0,0,6.41,6.5,28.11,28.11,0,0,0,6.41-6.5l.32-.48a4.24,4.24,0,0,0-1.55-5.79,4.58,4.58,0,0,0-1-.4v-.17a4.23,4.23,0,0,0-8.46,0c0,.06,0,.12,0,.17a4.44,4.44,0,0,0-1,.4A4.24,4.24,0,0,0,1216.39,41Z" transform="translate(169.08)"/><path class="cls-5" d="M1068.25,40.78c.42.6.84,1.18,1.25,1.73a14,14,0,0,1,11.82,4.14c2.23-.23,7.23.68,9.27,5.14l1.76-.22c-1.31-6.17-7.4-7.39-9.93-7.13A14.17,14.17,0,0,0,1068.25,40.78Z" transform="translate(169.08)"/><path class="cls-6" d="M1069.5,42.51c5.5,7.29,10.61,10.36,21.09,9.28-2-4.46-7-5.37-9.27-5.14A14,14,0,0,0,1069.5,42.51Z" transform="translate(169.08)"/><path class="cls-5" d="M1119.05,40.78c-.42.6-.84,1.18-1.25,1.73A14,14,0,0,0,1106,46.65c-2.23-.23-7.23.68-9.27,5.14l-1.76-.22c1.31-6.17,7.4-7.39,9.93-7.13A14.17,14.17,0,0,1,1119.05,40.78Z" transform="translate(169.08)"/><path class="cls-6" d="M1117.8,42.51c-5.5,7.29-10.61,10.36-21.09,9.28,2-4.46,7-5.37,9.27-5.14A14,14,0,0,1,1117.8,42.51Z" transform="translate(169.08)"/><path class="cls-5" d="M1083.27,37.23c.15.24.47.73.49.74a43.47,43.47,0,0,0,9.89,10,43.27,43.27,0,0,0,9.89-10s.34-.5.49-.74a6.54,6.54,0,0,0-2.39-8.92,6.67,6.67,0,0,0-1.47-.62c0-.09,0-.17,0-.26a6.53,6.53,0,1,0-13.06,0c0,.09,0,.17,0,.26a6.67,6.67,0,0,0-1.47.62A6.54,6.54,0,0,0,1083.27,37.23Z" transform="translate(169.08)"/><path class="cls-6" d="M1093.65,23.86a3.58,3.58,0,0,1,3.57,3.53c0,.11,0,.2,0,.3V29.9l2.11.63a3.48,3.48,0,0,1,.81.33,3.58,3.58,0,0,1,1.37,4.84l-.25.36a3.23,3.23,0,0,1-.18.28h0a38.12,38.12,0,0,1-7.42,7.92,38.12,38.12,0,0,1-7.42-7.92l-.44-.65a3.59,3.59,0,0,1,1.35-4.81,3.86,3.86,0,0,1,.84-.34l2.11-.63V27.69c0-.1,0-.2,0-.3A3.58,3.58,0,0,1,1093.65,23.86Z" transform="translate(169.08)"/><path class="cls-8" d="M1072,39.25c.16,0,.49.14.5.13a25.43,25.43,0,0,0,8.22.6,25.38,25.38,0,0,0,.48-8.23s0-.35-.06-.51a3.84,3.84,0,0,0-4.5-3,3.73,3.73,0,0,0-.89.3l-.09-.12a3.82,3.82,0,0,0-5.75,5,1.14,1.14,0,0,1,.11.11,3.45,3.45,0,0,0-.41.84A3.82,3.82,0,0,0,1072,39.25Z" transform="translate(169.08)"/><path class="cls-9" d="M1071.39,29.36a2.1,2.1,0,0,1,2.93.17,1.71,1.71,0,0,0,.11.14l.85,1,1.18-.54a1.92,1.92,0,0,1,.48-.16,2.07,2.07,0,0,1,1.59.31,2.1,2.1,0,0,1,.88,1.29c0,.07,0,.17,0,.25l0,.19h0a22.15,22.15,0,0,1-.22,6.35,22.74,22.74,0,0,1-6.32-.62l-.44-.12a2,2,0,0,1-1.16-1,2.11,2.11,0,0,1-.1-1.6,2,2,0,0,1,.23-.47l.69-1.09-.85-1-.12-.13A2.08,2.08,0,0,1,1071.39,29.36Z" transform="translate(169.08)"/><path class="cls-5" d="M1075.23,24.11l.41.33a25.38,25.38,0,0,0,7.24,3.92,25.14,25.14,0,0,0,3.82-7.3s.11-.34.15-.5A3.81,3.81,0,0,0,1084,16a3.68,3.68,0,0,0-.93-.1.83.83,0,0,0,0-.15,3.82,3.82,0,1,0-7.3,2.23.58.58,0,0,0,0,.14,4.1,4.1,0,0,0-.72.6A3.83,3.83,0,0,0,1075.23,24.11Z" transform="translate(169.08)"/><path class="cls-6" d="M1078.76,14.85a2.1,2.1,0,0,1,2.6,1.36c0,.07,0,.12.05.18l.37,1.23h1.29a2.37,2.37,0,0,1,.51.05,2.1,2.1,0,0,1,1.59,2.48c0,.07-.05.16-.07.24a1.05,1.05,0,0,0,0,.19h0a22.39,22.39,0,0,1-2.81,5.7,22.25,22.25,0,0,1-5.51-3.16l-.35-.29a2.08,2.08,0,0,1-.63-1.43,2,2,0,0,1,.57-1.49,1.7,1.7,0,0,1,.4-.34l1.08-.72-.38-1.23a1.09,1.09,0,0,0-.05-.17A2.09,2.09,0,0,1,1078.76,14.85Z" transform="translate(169.08)"/><path class="cls-8" d="M1115.32,39.25c-.15,0-.49.14-.5.13a25.43,25.43,0,0,1-8.22.6,25.38,25.38,0,0,1-.48-8.23s0-.35.07-.51a3.82,3.82,0,0,1,4.49-3,3.73,3.73,0,0,1,.89.3l.09-.12a3.82,3.82,0,0,1,5.75,5,1.14,1.14,0,0,0-.11.11,3.45,3.45,0,0,1,.41.84A3.82,3.82,0,0,1,1115.32,39.25Z" transform="translate(169.08)"/><path class="cls-9" d="M1115.91,29.36a2.1,2.1,0,0,0-2.93.17,1.71,1.71,0,0,1-.11.14l-.85,1-1.17-.54a2,2,0,0,0-.49-.16,2.07,2.07,0,0,0-1.59.31,2.1,2.1,0,0,0-.88,1.29c0,.07,0,.17,0,.25l0,.19h0a22.15,22.15,0,0,0,.22,6.35,22.67,22.67,0,0,0,6.32-.62l.44-.12a2,2,0,0,0,1.16-1,2.11,2.11,0,0,0,.1-1.6,2,2,0,0,0-.23-.47l-.69-1.09.85-1,.12-.13A2.08,2.08,0,0,0,1115.91,29.36Z" transform="translate(169.08)"/><path class="cls-5" d="M1112.07,24.11l-.4.33a25.54,25.54,0,0,1-7.25,3.92,25.14,25.14,0,0,1-3.82-7.3s-.11-.34-.15-.5a3.81,3.81,0,0,1,2.86-4.58,3.68,3.68,0,0,1,.93-.1.83.83,0,0,1,0-.15,3.82,3.82,0,1,1,7.3,2.23.58.58,0,0,1,0,.14,4.1,4.1,0,0,1,.72.6A3.83,3.83,0,0,1,1112.07,24.11Z" transform="translate(169.08)"/><path class="cls-6" d="M1108.54,14.85a2.1,2.1,0,0,0-2.6,1.36c0,.07,0,.12,0,.18l-.38,1.23h-1.29a2.37,2.37,0,0,0-.51.05,2.06,2.06,0,0,0-1.32.94,2,2,0,0,0-.27,1.54c0,.07,0,.16.07.24l.06.19h0a22.4,22.4,0,0,0,2.8,5.7,22.25,22.25,0,0,0,5.51-3.16l.35-.29a2.09,2.09,0,0,0,.07-2.92,2,2,0,0,0-.41-.34l-1.08-.72.38-1.23a.58.58,0,0,1,.06-.17A2.1,2.1,0,0,0,1108.54,14.85Z" transform="translate(169.08)"/><path class="cls-10" d="M1091.23,14.58a1.83,1.83,0,0,0,.85-.29,1.72,1.72,0,0,0-.3.85,1.87,1.87,0,0,0,3.74,0,1.72,1.72,0,0,0-.3-.85,1.87,1.87,0,1,0,0-3.15,1.72,1.72,0,0,0,.3-.85,1.87,1.87,0,0,0-3.74,0,1.72,1.72,0,0,0,.3.85,1.83,1.83,0,0,0-.85-.29,1.87,1.87,0,1,0,0,3.73Z" transform="translate(169.08)"/><path class="cls-5" d="M1262.45,19.12c.43-.6.84-1.18,1.25-1.73a14,14,0,0,0,11.83-4.14c2.23.23,7.22-.68,9.26-5.13l1.76.21c-1.3,6.17-7.39,7.39-9.92,7.13A14.19,14.19,0,0,1,1262.45,19.12Z" transform="translate(169.08)"/><path class="cls-6" d="M1263.7,17.39c5.51-7.29,10.61-10.36,21.09-9.27-2,4.45-7,5.36-9.26,5.13A14,14,0,0,1,1263.7,17.39Z" transform="translate(169.08)"/><path class="cls-5" d="M1313.26,19.12c-.42-.6-.84-1.18-1.25-1.73a14,14,0,0,1-11.83-4.14c-2.22.23-7.22-.68-9.26-5.13l-1.76.21c1.31,6.17,7.4,7.39,9.92,7.13A14.19,14.19,0,0,0,1313.26,19.12Z" transform="translate(169.08)"/><path class="cls-6" d="M1312,17.39C1306.5,10.1,1301.4,7,1290.92,8.12c2,4.45,7,5.36,9.26,5.13A14,14,0,0,0,1312,17.39Z" transform="translate(169.08)"/><path class="cls-5" d="M1277.48,22.67c.15-.24.47-.73.49-.74a43.27,43.27,0,0,1,9.89-10,43.27,43.27,0,0,1,9.88,10s.35.5.5.74a6.53,6.53,0,0,1-2.4,8.92,6.29,6.29,0,0,1-1.47.62c0,.09,0,.17,0,.26a6.53,6.53,0,1,1-13.05,0c0-.09,0-.17,0-.26a6.52,6.52,0,0,1-3.86-9.54Z" transform="translate(169.08)"/><path class="cls-6" d="M1287.86,36a3.57,3.57,0,0,0,3.56-3.52c0-.12,0-.21,0-.31V30l2.12-.63a3.65,3.65,0,0,0,.81-.34,3.58,3.58,0,0,0,1.69-2.18,3.53,3.53,0,0,0-.33-2.66l-.24-.36-.18-.27h0a38.12,38.12,0,0,0-7.42-7.92,38.14,38.14,0,0,0-7.43,7.92l-.43.65a3.56,3.56,0,0,0,1.35,4.81,4.32,4.32,0,0,0,.83.35l2.12.63v2.2c0,.1,0,.2,0,.31A3.57,3.57,0,0,0,1287.86,36Z" transform="translate(169.08)"/><path class="cls-8" d="M1266.18,20.65l.51-.13a25.42,25.42,0,0,1,8.22-.6,25.38,25.38,0,0,1,.48,8.23s0,.35-.07.51a3.82,3.82,0,0,1-4.49,3,3.73,3.73,0,0,1-.89-.3l-.1.12a3.82,3.82,0,0,1-5.74-5l.1-.11a3.84,3.84,0,0,1,2-5.69Z" transform="translate(169.08)"/><path class="cls-9" d="M1265.6,30.54a2.07,2.07,0,0,0,2.92-.17l.12-.14.85-1,1.17.54a2,2,0,0,0,.49.16,2,2,0,0,0,1.58-.3,2.07,2.07,0,0,0,.88-1.3,1.87,1.87,0,0,0,0-.25,1.23,1.23,0,0,1,0-.19h0a22.21,22.21,0,0,0-.21-6.35,22.67,22.67,0,0,0-6.32.62l-.44.12a2,2,0,0,0-1.16,1,2.07,2.07,0,0,0-.1,1.6,2,2,0,0,0,.23.47l.69,1.1-.85,1-.13.13A2.08,2.08,0,0,0,1265.6,30.54Z" transform="translate(169.08)"/><path class="cls-5" d="M1269.44,35.8l.4-.34a25.41,25.41,0,0,1,7.25-3.92,25.65,25.65,0,0,1,3.82,7.3s.11.34.15.5a3.82,3.82,0,0,1-2.86,4.58,3.68,3.68,0,0,1-.93.1s0,.1,0,.15a3.82,3.82,0,0,1-7.31-2.23.78.78,0,0,0,0-.14,4,4,0,0,1-.71-.6A3.81,3.81,0,0,1,1269.44,35.8Z" transform="translate(169.08)"/><path class="cls-6" d="M1273,45.05a2.1,2.1,0,0,0,2.6-1.36c0-.07,0-.12,0-.17l.38-1.24h1.29a2.44,2.44,0,0,0,.51,0,2.08,2.08,0,0,0,1.59-2.48c0-.07-.05-.16-.07-.24l-.06-.18h0a22.4,22.4,0,0,0-2.8-5.7,22.25,22.25,0,0,0-5.51,3.16l-.35.29a2.1,2.1,0,0,0-.07,2.93,2,2,0,0,0,.41.33l1.08.72-.38,1.23-.06.17A2.09,2.09,0,0,0,1273,45.05Z" transform="translate(169.08)"/><path class="cls-8" d="M1309.53,20.65l-.51-.13a25.36,25.36,0,0,0-8.21-.6,25.32,25.32,0,0,0-.49,8.23s0,.35.07.51a3.79,3.79,0,0,0,5.38,2.71l.1.12a3.82,3.82,0,0,0,5.74-5l-.1-.11a3.81,3.81,0,0,0-2-5.69Z" transform="translate(169.08)"/><path class="cls-9" d="M1310.12,30.54a2.08,2.08,0,0,1-2.93-.17l-.11-.14-.85-1-1.18.54a1.92,1.92,0,0,1-.48.16,2.07,2.07,0,0,1-2.47-1.6c0-.07,0-.17,0-.25l0-.19h0a22.58,22.58,0,0,1,.21-6.35,22.67,22.67,0,0,1,6.32.62l.44.12a2,2,0,0,1,1.16,1,2.07,2.07,0,0,1,.11,1.6,2.62,2.62,0,0,1-.24.47l-.68,1.1.85,1,.12.13A2.08,2.08,0,0,1,1310.12,30.54Z" transform="translate(169.08)"/><path class="cls-5" d="M1306.27,35.8l-.4-.34a25.38,25.38,0,0,0-7.24-3.92,25.37,25.37,0,0,0-3.83,7.3l-.15.5a3.83,3.83,0,0,0,2.86,4.58,3.78,3.78,0,0,0,.93.1.83.83,0,0,1,0,.15,3.82,3.82,0,1,0,7.31-2.23s0-.09,0-.14a4.1,4.1,0,0,0,.72-.6A3.81,3.81,0,0,0,1306.27,35.8Z" transform="translate(169.08)"/><path class="cls-6" d="M1302.74,45.05a2.09,2.09,0,0,1-2.59-1.36c0-.07,0-.12-.05-.17l-.38-1.24h-1.29a2.51,2.51,0,0,1-.51,0,2.08,2.08,0,0,1-1.59-2.48c0-.07.05-.16.08-.24a1.21,1.21,0,0,1,0-.18h0a22.07,22.07,0,0,1,2.81-5.7,22.21,22.21,0,0,1,5.5,3.16l.36.29a2.07,2.07,0,0,1,.62,1.43,2.1,2.1,0,0,1-.56,1.5,2,2,0,0,1-.41.33l-1.07.72.37,1.23.06.17A2.09,2.09,0,0,1,1302.74,45.05Z" transform="translate(169.08)"/><path class="cls-10" d="M1285.43,45.32a1.8,1.8,0,0,1,.85.29,1.8,1.8,0,0,1-.29-.85,1.87,1.87,0,0,1,3.73,0,1.8,1.8,0,0,1-.29.85,1.83,1.83,0,0,1,.85-.29,1.87,1.87,0,1,1,0,3.73,1.83,1.83,0,0,1-.85-.29,1.83,1.83,0,0,1,.29.85,1.87,1.87,0,1,1-3.73,0,1.83,1.83,0,0,1,.29-.85,1.8,1.8,0,0,1-.85.29,1.87,1.87,0,0,1,0-3.73Z" transform="translate(169.08)"/><path class="cls-5" d="M1133.4,19.12c.42-.6.84-1.18,1.25-1.73a14,14,0,0,0,11.82-4.14c2.23.23,7.23-.68,9.27-5.13l1.76.21c-1.31,6.17-7.4,7.39-9.93,7.13A14.17,14.17,0,0,1,1133.4,19.12Z" transform="translate(169.08)"/><path class="cls-6" d="M1134.65,17.39c5.5-7.29,10.61-10.36,21.09-9.27-2,4.45-7,5.36-9.27,5.13A14,14,0,0,1,1134.65,17.39Z" transform="translate(169.08)"/><path class="cls-5" d="M1184.2,19.12c-.42-.6-.84-1.18-1.25-1.73a14,14,0,0,1-11.82-4.14c-2.23.23-7.23-.68-9.27-5.13l-1.76.21c1.31,6.17,7.4,7.39,9.93,7.13A14.17,14.17,0,0,0,1184.2,19.12Z" transform="translate(169.08)"/><path class="cls-6" d="M1183,17.39c-5.5-7.29-10.61-10.36-21.09-9.27,2,4.45,7,5.36,9.27,5.13A14,14,0,0,0,1183,17.39Z" transform="translate(169.08)"/><path class="cls-5" d="M1149.15,21.92c.13-.22.43-.68.45-.69a40.24,40.24,0,0,1,9.2-9.33,40.24,40.24,0,0,1,9.2,9.33s.32.47.45.69a6.07,6.07,0,0,1-3.59,8.87c0,.08,0,.16,0,.24a6.07,6.07,0,0,1-12.14,0c0-.08,0-.16,0-.24a6.07,6.07,0,0,1-3.59-8.87Z" transform="translate(169.08)"/><path class="cls-6" d="M1158.8,34.35a3.32,3.32,0,0,0,3.32-3.28,2.72,2.72,0,0,1,0-.28V28.74l2-.59a3.06,3.06,0,0,0,.76-.31,3.32,3.32,0,0,0,1.57-2,3.27,3.27,0,0,0-.3-2.47l-.23-.34-.17-.25h0a35.8,35.8,0,0,0-6.91-7.36,35.8,35.8,0,0,0-6.91,7.36l-.4.61a3.27,3.27,0,0,0-.29,2.45,3.31,3.31,0,0,0,1.55,2,3.16,3.16,0,0,0,.78.32l2,.59v2.05a2.53,2.53,0,0,1,0,.28A3.33,3.33,0,0,0,1158.8,34.35Z" transform="translate(169.08)"/><path class="cls-8" d="M1137.64,20.65l.5-.13a25.43,25.43,0,0,1,8.22-.6,25.38,25.38,0,0,1,.48,8.23s0,.35-.07.51a3.82,3.82,0,0,1-4.49,3,3.73,3.73,0,0,1-.89-.3l-.09.12a3.82,3.82,0,0,1-5.75-5l.11-.11a3.45,3.45,0,0,1-.41-.84A3.82,3.82,0,0,1,1137.64,20.65Z" transform="translate(169.08)"/><path class="cls-9" d="M1137.05,30.54a2.08,2.08,0,0,0,2.93-.17,1.71,1.71,0,0,1,.11-.14l.85-1,1.17.54a2,2,0,0,0,.49.16,2.06,2.06,0,0,0,1.59-.3,2.15,2.15,0,0,0,.88-1.3c0-.07,0-.17,0-.25l0-.19h0a22.17,22.17,0,0,0-.22-6.35,22.7,22.7,0,0,0-6.32.62l-.44.12a2,2,0,0,0-1.16,1,2.11,2.11,0,0,0-.1,1.6,2,2,0,0,0,.23.47l.69,1.1-.85,1-.12.13A2.08,2.08,0,0,0,1137.05,30.54Z" transform="translate(169.08)"/><path class="cls-8" d="M1180,20.65l-.5-.13a25.43,25.43,0,0,0-8.22-.6,25.38,25.38,0,0,0-.48,8.23s0,.35.07.51a3.82,3.82,0,0,0,4.49,3,3.73,3.73,0,0,0,.89-.3l.09.12a3.82,3.82,0,0,0,5.75-5,1.14,1.14,0,0,1-.11-.11,3.45,3.45,0,0,0,.41-.84A3.82,3.82,0,0,0,1180,20.65Z" transform="translate(169.08)"/><path class="cls-9" d="M1180.55,30.54a2.08,2.08,0,0,1-2.93-.17,1.71,1.71,0,0,0-.11-.14l-.85-1-1.17.54a2,2,0,0,1-.49.16,2.07,2.07,0,0,1-1.59-.3,2.15,2.15,0,0,1-.88-1.3c0-.07,0-.17,0-.25l0-.19h0a22.17,22.17,0,0,1,.22-6.35,22.7,22.7,0,0,1,6.32.62l.44.12a2,2,0,0,1,1.16,1,2.11,2.11,0,0,1,.1,1.6,2,2,0,0,1-.23.47l-.69,1.1.85,1,.12.13A2.08,2.08,0,0,1,1180.55,30.54Z" transform="translate(169.08)"/><path class="cls-5" d="M1148.42,38a5.41,5.41,0,0,1,7.64-.34l0,0a3.94,3.94,0,0,0,5.42,0l0,0a5.41,5.41,0,0,1,7.3,8,7.48,7.48,0,0,1-4.27,1.59,5.94,5.94,0,0,1-11.54,0,7.48,7.48,0,0,1-4.27-1.59A5.41,5.41,0,0,1,1148.42,38Z" transform="translate(169.08)"/><path class="cls-6" d="M1152.41,38.18a3.43,3.43,0,0,1,2.32.9,5.92,5.92,0,0,0,8.12,0,3.44,3.44,0,0,1,2.34-.92,3.4,3.4,0,0,1,2.54,1.11,3.44,3.44,0,0,1-.22,4.86,5.64,5.64,0,0,1-3.11,1.09l-1.41.12-.34,1.37a4,4,0,0,1-7.71,0l-.33-1.37-1.41-.12a5.64,5.64,0,0,1-3.11-1.09,3.38,3.38,0,0,1-1.11-2.38,3.41,3.41,0,0,1,3.43-3.59Z" transform="translate(169.08)"/><path class="cls-5" d="M1327.6,40.78c.43.6.84,1.18,1.25,1.73a14,14,0,0,1,11.83,4.14c2.23-.23,7.22.68,9.26,5.14l1.76-.22c-1.3-6.17-7.39-7.39-9.92-7.13A14.19,14.19,0,0,0,1327.6,40.78Z" transform="translate(169.08)"/><path class="cls-6" d="M1328.85,42.51c5.51,7.29,10.61,10.36,21.09,9.28-2-4.46-7-5.37-9.26-5.14A14,14,0,0,0,1328.85,42.51Z" transform="translate(169.08)"/><path class="cls-5" d="M1378.41,40.78c-.42.6-.84,1.18-1.25,1.73a14,14,0,0,0-11.83,4.14c-2.23-.23-7.22.68-9.26,5.14l-1.76-.22c1.31-6.17,7.4-7.39,9.92-7.13A14.19,14.19,0,0,1,1378.41,40.78Z" transform="translate(169.08)"/><path class="cls-6" d="M1377.16,42.51c-5.51,7.29-10.61,10.36-21.09,9.28,2-4.46,7-5.37,9.26-5.14A14,14,0,0,1,1377.16,42.51Z" transform="translate(169.08)"/><path class="cls-5" d="M1343.35,38c.14.21.44.67.46.68A40.24,40.24,0,0,0,1353,48a40.24,40.24,0,0,0,9.19-9.33s.32-.47.46-.68a6.07,6.07,0,0,0-2.23-8.3,6,6,0,0,0-1.36-.58c0-.08,0-.16,0-.24a6.07,6.07,0,0,0-12.14,0c0,.08,0,.16,0,.24a6.08,6.08,0,0,0-3.6,8.88Z" transform="translate(169.08)"/><path class="cls-6" d="M1353,25.55a3.32,3.32,0,0,1,3.31,3.28c0,.1,0,.19,0,.28v2.05l2,.59a3.14,3.14,0,0,1,.75.31,3.3,3.3,0,0,1,1.58,2,3.37,3.37,0,0,1-.3,2.47l-.23.34-.17.25h0a35.52,35.52,0,0,1-6.9,7.36,35.8,35.8,0,0,1-6.91-7.36l-.4-.61a3.31,3.31,0,0,1,1.25-4.47,3.52,3.52,0,0,1,.78-.32l2-.59V29.11c0-.1,0-.19,0-.28A3.32,3.32,0,0,1,1353,25.55Z" transform="translate(169.08)"/><path class="cls-8" d="M1331.84,39.25c.16,0,.49.14.51.13a25.41,25.41,0,0,0,8.22.6,25.38,25.38,0,0,0,.48-8.23s0-.35-.07-.51a3.82,3.82,0,0,0-4.49-3,3.73,3.73,0,0,0-.89.3l-.1-.12a3.82,3.82,0,1,0-5.74,5l.1.11a3.84,3.84,0,0,0,2,5.69Z" transform="translate(169.08)"/><path class="cls-9" d="M1331.25,29.36a2.1,2.1,0,0,1,2.93.17l.12.14.85,1,1.17-.54a2,2,0,0,1,.49-.16,2,2,0,0,1,1.58.31,2,2,0,0,1,.88,1.29c0,.07,0,.17,0,.25a1.23,1.23,0,0,0,0,.19h0a22.56,22.56,0,0,1-.21,6.35,22.67,22.67,0,0,1-6.32-.62l-.44-.12a2,2,0,0,1-1.16-1,2.07,2.07,0,0,1-.1-1.6,2,2,0,0,1,.23-.47l.69-1.09-.85-1-.13-.13A2.09,2.09,0,0,1,1331.25,29.36Z" transform="translate(169.08)"/><path class="cls-8" d="M1374.17,39.25c-.16,0-.49.14-.51.13a25.36,25.36,0,0,1-8.21.6,25.32,25.32,0,0,1-.49-8.23s0-.35.07-.51a3.79,3.79,0,0,1,5.38-2.71l.1-.12a3.82,3.82,0,0,1,5.74,5l-.1.11a3.81,3.81,0,0,1-2,5.69Z" transform="translate(169.08)"/><path class="cls-9" d="M1374.76,29.36a2.1,2.1,0,0,0-2.93.17l-.11.14-.86,1-1.17-.54a2.11,2.11,0,0,0-2.07.15,2,2,0,0,0-.88,1.29c0,.07,0,.17,0,.25a1.23,1.23,0,0,1,0,.19h0a22.56,22.56,0,0,0,.21,6.35,22.67,22.67,0,0,0,6.32-.62l.44-.12a2,2,0,0,0,1.16-1,2.07,2.07,0,0,0,.11-1.6,2.62,2.62,0,0,0-.24-.47l-.68-1.09.85-1,.12-.13A2.08,2.08,0,0,0,1374.76,29.36Z" transform="translate(169.08)"/><path class="cls-5" d="M1342.62,21.94a5.42,5.42,0,0,0,7.65.34l0,0a3.93,3.93,0,0,1,5.41,0l0,0a5.41,5.41,0,1,0,7.31-8,7.49,7.49,0,0,0-4.28-1.59,5.93,5.93,0,0,0-11.53,0,7.45,7.45,0,0,0-4.27,1.59A5.42,5.42,0,0,0,1342.62,21.94Z" transform="translate(169.08)"/><path class="cls-6" d="M1346.62,21.72a3.4,3.4,0,0,0,2.32-.9,5.91,5.91,0,0,1,8.11,0,3.45,3.45,0,0,0,4.88-.19,3.44,3.44,0,0,0-.22-4.86,5.61,5.61,0,0,0-3.11-1.09l-1.4-.12-.34-1.37a4,4,0,0,0-7.71,0l-.34,1.37-1.4.12a5.61,5.61,0,0,0-3.11,1.09,3.43,3.43,0,0,0,2.32,6Z" transform="translate(169.08)"/><path class="cls-4" d="M705.24,53.35c21.75,3,32.51-8.68,32-23.59C736.73,17.51,728,4.13,706.91,4.13s-32,21.93-35.72,29.17c-3,5.78-9.68,18.7-27.2,19.88a54.87,54.87,0,0,1-17.53-1.36" transform="translate(169.08)"/><path class="cls-5" d="M607.74,32.19c6.56.63,6.78,4.63,6.78,4.63a6.64,6.64,0,0,1,7.19,6.07c4.7,2,5.95,6.21,5.9,10.29a16,16,0,0,1-2.35-.63c.06-3.81-2.83-7.48-4.81-7.85-.62-3.82-4.18-6.29-6.78-5.68a6.22,6.22,0,0,0-5.27-4.7A16.11,16.11,0,0,1,607.74,32.19Z" transform="translate(169.08)"/><path class="cls-6" d="M608.4,34.32a6.22,6.22,0,0,1,5.27,4.7c2.6-.61,6.16,1.86,6.78,5.68,2,.37,4.87,4,4.81,7.85C617,49.63,610.6,40.15,608.4,34.32Z" transform="translate(169.08)"/><path class="cls-4" d="M668.77,37.68c2.1-3.75,2.42-9.36,2.42-11.21,0-15-9.45-22.34-20.53-22.34-6,0-8.61,1.33-9.74,2.72" transform="translate(169.08)"/><path class="cls-5" d="M615.51,19.12c.43-.6.85-1.18,1.26-1.73a14,14,0,0,0,11.82-4.14c2.23.23,7.23-.68,9.27-5.13l1.76.21c-1.31,6.17-7.4,7.39-9.93,7.13A14.19,14.19,0,0,1,615.51,19.12Z" transform="translate(169.08)"/><path class="cls-6" d="M616.77,17.39c5.5-7.29,10.6-10.36,21.09-9.27-2,4.45-7,5.36-9.27,5.13A14,14,0,0,1,616.77,17.39Z" transform="translate(169.08)"/><path class="cls-5" d="M666.32,19.12c-.42-.6-.84-1.18-1.25-1.73a14,14,0,0,1-11.83-4.14c-2.22.23-7.22-.68-9.26-5.13l-1.76.21c1.31,6.17,7.4,7.39,9.92,7.13A14.19,14.19,0,0,0,666.32,19.12Z" transform="translate(169.08)"/><path class="cls-6" d="M665.07,17.39C659.56,10.1,654.46,7,644,8.12c2,4.45,7,5.36,9.26,5.13A14,14,0,0,0,665.07,17.39Z" transform="translate(169.08)"/><path class="cls-5" d="M618.72,28.1a7.73,7.73,0,0,1,12-6.47A7.12,7.12,0,0,0,634,27.05a6.18,6.18,0,0,0,.23.73,7.19,7.19,0,0,0,13.45,0,4.79,4.79,0,0,0,.24-.73,7.2,7.2,0,0,0,3.26-5.42,7.66,7.66,0,0,1,4.23-1.27,7.74,7.74,0,0,1,1.92,15.24,7.55,7.55,0,0,1,.42,2.48A7.75,7.75,0,0,1,650,45.82a7.48,7.48,0,0,1-1.44-.14,7.74,7.74,0,0,1-15.22,0,7.64,7.64,0,0,1-1.44.14,7.74,7.74,0,0,1-7.33-10.22A7.74,7.74,0,0,1,618.72,28.1Z" transform="translate(169.08)"/><path class="cls-6" d="M626.46,23.32a5,5,0,0,1,1.58.27,10,10,0,0,0,3.41,5.29,10.14,10.14,0,0,0,18.94,0,10,10,0,0,0,3.4-5.29,5,5,0,0,1,1.58-.27,4.78,4.78,0,0,1,1.19,9.41l-3.09.8,1,3a4.73,4.73,0,0,1,.26,1.53A4.79,4.79,0,0,1,650,42.86a4.31,4.31,0,0,1-.88-.09l-2.93-.56-.54,2.93a4.78,4.78,0,0,1-9.4,0l-.54-2.93-2.93.56a4.38,4.38,0,0,1-.88.09,4.79,4.79,0,0,1-4.78-4.78,4.72,4.72,0,0,1,.25-1.53l1-3-3.1-.8a4.78,4.78,0,0,1,1.19-9.41Z" transform="translate(169.08)"/><path class="cls-7" d="M634.19,18.88a5.48,5.48,0,0,1,.32-.48,28.11,28.11,0,0,1,6.41-6.5,28.11,28.11,0,0,1,6.41,6.5s.22.33.32.48a4.24,4.24,0,0,1-1.55,5.79,4.44,4.44,0,0,1-1,.4c0,.06,0,.11,0,.17a4.23,4.23,0,0,1-8.46,0v-.17a4.58,4.58,0,0,1-1-.4A4.24,4.24,0,0,1,634.19,18.88Z" transform="translate(169.08)"/><path class="cls-4" d="M834.71,53.35c21.75,3,32.51-8.68,31.95-23.59-.46-12.25-9.18-25.63-30.28-25.63-23.87,0-32,21.93-35.72,29.17-3,5.78-9.68,18.7-27.2,19.88-10.79.64-28.48-1.45-36.5-26.07" transform="translate(169.08)"/><path class="cls-4" d="M798.24,37.68c2.1-3.75,2.42-9.36,2.42-11.21,0-15-9.45-22.34-20.53-22.34-6,0-8.61,1.33-9.74,2.72" transform="translate(169.08)"/><path class="cls-4" d="M964.18,53.35c21.75,3,32.51-8.68,32-23.59C995.67,17.51,987,4.13,965.85,4.13c-23.87,0-32,21.93-35.71,29.17-3,5.78-9.69,19.35-27.21,20.52-10.79.65-28.48-2.09-36.5-26.71" transform="translate(169.08)"/><path class="cls-4" d="M927.71,37.68c2.1-3.75,2.43-9.36,2.43-11.21,0-15-9.46-22.34-20.54-22.34-6,0-8.61,1.33-9.74,2.72" transform="translate(169.08)"/><path class="cls-5" d="M809.3,40.78c.43.6.85,1.18,1.26,1.73a14,14,0,0,1,11.82,4.14c2.23-.23,7.23.68,9.27,5.14l1.76-.22c-1.31-6.17-7.4-7.39-9.93-7.13A14.18,14.18,0,0,0,809.3,40.78Z" transform="translate(169.08)"/><path class="cls-6" d="M810.56,42.51c5.5,7.29,10.61,10.36,21.09,9.28-2-4.46-7-5.37-9.27-5.14A14,14,0,0,0,810.56,42.51Z" transform="translate(169.08)"/><path class="cls-5" d="M860.11,40.78c-.42.6-.84,1.18-1.25,1.73A14,14,0,0,0,847,46.65c-2.23-.23-7.23.68-9.27,5.14L836,51.57c1.31-6.17,7.4-7.39,9.93-7.13A14.17,14.17,0,0,1,860.11,40.78Z" transform="translate(169.08)"/><path class="cls-6" d="M858.86,42.51c-5.5,7.29-10.61,10.36-21.09,9.28,2-4.46,7-5.37,9.27-5.14A14,14,0,0,1,858.86,42.51Z" transform="translate(169.08)"/><path class="cls-5" d="M812.51,31.8a7.73,7.73,0,0,0,12,6.47,7.12,7.12,0,0,1,3.26-5.42,4.79,4.79,0,0,1,.24-.73,7.18,7.18,0,0,1,13.44,0,4.79,4.79,0,0,1,.24.73,7.21,7.21,0,0,1,3.26,5.42,7.73,7.73,0,0,0,12-6.47,7.75,7.75,0,0,0-5.82-7.5,7.74,7.74,0,0,0-7.33-10.22,7.48,7.48,0,0,0-1.44.14,7.74,7.74,0,0,0-15.22,0,7.48,7.48,0,0,0-1.44-.14,7.74,7.74,0,0,0-7.33,10.22A7.74,7.74,0,0,0,812.51,31.8Z" transform="translate(169.08)"/><path class="cls-6" d="M820.25,36.58a4.64,4.64,0,0,0,1.58-.27A10,10,0,0,1,825.24,31a10.14,10.14,0,0,1,18.94,0,10,10,0,0,1,3.4,5.28,5,5,0,0,0,1.59.27,4.78,4.78,0,0,0,1.18-9.41l-3.09-.79,1-3a4.73,4.73,0,0,0,.26-1.53A4.79,4.79,0,0,0,843.76,17a4.38,4.38,0,0,0-.88.09L840,17.7l-.54-2.94a4.78,4.78,0,0,0-9.4,0l-.54,2.94-2.93-.57a4.38,4.38,0,0,0-.88-.09,4.79,4.79,0,0,0-4.78,4.78,5,5,0,0,0,.25,1.53l1,3-3.09.79a4.78,4.78,0,0,0,1.18,9.41Z" transform="translate(169.08)"/><path class="cls-7" d="M828,41l.32.48a28.11,28.11,0,0,0,6.41,6.5,28.11,28.11,0,0,0,6.41-6.5l.32-.48a4.24,4.24,0,0,0-1.55-5.79,4.44,4.44,0,0,0-1-.4s0-.11,0-.17a4.23,4.23,0,0,0-8.46,0v.17a4.58,4.58,0,0,0-1,.4A4.24,4.24,0,0,0,828,41Z" transform="translate(169.08)"/><path class="cls-5" d="M679.83,40.78c.43.6.85,1.18,1.26,1.73a14,14,0,0,1,11.82,4.14c2.23-.23,7.23.68,9.27,5.14l1.76-.22c-1.31-6.17-7.4-7.39-9.93-7.13A14.18,14.18,0,0,0,679.83,40.78Z" transform="translate(169.08)"/><path class="cls-6" d="M681.09,42.51c5.5,7.29,10.6,10.36,21.09,9.28-2-4.46-7-5.37-9.27-5.14A14,14,0,0,0,681.09,42.51Z" transform="translate(169.08)"/><path class="cls-5" d="M730.64,40.78c-.42.6-.84,1.18-1.25,1.73a14,14,0,0,0-11.82,4.14c-2.23-.23-7.23.68-9.27,5.14l-1.76-.22c1.31-6.17,7.4-7.39,9.93-7.13A14.17,14.17,0,0,1,730.64,40.78Z" transform="translate(169.08)"/><path class="cls-6" d="M729.39,42.51c-5.51,7.29-10.61,10.36-21.09,9.28,2-4.46,7-5.37,9.27-5.14A14,14,0,0,1,729.39,42.51Z" transform="translate(169.08)"/><path class="cls-5" d="M694.86,37.23c.15.24.47.73.49.74a43.27,43.27,0,0,0,9.89,10,43.47,43.47,0,0,0,9.89-10s.34-.5.49-.74a6.51,6.51,0,0,0-3.87-9.54c0-.09,0-.17,0-.26a6.53,6.53,0,1,0-13.06,0c0,.09,0,.17,0,.26a6.52,6.52,0,0,0-3.86,9.54Z" transform="translate(169.08)"/><path class="cls-6" d="M705.24,23.86a3.58,3.58,0,0,1,3.57,3.53c0,.11,0,.2,0,.3V29.9l2.11.63a3.48,3.48,0,0,1,.81.33,3.58,3.58,0,0,1,1.37,4.84l-.25.36-.18.28h0a38.12,38.12,0,0,1-7.42,7.92,38.41,38.41,0,0,1-7.43-7.92l-.43-.65a3.59,3.59,0,0,1,1.35-4.81,3.67,3.67,0,0,1,.84-.34l2.11-.63V27.69c0-.1,0-.2,0-.3A3.58,3.58,0,0,1,705.24,23.86Z" transform="translate(169.08)"/><path class="cls-8" d="M683.57,39.25c.15,0,.49.14.5.13a25.43,25.43,0,0,0,8.22.6,25.38,25.38,0,0,0,.48-8.23s0-.35-.07-.51a3.82,3.82,0,0,0-4.49-3,3.73,3.73,0,0,0-.89.3l-.09-.12a3.82,3.82,0,0,0-5.75,5l.11.11a3.45,3.45,0,0,0-.41.84A3.82,3.82,0,0,0,683.57,39.25Z" transform="translate(169.08)"/><path class="cls-9" d="M683,29.36a2.1,2.1,0,0,1,2.93.17,1.71,1.71,0,0,0,.11.14l.85,1L688,30.1a2,2,0,0,1,.49-.16,2.07,2.07,0,0,1,1.59.31,2.1,2.1,0,0,1,.88,1.29c0,.07,0,.17,0,.25l0,.19h0a21.84,21.84,0,0,1-.21,6.35,22.67,22.67,0,0,1-6.32-.62l-.44-.12a2,2,0,0,1-1.16-1,2.11,2.11,0,0,1-.1-1.6,2,2,0,0,1,.23-.47l.69-1.09-.85-1-.12-.13A2.08,2.08,0,0,1,683,29.36Z" transform="translate(169.08)"/><path class="cls-5" d="M686.82,24.11l.4.33a25.54,25.54,0,0,0,7.25,3.92,25.14,25.14,0,0,0,3.82-7.3s.11-.34.15-.5A3.81,3.81,0,0,0,695.58,16a3.68,3.68,0,0,0-.93-.1.83.83,0,0,0,0-.15,3.82,3.82,0,1,0-7.3,2.23.58.58,0,0,0,.05.14,4.1,4.1,0,0,0-.72.6A3.83,3.83,0,0,0,686.82,24.11Z" transform="translate(169.08)"/><path class="cls-6" d="M690.35,14.85a2.1,2.1,0,0,1,2.6,1.36c0,.07,0,.12,0,.18l.38,1.23h1.29a2.37,2.37,0,0,1,.51.05,2.06,2.06,0,0,1,1.32.94,2,2,0,0,1,.27,1.54c0,.07,0,.16-.07.24l-.06.19h0a22.4,22.4,0,0,1-2.8,5.7,22.25,22.25,0,0,1-5.51-3.16l-.35-.29a2.09,2.09,0,0,1-.07-2.92,2,2,0,0,1,.41-.34l1.08-.72L689,17.6a1.15,1.15,0,0,0-.06-.17A2.1,2.1,0,0,1,690.35,14.85Z" transform="translate(169.08)"/><path class="cls-8" d="M726.91,39.25c-.16,0-.49.14-.5.13a25.43,25.43,0,0,1-8.22.6,25.38,25.38,0,0,1-.48-8.23s0-.35.06-.51a3.84,3.84,0,0,1,4.5-3,3.89,3.89,0,0,1,.89.3l.09-.12a3.82,3.82,0,0,1,5.75,5,.57.57,0,0,0-.11.11,3.45,3.45,0,0,1,.41.84A3.82,3.82,0,0,1,726.91,39.25Z" transform="translate(169.08)"/><path class="cls-9" d="M727.5,29.36a2.1,2.1,0,0,0-2.93.17,1.71,1.71,0,0,1-.11.14l-.85,1-1.18-.54a1.92,1.92,0,0,0-.48-.16,2.07,2.07,0,0,0-1.59.31,2.1,2.1,0,0,0-.88,1.29c0,.07,0,.17,0,.25l0,.19h0a22.56,22.56,0,0,0,.21,6.35,22.77,22.77,0,0,0,6.33-.62l.44-.12a2,2,0,0,0,1.15-1,2.07,2.07,0,0,0,.11-1.6,2.53,2.53,0,0,0-.23-.47l-.69-1.09.85-1,.12-.13A2.08,2.08,0,0,0,727.5,29.36Z" transform="translate(169.08)"/><path class="cls-5" d="M723.66,24.11l-.41.33A25.38,25.38,0,0,1,716,28.36a25.14,25.14,0,0,1-3.82-7.3s-.11-.34-.15-.5A3.81,3.81,0,0,1,714.9,16a3.68,3.68,0,0,1,.93-.1l0-.15A3.82,3.82,0,1,1,723.17,18a.58.58,0,0,1,0,.14,4.1,4.1,0,0,1,.72.6A3.83,3.83,0,0,1,723.66,24.11Z" transform="translate(169.08)"/><path class="cls-6" d="M720.13,14.85a2.1,2.1,0,0,0-2.6,1.36c0,.07,0,.12,0,.18l-.37,1.23h-1.29a2.37,2.37,0,0,0-.51.05,2,2,0,0,0-1.32.94,2.08,2.08,0,0,0-.28,1.54,1.69,1.69,0,0,1,.08.24,1.05,1.05,0,0,1,.05.19h0a22.07,22.07,0,0,0,2.81,5.7,22.25,22.25,0,0,0,5.51-3.16l.35-.29a2.08,2.08,0,0,0,.63-1.43,2.11,2.11,0,0,0-.57-1.49,1.7,1.7,0,0,0-.4-.34l-1.08-.72.38-1.23a1.09,1.09,0,0,1,0-.17A2.09,2.09,0,0,0,720.13,14.85Z" transform="translate(169.08)"/><path class="cls-10" d="M702.81,14.58a1.87,1.87,0,0,0,.86-.29,1.72,1.72,0,0,0-.3.85,1.87,1.87,0,0,0,3.73,0,1.7,1.7,0,0,0-.29-.85,1.83,1.83,0,0,0,.85.29,1.87,1.87,0,1,0,0-3.73,1.83,1.83,0,0,0-.85.29,1.7,1.7,0,0,0,.29-.85,1.87,1.87,0,0,0-3.73,0,1.72,1.72,0,0,0,.3.85,1.83,1.83,0,1,0-.86,3.44Z" transform="translate(169.08)"/><path class="cls-5" d="M874,19.12c.42-.6.84-1.18,1.25-1.73a14,14,0,0,0,11.83-4.14c2.23.23,7.22-.68,9.26-5.13l1.76.21c-1.31,6.17-7.4,7.39-9.92,7.13A14.19,14.19,0,0,1,874,19.12Z" transform="translate(169.08)"/><path class="cls-6" d="M875.29,17.39C880.8,10.1,885.9,7,896.38,8.12c-2,4.45-7,5.36-9.26,5.13A14,14,0,0,1,875.29,17.39Z" transform="translate(169.08)"/><path class="cls-5" d="M924.85,19.12c-.43-.6-.84-1.18-1.25-1.73a14,14,0,0,1-11.83-4.14c-2.23.23-7.22-.68-9.26-5.13l-1.76.21c1.3,6.17,7.39,7.39,9.92,7.13A14.19,14.19,0,0,0,924.85,19.12Z" transform="translate(169.08)"/><path class="cls-6" d="M923.6,17.39C918.09,10.1,913,7,902.51,8.12c2,4.45,7,5.36,9.26,5.13A14,14,0,0,0,923.6,17.39Z" transform="translate(169.08)"/><path class="cls-5" d="M889.06,22.67c.15-.24.48-.73.5-.74a43.47,43.47,0,0,1,9.88-10,43.27,43.27,0,0,1,9.89,10s.34.5.5.74a6.53,6.53,0,0,1-2.4,8.92,6.29,6.29,0,0,1-1.47.62c0,.09,0,.17,0,.26a6.53,6.53,0,1,1-13.05,0c0-.09,0-.17,0-.26a6.29,6.29,0,0,1-1.47-.62A6.53,6.53,0,0,1,889.06,22.67Z" transform="translate(169.08)"/><path class="cls-6" d="M899.44,36A3.57,3.57,0,0,0,903,32.52c0-.12,0-.21,0-.31V30l2.12-.63a3.37,3.37,0,0,0,.8-.34,3.56,3.56,0,0,0,1.37-4.84c-.07-.1-.16-.25-.24-.36l-.18-.27h0a38.14,38.14,0,0,0-7.43-7.92A38.39,38.39,0,0,0,892,23.57l-.43.65a3.52,3.52,0,0,0-.32,2.64A3.57,3.57,0,0,0,892.94,29a4.32,4.32,0,0,0,.83.35l2.12.63v2.2c0,.1,0,.2,0,.31A3.57,3.57,0,0,0,899.44,36Z" transform="translate(169.08)"/><path class="cls-8" d="M877.77,20.65l.51-.13a25.36,25.36,0,0,1,8.21-.6,25.32,25.32,0,0,1,.49,8.23s-.05.35-.07.51a3.79,3.79,0,0,1-5.38,2.71l-.1.12a3.82,3.82,0,0,1-5.74-5l.1-.11a4.37,4.37,0,0,1-.41-.84A3.83,3.83,0,0,1,877.77,20.65Z" transform="translate(169.08)"/><path class="cls-9" d="M877.18,30.54a2.08,2.08,0,0,0,2.93-.17l.11-.14.86-1,1.17.54a2.08,2.08,0,0,0,3-1.44c0-.07,0-.17,0-.25a1.23,1.23,0,0,1,0-.19h0a22.58,22.58,0,0,0-.21-6.35,22.67,22.67,0,0,0-6.32.62l-.44.12a2,2,0,0,0-1.16,1A2.12,2.12,0,0,0,877,25a2.62,2.62,0,0,0,.24.47l.69,1.1-.86,1-.12.13A2.08,2.08,0,0,0,877.18,30.54Z" transform="translate(169.08)"/><path class="cls-5" d="M881,35.8l.4-.34a25.51,25.51,0,0,1,7.24-3.92,25.37,25.37,0,0,1,3.83,7.3l.15.5A3.83,3.83,0,0,1,888.86,44a.83.83,0,0,0,0,.15,3.82,3.82,0,1,1-7.31-2.23.78.78,0,0,0,0-.14,4.1,4.1,0,0,1-.72-.6A3.81,3.81,0,0,1,881,35.8Z" transform="translate(169.08)"/><path class="cls-6" d="M884.56,45.05a2.09,2.09,0,0,0,2.59-1.36c0-.07,0-.12.05-.17l.38-1.24h1.29a2.51,2.51,0,0,0,.51,0A2.08,2.08,0,0,0,891,39.76c0-.07-.05-.16-.08-.24a1.21,1.21,0,0,0,0-.18h0a22.07,22.07,0,0,0-2.81-5.7,22.39,22.39,0,0,0-5.5,3.16l-.35.29a2.1,2.1,0,0,0-.07,2.93,2,2,0,0,0,.41.33l1.07.72-.37,1.23-.06.17A2.09,2.09,0,0,0,884.56,45.05Z" transform="translate(169.08)"/><path class="cls-8" d="M921.12,20.65l-.51-.13a25.41,25.41,0,0,0-8.22-.6,25.38,25.38,0,0,0-.48,8.23s.05.35.07.51a3.79,3.79,0,0,0,5.38,2.71l.1.12a3.82,3.82,0,1,0,5.74-5l-.1-.11a3.84,3.84,0,0,0-2-5.69Z" transform="translate(169.08)"/><path class="cls-9" d="M921.71,30.54a2.08,2.08,0,0,1-2.93-.17l-.12-.14-.85-1-1.17.54a2.08,2.08,0,0,1-2.95-1.44c0-.07,0-.17,0-.25a1.23,1.23,0,0,0,0-.19h0a22.58,22.58,0,0,1,.21-6.35,22.67,22.67,0,0,1,6.32.62l.44.12a2,2,0,0,1,1.16,1,2.07,2.07,0,0,1,.1,1.6,2,2,0,0,1-.23.47l-.69,1.1.86,1,.12.13A2.09,2.09,0,0,1,921.71,30.54Z" transform="translate(169.08)"/><path class="cls-5" d="M917.86,35.8l-.4-.34a25.41,25.41,0,0,0-7.25-3.92,25.65,25.65,0,0,0-3.82,7.3s-.11.34-.15.5a3.82,3.82,0,0,0,2.86,4.58,3.73,3.73,0,0,0,.93.1.83.83,0,0,1,0,.15,3.82,3.82,0,1,0,7.31-2.23.78.78,0,0,1,0-.14,4.5,4.5,0,0,0,.72-.6A3.81,3.81,0,0,0,917.86,35.8Z" transform="translate(169.08)"/><path class="cls-6" d="M914.33,45.05a2.1,2.1,0,0,1-2.6-1.36.71.71,0,0,0,0-.17l-.38-1.24H910a2.44,2.44,0,0,1-.51,0,2.08,2.08,0,0,1-1.59-2.48l.08-.24a1.21,1.21,0,0,1,0-.18h0a22.4,22.4,0,0,1,2.8-5.7,22.25,22.25,0,0,1,5.51,3.16l.35.29a2.1,2.1,0,0,1,.07,2.93,2,2,0,0,1-.41.33l-1.08.72.38,1.23.06.17A2.09,2.09,0,0,1,914.33,45.05Z" transform="translate(169.08)"/><path class="cls-10" d="M897,45.32a1.8,1.8,0,0,1,.85.29,1.8,1.8,0,0,1-.29-.85,1.87,1.87,0,0,1,3.73,0,1.8,1.8,0,0,1-.29.85,1.8,1.8,0,0,1,.85-.29,1.87,1.87,0,0,1,0,3.73,1.8,1.8,0,0,1-.85-.29,1.83,1.83,0,0,1,.29.85,1.87,1.87,0,1,1-3.73,0,1.83,1.83,0,0,1,.29-.85,1.8,1.8,0,0,1-.85.29,1.87,1.87,0,1,1,0-3.73Z" transform="translate(169.08)"/><path class="cls-5" d="M745,19.12c.43-.6.85-1.18,1.26-1.73a14,14,0,0,0,11.82-4.14c2.23.23,7.23-.68,9.27-5.13l1.76.21c-1.31,6.17-7.4,7.39-9.93,7.13A14.18,14.18,0,0,1,745,19.12Z" transform="translate(169.08)"/><path class="cls-6" d="M746.24,17.39c5.5-7.29,10.6-10.36,21.09-9.27-2,4.45-7,5.36-9.27,5.13A14,14,0,0,1,746.24,17.39Z" transform="translate(169.08)"/><path class="cls-5" d="M795.79,19.12c-.42-.6-.84-1.18-1.25-1.73a14,14,0,0,1-11.83-4.14c-2.22.23-7.22-.68-9.26-5.13l-1.76.21c1.31,6.17,7.4,7.39,9.92,7.13A14.19,14.19,0,0,0,795.79,19.12Z" transform="translate(169.08)"/><path class="cls-6" d="M794.54,17.39C789,10.1,783.93,7,773.45,8.12c2,4.45,7,5.36,9.26,5.13A14,14,0,0,0,794.54,17.39Z" transform="translate(169.08)"/><path class="cls-5" d="M760.73,21.92c.14-.22.44-.68.46-.69a40.24,40.24,0,0,1,9.2-9.33,40,40,0,0,1,9.19,9.33l.46.69a6.07,6.07,0,0,1-3.59,8.87c0,.08,0,.16,0,.24a6.07,6.07,0,0,1-12.14,0c0-.08,0-.16,0-.24a6.07,6.07,0,0,1-3.6-8.87Z" transform="translate(169.08)"/><path class="cls-6" d="M770.39,34.35a3.34,3.34,0,0,0,3.32-3.28,2.72,2.72,0,0,1,0-.28V28.74l2-.59a3.23,3.23,0,0,0,.76-.31,3.32,3.32,0,0,0,1.57-2,3.27,3.27,0,0,0-.3-2.47l-.23-.34-.17-.25h0a35.52,35.52,0,0,0-6.9-7.36,35.8,35.8,0,0,0-6.91,7.36l-.4.61a3.27,3.27,0,0,0-.29,2.45,3.31,3.31,0,0,0,1.55,2,3.24,3.24,0,0,0,.77.32l2,.59v2.05a2.53,2.53,0,0,1,0,.28A3.32,3.32,0,0,0,770.39,34.35Z" transform="translate(169.08)"/><path class="cls-8" d="M749.23,20.65l.5-.13a25.43,25.43,0,0,1,8.22-.6,25.38,25.38,0,0,1,.48,8.23s0,.35-.07.51a3.82,3.82,0,0,1-4.49,3,3.73,3.73,0,0,1-.89-.3l-.09.12a3.82,3.82,0,0,1-5.75-5l.11-.11a3.45,3.45,0,0,1-.41-.84A3.82,3.82,0,0,1,749.23,20.65Z" transform="translate(169.08)"/><path class="cls-9" d="M748.64,30.54a2.08,2.08,0,0,0,2.93-.17,1.71,1.71,0,0,1,.11-.14l.85-1,1.17.54a2,2,0,0,0,.49.16,2.07,2.07,0,0,0,1.59-.3,2.15,2.15,0,0,0,.88-1.3c0-.07,0-.17,0-.25a1.25,1.25,0,0,1,0-.19h0a21.85,21.85,0,0,0-.21-6.35,22.67,22.67,0,0,0-6.32.62l-.44.12a2,2,0,0,0-1.16,1,2.11,2.11,0,0,0-.1,1.6,2,2,0,0,0,.23.47l.69,1.1-.85,1-.12.13A2.08,2.08,0,0,0,748.64,30.54Z" transform="translate(169.08)"/><path class="cls-8" d="M791.55,20.65l-.5-.13a25.43,25.43,0,0,0-8.22-.6,25.38,25.38,0,0,0-.48,8.23s0,.35.06.51a3.84,3.84,0,0,0,4.5,3,3.89,3.89,0,0,0,.89-.3l.09.12a3.82,3.82,0,0,0,5.75-5,.57.57,0,0,1-.11-.11,3.45,3.45,0,0,0,.41-.84A3.82,3.82,0,0,0,791.55,20.65Z" transform="translate(169.08)"/><path class="cls-9" d="M792.14,30.54a2.08,2.08,0,0,1-2.93-.17,1.71,1.71,0,0,0-.11-.14l-.85-1-1.18.54a1.92,1.92,0,0,1-.48.16,2.06,2.06,0,0,1-1.59-.3,2.15,2.15,0,0,1-.88-1.3c0-.07,0-.17,0-.25l0-.19h0a22.58,22.58,0,0,1,.21-6.35,22.77,22.77,0,0,1,6.33.62l.44.12a2,2,0,0,1,1.15,1,2.07,2.07,0,0,1,.11,1.6,2.53,2.53,0,0,1-.23.47l-.69,1.1.85,1,.12.13A2.08,2.08,0,0,1,792.14,30.54Z" transform="translate(169.08)"/><path class="cls-5" d="M760,38a5.41,5.41,0,0,1,7.64-.34l0,0a3.93,3.93,0,0,0,5.41,0l0,0a5.41,5.41,0,0,1,7.3,8,7.48,7.48,0,0,1-4.27,1.59,5.94,5.94,0,0,1-11.54,0,7.48,7.48,0,0,1-4.27-1.59A5.41,5.41,0,0,1,760,38Z" transform="translate(169.08)"/><path class="cls-6" d="M764,38.18a3.44,3.44,0,0,1,2.32.9,5.92,5.92,0,0,0,8.12,0,3.44,3.44,0,1,1,4.66,5A5.65,5.65,0,0,1,776,45.24l-1.4.12-.34,1.37a4,4,0,0,1-7.71,0l-.34-1.37-1.4-.12a5.64,5.64,0,0,1-3.11-1.09,3.43,3.43,0,0,1-.22-4.86A3.4,3.4,0,0,1,764,38.18Z" transform="translate(169.08)"/><path class="cls-5" d="M939.19,40.78c.42.6.84,1.18,1.25,1.73a14,14,0,0,1,11.83,4.14c2.22-.23,7.22.68,9.26,5.14l1.76-.22c-1.31-6.17-7.4-7.39-9.92-7.13A14.19,14.19,0,0,0,939.19,40.78Z" transform="translate(169.08)"/><path class="cls-6" d="M940.44,42.51c5.51,7.29,10.61,10.36,21.09,9.28-2-4.46-7-5.37-9.26-5.14A14,14,0,0,0,940.44,42.51Z" transform="translate(169.08)"/><path class="cls-5" d="M990,40.78c-.43.6-.84,1.18-1.25,1.73a14,14,0,0,0-11.83,4.14c-2.23-.23-7.22.68-9.26,5.14l-1.76-.22c1.3-6.17,7.39-7.39,9.92-7.13A14.19,14.19,0,0,1,990,40.78Z" transform="translate(169.08)"/><path class="cls-6" d="M988.75,42.51c-5.51,7.29-10.61,10.36-21.09,9.28,2-4.46,7-5.37,9.26-5.14A14,14,0,0,1,988.75,42.51Z" transform="translate(169.08)"/><path class="cls-5" d="M954.94,38c.14.21.44.67.46.68A40.24,40.24,0,0,0,964.59,48a40.24,40.24,0,0,0,9.2-9.33s.32-.47.46-.68a6.08,6.08,0,0,0-3.6-8.88c0-.08,0-.16,0-.24a6.07,6.07,0,1,0-12.14,0c0,.08,0,.16,0,.24a6,6,0,0,0-1.36.58A6.07,6.07,0,0,0,954.94,38Z" transform="translate(169.08)"/><path class="cls-6" d="M964.59,25.55a3.32,3.32,0,0,1,3.32,3.28c0,.1,0,.19,0,.28v2.05l2,.59a3.14,3.14,0,0,1,.75.31,3.3,3.3,0,0,1,1.27,4.5l-.22.34-.17.25h0a35.8,35.8,0,0,1-6.91,7.36,35.52,35.52,0,0,1-6.9-7.36l-.4-.61a3.27,3.27,0,0,1-.3-2.45,3.31,3.31,0,0,1,1.55-2,3.52,3.52,0,0,1,.78-.32l2-.59V29.11c0-.1,0-.19,0-.28A3.32,3.32,0,0,1,964.59,25.55Z" transform="translate(169.08)"/><path class="cls-8" d="M943.43,39.25c.16,0,.49.14.51.13a25.36,25.36,0,0,0,8.21.6,25.32,25.32,0,0,0,.49-8.23s0-.35-.07-.51a3.79,3.79,0,0,0-5.38-2.71l-.1-.12a3.82,3.82,0,0,0-5.74,5l.1.11a3.81,3.81,0,0,0,2,5.69Z" transform="translate(169.08)"/><path class="cls-9" d="M942.84,29.36a2.1,2.1,0,0,1,2.93.17l.11.14.86,1,1.17-.54a2.11,2.11,0,0,1,2.07.15,2,2,0,0,1,.88,1.29c0,.07,0,.17,0,.25a1.23,1.23,0,0,0,0,.19h0a22.56,22.56,0,0,1-.21,6.35,22.67,22.67,0,0,1-6.32-.62l-.44-.12a2,2,0,0,1-1.16-1,2.07,2.07,0,0,1-.11-1.6,2.62,2.62,0,0,1,.24-.47l.68-1.09-.85-1-.12-.13A2.08,2.08,0,0,1,942.84,29.36Z" transform="translate(169.08)"/><path class="cls-8" d="M985.76,39.25c-.16,0-.49.14-.51.13A25.41,25.41,0,0,1,977,40a25.38,25.38,0,0,1-.48-8.23s0-.35.07-.51a3.82,3.82,0,0,1,4.49-3,3.73,3.73,0,0,1,.89.3l.1-.12a3.82,3.82,0,1,1,5.74,5l-.1.11a3.84,3.84,0,0,1-2,5.69Z" transform="translate(169.08)"/><path class="cls-9" d="M986.35,29.36a2.1,2.1,0,0,0-2.93.17l-.12.14-.85,1-1.17-.54a2.11,2.11,0,0,0-2.07.15,2,2,0,0,0-.88,1.29c0,.07,0,.17,0,.25a1.23,1.23,0,0,1,0,.19h0a22.56,22.56,0,0,0,.21,6.35,22.67,22.67,0,0,0,6.32-.62l.44-.12a2,2,0,0,0,1.16-1,2.07,2.07,0,0,0,.1-1.6,2,2,0,0,0-.23-.47l-.69-1.09.85-1,.13-.13A2.09,2.09,0,0,0,986.35,29.36Z" transform="translate(169.08)"/><path class="cls-5" d="M954.21,21.94a5.42,5.42,0,0,0,7.65.34l0,0a3.93,3.93,0,0,1,5.41,0l0,0a5.41,5.41,0,1,0,7.3-8,7.45,7.45,0,0,0-4.27-1.59,5.93,5.93,0,0,0-11.53,0,7.49,7.49,0,0,0-4.28,1.59A5.42,5.42,0,0,0,954.21,21.94Z" transform="translate(169.08)"/><path class="cls-6" d="M958.21,21.72a3.35,3.35,0,0,0,2.31-.9,5.92,5.92,0,0,1,8.12,0,3.45,3.45,0,0,0,4.88-.19,3.44,3.44,0,0,0-.22-4.86,5.61,5.61,0,0,0-3.11-1.09l-1.4-.12-.34-1.37a4,4,0,0,0-7.71,0l-.34,1.37-1.4.12a5.61,5.61,0,0,0-3.11,1.09,3.43,3.43,0,0,0,2.32,6Z" transform="translate(169.08)"/><path class="cls-4" d="M316.83,53.35c21.75,3,32.51-8.68,31.95-23.59-.46-12.25-9.19-25.63-30.28-25.63s-32,21.93-35.72,29.17c-3,5.78-9.68,18.7-27.2,19.88a54.87,54.87,0,0,1-17.53-1.36" transform="translate(169.08)"/><path class="cls-5" d="M219.33,32.19c6.56.63,6.77,4.63,6.77,4.63a6.64,6.64,0,0,1,7.2,6.07c4.7,2,5.95,6.21,5.9,10.29a16,16,0,0,1-2.35-.63c.06-3.81-2.83-7.48-4.82-7.85-.61-3.82-4.17-6.29-6.77-5.68a6.22,6.22,0,0,0-5.27-4.7A16.11,16.11,0,0,1,219.33,32.19Z" transform="translate(169.08)"/><path class="cls-6" d="M220,34.32a6.22,6.22,0,0,1,5.27,4.7c2.6-.61,6.16,1.86,6.77,5.68,2,.37,4.88,4,4.82,7.85C228.58,49.63,222.19,40.15,220,34.32Z" transform="translate(169.08)"/><path class="cls-4" d="M280.36,37.68c2.09-3.75,2.42-9.36,2.42-11.21,0-15-9.45-22.34-20.53-22.34-6.05,0-8.61,1.33-9.74,2.72" transform="translate(169.08)"/><path class="cls-5" d="M227.1,19.12c.43-.6.84-1.18,1.25-1.73a14,14,0,0,0,11.83-4.14c2.23.23,7.22-.68,9.26-5.13l1.76.21c-1.3,6.17-7.39,7.39-9.92,7.13A14.19,14.19,0,0,1,227.1,19.12Z" transform="translate(169.08)"/><path class="cls-6" d="M228.35,17.39C233.86,10.1,239,7,249.44,8.12c-2,4.45-7,5.36-9.26,5.13A14,14,0,0,1,228.35,17.39Z" transform="translate(169.08)"/><path class="cls-5" d="M277.91,19.12c-.42-.6-.84-1.18-1.25-1.73a14,14,0,0,1-11.83-4.14c-2.22.23-7.22-.68-9.26-5.13l-1.76.21c1.31,6.17,7.4,7.39,9.92,7.13A14.19,14.19,0,0,0,277.91,19.12Z" transform="translate(169.08)"/><path class="cls-6" d="M276.66,17.39C271.15,10.1,266.05,7,255.57,8.12c2,4.45,7,5.36,9.26,5.13A14,14,0,0,0,276.66,17.39Z" transform="translate(169.08)"/><path class="cls-5" d="M230.3,28.1a7.74,7.74,0,0,1,12-6.47,7.12,7.12,0,0,0,3.26,5.42,4.75,4.75,0,0,0,.23.73,7.19,7.19,0,0,0,13.45,0,6.23,6.23,0,0,0,.24-.73,7.16,7.16,0,0,0,3.25-5.42,7.74,7.74,0,1,1,6.16,14,7.54,7.54,0,0,1,.41,2.48,7.74,7.74,0,0,1-7.74,7.74,7.64,7.64,0,0,1-1.44-.14,7.74,7.74,0,0,1-15.21,0,7.64,7.64,0,0,1-1.44.14,7.74,7.74,0,0,1-7.74-7.74,7.54,7.54,0,0,1,.41-2.48A7.75,7.75,0,0,1,230.3,28.1Z" transform="translate(169.08)"/><path class="cls-6" d="M238.05,23.32a5,5,0,0,1,1.58.27A10,10,0,0,0,243,28.88a10.14,10.14,0,0,0,18.94,0,10.09,10.09,0,0,0,3.4-5.29,5,5,0,0,1,1.58-.27,4.78,4.78,0,0,1,1.19,9.41l-3.1.8,1,3a4.72,4.72,0,0,1,.25,1.53,4.79,4.79,0,0,1-4.78,4.78,4.28,4.28,0,0,1-.87-.09l-2.93-.56-.55,2.93a4.78,4.78,0,0,1-9.39,0l-.55-2.93-2.92.56a4.46,4.46,0,0,1-.88.09,4.79,4.79,0,0,1-4.78-4.78,4.72,4.72,0,0,1,.25-1.53l1-3-3.1-.8a4.78,4.78,0,0,1,1.19-9.41Z" transform="translate(169.08)"/><path class="cls-7" d="M245.78,18.88a5.48,5.48,0,0,1,.32-.48,27.91,27.91,0,0,1,6.41-6.5,28.11,28.11,0,0,1,6.41,6.5s.22.33.32.48a4.24,4.24,0,0,1-1.56,5.79,4.16,4.16,0,0,1-.95.4c0,.06,0,.11,0,.17a4.24,4.24,0,0,1-8.47,0c0-.06,0-.11,0-.17a4.16,4.16,0,0,1-.95-.4A4.24,4.24,0,0,1,245.78,18.88Z" transform="translate(169.08)"/><path class="cls-4" d="M446.3,53.35c21.75,3,32.51-8.68,31.95-23.59C477.79,17.51,469.07,4.13,448,4.13c-23.88,0-32,21.93-35.72,29.17-3,5.78-9.68,18.7-27.2,19.88-10.79.64-28.48-1.45-36.5-26.07" transform="translate(169.08)"/><path class="cls-4" d="M409.83,37.68c2.09-3.75,2.42-9.36,2.42-11.21,0-15-9.45-22.34-20.53-22.34-6.05,0-8.61,1.33-9.74,2.72" transform="translate(169.08)"/><path class="cls-4" d="M575.77,53.35c21.75,3,32.51-8.68,32-23.59-.46-12.25-9.18-25.63-30.28-25.63-23.87,0-32,21.93-35.72,29.17-3,5.78-9.68,19.35-27.2,20.52-10.79.65-28.48-2.09-36.5-26.71" transform="translate(169.08)"/><path class="cls-4" d="M539.3,37.68c2.1-3.75,2.42-9.36,2.42-11.21,0-15-9.45-22.34-20.53-22.34-6.05,0-8.61,1.33-9.74,2.72" transform="translate(169.08)"/><path class="cls-5" d="M420.89,40.78c.43.6.85,1.18,1.26,1.73A14,14,0,0,1,434,46.65c2.23-.23,7.23.68,9.27,5.14l1.76-.22c-1.31-6.17-7.4-7.39-9.93-7.13A14.19,14.19,0,0,0,420.89,40.78Z" transform="translate(169.08)"/><path class="cls-6" d="M422.15,42.51c5.5,7.29,10.6,10.36,21.09,9.28-2-4.46-7-5.37-9.27-5.14A14,14,0,0,0,422.15,42.51Z" transform="translate(169.08)"/><path class="cls-5" d="M471.7,40.78c-.42.6-.84,1.18-1.25,1.73a14,14,0,0,0-11.83,4.14c-2.22-.23-7.22.68-9.26,5.14l-1.76-.22c1.31-6.17,7.4-7.39,9.92-7.13A14.19,14.19,0,0,1,471.7,40.78Z" transform="translate(169.08)"/><path class="cls-6" d="M470.45,42.51c-5.51,7.29-10.61,10.36-21.09,9.28,2-4.46,7-5.37,9.26-5.14A14,14,0,0,1,470.45,42.51Z" transform="translate(169.08)"/><path class="cls-5" d="M424.09,31.8a7.74,7.74,0,0,0,12,6.47,7.12,7.12,0,0,1,3.26-5.42,6.18,6.18,0,0,1,.23-.73,7.19,7.19,0,0,1,13.45,0,6.23,6.23,0,0,1,.24.73,7.17,7.17,0,0,1,3.25,5.42,7.74,7.74,0,1,0,6.16-14,7.55,7.55,0,0,0,.42-2.48,7.75,7.75,0,0,0-7.74-7.74,7.67,7.67,0,0,0-1.45.14,7.74,7.74,0,0,0-15.21,0,7.64,7.64,0,0,0-1.44-.14,7.74,7.74,0,0,0-7.33,10.22A7.75,7.75,0,0,0,424.09,31.8Z" transform="translate(169.08)"/><path class="cls-6" d="M431.84,36.58a4.68,4.68,0,0,0,1.58-.27A10,10,0,0,1,436.83,31a10.14,10.14,0,0,1,18.94,0,10,10,0,0,1,3.4,5.28,5,5,0,0,0,1.58.27,4.78,4.78,0,0,0,1.19-9.41l-3.09-.79,1-3a4.73,4.73,0,0,0,.26-1.53A4.79,4.79,0,0,0,455.35,17a4.31,4.31,0,0,0-.88.09l-2.93.57L451,14.76a4.78,4.78,0,0,0-9.39,0l-.54,2.94-2.93-.57a4.38,4.38,0,0,0-.88-.09,4.79,4.79,0,0,0-4.78,4.78,4.72,4.72,0,0,0,.25,1.53l1,3-3.1.79a4.78,4.78,0,0,0,1.19,9.41Z" transform="translate(169.08)"/><path class="cls-7" d="M439.57,41a5.48,5.48,0,0,0,.32.48A28.11,28.11,0,0,0,446.3,48a28.11,28.11,0,0,0,6.41-6.5L453,41a4.24,4.24,0,0,0-1.55-5.79,4.44,4.44,0,0,0-1-.4s0-.11,0-.17a4.23,4.23,0,1,0-8.46,0v.17a4.58,4.58,0,0,0-.95.4A4.24,4.24,0,0,0,439.57,41Z" transform="translate(169.08)"/><path class="cls-5" d="M291.42,40.78c.43.6.84,1.18,1.26,1.73a14,14,0,0,1,11.82,4.14c2.23-.23,7.23.68,9.26,5.14l1.77-.22c-1.31-6.17-7.4-7.39-9.93-7.13A14.19,14.19,0,0,0,291.42,40.78Z" transform="translate(169.08)"/><path class="cls-6" d="M292.68,42.51c5.5,7.29,10.6,10.36,21.08,9.28-2-4.46-7-5.37-9.26-5.14A14,14,0,0,0,292.68,42.51Z" transform="translate(169.08)"/><path class="cls-5" d="M342.23,40.78c-.42.6-.84,1.18-1.25,1.73a14,14,0,0,0-11.83,4.14c-2.22-.23-7.22.68-9.26,5.14l-1.76-.22c1.31-6.17,7.4-7.39,9.92-7.13A14.19,14.19,0,0,1,342.23,40.78Z" transform="translate(169.08)"/><path class="cls-6" d="M341,42.51c-5.51,7.29-10.61,10.36-21.09,9.28,2-4.46,7-5.37,9.26-5.14A14,14,0,0,1,341,42.51Z" transform="translate(169.08)"/><path class="cls-5" d="M306.45,37.23c.15.24.47.73.49.74a43.27,43.27,0,0,0,9.89,10,43.27,43.27,0,0,0,9.88-10s.35-.5.5-.74a6.53,6.53,0,0,0-2.4-8.92,6.29,6.29,0,0,0-1.47-.62c0-.09,0-.17,0-.26a6.53,6.53,0,1,0-13.05,0c0,.09,0,.17,0,.26a6.52,6.52,0,0,0-3.86,9.54Z" transform="translate(169.08)"/><path class="cls-6" d="M316.83,23.86a3.57,3.57,0,0,1,3.56,3.53c0,.11,0,.2,0,.3V29.9l2.12.63a3.67,3.67,0,0,1,.81.33A3.58,3.58,0,0,1,325,33a3.52,3.52,0,0,1-.33,2.66l-.24.36-.18.28h0a38.12,38.12,0,0,1-7.42,7.92,38.14,38.14,0,0,1-7.43-7.92l-.43-.65a3.56,3.56,0,0,1,1.35-4.81,3.67,3.67,0,0,1,.84-.34l2.11-.63V27.69c0-.1,0-.2,0-.3A3.57,3.57,0,0,1,316.83,23.86Z" transform="translate(169.08)"/><path class="cls-8" d="M295.16,39.25c.15,0,.48.14.5.13a25.43,25.43,0,0,0,8.22.6,25.38,25.38,0,0,0,.48-8.23s0-.35-.07-.51a3.82,3.82,0,0,0-4.49-3,3.73,3.73,0,0,0-.89.3l-.1-.12a3.82,3.82,0,0,0-5.74,5l.1.11a3.84,3.84,0,0,0,2,5.69Z" transform="translate(169.08)"/><path class="cls-9" d="M294.57,29.36a2.09,2.09,0,0,1,2.92.17l.12.14.85,1,1.17-.54a2,2,0,0,1,.49-.16,2,2,0,0,1,1.58.31,2.07,2.07,0,0,1,.89,1.29c0,.07,0,.17,0,.25s0,.13,0,.19h0a22.19,22.19,0,0,1-.21,6.35,22.67,22.67,0,0,1-6.32-.62l-.44-.12a2,2,0,0,1-1.16-1,2.07,2.07,0,0,1-.1-1.6,2,2,0,0,1,.23-.47l.69-1.09-.85-1-.13-.13A2.08,2.08,0,0,1,294.57,29.36Z" transform="translate(169.08)"/><path class="cls-5" d="M298.41,24.11l.4.33a25.41,25.41,0,0,0,7.25,3.92,25.14,25.14,0,0,0,3.82-7.3s.11-.34.15-.5A3.81,3.81,0,0,0,307.17,16a3.68,3.68,0,0,0-.93-.1c0-.05,0-.1,0-.15A3.82,3.82,0,1,0,298.89,18a1.21,1.21,0,0,1,.05.14,4,4,0,0,0-.71.6A3.83,3.83,0,0,0,298.41,24.11Z" transform="translate(169.08)"/><path class="cls-6" d="M301.94,14.85a2.1,2.1,0,0,1,2.6,1.36c0,.07,0,.12,0,.18l.38,1.23h1.29a2.37,2.37,0,0,1,.51.05,2.09,2.09,0,0,1,1.32.94,2,2,0,0,1,.27,1.54c0,.07-.05.16-.07.24l-.06.19h0a22.4,22.4,0,0,1-2.8,5.7,22.25,22.25,0,0,1-5.51-3.16l-.35-.29a2.09,2.09,0,0,1-.07-2.92,1.77,1.77,0,0,1,.41-.34l1.08-.72-.38-1.23-.06-.17A2.09,2.09,0,0,1,301.94,14.85Z" transform="translate(169.08)"/><path class="cls-8" d="M338.5,39.25c-.16,0-.49.14-.5.13a25.43,25.43,0,0,1-8.22.6,25.32,25.32,0,0,1-.49-8.23s0-.35.07-.51a3.79,3.79,0,0,1,5.38-2.71l.1-.12a3.82,3.82,0,1,1,5.74,5l-.1.11a3.81,3.81,0,0,1-2,5.69Z" transform="translate(169.08)"/><path class="cls-9" d="M339.09,29.36a2.1,2.1,0,0,0-2.93.17l-.11.14-.85,1L334,30.1a1.92,1.92,0,0,0-.48-.16,2.09,2.09,0,0,0-2.47,1.6c0,.07,0,.17,0,.25l0,.19h0a22.56,22.56,0,0,0,.21,6.35,22.77,22.77,0,0,0,6.33-.62l.44-.12A2.11,2.11,0,0,0,339.25,35a2.09,2.09,0,0,0-.24-.47l-.68-1.09.85-1,.12-.13A2.08,2.08,0,0,0,339.09,29.36Z" transform="translate(169.08)"/><path class="cls-5" d="M335.25,24.11l-.41.33a25.38,25.38,0,0,1-7.24,3.92,25.37,25.37,0,0,1-3.83-7.3s-.1-.34-.15-.5A3.82,3.82,0,0,1,326.49,16a3.65,3.65,0,0,1,.92-.1.83.83,0,0,0,0-.15A3.82,3.82,0,0,1,334.76,18a.58.58,0,0,1-.05.14,4.1,4.1,0,0,1,.72.6A3.83,3.83,0,0,1,335.25,24.11Z" transform="translate(169.08)"/><path class="cls-6" d="M331.72,14.85a2.09,2.09,0,0,0-2.6,1.36c0,.07,0,.12-.05.18l-.37,1.23h-1.3a2.51,2.51,0,0,0-.51.05,2.1,2.1,0,0,0-1.59,2.48c0,.07.05.16.08.24s0,.12.05.19h0a22.07,22.07,0,0,0,2.81,5.7,22,22,0,0,0,5.5-3.16l.36-.29a2.1,2.1,0,0,0,.06-2.92,1.77,1.77,0,0,0-.41-.34l-1.07-.72.37-1.23.06-.17A2.09,2.09,0,0,0,331.72,14.85Z" transform="translate(169.08)"/><path class="cls-10" d="M314.4,14.58a1.87,1.87,0,0,0,.86-.29,1.72,1.72,0,0,0-.3.85,1.87,1.87,0,0,0,3.73,0,1.7,1.7,0,0,0-.29-.85,1.83,1.83,0,0,0,.85.29,1.87,1.87,0,1,0,0-3.73,1.83,1.83,0,0,0-.85.29,1.7,1.7,0,0,0,.29-.85,1.87,1.87,0,0,0-3.73,0,1.72,1.72,0,0,0,.3.85,1.83,1.83,0,1,0-.86,3.44Z" transform="translate(169.08)"/><path class="cls-5" d="M485.63,19.12c.42-.6.84-1.18,1.25-1.73a14,14,0,0,0,11.83-4.14c2.22.23,7.22-.68,9.26-5.13l1.76.21c-1.31,6.17-7.4,7.39-9.92,7.13A14.19,14.19,0,0,1,485.63,19.12Z" transform="translate(169.08)"/><path class="cls-6" d="M486.88,17.39C492.39,10.1,497.49,7,508,8.12c-2,4.45-7,5.36-9.26,5.13A14,14,0,0,1,486.88,17.39Z" transform="translate(169.08)"/><path class="cls-5" d="M536.44,19.12c-.43-.6-.85-1.18-1.26-1.73a14,14,0,0,1-11.82-4.14c-2.23.23-7.23-.68-9.26-5.13l-1.77.21c1.31,6.17,7.4,7.39,9.93,7.13A14.19,14.19,0,0,0,536.44,19.12Z" transform="translate(169.08)"/><path class="cls-6" d="M535.18,17.39C529.68,10.1,524.58,7,514.1,8.12c2,4.45,7,5.36,9.26,5.13A14,14,0,0,0,535.18,17.39Z" transform="translate(169.08)"/><path class="cls-5" d="M500.65,22.67a8.64,8.64,0,0,1,.5-.74,43.27,43.27,0,0,1,9.88-10,43.27,43.27,0,0,1,9.89,10s.34.5.49.74a6.52,6.52,0,0,1-3.86,9.54c0,.09,0,.17,0,.26a6.53,6.53,0,1,1-13,0c0-.09,0-.17,0-.26a6.29,6.29,0,0,1-1.47-.62A6.53,6.53,0,0,1,500.65,22.67Z" transform="translate(169.08)"/><path class="cls-6" d="M511,36a3.57,3.57,0,0,0,3.57-3.52c0-.12,0-.21,0-.31V30l2.11-.63a3.29,3.29,0,0,0,.81-.34,3.56,3.56,0,0,0,1.37-4.84l-.24-.36-.18-.27h0A38.14,38.14,0,0,0,511,15.65a38.12,38.12,0,0,0-7.42,7.92l-.43.65a3.52,3.52,0,0,0-.32,2.64A3.57,3.57,0,0,0,504.53,29a4.06,4.06,0,0,0,.83.35l2.12.63v2.2c0,.1,0,.2,0,.31A3.57,3.57,0,0,0,511,36Z" transform="translate(169.08)"/><path class="cls-8" d="M489.36,20.65l.5-.13a25.43,25.43,0,0,1,8.22-.6,25.32,25.32,0,0,1,.49,8.23s-.05.35-.07.51a3.79,3.79,0,0,1-5.38,2.71l-.1.12a3.82,3.82,0,0,1-5.74-5l.1-.11a3.81,3.81,0,0,1,2-5.69Z" transform="translate(169.08)"/><path class="cls-9" d="M488.77,30.54a2.08,2.08,0,0,0,2.93-.17l.11-.14.85-1,1.18.54a1.92,1.92,0,0,0,.48.16,2.05,2.05,0,0,0,1.59-.3,2.1,2.1,0,0,0,.88-1.3c0-.07,0-.17,0-.25l0-.19h0a22.58,22.58,0,0,0-.21-6.35,22.77,22.77,0,0,0-6.33.62l-.44.12A2.11,2.11,0,0,0,488.61,25a2.09,2.09,0,0,0,.24.47l.68,1.1-.85,1-.12.13A2.08,2.08,0,0,0,488.77,30.54Z" transform="translate(169.08)"/><path class="cls-5" d="M492.61,35.8l.41-.34a25.38,25.38,0,0,1,7.24-3.92,25.37,25.37,0,0,1,3.83,7.3s.1.34.15.5a3.82,3.82,0,0,1-2.87,4.58,3.68,3.68,0,0,1-.93.1l0,.15a3.82,3.82,0,1,1-7.31-2.23.78.78,0,0,1,0-.14,4.1,4.1,0,0,1-.72-.6A3.82,3.82,0,0,1,492.61,35.8Z" transform="translate(169.08)"/><path class="cls-6" d="M496.14,45.05a2.09,2.09,0,0,0,2.6-1.36c0-.07,0-.12.05-.17l.37-1.24h1.3a2.51,2.51,0,0,0,.51,0,2.08,2.08,0,0,0,1.59-2.48c0-.07-.05-.16-.08-.24s0-.12-.05-.18h0a22.07,22.07,0,0,0-2.81-5.7,22,22,0,0,0-5.5,3.16l-.36.29a2.07,2.07,0,0,0-.62,1.43,2.1,2.1,0,0,0,.56,1.5,2,2,0,0,0,.41.33l1.07.72-.37,1.23-.06.17A2.09,2.09,0,0,0,496.14,45.05Z" transform="translate(169.08)"/><path class="cls-8" d="M532.7,20.65l-.5-.13a25.43,25.43,0,0,0-8.22-.6,25.38,25.38,0,0,0-.48,8.23s0,.35.07.51a3.82,3.82,0,0,0,4.49,3,3.73,3.73,0,0,0,.89-.3l.1.12a3.82,3.82,0,1,0,5.74-5l-.1-.11a3.84,3.84,0,0,0-2-5.69Z" transform="translate(169.08)"/><path class="cls-9" d="M533.29,30.54a2.07,2.07,0,0,1-2.92-.17l-.12-.14-.85-1-1.17.54a2,2,0,0,1-.49.16,2,2,0,0,1-1.58-.3,2.12,2.12,0,0,1-.89-1.3c0-.07,0-.17,0-.25s0-.13,0-.19h0a22.21,22.21,0,0,1,.21-6.35,22.67,22.67,0,0,1,6.32.62l.44.12a2,2,0,0,1,1.16,1,2.07,2.07,0,0,1,.1,1.6,2,2,0,0,1-.23.47l-.69,1.1.85,1,.13.13A2.09,2.09,0,0,1,533.29,30.54Z" transform="translate(169.08)"/><path class="cls-5" d="M529.45,35.8l-.4-.34a25.41,25.41,0,0,0-7.25-3.92,25.14,25.14,0,0,0-3.82,7.3s-.11.34-.15.5a3.81,3.81,0,0,0,2.86,4.58,3.68,3.68,0,0,0,.93.1s0,.1,0,.15A3.82,3.82,0,1,0,529,41.94a.78.78,0,0,1-.05-.14,4,4,0,0,0,.71-.6A3.82,3.82,0,0,0,529.45,35.8Z" transform="translate(169.08)"/><path class="cls-6" d="M525.92,45.05a2.1,2.1,0,0,1-2.6-1.36c0-.07,0-.12,0-.17l-.38-1.24h-1.29a2.37,2.37,0,0,1-.51,0,2.11,2.11,0,0,1-1.32-.93,2.06,2.06,0,0,1-.27-1.55c0-.07,0-.16.07-.24l.06-.18h0a22.4,22.4,0,0,1,2.8-5.7A22.25,22.25,0,0,1,528,36.8l.35.29a2.1,2.1,0,0,1,.07,2.93,2,2,0,0,1-.41.33l-1.08.72.38,1.23.06.17A2.09,2.09,0,0,1,525.92,45.05Z" transform="translate(169.08)"/><path class="cls-10" d="M508.61,45.32a1.83,1.83,0,0,1,.85.29,1.7,1.7,0,0,1-.29-.85,1.87,1.87,0,0,1,3.73,0,1.72,1.72,0,0,1-.3.85,1.87,1.87,0,1,1,0,3.15,1.75,1.75,0,0,1,.3.85,1.87,1.87,0,1,1-3.73,0,1.73,1.73,0,0,1,.29-.85,1.83,1.83,0,0,1-.85.29,1.87,1.87,0,1,1,0-3.73Z" transform="translate(169.08)"/><path class="cls-5" d="M356.57,19.12c.43-.6.84-1.18,1.25-1.73a14,14,0,0,0,11.83-4.14c2.23.23,7.22-.68,9.26-5.13l1.76.21c-1.3,6.17-7.39,7.39-9.92,7.13A14.19,14.19,0,0,1,356.57,19.12Z" transform="translate(169.08)"/><path class="cls-6" d="M357.82,17.39C363.33,10.1,368.43,7,378.91,8.12c-2,4.45-7,5.36-9.26,5.13A14,14,0,0,1,357.82,17.39Z" transform="translate(169.08)"/><path class="cls-5" d="M407.38,19.12c-.42-.6-.84-1.18-1.25-1.73a14,14,0,0,1-11.83-4.14c-2.22.23-7.22-.68-9.26-5.13l-1.76.21c1.31,6.17,7.4,7.39,9.92,7.13A14.19,14.19,0,0,0,407.38,19.12Z" transform="translate(169.08)"/><path class="cls-6" d="M406.13,17.39C400.62,10.1,395.52,7,385,8.12c2,4.45,7,5.36,9.26,5.13A14,14,0,0,0,406.13,17.39Z" transform="translate(169.08)"/><path class="cls-5" d="M372.32,21.92c.14-.22.44-.68.46-.69A40.24,40.24,0,0,1,382,11.9a40.24,40.24,0,0,1,9.19,9.33s.32.47.46.69a6.06,6.06,0,0,1-2.23,8.29,5.8,5.8,0,0,1-1.36.58c0,.08,0,.16,0,.24a6.07,6.07,0,1,1-12.14,0c0-.08,0-.16,0-.24a6.07,6.07,0,0,1-3.6-8.87Z" transform="translate(169.08)"/><path class="cls-6" d="M382,34.35a3.32,3.32,0,0,0,3.31-3.28c0-.1,0-.19,0-.28V28.74l2-.59a3.14,3.14,0,0,0,.75-.31,3.32,3.32,0,0,0,1.28-4.5l-.23-.34-.17-.25h0a35.52,35.52,0,0,0-6.9-7.36,35.8,35.8,0,0,0-6.91,7.36l-.4.61a3.32,3.32,0,0,0-.3,2.45,3.35,3.35,0,0,0,1.55,2,3.52,3.52,0,0,0,.78.32l2,.59v2.05c0,.1,0,.19,0,.28A3.32,3.32,0,0,0,382,34.35Z" transform="translate(169.08)"/><path class="cls-8" d="M360.81,20.65l.51-.13a25.42,25.42,0,0,1,8.22-.6,25.38,25.38,0,0,1,.48,8.23s0,.35-.07.51a3.82,3.82,0,0,1-4.49,3,3.73,3.73,0,0,1-.89-.3l-.1.12a3.82,3.82,0,0,1-5.74-5l.1-.11a3.84,3.84,0,0,1,2-5.69Z" transform="translate(169.08)"/><path class="cls-9" d="M360.23,30.54a2.07,2.07,0,0,0,2.92-.17l.12-.14.85-1,1.17.54a2,2,0,0,0,.49.16,2,2,0,0,0,1.58-.3,2.07,2.07,0,0,0,.88-1.3,1.87,1.87,0,0,0,0-.25,1.23,1.23,0,0,1,0-.19h0a22.21,22.21,0,0,0-.21-6.35,22.67,22.67,0,0,0-6.32.62l-.44.12a2,2,0,0,0-1.16,1,2.07,2.07,0,0,0-.1,1.6,2,2,0,0,0,.23.47l.69,1.1-.85,1-.13.13A2.08,2.08,0,0,0,360.23,30.54Z" transform="translate(169.08)"/><path class="cls-8" d="M403.14,20.65l-.5-.13a25.43,25.43,0,0,0-8.22-.6,25.32,25.32,0,0,0-.49,8.23s.05.35.07.51a3.79,3.79,0,0,0,5.38,2.71l.1.12a3.82,3.82,0,1,0,5.74-5l-.1-.11a3.81,3.81,0,0,0-2-5.69Z" transform="translate(169.08)"/><path class="cls-9" d="M403.73,30.54a2.08,2.08,0,0,1-2.93-.17l-.11-.14-.85-1-1.18.54a1.92,1.92,0,0,1-.48.16,2.05,2.05,0,0,1-1.59-.3,2.1,2.1,0,0,1-.88-1.3c0-.07,0-.17,0-.25l0-.19h0a22.58,22.58,0,0,1,.21-6.35,22.77,22.77,0,0,1,6.33.62l.43.12a2,2,0,0,1,1.16,1,2.07,2.07,0,0,1,.11,1.6,2.62,2.62,0,0,1-.24.47l-.68,1.1.85,1,.12.13A2.08,2.08,0,0,1,403.73,30.54Z" transform="translate(169.08)"/><path class="cls-5" d="M371.59,38a5.42,5.42,0,0,1,7.65-.34l0,0a3.93,3.93,0,0,0,5.41,0l0,0a5.41,5.41,0,0,1,7.31,8,7.48,7.48,0,0,1-4.27,1.59,5.94,5.94,0,0,1-11.54,0,7.45,7.45,0,0,1-4.27-1.59A5.42,5.42,0,0,1,371.59,38Z" transform="translate(169.08)"/><path class="cls-6" d="M375.59,38.18a3.44,3.44,0,0,1,2.32.9,5.91,5.91,0,0,0,8.11,0,3.45,3.45,0,0,1,2.34-.92,3.4,3.4,0,0,1,2.54,1.11,3.44,3.44,0,0,1-.22,4.86,5.58,5.58,0,0,1-3.11,1.09l-1.4.12-.34,1.37a4,4,0,0,1-7.71,0l-.34-1.37-1.4-.12a5.61,5.61,0,0,1-3.11-1.09,3.4,3.4,0,0,1-1.12-2.38,3.44,3.44,0,0,1,.9-2.48A3.4,3.4,0,0,1,375.59,38.18Z" transform="translate(169.08)"/><path class="cls-5" d="M550.78,40.78c.42.6.84,1.18,1.25,1.73a14,14,0,0,1,11.83,4.14c2.22-.23,7.22.68,9.26,5.14l1.76-.22c-1.31-6.17-7.4-7.39-9.92-7.13A14.19,14.19,0,0,0,550.78,40.78Z" transform="translate(169.08)"/><path class="cls-6" d="M552,42.51c5.51,7.29,10.61,10.36,21.09,9.28-2-4.46-7-5.37-9.26-5.14A14,14,0,0,0,552,42.51Z" transform="translate(169.08)"/><path class="cls-5" d="M601.59,40.78c-.43.6-.85,1.18-1.26,1.73a14,14,0,0,0-11.82,4.14c-2.23-.23-7.23.68-9.27,5.14l-1.76-.22c1.31-6.17,7.4-7.39,9.93-7.13A14.19,14.19,0,0,1,601.59,40.78Z" transform="translate(169.08)"/><path class="cls-6" d="M600.33,42.51c-5.5,7.29-10.6,10.36-21.09,9.28,2-4.46,7-5.37,9.27-5.14A14,14,0,0,1,600.33,42.51Z" transform="translate(169.08)"/><path class="cls-5" d="M566.53,38c.14.21.44.67.46.68A40.24,40.24,0,0,0,576.18,48a40.24,40.24,0,0,0,9.2-9.33s.32-.47.46-.68a6.08,6.08,0,0,0-3.6-8.88c0-.08,0-.16,0-.24a6.07,6.07,0,0,0-12.14,0c0,.08,0,.16,0,.24A6.07,6.07,0,0,0,566.53,38Z" transform="translate(169.08)"/><path class="cls-6" d="M576.18,25.55a3.32,3.32,0,0,1,3.32,3.28,2.72,2.72,0,0,0,0,.28v2.05l2,.59a3.14,3.14,0,0,1,.75.31,3.32,3.32,0,0,1,1.57,2,3.27,3.27,0,0,1-.3,2.47c-.06.1-.15.23-.23.34s-.11.16-.16.25h0a35.8,35.8,0,0,1-6.91,7.36,35.52,35.52,0,0,1-6.9-7.36l-.4-.61a3.27,3.27,0,0,1-.3-2.45,3.28,3.28,0,0,1,2.33-2.34l2-.59V29.11a2.53,2.53,0,0,0,0-.28A3.34,3.34,0,0,1,576.18,25.55Z" transform="translate(169.08)"/><path class="cls-8" d="M555,39.25c.16,0,.49.14.5.13a25.43,25.43,0,0,0,8.22.6,25.32,25.32,0,0,0,.49-8.23s-.05-.35-.07-.51a3.83,3.83,0,0,0-4.5-3,3.89,3.89,0,0,0-.89.3l-.09-.12a3.82,3.82,0,0,0-5.74,5l.1.11a3.81,3.81,0,0,0,2,5.69Z" transform="translate(169.08)"/><path class="cls-9" d="M554.43,29.36a2.1,2.1,0,0,1,2.93.17l.11.14.85,1,1.18-.54a1.92,1.92,0,0,1,.48-.16,2.09,2.09,0,0,1,2.47,1.6c0,.07,0,.17,0,.25l0,.19h0a22.56,22.56,0,0,1-.21,6.35,22.77,22.77,0,0,1-6.33-.62l-.44-.12A2.11,2.11,0,0,1,554.27,35a2.09,2.09,0,0,1,.24-.47l.68-1.09-.85-1-.12-.13A2.08,2.08,0,0,1,554.43,29.36Z" transform="translate(169.08)"/><path class="cls-8" d="M597.34,39.25c-.15,0-.49.14-.5.13a25.43,25.43,0,0,1-8.22.6,25.38,25.38,0,0,1-.48-8.23s0-.35.07-.51a3.82,3.82,0,0,1,4.49-3,3.73,3.73,0,0,1,.89.3l.1-.12a3.82,3.82,0,1,1,5.74,5l-.1.11a3.84,3.84,0,0,1-2,5.69Z" transform="translate(169.08)"/><path class="cls-9" d="M597.93,29.36a2.1,2.1,0,0,0-2.93.17,1.71,1.71,0,0,1-.11.14l-.85,1-1.17-.54a2,2,0,0,0-.49-.16,2.07,2.07,0,0,0-1.59.31,2.1,2.1,0,0,0-.88,1.29c0,.07,0,.17,0,.25s0,.13,0,.19h0a22.19,22.19,0,0,0,.21,6.35,22.67,22.67,0,0,0,6.32-.62l.44-.12a2,2,0,0,0,1.16-1,2.07,2.07,0,0,0,.1-1.6,2,2,0,0,0-.23-.47l-.69-1.09.85-1,.12-.13A2.08,2.08,0,0,0,597.93,29.36Z" transform="translate(169.08)"/><path class="cls-5" d="M565.8,21.94a5.41,5.41,0,0,0,7.64.34l0,0a3.93,3.93,0,0,1,5.41,0l0,0a5.41,5.41,0,1,0,7.3-8A7.48,7.48,0,0,0,582,12.7a5.94,5.94,0,0,0-11.54,0,7.48,7.48,0,0,0-4.27,1.59A5.42,5.42,0,0,0,565.8,21.94Z" transform="translate(169.08)"/><path class="cls-6" d="M569.79,21.72a3.38,3.38,0,0,0,2.32-.9,5.92,5.92,0,0,1,8.12,0,3.45,3.45,0,0,0,4.88-.19,3.44,3.44,0,0,0-.22-4.86,5.64,5.64,0,0,0-3.11-1.09l-1.4-.12L580,13.17a4,4,0,0,0-7.71,0L572,14.54l-1.4.12a5.65,5.65,0,0,0-3.12,1.09,3.44,3.44,0,0,0-.21,4.86A3.38,3.38,0,0,0,569.79,21.72Z" transform="translate(169.08)"/><path class="cls-4" d="M-71.58,53.35c21.75,3,32.51-8.68,31.94-23.59C-40.1,17.51-48.82,4.13-69.92,4.13s-32,21.93-35.71,29.17c-3,5.78-9.69,18.7-27.2,19.88a54.87,54.87,0,0,1-17.53-1.36" transform="translate(169.08)"/><path class="cls-5" d="M-169.08,32.19c6.56.63,6.77,4.63,6.77,4.63a6.64,6.64,0,0,1,7.2,6.07c4.7,2,6,6.21,5.9,10.29a16,16,0,0,1-2.35-.63c.05-3.81-2.84-7.48-4.82-7.85-.61-3.82-4.17-6.29-6.78-5.68a6.2,6.2,0,0,0-5.26-4.7A14.74,14.74,0,0,1-169.08,32.19Z" transform="translate(169.08)"/><path class="cls-6" d="M-168.42,34.32a6.2,6.2,0,0,1,5.26,4.7c2.61-.61,6.17,1.86,6.78,5.68,2,.37,4.87,4,4.82,7.85C-159.83,49.63-166.22,40.15-168.42,34.32Z" transform="translate(169.08)"/><path class="cls-4" d="M-108,37.68c2.09-3.75,2.42-9.36,2.42-11.21,0-15-9.45-22.34-20.53-22.34-6.05,0-8.61,1.33-9.75,2.72" transform="translate(169.08)"/><path class="cls-5" d="M-161.31,19.12c.42-.6.84-1.18,1.25-1.73a14,14,0,0,0,11.83-4.14c2.23.23,7.22-.68,9.26-5.13l1.76.21c-1.31,6.17-7.4,7.39-9.92,7.13A14.19,14.19,0,0,1-161.31,19.12Z" transform="translate(169.08)"/><path class="cls-6" d="M-160.06,17.39C-154.55,10.1-149.45,7-139,8.12c-2,4.45-7,5.36-9.26,5.13A14,14,0,0,1-160.06,17.39Z" transform="translate(169.08)"/><path class="cls-5" d="M-110.5,19.12c-.43-.6-.84-1.18-1.25-1.73a14,14,0,0,1-11.83-4.14c-2.23.23-7.22-.68-9.26-5.13l-1.76.21c1.3,6.17,7.39,7.39,9.92,7.13A14.19,14.19,0,0,0-110.5,19.12Z" transform="translate(169.08)"/><path class="cls-6" d="M-111.75,17.39C-117.26,10.1-122.36,7-132.84,8.12c2,4.45,7,5.36,9.26,5.13A14,14,0,0,0-111.75,17.39Z" transform="translate(169.08)"/><path class="cls-5" d="M-158.11,28.1a7.75,7.75,0,0,1,7.75-7.74,7.72,7.72,0,0,1,4.24,1.27,7.14,7.14,0,0,0,3.25,5.42,6.23,6.23,0,0,0,.24.73,7.19,7.19,0,0,0,6.72,4.65,7.22,7.22,0,0,0,6.73-4.65,4.75,4.75,0,0,0,.23-.73,7.17,7.17,0,0,0,3.26-5.42,7.69,7.69,0,0,1,4.24-1.27,7.75,7.75,0,0,1,7.75,7.74,7.75,7.75,0,0,1-5.83,7.5,7.54,7.54,0,0,1,.41,2.48,7.74,7.74,0,0,1-7.74,7.74,7.64,7.64,0,0,1-1.44-.14A7.74,7.74,0,0,1-135.91,52a7.73,7.73,0,0,1-7.6-6.32,7.64,7.64,0,0,1-1.44.14,7.74,7.74,0,0,1-7.74-7.74,7.54,7.54,0,0,1,.41-2.48A7.75,7.75,0,0,1-158.11,28.1Z" transform="translate(169.08)"/><path class="cls-6" d="M-150.36,23.32a5,5,0,0,1,1.58.27,10,10,0,0,0,3.4,5.29,10.21,10.21,0,0,0,9.47,6.51,10.22,10.22,0,0,0,9.48-6.51,10.15,10.15,0,0,0,3.4-5.29,5,5,0,0,1,1.58-.27,4.79,4.79,0,0,1,4.79,4.78,4.77,4.77,0,0,1-3.6,4.63l-3.1.8,1,3a4.72,4.72,0,0,1,.25,1.53,4.79,4.79,0,0,1-4.78,4.78,4.46,4.46,0,0,1-.88-.09l-2.92-.56-.55,2.93a4.77,4.77,0,0,1-4.7,3.9,4.77,4.77,0,0,1-4.69-3.9l-.55-2.93-2.93.56a4.28,4.28,0,0,1-.87.09,4.79,4.79,0,0,1-4.78-4.78,4.72,4.72,0,0,1,.25-1.53l1-3-3.1-.8a4.77,4.77,0,0,1-3.6-4.63A4.79,4.79,0,0,1-150.36,23.32Z" transform="translate(169.08)"/><path class="cls-7" d="M-142.64,18.88l.32-.48a28.11,28.11,0,0,1,6.41-6.5,27.91,27.91,0,0,1,6.41,6.5s.23.33.32.48a4.24,4.24,0,0,1-1.55,5.79,4.16,4.16,0,0,1-1,.4c0,.06,0,.11,0,.17a4.23,4.23,0,0,1-4.24,4.23,4.23,4.23,0,0,1-4.23-4.23c0-.06,0-.11,0-.17a4.16,4.16,0,0,1-1-.4A4.24,4.24,0,0,1-142.64,18.88Z" transform="translate(169.08)"/><path class="cls-4" d="M57.89,53.35c21.75,3,32.51-8.68,32-23.59C89.37,17.51,80.65,4.13,59.56,4.13c-23.88,0-32,21.93-35.72,29.17-3,5.78-9.69,18.7-27.2,19.88-10.79.64-28.48-1.45-36.51-26.07" transform="translate(169.08)"/><path class="cls-4" d="M21.42,37.68c2.09-3.75,2.42-9.36,2.42-11.21,0-15-9.45-22.34-20.53-22.34-6.05,0-8.61,1.33-9.75,2.72" transform="translate(169.08)"/><path class="cls-4" d="M187.36,53.35c21.75,3,32.51-8.68,31.95-23.59C218.84,17.51,210.12,4.13,189,4.13c-23.88,0-32,21.93-35.72,29.17-3,5.78-9.68,19.35-27.2,20.52-10.79.65-28.48-2.09-36.51-26.71" transform="translate(169.08)"/><path class="cls-4" d="M150.89,37.68c2.09-3.75,2.42-9.36,2.42-11.21,0-15-9.45-22.34-20.53-22.34-6,0-8.61,1.33-9.74,2.72" transform="translate(169.08)"/><path class="cls-5" d="M32.48,40.78c.43.6.84,1.18,1.25,1.73a14,14,0,0,1,11.83,4.14c2.23-.23,7.22.68,9.26,5.14l1.76-.22c-1.3-6.17-7.39-7.39-9.92-7.13A14.19,14.19,0,0,0,32.48,40.78Z" transform="translate(169.08)"/><path class="cls-6" d="M33.73,42.51c5.51,7.29,10.61,10.36,21.09,9.28-2-4.46-7-5.37-9.26-5.14A14,14,0,0,0,33.73,42.51Z" transform="translate(169.08)"/><path class="cls-5" d="M83.29,40.78c-.42.6-.84,1.18-1.25,1.73a14,14,0,0,0-11.83,4.14C68,46.42,63,47.33,61,51.79l-1.76-.22c1.31-6.17,7.4-7.39,9.92-7.13A14.19,14.19,0,0,1,83.29,40.78Z" transform="translate(169.08)"/><path class="cls-6" d="M82,42.51C76.53,49.8,71.43,52.87,61,51.79c2-4.46,7-5.37,9.26-5.14A14,14,0,0,1,82,42.51Z" transform="translate(169.08)"/><path class="cls-5" d="M35.68,31.8a7.74,7.74,0,0,0,12,6.47,7.12,7.12,0,0,1,3.26-5.42,4.75,4.75,0,0,1,.23-.73,7.19,7.19,0,0,1,13.45,0,6.23,6.23,0,0,1,.24.73,7.17,7.17,0,0,1,3.25,5.42,7.74,7.74,0,1,0,6.16-14,7.54,7.54,0,0,0,.41-2.48,7.74,7.74,0,0,0-7.74-7.74,7.64,7.64,0,0,0-1.44.14,7.74,7.74,0,0,0-15.21,0,7.64,7.64,0,0,0-1.44-.14,7.74,7.74,0,0,0-7.74,7.74,7.54,7.54,0,0,0,.41,2.48A7.75,7.75,0,0,0,35.68,31.8Z" transform="translate(169.08)"/><path class="cls-6" d="M43.43,36.58A4.68,4.68,0,0,0,45,36.31,10,10,0,0,1,48.42,31a10.14,10.14,0,0,1,18.94,0,10.06,10.06,0,0,1,3.4,5.28,5,5,0,0,0,1.58.27,4.78,4.78,0,0,0,1.19-9.41l-3.1-.79,1-3a4.72,4.72,0,0,0,.25-1.53A4.79,4.79,0,0,0,66.93,17a4.28,4.28,0,0,0-.87.09l-2.93.57-.55-2.94a4.78,4.78,0,0,0-9.39,0l-.55,2.94-2.92-.57a4.46,4.46,0,0,0-.88-.09,4.79,4.79,0,0,0-4.78,4.78,4.72,4.72,0,0,0,.25,1.53l1,3-3.1.79a4.78,4.78,0,0,0,1.19,9.41Z" transform="translate(169.08)"/><path class="cls-7" d="M51.16,41a5.48,5.48,0,0,0,.32.48A27.91,27.91,0,0,0,57.89,48a28.11,28.11,0,0,0,6.41-6.5l.32-.48a4.24,4.24,0,0,0-1.56-5.79,4.16,4.16,0,0,0-1-.4s0-.11,0-.17a4.24,4.24,0,0,0-8.47,0c0,.06,0,.12,0,.17a4.16,4.16,0,0,0-.95.4A4.24,4.24,0,0,0,51.16,41Z" transform="translate(169.08)"/><path class="cls-5" d="M-97,40.78c.43.6.84,1.18,1.25,1.73a14,14,0,0,1,11.83,4.14c2.23-.23,7.22.68,9.26,5.14l1.76-.22c-1.3-6.17-7.39-7.39-9.92-7.13A14.19,14.19,0,0,0-97,40.78Z" transform="translate(169.08)"/><path class="cls-6" d="M-95.74,42.51c5.51,7.29,10.61,10.36,21.09,9.28-2-4.46-7-5.37-9.26-5.14A14,14,0,0,0-95.74,42.51Z" transform="translate(169.08)"/><path class="cls-5" d="M-46.18,40.78c-.42.6-.84,1.18-1.25,1.73a14,14,0,0,0-11.83,4.14c-2.23-.23-7.22.68-9.26,5.14l-1.76-.22c1.31-6.17,7.4-7.39,9.92-7.13A14.19,14.19,0,0,1-46.18,40.78Z" transform="translate(169.08)"/><path class="cls-6" d="M-47.43,42.51C-52.94,49.8-58,52.87-68.52,51.79c2-4.46,7-5.37,9.26-5.14A14,14,0,0,1-47.43,42.51Z" transform="translate(169.08)"/><path class="cls-5" d="M-82,37.23c.15.24.48.73.5.74a43.27,43.27,0,0,0,9.89,10A43.47,43.47,0,0,0-61.7,38s.35-.5.5-.74a6.53,6.53,0,0,0-2.4-8.92,6.29,6.29,0,0,0-1.47-.62c0-.09,0-.17,0-.26a6.52,6.52,0,0,0-6.52-6.53,6.53,6.53,0,0,0-6.53,6.53c0,.09,0,.17,0,.26a6.29,6.29,0,0,0-1.47.62A6.53,6.53,0,0,0-82,37.23Z" transform="translate(169.08)"/><path class="cls-6" d="M-71.58,23.86A3.57,3.57,0,0,1-68,27.39c0,.11,0,.2,0,.3V29.9l2.12.63a3.67,3.67,0,0,1,.81.33A3.58,3.58,0,0,1-63.41,33a3.57,3.57,0,0,1-.33,2.66l-.24.36-.18.28h0a38.39,38.39,0,0,1-7.42,7.92A38.14,38.14,0,0,1-79,36.33l-.43-.65A3.52,3.52,0,0,1-79.76,33a3.57,3.57,0,0,1,1.67-2.17,3.77,3.77,0,0,1,.83-.34l2.12-.63V27.69c0-.1,0-.2,0-.3A3.57,3.57,0,0,1-71.58,23.86Z" transform="translate(169.08)"/><path class="cls-8" d="M-93.26,39.25c.16,0,.49.14.51.13a25.41,25.41,0,0,0,8.22.6A25.38,25.38,0,0,0-84,31.75s0-.35-.07-.51a3.83,3.83,0,0,0-4.5-3,3.81,3.81,0,0,0-.88.3l-.1-.12A3.82,3.82,0,0,0-95,28.06a3.83,3.83,0,0,0-.35,5.39l.1.11a3.83,3.83,0,0,0-.4.84A3.82,3.82,0,0,0-93.26,39.25Z" transform="translate(169.08)"/><path class="cls-9" d="M-93.85,29.36a2.1,2.1,0,0,1,2.93.17l.12.14.85,1,1.17-.54a2.06,2.06,0,0,1,.48-.16,2.06,2.06,0,0,1,1.59.31,2,2,0,0,1,.88,1.29c0,.07,0,.17,0,.25a1.23,1.23,0,0,0,0,.19h0A22.56,22.56,0,0,1-86,38.33a22.67,22.67,0,0,1-6.32-.62l-.44-.12a2,2,0,0,1-1.16-1A2.07,2.07,0,0,1-94,35a2,2,0,0,1,.23-.47l.69-1.09-.86-1-.12-.13A2.09,2.09,0,0,1-93.85,29.36Z" transform="translate(169.08)"/><path class="cls-5" d="M-90,24.11l.4.33a25.41,25.41,0,0,0,7.25,3.92,25.65,25.65,0,0,0,3.82-7.3s.11-.34.15-.5A3.82,3.82,0,0,0-81.24,16a3.73,3.73,0,0,0-.93-.1.83.83,0,0,1,0-.15A3.83,3.83,0,0,0-87,13.19,3.83,3.83,0,0,0-89.52,18a1.21,1.21,0,0,1,0,.14,4.5,4.5,0,0,0-.72.6A3.83,3.83,0,0,0-90,24.11Z" transform="translate(169.08)"/><path class="cls-6" d="M-86.47,14.85a2.1,2.1,0,0,1,2.6,1.36,1,1,0,0,0,0,.18l.38,1.23h1.29a2.44,2.44,0,0,1,.51.05,2.09,2.09,0,0,1,1.32.94,2.07,2.07,0,0,1,.27,1.54c0,.07,0,.16-.08.24a1.8,1.8,0,0,1,0,.19h0a22.4,22.4,0,0,1-2.8,5.7A22.25,22.25,0,0,1-88.5,23.1l-.35-.29a2.08,2.08,0,0,1-.63-1.43,2.06,2.06,0,0,1,.56-1.49,1.77,1.77,0,0,1,.41-.34l1.07-.72-.37-1.23-.06-.17A2.09,2.09,0,0,1-86.47,14.85Z" transform="translate(169.08)"/><path class="cls-8" d="M-49.91,39.25c-.16,0-.49.14-.51.13a25.41,25.41,0,0,1-8.22.6,25.38,25.38,0,0,1-.48-8.23s0-.35.07-.51a3.83,3.83,0,0,1,4.5-3,3.81,3.81,0,0,1,.88.3l.1-.12a3.82,3.82,0,0,1,5.39-.35,3.82,3.82,0,0,1,.35,5.39l-.1.11a3.83,3.83,0,0,1,.4.84A3.82,3.82,0,0,1-49.91,39.25Z" transform="translate(169.08)"/><path class="cls-9" d="M-49.32,29.36a2.1,2.1,0,0,0-2.93.17l-.11.14-.86,1-1.17-.54a2.06,2.06,0,0,0-.48-.16,2.06,2.06,0,0,0-1.59.31,2,2,0,0,0-.88,1.29c0,.07,0,.17,0,.25a1.23,1.23,0,0,1,0,.19h0a22.56,22.56,0,0,0,.21,6.35,22.67,22.67,0,0,0,6.32-.62l.44-.12a2,2,0,0,0,1.16-1,2.12,2.12,0,0,0,.11-1.6,2.62,2.62,0,0,0-.24-.47l-.69-1.09.86-1,.12-.13A2.08,2.08,0,0,0-49.32,29.36Z" transform="translate(169.08)"/><path class="cls-5" d="M-53.17,24.11l-.4.33a25.51,25.51,0,0,1-7.24,3.92,25.37,25.37,0,0,1-3.83-7.3l-.15-.5A3.82,3.82,0,0,1-61.93,16a3.78,3.78,0,0,1,.93-.1.83.83,0,0,0,0-.15,3.83,3.83,0,0,1,4.77-2.54A3.83,3.83,0,0,1-53.65,18a1.21,1.21,0,0,0-.05.14,4.1,4.1,0,0,1,.72.6A3.83,3.83,0,0,1-53.17,24.11Z" transform="translate(169.08)"/><path class="cls-6" d="M-56.7,14.85a2.09,2.09,0,0,0-2.59,1.36c0,.07,0,.12-.05.18l-.38,1.23H-61a2.51,2.51,0,0,0-.51.05,2.09,2.09,0,0,0-1.32.94,2.07,2.07,0,0,0-.27,1.54c0,.07,0,.16.08.24a1.8,1.8,0,0,0,.05.19h0a22.4,22.4,0,0,0,2.8,5.7,22.25,22.25,0,0,0,5.51-3.16l.35-.29a2.08,2.08,0,0,0,.63-1.43,2.06,2.06,0,0,0-.56-1.49,1.77,1.77,0,0,0-.41-.34l-1.07-.72.37-1.23.06-.17A2.09,2.09,0,0,0-56.7,14.85Z" transform="translate(169.08)"/><path class="cls-10" d="M-74,14.58a1.8,1.8,0,0,0,.85-.29,1.8,1.8,0,0,0-.29.85A1.86,1.86,0,0,0-71.58,17a1.86,1.86,0,0,0,1.86-1.86,1.8,1.8,0,0,0-.29-.85,1.8,1.8,0,0,0,.85.29,1.86,1.86,0,0,0,1.86-1.87,1.86,1.86,0,0,0-1.86-1.86,1.8,1.8,0,0,0-.85.29,1.8,1.8,0,0,0,.29-.85,1.86,1.86,0,0,0-1.86-1.86,1.86,1.86,0,0,0-1.87,1.86,1.8,1.8,0,0,0,.29.85,1.8,1.8,0,0,0-.85-.29,1.86,1.86,0,0,0-1.86,1.86A1.86,1.86,0,0,0-74,14.58Z" transform="translate(169.08)"/><path class="cls-5" d="M97.22,19.12c.42-.6.84-1.18,1.25-1.73a14,14,0,0,0,11.82-4.14c2.23.23,7.23-.68,9.27-5.13l1.76.21c-1.31,6.17-7.4,7.39-9.93,7.13A14.17,14.17,0,0,1,97.22,19.12Z" transform="translate(169.08)"/><path class="cls-6" d="M98.47,17.39C104,10.1,109.08,7,119.56,8.12c-2,4.45-7,5.36-9.27,5.13A14,14,0,0,1,98.47,17.39Z" transform="translate(169.08)"/><path class="cls-5" d="M148,19.12c-.43-.6-.85-1.18-1.26-1.73A14,14,0,0,1,135,13.25c-2.23.23-7.23-.68-9.27-5.13l-1.76.21c1.31,6.17,7.4,7.39,9.93,7.13A14.18,14.18,0,0,0,148,19.12Z" transform="translate(169.08)"/><path class="cls-6" d="M146.77,17.39c-5.5-7.29-10.6-10.36-21.09-9.27,2,4.45,7,5.36,9.27,5.13A14,14,0,0,0,146.77,17.39Z" transform="translate(169.08)"/><path class="cls-5" d="M112.24,22.67c.15-.24.47-.73.49-.74a43.47,43.47,0,0,1,9.89-10,43.27,43.27,0,0,1,9.89,10s.34.5.49.74a6.52,6.52,0,0,1-3.86,9.54c0,.09,0,.17,0,.26a6.53,6.53,0,0,1-13.06,0c0-.09,0-.17,0-.26a6.67,6.67,0,0,1-1.47-.62A6.54,6.54,0,0,1,112.24,22.67Z" transform="translate(169.08)"/><path class="cls-6" d="M122.62,36a3.58,3.58,0,0,0,3.57-3.52c0-.12,0-.21,0-.31V30l2.11-.63a3.29,3.29,0,0,0,.81-.34,3.58,3.58,0,0,0,1.37-4.84l-.25-.36a2.11,2.11,0,0,0-.18-.27h0a38.41,38.41,0,0,0-7.43-7.92,38.12,38.12,0,0,0-7.42,7.92l-.43.65a3.52,3.52,0,0,0-.32,2.64A3.59,3.59,0,0,0,116.11,29a4.43,4.43,0,0,0,.84.35l2.11.63v2.2c0,.1,0,.2,0,.31A3.58,3.58,0,0,0,122.62,36Z" transform="translate(169.08)"/><path class="cls-8" d="M101,20.65l.5-.13a25.43,25.43,0,0,1,8.22-.6,25.38,25.38,0,0,1,.48,8.23l-.06.51a3.84,3.84,0,0,1-4.5,3,3.89,3.89,0,0,1-.89-.3l-.09.12a3.82,3.82,0,0,1-5.75-5,.57.57,0,0,0,.11-.11,3.45,3.45,0,0,1-.41-.84A3.82,3.82,0,0,1,101,20.65Z" transform="translate(169.08)"/><path class="cls-9" d="M100.36,30.54a2.08,2.08,0,0,0,2.93-.17,1.71,1.71,0,0,1,.11-.14l.85-1,1.18.54a1.92,1.92,0,0,0,.48.16,2.06,2.06,0,0,0,1.59-.3,2.15,2.15,0,0,0,.88-1.3c0-.07,0-.17,0-.25l0-.19h0a22.58,22.58,0,0,0-.21-6.35,22.77,22.77,0,0,0-6.33.62l-.44.12a2,2,0,0,0-1.16,1,2.11,2.11,0,0,0-.1,1.6,2,2,0,0,0,.23.47l.69,1.1-.85,1-.12.13A2.08,2.08,0,0,0,100.36,30.54Z" transform="translate(169.08)"/><path class="cls-5" d="M104.2,35.8l.41-.34a25.38,25.38,0,0,1,7.24-3.92,25.14,25.14,0,0,1,3.82,7.3s.11.34.15.5A3.81,3.81,0,0,1,113,43.92a3.68,3.68,0,0,1-.93.1l0,.15a3.82,3.82,0,1,1-7.31-2.23.78.78,0,0,1,0-.14,4.1,4.1,0,0,1-.72-.6A3.82,3.82,0,0,1,104.2,35.8Z" transform="translate(169.08)"/><path class="cls-6" d="M107.73,45.05a2.1,2.1,0,0,0,2.6-1.36c0-.07,0-.12,0-.17l.37-1.24H112a2.37,2.37,0,0,0,.51,0,2.06,2.06,0,0,0,1.32-.93,2.11,2.11,0,0,0,.28-1.55,1.69,1.69,0,0,1-.08-.24,1.21,1.21,0,0,1,0-.18h0a22.07,22.07,0,0,0-2.81-5.7,22.25,22.25,0,0,0-5.51,3.16l-.35.29a2.09,2.09,0,0,0-.06,2.93,2,2,0,0,0,.4.33l1.08.72-.38,1.23a1.09,1.09,0,0,1,0,.17A2.09,2.09,0,0,0,107.73,45.05Z" transform="translate(169.08)"/><path class="cls-8" d="M144.29,20.65l-.5-.13a25.43,25.43,0,0,0-8.22-.6,25.38,25.38,0,0,0-.48,8.23s0,.35.07.51a3.82,3.82,0,0,0,4.49,3,3.73,3.73,0,0,0,.89-.3l.09.12a3.82,3.82,0,0,0,5.75-5l-.11-.11a3.45,3.45,0,0,0,.41-.84A3.82,3.82,0,0,0,144.29,20.65Z" transform="translate(169.08)"/><path class="cls-9" d="M144.88,30.54a2.08,2.08,0,0,1-2.93-.17,1.71,1.71,0,0,0-.11-.14l-.85-1-1.17.54a2,2,0,0,1-.49.16,2.07,2.07,0,0,1-1.59-.3,2.15,2.15,0,0,1-.88-1.3c0-.07,0-.17,0-.25l0-.19h0a22.17,22.17,0,0,1,.22-6.35,22.67,22.67,0,0,1,6.32.62l.44.12a2,2,0,0,1,1.16,1A2.11,2.11,0,0,1,145,25a2,2,0,0,1-.23.47l-.69,1.1.85,1,.12.13A2.08,2.08,0,0,1,144.88,30.54Z" transform="translate(169.08)"/><path class="cls-5" d="M141,35.8l-.4-.34a25.54,25.54,0,0,0-7.25-3.92,25.14,25.14,0,0,0-3.82,7.3s-.11.34-.15.5a3.81,3.81,0,0,0,2.86,4.58,3.68,3.68,0,0,0,.93.1.83.83,0,0,0,0,.15,3.82,3.82,0,1,0,7.3-2.23.78.78,0,0,0-.05-.14,4.1,4.1,0,0,0,.72-.6A3.82,3.82,0,0,0,141,35.8Z" transform="translate(169.08)"/><path class="cls-6" d="M137.51,45.05a2.1,2.1,0,0,1-2.6-1.36c0-.07,0-.12,0-.17l-.38-1.24H133.2a2.37,2.37,0,0,1-.51,0,2.09,2.09,0,0,1-1.32-.93,2.06,2.06,0,0,1-.27-1.55c0-.07.05-.16.07-.24l.06-.18h0a22.4,22.4,0,0,1,2.8-5.7,22.25,22.25,0,0,1,5.51,3.16l.35.29A2.1,2.1,0,0,1,140,40a2.36,2.36,0,0,1-.41.33l-1.08.72.38,1.23a1.15,1.15,0,0,0,.06.17A2.1,2.1,0,0,1,137.51,45.05Z" transform="translate(169.08)"/><path class="cls-10" d="M120.2,45.32a1.83,1.83,0,0,1,.85.29,1.7,1.7,0,0,1-.29-.85,1.87,1.87,0,0,1,3.73,0,1.72,1.72,0,0,1-.3.85,1.87,1.87,0,1,1,0,3.15,1.75,1.75,0,0,1,.3.85,1.87,1.87,0,1,1-3.73,0,1.73,1.73,0,0,1,.29-.85,1.83,1.83,0,0,1-.85.29,1.87,1.87,0,1,1,0-3.73Z" transform="translate(169.08)"/><path class="cls-5" d="M-31.84,19.12c.42-.6.84-1.18,1.25-1.73a14,14,0,0,0,11.83-4.14c2.23.23,7.22-.68,9.26-5.13l1.76.21c-1.31,6.17-7.4,7.39-9.92,7.13A14.19,14.19,0,0,1-31.84,19.12Z" transform="translate(169.08)"/><path class="cls-6" d="M-30.59,17.39C-25.08,10.1-20,7-9.5,8.12c-2,4.45-7,5.36-9.26,5.13A14,14,0,0,1-30.59,17.39Z" transform="translate(169.08)"/><path class="cls-5" d="M19,19.12c-.43-.6-.84-1.18-1.25-1.73A14,14,0,0,1,5.89,13.25c-2.23.23-7.22-.68-9.26-5.13l-1.76.21c1.3,6.17,7.39,7.39,9.92,7.13A14.19,14.19,0,0,0,19,19.12Z" transform="translate(169.08)"/><path class="cls-6" d="M17.72,17.39C12.21,10.1,7.11,7-3.37,8.12c2,4.45,7,5.36,9.26,5.13A14,14,0,0,0,17.72,17.39Z" transform="translate(169.08)"/><path class="cls-5" d="M-16.09,21.92c.14-.22.44-.68.46-.69A40.24,40.24,0,0,1-6.44,11.9a40.24,40.24,0,0,1,9.2,9.33s.32.47.46.69A6.06,6.06,0,0,1,1,30.21a6.18,6.18,0,0,1-1.36.58c0,.08,0,.16,0,.24A6.07,6.07,0,0,1-6.44,37.1,6.07,6.07,0,0,1-12.51,31c0-.08,0-.16,0-.24a6,6,0,0,1-1.36-.58A6.06,6.06,0,0,1-16.09,21.92Z" transform="translate(169.08)"/><path class="cls-6" d="M-6.44,34.35a3.32,3.32,0,0,0,3.32-3.28c0-.1,0-.19,0-.28V28.74l2-.59a3.14,3.14,0,0,0,.75-.31,3.3,3.3,0,0,0,1.58-2,3.32,3.32,0,0,0-.31-2.47L.64,23l-.17-.25h0a35.27,35.27,0,0,0-6.91-7.36,35.52,35.52,0,0,0-6.9,7.36l-.4.61a3.27,3.27,0,0,0-.3,2.45,3.31,3.31,0,0,0,1.55,2,3.52,3.52,0,0,0,.78.32l2,.59v2.05c0,.1,0,.19,0,.28A3.32,3.32,0,0,0-6.44,34.35Z" transform="translate(169.08)"/><path class="cls-8" d="M-27.6,20.65l.51-.13a25.36,25.36,0,0,1,8.21-.6,25.32,25.32,0,0,1,.49,8.23s-.05.35-.07.51a3.83,3.83,0,0,1-4.5,3,3.81,3.81,0,0,1-.88-.3l-.1.12a3.81,3.81,0,0,1-5.39.35,3.82,3.82,0,0,1-.35-5.39l.1-.11A3.85,3.85,0,0,1-30,25.5,3.83,3.83,0,0,1-27.6,20.65Z" transform="translate(169.08)"/><path class="cls-9" d="M-28.19,30.54a2.08,2.08,0,0,0,2.93-.17l.11-.14.86-1,1.17.54a2.06,2.06,0,0,0,.48.16,2.05,2.05,0,0,0,1.59-.3,2.07,2.07,0,0,0,.88-1.3c0-.07,0-.17,0-.25a1.23,1.23,0,0,1,0-.19h0a22.58,22.58,0,0,0-.21-6.35,22.67,22.67,0,0,0-6.32.62l-.44.12a2,2,0,0,0-1.16,1,2.12,2.12,0,0,0-.11,1.6,2.62,2.62,0,0,0,.24.47l.69,1.1-.86,1-.12.13A2.08,2.08,0,0,0-28.19,30.54Z" transform="translate(169.08)"/><path class="cls-8" d="M14.73,20.65l-.51-.13A25.41,25.41,0,0,0,6,19.92a25.38,25.38,0,0,0-.48,8.23s.05.35.07.51A3.79,3.79,0,0,0,11,31.37l.1.12a3.82,3.82,0,0,0,5.74-5l-.1-.11a3.84,3.84,0,0,0-2-5.69Z" transform="translate(169.08)"/><path class="cls-9" d="M15.32,30.54a2.08,2.08,0,0,1-2.93-.17l-.12-.14-.85-1-1.17.54A2.08,2.08,0,0,1,7.3,28.36c0-.07,0-.17,0-.25a1.23,1.23,0,0,0,0-.19h0a22.58,22.58,0,0,1,.21-6.35,22.67,22.67,0,0,1,6.32.62l.44.12a2,2,0,0,1,1.16,1,2.07,2.07,0,0,1,.1,1.6,2,2,0,0,1-.23.47l-.69,1.1.86,1,.12.13A2.09,2.09,0,0,1,15.32,30.54Z" transform="translate(169.08)"/><path class="cls-5" d="M-16.82,38a5.42,5.42,0,0,1,7.65-.34l0,0a3.93,3.93,0,0,0,5.41,0l0,0A5.42,5.42,0,0,1,4,38a5.42,5.42,0,0,1-.35,7.65A7.45,7.45,0,0,1-.67,47.2a5.94,5.94,0,0,1-5.77,4.53A5.94,5.94,0,0,1-12.2,47.2a7.49,7.49,0,0,1-4.28-1.59A5.43,5.43,0,0,1-16.82,38Z" transform="translate(169.08)"/><path class="cls-6" d="M-12.82,38.18a3.44,3.44,0,0,1,2.32.9A6,6,0,0,0-6.44,40.7a6,6,0,0,0,4.05-1.6A3.45,3.45,0,0,1,0,38.18a3.4,3.4,0,0,1,2.54,1.11,3.44,3.44,0,0,1-.22,4.86A5.61,5.61,0,0,1-.84,45.24l-1.4.12-.34,1.37a4,4,0,0,1-3.86,3,4,4,0,0,1-3.85-3l-.34-1.37-1.4-.12a5.61,5.61,0,0,1-3.11-1.09,3.4,3.4,0,0,1-1.12-2.38,3.44,3.44,0,0,1,.9-2.48A3.4,3.4,0,0,1-12.82,38.18Z" transform="translate(169.08)"/><path class="cls-5" d="M162.37,40.78c.42.6.84,1.18,1.25,1.73a14,14,0,0,1,11.82,4.14c2.23-.23,7.23.68,9.27,5.14l1.76-.22c-1.31-6.17-7.4-7.39-9.93-7.13A14.17,14.17,0,0,0,162.37,40.78Z" transform="translate(169.08)"/><path class="cls-6" d="M163.62,42.51c5.5,7.29,10.61,10.36,21.09,9.28-2-4.46-7-5.37-9.27-5.14A14,14,0,0,0,163.62,42.51Z" transform="translate(169.08)"/><path class="cls-5" d="M213.17,40.78c-.42.6-.84,1.18-1.25,1.73a14,14,0,0,0-11.82,4.14c-2.23-.23-7.23.68-9.27,5.14l-1.76-.22c1.31-6.17,7.4-7.39,9.93-7.13A14.17,14.17,0,0,1,213.17,40.78Z" transform="translate(169.08)"/><path class="cls-6" d="M211.92,42.51c-5.5,7.29-10.61,10.36-21.09,9.28,2-4.46,7-5.37,9.27-5.14A14,14,0,0,1,211.92,42.51Z" transform="translate(169.08)"/><path class="cls-5" d="M178.12,38c.14.21.43.67.45.68a40.24,40.24,0,0,0,9.2,9.33,40.24,40.24,0,0,0,9.2-9.33s.32-.47.46-.68a6.08,6.08,0,0,0-3.6-8.88c0-.08,0-.16,0-.24a6.07,6.07,0,1,0-12.14,0c0,.08,0,.16,0,.24A6.07,6.07,0,0,0,178.12,38Z" transform="translate(169.08)"/><path class="cls-6" d="M187.77,25.55a3.32,3.32,0,0,1,3.32,3.28,2.72,2.72,0,0,0,0,.28v2.05l2,.59a3.14,3.14,0,0,1,.75.31,3.32,3.32,0,0,1,1.57,2,3.27,3.27,0,0,1-.3,2.47l-.23.34-.17.25h0a35.8,35.8,0,0,1-6.91,7.36,35.52,35.52,0,0,1-6.9-7.36l-.41-.61a3.27,3.27,0,0,1-.29-2.45,3.31,3.31,0,0,1,1.55-2,3.16,3.16,0,0,1,.78-.32l2-.59V29.11a2.53,2.53,0,0,0,0-.28A3.33,3.33,0,0,1,187.77,25.55Z" transform="translate(169.08)"/><path class="cls-8" d="M166.61,39.25c.16,0,.49.14.5.13a25.43,25.43,0,0,0,8.22.6,25.38,25.38,0,0,0,.48-8.23s0-.35-.07-.51a3.82,3.82,0,0,0-4.49-3,3.73,3.73,0,0,0-.89.3l-.09-.12a3.82,3.82,0,0,0-5.75,5,1.14,1.14,0,0,1,.11.11,3.45,3.45,0,0,0-.41.84A3.82,3.82,0,0,0,166.61,39.25Z" transform="translate(169.08)"/><path class="cls-9" d="M166,29.36a2.1,2.1,0,0,1,2.93.17,1.71,1.71,0,0,0,.11.14l.85,1,1.18-.54a1.92,1.92,0,0,1,.48-.16,2.07,2.07,0,0,1,1.59.31,2.1,2.1,0,0,1,.88,1.29c0,.07,0,.17,0,.25l0,.19h0a22.15,22.15,0,0,1-.22,6.35,22.7,22.7,0,0,1-6.32-.62l-.44-.12a2,2,0,0,1-1.16-1,2.11,2.11,0,0,1-.1-1.6,2,2,0,0,1,.23-.47l.69-1.09-.85-1-.12-.13A2.08,2.08,0,0,1,166,29.36Z" transform="translate(169.08)"/><path class="cls-8" d="M208.93,39.25c-.15,0-.49.14-.5.13a25.43,25.43,0,0,1-8.22.6,25.38,25.38,0,0,1-.48-8.23s0-.35.07-.51a3.82,3.82,0,0,1,4.49-3,3.73,3.73,0,0,1,.89.3l.09-.12a3.82,3.82,0,0,1,5.75,5,1.14,1.14,0,0,0-.11.11,3.45,3.45,0,0,1,.41.84A3.82,3.82,0,0,1,208.93,39.25Z" transform="translate(169.08)"/><path class="cls-9" d="M209.52,29.36a2.1,2.1,0,0,0-2.93.17,1.71,1.71,0,0,1-.11.14l-.85,1-1.17-.54a2,2,0,0,0-.49-.16,2.07,2.07,0,0,0-1.59.31,2.1,2.1,0,0,0-.88,1.29c0,.07,0,.17,0,.25l0,.19h0a22.15,22.15,0,0,0,.22,6.35,22.67,22.67,0,0,0,6.32-.62l.44-.12a2,2,0,0,0,1.16-1,2.11,2.11,0,0,0,.1-1.6,2,2,0,0,0-.23-.47l-.69-1.09.85-1,.12-.13A2.08,2.08,0,0,0,209.52,29.36Z" transform="translate(169.08)"/><path class="cls-5" d="M177.39,21.94a5.41,5.41,0,0,0,7.64.34l0,0a3.94,3.94,0,0,1,5.42,0l0,0a5.41,5.41,0,0,0,7.3-8,7.48,7.48,0,0,0-4.27-1.59,5.94,5.94,0,0,0-11.54,0,7.48,7.48,0,0,0-4.27,1.59A5.41,5.41,0,0,0,177.39,21.94Z" transform="translate(169.08)"/><path class="cls-6" d="M181.38,21.72a3.38,3.38,0,0,0,2.32-.9,5.92,5.92,0,0,1,8.12,0,3.45,3.45,0,0,0,4.88-.19,3.44,3.44,0,0,0-.22-4.86,5.64,5.64,0,0,0-3.11-1.09l-1.4-.12-.34-1.37a4,4,0,0,0-7.71,0l-.34,1.37-1.41.12a5.64,5.64,0,0,0-3.11,1.09,3.43,3.43,0,0,0,2.32,6Z" transform="translate(169.08)"/></g><polygon id="SVGID-3" data-name="SVGID" class="cls-11" points="1313.43 56.64 1258.19 1.39 225.72 1.39 170.48 56.64 1313.43 56.64"/></g></g></svg>