<svg xmlns="http://www.w3.org/2000/svg" viewBox="0 0 738.01 39.89"><defs><style>.cls-1{fill:#2f0000;}.cls-2{fill:#4f8388;}.cls-3{fill:none;}.cls-4{fill:#2a4c59;}.cls-5{fill:#4b2928;}.cls-6{fill:#603a31;}.cls-7{fill:#925841;}</style></defs><g id="图层_2" data-name="图层 2"><g id="文件图层"><polygon class="cls-1" points="0 39.18 39.18 0 698.12 0 738.01 39.89 0 39.18"/><path class="cls-2" d="M78.77,19.19a10.64,10.64,0,0,0,9.17,10.54,11.73,11.73,0,0,0,22.54,0A10.64,10.64,0,0,0,109,8.55H89.41A10.64,10.64,0,0,0,78.77,19.19Z"/><path class="cls-3" d="M99.21,34.35a9.84,9.84,0,0,0,9.42-7.07l.35-1.2,1.24-.17A8.72,8.72,0,0,0,109,8.55H89.41a8.72,8.72,0,0,0-1.2,17.36l1.23.17.35,1.2A9.86,9.86,0,0,0,99.21,34.35Z"/><path class="cls-3" d="M99.21,30.51a7.93,7.93,0,0,0,7.58-5.69l.69-2.4,2.48-.34A6.8,6.8,0,0,0,109,8.55H89.41a6.8,6.8,0,0,0-.94,13.53l2.47.34.7,2.4A7.92,7.92,0,0,0,99.21,30.51Z"/><path class="cls-2" d="M78.77,19.19a10.64,10.64,0,0,0,9.17,10.54,11.73,11.73,0,0,0,22.54,0A10.64,10.64,0,0,0,109,8.55H89.41A10.64,10.64,0,0,0,78.77,19.19Z"/><path class="cls-2" d="M99.21,34.35a9.84,9.84,0,0,0,9.42-7.07l.35-1.2,1.24-.17A8.72,8.72,0,0,0,109,8.55H89.41a8.72,8.72,0,0,0-1.2,17.36l1.23.17.35,1.2A9.86,9.86,0,0,0,99.21,34.35Z"/><path class="cls-4" d="M99.21,30.51a7.93,7.93,0,0,0,7.58-5.69l.69-2.4,2.48-.34A6.8,6.8,0,0,0,109,8.55H89.41a6.8,6.8,0,0,0-.94,13.53l2.47.34.7,2.4A7.92,7.92,0,0,0,99.21,30.51Z"/><path class="cls-5" d="M92.15,18A3.9,3.9,0,0,1,96,14.13h6.34a3.9,3.9,0,0,1,1.74,7.39,2.61,2.61,0,0,0-1.28,1.36,3.9,3.9,0,0,1-7.25,0,2.61,2.61,0,0,0-1.28-1.36A3.9,3.9,0,0,1,92.15,18Z"/><path class="cls-6" d="M101.84,21.48a2.76,2.76,0,0,1-5.26,0,1.47,1.47,0,0,0-.63-.76,1.75,1.75,0,0,0-.27-.16A2.74,2.74,0,0,1,94.3,18a3.26,3.26,0,0,1,2.64-3.22,7.34,7.34,0,0,1,4.54,0A3.26,3.26,0,0,1,104.13,18a2.73,2.73,0,0,1-1.39,2.52l-.26.15A1.51,1.51,0,0,0,101.84,21.48Z"/><path class="cls-7" d="M99.21,14.78s2.77.88,2.77,3.27c0,1.12-.44,1.5-.76,1.63a.62.62,0,0,0-.38.41,1.66,1.66,0,0,1-.46.8,1.71,1.71,0,0,1-2.33,0,1.67,1.67,0,0,1-.47-.8.62.62,0,0,0-.38-.41c-.32-.13-.75-.51-.75-1.63C96.45,15.66,99.21,14.78,99.21,14.78Z"/><path class="cls-2" d="M82.15,4.08a11.16,11.16,0,0,0,6.64,2.11,11.12,11.12,0,0,0,6.63-2.11A8.23,8.23,0,0,0,94,3.18a11.63,11.63,0,0,0-10.33,0A8.75,8.75,0,0,0,82.15,4.08Z"/><path class="cls-7" d="M83.62,3.18a11.52,11.52,0,0,0,5.17,1.21A11.5,11.5,0,0,0,94,3.18a11.63,11.63,0,0,0-10.33,0Z"/><path class="cls-2" d="M116.27,4.08a11.12,11.12,0,0,1-6.63,2.11A11.12,11.12,0,0,1,103,4.08a8.35,8.35,0,0,1,1.46-.9,11.63,11.63,0,0,1,10.33,0A8.23,8.23,0,0,1,116.27,4.08Z"/><path class="cls-7" d="M114.8,3.18a11.5,11.5,0,0,1-5.16,1.21,11.52,11.52,0,0,1-5.17-1.21,11.63,11.63,0,0,1,10.33,0Z"/><path class="cls-2" d="M99.21,6.54S95.42,7,95.42,12c0,4.33,3.79,4.32,3.79,4.32s3.8,0,3.8-4.32C103,7,99.21,6.54,99.21,6.54Z"/><path class="cls-7" d="M99.21,6.54s-2.06.29-2.06,3.86c0,3.09,2.06,3.08,2.06,3.08s2.06,0,2.06-3.08C101.27,6.83,99.21,6.54,99.21,6.54Z"/><circle class="cls-7" cx="99.21" cy="4.08" r="2.46"/><path class="cls-2" d="M36.87,19.19A10.64,10.64,0,0,0,46,29.73a11.73,11.73,0,0,0,22.54,0A10.64,10.64,0,0,0,67.12,8.55H47.51A10.64,10.64,0,0,0,36.87,19.19Z"/><path class="cls-3" d="M57.31,34.35a9.84,9.84,0,0,0,9.42-7.07l.35-1.2,1.24-.17a8.72,8.72,0,0,0-1.2-17.36H47.51a8.72,8.72,0,0,0-1.2,17.36l1.23.17.35,1.2A9.86,9.86,0,0,0,57.31,34.35Z"/><path class="cls-3" d="M57.31,30.51a7.93,7.93,0,0,0,7.58-5.69l.69-2.4,2.48-.34a6.8,6.8,0,0,0-.94-13.53H47.51a6.8,6.8,0,0,0-.94,13.53l2.47.34.7,2.4A7.92,7.92,0,0,0,57.31,30.51Z"/><path class="cls-2" d="M36.87,19.19A10.64,10.64,0,0,0,46,29.73a11.73,11.73,0,0,0,22.54,0A10.64,10.64,0,0,0,67.12,8.55H47.51A10.64,10.64,0,0,0,36.87,19.19Z"/><path class="cls-2" d="M57.31,34.35a9.84,9.84,0,0,0,9.42-7.07l.35-1.2,1.24-.17a8.72,8.72,0,0,0-1.2-17.36H47.51a8.72,8.72,0,0,0-1.2,17.36l1.23.17.35,1.2A9.86,9.86,0,0,0,57.31,34.35Z"/><path class="cls-4" d="M57.31,30.51a7.93,7.93,0,0,0,7.58-5.69l.69-2.4,2.48-.34a6.8,6.8,0,0,0-.94-13.53H47.51a6.8,6.8,0,0,0-.94,13.53l2.47.34.7,2.4A7.92,7.92,0,0,0,57.31,30.51Z"/><path class="cls-5" d="M50.25,18a3.9,3.9,0,0,1,3.89-3.9h6.34a3.9,3.9,0,0,1,1.74,7.39,2.61,2.61,0,0,0-1.28,1.36,3.9,3.9,0,0,1-7.25,0,2.61,2.61,0,0,0-1.28-1.36A3.9,3.9,0,0,1,50.25,18Z"/><path class="cls-6" d="M59.94,21.48a2.76,2.76,0,0,1-5.26,0,1.47,1.47,0,0,0-.63-.76,1.75,1.75,0,0,0-.27-.16A2.74,2.74,0,0,1,52.4,18,3.26,3.26,0,0,1,55,14.82a7.34,7.34,0,0,1,4.54,0A3.26,3.26,0,0,1,62.23,18a2.73,2.73,0,0,1-1.39,2.52l-.26.15A1.51,1.51,0,0,0,59.94,21.48Z"/><path class="cls-7" d="M57.31,14.78s2.77.88,2.77,3.27c0,1.12-.44,1.5-.76,1.63a.62.62,0,0,0-.38.41,1.66,1.66,0,0,1-.46.8,1.71,1.71,0,0,1-2.33,0,1.67,1.67,0,0,1-.47-.8.62.62,0,0,0-.38-.41c-.32-.13-.75-.51-.75-1.63C54.55,15.66,57.31,14.78,57.31,14.78Z"/><path class="cls-2" d="M40.25,4.08a11.16,11.16,0,0,0,6.64,2.11,11.12,11.12,0,0,0,6.63-2.11,8.23,8.23,0,0,0-1.47-.9,11.63,11.63,0,0,0-10.33,0A8.75,8.75,0,0,0,40.25,4.08Z"/><path class="cls-7" d="M41.72,3.18a11.52,11.52,0,0,0,5.17,1.21,11.5,11.5,0,0,0,5.16-1.21,11.63,11.63,0,0,0-10.33,0Z"/><path class="cls-2" d="M74.37,4.08a11.12,11.12,0,0,1-6.63,2.11,11.12,11.12,0,0,1-6.63-2.11,8.35,8.35,0,0,1,1.46-.9,11.63,11.63,0,0,1,10.33,0A8.23,8.23,0,0,1,74.37,4.08Z"/><path class="cls-7" d="M72.9,3.18a11.5,11.5,0,0,1-5.16,1.21,11.52,11.52,0,0,1-5.17-1.21,11.63,11.63,0,0,1,10.33,0Z"/><path class="cls-2" d="M57.31,6.54S53.52,7,53.52,12c0,4.33,3.79,4.32,3.79,4.32s3.8,0,3.8-4.32C61.11,7,57.31,6.54,57.31,6.54Z"/><path class="cls-7" d="M57.31,6.54s-2.06.29-2.06,3.86c0,3.09,2.06,3.08,2.06,3.08s2.06,0,2.06-3.08C59.37,6.83,57.31,6.54,57.31,6.54Z"/><circle class="cls-7" cx="57.31" cy="4.08" r="2.46"/><path class="cls-2" d="M203.79,19.19a10.64,10.64,0,0,1-9.18,10.54,11.73,11.73,0,0,1-22.53,0,10.64,10.64,0,0,1,1.46-21.18h19.61A10.64,10.64,0,0,1,203.79,19.19Z"/><path class="cls-3" d="M183.35,34.35a9.86,9.86,0,0,1-9.43-7.07l-.34-1.2-1.24-.17a8.72,8.72,0,0,1,1.2-17.36h19.61a8.72,8.72,0,0,1,1.2,17.36l-1.23.17-.35,1.2A9.86,9.86,0,0,1,183.35,34.35Z"/><path class="cls-3" d="M183.35,30.51a7.92,7.92,0,0,1-7.58-5.69l-.69-2.4-2.48-.34a6.8,6.8,0,0,1,.94-13.53h19.61a6.8,6.8,0,0,1,.94,13.53l-2.47.34-.7,2.4A7.92,7.92,0,0,1,183.35,30.51Z"/><path class="cls-2" d="M203.79,19.19a10.64,10.64,0,0,1-9.18,10.54,11.73,11.73,0,0,1-22.53,0,10.64,10.64,0,0,1,1.46-21.18h19.61A10.64,10.64,0,0,1,203.79,19.19Z"/><path class="cls-2" d="M183.35,34.35a9.86,9.86,0,0,1-9.43-7.07l-.34-1.2-1.24-.17a8.72,8.72,0,0,1,1.2-17.36h19.61a8.72,8.72,0,0,1,1.2,17.36l-1.23.17-.35,1.2A9.86,9.86,0,0,1,183.35,34.35Z"/><path class="cls-4" d="M183.35,30.51a7.92,7.92,0,0,1-7.58-5.69l-.69-2.4-2.48-.34a6.8,6.8,0,0,1,.94-13.53h19.61a6.8,6.8,0,0,1,.94,13.53l-2.47.34-.7,2.4A7.92,7.92,0,0,1,183.35,30.51Z"/><path class="cls-5" d="M190.41,18a3.91,3.91,0,0,0-3.9-3.9h-6.33a3.9,3.9,0,0,0-1.74,7.39,2.61,2.61,0,0,1,1.28,1.36,3.9,3.9,0,0,0,7.25,0,2.61,2.61,0,0,1,1.28-1.36A3.9,3.9,0,0,0,190.41,18Z"/><path class="cls-6" d="M180.72,21.48a2.75,2.75,0,0,0,5.25,0,1.54,1.54,0,0,1,.64-.76,1.75,1.75,0,0,1,.27-.16A2.74,2.74,0,0,0,188.26,18a3.26,3.26,0,0,0-2.65-3.22,7.31,7.31,0,0,0-4.53,0A3.26,3.26,0,0,0,178.43,18a2.74,2.74,0,0,0,1.38,2.52l.27.15A1.56,1.56,0,0,1,180.72,21.48Z"/><path class="cls-7" d="M183.35,14.78s-2.77.88-2.77,3.27c0,1.12.44,1.5.76,1.63a.59.59,0,0,1,.37.41,1.76,1.76,0,0,0,.47.8,1.71,1.71,0,0,0,2.33,0,1.67,1.67,0,0,0,.47-.8.6.6,0,0,1,.38-.41c.31-.13.75-.51.75-1.63C186.11,15.66,183.35,14.78,183.35,14.78Z"/><path class="cls-2" d="M200.4,4.08a11.12,11.12,0,0,1-6.63,2.11,11.12,11.12,0,0,1-6.63-2.11,8.23,8.23,0,0,1,1.47-.9,11.63,11.63,0,0,1,10.33,0A8.35,8.35,0,0,1,200.4,4.08Z"/><path class="cls-7" d="M198.94,3.18a11.52,11.52,0,0,1-5.17,1.21,11.5,11.5,0,0,1-5.16-1.21,11.63,11.63,0,0,1,10.33,0Z"/><path class="cls-2" d="M166.29,4.08a11.12,11.12,0,0,0,6.63,2.11,11.12,11.12,0,0,0,6.63-2.11,8.35,8.35,0,0,0-1.46-.9,11.63,11.63,0,0,0-10.33,0A8.23,8.23,0,0,0,166.29,4.08Z"/><path class="cls-7" d="M167.76,3.18a11.5,11.5,0,0,0,5.16,1.21,11.52,11.52,0,0,0,5.17-1.21,11.63,11.63,0,0,0-10.33,0Z"/><path class="cls-2" d="M183.35,6.54s3.79.41,3.79,5.43c0,4.33-3.79,4.32-3.79,4.32s-3.8,0-3.8-4.32C179.55,7,183.35,6.54,183.35,6.54Z"/><path class="cls-7" d="M183.35,6.54s2.06.29,2.06,3.86c0,3.09-2.06,3.08-2.06,3.08s-2.06,0-2.06-3.08C181.29,6.83,183.35,6.54,183.35,6.54Z"/><circle class="cls-7" cx="183.35" cy="4.08" r="2.46"/><path class="cls-2" d="M245.69,19.19a10.64,10.64,0,0,1-9.18,10.54,11.73,11.73,0,0,1-22.53,0,10.64,10.64,0,0,1,1.46-21.18h19.61A10.64,10.64,0,0,1,245.69,19.19Z"/><path class="cls-3" d="M225.25,34.35a9.86,9.86,0,0,1-9.43-7.07l-.34-1.2-1.24-.17a8.72,8.72,0,0,1,1.2-17.36h19.61a8.72,8.72,0,0,1,1.2,17.36l-1.23.17-.35,1.2A9.86,9.86,0,0,1,225.25,34.35Z"/><path class="cls-3" d="M225.25,30.51a7.92,7.92,0,0,1-7.58-5.69l-.69-2.4-2.48-.34a6.8,6.8,0,0,1,.94-13.53h19.61A6.8,6.8,0,0,1,236,22.08l-2.47.34-.7,2.4A7.92,7.92,0,0,1,225.25,30.51Z"/><path class="cls-2" d="M245.69,19.19a10.64,10.64,0,0,1-9.18,10.54,11.73,11.73,0,0,1-22.53,0,10.64,10.64,0,0,1,1.46-21.18h19.61A10.64,10.64,0,0,1,245.69,19.19Z"/><path class="cls-2" d="M225.25,34.35a9.86,9.86,0,0,1-9.43-7.07l-.34-1.2-1.24-.17a8.72,8.72,0,0,1,1.2-17.36h19.61a8.72,8.72,0,0,1,1.2,17.36l-1.23.17-.35,1.2A9.86,9.86,0,0,1,225.25,34.35Z"/><path class="cls-4" d="M225.25,30.51a7.92,7.92,0,0,1-7.58-5.69l-.69-2.4-2.48-.34a6.8,6.8,0,0,1,.94-13.53h19.61A6.8,6.8,0,0,1,236,22.08l-2.47.34-.7,2.4A7.92,7.92,0,0,1,225.25,30.51Z"/><path class="cls-5" d="M232.31,18a3.91,3.91,0,0,0-3.9-3.9h-6.33a3.9,3.9,0,0,0-1.74,7.39,2.61,2.61,0,0,1,1.28,1.36,3.9,3.9,0,0,0,7.25,0,2.61,2.61,0,0,1,1.28-1.36A3.9,3.9,0,0,0,232.31,18Z"/><path class="cls-6" d="M222.62,21.48a2.75,2.75,0,0,0,5.25,0,1.54,1.54,0,0,1,.64-.76,1.75,1.75,0,0,1,.27-.16A2.74,2.74,0,0,0,230.16,18a3.26,3.26,0,0,0-2.65-3.22,7.31,7.31,0,0,0-4.53,0A3.26,3.26,0,0,0,220.33,18a2.74,2.74,0,0,0,1.38,2.52l.27.15A1.56,1.56,0,0,1,222.62,21.48Z"/><path class="cls-7" d="M225.25,14.78s-2.77.88-2.77,3.27c0,1.12.44,1.5.76,1.63a.59.59,0,0,1,.37.41,1.76,1.76,0,0,0,.47.8,1.71,1.71,0,0,0,2.33,0,1.67,1.67,0,0,0,.47-.8.6.6,0,0,1,.38-.41c.31-.13.75-.51.75-1.63C228,15.66,225.25,14.78,225.25,14.78Z"/><path class="cls-2" d="M242.3,4.08a11.12,11.12,0,0,1-6.63,2.11A11.12,11.12,0,0,1,229,4.08a8.23,8.23,0,0,1,1.47-.9,11.63,11.63,0,0,1,10.33,0A8.35,8.35,0,0,1,242.3,4.08Z"/><path class="cls-7" d="M240.84,3.18a11.52,11.52,0,0,1-5.17,1.21,11.5,11.5,0,0,1-5.16-1.21,11.63,11.63,0,0,1,10.33,0Z"/><path class="cls-2" d="M208.19,4.08a11.12,11.12,0,0,0,6.63,2.11,11.12,11.12,0,0,0,6.63-2.11,8.35,8.35,0,0,0-1.46-.9,11.63,11.63,0,0,0-10.33,0A8.23,8.23,0,0,0,208.19,4.08Z"/><path class="cls-7" d="M209.66,3.18a11.5,11.5,0,0,0,5.16,1.21A11.52,11.52,0,0,0,220,3.18a11.63,11.63,0,0,0-10.33,0Z"/><path class="cls-2" d="M225.25,6.54S229,7,229,12c0,4.33-3.79,4.32-3.79,4.32s-3.8,0-3.8-4.32C221.45,7,225.25,6.54,225.25,6.54Z"/><path class="cls-7" d="M225.25,6.54s2.06.29,2.06,3.86c0,3.09-2.06,3.08-2.06,3.08s-2.06,0-2.06-3.08C223.19,6.83,225.25,6.54,225.25,6.54Z"/><circle class="cls-7" cx="225.25" cy="4.08" r="2.46"/><path class="cls-2" d="M161.72,19.19a10.64,10.64,0,0,1-9.17,10.54,11.73,11.73,0,0,1-22.54,0,10.64,10.64,0,0,1,1.46-21.18h19.62A10.64,10.64,0,0,1,161.72,19.19Z"/><path class="cls-3" d="M141.28,34.35a9.85,9.85,0,0,1-9.42-7.07l-.35-1.2-1.24-.17a8.72,8.72,0,0,1,1.2-17.36h19.62a8.72,8.72,0,0,1,1.19,17.36l-1.23.17-.35,1.2A9.86,9.86,0,0,1,141.28,34.35Z"/><path class="cls-3" d="M141.28,30.51a7.93,7.93,0,0,1-7.58-5.69l-.69-2.4-2.47-.34a6.8,6.8,0,0,1,.93-13.53h19.62A6.8,6.8,0,0,1,152,22.08l-2.47.34-.7,2.4A7.92,7.92,0,0,1,141.28,30.51Z"/><path class="cls-2" d="M161.72,19.19a10.64,10.64,0,0,1-9.17,10.54,11.73,11.73,0,0,1-22.54,0,10.64,10.64,0,0,1,1.46-21.18h19.62A10.64,10.64,0,0,1,161.72,19.19Z"/><path class="cls-2" d="M141.28,34.35a9.85,9.85,0,0,1-9.42-7.07l-.35-1.2-1.24-.17a8.72,8.72,0,0,1,1.2-17.36h19.62a8.72,8.72,0,0,1,1.19,17.36l-1.23.17-.35,1.2A9.86,9.86,0,0,1,141.28,34.35Z"/><path class="cls-4" d="M141.28,30.51a7.93,7.93,0,0,1-7.58-5.69l-.69-2.4-2.47-.34a6.8,6.8,0,0,1,.93-13.53h19.62A6.8,6.8,0,0,1,152,22.08l-2.47.34-.7,2.4A7.92,7.92,0,0,1,141.28,30.51Z"/><path class="cls-5" d="M148.34,18a3.9,3.9,0,0,0-3.89-3.9h-6.34a3.9,3.9,0,0,0-1.73,7.39,2.59,2.59,0,0,1,1.27,1.36,3.9,3.9,0,0,0,7.26,0,2.56,2.56,0,0,1,1.27-1.36A3.9,3.9,0,0,0,148.34,18Z"/><path class="cls-6" d="M138.65,21.48a2.76,2.76,0,0,0,5.26,0,1.47,1.47,0,0,1,.63-.76,2.4,2.4,0,0,1,.27-.16A2.74,2.74,0,0,0,146.19,18a3.26,3.26,0,0,0-2.64-3.22,7.34,7.34,0,0,0-4.54,0A3.27,3.27,0,0,0,136.36,18a2.73,2.73,0,0,0,1.39,2.52l.26.15A1.51,1.51,0,0,1,138.65,21.48Z"/><path class="cls-7" d="M141.28,14.78s-2.77.88-2.77,3.27c0,1.12.44,1.5.76,1.63a.62.62,0,0,1,.38.41,1.66,1.66,0,0,0,.46.8,1.72,1.72,0,0,0,2.34,0,1.75,1.75,0,0,0,.46-.8.62.62,0,0,1,.38-.41c.32-.13.76-.51.76-1.63C144.05,15.66,141.28,14.78,141.28,14.78Z"/><path class="cls-2" d="M158.34,4.08a11.16,11.16,0,0,1-6.64,2.11,11.12,11.12,0,0,1-6.63-2.11,8.75,8.75,0,0,1,1.47-.9,11.63,11.63,0,0,1,10.33,0A8.75,8.75,0,0,1,158.34,4.08Z"/><path class="cls-7" d="M156.87,3.18a11.52,11.52,0,0,1-5.17,1.21,11.5,11.5,0,0,1-5.16-1.21,11.63,11.63,0,0,1,10.33,0Z"/><path class="cls-2" d="M124.22,4.08a11.12,11.12,0,0,0,6.63,2.11,11.12,11.12,0,0,0,6.63-2.11,8.35,8.35,0,0,0-1.46-.9,11.63,11.63,0,0,0-10.33,0A8.23,8.23,0,0,0,124.22,4.08Z"/><path class="cls-7" d="M125.69,3.18a11.5,11.5,0,0,0,5.16,1.21A11.52,11.52,0,0,0,136,3.18a11.63,11.63,0,0,0-10.33,0Z"/><path class="cls-2" d="M141.28,6.54s3.79.41,3.79,5.43c0,4.33-3.79,4.32-3.79,4.32s-3.8,0-3.8-4.32C137.48,7,141.28,6.54,141.28,6.54Z"/><path class="cls-7" d="M141.28,6.54s2.06.29,2.06,3.86c0,3.09-2.06,3.08-2.06,3.08s-2.06,0-2.06-3.08C139.22,6.83,141.28,6.54,141.28,6.54Z"/><circle class="cls-7" cx="141.28" cy="4.08" r="2.46"/><path class="cls-2" d="M371.72,19.19a10.64,10.64,0,0,1-9.17,10.54,11.73,11.73,0,0,1-22.54,0,10.64,10.64,0,0,1,1.46-21.18h19.62A10.64,10.64,0,0,1,371.72,19.19Z"/><path class="cls-3" d="M351.28,34.35a9.85,9.85,0,0,1-9.42-7.07l-.35-1.2-1.24-.17a8.72,8.72,0,0,1,1.2-17.36h19.62a8.72,8.72,0,0,1,1.19,17.36l-1.23.17-.35,1.2A9.86,9.86,0,0,1,351.28,34.35Z"/><path class="cls-3" d="M351.28,30.51a7.93,7.93,0,0,1-7.58-5.69l-.69-2.4-2.47-.34a6.8,6.8,0,0,1,.93-13.53h19.62A6.8,6.8,0,0,1,362,22.08l-2.47.34-.7,2.4A7.92,7.92,0,0,1,351.28,30.51Z"/><path class="cls-2" d="M371.72,19.19a10.64,10.64,0,0,1-9.17,10.54,11.73,11.73,0,0,1-22.54,0,10.64,10.64,0,0,1,1.46-21.18h19.62A10.64,10.64,0,0,1,371.72,19.19Z"/><path class="cls-2" d="M351.28,34.35a9.85,9.85,0,0,1-9.42-7.07l-.35-1.2-1.24-.17a8.72,8.72,0,0,1,1.2-17.36h19.62a8.72,8.72,0,0,1,1.19,17.36l-1.23.17-.35,1.2A9.86,9.86,0,0,1,351.28,34.35Z"/><path class="cls-4" d="M351.28,30.51a7.93,7.93,0,0,1-7.58-5.69l-.69-2.4-2.47-.34a6.8,6.8,0,0,1,.93-13.53h19.62A6.8,6.8,0,0,1,362,22.08l-2.47.34-.7,2.4A7.92,7.92,0,0,1,351.28,30.51Z"/><path class="cls-5" d="M358.34,18a3.9,3.9,0,0,0-3.89-3.9h-6.34a3.9,3.9,0,0,0-1.73,7.39,2.59,2.59,0,0,1,1.27,1.36,3.9,3.9,0,0,0,7.26,0,2.56,2.56,0,0,1,1.27-1.36A3.9,3.9,0,0,0,358.34,18Z"/><path class="cls-6" d="M348.65,21.48a2.76,2.76,0,0,0,5.26,0,1.47,1.47,0,0,1,.63-.76,2.4,2.4,0,0,1,.27-.16A2.74,2.74,0,0,0,356.19,18a3.26,3.26,0,0,0-2.64-3.22,7.34,7.34,0,0,0-4.54,0A3.27,3.27,0,0,0,346.36,18a2.73,2.73,0,0,0,1.39,2.52l.26.15A1.51,1.51,0,0,1,348.65,21.48Z"/><path class="cls-7" d="M351.28,14.78s-2.77.88-2.77,3.27c0,1.12.44,1.5.76,1.63a.62.62,0,0,1,.38.41,1.66,1.66,0,0,0,.46.8,1.72,1.72,0,0,0,2.34,0,1.75,1.75,0,0,0,.46-.8.62.62,0,0,1,.38-.41c.32-.13.76-.51.76-1.63C354.05,15.66,351.28,14.78,351.28,14.78Z"/><path class="cls-2" d="M368.34,4.08a11.16,11.16,0,0,1-6.64,2.11,11.12,11.12,0,0,1-6.63-2.11,8.75,8.75,0,0,1,1.47-.9,11.63,11.63,0,0,1,10.33,0A8.75,8.75,0,0,1,368.34,4.08Z"/><path class="cls-7" d="M366.87,3.18a11.52,11.52,0,0,1-5.17,1.21,11.5,11.5,0,0,1-5.16-1.21,11.63,11.63,0,0,1,10.33,0Z"/><path class="cls-2" d="M334.22,4.08a11.15,11.15,0,0,0,6.63,2.11,11.12,11.12,0,0,0,6.63-2.11,8.35,8.35,0,0,0-1.46-.9,11.63,11.63,0,0,0-10.33,0A8.23,8.23,0,0,0,334.22,4.08Z"/><path class="cls-7" d="M335.69,3.18a11.5,11.5,0,0,0,5.16,1.21A11.52,11.52,0,0,0,346,3.18a11.63,11.63,0,0,0-10.33,0Z"/><path class="cls-2" d="M351.28,6.54s3.79.41,3.79,5.43c0,4.33-3.79,4.32-3.79,4.32s-3.8,0-3.8-4.32C347.48,7,351.28,6.54,351.28,6.54Z"/><path class="cls-7" d="M351.28,6.54s2.06.29,2.06,3.86c0,3.09-2.06,3.08-2.06,3.08s-2.06,0-2.06-3.08C349.22,6.83,351.28,6.54,351.28,6.54Z"/><circle class="cls-7" cx="351.28" cy="4.08" r="2.46"/><path class="cls-2" d="M413.62,19.19a10.64,10.64,0,0,1-9.17,10.54,11.73,11.73,0,0,1-22.54,0,10.64,10.64,0,0,1,1.46-21.18H403A10.64,10.64,0,0,1,413.62,19.19Z"/><path class="cls-3" d="M393.18,34.35a9.85,9.85,0,0,1-9.42-7.07l-.35-1.2-1.24-.17a8.72,8.72,0,0,1,1.2-17.36H403a8.72,8.72,0,0,1,1.19,17.36l-1.23.17-.35,1.2A9.86,9.86,0,0,1,393.18,34.35Z"/><path class="cls-3" d="M393.18,30.51a7.93,7.93,0,0,1-7.58-5.69l-.69-2.4-2.47-.34a6.8,6.8,0,0,1,.93-13.53H403a6.8,6.8,0,0,1,.93,13.53l-2.47.34-.7,2.4A7.92,7.92,0,0,1,393.18,30.51Z"/><path class="cls-2" d="M413.62,19.19a10.64,10.64,0,0,1-9.17,10.54,11.73,11.73,0,0,1-22.54,0,10.64,10.64,0,0,1,1.46-21.18H403A10.64,10.64,0,0,1,413.62,19.19Z"/><path class="cls-2" d="M393.18,34.35a9.85,9.85,0,0,1-9.42-7.07l-.35-1.2-1.24-.17a8.72,8.72,0,0,1,1.2-17.36H403a8.72,8.72,0,0,1,1.19,17.36l-1.23.17-.35,1.2A9.86,9.86,0,0,1,393.18,34.35Z"/><path class="cls-4" d="M393.18,30.51a7.93,7.93,0,0,1-7.58-5.69l-.69-2.4-2.47-.34a6.8,6.8,0,0,1,.93-13.53H403a6.8,6.8,0,0,1,.93,13.53l-2.47.34-.7,2.4A7.92,7.92,0,0,1,393.18,30.51Z"/><path class="cls-5" d="M400.24,18a3.9,3.9,0,0,0-3.89-3.9H390a3.9,3.9,0,0,0-1.73,7.39,2.59,2.59,0,0,1,1.27,1.36,3.9,3.9,0,0,0,7.26,0,2.56,2.56,0,0,1,1.27-1.36A3.9,3.9,0,0,0,400.24,18Z"/><path class="cls-6" d="M390.55,21.48a2.76,2.76,0,0,0,5.26,0,1.47,1.47,0,0,1,.63-.76,2.4,2.4,0,0,1,.27-.16A2.74,2.74,0,0,0,398.09,18a3.26,3.26,0,0,0-2.64-3.22,7.34,7.34,0,0,0-4.54,0A3.27,3.27,0,0,0,388.26,18a2.73,2.73,0,0,0,1.39,2.52l.26.15A1.51,1.51,0,0,1,390.55,21.48Z"/><path class="cls-7" d="M393.18,14.78s-2.77.88-2.77,3.27c0,1.12.44,1.5.76,1.63a.62.62,0,0,1,.38.41,1.66,1.66,0,0,0,.46.8,1.72,1.72,0,0,0,2.34,0,1.75,1.75,0,0,0,.46-.8.62.62,0,0,1,.38-.41c.32-.13.76-.51.76-1.63C396,15.66,393.18,14.78,393.18,14.78Z"/><path class="cls-2" d="M410.24,4.08a11.16,11.16,0,0,1-6.64,2.11A11.12,11.12,0,0,1,397,4.08a8.75,8.75,0,0,1,1.47-.9,11.63,11.63,0,0,1,10.33,0A8.75,8.75,0,0,1,410.24,4.08Z"/><path class="cls-7" d="M408.77,3.18a11.52,11.52,0,0,1-5.17,1.21,11.5,11.5,0,0,1-5.16-1.21,11.63,11.63,0,0,1,10.33,0Z"/><path class="cls-2" d="M376.12,4.08a11.15,11.15,0,0,0,6.63,2.11,11.12,11.12,0,0,0,6.63-2.11,8.35,8.35,0,0,0-1.46-.9,11.63,11.63,0,0,0-10.33,0A8.23,8.23,0,0,0,376.12,4.08Z"/><path class="cls-7" d="M377.59,3.18a11.5,11.5,0,0,0,5.16,1.21,11.52,11.52,0,0,0,5.17-1.21,11.63,11.63,0,0,0-10.33,0Z"/><path class="cls-2" d="M393.18,6.54S397,7,397,12c0,4.33-3.79,4.32-3.79,4.32s-3.8,0-3.8-4.32C389.38,7,393.18,6.54,393.18,6.54Z"/><path class="cls-7" d="M393.18,6.54s2.06.29,2.06,3.86c0,3.09-2.06,3.08-2.06,3.08s-2.06,0-2.06-3.08C391.12,6.83,393.18,6.54,393.18,6.54Z"/><circle class="cls-7" cx="393.18" cy="4.08" r="2.46"/><path class="cls-2" d="M246.7,19.19a10.65,10.65,0,0,0,9.18,10.54,11.73,11.73,0,0,0,22.53,0A10.64,10.64,0,0,0,277,8.55H257.34A10.65,10.65,0,0,0,246.7,19.19Z"/><path class="cls-3" d="M267.15,34.35a9.86,9.86,0,0,0,9.42-7.07l.34-1.2,1.24-.17A8.72,8.72,0,0,0,277,8.55H257.34a8.72,8.72,0,0,0-1.2,17.36l1.24.17.34,1.2A9.87,9.87,0,0,0,267.15,34.35Z"/><path class="cls-3" d="M267.15,30.51a7.92,7.92,0,0,0,7.57-5.69l.69-2.4,2.48-.34A6.8,6.8,0,0,0,277,8.55H257.34a6.8,6.8,0,0,0-.94,13.53l2.47.34.7,2.4A7.93,7.93,0,0,0,267.15,30.51Z"/><path class="cls-2" d="M246.7,19.19a10.65,10.65,0,0,0,9.18,10.54,11.73,11.73,0,0,0,22.53,0A10.64,10.64,0,0,0,277,8.55H257.34A10.65,10.65,0,0,0,246.7,19.19Z"/><path class="cls-2" d="M267.15,34.35a9.86,9.86,0,0,0,9.42-7.07l.34-1.2,1.24-.17A8.72,8.72,0,0,0,277,8.55H257.34a8.72,8.72,0,0,0-1.2,17.36l1.24.17.34,1.2A9.87,9.87,0,0,0,267.15,34.35Z"/><path class="cls-4" d="M267.15,30.51a7.92,7.92,0,0,0,7.57-5.69l.69-2.4,2.48-.34A6.8,6.8,0,0,0,277,8.55H257.34a6.8,6.8,0,0,0-.94,13.53l2.47.34.7,2.4A7.93,7.93,0,0,0,267.15,30.51Z"/><path class="cls-5" d="M260.08,18a3.91,3.91,0,0,1,3.9-3.9h6.33a3.9,3.9,0,0,1,1.74,7.39,2.61,2.61,0,0,0-1.28,1.36,3.9,3.9,0,0,1-7.25,0,2.61,2.61,0,0,0-1.28-1.36A3.9,3.9,0,0,1,260.08,18Z"/><path class="cls-6" d="M269.77,21.48a2.75,2.75,0,0,1-5.25,0,1.52,1.52,0,0,0-.63-.76l-.28-.16A2.74,2.74,0,0,1,262.23,18a3.26,3.26,0,0,1,2.65-3.22,7.34,7.34,0,0,1,4.54,0A3.26,3.26,0,0,1,272.06,18a2.74,2.74,0,0,1-1.38,2.52l-.26.15A1.53,1.53,0,0,0,269.77,21.48Z"/><path class="cls-7" d="M267.15,14.78s2.76.88,2.76,3.27c0,1.12-.44,1.5-.75,1.63a.6.6,0,0,0-.38.41,1.67,1.67,0,0,1-.47.8,1.71,1.71,0,0,1-2.33,0,1.76,1.76,0,0,1-.47-.8.59.59,0,0,0-.37-.41c-.32-.13-.76-.51-.76-1.63C264.38,15.66,267.15,14.78,267.15,14.78Z"/><path class="cls-2" d="M250.09,4.08a11.12,11.12,0,0,0,6.63,2.11,11.12,11.12,0,0,0,6.63-2.11,8.35,8.35,0,0,0-1.46-.9,11.63,11.63,0,0,0-10.33,0A8.23,8.23,0,0,0,250.09,4.08Z"/><path class="cls-7" d="M251.56,3.18a11.5,11.5,0,0,0,5.16,1.21,11.52,11.52,0,0,0,5.17-1.21,11.63,11.63,0,0,0-10.33,0Z"/><path class="cls-2" d="M284.2,4.08a11.12,11.12,0,0,1-6.63,2.11,11.12,11.12,0,0,1-6.63-2.11,8.23,8.23,0,0,1,1.47-.9,11.63,11.63,0,0,1,10.33,0A8.35,8.35,0,0,1,284.2,4.08Z"/><path class="cls-7" d="M282.74,3.18a11.52,11.52,0,0,1-5.17,1.21,11.5,11.5,0,0,1-5.16-1.21,11.63,11.63,0,0,1,10.33,0Z"/><path class="cls-2" d="M267.15,6.54s-3.8.41-3.8,5.43c0,4.33,3.8,4.32,3.8,4.32s3.79,0,3.79-4.32C270.94,7,267.15,6.54,267.15,6.54Z"/><path class="cls-7" d="M267.15,6.54s-2.06.29-2.06,3.86c0,3.09,2.06,3.08,2.06,3.08s2.06,0,2.06-3.08C269.21,6.83,267.15,6.54,267.15,6.54Z"/><circle class="cls-7" cx="267.15" cy="4.08" r="2.46"/><path class="cls-2" d="M288.77,19.19a10.64,10.64,0,0,0,9.17,10.54,11.73,11.73,0,0,0,22.54,0A10.64,10.64,0,0,0,319,8.55H299.41A10.64,10.64,0,0,0,288.77,19.19Z"/><path class="cls-3" d="M309.21,34.35a9.84,9.84,0,0,0,9.42-7.07l.35-1.2,1.24-.17A8.72,8.72,0,0,0,319,8.55H299.41a8.72,8.72,0,0,0-1.2,17.36l1.23.17.35,1.2A9.86,9.86,0,0,0,309.21,34.35Z"/><path class="cls-3" d="M309.21,30.51a7.93,7.93,0,0,0,7.58-5.69l.69-2.4,2.48-.34A6.8,6.8,0,0,0,319,8.55H299.41a6.8,6.8,0,0,0-.94,13.53l2.47.34.7,2.4A7.92,7.92,0,0,0,309.21,30.51Z"/><path class="cls-2" d="M288.77,19.19a10.64,10.64,0,0,0,9.17,10.54,11.73,11.73,0,0,0,22.54,0A10.64,10.64,0,0,0,319,8.55H299.41A10.64,10.64,0,0,0,288.77,19.19Z"/><path class="cls-2" d="M309.21,34.35a9.84,9.84,0,0,0,9.42-7.07l.35-1.2,1.24-.17A8.72,8.72,0,0,0,319,8.55H299.41a8.72,8.72,0,0,0-1.2,17.36l1.23.17.35,1.2A9.86,9.86,0,0,0,309.21,34.35Z"/><path class="cls-4" d="M309.21,30.51a7.93,7.93,0,0,0,7.58-5.69l.69-2.4,2.48-.34A6.8,6.8,0,0,0,319,8.55H299.41a6.8,6.8,0,0,0-.94,13.53l2.47.34.7,2.4A7.92,7.92,0,0,0,309.21,30.51Z"/><path class="cls-5" d="M302.15,18a3.9,3.9,0,0,1,3.89-3.9h6.34a3.9,3.9,0,0,1,1.74,7.39,2.61,2.61,0,0,0-1.28,1.36,3.9,3.9,0,0,1-7.25,0,2.61,2.61,0,0,0-1.28-1.36A3.9,3.9,0,0,1,302.15,18Z"/><path class="cls-6" d="M311.84,21.48a2.76,2.76,0,0,1-5.26,0,1.47,1.47,0,0,0-.63-.76,1.75,1.75,0,0,0-.27-.16A2.74,2.74,0,0,1,304.3,18a3.26,3.26,0,0,1,2.64-3.22,7.34,7.34,0,0,1,4.54,0A3.26,3.26,0,0,1,314.13,18a2.73,2.73,0,0,1-1.39,2.52l-.26.15A1.51,1.51,0,0,0,311.84,21.48Z"/><path class="cls-7" d="M309.21,14.78s2.77.88,2.77,3.27c0,1.12-.44,1.5-.76,1.63a.62.62,0,0,0-.38.41,1.66,1.66,0,0,1-.46.8,1.71,1.71,0,0,1-2.33,0,1.67,1.67,0,0,1-.47-.8.62.62,0,0,0-.38-.41c-.32-.13-.75-.51-.75-1.63C306.45,15.66,309.21,14.78,309.21,14.78Z"/><path class="cls-2" d="M292.15,4.08a11.16,11.16,0,0,0,6.64,2.11,11.12,11.12,0,0,0,6.63-2.11,8.23,8.23,0,0,0-1.47-.9,11.63,11.63,0,0,0-10.33,0A8.75,8.75,0,0,0,292.15,4.08Z"/><path class="cls-7" d="M293.62,3.18a11.52,11.52,0,0,0,5.17,1.21A11.5,11.5,0,0,0,304,3.18a11.63,11.63,0,0,0-10.33,0Z"/><path class="cls-2" d="M326.27,4.08a11.12,11.12,0,0,1-6.63,2.11A11.12,11.12,0,0,1,313,4.08a8.35,8.35,0,0,1,1.46-.9,11.63,11.63,0,0,1,10.33,0A8.23,8.23,0,0,1,326.27,4.08Z"/><path class="cls-7" d="M324.8,3.18a11.5,11.5,0,0,1-5.16,1.21,11.52,11.52,0,0,1-5.17-1.21,11.63,11.63,0,0,1,10.33,0Z"/><path class="cls-2" d="M309.21,6.54S305.42,7,305.42,12c0,4.33,3.79,4.32,3.79,4.32s3.8,0,3.8-4.32C313,7,309.21,6.54,309.21,6.54Z"/><path class="cls-7" d="M309.21,6.54s-2.06.29-2.06,3.86c0,3.09,2.06,3.08,2.06,3.08s2.06,0,2.06-3.08C311.27,6.83,309.21,6.54,309.21,6.54Z"/><circle class="cls-7" cx="309.21" cy="4.08" r="2.46"/><path class="cls-2" d="M455.52,19.19a10.64,10.64,0,0,1-9.17,10.54,11.73,11.73,0,0,1-22.54,0,10.64,10.64,0,0,1,1.46-21.18h19.62A10.64,10.64,0,0,1,455.52,19.19Z"/><path class="cls-3" d="M435.08,34.35a9.85,9.85,0,0,1-9.42-7.07l-.35-1.2-1.24-.17a8.72,8.72,0,0,1,1.2-17.36h19.62a8.72,8.72,0,0,1,1.19,17.36l-1.23.17-.35,1.2A9.86,9.86,0,0,1,435.08,34.35Z"/><path class="cls-3" d="M435.08,30.51a7.93,7.93,0,0,1-7.58-5.69l-.69-2.4-2.47-.34a6.8,6.8,0,0,1,.93-13.53h19.62a6.8,6.8,0,0,1,.93,13.53l-2.47.34-.7,2.4A7.92,7.92,0,0,1,435.08,30.51Z"/><path class="cls-2" d="M455.52,19.19a10.64,10.64,0,0,1-9.17,10.54,11.73,11.73,0,0,1-22.54,0,10.64,10.64,0,0,1,1.46-21.18h19.62A10.64,10.64,0,0,1,455.52,19.19Z"/><path class="cls-2" d="M435.08,34.35a9.85,9.85,0,0,1-9.42-7.07l-.35-1.2-1.24-.17a8.72,8.72,0,0,1,1.2-17.36h19.62a8.72,8.72,0,0,1,1.19,17.36l-1.23.17-.35,1.2A9.86,9.86,0,0,1,435.08,34.35Z"/><path class="cls-4" d="M435.08,30.51a7.93,7.93,0,0,1-7.58-5.69l-.69-2.4-2.47-.34a6.8,6.8,0,0,1,.93-13.53h19.62a6.8,6.8,0,0,1,.93,13.53l-2.47.34-.7,2.4A7.92,7.92,0,0,1,435.08,30.51Z"/><path class="cls-5" d="M442.14,18a3.9,3.9,0,0,0-3.89-3.9h-6.34a3.9,3.9,0,0,0-1.73,7.39,2.59,2.59,0,0,1,1.27,1.36,3.9,3.9,0,0,0,7.26,0A2.56,2.56,0,0,1,440,21.52,3.9,3.9,0,0,0,442.14,18Z"/><path class="cls-6" d="M432.45,21.48a2.76,2.76,0,0,0,5.26,0,1.47,1.47,0,0,1,.63-.76,2.4,2.4,0,0,1,.27-.16A2.74,2.74,0,0,0,440,18a3.26,3.26,0,0,0-2.64-3.22,7.34,7.34,0,0,0-4.54,0A3.27,3.27,0,0,0,430.16,18a2.73,2.73,0,0,0,1.39,2.52l.26.15A1.51,1.51,0,0,1,432.45,21.48Z"/><path class="cls-7" d="M435.08,14.78s-2.77.88-2.77,3.27c0,1.12.44,1.5.76,1.63a.62.62,0,0,1,.38.41,1.66,1.66,0,0,0,.46.8,1.72,1.72,0,0,0,2.34,0,1.75,1.75,0,0,0,.46-.8.62.62,0,0,1,.38-.41c.32-.13.76-.51.76-1.63C437.85,15.66,435.08,14.78,435.08,14.78Z"/><path class="cls-2" d="M452.14,4.08a11.16,11.16,0,0,1-6.64,2.11,11.12,11.12,0,0,1-6.63-2.11,8.75,8.75,0,0,1,1.47-.9,11.63,11.63,0,0,1,10.33,0A8.75,8.75,0,0,1,452.14,4.08Z"/><path class="cls-7" d="M450.67,3.18a11.52,11.52,0,0,1-5.17,1.21,11.5,11.5,0,0,1-5.16-1.21,11.63,11.63,0,0,1,10.33,0Z"/><path class="cls-2" d="M418,4.08a11.15,11.15,0,0,0,6.63,2.11,11.12,11.12,0,0,0,6.63-2.11,8.35,8.35,0,0,0-1.46-.9,11.63,11.63,0,0,0-10.33,0A8.23,8.23,0,0,0,418,4.08Z"/><path class="cls-7" d="M419.49,3.18a11.5,11.5,0,0,0,5.16,1.21,11.52,11.52,0,0,0,5.17-1.21,11.63,11.63,0,0,0-10.33,0Z"/><path class="cls-2" d="M435.08,6.54s3.79.41,3.79,5.43c0,4.33-3.79,4.32-3.79,4.32s-3.8,0-3.8-4.32C431.28,7,435.08,6.54,435.08,6.54Z"/><path class="cls-7" d="M435.08,6.54s2.06.29,2.06,3.86c0,3.09-2.06,3.08-2.06,3.08s-2.06,0-2.06-3.08C433,6.83,435.08,6.54,435.08,6.54Z"/><circle class="cls-7" cx="435.08" cy="4.08" r="2.46"/><path class="cls-2" d="M497.42,19.19a10.64,10.64,0,0,1-9.17,10.54,11.73,11.73,0,0,1-22.54,0,10.64,10.64,0,0,1,1.46-21.18h19.62A10.64,10.64,0,0,1,497.42,19.19Z"/><path class="cls-3" d="M477,34.35a9.85,9.85,0,0,1-9.42-7.07l-.35-1.2L466,25.91a8.72,8.72,0,0,1,1.2-17.36h19.62A8.72,8.72,0,0,1,488,25.91l-1.23.17-.35,1.2A9.86,9.86,0,0,1,477,34.35Z"/><path class="cls-3" d="M477,30.51a7.93,7.93,0,0,1-7.58-5.69l-.69-2.4-2.47-.34a6.8,6.8,0,0,1,.93-13.53h19.62a6.8,6.8,0,0,1,.93,13.53l-2.47.34-.7,2.4A7.92,7.92,0,0,1,477,30.51Z"/><path class="cls-2" d="M497.42,19.19a10.64,10.64,0,0,1-9.17,10.54,11.73,11.73,0,0,1-22.54,0,10.64,10.64,0,0,1,1.46-21.18h19.62A10.64,10.64,0,0,1,497.42,19.19Z"/><path class="cls-2" d="M477,34.35a9.85,9.85,0,0,1-9.42-7.07l-.35-1.2L466,25.91a8.72,8.72,0,0,1,1.2-17.36h19.62A8.72,8.72,0,0,1,488,25.91l-1.23.17-.35,1.2A9.86,9.86,0,0,1,477,34.35Z"/><path class="cls-4" d="M477,30.51a7.93,7.93,0,0,1-7.58-5.69l-.69-2.4-2.47-.34a6.8,6.8,0,0,1,.93-13.53h19.62a6.8,6.8,0,0,1,.93,13.53l-2.47.34-.7,2.4A7.92,7.92,0,0,1,477,30.51Z"/><path class="cls-5" d="M484,18a3.9,3.9,0,0,0-3.89-3.9h-6.34a3.9,3.9,0,0,0-1.73,7.39,2.59,2.59,0,0,1,1.27,1.36,3.9,3.9,0,0,0,7.26,0,2.56,2.56,0,0,1,1.27-1.36A3.9,3.9,0,0,0,484,18Z"/><path class="cls-6" d="M474.35,21.48a2.76,2.76,0,0,0,5.26,0,1.47,1.47,0,0,1,.63-.76,2.4,2.4,0,0,1,.27-.16A2.74,2.74,0,0,0,481.89,18a3.26,3.26,0,0,0-2.64-3.22,7.34,7.34,0,0,0-4.54,0A3.27,3.27,0,0,0,472.06,18a2.73,2.73,0,0,0,1.39,2.52l.26.15A1.51,1.51,0,0,1,474.35,21.48Z"/><path class="cls-7" d="M477,14.78s-2.77.88-2.77,3.27c0,1.12.44,1.5.76,1.63a.62.62,0,0,1,.38.41,1.66,1.66,0,0,0,.46.8,1.72,1.72,0,0,0,2.34,0,1.75,1.75,0,0,0,.46-.8.62.62,0,0,1,.38-.41c.32-.13.76-.51.76-1.63C479.75,15.66,477,14.78,477,14.78Z"/><path class="cls-2" d="M494,4.08a11.16,11.16,0,0,1-6.64,2.11,11.12,11.12,0,0,1-6.63-2.11,8.75,8.75,0,0,1,1.47-.9,11.63,11.63,0,0,1,10.33,0A8.75,8.75,0,0,1,494,4.08Z"/><path class="cls-7" d="M492.57,3.18a11.52,11.52,0,0,1-5.17,1.21,11.5,11.5,0,0,1-5.16-1.21,11.63,11.63,0,0,1,10.33,0Z"/><path class="cls-2" d="M459.92,4.08a11.15,11.15,0,0,0,6.63,2.11,11.12,11.12,0,0,0,6.63-2.11,8.35,8.35,0,0,0-1.46-.9,11.63,11.63,0,0,0-10.33,0A8.23,8.23,0,0,0,459.92,4.08Z"/><path class="cls-7" d="M461.39,3.18a11.5,11.5,0,0,0,5.16,1.21,11.52,11.52,0,0,0,5.17-1.21,11.63,11.63,0,0,0-10.33,0Z"/><path class="cls-2" d="M477,6.54s3.79.41,3.79,5.43c0,4.33-3.79,4.32-3.79,4.32s-3.8,0-3.8-4.32C473.18,7,477,6.54,477,6.54Z"/><path class="cls-7" d="M477,6.54S479,6.83,479,10.4c0,3.09-2.06,3.08-2.06,3.08s-2.06,0-2.06-3.08C474.92,6.83,477,6.54,477,6.54Z"/><circle class="cls-7" cx="476.98" cy="4.08" r="2.46"/><path class="cls-2" d="M497.6,19.21a10.64,10.64,0,0,0,9.17,10.54,11.73,11.73,0,0,0,22.54,0,10.64,10.64,0,0,0-1.46-21.17H508.23A10.63,10.63,0,0,0,497.6,19.21Z"/><path class="cls-3" d="M518,34.37a9.85,9.85,0,0,0,9.42-7.07l.35-1.2,1.24-.17a8.72,8.72,0,0,0-1.2-17.35H508.23A8.72,8.72,0,0,0,507,25.93l1.23.17.35,1.2A9.86,9.86,0,0,0,518,34.37Z"/><path class="cls-3" d="M518,30.53a7.93,7.93,0,0,0,7.58-5.69l.69-2.4,2.47-.34a6.79,6.79,0,0,0-.93-13.52H508.23a6.79,6.79,0,0,0-.93,13.52l2.47.34.7,2.4A7.92,7.92,0,0,0,518,30.53Z"/><path class="cls-2" d="M497.6,19.21a10.64,10.64,0,0,0,9.17,10.54,11.73,11.73,0,0,0,22.54,0,10.64,10.64,0,0,0-1.46-21.17H508.23A10.63,10.63,0,0,0,497.6,19.21Z"/><path class="cls-2" d="M518,34.37a9.85,9.85,0,0,0,9.42-7.07l.35-1.2,1.24-.17a8.72,8.72,0,0,0-1.2-17.35H508.23A8.72,8.72,0,0,0,507,25.93l1.23.17.35,1.2A9.86,9.86,0,0,0,518,34.37Z"/><path class="cls-4" d="M518,30.53a7.93,7.93,0,0,0,7.58-5.69l.69-2.4,2.47-.34a6.79,6.79,0,0,0-.93-13.52H508.23a6.79,6.79,0,0,0-.93,13.52l2.47.34.7,2.4A7.92,7.92,0,0,0,518,30.53Z"/><path class="cls-5" d="M511,18.05a3.89,3.89,0,0,1,3.89-3.89h6.34A3.89,3.89,0,0,1,523,21.54a2.61,2.61,0,0,0-1.28,1.36,3.9,3.9,0,0,1-7.25,0,2.61,2.61,0,0,0-1.28-1.36A3.9,3.9,0,0,1,511,18.05Z"/><path class="cls-6" d="M520.67,21.51a2.77,2.77,0,0,1-5.26,0,1.45,1.45,0,0,0-.63-.77,1.75,1.75,0,0,0-.27-.16,2.73,2.73,0,0,1-1.38-2.52,3.26,3.26,0,0,1,2.64-3.22,7.34,7.34,0,0,1,4.54,0A3.26,3.26,0,0,1,523,18.06a2.71,2.71,0,0,1-1.39,2.52l-.26.15A1.49,1.49,0,0,0,520.67,21.51Z"/><path class="cls-7" d="M518,14.81s2.77.87,2.77,3.26c0,1.12-.44,1.5-.76,1.63a.62.62,0,0,0-.38.41,1.66,1.66,0,0,1-.46.8,1.71,1.71,0,0,1-2.33,0,1.67,1.67,0,0,1-.47-.8.62.62,0,0,0-.38-.41c-.32-.13-.75-.51-.75-1.63C515.28,15.68,518,14.81,518,14.81Z"/><path class="cls-2" d="M501,4.11a11.16,11.16,0,0,0,6.64,2.11,11.12,11.12,0,0,0,6.63-2.11,9.13,9.13,0,0,0-1.47-.91,11.63,11.63,0,0,0-10.33,0A9.13,9.13,0,0,0,501,4.11Z"/><path class="cls-7" d="M502.45,3.2a11.52,11.52,0,0,0,5.17,1.21,11.5,11.5,0,0,0,5.16-1.21,11.63,11.63,0,0,0-10.33,0Z"/><path class="cls-2" d="M535.1,4.11a11.12,11.12,0,0,1-6.63,2.11,11.12,11.12,0,0,1-6.63-2.11,8.7,8.7,0,0,1,1.46-.91,11.63,11.63,0,0,1,10.33,0A8.57,8.57,0,0,1,535.1,4.11Z"/><path class="cls-7" d="M533.63,3.2a11.5,11.5,0,0,1-5.16,1.21A11.52,11.52,0,0,1,523.3,3.2a11.63,11.63,0,0,1,10.33,0Z"/><path class="cls-2" d="M518,6.57s-3.79.4-3.79,5.42c0,4.33,3.79,4.32,3.79,4.32s3.8,0,3.8-4.32C521.84,7,518,6.57,518,6.57Z"/><path class="cls-7" d="M518,6.57S516,6.85,516,10.43c0,3.08,2.06,3.07,2.06,3.07s2.06,0,2.06-3.07C520.1,6.85,518,6.57,518,6.57Z"/><circle class="cls-7" cx="518.04" cy="4.1" r="2.46"/><path class="cls-2" d="M455.7,19.21a10.64,10.64,0,0,0,9.17,10.54,11.73,11.73,0,0,0,22.54,0A10.64,10.64,0,0,0,486,8.58H466.33A10.63,10.63,0,0,0,455.7,19.21Z"/><path class="cls-3" d="M476.14,34.37a9.85,9.85,0,0,0,9.42-7.07l.35-1.2,1.24-.17A8.72,8.72,0,0,0,486,8.58H466.33a8.72,8.72,0,0,0-1.19,17.35l1.23.17.35,1.2A9.86,9.86,0,0,0,476.14,34.37Z"/><path class="cls-3" d="M476.14,30.53a7.93,7.93,0,0,0,7.58-5.69l.69-2.4,2.47-.34A6.79,6.79,0,0,0,486,8.58H466.33a6.79,6.79,0,0,0-.93,13.52l2.47.34.7,2.4A7.92,7.92,0,0,0,476.14,30.53Z"/><path class="cls-2" d="M455.7,19.21a10.64,10.64,0,0,0,9.17,10.54,11.73,11.73,0,0,0,22.54,0A10.64,10.64,0,0,0,486,8.58H466.33A10.63,10.63,0,0,0,455.7,19.21Z"/><path class="cls-2" d="M476.14,34.37a9.85,9.85,0,0,0,9.42-7.07l.35-1.2,1.24-.17A8.72,8.72,0,0,0,486,8.58H466.33a8.72,8.72,0,0,0-1.19,17.35l1.23.17.35,1.2A9.86,9.86,0,0,0,476.14,34.37Z"/><path class="cls-4" d="M476.14,30.53a7.93,7.93,0,0,0,7.58-5.69l.69-2.4,2.47-.34A6.79,6.79,0,0,0,486,8.58H466.33a6.79,6.79,0,0,0-.93,13.52l2.47.34.7,2.4A7.92,7.92,0,0,0,476.14,30.53Z"/><path class="cls-5" d="M469.08,18.05A3.89,3.89,0,0,1,473,14.16h6.34a3.89,3.89,0,0,1,1.74,7.38,2.61,2.61,0,0,0-1.28,1.36,3.9,3.9,0,0,1-7.25,0,2.61,2.61,0,0,0-1.28-1.36A3.9,3.9,0,0,1,469.08,18.05Z"/><path class="cls-6" d="M478.77,21.51a2.77,2.77,0,0,1-5.26,0,1.45,1.45,0,0,0-.63-.77,1.75,1.75,0,0,0-.27-.16,2.73,2.73,0,0,1-1.38-2.52,3.26,3.26,0,0,1,2.64-3.22,7.34,7.34,0,0,1,4.54,0,3.26,3.26,0,0,1,2.65,3.22,2.71,2.71,0,0,1-1.39,2.52l-.26.15A1.49,1.49,0,0,0,478.77,21.51Z"/><path class="cls-7" d="M476.14,14.81s2.77.87,2.77,3.26c0,1.12-.44,1.5-.76,1.63a.62.62,0,0,0-.38.41,1.66,1.66,0,0,1-.46.8,1.71,1.71,0,0,1-2.33,0,1.67,1.67,0,0,1-.47-.8.62.62,0,0,0-.38-.41c-.32-.13-.75-.51-.75-1.63C473.38,15.68,476.14,14.81,476.14,14.81Z"/><path class="cls-2" d="M459.08,4.11a11.16,11.16,0,0,0,6.64,2.11,11.12,11.12,0,0,0,6.63-2.11,9.13,9.13,0,0,0-1.47-.91,11.63,11.63,0,0,0-10.33,0A9.13,9.13,0,0,0,459.08,4.11Z"/><path class="cls-7" d="M460.55,3.2a11.52,11.52,0,0,0,5.17,1.21,11.5,11.5,0,0,0,5.16-1.21,11.63,11.63,0,0,0-10.33,0Z"/><path class="cls-2" d="M493.2,4.11a11.12,11.12,0,0,1-6.63,2.11,11.12,11.12,0,0,1-6.63-2.11,8.7,8.7,0,0,1,1.46-.91,11.63,11.63,0,0,1,10.33,0A8.57,8.57,0,0,1,493.2,4.11Z"/><path class="cls-7" d="M491.73,3.2a11.5,11.5,0,0,1-5.16,1.21A11.52,11.52,0,0,1,481.4,3.2a11.63,11.63,0,0,1,10.33,0Z"/><path class="cls-2" d="M476.14,6.57s-3.79.4-3.79,5.42c0,4.33,3.79,4.32,3.79,4.32s3.8,0,3.8-4.32C479.94,7,476.14,6.57,476.14,6.57Z"/><path class="cls-7" d="M476.14,6.57s-2.06.28-2.06,3.86c0,3.08,2.06,3.07,2.06,3.07s2.06,0,2.06-3.07C478.2,6.85,476.14,6.57,476.14,6.57Z"/><circle class="cls-7" cx="476.14" cy="4.1" r="2.46"/><path class="cls-2" d="M622.62,19.21a10.64,10.64,0,0,1-9.18,10.54,11.73,11.73,0,0,1-22.53,0,10.64,10.64,0,0,1,1.46-21.17H612A10.63,10.63,0,0,1,622.62,19.21Z"/><path class="cls-3" d="M602.18,34.37a9.86,9.86,0,0,1-9.43-7.07l-.34-1.2-1.24-.17a8.72,8.72,0,0,1,1.2-17.35H612a8.72,8.72,0,0,1,1.2,17.35L612,26.1l-.35,1.2A9.86,9.86,0,0,1,602.18,34.37Z"/><path class="cls-3" d="M602.18,30.53a7.92,7.92,0,0,1-7.58-5.69l-.69-2.4-2.48-.34a6.79,6.79,0,0,1,.94-13.52H612a6.79,6.79,0,0,1,.94,13.52l-2.47.34-.7,2.4A7.93,7.93,0,0,1,602.18,30.53Z"/><path class="cls-2" d="M622.62,19.21a10.64,10.64,0,0,1-9.18,10.54,11.73,11.73,0,0,1-22.53,0,10.64,10.64,0,0,1,1.46-21.17H612A10.63,10.63,0,0,1,622.62,19.21Z"/><path class="cls-2" d="M602.18,34.37a9.86,9.86,0,0,1-9.43-7.07l-.34-1.2-1.24-.17a8.72,8.72,0,0,1,1.2-17.35H612a8.72,8.72,0,0,1,1.2,17.35L612,26.1l-.35,1.2A9.86,9.86,0,0,1,602.18,34.37Z"/><path class="cls-4" d="M602.18,30.53a7.92,7.92,0,0,1-7.58-5.69l-.69-2.4-2.48-.34a6.79,6.79,0,0,1,.94-13.52H612a6.79,6.79,0,0,1,.94,13.52l-2.47.34-.7,2.4A7.93,7.93,0,0,1,602.18,30.53Z"/><path class="cls-5" d="M609.24,18.05a3.89,3.89,0,0,0-3.9-3.89H599a3.89,3.89,0,0,0-1.74,7.38,2.61,2.61,0,0,1,1.28,1.36,3.9,3.9,0,0,0,7.25,0,2.61,2.61,0,0,1,1.28-1.36A3.9,3.9,0,0,0,609.24,18.05Z"/><path class="cls-6" d="M599.55,21.51a2.76,2.76,0,0,0,5.25,0,1.52,1.52,0,0,1,.64-.77,1.75,1.75,0,0,1,.27-.16,2.73,2.73,0,0,0,1.38-2.52,3.26,3.26,0,0,0-2.65-3.22,7.31,7.31,0,0,0-4.53,0,3.26,3.26,0,0,0-2.65,3.22,2.73,2.73,0,0,0,1.38,2.52l.27.15A1.54,1.54,0,0,1,599.55,21.51Z"/><path class="cls-7" d="M602.18,14.81s-2.77.87-2.77,3.26c0,1.12.44,1.5.76,1.63a.59.59,0,0,1,.37.41,1.76,1.76,0,0,0,.47.8,1.71,1.71,0,0,0,2.33,0,1.67,1.67,0,0,0,.47-.8.61.61,0,0,1,.37-.41c.32-.13.76-.51.76-1.63C604.94,15.68,602.18,14.81,602.18,14.81Z"/><path class="cls-2" d="M619.23,4.11a11.12,11.12,0,0,1-6.63,2.11A11.12,11.12,0,0,1,606,4.11a8.57,8.57,0,0,1,1.47-.91,11.61,11.61,0,0,1,10.32,0A8.57,8.57,0,0,1,619.23,4.11Z"/><path class="cls-7" d="M617.76,3.2a11.47,11.47,0,0,1-5.16,1.21,11.47,11.47,0,0,1-5.16-1.21,11.61,11.61,0,0,1,10.32,0Z"/><path class="cls-2" d="M585.12,4.11a11.12,11.12,0,0,0,6.63,2.11,11.12,11.12,0,0,0,6.63-2.11,8.7,8.7,0,0,0-1.46-.91,11.63,11.63,0,0,0-10.33,0A8.57,8.57,0,0,0,585.12,4.11Z"/><path class="cls-7" d="M586.59,3.2a11.5,11.5,0,0,0,5.16,1.21,11.52,11.52,0,0,0,5.17-1.21,11.63,11.63,0,0,0-10.33,0Z"/><path class="cls-2" d="M602.18,6.57S606,7,606,12c0,4.33-3.79,4.32-3.79,4.32s-3.8,0-3.8-4.32C598.38,7,602.18,6.57,602.18,6.57Z"/><path class="cls-7" d="M602.18,6.57s2.06.28,2.06,3.86c0,3.08-2.06,3.07-2.06,3.07s-2.06,0-2.06-3.07C600.12,6.85,602.18,6.57,602.18,6.57Z"/><circle class="cls-7" cx="602.18" cy="4.1" r="2.46"/><path class="cls-2" d="M664.52,19.21a10.64,10.64,0,0,1-9.18,10.54,11.73,11.73,0,0,1-22.53,0,10.64,10.64,0,0,1,1.46-21.17h19.61A10.63,10.63,0,0,1,664.52,19.21Z"/><path class="cls-3" d="M644.08,34.37a9.86,9.86,0,0,1-9.43-7.07l-.34-1.2-1.24-.17a8.72,8.72,0,0,1,1.2-17.35h19.61a8.72,8.72,0,0,1,1.2,17.35l-1.23.17-.35,1.2A9.86,9.86,0,0,1,644.08,34.37Z"/><path class="cls-3" d="M644.08,30.53a7.92,7.92,0,0,1-7.58-5.69l-.69-2.4-2.48-.34a6.79,6.79,0,0,1,.94-13.52h19.61a6.79,6.79,0,0,1,.94,13.52l-2.47.34-.7,2.4A7.93,7.93,0,0,1,644.08,30.53Z"/><path class="cls-2" d="M664.52,19.21a10.64,10.64,0,0,1-9.18,10.54,11.73,11.73,0,0,1-22.53,0,10.64,10.64,0,0,1,1.46-21.17h19.61A10.63,10.63,0,0,1,664.52,19.21Z"/><path class="cls-2" d="M644.08,34.37a9.86,9.86,0,0,1-9.43-7.07l-.34-1.2-1.24-.17a8.72,8.72,0,0,1,1.2-17.35h19.61a8.72,8.72,0,0,1,1.2,17.35l-1.23.17-.35,1.2A9.86,9.86,0,0,1,644.08,34.37Z"/><path class="cls-4" d="M644.08,30.53a7.92,7.92,0,0,1-7.58-5.69l-.69-2.4-2.48-.34a6.79,6.79,0,0,1,.94-13.52h19.61a6.79,6.79,0,0,1,.94,13.52l-2.47.34-.7,2.4A7.93,7.93,0,0,1,644.08,30.53Z"/><path class="cls-5" d="M651.14,18.05a3.89,3.89,0,0,0-3.9-3.89h-6.33a3.89,3.89,0,0,0-1.74,7.38,2.61,2.61,0,0,1,1.28,1.36,3.9,3.9,0,0,0,7.25,0A2.61,2.61,0,0,1,649,21.54,3.9,3.9,0,0,0,651.14,18.05Z"/><path class="cls-6" d="M641.45,21.51a2.76,2.76,0,0,0,5.25,0,1.52,1.52,0,0,1,.64-.77,1.75,1.75,0,0,1,.27-.16A2.73,2.73,0,0,0,649,18.06a3.26,3.26,0,0,0-2.65-3.22,7.31,7.31,0,0,0-4.53,0,3.26,3.26,0,0,0-2.65,3.22,2.73,2.73,0,0,0,1.38,2.52l.27.15A1.54,1.54,0,0,1,641.45,21.51Z"/><path class="cls-7" d="M644.08,14.81s-2.77.87-2.77,3.26c0,1.12.44,1.5.76,1.63a.59.59,0,0,1,.37.41,1.76,1.76,0,0,0,.47.8,1.71,1.71,0,0,0,2.33,0,1.67,1.67,0,0,0,.47-.8.61.61,0,0,1,.37-.41c.32-.13.76-.51.76-1.63C646.84,15.68,644.08,14.81,644.08,14.81Z"/><path class="cls-2" d="M661.13,4.11a11.12,11.12,0,0,1-6.63,2.11,11.12,11.12,0,0,1-6.63-2.11,8.57,8.57,0,0,1,1.47-.91,11.61,11.61,0,0,1,10.32,0A8.57,8.57,0,0,1,661.13,4.11Z"/><path class="cls-7" d="M659.66,3.2a11.47,11.47,0,0,1-5.16,1.21,11.47,11.47,0,0,1-5.16-1.21,11.61,11.61,0,0,1,10.32,0Z"/><path class="cls-2" d="M627,4.11a11.12,11.12,0,0,0,6.63,2.11,11.12,11.12,0,0,0,6.63-2.11,8.7,8.7,0,0,0-1.46-.91,11.63,11.63,0,0,0-10.33,0A8.57,8.57,0,0,0,627,4.11Z"/><path class="cls-7" d="M628.49,3.2a11.5,11.5,0,0,0,5.16,1.21,11.52,11.52,0,0,0,5.17-1.21,11.63,11.63,0,0,0-10.33,0Z"/><path class="cls-2" d="M644.08,6.57s3.79.4,3.79,5.42c0,4.33-3.79,4.32-3.79,4.32s-3.8,0-3.8-4.32C640.28,7,644.08,6.57,644.08,6.57Z"/><path class="cls-7" d="M644.08,6.57s2.06.28,2.06,3.86c0,3.08-2.06,3.07-2.06,3.07s-2.06,0-2.06-3.07C642,6.85,644.08,6.57,644.08,6.57Z"/><circle class="cls-7" cx="644.08" cy="4.1" r="2.46"/><path class="cls-2" d="M580.55,19.21a10.64,10.64,0,0,1-9.17,10.54,11.73,11.73,0,0,1-22.54,0A10.64,10.64,0,0,1,550.3,8.58h19.62A10.63,10.63,0,0,1,580.55,19.21Z"/><path class="cls-3" d="M560.11,34.37a9.85,9.85,0,0,1-9.42-7.07l-.35-1.2-1.24-.17a8.72,8.72,0,0,1,1.2-17.35h19.62a8.72,8.72,0,0,1,1.19,17.35l-1.23.17-.35,1.2A9.86,9.86,0,0,1,560.11,34.37Z"/><path class="cls-3" d="M560.11,30.53a7.93,7.93,0,0,1-7.58-5.69l-.69-2.4-2.47-.34a6.79,6.79,0,0,1,.93-13.52h19.62a6.79,6.79,0,0,1,.93,13.52l-2.47.34-.7,2.4A7.92,7.92,0,0,1,560.11,30.53Z"/><path class="cls-2" d="M580.55,19.21a10.64,10.64,0,0,1-9.17,10.54,11.73,11.73,0,0,1-22.54,0A10.64,10.64,0,0,1,550.3,8.58h19.62A10.63,10.63,0,0,1,580.55,19.21Z"/><path class="cls-2" d="M560.11,34.37a9.85,9.85,0,0,1-9.42-7.07l-.35-1.2-1.24-.17a8.72,8.72,0,0,1,1.2-17.35h19.62a8.72,8.72,0,0,1,1.19,17.35l-1.23.17-.35,1.2A9.86,9.86,0,0,1,560.11,34.37Z"/><path class="cls-4" d="M560.11,30.53a7.93,7.93,0,0,1-7.58-5.69l-.69-2.4-2.47-.34a6.79,6.79,0,0,1,.93-13.52h19.62a6.79,6.79,0,0,1,.93,13.52l-2.47.34-.7,2.4A7.92,7.92,0,0,1,560.11,30.53Z"/><path class="cls-5" d="M567.17,18.05a3.89,3.89,0,0,0-3.89-3.89h-6.34a3.89,3.89,0,0,0-1.73,7.38,2.59,2.59,0,0,1,1.27,1.36,3.9,3.9,0,0,0,7.26,0A2.56,2.56,0,0,1,565,21.54,3.9,3.9,0,0,0,567.17,18.05Z"/><path class="cls-6" d="M557.48,21.51a2.77,2.77,0,0,0,5.26,0,1.45,1.45,0,0,1,.63-.77,2.4,2.4,0,0,1,.27-.16A2.73,2.73,0,0,0,565,18.06a3.26,3.26,0,0,0-2.64-3.22,7.34,7.34,0,0,0-4.54,0,3.27,3.27,0,0,0-2.65,3.22,2.71,2.71,0,0,0,1.39,2.52l.26.15A1.49,1.49,0,0,1,557.48,21.51Z"/><path class="cls-7" d="M560.11,14.81s-2.77.87-2.77,3.26c0,1.12.44,1.5.76,1.63a.62.62,0,0,1,.38.41,1.66,1.66,0,0,0,.46.8,1.71,1.71,0,0,0,2.33,0,1.67,1.67,0,0,0,.47-.8.62.62,0,0,1,.38-.41c.32-.13.75-.51.75-1.63C562.87,15.68,560.11,14.81,560.11,14.81Z"/><path class="cls-2" d="M577.17,4.11a11.16,11.16,0,0,1-6.64,2.11,11.12,11.12,0,0,1-6.63-2.11,9.13,9.13,0,0,1,1.47-.91,11.63,11.63,0,0,1,10.33,0A9.13,9.13,0,0,1,577.17,4.11Z"/><path class="cls-7" d="M575.7,3.2a11.52,11.52,0,0,1-5.17,1.21,11.5,11.5,0,0,1-5.16-1.21,11.63,11.63,0,0,1,10.33,0Z"/><path class="cls-2" d="M543.05,4.11a11.12,11.12,0,0,0,6.63,2.11,11.12,11.12,0,0,0,6.63-2.11,8.7,8.7,0,0,0-1.46-.91,11.63,11.63,0,0,0-10.33,0A8.57,8.57,0,0,0,543.05,4.11Z"/><path class="cls-7" d="M544.52,3.2a11.5,11.5,0,0,0,5.16,1.21,11.52,11.52,0,0,0,5.17-1.21,11.63,11.63,0,0,0-10.33,0Z"/><path class="cls-2" d="M560.11,6.57S563.9,7,563.9,12c0,4.33-3.79,4.32-3.79,4.32s-3.8,0-3.8-4.32C556.31,7,560.11,6.57,560.11,6.57Z"/><path class="cls-7" d="M560.11,6.57s2.06.28,2.06,3.86c0,3.08-2.06,3.07-2.06,3.07s-2.06,0-2.06-3.07C558.05,6.85,560.11,6.57,560.11,6.57Z"/><circle class="cls-7" cx="560.11" cy="4.1" r="2.46"/><path class="cls-2" d="M665.53,19.21a10.64,10.64,0,0,0,9.18,10.54,11.73,11.73,0,0,0,22.53,0,10.64,10.64,0,0,0-1.46-21.17H676.17A10.63,10.63,0,0,0,665.53,19.21Z"/><path class="cls-3" d="M686,34.37a9.86,9.86,0,0,0,9.42-7.07l.34-1.2,1.24-.17a8.72,8.72,0,0,0-1.2-17.35H676.17A8.72,8.72,0,0,0,675,25.93l1.24.17.34,1.2A9.87,9.87,0,0,0,686,34.37Z"/><path class="cls-3" d="M686,30.53a7.92,7.92,0,0,0,7.57-5.69l.69-2.4,2.48-.34a6.79,6.79,0,0,0-.94-13.52H676.17a6.79,6.79,0,0,0-.94,13.52l2.47.34.7,2.4A7.93,7.93,0,0,0,686,30.53Z"/><path class="cls-2" d="M665.53,19.21a10.64,10.64,0,0,0,9.18,10.54,11.73,11.73,0,0,0,22.53,0,10.64,10.64,0,0,0-1.46-21.17H676.17A10.63,10.63,0,0,0,665.53,19.21Z"/><path class="cls-2" d="M686,34.37a9.86,9.86,0,0,0,9.42-7.07l.34-1.2,1.24-.17a8.72,8.72,0,0,0-1.2-17.35H676.17A8.72,8.72,0,0,0,675,25.93l1.24.17.34,1.2A9.87,9.87,0,0,0,686,34.37Z"/><path class="cls-4" d="M686,30.53a7.92,7.92,0,0,0,7.57-5.69l.69-2.4,2.48-.34a6.79,6.79,0,0,0-.94-13.52H676.17a6.79,6.79,0,0,0-.94,13.52l2.47.34.7,2.4A7.93,7.93,0,0,0,686,30.53Z"/><path class="cls-5" d="M678.91,18.05a3.9,3.9,0,0,1,3.9-3.89h6.33a3.89,3.89,0,0,1,1.74,7.38,2.61,2.61,0,0,0-1.28,1.36,3.9,3.9,0,0,1-7.25,0,2.61,2.61,0,0,0-1.28-1.36A3.9,3.9,0,0,1,678.91,18.05Z"/><path class="cls-6" d="M688.6,21.51a2.76,2.76,0,0,1-5.25,0,1.5,1.5,0,0,0-.63-.77l-.28-.16a2.73,2.73,0,0,1-1.38-2.52,3.26,3.26,0,0,1,2.65-3.22,7.31,7.31,0,0,1,4.53,0,3.26,3.26,0,0,1,2.65,3.22,2.73,2.73,0,0,1-1.38,2.52l-.26.15A1.51,1.51,0,0,0,688.6,21.51Z"/><path class="cls-7" d="M686,14.81s2.76.87,2.76,3.26c0,1.12-.44,1.5-.76,1.63a.61.61,0,0,0-.37.41,1.67,1.67,0,0,1-.47.8,1.71,1.71,0,0,1-2.33,0,1.76,1.76,0,0,1-.47-.8.59.59,0,0,0-.37-.41c-.32-.13-.76-.51-.76-1.63C683.21,15.68,686,14.81,686,14.81Z"/><path class="cls-2" d="M668.92,4.11a11.12,11.12,0,0,0,6.63,2.11,11.12,11.12,0,0,0,6.63-2.11,8.7,8.7,0,0,0-1.46-.91,11.63,11.63,0,0,0-10.33,0A8.57,8.57,0,0,0,668.92,4.11Z"/><path class="cls-7" d="M670.39,3.2a11.5,11.5,0,0,0,5.16,1.21,11.52,11.52,0,0,0,5.17-1.21,11.63,11.63,0,0,0-10.33,0Z"/><path class="cls-2" d="M703,4.11a11.12,11.12,0,0,1-6.63,2.11,11.12,11.12,0,0,1-6.63-2.11,8.57,8.57,0,0,1,1.47-.91,11.61,11.61,0,0,1,10.32,0A8.57,8.57,0,0,1,703,4.11Z"/><path class="cls-7" d="M701.56,3.2a11.47,11.47,0,0,1-5.16,1.21,11.47,11.47,0,0,1-5.16-1.21,11.61,11.61,0,0,1,10.32,0Z"/><path class="cls-2" d="M686,6.57s-3.8.4-3.8,5.42c0,4.33,3.8,4.32,3.8,4.32s3.79,0,3.79-4.32C689.77,7,686,6.57,686,6.57Z"/><path class="cls-7" d="M686,6.57s-2.06.28-2.06,3.86c0,3.08,2.06,3.07,2.06,3.07s2.06,0,2.06-3.07C688,6.85,686,6.57,686,6.57Z"/><circle class="cls-7" cx="685.98" cy="4.1" r="2.46"/></g></g></svg>