<svg width="25" height="28" viewBox="0 0 25 28" fill="none" xmlns="http://www.w3.org/2000/svg">
<path d="M12.3343 28C25.9748 23.1224 25.5927 11.4248 23.6948 9.66871C22.5973 8.65424 21.3134 8.36365 20.425 8.30012C20.3102 8.28988 20.199 8.25452 20.0991 8.19652C19.9993 8.13851 19.9133 8.05926 19.8471 7.96431C19.7809 7.86936 19.7362 7.76101 19.716 7.64684C19.6958 7.53267 19.7007 7.41544 19.7302 7.30335C20.4105 4.49117 17.7557 2.0956 15.6673 1.58212C13.3293 1.00405 12.3281 0 12.3281 0C12.3281 0 11.3279 1.00405 8.98994 1.58212C6.90152 2.10289 4.24776 4.48804 4.92803 7.30335C4.95742 7.41537 4.96215 7.53249 4.94188 7.64653C4.9216 7.76057 4.87682 7.86879 4.81066 7.96361C4.74449 8.05844 4.65854 8.13759 4.55881 8.19553C4.45908 8.25347 4.34798 8.28881 4.23327 8.29907C3.34385 8.36261 2.0589 8.6532 0.96344 9.66767C-0.934467 11.4227 -1.3155 23.1224 12.3343 28Z" fill="black"/>
<path d="M12.3279 1.1593C12.9202 1.55717 13.9338 2.0967 15.4486 2.47374C17.1829 2.90286 19.3677 4.91305 18.8427 7.08677C18.7825 7.33301 18.7765 7.58951 18.8251 7.83833C18.8738 8.08715 18.9759 8.32226 19.1243 8.52723C19.2678 8.72568 19.4528 8.89014 19.6662 9.00907C19.8795 9.128 20.1162 9.19852 20.3596 9.21569C21.0999 9.26986 22.1726 9.50941 23.0765 10.3447C23.4969 10.7332 24.0757 12.6997 23.5114 15.4837C22.9036 18.4855 20.6402 23.9422 12.3289 27.0231C4.0177 23.9422 1.75325 18.4824 1.1465 15.4827C0.582205 12.6976 1.161 10.7322 1.58138 10.3437C2.48425 9.51045 3.55694 9.26881 4.29829 9.21465C4.54165 9.19748 4.77832 9.12696 4.99171 9.00803C5.20509 8.88909 5.39003 8.72464 5.53354 8.52619C5.68164 8.32048 5.78323 8.08467 5.83116 7.8353C5.8791 7.58592 5.87222 7.32902 5.81103 7.0826C5.28607 4.90784 7.46768 2.89869 9.20407 2.46957C10.723 2.09982 11.7356 1.56238 12.3279 1.1593Z" fill="black"/>
<path d="M12.3276 2.23718C13.2381 2.74523 14.2136 3.12513 15.2268 3.36622C16.5832 3.7016 18.3258 5.32017 17.9509 6.87C17.8595 7.24602 17.8508 7.63757 17.9254 8.01733C18 8.39709 18.156 8.7559 18.3827 9.06871C18.6047 9.375 18.8904 9.62884 19.22 9.81252C19.5496 9.9962 19.9151 10.1053 20.291 10.1321C20.8791 10.1748 21.726 10.3602 22.4312 10.9997C22.6496 11.3185 23.0938 12.9235 22.6124 15.3003C22.0532 18.0615 19.9721 23.0932 12.3256 26.0418C4.68217 23.0932 2.60099 18.0604 2.04083 15.2993C1.55937 12.9224 2.00356 11.3174 2.22203 10.9987C2.92715 10.3592 3.77515 10.1738 4.36326 10.1311C4.73884 10.1042 5.10408 9.99522 5.43348 9.81173C5.76288 9.62824 6.04853 9.37467 6.27048 9.06871C6.49651 8.75638 6.65213 8.39824 6.72652 8.01924C6.80091 7.64023 6.79227 7.24947 6.70121 6.87417C6.32847 5.32017 8.06796 3.70056 9.42538 3.36518C10.4398 3.12523 11.4164 2.74566 12.3276 2.23718Z" fill="white"/>
<path d="M12.3286 3.27771C13.1843 3.70525 14.0853 4.03404 15.0145 4.25781C15.9463 4.48903 17.2986 5.70452 17.0687 6.65338C16.9425 7.15801 16.9285 7.68442 17.0275 8.19515C17.1265 8.70588 17.3362 9.18837 17.6417 9.60831C17.9472 10.0283 18.3409 10.3753 18.7948 10.6248C19.2488 10.8743 19.7518 11.0201 20.2681 11.0518C20.6333 11.0788 20.99 11.1757 21.3191 11.3372C21.4424 11.3985 21.5503 11.4871 21.6346 11.5965C21.7189 11.7058 21.7774 11.833 21.8057 11.9684C21.9269 12.561 22.02 13.6516 21.7229 15.117C21.2124 17.6386 19.3114 22.2475 12.3307 25.0565C5.34891 22.2443 3.44686 17.6376 2.9364 15.116C2.63924 13.6526 2.72932 12.5621 2.85253 11.9684C2.87626 11.842 2.92733 11.7223 3.00212 11.6179C3.07691 11.5135 3.17359 11.4269 3.28533 11.3643C3.64139 11.1824 4.03083 11.076 4.42946 11.0518C4.93739 11.0157 5.43136 10.8685 5.87685 10.6204C6.32234 10.3723 6.70861 10.0294 7.00867 9.61554C7.31374 9.19477 7.52378 8.71205 7.62411 8.20112C7.72444 7.6902 7.71264 7.1634 7.58953 6.65754C7.36485 5.70452 8.71088 4.48903 9.64275 4.25781C10.572 4.03429 11.473 3.70549 12.3286 3.27771Z" fill="white"/>
<path d="M12.3283 4.29639C13.1224 4.65771 13.9485 4.94331 14.7956 5.14942C15.4479 5.31086 16.2224 6.15035 16.181 6.43677C15.9659 7.32852 16.0265 8.26507 16.3547 9.12123C16.683 9.9774 17.2632 10.7124 18.0178 11.2279C18.6597 11.6585 19.4035 11.91 20.1736 11.957C20.3864 11.9724 20.5866 12.0646 20.7371 12.2168C20.8876 12.369 20.9784 12.5708 20.9926 12.785C21.0319 13.5056 20.9755 14.2282 20.8248 14.9337C20.363 17.2158 18.6411 21.4018 12.3272 24.0629C6.01121 21.4007 4.29036 17.2147 3.82753 14.9317C3.6826 14.2425 3.62622 13.5375 3.6598 12.834C3.66949 12.6125 3.75883 12.4021 3.9112 12.2419C4.06357 12.0818 4.26859 11.9827 4.48813 11.9632H4.49434C5.13441 11.9178 5.75686 11.7321 6.3181 11.4192C6.87935 11.1063 7.36582 10.6738 7.74346 10.152C8.12738 9.62366 8.39184 9.01729 8.51829 8.37534C8.64474 7.7334 8.63013 7.0714 8.47549 6.43573C8.43304 6.15139 9.20856 5.31086 9.86087 5.14942C10.7081 4.94337 11.5341 4.65777 12.3283 4.29639Z" fill="black"/>
</svg>
