<svg width="36" height="35" viewBox="0 0 36 35" fill="none" xmlns="http://www.w3.org/2000/svg">
<path d="M17.5163 32.6659C16.9787 33.2573 16.4193 34.1806 15.6887 34.5047C14.9581 34.8289 14.1679 34.9972 13.3686 34.999C12.6052 34.9986 11.8494 34.8479 11.1442 34.5554C10.4391 34.263 9.79853 33.8346 9.25903 33.2947C8.71953 32.7548 8.2917 32.114 7.99995 31.4088C7.70821 30.7036 7.57405 30.1151 7.57447 29.352C7.57447 28.4051 8.29932 27.1339 8.52131 26.5115C7.86081 26.7786 6.53804 27.6501 5.82552 27.648C4.65943 27.6504 3.51974 27.301 2.5555 26.6455C1.59126 25.99 0.847334 25.0589 0.421013 23.9739C-0.00530763 22.8889 -0.0941837 21.7006 0.166007 20.5644C0.426198 19.4281 1.68524 18.4539 2.54125 17.6623C1.67853 16.8709 0.41357 15.78 0.149397 14.6397C-0.114777 13.4994 -0.0277015 12.3059 0.399182 11.216C0.826066 10.126 1.57279 9.19067 2.54125 8.53278C3.50971 7.87489 4.65461 7.52523 5.82552 7.52974C6.48377 7.53613 7.74378 8.29961 8.35935 8.53278C8.09914 7.86592 7.35501 6.51625 7.34981 5.80047C7.3483 4.63232 7.70022 3.49102 8.35935 2.52642C9.01848 1.56183 9.95401 0.819023 11.0431 0.395546C12.1322 -0.0279308 13.3239 -0.112286 14.4619 0.153557C15.5998 0.4194 16.7277 1.50497 17.5163 2.3671C18.3043 1.50444 19.238 0.41837 20.3759 0.152224C21.5138 -0.113923 22.7056 -0.0296474 23.7948 0.393971C24.8839 0.817589 25.8192 1.56072 26.4779 2.52568C27.1367 3.49064 27.4878 4.63226 27.4854 5.80047C27.4739 6.46192 26.7042 7.91109 26.4779 8.53278C27.3562 8.18763 28.9539 7.26842 29.8916 7.37451C30.8292 7.4806 31.7266 7.81455 32.5055 8.34719C33.2843 8.87983 33.9208 9.59496 34.3595 10.4301C34.7981 11.2653 35.0255 12.1952 35.0219 13.1384C35.0222 13.9366 34.856 14.726 34.5339 15.4563C34.2119 16.1866 33.2552 16.9782 32.6657 17.5165C33.5281 18.3067 34.6173 19.2026 34.8822 20.3416C35.147 21.4807 35.0611 22.6732 34.6357 23.7626C34.2103 24.852 33.4653 25.7873 32.4986 26.4458C31.5318 27.1042 30.3884 27.4551 29.2185 27.4522C28.5561 27.4484 27.1311 26.745 26.5112 26.5115C26.7714 27.1783 27.2349 28.099 27.4581 29.352C27.4629 30.5215 27.3365 31.4979 26.6786 32.465C26.0207 33.4322 25.0854 34.1776 23.9955 34.6031C22.9057 35.0286 21.7126 35.1143 20.5731 34.849C19.4337 34.5836 18.3057 33.5291 17.5163 32.6659Z" fill="black"/>
<path d="M0.886719 22.0036C0.886621 21.3963 1.01332 20.7956 1.25873 20.2399C1.50414 19.6843 1.86287 19.1858 2.31201 18.7763L3.59784 17.5873L2.31201 16.3882C1.66017 15.7856 1.20515 15.0009 1.00621 14.1364C0.807281 13.2718 0.873659 12.3675 1.1967 11.5412C1.51974 10.7148 2.08447 10.0048 2.81734 9.50359C3.5502 9.00236 4.41723 8.73315 5.30547 8.73103C5.80009 8.73767 6.28959 8.83199 6.75118 9.00959L10.1358 10.236L8.85341 6.88978C8.65426 6.38186 8.54937 5.84198 8.54385 5.29653C8.54385 4.12527 9.00976 3.00197 9.83907 2.17376C10.6684 1.34555 11.7932 0.880267 12.966 0.880267C13.5733 0.880418 14.1739 1.00674 14.7296 1.2512C15.2854 1.49567 15.7841 1.85292 16.1942 2.30027L17.395 3.59117L18.5924 2.30027C19.0015 1.84974 19.5002 1.48929 20.0566 1.24188C20.613 0.994469 21.2149 0.865531 21.8239 0.863281C22.9968 0.863281 24.1216 1.32857 24.9509 2.15678C25.7802 2.98499 26.2461 4.10828 26.2461 5.27955C26.2333 5.78894 26.1368 6.29276 25.9604 6.77089L24.831 10.0933L28.1 8.83974C28.7673 8.57491 29.4895 8.47781 30.2032 8.55694C30.9168 8.63608 31.6001 8.88904 32.193 9.2936C32.7859 9.69816 33.2702 10.2419 33.6034 10.8772C33.9366 11.5124 34.1084 12.2196 34.1039 12.9367C34.1071 13.5428 33.9824 14.1429 33.738 14.6977C33.4936 15.2526 33.135 15.7499 32.6854 16.1571L31.3758 17.3529L32.6786 18.5589C33.1278 18.9684 33.4865 19.4668 33.7319 20.0225C33.9773 20.5782 34.104 21.1789 34.1039 21.7862C34.1039 22.9575 33.638 24.0808 32.8087 24.909C31.9794 25.7372 30.8546 26.2025 29.6818 26.2025C29.1817 26.1981 28.6864 26.1049 28.2191 25.9273L24.865 24.7213L26.1406 28.0641C26.3419 28.5727 26.4479 29.1139 26.4536 29.6607C26.4584 30.5498 26.1932 31.4195 25.693 32.1549C25.1927 32.8903 24.4809 33.457 23.6514 33.7801C22.822 34.1031 21.914 34.1675 21.0472 33.9645C20.1805 33.7616 19.3957 33.301 18.7965 32.6434L17.5855 31.3253L16.3881 32.6332C15.9811 33.0841 15.4836 33.4445 14.928 33.6909C14.3725 33.9373 13.7712 34.0642 13.1633 34.0634C11.9905 34.0634 10.8657 33.5981 10.0364 32.7699C9.20706 31.9417 8.74115 30.8184 8.74115 29.6471C8.74871 29.1384 8.84067 28.6345 9.01328 28.1558L10.1903 24.7213L6.85323 26.1141C6.36436 26.314 5.84049 26.4144 5.31228 26.4097C4.14063 26.4106 3.0165 25.9471 2.18675 25.121C1.35699 24.2949 0.889422 23.1737 0.886719 22.0036Z" fill="white"/>
<path d="M3.09327 21.4599C3.09258 20.9323 3.20205 20.4104 3.41469 19.9274C3.62734 19.4445 3.93847 19.0113 4.32819 18.6554L5.44569 17.6234L4.33629 16.5793C3.76573 16.0576 3.3665 15.3756 3.19112 14.6228C3.01574 13.87 3.07242 13.0818 3.35371 12.3619C3.635 11.6419 4.12771 11.0239 4.76706 10.5892C5.4064 10.1544 6.16243 9.92328 6.9357 9.92612C7.36513 9.9325 7.79006 10.0147 8.19087 10.1689L11.1182 11.2333L10.0048 8.32758C9.83076 7.88518 9.73883 7.4148 9.73351 6.93947C9.73297 6.43391 9.83221 5.93321 10.0255 5.46603C10.2188 4.99885 10.5024 4.57436 10.8601 4.21688C11.2178 3.85939 11.6425 3.57592 12.1099 3.3827C12.5773 3.18947 13.0782 3.09029 13.584 3.09082C14.1131 3.09218 14.6361 3.20413 15.1193 3.41949C15.6025 3.63485 16.0353 3.94885 16.3899 4.34133L17.4346 5.46234L18.4792 4.34942C18.8331 3.95657 19.265 3.64174 19.7474 3.42504C20.2298 3.20834 20.7522 3.09451 21.281 3.09082C22.2998 3.09189 23.2765 3.49687 23.9969 4.21688C24.7172 4.93689 25.1224 5.91313 25.1235 6.93138C25.1123 7.3753 25.0274 7.81428 24.8724 8.23045L23.8926 11.1038L26.7268 10.0152C27.1674 9.83893 27.6371 9.74695 28.1116 9.74401C29.1271 9.74508 30.1007 10.1488 30.8188 10.8665C31.5369 11.5842 31.9408 12.5574 31.9419 13.5724C31.9467 14.0976 31.8411 14.6179 31.6319 15.0997C31.4226 15.5814 31.1144 16.0138 30.7272 16.3689L29.5732 17.4211L30.7029 18.4692C31.0935 18.8255 31.4054 19.2593 31.6187 19.7429C31.832 20.2265 31.9421 20.7493 31.9419 21.2778C31.9419 22.2939 31.5386 23.2685 30.8205 23.9878C30.1024 24.707 29.1282 25.1122 28.1116 25.1143C27.6783 25.1107 27.2491 25.0298 26.8443 24.8756L23.9209 23.8112L25.0303 26.7169C25.2028 27.1582 25.2933 27.6272 25.2976 28.101C25.3012 28.8733 25.0706 29.6286 24.636 30.2673C24.2015 30.906 23.5835 31.398 22.8635 31.6785C22.1435 31.959 21.3554 32.0148 20.603 31.8385C19.8507 31.6622 19.1695 31.2621 18.6492 30.691L17.6006 29.5619L16.56 30.6951C16.2072 31.0874 15.7758 31.4011 15.2938 31.6159C14.8118 31.8306 14.2899 31.9416 13.7622 31.9415C12.7445 31.9383 11.7697 31.5317 11.0516 30.8109C10.3335 30.0902 9.93082 29.1141 9.9319 28.0969C9.93896 27.6553 10.0183 27.2179 10.1667 26.8019L11.1911 23.8314L8.29209 25.0455C7.86796 25.218 7.41381 25.3047 6.95594 25.3005C6.44965 25.3032 5.94781 25.2058 5.47929 25.014C5.01077 24.8222 4.58479 24.5397 4.22584 24.1828C3.86689 23.8259 3.58205 23.4016 3.38768 22.9343C3.19332 22.4671 3.09326 21.966 3.09327 21.4599Z" fill="black"/>
<path d="M8.8013 15.5383C7.26151 15.4466 6.27344 16.408 6.27344 17.5913C6.27344 18.7724 7.25929 19.7354 8.8013 19.6451C10.3433 19.5549 12.3402 17.5913 12.3402 17.5913C12.3402 17.5913 10.3411 15.63 8.8013 15.5383Z" stroke="white" stroke-width="0.53" stroke-miterlimit="10" stroke-linecap="round"/>
<path d="M19.3641 8.77786C19.4558 7.23807 18.4943 6.25 17.311 6.25C16.1299 6.25 15.167 7.23585 15.2572 8.77786C15.3474 10.3199 17.311 12.3167 17.311 12.3167C17.311 12.3167 19.2724 10.3177 19.3641 8.77786Z" stroke="white" stroke-width="0.53" stroke-miterlimit="10" stroke-linecap="round"/>
<path d="M15.257 25.9487C15.1653 27.4885 16.1268 28.4766 17.3101 28.4766C18.4912 28.4766 19.4541 27.4907 19.3639 25.9487C19.2737 24.4067 17.3101 22.4098 17.3101 22.4098C17.3101 22.4098 15.3487 24.4089 15.257 25.9487Z" stroke="white" stroke-width="0.53" stroke-miterlimit="10" stroke-linecap="round"/>
<path d="M26.5594 19.6442C28.0992 19.7359 29.0872 18.7745 29.0872 17.5911C29.0872 16.4108 28.1014 15.4479 26.5594 15.5381C25.0174 15.6283 23.0205 17.5911 23.0205 17.5911C23.0205 17.5911 25.0196 19.5525 26.5594 19.6442Z" stroke="white" stroke-width="0.53" stroke-miterlimit="10" stroke-linecap="round"/>
<path d="M24.6302 17.5916C25.3572 16.7965 25.6279 15.659 25.2877 14.6739C24.9771 13.7739 24.2286 13.2362 23.2864 13.2362C23.0506 13.2381 22.8159 13.2689 22.5875 13.3279C22.1894 13.4294 21.8096 13.5926 21.4619 13.8116C21.6806 13.4638 21.8438 13.084 21.9456 12.686C22.1904 11.7068 21.8968 11.0589 21.6083 10.6891C21.1875 10.15 20.499 9.84082 19.7195 9.84082C18.9637 9.84589 18.2367 10.1316 17.6797 10.6425C17.1231 10.1315 16.3963 9.84579 15.6407 9.84082C14.8605 9.84082 14.1727 10.15 13.7518 10.6891C13.4627 11.0589 13.1698 11.7053 13.4146 12.686C13.5161 13.0841 13.6793 13.4639 13.8983 13.8116C13.5507 13.593 13.1712 13.4298 12.7734 13.3279C12.5452 13.2695 12.3108 13.2392 12.0752 13.2377C11.1323 13.2377 10.3838 13.7754 10.0732 14.6754C9.733 15.6605 10.0044 16.798 10.7314 17.593C10.0044 18.3888 9.73374 19.5255 10.0732 20.5106C10.3846 21.4114 11.1323 21.9491 12.0752 21.9491C12.3108 21.9476 12.5452 21.9173 12.7734 21.8589C13.1714 21.7571 13.5512 21.5939 13.899 21.3752C13.6807 21.7223 13.5181 22.1013 13.4168 22.4986C13.172 23.4771 13.4649 24.1257 13.7541 24.4955C14.1749 25.0346 14.8634 25.3438 15.6429 25.3438C16.3985 25.3388 17.1253 25.053 17.6819 24.5421C18.2391 25.0527 18.966 25.3383 19.7217 25.3438C20.5012 25.3438 21.1897 25.0346 21.6106 24.4955C21.899 24.1257 22.1926 23.4793 21.9478 22.4986C21.846 22.1006 21.6828 21.7208 21.4641 21.373C21.8112 21.5917 22.1902 21.7552 22.5875 21.8574C22.8157 21.9158 23.0502 21.9461 23.2857 21.9476C24.2286 21.9476 24.9764 21.41 25.2877 20.5099C25.6279 19.5248 25.3572 18.3873 24.6302 17.5916Z" fill="black"/>
<path d="M17.6317 16.1801C17.6317 16.1801 20.9213 14.979 21.5218 12.5783C22.1224 10.1777 19.0724 9.50467 17.676 11.2811C16.2834 9.50615 13.2342 10.1769 13.8347 12.5783C14.4352 14.9797 17.7241 16.1801 17.7241 16.1801" fill="white"/>
<path d="M17.6415 16.1802C17.6415 16.1802 20.2803 15.2187 20.7617 13.2906C21.2432 11.3626 18.7974 10.8249 17.6799 12.2508C16.5632 10.8249 14.1167 11.3633 14.5981 13.2906C15.0796 15.218 17.7184 16.1802 17.7184 16.1802" fill="white"/>
<path d="M17.6547 16.1803C17.6547 16.1803 19.4127 15.5384 19.7329 14.2574C20.0531 12.9765 18.4246 12.6148 17.6799 13.5644C16.9358 12.6148 15.3058 12.9728 15.6268 14.2574C15.9478 15.5421 17.7057 16.1803 17.7057 16.1803" fill="black"/>
<path d="M16.2684 17.6395C16.2684 17.6395 15.0674 14.3498 12.6667 13.7501C10.2661 13.1503 9.59305 16.1988 11.3695 17.5914C9.59453 18.9848 10.2653 22.034 12.6667 21.4372C15.0681 20.8403 16.2684 17.547 16.2684 17.547" fill="white"/>
<path d="M16.2685 17.6303C16.2685 17.6303 15.3071 14.9907 13.379 14.5093C11.451 14.0278 10.9133 16.4743 12.3392 17.5911C10.9133 18.7086 11.4517 21.1551 13.379 20.6736C15.3064 20.1921 16.2685 17.5526 16.2685 17.5526" fill="white"/>
<path d="M16.2692 17.6174C16.2692 17.6174 15.6272 15.8594 14.3463 15.5384C13.0653 15.2174 12.7037 16.8475 13.6533 17.5915C12.7037 18.3362 13.0616 19.9655 14.3463 19.6453C15.6309 19.325 16.2692 17.5663 16.2692 17.5663" fill="black"/>
<path d="M17.7283 19.0029C17.7283 19.0029 14.4387 20.2033 13.8389 22.6047C13.2391 25.006 16.2876 25.6783 17.6803 23.9033C19.0736 25.6783 22.1229 25.0083 21.5261 22.6069C20.9292 20.2055 17.6359 19.0051 17.6359 19.0051" fill="white"/>
<path d="M17.7184 19.0029C17.7184 19.0029 15.0796 19.9644 14.5981 21.8924C14.1167 23.8205 16.5632 24.3574 17.6799 22.9323C18.7974 24.3574 21.2439 23.8198 20.7617 21.8924C20.2795 19.9651 17.6415 19.0029 17.6415 19.0029" fill="white"/>
<path d="M17.7057 19.0029C17.7057 19.0029 15.9478 19.6449 15.6268 20.9258C15.3058 22.2068 16.9358 22.5677 17.6799 21.6188C18.4246 22.5677 20.0539 22.2105 19.7329 20.9258C19.4119 19.6412 17.6547 19.0029 17.6547 19.0029" fill="black"/>
<path d="M19.0913 17.5433C19.0913 17.5433 20.2916 20.8329 22.693 21.4334C25.0944 22.034 25.7667 18.9847 23.9895 17.5877C25.7645 16.195 25.0944 13.1458 22.693 13.7463C20.2916 14.3468 19.0913 17.6357 19.0913 17.6357" fill="white"/>
<path d="M19.0913 17.5526C19.0913 17.5526 20.0528 20.1914 21.9808 20.6729C23.9089 21.1543 24.4458 18.7086 23.0207 17.5911C24.4458 16.4743 23.9082 14.0278 21.9808 14.5093C20.0535 14.9907 19.0913 17.6295 19.0913 17.6295" fill="white"/>
<path d="M19.0913 17.5662C19.0913 17.5662 19.7325 19.3241 21.0142 19.6444C22.2959 19.9646 22.6561 18.3361 21.7064 17.5913C22.6561 16.8473 22.2981 15.218 21.0142 15.5383C19.7303 15.8585 19.0913 17.6172 19.0913 17.6172" fill="black"/>
<path d="M17.6794 20.518C17.1006 20.518 16.5348 20.3464 16.0536 20.0248C15.5723 19.7033 15.1972 19.2462 14.9757 18.7115C14.7542 18.1767 14.6962 17.5883 14.8092 17.0206C14.9221 16.4529 15.2008 15.9315 15.6101 15.5222C16.0194 15.1129 16.5408 14.8342 17.1085 14.7213C17.6762 14.6084 18.2646 14.6663 18.7993 14.8878C19.3341 15.1093 19.7911 15.4844 20.1127 15.9657C20.4343 16.4469 20.6059 17.0127 20.6059 17.5915C20.6051 18.3674 20.2966 19.1114 19.7479 19.66C19.1992 20.2087 18.4553 20.5172 17.6794 20.518Z" fill="white"/>
<path d="M17.6795 19.6442C18.8134 19.6442 19.7326 18.725 19.7326 17.5911C19.7326 16.4573 18.8134 15.5381 17.6795 15.5381C16.5456 15.5381 15.6265 16.4573 15.6265 17.5911C15.6265 18.725 16.5456 19.6442 17.6795 19.6442Z" fill="black"/>
</svg>
