<svg width="31" height="31" viewBox="0 0 31 31" fill="none" xmlns="http://www.w3.org/2000/svg">
<path d="M15.5852 29.3332C15.1093 29.8567 14.5293 30.2753 13.8825 30.5623C13.2356 30.8493 12.536 30.9984 11.8283 31C11.1524 30.9996 10.4832 30.8662 9.85891 30.6073C9.2346 30.3483 8.66742 29.9691 8.18976 29.491C7.71209 29.013 7.33329 28.4456 7.07498 27.8212C6.81668 27.1969 6.68392 26.5278 6.6843 25.8521C6.69057 25.2671 6.79409 24.6872 6.99063 24.1362C6.40583 24.3727 5.78062 24.4934 5.14976 24.4915C4.11732 24.4936 3.10825 24.1843 2.25452 23.6039C1.40079 23.0235 0.742124 22.1991 0.364664 21.2385C-0.0127959 20.2779 -0.0914859 19.2257 0.138884 18.2197C0.369254 17.2136 0.897962 16.3005 1.65587 15.5997C0.892021 14.899 0.358074 13.9837 0.124178 12.9741C-0.109719 11.9645 -0.0326233 10.9077 0.345336 9.94271C0.723294 8.9777 1.38444 8.14955 2.2419 7.56705C3.09937 6.98456 4.11305 6.67498 5.14976 6.67897C5.73257 6.68463 6.30979 6.79319 6.85481 6.99963C6.62442 6.4092 6.50396 5.78164 6.49935 5.14789C6.49802 4.11363 6.8096 3.10313 7.39319 2.24909C7.97677 1.39504 8.80508 0.737371 9.76935 0.362428C10.7336 -0.0125138 11.7888 -0.0872008 12.7963 0.148174C13.8038 0.383549 14.7166 0.917982 15.4147 1.6813C16.1124 0.91751 17.025 0.382637 18.0325 0.146993C19.04 -0.08865 20.0953 -0.0140337 21.0595 0.361034C22.0238 0.736101 22.852 1.39406 23.4352 2.24843C24.0184 3.1028 24.3294 4.11357 24.3272 5.14789C24.317 5.73354 24.2096 6.31342 24.0093 6.86386C24.7868 6.55826 25.6274 6.4476 26.4576 6.54153C27.2878 6.63547 28.0824 6.93114 28.7719 7.40273C29.4615 7.87433 30.025 8.5075 30.4134 9.24696C30.8018 9.98642 31.0032 10.8097 31 11.6449C31.0002 12.3515 30.853 13.0504 30.5679 13.697C30.2828 14.3437 29.866 14.9238 29.344 15.4003C30.1076 16.0999 30.6417 17.014 30.8762 18.0225C31.1107 19.031 31.0347 20.0868 30.658 21.0514C30.2814 22.0159 29.6218 22.844 28.7658 23.427C27.9098 24.01 26.8975 24.3207 25.8617 24.3181C25.2752 24.3148 24.6939 24.2072 24.1451 24.0004C24.3755 24.5908 24.496 25.2184 24.5006 25.8521C24.5048 26.8876 24.1954 27.9001 23.6129 28.7564C23.0304 29.6127 22.2022 30.2727 21.2373 30.6495C20.2724 31.0262 19.216 31.1021 18.2071 30.8671C17.1983 30.6322 16.2842 30.0974 15.5852 29.3332Z" fill="black"/>
<path d="M1.39001 19.3551C1.38993 18.8387 1.49757 18.3279 1.70606 17.8554C1.91455 17.3828 2.21931 16.9589 2.60088 16.6108L3.69327 15.5997L2.60088 14.5799C2.04711 14.0675 1.66054 13.4002 1.49153 12.665C1.32253 11.9299 1.37892 11.1608 1.65336 10.4582C1.9278 9.75548 2.40758 9.15169 3.03019 8.72546C3.65279 8.29923 4.38938 8.0703 5.144 8.0685C5.5642 8.07414 5.98007 8.15435 6.37221 8.30538L9.24766 9.34825L8.15817 6.50275C7.98899 6.07083 7.89987 5.61172 7.89519 5.14789C7.89519 4.15188 8.291 3.19666 8.99555 2.49237C9.7001 1.78808 10.6557 1.39242 11.6521 1.39242C12.168 1.39255 12.6782 1.49997 13.1504 1.70785C13.6225 1.91574 14.0462 2.21954 14.3946 2.59995L15.4147 3.6977L16.432 2.59995C16.7796 2.21683 17.2032 1.91031 17.6759 1.69992C18.1486 1.48953 18.66 1.37989 19.1774 1.37798C20.1738 1.37798 21.1293 1.77364 21.8339 2.47793C22.5384 3.18222 22.9342 4.13744 22.9342 5.13345C22.9234 5.56662 22.8414 5.99506 22.6915 6.40165L21.732 9.22692L24.5092 8.16094C25.0762 7.93574 25.6897 7.85316 26.296 7.92046C26.9023 7.98776 27.4828 8.20287 27.9865 8.54689C28.4902 8.89092 28.9016 9.35333 29.1847 9.89351C29.4677 10.4337 29.6138 11.0351 29.6099 11.6449C29.6126 12.1603 29.5067 12.6706 29.2991 13.1424C29.0915 13.6143 28.7868 14.0371 28.4048 14.3835L27.2922 15.4003L28.3991 16.4259C28.7806 16.7741 29.0854 17.1979 29.2939 17.6705C29.5024 18.143 29.61 18.6538 29.6099 19.1703C29.6099 20.1663 29.2141 21.1215 28.5096 21.8258C27.805 22.5301 26.8494 22.9257 25.8531 22.9257C25.4282 22.922 25.0074 22.8428 24.6104 22.6917L21.761 21.6662L22.8447 24.5088C23.0156 24.9413 23.1057 25.4015 23.1105 25.8666C23.1147 26.6226 22.8893 27.3621 22.4643 27.9875C22.0393 28.6129 21.4346 29.0948 20.7299 29.3695C20.0253 29.6443 19.2539 29.699 18.5175 29.5264C17.7811 29.3538 17.1144 28.9621 16.6054 28.403L15.5766 27.2821L14.5593 28.3943C14.2135 28.7777 13.7909 29.0842 13.3189 29.2937C12.8469 29.5032 12.3361 29.6112 11.8197 29.6105C10.8233 29.6105 9.86772 29.2148 9.16317 28.5105C8.45862 27.8062 8.0628 26.851 8.0628 25.855C8.06923 25.4224 8.14735 24.9939 8.294 24.5868L9.2939 21.6662L6.45891 22.8506C6.04358 23.0206 5.59853 23.106 5.14978 23.102C4.15439 23.1027 3.19939 22.7086 2.49446 22.0061C1.78953 21.3036 1.39231 20.3502 1.39001 19.3551Z" fill="white"/>
<path d="M5.20184 18.3123C5.20134 17.9356 5.27948 17.5631 5.43125 17.2183C5.58303 16.8736 5.8051 16.5644 6.08326 16.3103L6.88087 15.5737L6.08904 14.8284C5.6818 14.456 5.39686 13.9691 5.27168 13.4317C5.1465 12.8944 5.18696 12.3318 5.38773 11.8178C5.58849 11.3039 5.94017 10.8628 6.3965 10.5524C6.85283 10.2421 7.39244 10.0771 7.94436 10.0791C8.25087 10.0837 8.55416 10.1424 8.84023 10.2524L10.9296 11.0122L10.1349 8.93803C10.0107 8.62224 9.94508 8.28647 9.94128 7.94717C9.9409 7.58628 10.0117 7.22887 10.1497 6.89538C10.2877 6.56189 10.4901 6.25889 10.7454 6.0037C11.0007 5.74852 11.3038 5.54617 11.6374 5.40824C11.971 5.27031 12.3286 5.19951 12.6896 5.19989C13.0672 5.20086 13.4405 5.28078 13.7854 5.43451C14.1303 5.58824 14.4392 5.81238 14.6923 6.09254L15.4379 6.89274L16.1835 6.09832C16.4361 5.81788 16.7444 5.59316 17.0887 5.43847C17.433 5.28378 17.8058 5.20253 18.1833 5.19989C18.9104 5.20066 19.6075 5.48974 20.1217 6.0037C20.6359 6.51767 20.925 7.21453 20.9258 7.94139C20.9178 8.25827 20.8573 8.57163 20.7466 8.8687L20.0473 10.9198L22.0702 10.1427C22.3846 10.0169 22.7199 9.95122 23.0586 9.94912C23.7834 9.94989 24.4783 10.2381 24.9908 10.7504C25.5034 11.2627 25.7916 11.9574 25.7924 12.682C25.7959 13.0568 25.7205 13.4283 25.5712 13.7722C25.4218 14.116 25.2018 14.4247 24.9254 14.6781L24.1018 15.4292L24.9081 16.1774C25.1869 16.4318 25.4095 16.7414 25.5618 17.0866C25.714 17.4318 25.7926 17.805 25.7924 18.1823C25.7924 18.9076 25.5046 19.6033 24.992 20.1167C24.4795 20.6302 23.7841 20.9194 23.0586 20.9209C22.7493 20.9183 22.443 20.8606 22.154 20.7504L20.0675 19.9907L20.8593 22.0649C20.9824 22.3799 21.047 22.7147 21.0501 23.0528C21.0527 23.6042 20.888 24.1433 20.5779 24.5992C20.2677 25.0551 19.8266 25.4064 19.3128 25.6066C18.7989 25.8068 18.2363 25.8466 17.6994 25.7208C17.1624 25.5949 16.6762 25.3094 16.3048 24.9017L15.5564 24.0957L14.8137 24.9046C14.5619 25.1846 14.2539 25.4086 13.9099 25.5619C13.5659 25.7152 13.1934 25.7944 12.8167 25.7943C12.0904 25.792 11.3946 25.5018 10.8821 24.9873C10.3695 24.4728 10.0821 23.776 10.0829 23.05C10.0879 22.7347 10.1445 22.4225 10.2505 22.1255L10.9816 20.0051L8.91248 20.8718C8.60975 20.9949 8.28561 21.0567 7.95881 21.0538C7.59744 21.0557 7.23926 20.9862 6.90485 20.8492C6.57044 20.7123 6.2664 20.5107 6.01021 20.2559C5.75401 20.0012 5.5507 19.6983 5.41197 19.3647C5.27325 19.0312 5.20183 18.6735 5.20184 18.3123Z" fill="black"/>
<path d="M17.9607 18.4885C17.9582 18.2952 17.9437 18.1022 17.9174 17.9107C18.109 17.9361 18.302 17.9496 18.4953 17.9512C20.3796 17.9512 21.9083 16.8505 21.9083 15.4928C21.9083 14.135 20.3796 13.0373 18.4953 13.0373C18.302 13.0388 18.109 13.0523 17.9174 13.0777C17.9437 12.8862 17.9582 12.6932 17.9607 12.5C17.9607 10.6135 16.8597 9.08536 15.5014 9.08536C14.1431 9.08536 13.0421 10.6135 13.0421 12.5C13.0446 12.6932 13.0591 12.8862 13.0854 13.0777C12.8938 13.0523 12.7008 13.0388 12.5075 13.0373C10.6232 13.0373 9.09448 14.1379 9.09448 15.4928C9.09448 16.8476 10.6232 17.9512 12.5075 17.9512C12.7008 17.9496 12.8938 17.9361 13.0854 17.9107C13.0591 18.1022 13.0446 18.2952 13.0421 18.4885C13.0421 20.3749 14.1431 21.9031 15.5014 21.9031C16.8597 21.9031 17.9607 20.3778 17.9607 18.4885Z" fill="black" stroke="white" stroke-width="0.75" stroke-linecap="round" stroke-linejoin="round"/>
<path d="M15.5852 29.3332C15.1093 29.8567 14.5293 30.2753 13.8825 30.5623C13.2356 30.8493 12.536 30.9984 11.8283 31C11.1524 30.9996 10.4832 30.8662 9.85891 30.6073C9.2346 30.3483 8.66742 29.9691 8.18976 29.491C7.71209 29.013 7.33329 28.4456 7.07498 27.8212C6.81668 27.1969 6.68392 26.5278 6.6843 25.8521C6.69057 25.2671 6.79409 24.6872 6.99063 24.1362C6.40583 24.3727 5.78062 24.4934 5.14976 24.4915C4.11732 24.4936 3.10825 24.1843 2.25452 23.6039C1.40079 23.0235 0.742124 22.1991 0.364664 21.2385C-0.0127959 20.2779 -0.0914859 19.2257 0.138884 18.2197C0.369254 17.2136 0.897962 16.3005 1.65587 15.5997C0.892021 14.899 0.358074 13.9837 0.124178 12.9741C-0.109719 11.9645 -0.0326233 10.9077 0.345336 9.94271C0.723294 8.9777 1.38444 8.14955 2.2419 7.56705C3.09937 6.98456 4.11305 6.67498 5.14976 6.67897C5.73257 6.68463 6.30979 6.79319 6.85481 6.99963C6.62442 6.4092 6.50396 5.78164 6.49935 5.14789C6.49802 4.11363 6.8096 3.10313 7.39319 2.24909C7.97677 1.39504 8.80508 0.737371 9.76935 0.362428C10.7336 -0.0125138 11.7888 -0.0872008 12.7963 0.148174C13.8038 0.383549 14.7166 0.917982 15.4147 1.6813C16.1124 0.91751 17.025 0.382637 18.0325 0.146993C19.04 -0.08865 20.0953 -0.0140337 21.0595 0.361034C22.0238 0.736101 22.852 1.39406 23.4352 2.24843C24.0184 3.1028 24.3294 4.11357 24.3272 5.14789C24.317 5.73354 24.2096 6.31342 24.0093 6.86386C24.7868 6.55826 25.6274 6.4476 26.4576 6.54153C27.2878 6.63547 28.0824 6.93114 28.7719 7.40273C29.4615 7.87433 30.025 8.5075 30.4134 9.24696C30.8018 9.98642 31.0032 10.8097 31 11.6449C31.0002 12.3515 30.853 13.0504 30.5679 13.697C30.2828 14.3437 29.866 14.9238 29.344 15.4003C30.1076 16.0999 30.6417 17.014 30.8762 18.0225C31.1107 19.031 31.0347 20.0868 30.658 21.0514C30.2814 22.0159 29.6218 22.844 28.7658 23.427C27.9098 24.01 26.8975 24.3207 25.8617 24.3181C25.2752 24.3148 24.6939 24.2072 24.1451 24.0004C24.3755 24.5908 24.496 25.2184 24.5006 25.8521C24.5048 26.8876 24.1954 27.9001 23.6129 28.7564C23.0304 29.6127 22.2022 30.2727 21.2373 30.6495C20.2724 31.0262 19.216 31.1021 18.2071 30.8671C17.1983 30.6322 16.2842 30.0974 15.5852 29.3332Z" fill="black"/>
<path d="M1.39001 19.3551C1.38993 18.8387 1.49757 18.3279 1.70606 17.8554C1.91455 17.3828 2.21931 16.9589 2.60088 16.6108L3.69327 15.5997L2.60088 14.5799C2.04711 14.0675 1.66054 13.4002 1.49153 12.665C1.32253 11.9299 1.37892 11.1608 1.65336 10.4582C1.9278 9.75548 2.40758 9.15169 3.03019 8.72546C3.65279 8.29923 4.38938 8.0703 5.144 8.0685C5.5642 8.07414 5.98007 8.15435 6.37221 8.30538L9.24766 9.34825L8.15817 6.50275C7.98899 6.07083 7.89987 5.61172 7.89519 5.14789C7.89519 4.15188 8.291 3.19666 8.99555 2.49237C9.7001 1.78808 10.6557 1.39242 11.6521 1.39242C12.168 1.39255 12.6782 1.49997 13.1504 1.70785C13.6225 1.91574 14.0462 2.21954 14.3946 2.59995L15.4147 3.6977L16.432 2.59995C16.7796 2.21683 17.2032 1.91031 17.6759 1.69992C18.1486 1.48953 18.66 1.37989 19.1774 1.37798C20.1738 1.37798 21.1293 1.77364 21.8339 2.47793C22.5384 3.18222 22.9342 4.13744 22.9342 5.13345C22.9234 5.56662 22.8414 5.99506 22.6915 6.40165L21.732 9.22692L24.5092 8.16094C25.0762 7.93574 25.6897 7.85316 26.296 7.92046C26.9023 7.98776 27.4828 8.20287 27.9865 8.54689C28.4902 8.89092 28.9016 9.35333 29.1847 9.89351C29.4677 10.4337 29.6138 11.0351 29.6099 11.6449C29.6126 12.1603 29.5067 12.6706 29.2991 13.1424C29.0915 13.6143 28.7868 14.0371 28.4048 14.3835L27.2922 15.4003L28.3991 16.4259C28.7806 16.7741 29.0854 17.1979 29.2939 17.6705C29.5024 18.143 29.61 18.6538 29.6099 19.1703C29.6099 20.1663 29.2141 21.1215 28.5096 21.8258C27.805 22.5301 26.8494 22.9257 25.8531 22.9257C25.4282 22.922 25.0074 22.8428 24.6104 22.6917L21.761 21.6662L22.8447 24.5088C23.0156 24.9413 23.1057 25.4015 23.1105 25.8666C23.1147 26.6226 22.8893 27.3621 22.4643 27.9875C22.0393 28.6129 21.4346 29.0948 20.7299 29.3695C20.0253 29.6443 19.2539 29.699 18.5175 29.5264C17.7811 29.3538 17.1144 28.9621 16.6054 28.403L15.5766 27.2821L14.5593 28.3943C14.2135 28.7777 13.7909 29.0842 13.3189 29.2937C12.8469 29.5032 12.3361 29.6112 11.8197 29.6105C10.8233 29.6105 9.86772 29.2148 9.16317 28.5105C8.45862 27.8062 8.0628 26.851 8.0628 25.855C8.06923 25.4224 8.14735 24.9939 8.294 24.5868L9.2939 21.6662L6.45891 22.8506C6.04358 23.0206 5.59853 23.106 5.14978 23.102C4.15439 23.1027 3.19939 22.7086 2.49446 22.0061C1.78953 21.3036 1.39231 20.3502 1.39001 19.3551Z" fill="white"/>
<path d="M5.20184 18.3123C5.20134 17.9356 5.27948 17.5631 5.43125 17.2183C5.58303 16.8736 5.8051 16.5644 6.08326 16.3103L6.88087 15.5737L6.08904 14.8284C5.6818 14.456 5.39686 13.9691 5.27168 13.4317C5.1465 12.8944 5.18696 12.3318 5.38773 11.8178C5.58849 11.3039 5.94017 10.8628 6.3965 10.5524C6.85283 10.2421 7.39244 10.0771 7.94436 10.0791C8.25087 10.0837 8.55416 10.1424 8.84023 10.2524L10.9296 11.0122L10.1349 8.93803C10.0107 8.62224 9.94508 8.28647 9.94128 7.94717C9.9409 7.58628 10.0117 7.22887 10.1497 6.89538C10.2877 6.56189 10.4901 6.25889 10.7454 6.0037C11.0007 5.74852 11.3038 5.54617 11.6374 5.40824C11.971 5.27031 12.3286 5.19951 12.6896 5.19989C13.0672 5.20086 13.4405 5.28078 13.7854 5.43451C14.1303 5.58824 14.4392 5.81238 14.6923 6.09254L15.4379 6.89274L16.1835 6.09832C16.4361 5.81788 16.7444 5.59316 17.0887 5.43847C17.433 5.28378 17.8058 5.20253 18.1833 5.19989C18.9104 5.20066 19.6075 5.48974 20.1217 6.0037C20.6359 6.51767 20.925 7.21453 20.9258 7.94139C20.9178 8.25827 20.8573 8.57163 20.7466 8.8687L20.0473 10.9198L22.0702 10.1427C22.3846 10.0169 22.7199 9.95122 23.0586 9.94912C23.7834 9.94989 24.4783 10.2381 24.9908 10.7504C25.5034 11.2627 25.7916 11.9574 25.7924 12.682C25.7959 13.0568 25.7205 13.4283 25.5712 13.7722C25.4218 14.116 25.2018 14.4247 24.9254 14.6781L24.1018 15.4292L24.9081 16.1774C25.1869 16.4318 25.4095 16.7414 25.5618 17.0866C25.714 17.4318 25.7926 17.805 25.7924 18.1823C25.7924 18.9076 25.5046 19.6033 24.992 20.1167C24.4795 20.6302 23.7841 20.9194 23.0586 20.9209C22.7493 20.9183 22.443 20.8606 22.154 20.7504L20.0675 19.9907L20.8593 22.0649C20.9824 22.3799 21.047 22.7147 21.0501 23.0528C21.0527 23.6042 20.888 24.1433 20.5779 24.5992C20.2677 25.0551 19.8266 25.4064 19.3128 25.6066C18.7989 25.8068 18.2363 25.8466 17.6994 25.7208C17.1624 25.5949 16.6762 25.3094 16.3048 24.9017L15.5564 24.0957L14.8137 24.9046C14.5619 25.1846 14.2539 25.4086 13.9099 25.5619C13.5659 25.7152 13.1934 25.7944 12.8167 25.7943C12.0904 25.792 11.3946 25.5018 10.8821 24.9873C10.3695 24.4728 10.0821 23.776 10.0829 23.05C10.0879 22.7347 10.1445 22.4225 10.2505 22.1255L10.9816 20.0051L8.91248 20.8718C8.60975 20.9949 8.28561 21.0567 7.95881 21.0538C7.59744 21.0557 7.23926 20.9862 6.90485 20.8492C6.57044 20.7123 6.2664 20.5107 6.01021 20.2559C5.75401 20.0012 5.5507 19.6983 5.41197 19.3647C5.27325 19.0312 5.20183 18.6735 5.20184 18.3123Z" fill="black"/>
<path d="M17.9607 18.4885C17.9582 18.2952 17.9437 18.1022 17.9174 17.9107C18.109 17.9361 18.302 17.9496 18.4953 17.9512C20.3796 17.9512 21.9083 16.8505 21.9083 15.4928C21.9083 14.135 20.3796 13.0373 18.4953 13.0373C18.302 13.0388 18.109 13.0523 17.9174 13.0777C17.9437 12.8862 17.9582 12.6932 17.9607 12.5C17.9607 10.6135 16.8597 9.08536 15.5014 9.08536C14.1431 9.08536 13.0421 10.6135 13.0421 12.5C13.0446 12.6932 13.0591 12.8862 13.0854 13.0777C12.8938 13.0523 12.7008 13.0388 12.5075 13.0373C10.6232 13.0373 9.09448 14.1379 9.09448 15.4928C9.09448 16.8476 10.6232 17.9512 12.5075 17.9512C12.7008 17.9496 12.8938 17.9361 13.0854 17.9107C13.0591 18.1022 13.0446 18.2952 13.0421 18.4885C13.0421 20.3749 14.1431 21.9031 15.5014 21.9031C16.8597 21.9031 17.9607 20.3778 17.9607 18.4885Z" fill="black" stroke="white" stroke-width="0.75" stroke-linecap="round" stroke-linejoin="round"/>
</svg>
