<svg width="31" height="31" viewBox="0 0 31 31" fill="none" xmlns="http://www.w3.org/2000/svg">
<path d="M15.5852 29.3331C15.1093 29.8567 14.5293 30.2753 13.8825 30.5623C13.2356 30.8493 12.536 30.9984 11.8283 31C11.1524 30.9996 10.4832 30.8662 9.85891 30.6072C9.2346 30.3483 8.66742 29.969 8.18976 29.491C7.71209 29.013 7.33329 28.4456 7.07498 27.8212C6.81668 27.1969 6.68392 26.5278 6.6843 25.8521C6.69057 25.2671 6.79409 24.6872 6.99063 24.1361C6.40583 24.3727 5.78062 24.4933 5.14976 24.4915C4.11732 24.4936 3.10825 24.1843 2.25452 23.6039C1.40079 23.0235 0.742124 22.1991 0.364664 21.2385C-0.0127959 20.2778 -0.0914859 19.2257 0.138884 18.2197C0.369254 17.2136 0.897962 16.3005 1.65587 15.5997C0.892021 14.899 0.358074 13.9837 0.124178 12.9741C-0.109719 11.9644 -0.0326233 10.9077 0.345336 9.9427C0.723294 8.97769 1.38444 8.14953 2.2419 7.56704C3.09937 6.98455 4.11305 6.67496 5.14976 6.67896C5.73257 6.68462 6.30979 6.79317 6.85481 6.99962C6.62442 6.40918 6.50396 5.78162 6.49935 5.14788C6.49802 4.11361 6.8096 3.10312 7.39319 2.24907C7.97677 1.39503 8.80508 0.737355 9.76935 0.362413C10.7336 -0.0125291 11.7888 -0.0872161 12.7963 0.148159C13.8038 0.383533 14.7166 0.917966 15.4147 1.68129C16.1124 0.917495 17.025 0.382622 18.0325 0.146978C19.04 -0.0886653 20.0953 -0.014049 21.0595 0.361018C22.0238 0.736086 22.852 1.39405 23.4352 2.24841C24.0184 3.10278 24.3294 4.11356 24.3272 5.14788C24.317 5.73352 24.2096 6.31341 24.0093 6.86384C24.7868 6.55825 25.6274 6.44758 26.4576 6.54152C27.2878 6.63545 28.0824 6.93112 28.7719 7.40272C29.4615 7.87431 30.025 8.50749 30.4134 9.24695C30.8018 9.98641 31.0032 10.8097 31 11.6448C31.0002 12.3515 30.853 13.0504 30.5679 13.697C30.2828 14.3436 29.866 14.9237 29.344 15.4003C30.1076 16.0999 30.6417 17.014 30.8762 18.0225C31.1107 19.031 31.0347 20.0868 30.658 21.0514C30.2814 22.0159 29.6218 22.844 28.7658 23.427C27.9098 24.01 26.8975 24.3207 25.8617 24.3181C25.2752 24.3148 24.6939 24.2072 24.1451 24.0004C24.3755 24.5908 24.496 25.2184 24.5006 25.8521C24.5048 26.8876 24.1954 27.9001 23.6129 28.7564C23.0304 29.6127 22.2022 30.2727 21.2373 30.6494C20.2724 31.0262 19.216 31.1021 18.2071 30.8671C17.1983 30.6322 16.2842 30.0974 15.5852 29.3331Z" fill="#B9000B"/>
<path d="M1.38989 19.3551C1.38981 18.8386 1.49745 18.3279 1.70594 17.8553C1.91443 17.3828 2.21919 16.9589 2.60076 16.6107L3.69315 15.5996L2.60076 14.5799C2.04698 14.0674 1.66042 13.4002 1.49141 12.665C1.32241 11.9298 1.3788 11.1608 1.65324 10.4581C1.92768 9.75543 2.40745 9.15165 3.03006 8.72542C3.65267 8.29918 4.38926 8.07025 5.14388 8.06845C5.56408 8.0741 5.97994 8.1543 6.37209 8.30534L9.24754 9.3482L8.15805 6.50271C7.98887 6.07078 7.89975 5.61168 7.89507 5.14785C7.89507 4.15183 8.29088 3.19662 8.99543 2.49233C9.69998 1.78804 10.6556 1.39237 11.6519 1.39237C12.1679 1.3925 12.6781 1.49992 13.1502 1.70781C13.6224 1.91569 14.0461 2.21949 14.3945 2.5999L15.4146 3.69766L16.4318 2.5999C16.7795 2.21679 17.2031 1.91027 17.6758 1.69988C18.1485 1.48949 18.6598 1.37984 19.1773 1.37793C20.1736 1.37793 21.1292 1.77359 21.8338 2.47788C22.5383 3.18217 22.9341 4.13739 22.9341 5.1334C22.9233 5.56658 22.8412 5.99502 22.6914 6.4016L21.7319 9.22687L24.5091 8.16089C25.076 7.9357 25.6896 7.85312 26.2959 7.92041C26.9022 7.98771 27.4827 8.20282 27.9864 8.54685C28.49 8.89088 28.9015 9.35329 29.1845 9.89346C29.4676 10.4336 29.6136 11.035 29.6098 11.6448C29.6125 12.1603 29.5066 12.6705 29.299 13.1424C29.0913 13.6142 28.7866 14.0371 28.4047 14.3834L27.2921 15.4003L28.3989 16.4258C28.7805 16.774 29.0853 17.1979 29.2938 17.6704C29.5023 18.143 29.6099 18.6538 29.6098 19.1702C29.6098 20.1662 29.214 21.1214 28.5094 21.8257C27.8049 22.53 26.8493 22.9257 25.8529 22.9257C25.4281 22.922 25.0073 22.8428 24.6103 22.6917L21.7608 21.6662L22.8445 24.5088C23.0155 24.9413 23.1056 25.4015 23.1104 25.8665C23.1145 26.6226 22.8892 27.3621 22.4642 27.9875C22.0392 28.6129 21.4345 29.0947 20.7298 29.3695C20.0252 29.6442 19.2538 29.6989 18.5174 29.5264C17.781 29.3538 17.1143 28.9621 16.6052 28.4029L15.5764 27.282L14.5592 28.3942C14.2134 28.7777 13.7908 29.0841 13.3188 29.2937C12.8468 29.5032 12.336 29.6111 11.8196 29.6104C10.8232 29.6104 9.86759 29.2148 9.16304 28.5105C8.45849 27.8062 8.06268 26.851 8.06268 25.855C8.0691 25.4224 8.14723 24.9938 8.29387 24.5868L9.29378 21.6662L6.45878 22.8506C6.04346 23.0205 5.59841 23.106 5.14966 23.1019C4.15427 23.1027 3.19927 22.7085 2.49434 22.006C1.78941 21.3035 1.39219 20.3501 1.38989 19.3551Z" fill="white"/>
<path d="M5.20184 18.3123C5.20134 17.9356 5.27948 17.5631 5.43125 17.2183C5.58303 16.8736 5.8051 16.5644 6.08326 16.3103L6.88087 15.5737L6.08904 14.8284C5.6818 14.456 5.39686 13.9691 5.27168 13.4317C5.1465 12.8944 5.18696 12.3318 5.38773 11.8178C5.58849 11.3039 5.94017 10.8628 6.3965 10.5524C6.85283 10.2421 7.39244 10.0771 7.94436 10.0791C8.25087 10.0837 8.55416 10.1424 8.84023 10.2524L10.9296 11.0122L10.1349 8.93803C10.0107 8.62224 9.94508 8.28647 9.94128 7.94717C9.9409 7.58628 10.0117 7.22887 10.1497 6.89538C10.2877 6.56189 10.4901 6.25889 10.7454 6.0037C11.0007 5.74852 11.3038 5.54617 11.6374 5.40824C11.971 5.27031 12.3286 5.19951 12.6896 5.19989C13.0672 5.20086 13.4405 5.28078 13.7854 5.43451C14.1303 5.58824 14.4392 5.81238 14.6923 6.09254L15.4379 6.89274L16.1835 6.09832C16.4361 5.81788 16.7444 5.59316 17.0887 5.43847C17.433 5.28378 17.8058 5.20253 18.1833 5.19989C18.9104 5.20066 19.6075 5.48974 20.1217 6.0037C20.6359 6.51767 20.925 7.21453 20.9258 7.94139C20.9178 8.25827 20.8573 8.57163 20.7466 8.8687L20.0473 10.9198L22.0702 10.1427C22.3846 10.0169 22.7199 9.95122 23.0586 9.94912C23.7834 9.94989 24.4783 10.2381 24.9908 10.7504C25.5034 11.2627 25.7916 11.9574 25.7924 12.682C25.7959 13.0568 25.7205 13.4283 25.5712 13.7722C25.4218 14.116 25.2018 14.4247 24.9254 14.6781L24.1018 15.4292L24.9081 16.1774C25.1869 16.4318 25.4095 16.7414 25.5618 17.0866C25.714 17.4318 25.7926 17.805 25.7924 18.1823C25.7924 18.9076 25.5046 19.6033 24.992 20.1167C24.4795 20.6302 23.7841 20.9194 23.0586 20.9209C22.7493 20.9183 22.443 20.8606 22.154 20.7504L20.0675 19.9907L20.8593 22.0649C20.9824 22.3799 21.047 22.7147 21.0501 23.0528C21.0527 23.6042 20.888 24.1433 20.5779 24.5992C20.2677 25.0551 19.8266 25.4064 19.3128 25.6066C18.7989 25.8068 18.2363 25.8466 17.6994 25.7208C17.1624 25.5949 16.6762 25.3094 16.3048 24.9017L15.5564 24.0957L14.8137 24.9046C14.5619 25.1846 14.2539 25.4086 13.9099 25.5619C13.5659 25.7152 13.1934 25.7944 12.8167 25.7943C12.0904 25.792 11.3946 25.5018 10.8821 24.9873C10.3695 24.4728 10.0821 23.776 10.0829 23.05C10.0879 22.7347 10.1445 22.4225 10.2505 22.1255L10.9816 20.0051L8.91248 20.8718C8.60975 20.9949 8.28561 21.0567 7.95881 21.0538C7.59744 21.0557 7.23926 20.9862 6.90485 20.8492C6.57044 20.7123 6.2664 20.5107 6.01021 20.2559C5.75401 20.0012 5.5507 19.6983 5.41197 19.3647C5.27325 19.0312 5.20183 18.6735 5.20184 18.3123Z" fill="#B9000B"/>
<path d="M17.9607 18.4885C17.9582 18.2952 17.9437 18.1022 17.9174 17.9107C18.109 17.9361 18.302 17.9496 18.4953 17.9511C20.3796 17.9511 21.9083 16.8505 21.9083 15.4927C21.9083 14.135 20.3796 13.0372 18.4953 13.0372C18.302 13.0388 18.109 13.0523 17.9174 13.0777C17.9437 12.8862 17.9582 12.6932 17.9607 12.4999C17.9607 10.6135 16.8597 9.08533 15.5014 9.08533C14.1431 9.08533 13.0421 10.6135 13.0421 12.4999C13.0446 12.6932 13.0591 12.8862 13.0854 13.0777C12.8938 13.0523 12.7008 13.0388 12.5075 13.0372C10.6232 13.0372 9.09448 14.1379 9.09448 15.4927C9.09448 16.8476 10.6232 17.9511 12.5075 17.9511C12.7008 17.9496 12.8938 17.9361 13.0854 17.9107C13.0591 18.1022 13.0446 18.2952 13.0421 18.4885C13.0421 20.3749 14.1431 21.9031 15.5014 21.9031C16.8597 21.9031 17.9607 20.3778 17.9607 18.4885Z" fill="#B9000B" stroke="white" stroke-width="0.75" stroke-linecap="round" stroke-linejoin="round"/>
<path d="M15.5852 29.3331C15.1093 29.8567 14.5293 30.2753 13.8825 30.5623C13.2356 30.8493 12.536 30.9984 11.8283 31C11.1524 30.9996 10.4832 30.8662 9.85891 30.6072C9.2346 30.3483 8.66742 29.969 8.18976 29.491C7.71209 29.013 7.33329 28.4456 7.07498 27.8212C6.81668 27.1969 6.68392 26.5278 6.6843 25.8521C6.69057 25.2671 6.79409 24.6872 6.99063 24.1361C6.40583 24.3727 5.78062 24.4933 5.14976 24.4915C4.11732 24.4936 3.10825 24.1843 2.25452 23.6039C1.40079 23.0235 0.742124 22.1991 0.364664 21.2385C-0.0127959 20.2778 -0.0914859 19.2257 0.138884 18.2197C0.369254 17.2136 0.897962 16.3005 1.65587 15.5997C0.892021 14.899 0.358074 13.9837 0.124178 12.9741C-0.109719 11.9644 -0.0326233 10.9077 0.345336 9.9427C0.723294 8.97769 1.38444 8.14953 2.2419 7.56704C3.09937 6.98455 4.11305 6.67496 5.14976 6.67896C5.73257 6.68462 6.30979 6.79317 6.85481 6.99962C6.62442 6.40918 6.50396 5.78162 6.49935 5.14788C6.49802 4.11361 6.8096 3.10312 7.39319 2.24907C7.97677 1.39503 8.80508 0.737355 9.76935 0.362413C10.7336 -0.0125291 11.7888 -0.0872161 12.7963 0.148159C13.8038 0.383533 14.7166 0.917966 15.4147 1.68129C16.1124 0.917495 17.025 0.382622 18.0325 0.146978C19.04 -0.0886653 20.0953 -0.014049 21.0595 0.361018C22.0238 0.736086 22.852 1.39405 23.4352 2.24841C24.0184 3.10278 24.3294 4.11356 24.3272 5.14788C24.317 5.73352 24.2096 6.31341 24.0093 6.86384C24.7868 6.55825 25.6274 6.44758 26.4576 6.54152C27.2878 6.63545 28.0824 6.93112 28.7719 7.40272C29.4615 7.87431 30.025 8.50749 30.4134 9.24695C30.8018 9.98641 31.0032 10.8097 31 11.6448C31.0002 12.3515 30.853 13.0504 30.5679 13.697C30.2828 14.3436 29.866 14.9237 29.344 15.4003C30.1076 16.0999 30.6417 17.014 30.8762 18.0225C31.1107 19.031 31.0347 20.0868 30.658 21.0514C30.2814 22.0159 29.6218 22.844 28.7658 23.427C27.9098 24.01 26.8975 24.3207 25.8617 24.3181C25.2752 24.3148 24.6939 24.2072 24.1451 24.0004C24.3755 24.5908 24.496 25.2184 24.5006 25.8521C24.5048 26.8876 24.1954 27.9001 23.6129 28.7564C23.0304 29.6127 22.2022 30.2727 21.2373 30.6494C20.2724 31.0262 19.216 31.1021 18.2071 30.8671C17.1983 30.6322 16.2842 30.0974 15.5852 29.3331Z" fill="#B9000B"/>
<path d="M1.38989 19.3551C1.38981 18.8386 1.49745 18.3279 1.70594 17.8553C1.91443 17.3828 2.21919 16.9589 2.60076 16.6107L3.69315 15.5996L2.60076 14.5799C2.04698 14.0674 1.66042 13.4002 1.49141 12.665C1.32241 11.9298 1.3788 11.1608 1.65324 10.4581C1.92768 9.75543 2.40745 9.15165 3.03006 8.72542C3.65267 8.29918 4.38926 8.07025 5.14388 8.06845C5.56408 8.0741 5.97994 8.1543 6.37209 8.30534L9.24754 9.3482L8.15805 6.50271C7.98887 6.07078 7.89975 5.61168 7.89507 5.14785C7.89507 4.15183 8.29088 3.19662 8.99543 2.49233C9.69998 1.78804 10.6556 1.39237 11.6519 1.39237C12.1679 1.3925 12.6781 1.49992 13.1502 1.70781C13.6224 1.91569 14.0461 2.21949 14.3945 2.5999L15.4146 3.69766L16.4318 2.5999C16.7795 2.21679 17.2031 1.91027 17.6758 1.69988C18.1485 1.48949 18.6598 1.37984 19.1773 1.37793C20.1736 1.37793 21.1292 1.77359 21.8338 2.47788C22.5383 3.18217 22.9341 4.13739 22.9341 5.1334C22.9233 5.56658 22.8412 5.99502 22.6914 6.4016L21.7319 9.22687L24.5091 8.16089C25.076 7.9357 25.6896 7.85312 26.2959 7.92041C26.9022 7.98771 27.4827 8.20282 27.9864 8.54685C28.49 8.89088 28.9015 9.35329 29.1845 9.89346C29.4676 10.4336 29.6136 11.035 29.6098 11.6448C29.6125 12.1603 29.5066 12.6705 29.299 13.1424C29.0913 13.6142 28.7866 14.0371 28.4047 14.3834L27.2921 15.4003L28.3989 16.4258C28.7805 16.774 29.0853 17.1979 29.2938 17.6704C29.5023 18.143 29.6099 18.6538 29.6098 19.1702C29.6098 20.1662 29.214 21.1214 28.5094 21.8257C27.8049 22.53 26.8493 22.9257 25.8529 22.9257C25.4281 22.922 25.0073 22.8428 24.6103 22.6917L21.7608 21.6662L22.8445 24.5088C23.0155 24.9413 23.1056 25.4015 23.1104 25.8665C23.1145 26.6226 22.8892 27.3621 22.4642 27.9875C22.0392 28.6129 21.4345 29.0947 20.7298 29.3695C20.0252 29.6442 19.2538 29.6989 18.5174 29.5264C17.781 29.3538 17.1143 28.9621 16.6052 28.4029L15.5764 27.282L14.5592 28.3942C14.2134 28.7777 13.7908 29.0841 13.3188 29.2937C12.8468 29.5032 12.336 29.6111 11.8196 29.6104C10.8232 29.6104 9.86759 29.2148 9.16304 28.5105C8.45849 27.8062 8.06268 26.851 8.06268 25.855C8.0691 25.4224 8.14723 24.9938 8.29387 24.5868L9.29378 21.6662L6.45878 22.8506C6.04346 23.0205 5.59841 23.106 5.14966 23.1019C4.15427 23.1027 3.19927 22.7085 2.49434 22.006C1.78941 21.3035 1.39219 20.3501 1.38989 19.3551Z" fill="white"/>
<path d="M5.20184 18.3123C5.20134 17.9356 5.27948 17.5631 5.43125 17.2183C5.58303 16.8736 5.8051 16.5644 6.08326 16.3103L6.88087 15.5737L6.08904 14.8284C5.6818 14.456 5.39686 13.9691 5.27168 13.4317C5.1465 12.8944 5.18696 12.3318 5.38773 11.8178C5.58849 11.3039 5.94017 10.8628 6.3965 10.5524C6.85283 10.2421 7.39244 10.0771 7.94436 10.0791C8.25087 10.0837 8.55416 10.1424 8.84023 10.2524L10.9296 11.0122L10.1349 8.93803C10.0107 8.62224 9.94508 8.28647 9.94128 7.94717C9.9409 7.58628 10.0117 7.22887 10.1497 6.89538C10.2877 6.56189 10.4901 6.25889 10.7454 6.0037C11.0007 5.74852 11.3038 5.54617 11.6374 5.40824C11.971 5.27031 12.3286 5.19951 12.6896 5.19989C13.0672 5.20086 13.4405 5.28078 13.7854 5.43451C14.1303 5.58824 14.4392 5.81238 14.6923 6.09254L15.4379 6.89274L16.1835 6.09832C16.4361 5.81788 16.7444 5.59316 17.0887 5.43847C17.433 5.28378 17.8058 5.20253 18.1833 5.19989C18.9104 5.20066 19.6075 5.48974 20.1217 6.0037C20.6359 6.51767 20.925 7.21453 20.9258 7.94139C20.9178 8.25827 20.8573 8.57163 20.7466 8.8687L20.0473 10.9198L22.0702 10.1427C22.3846 10.0169 22.7199 9.95122 23.0586 9.94912C23.7834 9.94989 24.4783 10.2381 24.9908 10.7504C25.5034 11.2627 25.7916 11.9574 25.7924 12.682C25.7959 13.0568 25.7205 13.4283 25.5712 13.7722C25.4218 14.116 25.2018 14.4247 24.9254 14.6781L24.1018 15.4292L24.9081 16.1774C25.1869 16.4318 25.4095 16.7414 25.5618 17.0866C25.714 17.4318 25.7926 17.805 25.7924 18.1823C25.7924 18.9076 25.5046 19.6033 24.992 20.1167C24.4795 20.6302 23.7841 20.9194 23.0586 20.9209C22.7493 20.9183 22.443 20.8606 22.154 20.7504L20.0675 19.9907L20.8593 22.0649C20.9824 22.3799 21.047 22.7147 21.0501 23.0528C21.0527 23.6042 20.888 24.1433 20.5779 24.5992C20.2677 25.0551 19.8266 25.4064 19.3128 25.6066C18.7989 25.8068 18.2363 25.8466 17.6994 25.7208C17.1624 25.5949 16.6762 25.3094 16.3048 24.9017L15.5564 24.0957L14.8137 24.9046C14.5619 25.1846 14.2539 25.4086 13.9099 25.5619C13.5659 25.7152 13.1934 25.7944 12.8167 25.7943C12.0904 25.792 11.3946 25.5018 10.8821 24.9873C10.3695 24.4728 10.0821 23.776 10.0829 23.05C10.0879 22.7347 10.1445 22.4225 10.2505 22.1255L10.9816 20.0051L8.91248 20.8718C8.60975 20.9949 8.28561 21.0567 7.95881 21.0538C7.59744 21.0557 7.23926 20.9862 6.90485 20.8492C6.57044 20.7123 6.2664 20.5107 6.01021 20.2559C5.75401 20.0012 5.5507 19.6983 5.41197 19.3647C5.27325 19.0312 5.20183 18.6735 5.20184 18.3123Z" fill="#B9000B"/>
<path d="M17.9607 18.4885C17.9582 18.2952 17.9437 18.1022 17.9174 17.9107C18.109 17.9361 18.302 17.9496 18.4953 17.9511C20.3796 17.9511 21.9083 16.8505 21.9083 15.4927C21.9083 14.135 20.3796 13.0372 18.4953 13.0372C18.302 13.0388 18.109 13.0523 17.9174 13.0777C17.9437 12.8862 17.9582 12.6932 17.9607 12.4999C17.9607 10.6135 16.8597 9.08533 15.5014 9.08533C14.1431 9.08533 13.0421 10.6135 13.0421 12.4999C13.0446 12.6932 13.0591 12.8862 13.0854 13.0777C12.8938 13.0523 12.7008 13.0388 12.5075 13.0372C10.6232 13.0372 9.09448 14.1379 9.09448 15.4927C9.09448 16.8476 10.6232 17.9511 12.5075 17.9511C12.7008 17.9496 12.8938 17.9361 13.0854 17.9107C13.0591 18.1022 13.0446 18.2952 13.0421 18.4885C13.0421 20.3749 14.1431 21.9031 15.5014 21.9031C16.8597 21.9031 17.9607 20.3778 17.9607 18.4885Z" fill="#B9000B" stroke="white" stroke-width="0.75" stroke-linecap="round" stroke-linejoin="round"/>
</svg>
