<svg width="123" height="12" viewBox="0 0 123 12" fill="none" xmlns="http://www.w3.org/2000/svg">
<path d="M15.4375 10.0625V11.6875H0.5625V10.0625H6.625V8.75H1.875V7.125H6.625V6.25H1.5V4.5625H14.5V6.25H9.25V7.125H14.125V8.75H12.5625C12.9375 9 13.2708 9.27083 13.5625 9.5625L12.875 10.0625H15.4375ZM15.125 1.9375V4.375H12.5625V3.625H3.4375V4.375H0.875V1.9375H6.75C6.66667 1.77083 6.5625 1.52083 6.4375 1.1875C6.39583 1.02083 6.35417 0.895833 6.3125 0.8125L9.25 0.625C9.41667 1.29167 9.54167 1.72917 9.625 1.9375H15.125ZM10.3125 9.3125L11.0625 8.75H9.25V10.0625H11.125C10.875 9.8125 10.6042 9.5625 10.3125 9.3125ZM16.375 7.1875C17.0833 6.39583 17.6667 5.5 18.125 4.5H16.6875V2.8125H18.25V0.8125H20.5625V2.8125H22V4.5H20.5625V5.9375L20.9375 5.5625C21.0625 5.64583 21.25 5.77083 21.5 5.9375C21.9167 6.22917 22.2292 6.4375 22.4375 6.5625V1.375H30.9375V12H28.5625V11.5H24.8125V12H22.4375V7.3125L21.625 8.3125C21.5417 8.22917 21.4375 8.125 21.3125 8C21.1875 7.875 20.9375 7.6875 20.5625 7.4375V12H18.25V7.875C17.8333 8.54167 17.375 9.1875 16.875 9.8125C16.6667 8.5625 16.5 7.6875 16.375 7.1875ZM24.8125 3.0625V4.25H28.5625V3.0625H24.8125ZM24.8125 8.625V9.8125H28.5625V8.625H24.8125ZM24.8125 5.8125V7H28.5625V5.8125H24.8125ZM46.875 3V4.8125H41.9375V6.4375H46.25V8.25H41.9375V9.9375H47.5V11.75H33V9.9375H39.25V8.25H34.125V6.4375H35C34.875 6.39583 34.6667 6.29167 34.375 6.125C33.6667 5.75 33.1458 5.47917 32.8125 5.3125C33.8542 4.14583 34.625 2.79167 35.125 1.25L37.6875 1.6875C37.5625 2.1875 37.3958 2.625 37.1875 3H39.25V0.875H41.9375V3H46.875ZM36.25 4.8125C35.9583 5.35417 35.5833 5.89583 35.125 6.4375H39.25V4.8125H36.25ZM60.25 0.75V1.8125H63.4375V3.5H60.25V4.1875H57.75V3.5H54.25V4.125H52.375L54.4375 5C53.9375 5.5 53.4792 6 53.0625 6.5V12H50.5625V8.625C50.1875 8.95833 49.7708 9.25 49.3125 9.5C49.2292 9.29167 49.0208 8.89583 48.6875 8.3125C48.5208 7.9375 48.3958 7.66667 48.3125 7.5C49.9375 6.45833 51.2292 5.33333 52.1875 4.125H51.75V3.5H48.5625V1.8125H51.75V0.8125H54.25V1.8125H57.75V0.75H60.25ZM58.25 4.5V6.25C59.4167 5.70833 60.5833 5.125 61.75 4.5L63.125 5.9375C61.5833 6.85417 59.9583 7.66667 58.25 8.375V9.4375C58.25 9.89583 58.4792 10.125 58.9375 10.125H60.25C60.625 10.125 60.875 9.875 61 9.375C61.125 9 61.2083 8.45833 61.25 7.75C61.4583 7.79167 61.8333 7.89583 62.375 8.0625C63 8.22917 63.4167 8.33333 63.625 8.375C63.5 9.125 63.375 9.77083 63.25 10.3125C62.9583 11.3542 62.2083 11.8542 61 11.8125H58.125C56.4167 11.8542 55.6042 11.1667 55.6875 9.75V9.3125C55.1875 9.47917 54.625 9.66667 54 9.875C53.9167 9.70833 53.7917 9.45833 53.625 9.125C53.4167 8.70833 53.25 8.35417 53.125 8.0625C53.2917 8.02083 53.5208 7.9375 53.8125 7.8125C54.2708 7.6875 54.8958 7.47917 55.6875 7.1875V4.5H58.25ZM73.625 7.8125H70.375V5.375H73.625V7.8125ZM93.3125 11.875H90.1875V7.625H84.1875V11.875H81.0625V1.5H84.1875V5.625H90.1875V1.5H93.3125V11.875ZM95.3125 7.375V1.5H98.4375V7.375C98.4792 9.125 99.5208 10.0208 101.562 10.0625C103.521 10.0625 104.5 9.16667 104.5 7.375V1.5H107.688V7.3125C107.688 10.4375 105.583 12 101.375 12C97.375 12 95.3542 10.4583 95.3125 7.375ZM122.625 11.875H119.188L118.188 9.5625H112.938L111.938 11.875H108.562L113.688 1.5H117.438L122.625 11.875ZM117.625 7.75L115.875 4.25C115.75 3.91667 115.646 3.60417 115.562 3.3125H115.5C115.458 3.64583 115.354 3.95833 115.188 4.25L113.625 7.75H117.625Z" fill="black"/>
</svg>
