<svg width="33" height="32" viewBox="0 0 33 32" fill="none" xmlns="http://www.w3.org/2000/svg">
<path d="M20.7435 26.6981C18.5236 26.6801 16.8174 25.5841 16.0469 23.8199C15.2338 25.5634 13.4972 26.6072 11.2808 26.5813C11.1652 26.5785 11.0497 26.5756 10.928 26.5654C10.1771 26.5359 9.44182 26.3425 8.77366 25.9986C8.1055 25.6548 7.52067 25.1689 7.06021 24.5751C6.63383 23.9771 6.34202 23.2939 6.20484 22.5724C6.06766 21.8509 6.08836 21.1083 6.26551 20.3955C4.04092 19.0492 2.96679 16.7626 3.47966 14.3907C3.75247 13.2396 4.36111 12.1955 5.22832 11.3909C6.09554 10.5863 7.18224 10.0575 8.35051 9.8716C8.50844 8.33703 9.21907 6.91226 10.3499 5.86294C11.9764 4.3909 14.1076 3.60226 16.3005 3.66092C18.493 3.65566 20.6031 4.49542 22.1925 6.00568C23.2985 7.08947 23.9701 8.54014 24.0811 10.0846C25.2446 10.3002 26.3179 10.8564 27.1649 11.6827C28.0119 12.5091 28.5944 13.5683 28.8386 14.7262C29.2917 17.1107 28.1533 19.3731 25.9061 20.6603C26.0662 21.3772 26.0686 22.1203 25.9131 22.8382C25.7576 23.5561 25.448 24.2316 25.0056 24.818C24.5308 25.4 23.9346 25.8711 23.2586 26.1983C22.5826 26.5255 21.8432 26.7009 21.0923 26.7123C20.974 26.6942 20.859 26.7009 20.7435 26.6981Z" fill="white"/>
<path d="M23.409 20.3412C23.5936 20.7819 23.6826 21.2568 23.6702 21.7345C23.6577 22.2122 23.544 22.6817 23.3367 23.1122C23.0836 23.6303 22.6835 24.0622 22.1862 24.354C21.6889 24.6458 21.1167 24.7844 20.541 24.7526L20.5134 24.7408C19.8772 24.7468 19.2533 24.5659 18.719 24.2205C18.1848 23.8751 17.7636 23.3805 17.5079 22.798C17.3684 22.4238 17.3097 22.0242 17.3357 21.6257C17.3618 21.2272 17.4719 20.8386 17.6589 20.4857C18.0621 19.7527 18.8387 19.4553 19.3509 19.8617C19.4155 19.9583 19.4646 20.0644 19.4962 20.1762C18.6177 19.9816 17.8937 21.5718 18.4457 22.6258C18.6388 23.011 18.9367 23.3339 19.3053 23.5573C19.6738 23.7806 20.098 23.8953 20.5288 23.8881C22.8157 23.9349 23.3112 21.2333 22.0824 19.9498C24.9551 19.2624 26.6443 13.9952 21.4164 12.6825C21.0615 10.1346 19.1093 7.95706 16.2492 7.90731C14.9321 7.87747 13.6557 8.36423 12.6928 9.26347C11.7788 10.1445 11.1757 11.2986 10.9743 12.552C5.70809 13.7352 7.2588 19.0376 10.1198 19.7929C8.86106 21.051 9.28924 23.7658 11.5779 23.776C12.0092 23.7926 12.4366 23.688 12.8115 23.474C13.1864 23.2601 13.4938 22.9453 13.6988 22.5654C14.2705 21.5264 13.5823 19.9189 12.7003 20.0917C12.7311 19.987 12.7743 19.8864 12.8288 19.7919C13.3666 19.3874 14.1318 19.7156 14.534 20.4438C14.7098 20.8019 14.8091 21.1927 14.8255 21.5914C14.8419 21.99 14.7751 22.3876 14.6292 22.7589C14.3611 23.3386 13.9289 23.827 13.3862 24.1636C12.8434 24.5002 12.2138 24.6703 11.5754 24.6529L11.5517 24.6427C10.975 24.6577 10.4065 24.5038 9.91622 24.1997C9.42593 23.8957 9.03529 23.4549 8.79239 22.9316C8.59567 22.4908 8.4941 22.0135 8.49432 21.5308C8.49454 21.048 8.59654 20.5708 8.79366 20.1302C7.46725 19.2811 6.06504 17.3675 6.08856 15.701C6.11558 13.6018 7.42173 12.0698 10.1872 11.8175C10.2079 11.003 10.4013 10.2023 10.7548 9.46829C11.1082 8.73427 11.6136 8.08372 12.2373 7.55971C13.397 6.6674 14.83 6.20436 16.2925 6.24933C19.2382 6.28445 22.0888 8.07672 22.2524 11.9529C25.0047 12.2647 26.2661 13.8424 26.2408 15.9377C26.2083 17.647 24.7611 19.5295 23.409 20.3412Z" fill="black"/>
<path d="M22.0785 19.9481C23.3073 21.2317 22.8135 23.9293 20.5249 23.8865C20.0941 23.8936 19.6699 23.7789 19.3014 23.5556C18.9328 23.3323 18.6348 23.0094 18.4418 22.6241C17.8897 21.5701 18.6138 19.9799 19.4923 20.1746C19.6989 20.8797 19.4739 21.7311 19.9201 22.0953C20.3664 22.4595 21.3106 21.4448 20.4398 19.5442C21.1467 19.4714 21.8037 19.1465 22.2906 18.629C22.7775 18.1115 23.0619 17.4359 23.0915 16.726C23.0724 15.9423 22.7478 15.1972 22.187 14.6495C21.6261 14.1019 20.8735 13.7951 20.0896 13.7947C20.1183 13.7276 20.1178 13.6527 20.1195 13.5834C20.1409 11.5517 18.3847 9.86456 16.2223 9.84317C14.0599 9.82177 12.2651 11.4478 12.2365 13.4856C12.2396 13.5573 12.2464 13.6287 12.2567 13.6997C11.4722 13.6767 10.7098 13.9615 10.1327 14.4934C9.55548 15.0252 9.20933 15.7617 9.16824 16.5455C9.18046 17.2563 9.44836 17.939 9.92287 18.4684C10.3974 18.9978 11.0467 19.3385 11.752 19.4282C10.8295 21.3069 11.722 22.3621 12.2022 21.9936C12.6824 21.6252 12.4561 20.7809 12.6806 20.0833C13.5626 19.9105 14.2509 21.5179 13.6791 22.557C13.4746 22.9317 13.1702 23.2423 12.7998 23.4544C12.4294 23.6665 12.0074 23.7718 11.5807 23.7585C9.2921 23.7484 8.86391 21.0336 10.1227 19.7755C7.27124 19.0196 5.71489 13.7195 10.9771 12.5345C11.1786 11.2811 11.7817 10.1271 12.6957 9.24604C13.6585 8.3468 14.935 7.86004 16.2521 7.88988C19.1172 7.92779 21.0643 10.1171 21.4193 12.6651C26.6403 13.9936 24.9512 19.2607 22.0785 19.9481Z" fill="black"/>
<path d="M24.8517 20.1894C25.7853 23.3918 23.8353 25.7171 21.0615 25.8257C18.2876 25.9344 16.7704 24.1255 16.5731 22.1356C16.3578 20.0351 17.7405 18.8582 18.7982 19.3538C19.0389 19.4584 19.2387 19.6393 19.3667 19.8685C18.8612 19.4463 18.0671 19.7408 17.655 20.484C17.4701 20.8387 17.3614 21.2281 17.3357 21.6273C17.3101 22.0264 17.3682 22.4265 17.5062 22.8019C17.7574 23.3874 18.1743 23.8866 18.7056 24.2381C19.2369 24.5896 19.8594 24.778 20.4965 24.7802L20.5202 24.7904C21.0958 24.8203 21.6676 24.6811 22.1651 24.3899C22.6626 24.0987 23.064 23.6683 23.3198 23.1517C23.5237 22.7202 23.6355 22.2509 23.648 21.7738C23.6604 21.2967 23.5732 20.8222 23.392 20.3807C24.7476 19.561 26.1913 17.6864 26.194 16.025C26.2193 13.9297 24.9641 12.3594 22.196 12.0408C22.1946 11.2282 22.021 10.425 21.6866 9.68437C21.3523 8.9437 20.8648 8.28229 20.2562 7.74374C19.1202 6.81995 17.698 6.32063 16.2338 6.33158C14.7713 6.28661 13.3384 6.74966 12.1787 7.64197C11.5549 8.16597 11.0496 8.81652 10.6961 9.55054C10.3427 10.2846 10.1492 11.0853 10.1285 11.8997C7.40424 12.0996 6.09302 13.6435 6.05811 15.7393C6.03966 17.3939 7.44188 19.3076 8.76321 20.1685C8.56609 20.6091 8.46409 21.0863 8.46387 21.5691C8.46365 22.0518 8.56522 22.5291 8.76195 22.9699C9.00696 23.4937 9.40016 23.9341 9.8929 24.2368C10.3856 24.5394 10.9563 24.6909 11.5342 24.6726L11.5579 24.6827C12.1968 24.7011 12.8271 24.5316 13.3706 24.1953C13.9142 23.8589 14.3471 23.3705 14.6157 22.7905C14.7615 22.4192 14.8284 22.0215 14.812 21.6229C14.7956 21.2243 14.6963 20.8335 14.5205 20.4754C14.1318 19.7156 13.3666 19.3874 12.8401 19.7874C12.9701 19.5604 13.1712 19.3824 13.4122 19.2809C14.4803 18.805 15.828 20.0181 15.5643 22.1139C15.3097 24.1015 13.8056 25.8662 10.9749 25.6936C8.14421 25.521 6.30873 23.1367 7.32675 19.968C2.29421 17.5576 3.91327 10.9948 9.26154 10.6219C9.15367 7.07314 12.4359 4.48328 16.2861 4.53271C20.1364 4.58215 23.3593 7.24859 23.1639 10.8074C28.5075 11.3058 29.957 17.9004 24.8517 20.1894Z" fill="black"/>
<path d="M22.014 16.6468C22.0198 17.0466 21.9155 17.4404 21.7126 17.7849C21.5096 18.1295 21.2158 18.4116 20.8633 18.6004C20.6056 18.7293 20.3205 18.7941 20.0323 18.7892C19.7441 18.7843 19.4614 18.7099 19.2082 18.5723C19.1376 18.5374 19.0652 18.5063 18.9912 18.4793C19.2524 18.5209 19.5199 18.4706 19.7481 18.3369C20.0228 18.1802 20.25 17.9523 20.4058 17.6772C20.5616 17.402 20.6402 17.0899 20.6333 16.7738C20.6249 16.5377 20.57 16.3056 20.4718 16.0907C20.3736 15.8758 20.234 15.6823 20.061 15.5214C19.888 15.3605 19.685 15.2352 19.4636 15.1528C19.2422 15.0703 19.0067 15.0323 18.7706 15.041C18.6087 15.0487 18.4483 15.0755 18.2927 15.1209C18.4024 14.8653 18.4615 14.5908 18.4665 14.3128C18.4564 13.7144 18.2136 13.1435 17.7895 12.7212C17.3654 12.2989 16.7935 12.0585 16.1951 12.051C15.5967 12.0435 15.0189 12.2695 14.5844 12.6811C14.1499 13.0926 13.8928 13.6573 13.8678 14.2552C13.8647 14.5331 13.9181 14.8086 14.0249 15.0651C13.8689 15.0165 13.7077 14.9866 13.5447 14.976C13.3083 14.9616 13.0714 14.9943 12.8478 15.0721C12.6241 15.15 12.4181 15.2715 12.2417 15.4295C12.0653 15.5876 11.9221 15.7791 11.8202 15.9929C11.7184 16.2067 11.66 16.4386 11.6485 16.6752C11.6319 16.9906 11.7009 17.3047 11.8483 17.5841C11.9956 17.8636 12.2158 18.0979 12.4855 18.2624C12.7157 18.3957 12.9849 18.4452 13.2474 18.4023L13.0254 18.4845C12.7696 18.6168 12.4855 18.6847 12.1976 18.6825C11.9097 18.6802 11.6267 18.6079 11.373 18.4717C11.0243 18.276 10.7372 17.9868 10.5442 17.6366C10.3511 17.2865 10.2597 16.8893 10.2802 16.49C10.3042 16.1878 10.3876 15.8934 10.5256 15.6235C10.6636 15.3537 10.8534 15.1137 11.0843 14.9173C11.3151 14.7209 11.5824 14.5719 11.8709 14.479C12.1594 14.386 12.4634 14.3509 12.7655 14.3756C12.9755 14.3887 13.1831 14.4276 13.3837 14.4913C13.2514 14.1686 13.1854 13.8227 13.1895 13.474C13.2067 13.0912 13.2996 12.7156 13.4627 12.3688C13.6259 12.0221 13.8561 11.7112 14.1402 11.4539C14.4242 11.1967 14.7563 10.9982 15.1174 10.87C15.4786 10.7419 15.8615 10.6865 16.2441 10.7071C16.6274 10.6972 17.0089 10.7633 17.3665 10.9016C17.7241 11.0398 18.0509 11.2475 18.3279 11.5126C18.6049 11.7776 18.8267 12.0949 18.9805 12.4462C19.1343 12.7974 19.2171 13.1756 19.2241 13.5589C19.2157 13.9044 19.1424 14.2453 19.008 14.5637C19.2089 14.5024 19.4169 14.4676 19.6268 14.4601C20.2317 14.4399 20.8204 14.6575 21.2666 15.0663C21.7129 15.4751 21.9812 16.0425 22.014 16.6468Z" fill="black"/>
<path d="M20.6316 16.7777C20.6385 17.0938 20.5599 17.4059 20.4041 17.681C20.2483 17.9562 20.0211 18.1841 19.7464 18.3408C19.5182 18.4745 19.2507 18.5248 18.9895 18.4832C18.9079 18.4494 18.8226 18.4254 18.7354 18.4115C18.5972 18.3832 18.4566 18.3683 18.3155 18.3669C18.2495 18.3628 18.1832 18.3673 18.1183 18.3804C17.5309 18.4283 16.982 18.692 16.5773 19.1205C16.3944 19.3077 16.2367 19.5179 16.1083 19.746C15.996 19.5039 15.8453 19.2816 15.6621 19.0876C15.2656 18.6555 14.7254 18.3824 14.1424 18.3191C14.0777 18.3047 14.0114 18.2982 13.9451 18.2999C13.8042 18.3017 13.6635 18.3132 13.5242 18.3342C13.4343 18.3491 13.3456 18.3703 13.2587 18.3978C12.9967 18.4327 12.7306 18.3763 12.5053 18.2381C12.2356 18.0736 12.0154 17.8393 11.868 17.5599C11.7206 17.2804 11.6516 16.9664 11.6682 16.6509C11.6798 16.4143 11.7381 16.1824 11.84 15.9686C11.9418 15.7548 12.0851 15.5633 12.2614 15.4052C12.4378 15.2472 12.6438 15.1257 12.8675 15.0479C13.0912 14.97 13.3281 14.9373 13.5645 14.9517C13.7275 14.9623 13.8886 14.9922 14.0446 15.0408C13.9378 14.7843 13.8844 14.5088 13.8876 14.231C13.9126 13.633 14.1696 13.0684 14.6041 12.6568C15.0386 12.2453 15.6164 12.0193 16.2148 12.0267C16.8132 12.0342 17.3852 12.2746 17.8093 12.6969C18.2333 13.1192 18.4762 13.6901 18.4862 14.2885C18.4812 14.5666 18.4222 14.841 18.3124 15.0966C18.468 15.0512 18.6284 15.0244 18.7903 15.0167C19.027 15.011 19.2624 15.052 19.4831 15.1375C19.7039 15.223 19.9056 15.3513 20.0766 15.5149C20.2477 15.6785 20.3848 15.8743 20.48 16.091C20.5752 16.3077 20.6268 16.541 20.6316 16.7777Z" fill="black"/>
</svg>
