<svg width="27" height="27" viewBox="0 0 27 27" fill="none" xmlns="http://www.w3.org/2000/svg">
<g clip-path="url(#clip0_795_1513)">
<path d="M0 23.3029V0H23.2862V0.0366712C22.1821 2.29752 20.8908 4.46201 19.4257 6.50747C19.239 6.80417 19.0157 7.10421 18.7923 7.40091C18.1767 8.24546 17.5422 9.06557 16.8888 9.86122L15.5553 11.4114L15.4419 11.5214C14.8285 12.2115 14.1918 12.8816 13.5417 13.5217C12.8916 14.1618 12.1415 14.8818 11.4147 15.5219L9.86789 16.8554C9.12113 17.4522 8.37437 18.0489 7.59094 18.609C7.53638 18.6678 7.47348 18.7184 7.40425 18.759C7.12421 18.9623 6.82751 19.1857 6.52747 19.3724C4.48554 20.8383 2.33076 22.1403 0.0833436 23.2662C0.0666749 23.2862 0.0300037 23.2862 0 23.3029Z" fill="black"/>
<path d="M11.6449 13.3152C10.9234 12.5923 10.0164 12.0828 9.02372 11.8428C8.03106 11.6028 6.99139 11.6416 6.01941 11.955C5.04743 12.2684 4.1809 12.8442 3.51542 13.6189C2.84994 14.3936 2.41137 15.337 2.24808 16.3451C2.0848 17.3532 2.20315 18.3869 2.59007 19.332C2.977 20.2771 3.61747 21.097 4.44083 21.7012C5.26419 22.3054 6.23844 22.6704 7.25611 22.756C8.27378 22.8416 9.29531 22.6445 10.208 22.1863C10.4497 22.0703 10.6807 21.9331 10.8981 21.7762C11.0181 21.6929 11.1381 21.6029 11.2548 21.5062C11.3715 21.4095 11.5182 21.2762 11.6449 21.1528C11.7716 21.0295 11.8882 20.8961 11.9982 20.7628C12.1083 20.6294 12.1816 20.5294 12.2649 20.4061C12.4181 20.1898 12.5531 19.9612 12.6683 19.7226C13.1929 18.6826 13.3764 17.5037 13.1927 16.3534C13.0089 15.2032 12.4674 14.1401 11.6449 13.3152Z" fill="black"/>
<path d="M10.7945 14.1654C10.2298 13.6024 9.52082 13.2061 8.74545 13.02C7.97008 12.834 7.15841 12.8654 6.39977 13.111C5.64113 13.3565 4.96494 13.8066 4.44561 14.4116C3.92628 15.0167 3.58395 15.7533 3.45629 16.5404C3.32864 17.3275 3.4206 18.1346 3.72207 18.8728C4.02353 19.611 4.52281 20.2517 5.16496 20.7244C5.8071 21.1971 6.56722 21.4835 7.36165 21.5521C8.15607 21.6206 8.95402 21.4687 9.66765 21.113C9.85682 21.0174 10.0375 20.9059 10.2077 20.7796C10.3046 20.7144 10.3981 20.6443 10.4878 20.5696C10.5911 20.4829 10.6944 20.3895 10.7911 20.2929C10.8897 20.1956 10.9832 20.0932 11.0712 19.9862C11.1445 19.8962 11.2145 19.8061 11.2812 19.7095C11.4056 19.5391 11.517 19.3597 11.6146 19.1727C12.0214 18.3578 12.1611 17.4354 12.0139 16.5365C11.8667 15.6377 11.44 14.808 10.7945 14.1654Z" fill="white"/>
<path d="M13.3115 11.6485C12.5892 10.9268 12.0803 10.0197 11.8407 9.02721C11.6012 8.03468 11.6404 6.99528 11.9541 6.02362C12.2677 5.05196 12.8436 4.18579 13.6182 3.52061C14.3928 2.85543 15.3361 2.41707 16.344 2.25389C17.3519 2.0907 18.3853 2.20902 19.3302 2.59579C20.2751 2.98256 21.0949 3.62277 21.6991 4.44582C22.3033 5.26887 22.6685 6.24279 22.7544 7.26019C22.8403 8.2776 22.6436 9.29896 22.1859 10.2117C22.0692 10.4519 21.932 10.6817 21.7759 10.8984C21.6925 11.0218 21.6025 11.1418 21.5092 11.2551C21.3973 11.3914 21.2782 11.5216 21.1525 11.6452C21.0291 11.7719 20.8958 11.8885 20.7624 12.0019C20.6291 12.1152 20.5324 12.1852 20.409 12.2686C20.1912 12.42 19.9615 12.5538 19.7223 12.6686C18.6821 13.1939 17.5028 13.3781 16.352 13.195C15.2012 13.0118 14.1373 12.4707 13.3115 11.6485Z" fill="black"/>
<path d="M14.1619 10.7982C13.5993 10.2336 13.2032 9.52472 13.0174 8.74959C12.8315 7.97445 12.8631 7.16308 13.1085 6.40471C13.3539 5.64633 13.8038 4.97033 14.4085 4.45106C15.0133 3.93179 15.7495 3.58937 16.5363 3.46145C17.3231 3.33353 18.1299 3.42507 18.868 3.726C19.6061 4.02693 20.2469 4.5256 20.72 5.16716C21.193 5.80871 21.48 6.56831 21.5493 7.36239C21.6186 8.15647 21.4675 8.95429 21.1127 9.66808C21.016 9.85658 20.9045 10.0372 20.7794 10.2081C20.7131 10.3051 20.6419 10.3985 20.566 10.4882C20.4793 10.5915 20.386 10.6949 20.2893 10.7916C20.1919 10.889 20.0895 10.9813 19.9826 11.0683C19.8949 11.144 19.8025 11.2142 19.7059 11.2783C19.5363 11.4038 19.3568 11.5153 19.1692 11.6117C18.3549 12.0193 17.4329 12.1601 16.5341 12.0141C15.6352 11.8681 14.8052 11.4427 14.1619 10.7982Z" fill="white"/>
<path d="M0 27.0035V23.0363V10.9815C1.00785 10.9319 2.01505 11.0915 2.95826 11.4501C3.90147 11.8086 4.76028 12.3585 5.48068 13.0651C7.87431 15.4587 8.18768 19.2058 6.51747 22.2995C6.32971 22.661 6.11461 23.0076 5.87406 23.3363C5.74404 23.5197 5.60736 23.6964 5.46067 23.8697C5.31399 24.0431 5.1073 24.2731 4.91727 24.4631C4.72725 24.6532 4.52723 24.8265 4.33387 25.0032C4.14051 25.1799 3.98049 25.2899 3.79714 25.4199C3.4703 25.6608 3.12597 25.877 2.76701 26.0667C1.90383 26.5321 0.968401 26.8488 0 27.0035Z" fill="black"/>
<path d="M0 25.4296V23.036V12.5347C0.804271 12.4821 1.61059 12.5996 2.36648 12.8793C3.12236 13.159 3.81088 13.5948 4.38721 14.1582C6.2441 16.0018 6.55081 19.0021 5.16064 21.5691C5.00393 21.862 4.82563 22.1428 4.62724 22.4092L4.61057 22.4359C4.51389 22.5726 4.40388 22.7159 4.27719 22.8626C4.15051 23.0093 3.98383 23.196 3.82381 23.3593C3.66379 23.5227 3.49043 23.6694 3.32708 23.8127C3.16372 23.9561 3.03371 24.0528 2.89369 24.1461H2.87035C2.60852 24.3404 2.33211 24.5143 2.04359 24.6662C1.40477 25.0222 0.715783 25.2796 0 25.4296Z" fill="black"/>
<path d="M0 24.2368V23.0366V13.7021C0.651949 13.6499 1.30752 13.7378 1.92275 13.9597C2.53798 14.1816 3.09863 14.5326 3.56711 14.989C5.05396 16.4758 5.28399 18.8994 4.13718 21.0297C4.00453 21.2741 3.85527 21.5091 3.69046 21.7331L3.66712 21.7698C3.58044 21.8898 3.49043 22.0065 3.38708 22.1298C3.28374 22.2532 3.13372 22.4165 3.00037 22.5532C2.86702 22.6899 2.727 22.8133 2.58032 22.9366C2.43363 23.06 2.33362 23.1366 2.22694 23.21L2.19027 23.2366C1.97436 23.3991 1.74583 23.544 1.50685 23.67C1.03189 23.9249 0.525171 24.1154 0 24.2368Z" fill="white"/>
<path d="M0 23.0363V14.8487C0.499914 14.7981 1.00485 14.8568 1.47978 15.0209C1.95471 15.185 2.38825 15.4504 2.75034 15.7988C3.87048 16.9189 4.01716 18.7991 3.11372 20.466C3.00982 20.6643 2.89172 20.8548 2.76034 21.0361L2.73034 21.0794C2.65699 21.1828 2.58699 21.2728 2.50364 21.3728C2.4203 21.4728 2.29362 21.6095 2.17027 21.7062C2.06467 21.8164 1.95339 21.921 1.83689 22.0195C1.73021 22.1096 1.64354 22.1796 1.56686 22.2329L1.51685 22.2696C1.34361 22.3931 1.16204 22.5045 0.973453 22.603C0.664516 22.7801 0.33835 22.9253 0 23.0363Z" fill="white"/>
<path d="M0 21.8064V16.0191C0.346418 15.967 0.700106 15.9936 1.03483 16.0969C1.36956 16.2002 1.67673 16.3776 1.93357 16.6158C2.687 17.3726 2.75367 18.6994 2.09693 19.9162C2.01723 20.0679 1.927 20.2138 1.82689 20.3529L1.79022 20.3963C1.73622 20.4766 1.67721 20.5534 1.61353 20.6263C1.53352 20.7196 1.45018 20.813 1.36017 20.8997C1.27016 20.9863 1.18348 21.0697 1.09347 21.1497C1.03199 21.2034 0.967429 21.2535 0.900111 21.2997L0.843437 21.3364C0.714197 21.4326 0.578282 21.5195 0.436721 21.5964C0.29529 21.6747 0.149476 21.7449 0 21.8064Z" fill="black"/>
<path d="M27.0033 0H10.978C10.9285 1.00813 11.0884 2.01559 11.4476 2.95887C11.8068 3.90215 12.3575 4.7608 13.065 5.48068C15.4586 7.87097 19.2057 8.18768 22.3028 6.51747C22.6623 6.32942 23.0077 6.1155 23.3362 5.87739C23.5229 5.74738 23.6996 5.61069 23.873 5.46401C24.0463 5.31732 24.2763 5.11063 24.4664 4.92061C24.6564 4.73058 24.8264 4.53389 25.0031 4.33387C25.1798 4.13384 25.2931 3.98382 25.4232 3.79714C25.664 3.47144 25.8802 3.12823 26.0699 2.77034C26.5361 1.90661 26.8518 0.96976 27.0033 0Z" fill="black"/>
<path d="M25.4334 0H12.5351C12.4815 0.804369 12.5985 1.61098 12.8782 2.36703C13.158 3.12307 13.5944 3.81149 14.1587 4.38721C16.0022 6.24744 19.0026 6.55414 21.5696 5.16397C21.8645 5.00896 22.1465 4.83059 22.413 4.63057L22.4363 4.6139C22.5764 4.51722 22.7164 4.40721 22.8664 4.28053C23.0164 4.15385 23.1998 3.98383 23.3631 3.82381C23.5265 3.66379 23.6732 3.49043 23.8132 3.33041C23.9334 3.1932 24.0448 3.04844 24.1466 2.89702L24.1666 2.87035C24.3608 2.60963 24.5347 2.33434 24.6866 2.04692C25.0343 1.40481 25.2859 0.71516 25.4334 0Z" fill="black"/>
<path d="M24.2398 0H13.6919C13.6397 0.651949 13.7275 1.30752 13.9494 1.92275C14.1714 2.53798 14.5223 3.09863 14.9787 3.56711C16.4656 5.05396 18.8892 5.28065 21.0195 4.13718C21.2652 4.00381 21.5014 3.85342 21.7262 3.68712L21.7595 3.66379C21.8829 3.57711 21.9962 3.49043 22.1196 3.38708C22.2429 3.28374 22.4063 3.13372 22.543 2.99704C22.6797 2.86035 22.8063 2.72367 22.9264 2.58032C23.0464 2.43697 23.1264 2.33362 23.1997 2.22361L23.2297 2.18694C23.3899 1.976 23.5337 1.7531 23.6598 1.52019C23.9189 1.04104 24.1139 0.52994 24.2398 0Z" fill="white"/>
<path d="M23.036 0H14.8483C14.7976 0.499143 14.8559 1.00335 15.0194 1.47769C15.1829 1.95202 15.4476 2.38513 15.7951 2.74701C16.9186 3.86714 18.7955 4.01383 20.4624 3.11372C20.6611 3.00804 20.8516 2.88769 21.0324 2.75367L21.0724 2.72367C21.1791 2.65033 21.2658 2.58032 21.3658 2.50031C21.4658 2.4203 21.6058 2.29028 21.6992 2.16693C21.7925 2.04359 21.9159 1.93691 22.0125 1.83356C22.1092 1.73021 22.1726 1.6402 22.2292 1.56353L22.2626 1.51019C22.388 1.33821 22.4995 1.1565 22.5959 0.966786C22.7771 0.661371 22.9247 0.337216 23.036 0Z" fill="white"/>
<path d="M21.8062 0H16.0021C15.9516 0.345618 15.9792 0.698177 16.0831 1.03168C16.1869 1.36518 16.3643 1.67111 16.6022 1.9269C17.359 2.68366 18.6858 2.75034 19.9059 2.09359C20.0561 2.01313 20.2009 1.92292 20.3393 1.82356L20.386 1.78689C20.476 1.72355 20.5393 1.67021 20.6127 1.6102C20.686 1.55019 20.7994 1.44685 20.8894 1.35683C20.9794 1.26682 21.0594 1.18015 21.1361 1.09013C21.1898 1.02866 21.2399 0.964095 21.2861 0.896777L21.3361 0.850105C21.4323 0.720864 21.5192 0.584949 21.5961 0.443388C21.6747 0.29979 21.7448 0.151744 21.8062 0Z" fill="black"/>
<path d="M12.7951 18.3352C13.8361 18.0904 14.8917 17.9122 15.9554 17.8018C16.9156 17.6885 17.6223 17.6418 17.6223 17.6418C17.7421 16.0109 17.9805 14.3908 18.3357 12.7945C18.8658 10.6876 18.3757 5.94036 13.3985 6.82047C13.3723 7.07933 13.3311 7.33646 13.2751 7.59056C13.2418 7.76058 13.1984 7.92394 13.1518 8.08729C13.0462 8.46684 12.9067 8.83615 12.7351 9.19076C12.6784 9.31742 12.615 9.44095 12.545 9.5608C12.4378 9.76644 12.3187 9.96569 12.1883 10.1575C11.9689 10.4845 11.7237 10.7933 11.4549 11.081L11.2782 11.2677L11.0915 11.4444C10.8038 11.7131 10.495 11.9584 10.1681 12.1778C9.97621 12.3081 9.77697 12.4272 9.57133 12.5345C9.45214 12.6047 9.32853 12.667 9.20128 12.7212C8.84585 12.8945 8.47538 13.0351 8.09448 13.1412C7.93446 13.1879 7.7611 13.2279 7.60108 13.2646C7.34585 13.3197 7.08759 13.3598 6.82765 13.3846C5.93754 18.3619 10.6848 18.852 12.7951 18.3352Z" fill="black"/>
<path d="M7.58784 13.2651C7.75786 13.2284 7.92122 13.1884 8.08124 13.1418C7.94789 14.4753 9.23138 16.0254 10.6582 16.3355C13.0252 16.8522 15.3555 15.3587 15.3555 15.3587C15.3555 15.3587 16.8523 13.0251 16.3356 10.6681C16.0256 9.24128 14.472 7.95778 13.1385 8.09447C13.1852 7.93111 13.2285 7.76109 13.2619 7.59774C16.3023 7.26436 18.1291 10.5414 17.3157 13.2018C16.949 14.2754 16.6746 15.3785 16.4956 16.4988C15.3755 16.6773 14.2725 16.9506 13.1985 17.3156C10.5349 18.1257 7.2478 16.3021 7.58784 13.2651Z" fill="white"/>
<path d="M8.08084 13.1414C8.46175 13.0352 8.83221 12.8946 9.18764 12.7213C9.18764 13.6581 10.1244 14.7549 11.1279 15.0149C12.8348 15.4516 14.4616 14.4549 14.4616 14.4549C14.4616 14.4549 15.4617 12.8347 15.025 11.1211C14.765 10.121 13.6682 9.17753 12.7314 9.18087C12.9031 8.82626 13.0425 8.45695 13.1481 8.0774C14.4816 7.94071 16.0352 9.2242 16.3452 10.651C16.8619 13.0147 15.3651 15.3483 15.3651 15.3483C15.3651 15.3483 13.0248 16.8518 10.6678 16.3351C9.23098 16.025 7.94749 14.4749 8.08084 13.1414Z" fill="black"/>
<path d="M9.188 12.7218C9.31525 12.6677 9.43885 12.6053 9.55804 12.5352C9.65749 12.8907 9.84494 13.2154 10.1031 13.4794C10.3612 13.7433 10.6817 13.938 11.0349 14.0453C12.3517 14.3787 13.6085 13.612 13.6085 13.612C13.6085 13.612 14.3853 12.3551 14.0453 11.0383C13.9368 10.6851 13.7413 10.3648 13.4769 10.1068C13.2125 9.84876 12.8875 9.66125 12.5317 9.56145C12.6017 9.4416 12.6651 9.31807 12.7218 9.19141C13.6585 9.19141 14.7554 10.1282 15.0154 11.1316C15.4521 12.8352 14.452 14.4654 14.452 14.4654C14.452 14.4654 12.8351 15.4655 11.1182 15.0255C10.1248 14.7554 9.18466 13.6686 9.188 12.7218Z" fill="black"/>
<path d="M9.55762 12.5352C9.76326 12.428 9.9625 12.3088 10.1544 12.1785C10.2278 12.4032 10.3543 12.6069 10.5232 12.7723C10.692 12.9377 10.8983 13.0599 11.1245 13.1286C11.7115 13.2453 12.3209 13.1433 12.838 12.8419C13.1399 12.3238 13.243 11.7136 13.1281 11.125C13.0581 10.8994 12.9349 10.6938 12.769 10.5256C12.6031 10.3574 12.3993 10.2314 12.1746 10.1583C12.3049 9.96641 12.424 9.76716 12.5313 9.56152C12.8871 9.66132 13.212 9.84884 13.4765 10.1069C13.7409 10.3649 13.9363 10.6852 14.0448 11.0384C14.3782 12.3719 13.6081 13.612 13.6081 13.612C13.6081 13.612 12.3513 14.3855 11.0345 14.0454C10.6812 13.9381 10.3608 13.7434 10.1026 13.4795C9.84451 13.2155 9.65707 12.8908 9.55762 12.5352Z" fill="black"/>
<path d="M10.1548 12.1785C10.4817 11.9591 10.7905 11.7138 11.0782 11.445L11.2649 11.2683L11.4416 11.0817C11.7104 10.7939 11.9556 10.4851 12.175 10.1582C12.3997 10.2313 12.6036 10.3573 12.7695 10.5255C12.9354 10.6937 13.0585 10.8993 13.1285 11.125C13.2434 11.7135 13.1403 12.3237 12.8384 12.8419C12.3214 13.1432 11.7119 13.2452 11.1249 13.1286C10.8987 13.0599 10.6925 12.9376 10.5236 12.7722C10.3547 12.6068 10.2282 12.4031 10.1548 12.1785Z" fill="white"/>
<path d="M0 17.7184V16.4649C0.868264 16.5561 1.74441 16.3952 2.52364 16.0015C2.71843 15.9066 2.90469 15.795 3.08038 15.6682C3.17706 15.6015 3.27707 15.5248 3.37042 15.4481C3.46376 15.3715 3.58378 15.2614 3.70379 15.1614C3.82381 15.0614 3.90048 14.9514 3.99049 14.8281C4.0805 14.7047 4.14051 14.6414 4.21052 14.5413C4.28053 14.4413 4.29386 14.4247 4.33053 14.3613C4.73415 14.5077 5.14602 14.6301 5.56402 14.728C5.46245 14.9106 5.35117 15.0875 5.23065 15.2581C5.14397 15.3848 5.05062 15.5048 4.95061 15.6248C4.83554 15.7667 4.71314 15.9024 4.5839 16.0315C4.45388 16.1582 4.3172 16.2849 4.17718 16.3982C4.05958 16.499 3.93601 16.5925 3.80714 16.6783C3.58194 16.8406 3.34326 16.9834 3.09372 17.105C2.13962 17.5933 1.06822 17.8057 0 17.7184Z" fill="black"/>
<path d="M0 8.07427V6.81078C0.0900111 6.75411 0.173355 6.68743 0.256698 6.62409C0.340042 6.56075 0.443388 6.45741 0.530065 6.37073C0.616743 6.28405 0.70342 6.18737 0.786764 6.09403C0.870107 6.00068 0.913446 5.92734 0.973454 5.84066C1.09048 5.68051 1.19417 5.51104 1.28349 5.33393C1.37102 5.15731 1.44567 4.97459 1.50685 4.7872C1.60754 4.47829 1.66914 4.15797 1.69021 3.83375C1.7192 3.45388 1.6911 3.07182 1.60687 2.70028C1.5802 2.58359 1.55019 2.46691 1.51352 2.3669C1.4282 2.10725 1.31649 1.85702 1.18015 1.62014C1.25349 1.55347 1.32683 1.48346 1.40017 1.41012C1.46685 1.34344 1.53019 1.27343 1.59686 1.20342L1.73355 1.0434C1.80022 0.963394 1.8669 0.876716 1.93024 0.790039C2.0467 0.961665 2.1514 1.14099 2.24361 1.32677C2.27695 1.39678 2.31362 1.46346 2.34362 1.53346C2.51548 1.92011 2.63866 2.32661 2.71033 2.74361C2.77085 3.0969 2.7932 3.45568 2.77701 3.81375C2.76057 4.13988 2.71256 4.46366 2.63366 4.78053C2.57212 5.03798 2.48961 5.28997 2.38696 5.53396C2.34362 5.6373 2.29695 5.74398 2.24361 5.84733C2.13651 6.06399 2.01162 6.27139 1.87023 6.46741C1.79355 6.58075 1.71354 6.6841 1.6302 6.80078C1.54686 6.91746 1.43351 7.00081 1.3335 7.12749C1.23349 7.25417 1.10014 7.34752 0.980121 7.46086C0.860106 7.57421 0.766761 7.62422 0.646747 7.70423C0.448099 7.84129 0.238472 7.96171 0.0200025 8.06427L0 8.07427Z" fill="black"/>
<path d="M0.766602 1.94994C0.766602 1.94994 0.766602 1.94994 0.786604 1.94994C0.866614 1.89326 0.94329 1.82992 1.0233 1.76992L1.18332 1.63323C1.25666 1.56656 1.33 1.49655 1.40335 1.42321C1.47002 1.35653 1.53336 1.28652 1.60004 1.21651C1.83625 1.35415 2.08662 1.46592 2.3468 1.54989C2.45605 1.58735 2.56735 1.61852 2.68017 1.64323C3.05494 1.72855 3.4403 1.75776 3.82365 1.72991C4.14713 1.70934 4.46654 1.64657 4.77376 1.54322C4.96702 1.47278 5.15431 1.38694 5.33383 1.28652C5.50407 1.20523 5.66693 1.1093 5.82056 0.999821C5.91057 0.939813 5.99391 0.876472 6.07392 0.813131C6.15393 0.74979 6.26395 0.646444 6.35396 0.556433C6.44397 0.466422 6.52398 0.37641 6.60399 0.279732C6.67286 0.199571 6.73634 0.11493 6.79401 0.0263672H8.06084V0.0430359C7.95426 0.261039 7.82935 0.469593 7.68746 0.666446C7.61078 0.77646 7.53077 0.88314 7.44743 0.999821C7.36408 1.1165 7.23407 1.23985 7.11405 1.34986C6.99404 1.45988 6.88069 1.57323 6.76068 1.68324C6.64066 1.79325 6.54732 1.84659 6.4273 1.92327C6.23003 2.06274 6.02278 2.18754 5.80722 2.29665C5.70721 2.34665 5.60053 2.39333 5.49385 2.43667C5.25746 2.53394 5.01322 2.61089 4.76376 2.66669C4.44405 2.74738 4.11655 2.79321 3.78697 2.80338C3.43123 2.8222 3.0745 2.80096 2.72351 2.74004C2.30542 2.66778 1.89859 2.54114 1.51336 2.36332L1.3 2.25998C1.11575 2.16815 0.937584 2.06459 0.766602 1.94994Z" fill="black"/>
<path d="M1.25682 11.4314C1.18015 11.3547 1.1068 11.2781 1.03679 11.1981C0.628374 10.7591 0.279757 10.2681 0 9.73787L0 9.30782C0.230258 8.95781 0.49494 8.6317 0.790098 8.33436C1.55405 7.57268 2.50405 7.02421 3.54567 6.74348C4.58729 6.46275 5.68425 6.45954 6.7275 6.73417C6.45439 5.69031 6.459 4.59317 6.74087 3.55165C7.02274 2.51012 7.57208 1.56041 8.33436 0.796765C8.63033 0.499461 8.95533 0.232542 9.30448 0L9.73454 0C10.3591 0.330003 10.93 0.752617 11.4281 1.25349C12.187 2.00942 12.7667 2.92599 13.1244 3.93567C13.4821 4.94535 13.6088 6.02242 13.495 7.08754C13.4685 7.34066 13.4285 7.59216 13.375 7.84097C13.3416 8.00432 13.3016 8.17434 13.255 8.32436C13.1507 8.69435 13.0146 9.05462 12.8483 9.40116C12.7952 9.52778 12.7351 9.65133 12.6682 9.77121C12.5624 9.97091 12.4455 10.1646 12.3182 10.3513C12.1047 10.6698 11.8661 10.9708 11.6048 11.2514L11.4314 11.4314L11.2514 11.6048C10.9661 11.8726 10.6595 12.1167 10.3346 12.3349C10.1446 12.4615 9.95456 12.5782 9.75454 12.6682C9.63795 12.7349 9.51775 12.795 9.39449 12.8483C9.05356 13.0152 8.69887 13.1523 8.33436 13.2583C8.17768 13.3016 8.01766 13.345 7.8543 13.375C7.69095 13.405 7.55427 13.435 7.40091 13.455C7.3009 13.455 7.20422 13.485 7.10088 13.495C6.75333 13.5333 6.40325 13.5433 6.05408 13.525C5.63101 13.5117 5.21017 13.4581 4.79726 13.365C3.45594 13.0738 2.22683 12.4025 1.25682 11.4314Z" fill="black"/>
<path d="M1.50685 4.79393C0.854666 4.10595 0.342838 3.29744 0 2.41363C0.233365 2.29463 0.456389 2.15635 0.666749 2.00025C0.910557 2.65413 1.2474 3.26943 1.66687 3.82714C1.9418 4.1775 2.26377 4.48825 2.62366 4.75059C3.43476 5.32323 4.43505 5.56196 5.41734 5.41734C5.56763 4.43691 5.32832 3.43659 4.75059 2.63032C4.49001 2.26896 4.17904 1.94676 3.82714 1.67354C3.26849 1.25379 2.65348 0.914861 2.00025 0.666749C2.15055 0.455124 2.2843 0.232212 2.4003 0C3.2833 0.339853 4.09175 0.848247 4.78059 1.49685C5.05581 1.76538 5.29861 2.06524 5.50401 2.3903C5.8454 2.93292 6.07235 3.53955 6.17095 4.173C6.26955 4.80645 6.23772 5.45337 6.07742 6.07408C5.45868 6.23453 4.81385 6.26791 4.18185 6.17222C3.54985 6.07654 2.94381 5.85376 2.4003 5.51735C2.07554 5.31152 1.77573 5.06877 1.50685 4.79393Z" fill="black"/>
<path d="M1.69045 3.84072C1.26165 3.28032 0.916872 2.66039 0.666992 2.00049L0.757003 1.93715C0.757003 1.93715 0.757003 1.93715 0.777006 1.93715C0.857016 1.88048 0.937026 1.82047 1.0137 1.75713C1.10047 1.92979 1.19617 2.09781 1.3004 2.26052C1.39291 2.41588 1.49536 2.5651 1.60711 2.70724C1.93552 3.1364 2.33596 3.50525 2.79059 3.79738C3.2799 4.12095 3.834 4.33371 4.41412 4.42079C4.32923 3.83749 4.1151 3.28053 3.78738 2.79059C3.49698 2.33558 3.12783 1.93595 2.69724 1.61044C2.55672 1.50168 2.40977 1.40148 2.25719 1.31041C2.09215 1.20725 1.9219 1.11267 1.74713 1.02704C1.8138 0.947027 1.88048 0.860349 1.94382 0.773672C1.96497 0.739359 1.9839 0.703726 2.00049 0.666992C2.65546 0.917929 3.27164 1.26025 3.83072 1.68378C4.18808 1.96442 4.50255 2.29573 4.76416 2.66724C5.34189 3.4735 5.5812 4.47382 5.43091 5.45425C4.44862 5.59888 3.44834 5.36014 2.63724 4.7875C2.27931 4.51729 1.96066 4.19865 1.69045 3.84072Z" fill="black"/>
<path d="M1.03679 11.1985C1.29016 12.9087 2.87035 13.8655 4.31387 14.3855C4.27719 14.4489 4.23386 14.5089 4.19385 14.5655C4.15385 14.6222 4.0505 14.7622 3.97382 14.8522C3.89715 14.9423 3.78713 15.0723 3.68712 15.1856C3.58711 15.299 3.48043 15.3823 3.35375 15.4723C3.22707 15.5623 3.16039 15.6257 3.06371 15.6924C2.88802 15.8192 2.70176 15.9307 2.50698 16.0257C1.7303 16.4082 0.860517 16.5609 0 16.4658L0 9.73828C0.279757 10.2686 0.628374 10.7595 1.03679 11.1985Z" fill="black"/>
<path d="M17.7188 0H16.4653C16.5581 0.869401 16.3972 1.74707 16.0019 2.52698C15.907 2.72176 15.7954 2.90802 15.6686 3.08371C15.5997 3.18373 15.5263 3.28041 15.4485 3.37375C15.3552 3.48376 15.2618 3.59044 15.1585 3.70712C15.0552 3.82381 14.9518 3.90382 14.8251 3.99383C14.6984 4.08384 14.6351 4.14385 14.5384 4.21052L14.3584 4.33387C14.5021 4.73833 14.6245 5.15006 14.7251 5.56735C14.9072 5.46692 15.0831 5.3556 15.2518 5.23398C15.3801 5.14735 15.5037 5.05387 15.6219 4.95395C15.7634 4.83967 15.8981 4.71723 16.0253 4.58723C16.1572 4.45973 16.2808 4.32387 16.3953 4.18052C16.492 4.06384 16.5887 3.94049 16.6754 3.8138C16.837 3.58699 16.9797 3.34727 17.1021 3.09705C17.593 2.14259 17.8066 1.0697 17.7188 0Z" fill="black"/>
<path d="M11.1946 1.04013C12.9081 1.29683 13.8616 2.87702 14.385 4.32053L14.565 4.19718C14.6616 4.13051 14.7583 4.05717 14.8517 3.98049C14.945 3.90381 15.0684 3.7938 15.185 3.69379C15.3017 3.59378 15.3817 3.48376 15.4751 3.36041C15.5684 3.23707 15.6251 3.17039 15.6951 3.07038C15.822 2.89469 15.9335 2.70843 16.0285 2.51364C16.412 1.73496 16.5636 0.862422 16.4652 0L9.73438 0C10.2642 0.281807 10.7551 0.631461 11.1946 1.04013Z" fill="black"/>
<path d="M14.9721 6.80458C14.9721 6.80458 14.4153 1.13388 10.8282 1.00053C8.00787 0.897187 7.1611 4.03758 7.92453 6.30119C8.03831 6.64632 8.24079 6.95549 8.51169 7.19772C8.78259 7.43995 9.11239 7.60673 9.46805 7.68136C10.5549 7.91472 12.4551 7.9814 14.9721 6.80458Z" fill="black"/>
<path d="M1.03694 11.1977C1.01763 11.0763 1.00539 10.9539 1.00027 10.831C0.96007 10.2476 1.10376 9.66624 1.41112 9.16871C1.71849 8.67118 2.17408 8.28251 2.71382 8.05736C3.21784 7.83098 3.75905 7.69879 4.31068 7.66731C4.98755 7.62133 5.6669 7.70738 6.31093 7.92067C6.6553 8.03476 6.96386 8.23693 7.20597 8.50711C7.44808 8.77728 7.61532 9.10608 7.6911 9.46086C7.93622 10.7976 7.83522 12.1747 7.39773 13.4614C7.23747 13.9809 7.03913 14.4879 6.80432 14.9782C6.38357 14.93 5.9661 14.8565 5.55417 14.7582C5.13617 14.6602 4.72429 14.5378 4.32068 14.3915C2.8705 13.8647 1.29031 12.908 1.03694 11.1977Z" fill="black"/>
<path d="M0 12V4.3815C0.413341 4.17332 0.808173 3.93163 1.18037 3.65896L1.33972 3.54913C1.33972 3.54913 1.33972 3.54913 1.37513 3.54913C1.51677 3.45087 1.65251 3.34104 1.79416 3.23699L2.07745 3C2.31882 3.41072 2.51658 3.84459 2.66763 4.2948C2.73255 4.48555 2.78567 4.68786 2.83288 4.87283C2.98201 5.51704 3.03174 6.1795 2.98043 6.83815C2.94313 7.40032 2.83408 7.95571 2.65583 8.49133C2.55134 8.81593 2.42314 9.13274 2.27221 9.43931C2.12812 9.7369 1.96038 10.0229 1.77055 10.2948C1.66432 10.4451 1.55218 10.5896 1.44005 10.7341C1.32791 10.8786 1.14496 11.0578 0.985606 11.2139C0.826257 11.3699 0.666907 11.5087 0.501656 11.6532C0.336405 11.7977 0.206564 11.8786 0.0472147 11.9769L0 12Z" fill="white"/>
<path d="M3 2.08569L3.23684 1.80447C3.35237 1.66386 3.46791 1.51154 3.57766 1.35921C3.61431 1.29891 3.64711 1.23629 3.67587 1.17173C3.93632 0.799827 4.16807 0.408086 4.36906 0L12 0C11.9001 0.155639 11.7901 0.304385 11.6707 0.445259C11.5321 0.61516 11.3877 0.779203 11.2375 0.931528C11.0873 1.08385 10.9198 1.23618 10.7522 1.38265C10.5847 1.52911 10.4692 1.60527 10.3132 1.71073C10.0433 1.92022 9.75518 2.10454 9.4525 2.26145C9.14711 2.41674 8.83038 2.54797 8.50513 2.65398C7.97279 2.83561 7.41932 2.9459 6.85879 2.98206C6.19454 3.031 5.5268 2.97967 4.87741 2.82974C4.68192 2.7863 4.48905 2.73153 4.29974 2.66569C3.84717 2.52039 3.41139 2.32593 3 2.08569Z" fill="white"/>
</g>
<defs>
<clipPath id="clip0_795_1513">
<rect width="27" height="27" fill="white"/>
</clipPath>
</defs>
</svg>
