<svg width="31" height="22" viewBox="0 0 31 22" fill="none" xmlns="http://www.w3.org/2000/svg">
<g clip-path="url(#clip0_659_5119)">
<path d="M2.15625 12.6906C2.15625 12.9685 2.17468 13.2278 2.1839 13.5057C2.26683 14.5803 2.47878 15.627 2.93954 16.5255C3.38187 17.4333 4.07302 18.1929 4.9116 18.7487C5.7594 19.3045 6.77308 19.6657 7.8144 19.851C8.08164 19.8973 8.33966 19.9251 8.6069 19.9529C8.73592 19.9622 8.87415 19.9714 8.99394 19.9714H9.40863C9.89703 19.9714 10.3486 19.8788 10.7633 19.7028C11.5834 19.3601 12.2101 18.6283 12.4957 17.7112C12.634 17.2666 12.7077 16.7386 12.6616 16.3495C12.6063 15.9419 12.4404 15.5344 12.1732 15.2102C11.906 14.8767 11.5466 14.6266 11.1503 14.4876C10.9568 14.4228 10.7264 14.3765 10.5329 14.3672C10.3394 14.3579 10.1458 14.3857 9.96154 14.4413C9.59293 14.5617 9.26118 14.8304 9.05845 15.1638C8.8465 15.4881 8.76356 15.9419 8.83728 16.2662C8.91101 16.6089 9.1506 16.9238 9.47313 17.0906C9.62979 17.1739 9.82331 17.2203 9.98919 17.2295C10.1458 17.2295 10.3025 17.1925 10.4315 17.1091C10.5697 17.035 10.6803 16.9146 10.7541 16.7756C10.8278 16.6367 10.8554 16.4514 10.8738 16.331C10.8831 16.0809 10.9384 15.6641 10.3947 15.1083C10.708 14.8767 11.1687 14.8859 11.5466 15.0897C11.9244 15.2935 12.2193 15.7011 12.3022 16.155C12.4497 17.0721 11.9797 17.9428 11.2425 18.4152C10.8738 18.6468 10.4407 18.7857 9.9984 18.7857C9.83253 18.7857 9.67587 18.7765 9.52843 18.7487C8.92022 18.7487 8.31202 18.5912 7.76832 18.2948C6.39525 17.5074 5.64882 15.9234 5.79626 14.3579C5.83312 13.9226 5.94371 13.4872 6.11879 13.0704C6.3031 12.6443 6.55191 12.2552 6.86523 11.9032L6.93895 11.8291C7.08639 11.6624 7.25227 11.5142 7.41814 11.3845C7.60245 11.2363 7.79596 11.1066 8.00791 10.9769C8.02635 10.9676 8.04478 10.9584 8.07242 10.9398C7.64852 10.208 7.05875 8.67037 8.52397 7.46616C8.52397 7.46616 8.12771 5.71542 9.86017 4.80763C11.565 3.9091 12.8459 5.05773 12.8459 5.05773C12.8459 5.05773 13.3159 3.28847 15.3248 3.21437C17.3337 3.21437 17.8682 4.9651 17.8682 4.9651C17.8682 4.9651 19.103 3.76089 20.8447 4.59458C22.6048 5.43752 22.2823 7.19752 22.2823 7.19752C23.7936 8.34615 23.2591 9.91163 22.8721 10.6527C22.8905 10.6619 22.9089 10.6712 22.9366 10.6805C23.1485 10.7916 23.3513 10.9213 23.5448 11.0603C23.7199 11.1899 23.8857 11.3289 24.0424 11.4864L24.1161 11.5605C24.4387 11.8939 24.7059 12.2737 24.9086 12.6998C25.1021 13.1074 25.2312 13.5428 25.2865 13.9689C25.4892 15.5344 24.8073 17.1369 23.4618 17.9798C22.9274 18.3041 22.3284 18.4801 21.7202 18.5078C21.5727 18.5449 21.4161 18.5542 21.2594 18.5634C20.8171 18.5727 20.3747 18.4615 20.0061 18.2392C19.2505 17.7946 18.7529 16.9424 18.8542 16.0253C18.9187 15.5622 19.1952 15.1453 19.5638 14.9323C19.9324 14.7099 20.3932 14.6914 20.7157 14.9137C20.1904 15.4881 20.2549 15.9049 20.2826 16.155C20.301 16.2754 20.3379 16.4607 20.4116 16.5904C20.4945 16.7293 20.6143 16.8405 20.7526 16.9146C20.8908 16.9887 21.0475 17.0257 21.1949 17.0165C21.3608 16.9979 21.5543 16.9516 21.7017 16.859C22.0243 16.683 22.2454 16.3588 22.3099 16.0068C22.3744 15.6826 22.2639 15.2379 22.0427 14.9137C21.8215 14.5803 21.4898 14.3302 21.112 14.2283C20.9277 14.1727 20.7341 14.1542 20.5406 14.1727C20.3471 14.1912 20.1167 14.2375 19.9232 14.3116C19.5269 14.4598 19.186 14.7285 18.9279 15.0712C18.6791 15.4139 18.5225 15.8215 18.4856 16.2291C18.458 16.6182 18.5409 17.1369 18.7068 17.5815C19.0201 18.4893 19.6744 19.1933 20.513 19.499C20.9277 19.6565 21.3884 19.7306 21.8768 19.7121L22.2823 19.6935C22.4113 19.6843 22.5403 19.675 22.6693 19.6565C22.9274 19.6287 23.1946 19.5824 23.4526 19.5268C24.4939 19.3045 25.4892 18.8969 26.3186 18.3133C27.1479 17.7205 27.8022 16.9424 28.2077 16.016C28.6316 15.099 28.8067 14.043 28.8435 12.9685C28.8435 12.6906 28.8435 12.4219 28.8343 12.1533C28.8159 11.8754 28.8067 11.5975 28.7698 11.3289C28.7145 10.7916 28.6131 10.2636 28.4749 9.75416C28.3275 9.24468 28.1524 8.74447 27.9128 8.27205C27.6824 7.79963 27.406 7.34573 27.0926 6.92889C25.8394 5.21521 23.9502 3.97394 21.8768 3.17731C20.8355 2.779 19.7481 2.48258 18.6423 2.27879C17.5365 2.075 16.4214 1.95458 15.2972 1.94531C14.1821 2.00089 13.0671 2.16763 11.9705 2.40847C10.8738 2.64931 9.79567 2.99205 8.77278 3.43668C6.727 4.32594 4.88396 5.64131 3.69519 7.40131C3.4003 7.83668 3.13306 8.29984 2.92111 8.78152C2.69995 9.26321 2.54329 9.77268 2.41428 10.2822C2.28526 10.8009 2.22076 11.3289 2.17468 11.8662C2.16547 12.1348 2.17468 12.4127 2.15625 12.6906Z" fill="white"/>
<path d="M12.625 10.8657C12.8185 10.9676 13.012 11.0787 13.1963 11.2084C13.6202 11.5048 13.9889 11.8383 14.2837 12.1718C14.3114 10.9954 15.4449 9.99494 15.4449 9.99494C15.4449 9.99494 16.6244 10.949 16.6981 12.1255C16.9838 11.7827 17.334 11.4307 17.7487 11.1158C17.9238 10.9861 18.1173 10.8564 18.3016 10.7545C18.0251 9.36504 16.7995 9.48546 16.7995 9.48546C16.6152 7.83662 15.3988 7.86441 15.3988 7.86441C15.3066 7.87367 14.1732 7.94778 14.0626 9.54104C14.0718 9.5503 12.8462 9.4762 12.625 10.8657Z" fill="white"/>
<path d="M8.06317 10.9675C8.83725 10.5229 9.7127 10.3099 10.6158 10.3469C11.3069 10.3747 11.9704 10.5507 12.5971 10.8656C12.6063 10.8656 12.6155 10.8749 12.6155 10.8749C12.8367 9.48543 14.0623 9.55954 14.0623 9.55954C14.1729 7.96628 15.3156 7.88291 15.3985 7.88291C15.3985 7.88291 16.6149 7.85512 16.7992 9.50396C16.7992 9.50396 18.0248 9.38354 18.3013 10.773C18.9187 10.421 19.5914 10.208 20.2826 10.1616C21.1856 10.0875 22.0703 10.2728 22.8628 10.6804C23.2591 9.93007 23.7936 8.37385 22.273 7.22522C22.273 7.22522 22.5956 5.46522 20.8355 4.62228C19.0938 3.78859 17.859 4.9928 17.859 4.9928C17.859 4.9928 17.3153 3.24207 15.3156 3.24207C13.3066 3.31617 12.8367 5.08543 12.8367 5.08543C12.8367 5.08543 11.5465 3.9368 9.85092 4.83533C8.12768 5.74312 8.51472 7.49385 8.51472 7.49385C7.0495 8.69807 7.63927 10.2357 8.06317 10.9675Z" fill="black"/>
<path d="M0 12.6901C0 13.0143 0.0184304 13.3385 0.0276457 13.6628C0.129013 14.9596 0.414685 16.2842 1.04132 17.507C1.64952 18.739 2.63555 19.795 3.77824 20.5175C4.92093 21.2493 6.20184 21.6847 7.49197 21.8792C7.81451 21.9348 8.13704 21.9625 8.46879 21.9903C8.63466 21.9996 8.80054 22.0089 8.97562 22.0089H9.45482C10.1552 21.9903 10.8832 21.8514 11.5559 21.5457C12.2378 21.2493 12.846 20.7769 13.316 20.2118C13.786 19.6468 14.1269 18.9891 14.3205 18.3036C14.514 17.6089 14.6153 16.9234 14.5232 16.1268C14.4126 15.3579 14.0809 14.6354 13.5832 14.0518C13.0856 13.4682 12.4221 13.0329 11.6941 12.8198C11.3255 12.7087 10.9569 12.6438 10.5606 12.6438C10.1644 12.6438 9.76813 12.7087 9.39031 12.8476C7.87901 13.3941 6.87455 15.043 7.26159 16.7011C7.47354 17.5162 8.04489 18.211 8.79132 18.563C9.03092 18.6741 9.27051 18.7482 9.52854 18.7853C9.67598 18.8131 9.83264 18.8223 9.99851 18.8223C10.4316 18.8131 10.874 18.6834 11.2426 18.4518C11.9798 17.9794 12.4498 17.1087 12.3023 16.1916C12.2194 15.7284 11.9245 15.3301 11.5467 15.1263C11.1688 14.9226 10.7081 14.9225 10.3948 15.1449C10.9385 15.7007 10.8832 16.1175 10.874 16.3676C10.8647 16.488 10.8279 16.6733 10.7542 16.8122C10.6804 16.9512 10.5699 17.0716 10.4316 17.1457C10.2934 17.2291 10.146 17.2661 9.9893 17.2661C9.82342 17.2569 9.62991 17.2105 9.47325 17.1272C9.15071 16.9604 8.91112 16.6455 8.8374 16.3028C8.76367 15.9785 8.84661 15.5339 9.05856 15.2004C9.27051 14.8577 9.59304 14.5983 9.96165 14.4779C10.146 14.4223 10.3395 14.3945 10.533 14.4038C10.7265 14.4131 10.9569 14.4594 11.1504 14.5242C11.5559 14.6539 11.9061 14.9133 12.1733 15.2468C12.4405 15.5802 12.6064 15.9785 12.6617 16.3861C12.7078 16.7752 12.6433 17.2939 12.4958 17.7478C12.2102 18.6649 11.5835 19.3967 10.7634 19.7394C10.3487 19.9154 9.89715 19.9988 9.40874 20.008H8.99405C8.87426 20.008 8.73603 19.9988 8.60702 19.9895C8.33977 19.971 8.08175 19.9339 7.81451 19.8876C6.76397 19.7023 5.75951 19.3411 4.91171 18.7853C4.06391 18.2295 3.37277 17.4792 2.93966 16.5621C2.47889 15.6636 2.25773 14.6076 2.18401 13.5423C2.17479 13.2644 2.15636 13.0051 2.15636 12.7272C2.16558 12.4493 2.16558 12.1714 2.18401 11.9028C2.22087 11.3655 2.29459 10.8375 2.4236 10.3188C2.55262 9.80002 2.70927 9.29981 2.93044 8.81813C3.14239 8.33644 3.40042 7.87329 3.70452 7.43792C4.89328 5.67792 6.73633 4.36255 8.77289 3.48255C9.79578 3.04718 10.874 2.70444 11.9706 2.45434C13.0672 2.20423 14.1822 2.04676 15.2973 1.99118C16.4215 2.00971 17.5366 2.12087 18.6424 2.32466C19.7482 2.52845 20.8356 2.82487 21.8769 3.22318C23.9504 4.01981 25.8487 5.26108 27.0927 6.97476C27.4153 7.3916 27.6917 7.8455 27.9129 8.31792C28.1525 8.79034 28.3276 9.29055 28.475 9.80002C28.6225 10.3095 28.7146 10.8375 28.7699 11.3748C28.8068 11.6434 28.8068 11.9213 28.8344 12.1992C28.8436 12.4771 28.8436 12.7457 28.8436 13.0143C28.8068 14.0889 28.6317 15.1449 28.2078 16.0619C27.8023 16.9882 27.148 17.7663 26.3187 18.3592C25.4985 18.9428 24.4941 19.3503 23.4527 19.5727C23.1947 19.6282 22.9275 19.6745 22.6694 19.7023C22.5404 19.7209 22.4114 19.7301 22.2824 19.7394L21.8769 19.7579C21.3977 19.7764 20.9278 19.7023 20.5131 19.5449C19.6745 19.2392 19.0202 18.5259 18.7069 17.6274C18.541 17.1828 18.4581 16.664 18.4857 16.275C18.5226 15.8581 18.6793 15.4505 18.9281 15.1171C19.1769 14.7743 19.5271 14.5057 19.9233 14.3575C20.1168 14.2834 20.338 14.2278 20.5407 14.2185C20.7342 14.2 20.9278 14.2185 21.1121 14.2741C21.4899 14.3853 21.8216 14.6354 22.0428 14.9596C22.264 15.2745 22.3746 15.7192 22.31 16.0527C22.2455 16.3954 22.0244 16.7289 21.7018 16.9049C21.5544 16.9975 21.3609 17.0438 21.195 17.0623C21.0383 17.0716 20.8909 17.0345 20.7527 16.9604C20.6144 16.8863 20.4946 16.7752 20.4117 16.6362C20.338 16.5065 20.3011 16.3213 20.2827 16.2009C20.2551 15.9508 20.1998 15.5339 20.7158 14.9596C20.3933 14.7465 19.9325 14.7651 19.5639 14.9781C19.1953 15.2004 18.9188 15.608 18.8543 16.0712C18.7438 16.9882 19.2506 17.8404 20.0062 18.2851C20.3841 18.5074 20.8264 18.6185 21.2595 18.6093C21.4162 18.6 21.5728 18.5815 21.7203 18.5537C21.9691 18.4981 22.2087 18.4148 22.4391 18.2943C23.1763 17.9145 23.72 17.192 23.8951 16.3676C24.2176 14.7002 23.1486 13.0884 21.6189 12.6068C21.2411 12.4863 20.8356 12.4308 20.4394 12.4493C20.0431 12.4678 19.6837 12.5419 19.3243 12.6716C18.6055 12.9124 17.9605 13.3849 17.4813 13.9777C17.0021 14.5798 16.7072 15.3209 16.6243 16.0897C16.5597 16.8863 16.6888 17.5718 16.9099 18.2573C17.1403 18.9335 17.4997 19.5819 17.9881 20.1284C18.4857 20.675 19.1124 21.1196 19.7943 21.3975C20.4854 21.6754 21.2134 21.7866 21.9138 21.7773L22.393 21.7588C22.5681 21.7495 22.7247 21.7402 22.8906 21.7217C23.2224 21.6939 23.5357 21.6383 23.8582 21.5735C25.1391 21.3327 26.3924 20.8417 27.5166 20.0636C28.6317 19.2948 29.5716 18.1924 30.1338 16.9419C30.7235 15.7007 30.9447 14.3575 31 13.0607C31 12.7364 31 12.4122 30.9908 12.088C30.9631 11.7731 30.9631 11.4489 30.9171 11.1247C30.8433 10.4762 30.7328 9.82781 30.5485 9.19792C30.3734 8.55876 30.143 7.93813 29.8481 7.34529C29.5624 6.74318 29.2122 6.17813 28.816 5.65013C28.0235 4.58487 27.0467 3.70487 25.9869 2.97308C24.9272 2.25055 23.7753 1.6855 22.5957 1.24087C20.2458 0.351603 17.7577 -0.0374498 15.2696 -0.000397197H15.242C12.7539 0.0644449 10.2842 0.546129 7.96195 1.5095C6.80083 2.00044 5.67658 2.60255 4.64447 3.37139C3.61237 4.14023 2.67241 5.06655 1.92598 6.1596C1.54816 6.70613 1.22562 7.28044 0.958383 7.89181C0.681926 8.49392 0.479191 9.12381 0.322533 9.77223C0.165874 10.4207 0.0737218 11.0691 0.0276457 11.7175C0.00921522 12.051 0.00921522 12.3659 0 12.6901Z" fill="black"/>
<path d="M3.69511 12.4961C3.71354 13.5521 4.63506 14.395 5.7501 14.3765H5.77775C5.81461 13.9411 5.92519 13.5058 6.10028 13.0889C6.28458 12.6628 6.5334 12.2738 6.84671 11.9218L6.92043 11.8477C7.06788 11.6809 7.23375 11.5327 7.39963 11.403C7.03102 10.8658 6.39517 10.523 5.67638 10.5323C4.56134 10.5601 3.67668 11.4308 3.69511 12.4961Z" fill="black"/>
<path d="M23.5449 11.088C23.72 11.2177 23.8859 11.3566 24.0425 11.5141L24.1163 11.5882C24.4388 11.9217 24.706 12.3015 24.9088 12.7276C25.1023 13.1351 25.2313 13.5705 25.2866 13.9966H25.3142C26.4293 13.9781 27.3139 13.0981 27.2955 12.0328C27.2771 10.9676 26.3556 10.1339 25.2405 10.1524C24.5125 10.1617 23.8859 10.5322 23.5449 11.088Z" fill="black"/>
<path d="M14.2837 12.1718C15.1591 13.1445 15.5093 14.1171 15.5277 14.1264C15.5462 14.1078 15.8595 13.1352 16.6981 12.1255C16.6244 10.9491 15.4448 9.995 15.4448 9.995C15.454 10.0043 14.3113 10.9954 14.2837 12.1718Z" fill="black"/>
</g>
<defs>
<clipPath id="clip0_659_5119">
<rect width="31" height="22" fill="white"/>
</clipPath>
</defs>
</svg>
