<svg width="35" height="35" viewBox="0 0 35 35" fill="none" xmlns="http://www.w3.org/2000/svg">
<g clip-path="url(#clip0_658_4880)">
<path d="M33.0175 12.0036L24.2248 15.1211L23.5717 15.3544L20.0733 16.5905L17.5 17.5001L18.6739 15.0356L20.2677 11.6927L20.5709 11.063L24.5824 2.65113C25.2199 2.59671 27.3734 2.61226 28.3452 5.28663C28.8972 5.06117 29.799 4.96788 30.5064 5.76086L30.5375 5.79196C31.245 6.58494 31.0662 7.47121 30.7863 7.99209C33.3285 9.24376 33.1342 11.3661 33.0175 12.0036Z" fill="white"/>
<path d="M32.5122 11.9181L24.0382 14.919L17.5 17.5001L20.7574 11.2728L24.6291 3.15644C25.1499 3.10202 27.1246 3.06315 27.9565 5.72197L28.0575 6.04071L28.3374 5.86968C28.3763 5.84636 29.3558 5.25551 30.1333 6.11068L30.1644 6.14178C30.9418 7.00473 30.2499 7.91433 30.2188 7.9532L30.0167 8.21752L30.3199 8.34969C32.8698 9.44587 32.6211 11.4128 32.5122 11.9181Z" fill="black"/>
<path d="M20.1744 15.8986L17.5 17.5078L19.7934 14.5381C20.6175 13.473 21.3872 12.3612 22.149 11.2495C24.6446 7.58781 26.215 9.66355 26.215 9.66355C26.215 9.66355 28.0809 11.4672 24.2326 13.5974C22.8721 14.3437 21.5038 15.0978 20.1744 15.8986Z" fill="white" stroke="white" stroke-width="1.7315" stroke-miterlimit="10" stroke-linecap="round" stroke-linejoin="round"/>
<path d="M24.5823 2.64336L20.5708 11.0629L20.2753 11.6927L18.6816 15.0356L17.5077 17.5001L16.5903 14.9268L15.3542 11.4361L15.121 10.7753L12.0112 1.99031C12.4233 1.50053 13.9548 -0.00768641 16.5359 1.18956C16.7691 0.637582 17.3366 -0.0621067 18.4017 8.78805e-05H18.4484C19.5135 0.0545081 20.011 0.808617 20.182 1.38392C22.8486 0.466547 24.2169 2.10693 24.5823 2.64336Z" fill="white"/>
<path d="M24.1702 2.93876L20.2986 11.0552L17.4998 17.5001L15.393 10.7986L12.3921 2.32459C12.7186 1.92033 14.0947 0.497624 16.5591 1.78039L16.8546 1.93587L16.9323 1.61713C16.9401 1.57048 17.2199 0.458753 18.3783 0.520947H18.425C19.5833 0.583142 19.7388 1.71819 19.7388 1.76484L19.7777 2.09136L20.0887 1.96697C22.6697 0.940761 23.8903 2.5034 24.1702 2.93876Z" fill="black"/>
<path d="M18.2541 14.4758L17.5 17.5L17.018 13.7761C16.847 12.439 16.606 11.1095 16.3572 9.78791C15.5331 5.43429 18.1142 5.79191 18.1142 5.79191C18.1142 5.79191 20.7108 5.74526 19.4902 9.9745C19.0626 11.4672 18.6351 12.9676 18.2541 14.4758Z" fill="white" stroke="white" stroke-width="1.7315" stroke-miterlimit="10" stroke-linecap="round" stroke-linejoin="round"/>
<path d="M12.0033 1.99024L15.1208 10.783L15.354 11.436L16.5901 14.9345L17.4997 17.5078L15.043 16.3261L11.7001 14.7324L11.0704 14.4292L2.65077 10.4176C2.59635 9.78011 2.6119 7.62662 5.28626 6.65483C5.06081 6.10285 4.96752 5.20103 5.7605 4.49357L5.79159 4.46247C6.58457 3.75501 7.47085 3.93382 7.99173 4.21369C9.24339 1.67149 11.3658 1.86585 12.0033 1.99024Z" fill="white"/>
<path d="M11.9179 2.48782L14.9187 10.9618L17.4998 17.5L11.2726 14.2504L3.1562 10.3788C3.10178 9.85787 3.0629 7.88319 5.72172 7.05134L6.04047 6.95028L5.86943 6.6704C5.84611 6.63153 5.25526 5.65196 6.11044 4.87453L6.14154 4.84344C7.00449 4.066 7.91408 4.75792 7.95295 4.78901L8.21728 4.99115L8.34944 4.68795C9.44562 2.13797 11.4125 2.37897 11.9179 2.48782Z" fill="black"/>
<path d="M15.8982 14.8256L17.5075 17.5L14.5377 15.2066C13.4726 14.3825 12.3609 13.6128 11.2491 12.851C7.58744 10.3554 9.66318 8.78498 9.66318 8.78498C9.66318 8.78498 11.4668 6.91914 13.597 10.7674C14.3433 12.1279 15.0974 13.4962 15.8982 14.8256Z" fill="white" stroke="white" stroke-width="1.7315" stroke-miterlimit="10" stroke-linecap="round" stroke-linejoin="round"/>
<path d="M2.64324 10.4176L11.0628 14.4292L11.6925 14.7246L15.0355 16.3183L17.5 17.4922L14.9267 18.4096L11.436 19.6457L10.7752 19.879L1.99019 22.9887C1.50041 22.5766 -0.00780848 21.0451 1.18944 18.464C0.63746 18.2308 -0.0622288 17.6633 -3.41898e-05 16.5982V16.5593C0.0543861 15.4942 0.808495 14.9967 1.3838 14.8256C0.466425 12.1513 2.10681 10.783 2.64324 10.4176Z" fill="white"/>
<path d="M2.93888 10.8296L11.0553 14.7012L17.5002 17.5L10.7987 19.6068L2.32471 22.6077C1.92045 22.2812 0.497746 20.9051 1.78051 18.4407L1.936 18.1452L1.61725 18.0675C1.5706 18.0597 0.458875 17.7798 0.521069 16.6215V16.5748C0.583264 15.4164 1.71831 15.261 1.76496 15.261L2.09148 15.2221L1.96709 14.9111C0.940883 12.33 2.50352 11.1095 2.93888 10.8296Z" fill="black"/>
<path d="M14.4757 16.7459L17.4999 17.5L13.776 17.982C12.4388 18.1531 11.1094 18.3941 9.78779 18.6428C5.43417 19.4669 5.79179 16.8858 5.79179 16.8858C5.79179 16.8858 5.74514 14.2892 9.97437 15.5098C11.467 15.9374 12.9675 16.3727 14.4757 16.7459Z" fill="white" stroke="white" stroke-width="1.7315" stroke-miterlimit="10" stroke-linecap="round" stroke-linejoin="round"/>
<path d="M1.99012 22.9964L10.7829 19.8789L11.4359 19.6457L14.9344 18.4096L17.5077 17.5L16.326 19.9645L14.7322 23.3074L14.429 23.9371L10.4175 32.349C9.77999 32.4034 7.6265 32.3878 6.65471 29.7135C6.10273 29.9389 5.20091 30.0322 4.49345 29.2392L4.46235 29.2081C3.75489 28.4151 3.9337 27.5289 4.21357 27.008C1.67137 25.7641 1.86573 23.6339 1.99012 22.9964Z" fill="white"/>
<path d="M2.48757 23.082L10.9616 20.0811L17.4998 17.5L14.2501 23.7272L10.3785 31.8436C9.85763 31.898 7.88295 31.9369 7.0511 29.2781L6.95003 28.9594L6.67016 29.1304C6.63129 29.1537 5.65172 29.7446 4.87429 28.8894L4.84319 28.8583C4.06576 27.9953 4.75767 27.0857 4.78877 27.0469L4.9909 26.7825L4.6877 26.6504C2.13773 25.5542 2.37873 23.5873 2.48757 23.082Z" fill="black"/>
<path d="M14.8254 19.1093L17.4998 17.5L15.2063 20.4698C14.3822 21.5349 13.6126 22.6466 12.8507 23.7583C10.3551 27.42 8.78474 25.3443 8.78474 25.3443C8.78474 25.3443 6.9189 23.5406 10.7672 21.4105C12.1277 20.6564 13.496 19.91 14.8254 19.1093Z" fill="white" stroke="white" stroke-width="1.7315" stroke-miterlimit="10" stroke-linecap="round" stroke-linejoin="round"/>
<path d="M10.4175 32.3567L14.429 23.9371L14.7245 23.3074L16.3182 19.9645L17.4921 17.5L18.4017 20.0733L19.6378 23.564L19.8711 24.2248L22.9808 33.0098C22.5687 33.4996 21.0372 35.0078 18.4561 33.8105C18.2229 34.3625 17.6554 35.0622 16.5903 35H16.5592C15.4941 34.9456 14.9966 34.1915 14.8255 33.6162C12.1512 34.5335 10.7829 32.8932 10.4175 32.3567Z" fill="white"/>
<path d="M10.8296 32.0613L14.7012 23.9449L17.5 17.5L19.6068 24.2015L22.6077 32.6755C22.2812 33.0797 20.9051 34.5024 18.4407 33.2197L18.1452 33.0642L18.0675 33.3829C18.0597 33.4296 17.7798 34.5413 16.6215 34.4791H16.5748C15.4164 34.4169 15.261 33.2819 15.261 33.2352L15.2221 32.9087L14.9111 33.0331C12.33 34.0593 11.1095 32.4967 10.8296 32.0613Z" fill="black"/>
<path d="M16.7455 20.5242L17.4996 17.5L17.9817 21.2239C18.1527 22.5611 18.3937 23.8905 18.6425 25.2121C19.4666 29.5657 16.8855 29.2081 16.8855 29.2081C16.8855 29.2081 14.2889 29.2548 15.5094 25.0255C15.937 23.5329 16.3724 22.0324 16.7455 20.5242Z" fill="white" stroke="white" stroke-width="1.7315" stroke-miterlimit="10" stroke-linecap="round" stroke-linejoin="round"/>
<path d="M22.9964 33.0175L19.8789 24.2248L19.6457 23.5717L18.4096 20.0733L17.5 17.5L19.9645 18.6739L23.3074 20.2677L23.9371 20.5709L32.349 24.5824C32.4034 25.2199 32.3878 27.3734 29.7135 28.3452C29.9389 28.8972 30.0322 29.799 29.2392 30.5064L29.2081 30.5375C28.4151 31.245 27.5289 31.0662 27.008 30.7863C25.7641 33.3285 23.6339 33.1342 22.9964 33.0175Z" fill="white"/>
<path d="M23.082 32.5122L20.0811 24.0382L17.5 17.5L23.7272 20.7497L31.8436 24.6213C31.898 25.1422 31.9369 27.1168 29.2781 27.9487L28.9594 28.0498L29.1304 28.3296C29.1537 28.3685 29.7446 29.3481 28.8894 30.1255L28.8583 30.1566C27.9953 30.934 27.0857 30.2421 27.0469 30.211L26.7825 30.0089L26.6504 30.3121C25.5542 32.8698 23.5873 32.6211 23.082 32.5122Z" fill="black"/>
<path d="M19.1093 20.1744L17.5 17.5L20.4698 19.7934C21.5349 20.6175 22.6466 21.3872 23.7583 22.149C27.42 24.6446 25.3443 26.215 25.3443 26.215C25.3443 26.215 23.5406 28.0809 21.4105 24.2326C20.6564 22.8721 19.91 21.5038 19.1093 20.1744Z" fill="white" stroke="white" stroke-width="1.7315" stroke-miterlimit="10" stroke-linecap="round" stroke-linejoin="round"/>
<path d="M32.3567 24.5825L23.9371 20.5709L23.3074 20.2755L19.9645 18.6818L17.5 17.5078L20.0733 16.5982L23.564 15.3621L24.2248 15.1289L33.0098 12.0192C33.4996 12.4312 35.0078 13.9627 33.8105 16.5438C34.3625 16.777 35.0622 17.3446 35 18.4097V18.4563C34.9456 19.5214 34.1915 20.0189 33.6162 20.19C34.5335 22.8488 32.8932 24.2171 32.3567 24.5825Z" fill="white"/>
<path d="M32.0613 24.1704L23.9449 20.2988L17.5 17.5001L24.2015 15.3932L32.6755 12.3923C33.0797 12.7189 34.5024 14.0949 33.2197 16.5594L33.0642 16.8548L33.3829 16.9325C33.4296 16.9403 34.5413 17.2202 34.4791 18.3786V18.4252C34.4169 19.5836 33.2819 19.7391 33.2352 19.7391L32.9087 19.7779L33.0331 20.0889C34.0593 22.67 32.4967 23.8906 32.0613 24.1704Z" fill="black"/>
<path d="M20.5242 18.2541L17.5 17.5L21.2239 17.018C22.5611 16.847 23.8905 16.606 25.2121 16.3572C29.5657 15.5331 29.2081 18.1142 29.2081 18.1142C29.2081 18.1142 29.2548 20.7108 25.0255 19.4902C23.5329 19.0626 22.0324 18.6351 20.5242 18.2541Z" fill="white" stroke="white" stroke-width="1.7315" stroke-miterlimit="10" stroke-linecap="round" stroke-linejoin="round"/>
<path d="M17.1812 18.0055L17.8964 13.3875L18.1141 11.8482C18.2229 11.0863 18.8837 10.4877 19.6534 10.5266C20.3764 10.5577 20.7884 11.1019 21.0916 11.5528C21.5192 12.1981 21.7913 12.3069 21.7913 12.3069C21.7913 12.3069 21.9546 12.5479 22.6776 12.8355C23.1752 13.0377 23.7971 13.3253 23.9759 14.025C24.1703 14.7714 23.7271 15.541 22.9963 15.8053L21.5425 16.3418L17.1812 18.0055Z" fill="#1F1E1D" stroke="white" stroke-width="0.9932" stroke-miterlimit="10"/>
<path d="M17.8883 17.9588L13.7135 15.8519L12.3219 15.1678C11.63 14.8257 11.2646 14.0172 11.5367 13.2942C11.7932 12.6178 12.4385 12.3924 12.9594 12.2447C13.7057 12.0347 13.8923 11.8171 13.8923 11.8171C13.8923 11.8171 14.1722 11.7315 14.662 11.1407C15.004 10.7287 15.4783 10.2233 16.1935 10.27C16.9632 10.3166 17.554 10.9774 17.5851 11.7471L17.6473 13.2942L17.8883 17.9588Z" fill="#1F1E1D" stroke="white" stroke-width="0.9932" stroke-miterlimit="10"/>
<path d="M18.0594 17.2746L14.7631 20.5943L13.6825 21.706C13.1383 22.258 12.2598 22.3513 11.6612 21.8693C11.0936 21.4183 11.0781 20.7342 11.1014 20.1978C11.1325 19.4281 10.977 19.1793 10.977 19.1793C10.977 19.1793 10.9848 18.8839 10.5728 18.2309C10.2851 17.78 9.95858 17.1736 10.2229 16.505C10.5028 15.7897 11.3191 15.4321 12.0576 15.642L13.5503 16.0618L18.0594 17.2746Z" fill="#1F1E1D" stroke="white" stroke-width="0.9932" stroke-miterlimit="10"/>
<path d="M17.4606 16.9015L19.5985 21.0608L20.3215 22.429C20.6791 23.1132 20.5003 23.9839 19.8551 24.4037C19.2487 24.808 18.5956 24.6058 18.0903 24.4193C17.3673 24.1549 17.0874 24.2171 17.0874 24.2171C17.0874 24.2171 16.8075 24.1161 16.0612 24.3104C15.5403 24.4426 14.8639 24.5747 14.312 24.1161C13.7211 23.6263 13.6278 22.74 14.0554 22.1025L14.9184 20.812L17.4606 16.9015Z" fill="#1F1E1D" stroke="white" stroke-width="0.9932" stroke-miterlimit="10"/>
<path d="M16.9165 17.3523L21.5345 16.606L23.066 16.3417C23.8279 16.2095 24.5975 16.6527 24.7997 17.399C24.994 18.0987 24.6053 18.6584 24.2632 19.0782C23.7812 19.6846 23.7657 19.9723 23.7657 19.9723C23.7657 19.9723 23.5869 20.2055 23.5402 20.9752C23.5014 21.5116 23.4236 22.188 22.8094 22.5845C22.1564 22.9965 21.2934 22.8099 20.8114 22.2035L19.8474 20.983L16.9165 17.3523Z" fill="#1F1E1D" stroke="white" stroke-width="0.9932" stroke-miterlimit="10"/>
<path d="M17.4996 19.366C18.5301 19.366 19.3655 18.5306 19.3655 17.5001C19.3655 16.4696 18.5301 15.6343 17.4996 15.6343C16.4692 15.6343 15.6338 16.4696 15.6338 17.5001C15.6338 18.5306 16.4692 19.366 17.4996 19.366Z" fill="white" stroke="white" stroke-width="0.7912" stroke-miterlimit="10"/>
<path d="M17.4659 5C18.759 5 19.8097 6.07979 19.7095 7.76251C19.6093 9.44523 17.4659 11.6299 17.4659 11.6299C17.4659 11.6299 15.3208 9.44765 15.2222 7.76251C15.1236 6.07736 16.1759 5 17.4659 5Z" fill="black" stroke="white" stroke-width="0.53" stroke-miterlimit="10" stroke-linecap="round"/>
<path d="M5 17.4658C5 16.1727 6.07979 15.122 7.76251 15.2222C9.44523 15.3224 11.6299 17.4658 11.6299 17.4658C11.6299 17.4658 9.44765 19.6117 7.76251 19.7103C6.07736 19.8089 5 18.7566 5 17.4658Z" fill="black" stroke="white" stroke-width="0.53" stroke-miterlimit="10" stroke-linecap="round"/>
<path d="M17.4661 29.9323C16.1729 29.9323 15.1222 28.8526 15.2224 27.1698C15.3227 25.4871 17.4661 23.3025 17.4661 23.3025C17.4661 23.3025 19.6119 25.4847 19.7097 27.1698C19.8075 28.855 18.7568 29.9323 17.4661 29.9323Z" fill="black" stroke="white" stroke-width="0.53" stroke-miterlimit="10" stroke-linecap="round"/>
<path d="M29.9316 17.4657C29.9316 18.7589 28.8518 19.8096 27.1691 19.7094C25.4864 19.6091 23.3018 17.4657 23.3018 17.4657C23.3018 17.4657 25.484 15.3207 27.1691 15.2221C28.8543 15.1235 29.9316 16.1758 29.9316 17.4657Z" fill="black" stroke="white" stroke-width="0.53" stroke-miterlimit="10" stroke-linecap="round"/>
<path d="M25.0599 17.4662C25.8544 16.5973 26.1502 15.3543 25.7784 14.2777C25.439 13.2941 24.621 12.7065 23.5914 12.7065C23.3336 12.7086 23.0771 12.7423 22.8276 12.8067C22.3925 12.9176 21.9774 13.096 21.5975 13.3353C21.8365 12.9552 22.0148 12.5402 22.1261 12.1052C22.3936 11.0351 22.0727 10.3271 21.7575 9.923C21.2976 9.33381 20.5452 8.99597 19.6933 8.99597C18.8674 9.00151 18.0729 9.31376 17.4642 9.87209C16.8559 9.31368 16.0617 9.0014 15.236 8.99597C14.3833 8.99597 13.6316 9.33381 13.1718 9.923C12.8557 10.3271 12.5357 11.0335 12.8032 12.1052C12.9141 12.5403 13.0925 12.9554 13.3318 13.3353C12.9519 13.0964 12.5372 12.9181 12.1025 12.8067C11.8531 12.7429 11.5969 12.7098 11.3395 12.7081C10.309 12.7081 9.49111 13.2957 9.15165 14.2793C8.77987 15.3559 9.07649 16.5989 9.87097 17.4678C9.07649 18.3374 8.78068 19.5797 9.15165 20.6562C9.49191 21.6406 10.309 22.2282 11.3395 22.2282C11.5969 22.2265 11.8531 22.1934 12.1025 22.1296C12.5375 22.0184 12.9525 21.84 13.3326 21.601C13.0941 21.9803 12.9163 22.3945 12.8056 22.8287C12.5381 23.898 12.8582 24.6068 13.1742 25.0109C13.6341 25.6001 14.3865 25.9379 15.2384 25.9379C16.0641 25.9325 16.8583 25.6202 17.4667 25.0618C18.0756 25.6198 18.8699 25.932 19.6957 25.9379C20.5476 25.9379 21.3001 25.6001 21.7599 25.0109C22.0751 24.6068 22.396 23.9004 22.1285 22.8287C22.0172 22.3937 21.8389 21.9787 21.5999 21.5986C21.9792 21.8377 22.3934 22.0162 22.8276 22.128C23.077 22.1918 23.3332 22.2249 23.5906 22.2266C24.621 22.2266 25.4382 21.639 25.7784 20.6554C26.1502 19.5788 25.8544 18.3358 25.0599 17.4662Z" fill="black"/>
<path d="M17.4122 15.9239C17.4122 15.9239 21.0072 14.6113 21.6634 11.9878C22.3197 9.36436 18.9866 8.62887 17.4607 10.5702C15.9388 8.63049 12.6065 9.36355 13.2628 11.9878C13.919 14.6122 17.5132 15.9239 17.5132 15.9239" fill="white"/>
<path d="M17.4239 15.9238C17.4239 15.9238 20.3076 14.8731 20.8337 12.7661C21.3599 10.6591 18.6871 10.0715 17.4659 11.6297C16.2455 10.0715 13.5719 10.6599 14.098 12.7661C14.6242 14.8723 17.5079 15.9238 17.5079 15.9238" fill="white"/>
<path d="M17.4381 15.9238C17.4381 15.9238 19.3592 15.2222 19.7092 13.8224C20.0592 12.4226 18.2794 12.0273 17.4656 13.0651C16.6525 12.0273 14.8712 12.4185 15.2219 13.8224C15.5727 15.2263 17.4939 15.9238 17.4939 15.9238" fill="black"/>
<path d="M15.9233 17.5183C15.9233 17.5183 14.6107 13.9233 11.9872 13.2678C9.36375 12.6124 8.62826 15.9439 10.5696 17.4658C8.62988 18.9884 9.36294 22.3208 11.9872 21.6685C14.6115 21.0163 15.9233 17.4173 15.9233 17.4173" fill="white"/>
<path d="M15.923 17.5086C15.923 17.5086 14.8723 14.624 12.7653 14.0979C10.6582 13.5717 10.0706 16.2453 11.6289 17.4658C10.0706 18.687 10.659 21.3606 12.7653 20.8344C14.8715 20.3083 15.923 17.4237 15.923 17.4237" fill="white"/>
<path d="M15.9237 17.494C15.9237 17.494 15.2221 15.5728 13.8223 15.2221C12.4224 14.8713 12.0272 16.6526 13.065 17.4657C12.0272 18.2796 12.4184 20.0601 13.8223 19.7101C15.2262 19.3602 15.9237 17.4382 15.9237 17.4382" fill="black"/>
<path d="M17.5179 19.0085C17.5179 19.0085 13.9229 20.3203 13.2675 22.9446C12.612 25.5689 15.9435 26.3036 17.4654 24.3638C18.9881 26.3036 22.3204 25.5713 21.6681 22.947C21.0159 20.3227 17.4169 19.011 17.4169 19.011" fill="white"/>
<path d="M17.5079 19.0085C17.5079 19.0085 14.6242 20.0592 14.098 22.1663C13.5719 24.2733 16.2455 24.8601 17.4659 23.3026C18.6871 24.8601 21.3607 24.2725 20.8337 22.1663C20.3068 20.06 17.4239 19.0085 17.4239 19.0085" fill="white"/>
<path d="M17.4939 19.0085C17.4939 19.0085 15.5727 19.7101 15.2219 21.1099C14.8712 22.5098 16.6525 22.9042 17.4656 21.8672C18.2794 22.9042 20.06 22.5138 19.7092 21.1099C19.3584 19.706 17.4381 19.0085 17.4381 19.0085" fill="black"/>
<path d="M19.0073 17.4133C19.0073 17.4133 20.3191 21.0083 22.9434 21.6645C25.5677 22.3208 26.3023 18.9885 24.3602 17.4618C26.2999 15.9399 25.5677 12.6076 22.9434 13.2639C20.3191 13.9201 19.0073 17.5143 19.0073 17.5143" fill="white"/>
<path d="M19.0073 17.4237C19.0073 17.4237 20.058 20.3075 22.1651 20.8336C24.2721 21.3598 24.8589 18.687 23.3014 17.4658C24.8589 16.2453 24.2713 13.5717 22.1651 14.0979C20.0588 14.624 19.0073 17.5078 19.0073 17.5078" fill="white"/>
<path d="M19.0073 17.4384C19.0073 17.4384 19.7081 19.3595 21.1087 19.7095C22.5094 20.0595 22.903 18.2798 21.8652 17.4659C22.903 16.6528 22.5118 14.8723 21.1087 15.2223C19.7056 15.5722 19.0073 17.4942 19.0073 17.4942" fill="black"/>
<path d="M17.4647 20.6641C16.8322 20.6641 16.2139 20.4765 15.688 20.1251C15.162 19.7737 14.7521 19.2742 14.51 18.6898C14.268 18.1055 14.2047 17.4624 14.3281 16.842C14.4515 16.2217 14.756 15.6518 15.2033 15.2045C15.6506 14.7573 16.2204 14.4527 16.8408 14.3293C17.4612 14.2059 18.1042 14.2692 18.6886 14.5113C19.273 14.7533 19.7725 15.1632 20.1239 15.6892C20.4753 16.2151 20.6629 16.8334 20.6629 17.466C20.662 18.3139 20.3248 19.1269 19.7252 19.7264C19.1256 20.326 18.3127 20.6632 17.4647 20.6641Z" fill="white"/>
<path d="M17.4653 19.7093C18.7044 19.7093 19.7089 18.7048 19.7089 17.4657C19.7089 16.2266 18.7044 15.222 17.4653 15.222C16.2262 15.222 15.2217 16.2266 15.2217 17.4657C15.2217 18.7048 16.2262 19.7093 17.4653 19.7093Z" fill="black"/>
</g>
<defs>
<clipPath id="clip0_658_4880">
<rect width="35" height="35" fill="white"/>
</clipPath>
</defs>
</svg>
