<svg width="35" height="35" viewBox="0 0 35 35" fill="none" xmlns="http://www.w3.org/2000/svg">
<g clip-path="url(#clip0_795_1300)">
<path d="M33.0175 12.0033L24.2248 15.1208L23.5717 15.354L20.0733 16.5901L17.5 17.4997L18.6739 15.0353L20.2677 11.6923L20.5709 11.0626L24.5824 2.65077C25.2199 2.59635 27.3734 2.6119 28.3452 5.28626C28.8972 5.06081 29.799 4.96752 30.5064 5.7605L30.5375 5.79159C31.245 6.58457 31.0662 7.47085 30.7863 7.99173C33.3285 9.24339 33.1342 11.3658 33.0175 12.0033Z" fill="white"/>
<path d="M32.5122 11.9179L24.0382 14.9187L17.5 17.4998L20.7574 11.2726L24.6291 3.1562C25.1499 3.10178 27.1246 3.0629 27.9565 5.72172L28.0575 6.04047L28.3374 5.86943C28.3763 5.84611 29.3558 5.25526 30.1333 6.11044L30.1644 6.14154C30.9418 7.00449 30.2499 7.91408 30.2188 7.95295L30.0167 8.21728L30.3199 8.34944C32.8698 9.44562 32.6211 11.4125 32.5122 11.9179Z" fill="black"/>
<path d="M20.1744 15.8982L17.5 17.5075L19.7934 14.5377C20.6175 13.4726 21.3872 12.3609 22.149 11.2491C24.6446 7.58744 26.215 9.66318 26.215 9.66318C26.215 9.66318 28.0809 11.4668 24.2326 13.597C22.8721 14.3433 21.5038 15.0974 20.1744 15.8982Z" fill="white" stroke="white" stroke-width="1.7315" stroke-miterlimit="10" stroke-linecap="round" stroke-linejoin="round"/>
<path d="M24.5823 2.64324L20.5708 11.0628L20.2753 11.6925L18.6816 15.0355L17.5077 17.5L16.5903 14.9267L15.3542 11.436L15.121 10.7752L12.0112 1.99019C12.4233 1.50041 13.9548 -0.00780848 16.5359 1.18944C16.7691 0.63746 17.3366 -0.0622288 18.4017 -3.41898e-05H18.4484C19.5135 0.0543861 20.011 0.808495 20.182 1.3838C22.8486 0.466425 24.2169 2.10681 24.5823 2.64324Z" fill="white"/>
<path d="M24.1702 2.93888L20.2986 11.0553L17.4998 17.5002L15.393 10.7987L12.3921 2.32471C12.7186 1.92045 14.0947 0.497746 16.5591 1.78051L16.8546 1.936L16.9323 1.61725C16.9401 1.5706 17.2199 0.458875 18.3783 0.521069H18.425C19.5833 0.583264 19.7388 1.71831 19.7388 1.76496L19.7777 2.09148L20.0887 1.96709C22.6697 0.940883 23.8903 2.50352 24.1702 2.93888Z" fill="black"/>
<path d="M18.2541 14.4762L17.5 17.5004L17.018 13.7765C16.847 12.4393 16.606 11.1099 16.3572 9.78828C15.5331 5.43466 18.1142 5.79228 18.1142 5.79228C18.1142 5.79228 20.7108 5.74563 19.4902 9.97486C19.0626 11.4675 18.6351 12.968 18.2541 14.4762Z" fill="white" stroke="white" stroke-width="1.7315" stroke-miterlimit="10" stroke-linecap="round" stroke-linejoin="round"/>
<path d="M12.0033 1.9906L15.1208 10.7834L15.354 11.4364L16.5901 14.9349L17.4997 17.5082L15.043 16.3265L11.7001 14.7327L11.0704 14.4295L2.65077 10.418C2.59635 9.78048 2.6119 7.62699 5.28626 6.6552C5.06081 6.10322 4.96752 5.2014 5.7605 4.49394L5.79159 4.46284C6.58457 3.75538 7.47085 3.93419 7.99173 4.21406C9.24339 1.67186 11.3658 1.86622 12.0033 1.9906Z" fill="white"/>
<path d="M11.9179 2.48855L14.9187 10.9626L17.4998 17.5008L11.2726 14.2511L3.1562 10.3795C3.10178 9.85861 3.0629 7.88393 5.72172 7.05207L6.04047 6.95101L5.86943 6.67113C5.84611 6.63226 5.25526 5.6527 6.11044 4.87526L6.14154 4.84417C7.00449 4.06674 7.91408 4.75865 7.95295 4.78975L8.21728 4.99188L8.34944 4.68868C9.44562 2.1387 11.4125 2.37971 11.9179 2.48855Z" fill="black"/>
<path d="M15.8982 14.8259L17.5075 17.5002L14.5377 15.2068C13.4726 14.3827 12.3609 13.6131 11.2491 12.8512C7.58744 10.3556 9.66318 8.78522 9.66318 8.78522C9.66318 8.78522 11.4668 6.91939 13.597 10.7677C14.3433 12.1282 15.0974 13.4965 15.8982 14.8259Z" fill="white" stroke="white" stroke-width="1.7315" stroke-miterlimit="10" stroke-linecap="round" stroke-linejoin="round"/>
<path d="M2.64324 10.418L11.0628 14.4295L11.6925 14.7249L15.0355 16.3187L17.5 17.4926L14.9267 18.41L11.436 19.6461L10.7752 19.8793L1.99019 22.989C1.50041 22.577 -0.00780848 21.0455 1.18944 18.4644C0.63746 18.2312 -0.0622288 17.6636 -3.41898e-05 16.5986V16.5597C0.0543861 15.4946 0.808495 14.997 1.3838 14.826C0.466425 12.1516 2.10681 10.7834 2.64324 10.418Z" fill="white"/>
<path d="M2.93888 10.8301L11.0553 14.7017L17.5002 17.5004L10.7987 19.6073L2.32471 22.6082C1.92045 22.2817 0.497746 20.9056 1.78051 18.4411L1.936 18.1457L1.61725 18.068C1.5706 18.0602 0.458875 17.7803 0.521069 16.6219V16.5753C0.583264 15.4169 1.71831 15.2614 1.76496 15.2614L2.09148 15.2226L1.96709 14.9116C0.940883 12.3305 2.50352 11.11 2.93888 10.8301Z" fill="black"/>
<path d="M14.4757 16.746L17.4999 17.5001L13.776 17.9821C12.4388 18.1532 11.1094 18.3942 9.78779 18.643C5.43417 19.467 5.79179 16.886 5.79179 16.886C5.79179 16.886 5.74514 14.2893 9.97437 15.5099C11.467 15.9375 12.9675 16.3729 14.4757 16.746Z" fill="white" stroke="white" stroke-width="1.7315" stroke-miterlimit="10" stroke-linecap="round" stroke-linejoin="round"/>
<path d="M1.99012 22.9964L10.7829 19.8789L11.4359 19.6457L14.9344 18.4096L17.5077 17.5L16.326 19.9645L14.7322 23.3074L14.429 23.9371L10.4175 32.349C9.77999 32.4034 7.6265 32.3878 6.65471 29.7135C6.10273 29.9389 5.20091 30.0322 4.49345 29.2392L4.46235 29.2081C3.75489 28.4151 3.9337 27.5289 4.21357 27.008C1.67137 25.7641 1.86573 23.6339 1.99012 22.9964Z" fill="white"/>
<path d="M2.48757 23.082L10.9616 20.0811L17.4998 17.5L14.2501 23.7272L10.3785 31.8436C9.85763 31.898 7.88295 31.9369 7.0511 29.2781L6.95003 28.9594L6.67016 29.1304C6.63129 29.1537 5.65172 29.7446 4.87429 28.8894L4.84319 28.8583C4.06576 27.9953 4.75767 27.0857 4.78877 27.0469L4.9909 26.7825L4.6877 26.6504C2.13773 25.5542 2.37873 23.5873 2.48757 23.082Z" fill="black"/>
<path d="M14.8254 19.1093L17.4998 17.5L15.2063 20.4698C14.3822 21.5349 13.6126 22.6466 12.8507 23.7583C10.3551 27.42 8.78474 25.3443 8.78474 25.3443C8.78474 25.3443 6.9189 23.5406 10.7672 21.4105C12.1277 20.6564 13.496 19.91 14.8254 19.1093Z" fill="white" stroke="white" stroke-width="1.7315" stroke-miterlimit="10" stroke-linecap="round" stroke-linejoin="round"/>
<path d="M10.4175 32.3567L14.429 23.9371L14.7245 23.3074L16.3182 19.9645L17.4921 17.5L18.4017 20.0733L19.6378 23.564L19.8711 24.2248L22.9808 33.0098C22.5687 33.4996 21.0372 35.0078 18.4561 33.8105C18.2229 34.3625 17.6554 35.0622 16.5903 35H16.5592C15.4941 34.9456 14.9966 34.1915 14.8255 33.6162C12.1512 34.5335 10.7829 32.8932 10.4175 32.3567Z" fill="white"/>
<path d="M10.8296 32.0613L14.7012 23.9449L17.5 17.5L19.6068 24.2015L22.6077 32.6755C22.2812 33.0797 20.9051 34.5024 18.4407 33.2197L18.1452 33.0642L18.0675 33.3829C18.0597 33.4296 17.7798 34.5413 16.6215 34.4791H16.5748C15.4164 34.4169 15.261 33.2819 15.261 33.2352L15.2221 32.9087L14.9111 33.0331C12.33 34.0593 11.1095 32.4967 10.8296 32.0613Z" fill="black"/>
<path d="M16.7455 20.5242L17.4996 17.5L17.9817 21.2239C18.1527 22.5611 18.3937 23.8905 18.6425 25.2121C19.4666 29.5657 16.8855 29.2081 16.8855 29.2081C16.8855 29.2081 14.2889 29.2548 15.5094 25.0255C15.937 23.5329 16.3724 22.0324 16.7455 20.5242Z" fill="white" stroke="white" stroke-width="1.7315" stroke-miterlimit="10" stroke-linecap="round" stroke-linejoin="round"/>
<path d="M22.9964 33.0175L19.8789 24.2248L19.6457 23.5717L18.4096 20.0733L17.5 17.5L19.9645 18.6739L23.3074 20.2677L23.9371 20.5709L32.349 24.5824C32.4034 25.2199 32.3878 27.3734 29.7135 28.3452C29.9389 28.8972 30.0322 29.799 29.2392 30.5064L29.2081 30.5375C28.4151 31.245 27.5289 31.0662 27.008 30.7863C25.7641 33.3285 23.6339 33.1342 22.9964 33.0175Z" fill="white"/>
<path d="M23.082 32.5122L20.0811 24.0382L17.5 17.5L23.7272 20.7497L31.8436 24.6213C31.898 25.1422 31.9369 27.1168 29.2781 27.9487L28.9594 28.0498L29.1304 28.3296C29.1537 28.3685 29.7446 29.3481 28.8894 30.1255L28.8583 30.1566C27.9953 30.934 27.0857 30.2421 27.0469 30.211L26.7825 30.0089L26.6504 30.3121C25.5542 32.8698 23.5873 32.6211 23.082 32.5122Z" fill="black"/>
<path d="M19.1093 20.1744L17.5 17.5L20.4698 19.7934C21.5349 20.6175 22.6466 21.3872 23.7583 22.149C27.42 24.6446 25.3443 26.215 25.3443 26.215C25.3443 26.215 23.5406 28.0809 21.4105 24.2326C20.6564 22.8721 19.91 21.5038 19.1093 20.1744Z" fill="white" stroke="white" stroke-width="1.7315" stroke-miterlimit="10" stroke-linecap="round" stroke-linejoin="round"/>
<path d="M32.3567 24.5819L23.9371 20.5703L23.3074 20.2749L19.9645 18.6811L17.5 17.5072L20.0733 16.5976L23.564 15.3615L24.2248 15.1283L33.0098 12.0186C33.4996 12.4306 35.0078 13.9621 33.8105 16.5432C34.3625 16.7764 35.0622 17.344 35 18.409V18.4557C34.9456 19.5208 34.1915 20.0183 33.6162 20.1894C34.5335 22.8482 32.8932 24.2165 32.3567 24.5819Z" fill="white"/>
<path d="M32.0613 24.1697L23.9449 20.2981L17.5 17.4993L24.2015 15.3925L32.6755 12.3916C33.0797 12.7181 34.5024 14.0942 33.2197 16.5586L33.0642 16.8541L33.3829 16.9318C33.4296 16.9396 34.5413 17.2195 34.4791 18.3778V18.4245C34.4169 19.5829 33.2819 19.7383 33.2352 19.7383L32.9087 19.7772L33.0331 20.0882C34.0593 22.6693 32.4967 23.8898 32.0613 24.1697Z" fill="black"/>
<path d="M20.5242 18.2536L17.5 17.4995L21.2239 17.0175C22.5611 16.8465 23.8905 16.6055 25.2121 16.3567C29.5657 15.5326 29.2081 18.1137 29.2081 18.1137C29.2081 18.1137 29.2548 20.7103 25.0255 19.4897C23.5329 19.0622 22.0324 18.6346 20.5242 18.2536Z" fill="white" stroke="white" stroke-width="1.7315" stroke-miterlimit="10" stroke-linecap="round" stroke-linejoin="round"/>
<path d="M17.1812 18.0051L17.8964 13.3872L18.1141 11.8478C18.2229 11.086 18.8837 10.4873 19.6534 10.5262C20.3764 10.5573 20.7884 11.1015 21.0916 11.5524C21.5192 12.1977 21.7913 12.3065 21.7913 12.3065C21.7913 12.3065 21.9546 12.5475 22.6776 12.8352C23.1752 13.0373 23.7971 13.325 23.9759 14.0247C24.1703 14.771 23.7271 15.5406 22.9963 15.805L21.5425 16.3414L17.1812 18.0051Z" fill="#1F1E1D" stroke="white" stroke-width="0.9932" stroke-miterlimit="10"/>
<path d="M17.8883 17.9584L13.7135 15.8516L12.3219 15.1674C11.63 14.8254 11.2646 14.0168 11.5367 13.2938C11.7932 12.6175 12.4385 12.392 12.9594 12.2443C13.7057 12.0344 13.8923 11.8167 13.8923 11.8167C13.8923 11.8167 14.1722 11.7312 14.662 11.1403C15.004 10.7283 15.4783 10.223 16.1935 10.2696C16.9632 10.3163 17.554 10.9771 17.5851 11.7467L17.6473 13.2938L17.8883 17.9584Z" fill="#1F1E1D" stroke="white" stroke-width="0.9932" stroke-miterlimit="10"/>
<path d="M18.0594 17.2743L14.7631 20.5939L13.6825 21.7056C13.1383 22.2576 12.2598 22.3509 11.6612 21.8689C11.0936 21.418 11.0781 20.7338 11.1014 20.1974C11.1325 19.4278 10.977 19.179 10.977 19.179C10.977 19.179 10.9848 18.8836 10.5728 18.2305C10.2851 17.7796 9.95858 17.1732 10.2229 16.5046C10.5028 15.7894 11.3191 15.4318 12.0576 15.6417L13.5503 16.0615L18.0594 17.2743Z" fill="#1F1E1D" stroke="white" stroke-width="0.9932" stroke-miterlimit="10"/>
<path d="M17.4606 16.9014L19.5985 21.0606L20.3215 22.4289C20.6791 23.1131 20.5003 23.9838 19.8551 24.4036C19.2487 24.8079 18.5956 24.6057 18.0903 24.4191C17.3673 24.1548 17.0874 24.217 17.0874 24.217C17.0874 24.217 16.8075 24.1159 16.0612 24.3103C15.5403 24.4425 14.8639 24.5746 14.312 24.1159C13.7211 23.6262 13.6278 22.7399 14.0554 22.1024L14.9184 20.8119L17.4606 16.9014Z" fill="#1F1E1D" stroke="white" stroke-width="0.9932" stroke-miterlimit="10"/>
<path d="M16.9165 17.3522L21.5345 16.6059L23.066 16.3416C23.8279 16.2094 24.5975 16.6525 24.7997 17.3989C24.994 18.0986 24.6053 18.6583 24.2632 19.0781C23.7812 19.6845 23.7657 19.9722 23.7657 19.9722C23.7657 19.9722 23.5869 20.2054 23.5402 20.9751C23.5014 21.5115 23.4236 22.1879 22.8094 22.5843C22.1564 22.9964 21.2934 22.8098 20.8114 22.2034L19.8474 20.9828L16.9165 17.3522Z" fill="#1F1E1D" stroke="white" stroke-width="0.9932" stroke-miterlimit="10"/>
<path d="M17.4996 19.3655C18.5301 19.3655 19.3655 18.5301 19.3655 17.4996C19.3655 16.4692 18.5301 15.6338 17.4996 15.6338C16.4692 15.6338 15.6338 16.4692 15.6338 17.4996C15.6338 18.5301 16.4692 19.3655 17.4996 19.3655Z" fill="white" stroke="white" stroke-width="0.7912" stroke-miterlimit="10"/>
<path d="M17.4659 5C18.759 5 19.8097 6.07979 19.7095 7.76251C19.6093 9.44523 17.4659 11.6299 17.4659 11.6299C17.4659 11.6299 15.3208 9.44765 15.2222 7.76251C15.1236 6.07736 16.1759 5 17.4659 5Z" fill="black" stroke="white" stroke-width="0.53" stroke-miterlimit="10" stroke-linecap="round"/>
<path d="M5 17.4661C5 16.1729 6.07979 15.1222 7.76251 15.2224C9.44523 15.3227 11.6299 17.4661 11.6299 17.4661C11.6299 17.4661 9.44765 19.6119 7.76251 19.7105C6.07736 19.8091 5 18.7568 5 17.4661Z" fill="black" stroke="white" stroke-width="0.53" stroke-miterlimit="10" stroke-linecap="round"/>
<path d="M17.4661 29.9326C16.1729 29.9326 15.1222 28.8528 15.2224 27.1701C15.3227 25.4874 17.4661 23.3027 17.4661 23.3027C17.4661 23.3027 19.6119 25.4849 19.7097 27.1701C19.8075 28.8552 18.7568 29.9326 17.4661 29.9326Z" fill="black" stroke="white" stroke-width="0.53" stroke-miterlimit="10" stroke-linecap="round"/>
<path d="M29.9316 17.4659C29.9316 18.759 28.8518 19.8097 27.1691 19.7095C25.4864 19.6093 23.3018 17.4659 23.3018 17.4659C23.3018 17.4659 25.484 15.3208 27.1691 15.2222C28.8543 15.1236 29.9316 16.1759 29.9316 17.4659Z" fill="black" stroke="white" stroke-width="0.53" stroke-miterlimit="10" stroke-linecap="round"/>
<path d="M25.0599 17.4663C25.8544 16.5974 26.1502 15.3544 25.7784 14.2778C25.439 13.2942 24.621 12.7066 23.5914 12.7066C23.3336 12.7088 23.0771 12.7424 22.8276 12.8069C22.3925 12.9178 21.9774 13.0961 21.5975 13.3354C21.8365 12.9553 22.0148 12.5403 22.1261 12.1053C22.3936 11.0352 22.0727 10.3272 21.7575 9.92313C21.2976 9.33393 20.5452 8.99609 19.6933 8.99609C18.8674 9.00164 18.0729 9.31388 17.4642 9.87221C16.8559 9.3138 16.0617 9.00153 15.236 8.99609C14.3833 8.99609 13.6316 9.33393 13.1718 9.92313C12.8557 10.3272 12.5357 11.0336 12.8032 12.1053C12.9141 12.5404 13.0925 12.9555 13.3318 13.3354C12.9519 13.0965 12.5372 12.9182 12.1025 12.8069C11.8531 12.743 11.5969 12.7099 11.3395 12.7083C10.309 12.7083 9.49111 13.2958 9.15165 14.2794C8.77987 15.356 9.07649 16.5991 9.87097 17.4679C9.07649 18.3375 8.78068 19.5798 9.15165 20.6563C9.49191 21.6407 10.309 22.2283 11.3395 22.2283C11.5969 22.2267 11.8531 22.1936 12.1025 22.1297C12.5375 22.0185 12.9525 21.8401 13.3326 21.6011C13.0941 21.9804 12.9163 22.3947 12.8056 22.8288C12.5381 23.8981 12.8582 24.6069 13.1742 25.011C13.6341 25.6002 14.3865 25.9381 15.2384 25.9381C16.0641 25.9326 16.8583 25.6204 17.4667 25.062C18.0756 25.62 18.8699 25.9321 19.6957 25.9381C20.5476 25.9381 21.3001 25.6002 21.7599 25.011C22.0751 24.6069 22.396 23.9005 22.1285 22.8288C22.0172 22.3938 21.8389 21.9788 21.5999 21.5987C21.9792 21.8378 22.3934 22.0164 22.8276 22.1281C23.077 22.1919 23.3332 22.2251 23.5906 22.2267C24.621 22.2267 25.4382 21.6391 25.7784 20.6555C26.1502 19.579 25.8544 18.3359 25.0599 17.4663Z" fill="black"/>
<path d="M17.4122 15.9243C17.4122 15.9243 21.0072 14.6117 21.6634 11.9882C22.3197 9.36472 18.9866 8.62924 17.4607 10.5706C15.9388 8.63086 12.6065 9.36391 13.2628 11.9882C13.919 14.6125 17.5132 15.9243 17.5132 15.9243" fill="white"/>
<path d="M17.4239 15.9235C17.4239 15.9235 20.3076 14.8728 20.8337 12.7657C21.3599 10.6587 18.6871 10.0711 17.4659 11.6294C16.2455 10.0711 13.5719 10.6595 14.098 12.7657C14.6242 14.872 17.5079 15.9235 17.5079 15.9235" fill="white"/>
<path d="M17.4381 15.9242C17.4381 15.9242 19.3592 15.2226 19.7092 13.8228C20.0592 12.4229 18.2794 12.0277 17.4656 13.0655C16.6525 12.0277 14.8712 12.4189 15.2219 13.8228C15.5727 15.2267 17.4939 15.9242 17.4939 15.9242" fill="black"/>
<path d="M15.9233 17.5184C15.9233 17.5184 14.6107 13.9234 11.9872 13.268C9.36375 12.6125 8.62826 15.944 10.5696 17.4659C8.62988 18.9886 9.36294 22.3209 11.9872 21.6686C14.6115 21.0164 15.9233 17.4174 15.9233 17.4174" fill="white"/>
<path d="M15.923 17.5087C15.923 17.5087 14.8723 14.6242 12.7653 14.098C10.6582 13.5719 10.0706 16.2455 11.6289 17.4659C10.0706 18.6871 10.659 21.3607 12.7653 20.8346C14.8715 20.3084 15.923 17.4239 15.923 17.4239" fill="white"/>
<path d="M15.9237 17.4939C15.9237 17.4939 15.2221 15.5727 13.8223 15.2219C12.4224 14.8712 12.0272 16.6525 13.065 17.4656C12.0272 18.2794 12.4184 20.06 13.8223 19.71C15.2262 19.36 15.9237 17.4381 15.9237 17.4381" fill="black"/>
<path d="M17.5179 19.0088C17.5179 19.0088 13.9229 20.3205 13.2675 22.9448C12.612 25.5691 15.9435 26.3038 17.4654 24.3641C18.9881 26.3038 22.3204 25.5716 21.6681 22.9473C21.0159 20.323 17.4169 19.0112 17.4169 19.0112" fill="white"/>
<path d="M17.5079 19.0088C17.5079 19.0088 14.6242 20.0595 14.098 22.1665C13.5719 24.2736 16.2455 24.8603 17.4659 23.3029C18.6871 24.8603 21.3607 24.2727 20.8337 22.1665C20.3068 20.0603 17.4239 19.0088 17.4239 19.0088" fill="white"/>
<path d="M17.4939 19.0088C17.4939 19.0088 15.5727 19.7103 15.2219 21.1102C14.8712 22.51 16.6525 22.9044 17.4656 21.8675C18.2794 22.9044 20.06 22.5141 19.7092 21.1102C19.3584 19.7063 17.4381 19.0088 17.4381 19.0088" fill="black"/>
<path d="M19.0073 17.4137C19.0073 17.4137 20.3191 21.0086 22.9434 21.6649C25.5677 22.3212 26.3023 18.9889 24.3602 17.4621C26.2999 15.9403 25.5677 12.608 22.9434 13.2642C20.3191 13.9205 19.0073 17.5147 19.0073 17.5147" fill="white"/>
<path d="M19.0073 17.4239C19.0073 17.4239 20.058 20.3076 22.1651 20.8337C24.2721 21.3599 24.8589 18.6871 23.3014 17.4659C24.8589 16.2455 24.2713 13.5719 22.1651 14.098C20.0588 14.6242 19.0073 17.5079 19.0073 17.5079" fill="white"/>
<path d="M19.0073 17.4389C19.0073 17.4389 19.7081 19.36 21.1087 19.71C22.5094 20.06 22.903 18.2802 21.8652 17.4664C22.903 16.6533 22.5118 14.8728 21.1087 15.2227C19.7056 15.5727 19.0073 17.4947 19.0073 17.4947" fill="black"/>
<path d="M17.4647 20.6639C16.8322 20.6639 16.2139 20.4763 15.688 20.1249C15.162 19.7735 14.7521 19.274 14.51 18.6896C14.268 18.1052 14.2047 17.4622 14.3281 16.8418C14.4515 16.2214 14.756 15.6516 15.2033 15.2043C15.6506 14.757 16.2204 14.4524 16.8408 14.329C17.4612 14.2056 18.1042 14.269 18.6886 14.511C19.273 14.7531 19.7725 15.163 20.1239 15.6889C20.4753 16.2149 20.6629 16.8332 20.6629 17.4657C20.662 18.3137 20.3248 19.1266 19.7252 19.7262C19.1256 20.3258 18.3127 20.663 17.4647 20.6639Z" fill="white"/>
<path d="M17.4653 19.7089C18.7044 19.7089 19.7089 18.7044 19.7089 17.4653C19.7089 16.2262 18.7044 15.2217 17.4653 15.2217C16.2262 15.2217 15.2217 16.2262 15.2217 17.4653C15.2217 18.7044 16.2262 19.7089 17.4653 19.7089Z" fill="black"/>
</g>
<defs>
<clipPath id="clip0_795_1300">
<rect width="35" height="35" fill="white"/>
</clipPath>
</defs>
</svg>
