<svg width="35" height="25" viewBox="0 0 35 25" fill="none" xmlns="http://www.w3.org/2000/svg">
<g clip-path="url(#clip0_795_1376)">
<path d="M2.43457 14.4215C2.43457 14.7373 2.45538 15.032 2.46578 15.3478C2.55942 16.5688 2.79872 17.7583 3.31893 18.7794C3.81834 19.8109 4.59866 20.6741 5.54545 21.3057C6.50264 21.9373 7.64712 22.3478 8.8228 22.5583C9.12452 22.6109 9.41584 22.6425 9.71757 22.6741C9.86323 22.6846 10.0193 22.6952 10.1545 22.6952H10.6227C11.1742 22.6952 11.684 22.5899 12.1522 22.3899C13.0781 22.0004 13.7856 21.1688 14.1082 20.1267C14.2642 19.6215 14.3475 19.0215 14.2954 18.5794C14.233 18.1162 14.0457 17.653 13.744 17.2846C13.4423 16.9057 13.0365 16.6215 12.5891 16.4636C12.3707 16.3899 12.1106 16.3373 11.8921 16.3267C11.6736 16.3162 11.4551 16.3478 11.247 16.4109C10.8308 16.5478 10.4563 16.853 10.2274 17.232C9.98808 17.6004 9.89444 18.1162 9.97767 18.4846C10.0609 18.8741 10.3314 19.232 10.6956 19.4215C10.8724 19.5162 11.0909 19.5688 11.2782 19.5794C11.4551 19.5794 11.632 19.5373 11.7776 19.4425C11.9337 19.3583 12.0585 19.2215 12.1418 19.0636C12.225 18.9057 12.2562 18.6952 12.277 18.5583C12.2874 18.2741 12.3498 17.8004 11.736 17.1688C12.0897 16.9057 12.61 16.9162 13.0365 17.1478C13.4631 17.3794 13.796 17.8425 13.8897 18.3583C14.0562 19.4004 13.5255 20.3899 12.6932 20.9267C12.277 21.1899 11.788 21.3478 11.2886 21.3478C11.1013 21.3478 10.9245 21.3373 10.758 21.3057C10.0713 21.3057 9.38463 21.1267 8.77078 20.7899C7.22054 19.8951 6.37779 18.0951 6.54426 16.3162C6.58588 15.8215 6.71073 15.3267 6.90841 14.853C7.1165 14.3688 7.39741 13.9267 7.75116 13.5267L7.83439 13.4425C8.00086 13.253 8.18814 13.0846 8.37541 12.9373C8.5835 12.7688 8.80199 12.6215 9.04129 12.4741C9.0621 12.4636 9.08291 12.453 9.11412 12.432C8.63552 11.6004 7.96965 9.85304 9.62393 8.48462C9.62393 8.48462 9.17654 6.49515 11.1325 5.46357C13.0573 4.44252 14.5035 5.74778 14.5035 5.74778C14.5035 5.74778 15.0342 3.73725 17.3023 3.65304C19.5704 3.65304 20.1739 5.64252 20.1739 5.64252C20.1739 5.64252 21.568 4.2741 23.5345 5.22146C25.5217 6.17936 25.1575 8.17936 25.1575 8.17936C26.8638 9.48462 26.2604 11.2636 25.8234 12.1057C25.8442 12.1162 25.865 12.1267 25.8962 12.1373C26.1355 12.2636 26.3644 12.4109 26.5829 12.5688C26.7806 12.7162 26.9679 12.8741 27.1447 13.053L27.228 13.1373C27.5921 13.5162 27.8938 13.9478 28.1227 14.432C28.3412 14.8951 28.4869 15.3899 28.5493 15.8741C28.7782 17.653 28.0083 19.4741 26.4893 20.432C25.8858 20.8004 25.2095 21.0004 24.5229 21.032C24.3564 21.0741 24.1795 21.0846 24.0026 21.0951C23.5032 21.1057 23.0038 20.9794 22.5877 20.7267C21.7345 20.2215 21.1727 19.253 21.2871 18.2109C21.36 17.6846 21.6721 17.2109 22.0883 16.9688C22.5044 16.7162 23.0246 16.6951 23.3888 16.9478C22.7957 17.6004 22.8686 18.0741 22.8998 18.3583C22.9206 18.4951 22.9622 18.7057 23.0455 18.853C23.1391 19.0109 23.2743 19.1373 23.4304 19.2215C23.5865 19.3057 23.7633 19.3478 23.9298 19.3373C24.1171 19.3162 24.3356 19.2636 24.5021 19.1583C24.8662 18.9583 25.1159 18.5899 25.1887 18.1899C25.2616 17.8215 25.1367 17.3162 24.887 16.9478C24.6373 16.5688 24.2628 16.2846 23.8362 16.1688C23.6281 16.1057 23.4096 16.0846 23.1911 16.1057C22.9726 16.1267 22.7125 16.1794 22.494 16.2636C22.0466 16.432 21.6617 16.7373 21.3704 17.1267C21.0894 17.5162 20.9126 17.9794 20.871 18.4425C20.8397 18.8846 20.9334 19.4741 21.1207 19.9794C21.4744 21.0109 22.2131 21.8109 23.1599 22.1583C23.6281 22.3373 24.1483 22.4215 24.6997 22.4004L25.1575 22.3794C25.3032 22.3688 25.4488 22.3583 25.5945 22.3373C25.8858 22.3057 26.1875 22.253 26.4789 22.1899C27.6545 21.9373 28.7782 21.4741 29.7146 20.8109C30.651 20.1373 31.3897 19.253 31.8475 18.2004C32.3261 17.1583 32.5238 15.9583 32.5654 14.7373C32.5654 14.4215 32.5654 14.1162 32.555 13.8109C32.5342 13.4951 32.5238 13.1794 32.4821 12.8741C32.4197 12.2636 32.3053 11.6636 32.1492 11.0846C31.9827 10.5057 31.785 9.93725 31.5145 9.40041C31.2544 8.86357 30.9423 8.34778 30.5886 7.8741C29.1736 5.92673 27.0407 4.5162 24.6997 3.61094C23.524 3.15831 22.2963 2.82146 21.0478 2.58988C19.7993 2.35831 18.5404 2.22146 17.2711 2.21094C16.0122 2.2741 14.7532 2.46357 13.5151 2.73725C12.277 3.01094 11.0597 3.40041 9.90484 3.90567C7.59509 4.9162 5.51424 6.41094 4.17209 8.41094C3.83915 8.90567 3.53742 9.43199 3.29813 9.97936C3.04842 10.5267 2.87155 11.1057 2.72589 11.6846C2.58023 12.2741 2.5074 12.8741 2.45538 13.4846C2.44497 13.7899 2.45538 14.1057 2.43457 14.4215Z" fill="white"/>
<path d="M14.2539 12.3481C14.4724 12.4639 14.6909 12.5902 14.899 12.7375C15.3776 13.0744 15.7937 13.4533 16.1267 13.8323C16.1579 12.4954 17.4376 11.3586 17.4376 11.3586C17.4376 11.3586 18.7694 12.4428 18.8526 13.7796C19.1751 13.3902 19.5705 12.9902 20.0387 12.6323C20.2364 12.4849 20.4549 12.3375 20.6629 12.2217C20.3508 10.6428 18.967 10.7796 18.967 10.7796C18.759 8.90595 17.3856 8.93753 17.3856 8.93753C17.2816 8.94806 16.0018 9.03227 15.877 10.8428C15.8874 10.8533 14.5036 10.7691 14.2539 12.3481Z" fill="white"/>
<path d="M9.1036 12.4635C9.97756 11.9583 10.966 11.7161 11.9856 11.7583C12.7659 11.7898 13.515 11.9898 14.2225 12.3477C14.2329 12.3477 14.2433 12.3583 14.2433 12.3583C14.493 10.7793 15.8768 10.8635 15.8768 10.8635C16.0016 9.05299 17.2918 8.95825 17.3854 8.95825C17.3854 8.95825 18.7588 8.92668 18.9669 10.8004C18.9669 10.8004 20.3506 10.6635 20.6628 12.2425C21.3598 11.8425 22.1194 11.6004 22.8997 11.5477C23.9193 11.4635 24.9181 11.674 25.8129 12.1372C26.2603 11.2846 26.8637 9.51615 25.147 8.21089C25.147 8.21089 25.5112 6.21089 23.5239 5.25299C21.5575 4.30562 20.1633 5.67404 20.1633 5.67404C20.1633 5.67404 19.5495 3.68457 17.2918 3.68457C15.0236 3.76878 14.493 5.77931 14.493 5.77931C14.493 5.77931 13.0364 4.47404 11.122 5.4951C9.17643 6.52668 9.61341 8.51615 9.61341 8.51615C7.95913 9.88457 8.625 11.6319 9.1036 12.4635Z" fill="black"/>
<path d="M0 14.4209C0 14.7893 0.0208086 15.1577 0.0312128 15.5261C0.14566 16.9998 0.468193 18.5051 1.17568 19.8945C1.86237 21.2945 2.97562 22.4945 4.26576 23.3156C5.55589 24.1472 7.00208 24.6419 8.45868 24.863C8.82283 24.9261 9.18698 24.9577 9.56153 24.9893C9.74881 24.9998 9.93609 25.0103 10.1338 25.0103H10.6748C11.4655 24.9893 12.2875 24.8314 13.047 24.484C13.8169 24.1472 14.5036 23.6103 15.0342 22.9682C15.5648 22.3261 15.9498 21.5788 16.1683 20.7998C16.3867 20.0103 16.5012 19.2314 16.3971 18.3261C16.2723 17.4524 15.8977 16.6314 15.3359 15.9682C14.7741 15.3051 14.025 14.8103 13.203 14.5682C12.7869 14.4419 12.3707 14.3682 11.9233 14.3682C11.4759 14.3682 11.0285 14.4419 10.602 14.5998C8.89566 15.2209 7.76159 17.0945 8.19857 18.9788C8.43787 19.9051 9.08294 20.6945 9.92568 21.0945C10.1962 21.2209 10.4667 21.3051 10.758 21.3472C10.9245 21.3788 11.1014 21.3893 11.2886 21.3893C11.7776 21.3788 12.2771 21.2314 12.6932 20.9682C13.5256 20.4314 14.0562 19.4419 13.8897 18.3998C13.7961 17.8735 13.4631 17.4209 13.0366 17.1893C12.61 16.9577 12.0898 16.9577 11.736 17.2103C12.3499 17.8419 12.2875 18.3156 12.2771 18.5998C12.2666 18.7367 12.225 18.9472 12.1418 19.1051C12.0586 19.263 11.9337 19.3998 11.7776 19.484C11.6216 19.5788 11.4551 19.6209 11.2782 19.6209C11.091 19.6103 10.8725 19.5577 10.6956 19.463C10.3315 19.2735 10.0609 18.9156 9.97771 18.5261C9.89447 18.1577 9.98811 17.6524 10.2274 17.2735C10.4667 16.884 10.8309 16.5893 11.247 16.4524C11.4551 16.3893 11.6736 16.3577 11.8921 16.3682C12.1106 16.3788 12.3707 16.4314 12.5892 16.5051C13.047 16.6524 13.4423 16.9472 13.7441 17.3261C14.0458 17.7051 14.2331 18.1577 14.2955 18.6209C14.3475 19.063 14.2747 19.6524 14.1082 20.1682C13.7857 21.2103 13.0782 22.0419 12.1522 22.4314C11.684 22.6314 11.1742 22.7261 10.6228 22.7367H10.1546C10.0193 22.7367 9.86326 22.7261 9.7176 22.7156C9.41587 22.6945 9.12455 22.6524 8.82283 22.5998C7.63674 22.3893 6.50268 21.9788 5.54548 21.3472C4.58829 20.7156 3.80797 19.863 3.31897 18.8209C2.79875 17.7998 2.54905 16.5998 2.46581 15.3893C2.45541 15.0735 2.4346 14.7788 2.4346 14.463C2.44501 14.1472 2.44501 13.8314 2.46581 13.5261C2.50743 12.9156 2.59067 12.3156 2.73633 11.7261C2.88199 11.1367 3.05886 10.5682 3.30856 10.0209C3.54786 9.47349 3.83918 8.94718 4.18252 8.45244C5.52467 6.45244 7.60553 4.9577 9.90487 3.9577C11.0597 3.46297 12.2771 3.07349 13.5152 2.78928C14.7533 2.50507 16.0122 2.32613 17.2711 2.26297C18.5404 2.28402 19.7993 2.41034 21.0479 2.64191C22.2964 2.87349 23.5241 3.21034 24.6998 3.66297C27.0407 4.56823 29.184 5.97876 30.5886 7.92613C30.9527 8.39981 31.2649 8.9156 31.5146 9.45244C31.7851 9.98928 31.9828 10.5577 32.1492 11.1367C32.3157 11.7156 32.4197 12.3156 32.4822 12.9261C32.5238 13.2314 32.5238 13.5472 32.555 13.863C32.5654 14.1788 32.5654 14.484 32.5654 14.7893C32.5238 16.0103 32.3261 17.2103 31.8475 18.2524C31.3897 19.3051 30.651 20.1893 29.7146 20.863C28.7886 21.5261 27.6546 21.9893 26.4789 22.2419C26.1876 22.3051 25.8859 22.3577 25.5945 22.3893C25.4489 22.4103 25.3032 22.4209 25.1576 22.4314L24.6998 22.4524C24.1587 22.4735 23.6281 22.3893 23.1599 22.2103C22.2131 21.863 21.4744 21.0524 21.1207 20.0314C20.9334 19.5261 20.8398 18.9367 20.871 18.4945C20.9126 18.0209 21.0895 17.5577 21.3704 17.1788C21.6513 16.7893 22.0467 16.484 22.4941 16.3156C22.7125 16.2314 22.9622 16.1682 23.1911 16.1577C23.4096 16.1367 23.6281 16.1577 23.8362 16.2209C24.2628 16.3472 24.6373 16.6314 24.887 16.9998C25.1367 17.3577 25.2616 17.863 25.1888 18.2419C25.1159 18.6314 24.8662 19.0103 24.5021 19.2103C24.3356 19.3156 24.1171 19.3682 23.9298 19.3893C23.753 19.3998 23.5865 19.3577 23.4304 19.2735C23.2744 19.1893 23.1391 19.063 23.0455 18.9051C22.9622 18.7577 22.9206 18.5472 22.8998 18.4103C22.8686 18.1261 22.8062 17.6524 23.3888 16.9998C23.0247 16.7577 22.5045 16.7788 22.0883 17.0209C21.6721 17.2735 21.36 17.7367 21.2872 18.263C21.1623 19.3051 21.7345 20.2735 22.5877 20.7788C23.0143 21.0314 23.5137 21.1577 24.0027 21.1472C24.1795 21.1367 24.3564 21.1156 24.5229 21.084C24.8038 21.0209 25.0743 20.9261 25.3344 20.7893C26.1668 20.3577 26.7806 19.5367 26.9783 18.5998C27.3424 16.7051 26.1356 14.8735 24.4084 14.3261C23.9819 14.1893 23.5241 14.1261 23.0767 14.1472C22.6293 14.1682 22.2235 14.2524 21.8178 14.3998C21.0062 14.6735 20.2779 15.2103 19.7369 15.884C19.1959 16.5682 18.863 17.4103 18.7693 18.284C18.6965 19.1893 18.8422 19.9682 19.0919 20.7472C19.352 21.5156 19.7577 22.2524 20.3092 22.8735C20.871 23.4945 21.5785 23.9998 22.3484 24.3156C23.1287 24.6314 23.9507 24.7577 24.7414 24.7472L25.2824 24.7261C25.4801 24.7156 25.657 24.7051 25.8442 24.684C26.2188 24.6524 26.5725 24.5893 26.9367 24.5156C28.3829 24.2419 29.7979 23.684 31.0672 22.7998C32.3261 21.9261 33.3873 20.6735 34.022 19.2524C34.6879 17.8419 34.9376 16.3156 35 14.8419C35 14.4735 35 14.1051 34.9896 13.7367C34.9584 13.3788 34.9584 13.0103 34.9064 12.6419C34.8231 11.9051 34.6983 11.1682 34.4902 10.4524C34.2925 9.72613 34.0324 9.02086 33.6995 8.34718C33.3769 7.66297 32.9816 7.02086 32.5342 6.42086C31.6394 5.21034 30.5366 4.21034 29.3401 3.37876C28.1436 2.5577 26.843 1.9156 25.5113 1.41034C22.8582 0.399809 20.049 -0.0422958 17.2399 -0.000190574H17.2087C14.3995 0.0734936 11.6112 0.620862 8.9893 1.7156C7.67836 2.27349 6.40904 2.9577 5.24376 3.83139C4.07848 4.70507 3.01724 5.7577 2.17449 6.99981C1.74792 7.62086 1.38377 8.27349 1.08205 8.96823C0.769917 9.65244 0.541023 10.3682 0.36415 11.1051C0.187277 11.8419 0.0832342 12.5788 0.0312128 13.3156C0.0104043 13.6945 0.0104043 14.0524 0 14.4209Z" fill="black"/>
<path d="M4.17219 14.2005C4.193 15.4005 5.23343 16.3584 6.49235 16.3374H6.52356C6.56518 15.8426 6.69003 15.3479 6.88771 14.8742C7.0958 14.39 7.37671 13.9479 7.73046 13.5479L7.81369 13.4637C7.98016 13.2742 8.16744 13.1058 8.35472 12.9584C7.93854 12.3479 7.22065 11.9584 6.40911 11.969C5.1502 12.0005 4.15139 12.99 4.17219 14.2005Z" fill="black"/>
<path d="M26.583 12.6006C26.7807 12.748 26.968 12.9059 27.1448 13.0848L27.2281 13.169C27.5922 13.548 27.8939 13.9796 28.1228 14.4638C28.3413 14.9269 28.487 15.4217 28.5494 15.9059H28.5806C29.8395 15.8848 30.8384 14.8848 30.8176 13.6743C30.7967 12.4638 29.7563 11.5164 28.4974 11.5375C27.6755 11.548 26.968 11.969 26.583 12.6006Z" fill="black"/>
<path d="M16.1265 13.8321C17.1149 14.9373 17.5102 16.0426 17.531 16.0531C17.5519 16.0321 17.9056 14.9268 18.8524 13.7795C18.7692 12.4426 17.4374 11.3584 17.4374 11.3584C17.4478 11.3689 16.1577 12.4952 16.1265 13.8321Z" fill="black"/>
</g>
<defs>
<clipPath id="clip0_795_1376">
<rect width="35" height="25" fill="white"/>
</clipPath>
</defs>
</svg>
