<svg width="38" height="38" viewBox="0 0 38 38" fill="none" xmlns="http://www.w3.org/2000/svg">
<path d="M35.9258 16.1086C35.5856 14.2873 34.3821 13.2254 32.597 13.2254C32.5228 13.2254 32.4495 13.2254 32.3778 13.2312C32.2632 12.6404 31.9992 12.0888 31.6109 11.629C31.2957 11.2566 30.903 10.9575 30.4603 10.7526C30.0175 10.5477 29.5353 10.442 29.0474 10.4428C28.3414 10.4428 27.6338 10.6512 26.9435 11.059C27.6923 9.78955 27.7623 8.42293 27.1305 7.30427C26.8818 6.87114 26.5425 6.49688 26.1357 6.20712C25.7289 5.91735 25.2643 5.71893 24.7737 5.62545C24.805 4.9788 24.7078 4.18222 24.23 3.47297C23.7309 2.73158 22.9458 2.26287 21.8906 2.07258C21.4713 0.708433 20.2002 0 19 0C17.7998 0 16.5287 0.708433 16.1094 2.07175C15.055 2.26122 14.27 2.73076 13.7708 3.47214C13.293 4.1814 13.1941 4.97797 13.2271 5.62463C12.737 5.71809 12.273 5.91644 11.8667 6.20608C11.4605 6.49571 11.1217 6.86978 10.8736 7.30262C10.2418 8.42211 10.311 9.7879 11.0606 11.0573C10.3703 10.6496 9.66022 10.4411 8.95673 10.4411C8.46873 10.4404 7.98644 10.5461 7.54353 10.751C7.10062 10.9559 6.70775 11.255 6.39237 11.6274C6.00404 12.087 5.74025 12.6387 5.62627 13.2296C5.55461 13.2296 5.48129 13.2238 5.40633 13.2238C3.62207 13.2238 2.41773 14.2873 2.07752 16.107C0.71008 16.5271 0 17.7998 0 19C0 20.2002 0.71008 21.4713 2.07423 21.8914C2.41444 23.7135 3.61877 24.7745 5.40303 24.7745C5.478 24.7745 5.55131 24.7745 5.62298 24.7688C5.73696 25.3596 6.00074 25.9113 6.38907 26.371C6.70446 26.7434 7.09732 27.0425 7.54023 27.2473C7.98314 27.4522 8.46543 27.558 8.95344 27.5572C9.6594 27.5572 10.367 27.3488 11.0573 26.941C10.3077 28.2104 10.2385 29.5771 10.8703 30.6957C11.1188 31.1289 11.4581 31.5032 11.8649 31.7929C12.2717 32.0825 12.7364 32.2807 13.2271 32.3737C13.1958 33.0212 13.293 33.8178 13.7708 34.5262C14.27 35.2676 15.055 35.7371 16.1103 35.9266C16.5295 37.2899 17.8006 37.9983 19 37.9983C20.1994 37.9983 21.4713 37.2899 21.8906 35.9266C22.9458 35.7371 23.7309 35.2676 24.23 34.5262C24.7078 33.8178 24.8067 33.0212 24.7737 32.3745C25.2643 32.2811 25.7289 32.0826 26.1357 31.7929C26.5425 31.5031 26.8818 31.1289 27.1305 30.6957C27.7623 29.5762 27.6923 28.2104 26.9435 26.941C27.6338 27.3488 28.3439 27.5572 29.0474 27.5572C29.5354 27.558 30.0177 27.4522 30.4606 27.2473C30.9035 27.0425 31.2964 26.7434 31.6118 26.371C31.9998 25.9111 32.2635 25.3595 32.3778 24.7688C32.4495 24.7688 32.5228 24.7745 32.597 24.7745C34.3812 24.7745 35.5847 23.7111 35.925 21.8914C37.2899 21.4737 38 20.201 38 19C38 17.799 37.2907 16.5271 35.9258 16.1086Z" fill="black"/>
<path d="M21.0531 2.84119C21.0588 2.91368 21.0588 2.95569 21.0588 2.95569C24.8211 3.14105 23.6233 6.56639 23.6233 6.56639C25.6589 6.22616 27.5075 8.24446 26.0864 10.603C24.3655 13.4541 19.0018 14.5168 19.0018 14.5168C19.0018 14.5168 13.6364 13.4541 11.9172 10.603C10.497 8.24858 12.3447 6.23028 14.3811 6.57051C14.3811 6.57051 13.1825 3.14517 16.9456 2.95981C16.9456 2.95981 16.9456 2.9178 16.9514 2.84531C17.1532 0.349208 20.8471 0.349208 21.0531 2.84119Z" fill="white"/>
<path d="M20.7386 4.62473C20.7435 4.68652 20.7435 4.72194 20.7435 4.72194C23.9308 4.87928 22.9159 7.78069 22.9159 7.78069C24.6409 7.49236 26.2069 9.20256 25.0034 11.197C23.5452 13.6123 18.9995 14.5127 18.9995 14.5127C18.9995 14.5127 14.4547 13.6123 12.9966 11.197C11.793 9.20256 13.359 7.48989 15.0832 7.78069C15.0832 7.78069 14.0683 4.87928 17.2564 4.72194C17.2564 4.72194 17.2564 4.68652 17.2613 4.62473C17.4352 2.51417 20.5648 2.51417 20.7386 4.62473Z" fill="black"/>
<path d="M18.9999 6.29431C20.318 6.29431 21.3889 7.3949 21.2868 9.11004C21.1846 10.8252 18.9999 13.0519 18.9999 13.0519C18.9999 13.0519 16.8136 10.8277 16.7131 9.11004C16.6126 7.39243 17.6852 6.29431 18.9999 6.29431Z" fill="black" stroke="white" stroke-width="0.53" stroke-miterlimit="10" stroke-linecap="round"/>
<path d="M2.84161 16.9482C2.91411 16.9424 2.95612 16.9424 2.95612 16.9424C3.14148 13.1802 6.56681 14.378 6.56681 14.378C6.22659 12.3415 8.24488 10.4938 10.6034 11.914C13.4546 13.6357 14.5173 18.9986 14.5173 18.9986C14.5173 18.9986 13.4546 24.364 10.6034 26.0833C8.249 27.5043 6.23071 25.6557 6.57093 23.6201C6.57093 23.6201 3.14559 24.8179 2.96024 21.0556C2.96024 21.0556 2.91823 21.0556 2.84573 21.0499C0.349635 20.8472 0.349635 17.1533 2.84161 16.9482Z" fill="white"/>
<path d="M4.62443 17.2621C4.68621 17.2571 4.72163 17.2571 4.72163 17.2571C4.87898 14.069 7.78038 15.084 7.78038 15.084C7.49205 13.3598 9.20225 11.7937 11.1967 12.9973C13.612 14.4554 14.5124 19.0003 14.5124 19.0003C14.5124 19.0003 13.612 23.546 11.1967 25.0041C9.20225 26.2077 7.48958 24.6416 7.78038 22.9166C7.78038 22.9166 4.87898 23.9315 4.72163 20.7443C4.72163 20.7443 4.68621 20.7443 4.62443 20.7393C2.51386 20.5655 2.51386 17.4359 4.62443 17.2621Z" fill="black"/>
<path d="M6.29492 19.0001C6.29492 17.6821 7.39551 16.6111 9.11065 16.7133C10.8258 16.8154 13.0525 19.0001 13.0525 19.0001C13.0525 19.0001 10.8283 21.1873 9.11065 21.2878C7.39304 21.3883 6.29492 20.3157 6.29492 19.0001Z" fill="black" stroke="white" stroke-width="0.53" stroke-miterlimit="10" stroke-linecap="round"/>
<path d="M16.948 35.1602C16.9422 35.0869 16.9422 35.0457 16.9422 35.0457C13.1791 34.8603 14.3777 31.435 14.3777 31.435C12.3413 31.7752 10.4935 29.7569 11.9138 27.3984C13.6347 24.5473 18.9984 23.4846 18.9984 23.4846C18.9984 23.4846 24.3638 24.5473 26.083 27.3984C27.5041 29.7528 25.6555 31.7711 23.6199 31.435C23.6199 31.435 24.8177 34.8603 21.0554 35.0457C21.0554 35.0457 21.0554 35.0869 21.0496 35.1602C20.847 37.6522 17.1531 37.6522 16.948 35.1602Z" fill="white"/>
<path d="M17.2613 33.3759C17.2564 33.3149 17.2564 33.2795 17.2564 33.2795C14.0683 33.1222 15.0832 30.2208 15.0832 30.2208C13.359 30.5091 11.793 28.7989 12.9966 26.8045C14.4547 24.3891 18.9995 23.4887 18.9995 23.4887C18.9995 23.4887 23.5452 24.3891 25.0034 26.8045C26.2069 28.7989 24.6409 30.5116 22.9159 30.2208C22.9159 30.2208 23.9308 33.1222 20.7435 33.2795C20.7435 33.2795 20.7435 33.3149 20.7386 33.3759C20.5648 35.4873 17.4352 35.4873 17.2613 33.3759Z" fill="black"/>
<path d="M19.0001 31.7068C17.6821 31.7068 16.6111 30.6062 16.7133 28.8911C16.8154 27.1759 19.0001 24.9492 19.0001 24.9492C19.0001 24.9492 21.1873 27.1735 21.287 28.8911C21.3867 30.6087 20.3157 31.7068 19.0001 31.7068Z" fill="black" stroke="white" stroke-width="0.53" stroke-miterlimit="10" stroke-linecap="round"/>
<path d="M35.1594 21.0532C35.0861 21.059 35.0449 21.059 35.0449 21.059C34.8595 24.8213 31.4342 23.6235 31.4342 23.6235C31.7744 25.6591 29.7561 27.5077 27.3976 26.0866C24.5464 24.3657 23.4829 19.002 23.4829 19.002C23.4829 19.002 24.5464 13.6374 27.3976 11.9174C29.752 10.4971 31.7703 12.3449 31.4342 14.3813C31.4342 14.3813 34.8595 13.1835 35.0449 16.9458C35.0449 16.9458 35.0861 16.9458 35.1594 16.9516C37.6514 17.1534 37.6514 20.8473 35.1594 21.0532Z" fill="white"/>
<path d="M33.3753 20.7393C33.3144 20.7443 33.2789 20.7443 33.2789 20.7443C33.1216 23.9315 30.2202 22.9166 30.2202 22.9166C30.5085 24.6416 28.7983 26.2077 26.8039 25.0041C24.3885 23.546 23.4873 19.0003 23.4873 19.0003C23.4873 19.0003 24.3885 14.4554 26.8039 12.9973C28.7983 11.7937 30.511 13.3598 30.2202 15.084C30.2202 15.084 33.1216 14.069 33.2789 17.2571C33.2789 17.2571 33.3144 17.2571 33.3753 17.2621C35.4867 17.4359 35.4867 20.5655 33.3753 20.7393Z" fill="black"/>
<path d="M31.7063 19.0001C31.7063 20.3181 30.6057 21.3891 28.8906 21.2869C27.1754 21.1848 24.9487 19.0001 24.9487 19.0001C24.9487 19.0001 27.173 16.8137 28.8906 16.7132C30.6082 16.6127 31.7063 17.6853 31.7063 19.0001Z" fill="black" stroke="white" stroke-width="0.53" stroke-miterlimit="10" stroke-linecap="round"/>
<path d="M26.7415 19.0004C27.5513 18.1149 27.8528 16.8479 27.4739 15.7506C27.1279 14.748 26.2942 14.1491 25.2447 14.1491C24.982 14.1513 24.7206 14.1856 24.4662 14.2513C24.0227 14.3643 23.5996 14.5461 23.2124 14.79C23.456 14.4026 23.6378 13.9796 23.7512 13.5362C24.0238 12.4455 23.6968 11.7239 23.3755 11.312C22.9068 10.7114 22.1398 10.3671 21.2715 10.3671C20.4297 10.3727 19.6199 10.691 18.9995 11.2601C18.3795 10.6909 17.57 10.3726 16.7283 10.3671C15.8592 10.3671 15.0931 10.7114 14.6243 11.312C14.3022 11.7239 13.976 12.4439 14.2487 13.5362C14.3617 13.9797 14.5435 14.4028 14.7875 14.79C14.4003 14.5465 13.9776 14.3647 13.5345 14.2513C13.2803 14.1862 13.0191 14.1524 12.7568 14.1508C11.7065 14.1508 10.8728 14.7497 10.5268 15.7522C10.1478 16.8495 10.4502 18.1165 11.26 19.0021C10.4502 19.8885 10.1487 21.1547 10.5268 22.252C10.8736 23.2553 11.7065 23.8542 12.7568 23.8542C13.0191 23.8525 13.2803 23.8188 13.5345 23.7537C13.9778 23.6403 14.4008 23.4586 14.7883 23.215C14.5451 23.6016 14.3639 24.0238 14.2512 24.4663C13.9785 25.5562 14.3047 26.2787 14.6268 26.6906C15.0955 27.2911 15.8625 27.6354 16.7308 27.6354C17.5724 27.6299 18.3819 27.3116 19.002 26.7425C19.6226 27.3112 20.4322 27.6294 21.274 27.6354C22.1423 27.6354 22.9092 27.2911 23.378 26.6906C23.6993 26.2787 24.0263 25.5587 23.7536 24.4663C23.6402 24.0229 23.4585 23.5999 23.2149 23.2125C23.6015 23.4562 24.0236 23.6382 24.4662 23.7521C24.7204 23.8171 24.9815 23.8509 25.2439 23.8526C26.2942 23.8526 27.1271 23.2537 27.4739 22.2511C27.8528 21.1538 27.5513 19.8868 26.7415 19.0004Z" fill="black"/>
<path d="M18.9464 17.4285C18.9464 17.4285 22.6106 16.0906 23.2796 13.4166C23.9485 10.7426 20.5511 9.99291 18.9958 11.9717C17.4446 9.99456 14.0481 10.7417 14.717 13.4166C15.386 16.0915 19.0494 17.4285 19.0494 17.4285" fill="white"/>
<path d="M18.9575 17.4285C18.9575 17.4285 21.8968 16.3575 22.4331 14.2099C22.9694 12.0623 20.2451 11.4634 19.0003 13.0516C17.7564 11.4634 15.0313 12.0631 15.5676 14.2099C16.1039 16.3567 19.0432 17.4285 19.0432 17.4285" fill="white"/>
<path d="M18.9724 17.4284C18.9724 17.4284 20.9305 16.7134 21.2872 15.2865C21.6439 13.8597 19.8299 13.4569 19.0004 14.5146C18.1717 13.4569 16.356 13.8556 16.7135 15.2865C17.0711 16.7175 19.0292 17.4284 19.0292 17.4284" fill="black"/>
<path d="M17.4284 19.0537C17.4284 19.0537 16.0906 15.3895 13.4165 14.7214C10.7425 14.0533 9.99285 17.449 11.9716 19.0002C9.9945 20.5522 10.7417 23.9487 13.4165 23.2839C16.0914 22.6191 17.4284 18.9507 17.4284 18.9507" fill="white"/>
<path d="M17.4285 19.0437C17.4285 19.0437 16.3575 16.1036 14.2099 15.5673C12.0623 15.031 11.4634 17.7562 13.0516 19.0001C11.4634 20.2448 12.0631 22.97 14.2099 22.4337C16.3567 21.8974 17.4285 18.9573 17.4285 18.9573" fill="white"/>
<path d="M17.4285 19.0289C17.4285 19.0289 16.7135 17.0707 15.2867 16.7132C13.8598 16.3556 13.457 18.1713 14.5148 19C13.457 19.8296 13.8557 21.6444 15.2867 21.2877C16.7176 20.931 17.4285 18.972 17.4285 18.972" fill="black"/>
<path d="M19.0541 20.5725C19.0541 20.5725 15.3898 21.9095 14.7217 24.5844C14.0536 27.2593 17.4493 28.0081 19.0005 26.031C20.5526 28.0081 23.9491 27.2617 23.2843 24.5869C22.6195 21.912 18.9511 20.575 18.9511 20.575" fill="white"/>
<path d="M19.0432 20.5725C19.0432 20.5725 16.1039 21.6434 15.5676 23.7911C15.0313 25.9387 17.7564 26.5368 19.0003 24.9493C20.2451 26.5368 22.9702 25.9379 22.4331 23.7911C21.896 21.6443 18.9575 20.5725 18.9575 20.5725" fill="white"/>
<path d="M19.0292 20.5725C19.0292 20.5725 17.0711 21.2876 16.7135 22.7144C16.356 24.1412 18.1717 24.5432 19.0004 23.4863C19.8299 24.5432 21.6448 24.1453 21.2872 22.7144C20.9297 21.2834 18.9724 20.5725 18.9724 20.5725" fill="black"/>
<path d="M20.5723 18.9467C20.5723 18.9467 21.9093 22.6109 24.5841 23.2799C27.259 23.9488 28.0078 20.5523 26.0283 18.9961C28.0054 17.4449 27.259 14.0484 24.5841 14.7173C21.9093 15.3863 20.5723 19.0497 20.5723 19.0497" fill="white"/>
<path d="M20.5723 18.9573C20.5723 18.9573 21.6432 21.8966 23.7908 22.4328C25.9385 22.9691 26.5365 20.2448 24.9491 19.0001C26.5365 17.7562 25.9376 15.031 23.7908 15.5673C21.644 16.1036 20.5723 19.0429 20.5723 19.0429" fill="white"/>
<path d="M20.5723 18.9723C20.5723 18.9723 21.2865 20.9304 22.7141 21.2871C24.1418 21.6438 24.543 19.8298 23.4852 19.0003C24.543 18.1715 24.1442 16.3567 22.7141 16.7134C21.284 17.0701 20.5723 19.0291 20.5723 19.0291" fill="black"/>
<path d="M19 22.2599C18.3553 22.2599 17.725 22.0687 17.189 21.7106C16.6529 21.3524 16.2351 20.8433 15.9884 20.2476C15.7416 19.652 15.6771 18.9966 15.8029 18.3642C15.9286 17.7319 16.2391 17.1511 16.695 16.6952C17.1509 16.2393 17.7317 15.9288 18.364 15.8031C18.9964 15.6773 19.6518 15.7418 20.2474 15.9886C20.8431 16.2353 21.3522 16.6531 21.7104 17.1892C22.0686 17.7252 22.2597 18.3555 22.2597 19.0002C22.2589 19.8644 21.9152 20.6931 21.304 21.3042C20.6929 21.9153 19.8643 22.2591 19 22.2599Z" fill="white"/>
<path d="M18.9997 21.287C20.2627 21.287 21.2866 20.2631 21.2866 19.0001C21.2866 17.7371 20.2627 16.7133 18.9997 16.7133C17.7367 16.7133 16.7129 17.7371 16.7129 19.0001C16.7129 20.2631 17.7367 21.287 18.9997 21.287Z" fill="black"/>
</svg>
