<svg width="38" height="38" viewBox="0 0 38 38" fill="none" xmlns="http://www.w3.org/2000/svg">
<path d="M35.9258 16.1086C35.5856 14.2873 34.3821 13.2254 32.597 13.2254C32.5228 13.2254 32.4495 13.2254 32.3778 13.2312C32.2632 12.6404 31.9992 12.0888 31.6109 11.629C31.2957 11.2566 30.903 10.9575 30.4603 10.7526C30.0175 10.5477 29.5353 10.442 29.0474 10.4428C28.3414 10.4428 27.6338 10.6512 26.9435 11.059C27.6923 9.78955 27.7623 8.42293 27.1305 7.30427C26.8818 6.87114 26.5425 6.49688 26.1357 6.20712C25.7289 5.91735 25.2643 5.71893 24.7737 5.62545C24.805 4.9788 24.7078 4.18222 24.23 3.47297C23.7309 2.73158 22.9458 2.26287 21.8906 2.07258C21.4713 0.708433 20.2002 0 19 0C17.7998 0 16.5287 0.708433 16.1094 2.07175C15.055 2.26122 14.27 2.73076 13.7708 3.47214C13.293 4.1814 13.1941 4.97797 13.2271 5.62463C12.737 5.71809 12.273 5.91644 11.8667 6.20608C11.4605 6.49571 11.1217 6.86978 10.8736 7.30262C10.2418 8.42211 10.311 9.7879 11.0606 11.0573C10.3703 10.6496 9.66022 10.4411 8.95673 10.4411C8.46873 10.4404 7.98644 10.5461 7.54353 10.751C7.10062 10.9559 6.70775 11.255 6.39237 11.6274C6.00404 12.087 5.74025 12.6387 5.62627 13.2296C5.55461 13.2296 5.48129 13.2238 5.40633 13.2238C3.62207 13.2238 2.41773 14.2873 2.07752 16.107C0.71008 16.5271 0 17.7998 0 19C0 20.2002 0.71008 21.4713 2.07423 21.8914C2.41444 23.7135 3.61877 24.7745 5.40303 24.7745C5.478 24.7745 5.55131 24.7745 5.62298 24.7688C5.73696 25.3596 6.00074 25.9113 6.38907 26.371C6.70446 26.7434 7.09732 27.0425 7.54023 27.2473C7.98314 27.4522 8.46543 27.558 8.95344 27.5572C9.6594 27.5572 10.367 27.3488 11.0573 26.941C10.3077 28.2104 10.2385 29.5771 10.8703 30.6957C11.1188 31.1289 11.4581 31.5032 11.8649 31.7929C12.2717 32.0825 12.7364 32.2807 13.2271 32.3737C13.1958 33.0212 13.293 33.8178 13.7708 34.5262C14.27 35.2676 15.055 35.7371 16.1103 35.9266C16.5295 37.2899 17.8006 37.9983 19 37.9983C20.1994 37.9983 21.4713 37.2899 21.8906 35.9266C22.9458 35.7371 23.7309 35.2676 24.23 34.5262C24.7078 33.8178 24.8067 33.0212 24.7737 32.3745C25.2643 32.2811 25.7289 32.0826 26.1357 31.7929C26.5425 31.5031 26.8818 31.1289 27.1305 30.6957C27.7623 29.5762 27.6923 28.2104 26.9435 26.941C27.6338 27.3488 28.3439 27.5572 29.0474 27.5572C29.5354 27.558 30.0177 27.4522 30.4606 27.2473C30.9035 27.0425 31.2964 26.7434 31.6118 26.371C31.9998 25.9111 32.2635 25.3595 32.3778 24.7688C32.4495 24.7688 32.5228 24.7745 32.597 24.7745C34.3812 24.7745 35.5847 23.7111 35.925 21.8914C37.2899 21.4737 38 20.201 38 19C38 17.799 37.2907 16.5271 35.9258 16.1086Z" fill="black"/>
<path d="M21.0531 2.84113C21.0588 2.91362 21.0588 2.95563 21.0588 2.95563C24.8211 3.14099 23.6233 6.56633 23.6233 6.56633C25.6589 6.2261 27.5075 8.2444 26.0864 10.6029C24.3655 13.4541 19.0018 14.5168 19.0018 14.5168C19.0018 14.5168 13.6364 13.4541 11.9172 10.6029C10.497 8.24851 12.3447 6.23022 14.3811 6.57044C14.3811 6.57044 13.1825 3.14511 16.9456 2.95975C16.9456 2.95975 16.9456 2.91774 16.9514 2.84524C17.1532 0.349147 20.8471 0.349147 21.0531 2.84113Z" fill="white"/>
<path d="M20.7386 4.62491C20.7435 4.6867 20.7435 4.72212 20.7435 4.72212C23.9308 4.87947 22.9159 7.78087 22.9159 7.78087C24.6409 7.49254 26.2069 9.20274 25.0034 11.1971C23.5452 13.6125 18.9995 14.5129 18.9995 14.5129C18.9995 14.5129 14.4547 13.6125 12.9966 11.1971C11.793 9.20274 13.359 7.49007 15.0832 7.78087C15.0832 7.78087 14.0683 4.87947 17.2564 4.72212C17.2564 4.72212 17.2564 4.6867 17.2613 4.62491C17.4352 2.51435 20.5648 2.51435 20.7386 4.62491Z" fill="black"/>
<path d="M18.9999 6.29395C20.318 6.29395 21.3889 7.39453 21.2868 9.10968C21.1846 10.8248 18.9999 13.0515 18.9999 13.0515C18.9999 13.0515 16.8136 10.8273 16.7131 9.10968C16.6126 7.39206 17.6852 6.29395 18.9999 6.29395Z" fill="black" stroke="white" stroke-width="0.53" stroke-miterlimit="10" stroke-linecap="round"/>
<path d="M2.84161 16.948C2.91411 16.9422 2.95612 16.9422 2.95612 16.9422C3.14148 13.1799 6.56681 14.3777 6.56681 14.3777C6.22659 12.3413 8.24488 10.4935 10.6034 11.9138C13.4546 13.6355 14.5173 18.9984 14.5173 18.9984C14.5173 18.9984 13.4546 24.3638 10.6034 26.083C8.249 27.5041 6.23071 25.6555 6.57093 23.6199C6.57093 23.6199 3.14559 24.8177 2.96024 21.0554C2.96024 21.0554 2.91823 21.0554 2.84573 21.0496C0.349635 20.847 0.349635 17.1531 2.84161 16.948Z" fill="white"/>
<path d="M4.62443 17.2623C4.68621 17.2574 4.72163 17.2574 4.72163 17.2574C4.87898 14.0693 7.78038 15.0842 7.78038 15.0842C7.49205 13.36 9.20225 11.794 11.1967 12.9975C13.612 14.4557 14.5124 19.0005 14.5124 19.0005C14.5124 19.0005 13.612 23.5462 11.1967 25.0043C9.20225 26.2079 7.48958 24.6419 7.78038 22.9168C7.78038 22.9168 4.87898 23.9318 4.72163 20.7445C4.72163 20.7445 4.68621 20.7445 4.62443 20.7396C2.51386 20.5657 2.51386 17.4361 4.62443 17.2623Z" fill="black"/>
<path d="M6.29492 19.0006C6.29492 17.6826 7.39551 16.6116 9.11065 16.7138C10.8258 16.8159 13.0525 19.0006 13.0525 19.0006C13.0525 19.0006 10.8283 21.1878 9.11065 21.2883C7.39304 21.3888 6.29492 20.3162 6.29492 19.0006Z" fill="black" stroke="white" stroke-width="0.53" stroke-miterlimit="10" stroke-linecap="round"/>
<path d="M16.948 35.16C16.9422 35.0867 16.9422 35.0455 16.9422 35.0455C13.1791 34.8602 14.3777 31.4348 14.3777 31.4348C12.3413 31.775 10.4935 29.7567 11.9138 27.3982C13.6347 24.5471 18.9984 23.4844 18.9984 23.4844C18.9984 23.4844 24.3638 24.5471 26.083 27.3982C27.5041 29.7526 25.6555 31.7709 23.6199 31.4348C23.6199 31.4348 24.8177 34.8602 21.0554 35.0455C21.0554 35.0455 21.0554 35.0867 21.0496 35.16C20.847 37.652 17.1531 37.652 16.948 35.16Z" fill="white"/>
<path d="M17.2613 33.3755C17.2564 33.3145 17.2564 33.2791 17.2564 33.2791C14.0683 33.1217 15.0832 30.2203 15.0832 30.2203C13.359 30.5087 11.793 28.7985 12.9966 26.8041C14.4547 24.3887 18.9995 23.4883 18.9995 23.4883C18.9995 23.4883 23.5452 24.3887 25.0034 26.8041C26.2069 28.7985 24.6409 30.5111 22.9159 30.2203C22.9159 30.2203 23.9308 33.1217 20.7435 33.2791C20.7435 33.2791 20.7435 33.3145 20.7386 33.3755C20.5648 35.4869 17.4352 35.4869 17.2613 33.3755Z" fill="black"/>
<path d="M19.0001 31.7068C17.6821 31.7068 16.6111 30.6062 16.7133 28.8911C16.8154 27.1759 19.0001 24.9492 19.0001 24.9492C19.0001 24.9492 21.1873 27.1735 21.287 28.8911C21.3867 30.6087 20.3157 31.7068 19.0001 31.7068Z" fill="black" stroke="white" stroke-width="0.53" stroke-miterlimit="10" stroke-linecap="round"/>
<path d="M35.1594 21.0535C35.0861 21.0593 35.0449 21.0593 35.0449 21.0593C34.8595 24.8216 31.4342 23.6238 31.4342 23.6238C31.7744 25.6594 29.7561 27.508 27.3976 26.0869C24.5464 24.366 23.4829 19.0023 23.4829 19.0023C23.4829 19.0023 24.5464 13.6377 27.3976 11.9177C29.752 10.4974 31.7703 12.3452 31.4342 14.3816C31.4342 14.3816 34.8595 13.1838 35.0449 16.9461C35.0449 16.9461 35.0861 16.9461 35.1594 16.9519C37.6514 17.1537 37.6514 20.8476 35.1594 21.0535Z" fill="white"/>
<path d="M33.3753 20.7396C33.3144 20.7445 33.2789 20.7445 33.2789 20.7445C33.1216 23.9318 30.2202 22.9168 30.2202 22.9168C30.5085 24.6419 28.7983 26.2079 26.8039 25.0043C24.3885 23.5462 23.4873 19.0005 23.4873 19.0005C23.4873 19.0005 24.3885 14.4557 26.8039 12.9975C28.7983 11.794 30.511 13.36 30.2202 15.0842C30.2202 15.0842 33.1216 14.0693 33.2789 17.2574C33.2789 17.2574 33.3144 17.2574 33.3753 17.2623C35.4867 17.4361 35.4867 20.5657 33.3753 20.7396Z" fill="black"/>
<path d="M31.7063 19.0004C31.7063 20.3185 30.6057 21.3894 28.8906 21.2873C27.1754 21.1851 24.9487 19.0004 24.9487 19.0004C24.9487 19.0004 27.173 16.8141 28.8906 16.7136C30.6082 16.6131 31.7063 17.6856 31.7063 19.0004Z" fill="black" stroke="white" stroke-width="0.53" stroke-miterlimit="10" stroke-linecap="round"/>
<path d="M26.7415 19.0006C27.5513 18.115 27.8528 16.848 27.4739 15.7507C27.1279 14.7481 26.2942 14.1492 25.2447 14.1492C24.982 14.1514 24.7206 14.1857 24.4662 14.2514C24.0227 14.3644 23.5996 14.5462 23.2124 14.7901C23.456 14.4027 23.6378 13.9797 23.7512 13.5363C24.0238 12.4456 23.6968 11.724 23.3755 11.3121C22.9068 10.7115 22.1398 10.3672 21.2715 10.3672C20.4297 10.3728 19.6199 10.6911 18.9995 11.2602C18.3795 10.691 17.57 10.3727 16.7283 10.3672C15.8592 10.3672 15.0931 10.7115 14.6243 11.3121C14.3022 11.724 13.976 12.444 14.2487 13.5363C14.3617 13.9798 14.5435 14.4029 14.7875 14.7901C14.4003 14.5466 13.9776 14.3648 13.5345 14.2514C13.2803 14.1863 13.0191 14.1526 12.7568 14.1509C11.7065 14.1509 10.8728 14.7498 10.5268 15.7523C10.1478 16.8496 10.4502 18.1166 11.26 19.0022C10.4502 19.8886 10.1487 21.1548 10.5268 22.2521C10.8736 23.2555 11.7065 23.8544 12.7568 23.8544C13.0191 23.8527 13.2803 23.8189 13.5345 23.7539C13.9778 23.6405 14.4008 23.4587 14.7883 23.2151C14.5451 23.6017 14.3639 24.0239 14.2512 24.4664C13.9785 25.5563 14.3047 26.2788 14.6268 26.6907C15.0956 27.2912 15.8625 27.6356 16.7308 27.6356C17.5724 27.63 18.3819 27.3117 19.002 26.7426C19.6226 27.3113 20.4322 27.6295 21.274 27.6356C22.1423 27.6356 22.9092 27.2912 23.378 26.6907C23.6993 26.2788 24.0263 25.5588 23.7536 24.4664C23.6402 24.0231 23.4585 23.6 23.2149 23.2126C23.6015 23.4563 24.0236 23.6383 24.4662 23.7522C24.7204 23.8173 24.9815 23.851 25.2439 23.8527C26.2942 23.8527 27.1271 23.2538 27.4739 22.2512C27.8528 21.154 27.5513 19.887 26.7415 19.0006Z" fill="black"/>
<path d="M18.9464 17.4284C18.9464 17.4284 22.6106 16.0906 23.2796 13.4165C23.9485 10.7425 20.5511 9.99285 18.9958 11.9716C17.4446 9.9945 14.0481 10.7417 14.717 13.4165C15.386 16.0914 19.0494 17.4284 19.0494 17.4284" fill="white"/>
<path d="M18.9575 17.4285C18.9575 17.4285 21.8968 16.3575 22.4331 14.2099C22.9694 12.0623 20.2451 11.4634 19.0003 13.0516C17.7564 11.4634 15.0313 12.0631 15.5676 14.2099C16.1039 16.3567 19.0432 17.4285 19.0432 17.4285" fill="white"/>
<path d="M18.9724 17.428C18.9724 17.428 20.9305 16.713 21.2872 15.2862C21.6439 13.8594 19.8299 13.4565 19.0004 14.5143C18.1717 13.4565 16.356 13.8552 16.7135 15.2862C17.0711 16.7171 19.0292 17.428 19.0292 17.428" fill="black"/>
<path d="M17.4284 19.0541C17.4284 19.0541 16.0906 15.3898 13.4165 14.7217C10.7425 14.0536 9.99285 17.4493 11.9716 19.0005C9.9945 20.5526 10.7417 23.9491 13.4165 23.2843C16.0914 22.6195 17.4284 18.9511 17.4284 18.9511" fill="white"/>
<path d="M17.4285 19.0435C17.4285 19.0435 16.3575 16.1034 14.2099 15.5671C12.0623 15.0308 11.4634 17.7559 13.0516 18.9998C11.4634 20.2446 12.0631 22.9697 14.2099 22.4334C16.3567 21.8971 17.4285 18.957 17.4285 18.957" fill="white"/>
<path d="M17.4285 19.0287C17.4285 19.0287 16.7135 17.0706 15.2867 16.713C13.8598 16.3555 13.457 18.1712 14.5148 18.9999C13.457 19.8295 13.8557 21.6443 15.2867 21.2876C16.7176 20.9309 17.4285 18.9719 17.4285 18.9719" fill="black"/>
<path d="M19.0541 20.5723C19.0541 20.5723 15.3898 21.9093 14.7217 24.5841C14.0536 27.259 17.4493 28.0078 19.0005 26.0307C20.5526 28.0078 23.9491 27.2615 23.2843 24.5866C22.6195 21.9118 18.9511 20.5747 18.9511 20.5747" fill="white"/>
<path d="M19.0432 20.5723C19.0432 20.5723 16.1039 21.6432 15.5676 23.7908C15.0313 25.9385 17.7564 26.5365 19.0003 24.9491C20.2451 26.5365 22.9702 25.9376 22.4331 23.7908C21.896 21.644 18.9575 20.5723 18.9575 20.5723" fill="white"/>
<path d="M19.0292 20.5723C19.0292 20.5723 17.0711 21.2873 16.7135 22.7141C16.356 24.1409 18.1717 24.543 19.0004 23.486C19.8299 24.543 21.6448 24.1451 21.2872 22.7141C20.9297 21.2832 18.9724 20.5723 18.9724 20.5723" fill="black"/>
<path d="M20.5723 18.9464C20.5723 18.9464 21.9093 22.6106 24.5841 23.2796C27.259 23.9485 28.0078 20.552 26.0283 18.9958C28.0054 17.4446 27.259 14.0481 24.5841 14.717C21.9093 15.386 20.5723 19.0494 20.5723 19.0494" fill="white"/>
<path d="M20.5723 18.957C20.5723 18.957 21.6432 21.8963 23.7908 22.4326C25.9385 22.9689 26.5365 20.2446 24.9491 18.9998C26.5365 17.7559 25.9376 15.0308 23.7908 15.5671C21.644 16.1034 20.5723 19.0427 20.5723 19.0427" fill="white"/>
<path d="M20.5723 18.9727C20.5723 18.9727 21.2865 20.9308 22.7141 21.2876C24.1418 21.6443 24.543 19.8303 23.4852 19.0007C24.543 18.172 24.1442 16.3571 22.7141 16.7138C21.284 17.0705 20.5723 19.0295 20.5723 19.0295" fill="black"/>
<path d="M19 22.2597C18.3553 22.2597 17.725 22.0686 17.189 21.7104C16.6529 21.3522 16.2351 20.8431 15.9884 20.2474C15.7416 19.6518 15.6771 18.9964 15.8029 18.364C15.9286 17.7317 16.2391 17.1509 16.695 16.695C17.1509 16.2391 17.7317 15.9286 18.364 15.8029C18.9964 15.6771 19.6518 15.7416 20.2474 15.9884C20.8431 16.2351 21.3522 16.6529 21.7104 17.189C22.0686 17.725 22.2597 18.3553 22.2597 19C22.2589 19.8643 21.9152 20.6929 21.304 21.304C20.6929 21.9152 19.8643 22.2589 19 22.2597Z" fill="white"/>
<path d="M18.9997 21.2866C20.2627 21.2866 21.2866 20.2627 21.2866 18.9997C21.2866 17.7367 20.2627 16.7129 18.9997 16.7129C17.7367 16.7129 16.7129 17.7367 16.7129 18.9997C16.7129 20.2627 17.7367 21.2866 18.9997 21.2866Z" fill="black"/>
</svg>
