<svg xmlns="http://www.w3.org/2000/svg" viewBox="0 0 117.37 117.37"><defs><style>.cls-1{fill:#652f05;}.cls-2{fill:#ce8435;}.cls-3{fill:#5eb6b3;}.cls-4{fill:#926b0a;}.cls-5{fill:#e4bd68;}.cls-6{fill:#526d8b;}.cls-7{fill:#7aadc3;}.cls-8{fill:#d2e2e5;}.cls-9{fill:#374d64;}.cls-10{fill:#7eb383;}.cls-11{fill:#004657;}.cls-12{fill:#d6e9d1;}.cls-13{fill:#243c23;}</style></defs><g id="图层_2" data-name="图层 2"><g id="文件图层"><path class="cls-1" d="M63.3,59.92a4.78,4.78,0,1,1-5.85-5.85,4.79,4.79,0,0,1,4.61,1.23A4.77,4.77,0,0,1,63.3,59.92Z"/><circle class="cls-2" cx="58.68" cy="58.68" r="1.77"/><path class="cls-3" d="M62.86,54.51l-.8.79a4.79,4.79,0,0,0-4.61-1.23L57.15,53a5.93,5.93,0,0,1,4.22.43A5.65,5.65,0,0,1,62.86,54.51Z"/><path class="cls-4" d="M63,54.34h0l-.16.16a5.65,5.65,0,0,0-1.49-1.1c3.12-4.9.74-5.74.32-5.84l0,0c-.41-.12-2.9-.58-2.65,5.23a5.88,5.88,0,0,0-1.84.2l-.06-.22h0c.35-6.42,1.95-8.54,3.14-9.35A3.1,3.1,0,0,1,65,44.67C65.6,46,65.93,48.61,63,54.34Z"/><path class="cls-5" d="M66.45,50.91,63,54.34c2.91-5.73,2.58-8.38,2-9.67a3.1,3.1,0,0,0-4.74-1.27c-1.19.81-2.79,2.93-3.14,9.35l-1.26-4.68c.58-4.13,2.25-6,3.88-6.77a5.07,5.07,0,0,1,6.76,1.81C67.5,44.61,68,47.05,66.45,50.91Z"/><path class="cls-2" d="M61.37,53.41A5.93,5.93,0,0,0,60.21,53,5.83,5.83,0,0,0,59,52.78c-.25-5.81,2.24-5.35,2.65-5.23l0,0C62.11,47.67,64.49,48.51,61.37,53.41Z"/><path class="cls-3" d="M62.86,54.5l-.8.8a4.79,4.79,0,0,1,1.24,4.62l1.09.3a6,6,0,0,0,.2-1.84,5.44,5.44,0,0,0-.2-1.23A5.78,5.78,0,0,0,64,56,5.72,5.72,0,0,0,62.86,54.5Z"/><path class="cls-4" d="M63,54.35h0l-.16.15A5.72,5.72,0,0,1,64,56c4.91-3.11,5.75-.73,5.85-.31l0,0c.11.41.57,2.89-5.23,2.65a6,6,0,0,1-.2,1.84l.22.05h0c6.42-.35,8.54-2,9.35-3.14a3.68,3.68,0,0,0,.53-2.68,3.59,3.59,0,0,0-1.8-2.06C71.4,51.77,68.76,51.44,63,54.35Z"/><path class="cls-5" d="M66.45,50.91,63,54.35c5.73-2.91,8.37-2.58,9.67-2a3.59,3.59,0,0,1,1.8,2.06A3.68,3.68,0,0,1,74,57.13c-.81,1.19-2.93,2.79-9.35,3.14l4.68,1.26c4.12-.58,6-2.25,6.77-3.88a5.82,5.82,0,0,0,.45-3.74,5.83,5.83,0,0,0-2.26-3C72.76,49.87,70.32,49.35,66.45,50.91Z"/><path class="cls-2" d="M64,56a5.78,5.78,0,0,1,.44,1.16,5.44,5.44,0,0,1,.2,1.23c5.8.24,5.34-2.24,5.23-2.65l0,0C69.7,55.26,68.86,52.88,64,56Z"/><path class="cls-3" d="M64.39,60.21l-1.09-.29a4.66,4.66,0,0,1-1.24,2.14,4.72,4.72,0,0,1-2.14,1.24l.29,1.09a5.65,5.65,0,0,0,1.69-.75,5,5,0,0,0,1-.78,5.44,5.44,0,0,0,.79-1A5.76,5.76,0,0,0,64.39,60.21Z"/><path class="cls-4" d="M64.61,60.27h0l-.22-.06a5.76,5.76,0,0,1-.74,1.69c5.14,2.69,3.5,4.61,3.2,4.91l0,0c-.3.31-2.22,1.94-4.91-3.21a5.65,5.65,0,0,1-1.69.75l.06.22h0c3.51,5.38,6,6.42,7.39,6.53a3.7,3.7,0,0,0,2.59-.89,3.6,3.6,0,0,0,.88-2.59C71,66.24,70,63.79,64.61,60.27Z"/><path class="cls-5" d="M69.3,61.53l-4.69-1.26c5.38,3.52,6.43,6,6.53,7.4a3.6,3.6,0,0,1-.88,2.59,3.7,3.7,0,0,1-2.59.89C66.24,71,63.79,70,60.28,64.62l1.25,4.68c2.56,3.28,4.93,4,6.74,3.93a5.87,5.87,0,0,0,3.47-1.49,5.79,5.79,0,0,0,1.48-3.47C73.35,66.46,72.58,64.09,69.3,61.53Z"/><path class="cls-2" d="M63.65,61.9a5.44,5.44,0,0,1-.79,1,5,5,0,0,1-1,.78c2.69,5.15,4.61,3.52,4.91,3.21l0,0C67.15,66.51,68.79,64.59,63.65,61.9Z"/><path class="cls-3" d="M60.21,64.39l-.29-1.09a4.79,4.79,0,0,1-4.62-1.24l-.8.8A6,6,0,0,0,56,64a6.18,6.18,0,0,0,1.16.44,6,6,0,0,0,1.23.2A5.88,5.88,0,0,0,60.21,64.39Z"/><path class="cls-4" d="M60.27,64.61h0l-.06-.21a5.88,5.88,0,0,1-1.83.2c.24,5.8-2.24,5.34-2.65,5.23l-.06,0c-.41-.1-2.79-1,.32-5.85a6,6,0,0,1-1.49-1.09l-.15.16h0c-2.9,5.73-2.58,8.37-2,9.67A3.11,3.11,0,0,0,57.13,74C58.32,73.16,59.92,71,60.27,64.61Z"/><path class="cls-5" d="M61.53,69.3l-1.26-4.69c-.35,6.42-2,8.55-3.14,9.36a3.11,3.11,0,0,1-4.75-1.27c-.62-1.3-.94-3.94,2-9.67l-3.43,3.42c-1.56,3.86-1,6.3,0,7.81a5.1,5.1,0,0,0,6.77,1.81C59.28,75.27,61,73.42,61.53,69.3Z"/><path class="cls-2" d="M58.38,64.59a6,6,0,0,1-1.23-.2A6.18,6.18,0,0,1,56,64c-3.11,4.9-.73,5.75-.32,5.85l.06,0C56.14,69.93,58.62,70.39,58.38,64.59Z"/><path class="cls-3" d="M54.51,62.86l.79-.8a4.8,4.8,0,0,1-1.23-4.62L53,57.15a5.9,5.9,0,0,0,0,3.06,6.18,6.18,0,0,0,.44,1.16A5.65,5.65,0,0,0,54.51,62.86Z"/><path class="cls-4" d="M54.34,63h0l.16-.16a5.65,5.65,0,0,1-1.1-1.49c-4.9,3.11-5.74.74-5.84.32l0-.06c-.12-.41-.57-2.89,5.23-2.65a5.85,5.85,0,0,1,.2-1.83l-.22-.06h0c-6.42.35-8.54,1.95-9.35,3.13a3.7,3.7,0,0,0-.53,2.69A3.62,3.62,0,0,0,44.67,65C46,65.6,48.61,65.93,54.34,63Z"/><path class="cls-5" d="M50.91,66.45,54.34,63c-5.73,2.91-8.38,2.58-9.67,2a3.62,3.62,0,0,1-1.8-2.06,3.7,3.7,0,0,1,.53-2.69c.81-1.18,2.93-2.78,9.35-3.13l-4.68-1.26c-4.12.58-6,2.25-6.77,3.88a5.07,5.07,0,0,0,1.81,6.76C44.61,67.49,47.05,68,50.91,66.45Z"/><path class="cls-2" d="M53.41,61.37A6.18,6.18,0,0,1,53,60.21,5.82,5.82,0,0,1,52.78,59c-5.8-.24-5.35,2.24-5.23,2.65l0,.06C47.67,62.11,48.51,64.48,53.41,61.37Z"/><path class="cls-3" d="M53,57.15l1.09.3a4.76,4.76,0,0,1,3.38-3.38L57.16,53a6.2,6.2,0,0,0-1.69.75,6.21,6.21,0,0,0-1.75,1.74A5.76,5.76,0,0,0,53,57.15Z"/><path class="cls-4" d="M52.76,57.09h0l.22,0a5.76,5.76,0,0,1,.74-1.69c-5.14-2.68-3.51-4.6-3.2-4.9l0,0c.3-.31,2.22-2,4.91,3.2A6.2,6.2,0,0,1,57.16,53l-.06-.21h0c-3.51-5.38-6-6.42-7.39-6.53a3.12,3.12,0,0,0-3.48,3.48C46.33,51.13,47.37,53.58,52.76,57.09Z"/><path class="cls-5" d="M48.07,55.84l4.69,1.25c-5.39-3.51-6.43-6-6.54-7.39a3.12,3.12,0,0,1,3.48-3.48c1.43.11,3.88,1.15,7.39,6.53l-1.25-4.68c-2.56-3.28-4.93-4-6.74-3.93a5.09,5.09,0,0,0-5,5C44,50.9,44.79,53.27,48.07,55.84Z"/><path class="cls-2" d="M53.72,55.46a6.21,6.21,0,0,1,1.75-1.74c-2.69-5.15-4.61-3.51-4.91-3.2l0,0C50.21,50.86,48.58,52.78,53.72,55.46Z"/><path class="cls-6" d="M55.84,48.07,48.05,19C52.83,36.4,57.39,40.45,59.72,41.3,58.09,42.09,56.42,43.94,55.84,48.07Z"/><path class="cls-3" d="M59.72,41.3c-2.33-.85-6.89-4.9-11.67-22.32-.08-.27-.15-.54-.22-.82.44,1.19,7.35,19.75,12,22A11.52,11.52,0,0,1,59.72,41.3Z"/><path class="cls-7" d="M88.39,29s-1.15.26-3,.82a52.33,52.33,0,0,0-7.58,3C73.6,34.87,69.19,37.91,67,42.05a11.47,11.47,0,0,0-.5,1.06,5.83,5.83,0,0,0-3-2.26,22.14,22.14,0,0,1,6.3-8.46,18.4,18.4,0,0,1,4.71-2.74,19.68,19.68,0,0,1,2.4-.78A18.89,18.89,0,0,1,79,28.45a23.71,23.71,0,0,1,6.52,0A18.36,18.36,0,0,1,88.39,29Z"/><path class="cls-7" d="M63.46,40.85a5.82,5.82,0,0,0-3.74.45,11.52,11.52,0,0,0,.09-1.17C60,35.44,57.67,30.6,55,26.66A52.69,52.69,0,0,0,50,20.28c-1.21-1.31-2.05-2.09-2.15-2.17h0a17.45,17.45,0,0,1,2.77.95,23.61,23.61,0,0,1,5.63,3.3,19.48,19.48,0,0,1,1.63,1.42,17,17,0,0,1,1.68,1.88,17.86,17.86,0,0,1,2.72,4.72A22.18,22.18,0,0,1,63.46,40.85Z"/><path class="cls-6" d="M66.45,50.91c1.56-3.86,1-6.3,0-7.8,2.44.43,8.41-.8,21.27-13.49Z"/><path class="cls-8" d="M88,23.53a16.23,16.23,0,0,1,.32,2h0A20.23,20.23,0,0,1,88.39,29a17.56,17.56,0,0,0-2.87-.57c0-.4,0-.79,0-1.16s-.06-.74-.1-1.1-.1-.71-.16-1-.15-.67-.24-1a3.57,3.57,0,0,0-.1-.35c-.09-.29-.17-.58-.28-.86s-.17-.46-.26-.69-.13-.29-.2-.43a.15.15,0,0,0,0-.07,4.71,4.71,0,0,0-.22-.45c-.1-.19-.19-.36-.29-.53s-.35-.6-.53-.88A14.06,14.06,0,0,0,82,18.39l-.21-.24c-.24-.28-.48-.52-.7-.74s-.53-.49-.75-.68a8.9,8.9,0,0,0-.8-.62c0-6.38-6-11.09-6.39-11.4h0c-.58.09-8,1.2-11.22,6.7a11.16,11.16,0,0,0-2.37.45l-.3.09c-.28.09-.57.19-.88.31L58,12.4a12.48,12.48,0,0,0-1.36.63l-.3.17a1.69,1.69,0,0,0-.29.17l-.3.18-.3.2-.3.2-.18.12-.28.21-.15.12-.31.25a3.36,3.36,0,0,0-.29.24l-.6.55-.29.29-.29.31a17.54,17.54,0,0,0-1.13,1.37c-.26.38-.52.78-.77,1.19-.09.15-.18.29-.26.45h0a17.45,17.45,0,0,0-2.77-.95h0A19.52,19.52,0,0,1,50.55,14a18.44,18.44,0,0,1,4-3.51,19.57,19.57,0,0,1,6.16-2.57C65.13,2.33,72.8,1,74.18.85c1.1.84,7.09,5.81,8.1,12.83a19.33,19.33,0,0,1,4.58,6.42A17.69,17.69,0,0,1,88,23.53Z"/><path class="cls-3" d="M85.51,28.41a23.71,23.71,0,0,0-6.52,0,9,9,0,0,0-3-7.17c-1.14-3.78-5-6.52-5.44-6.84-.58,0-5.25.5-8.13,3.21a9,9,0,0,0-6.2,4.7,23.61,23.61,0,0,0-5.63-3.3,14.73,14.73,0,0,1,11.34-7.66C65.1,5.9,72.56,4.79,73.14,4.7h0c.41.31,6.36,5,6.38,11.4A14.7,14.7,0,0,1,85.51,28.41Z"/><path class="cls-9" d="M79,28.45a18.89,18.89,0,0,0-2.12.42,7,7,0,0,0-2.73-6.4,10.14,10.14,0,0,0-4.22-5.71,10.1,10.1,0,0,0-6.51,2.83,7,7,0,0,0-5.57,4.18,19.48,19.48,0,0,0-1.63-1.42,9,9,0,0,1,6.2-4.7c2.88-2.71,7.55-3.17,8.13-3.21.48.32,4.3,3.06,5.44,6.84A9,9,0,0,1,79,28.45Z"/><path class="cls-10" d="M76.87,28.87a19.68,19.68,0,0,0-2.4.78,4.82,4.82,0,0,0-1.91-5.59,1.1,1.1,0,0,1-.51-.76,7.4,7.4,0,0,0-2.71-4.38,7.38,7.38,0,0,0-4.54,2.44,1.14,1.14,0,0,1-.82.4,4.84,4.84,0,0,0-4.46,3.89,17,17,0,0,0-1.68-1.88,7,7,0,0,1,5.57-4.18,10.1,10.1,0,0,1,6.51-2.83,10.14,10.14,0,0,1,4.22,5.71A7,7,0,0,1,76.87,28.87Z"/><path class="cls-3" d="M88.34,29c-.19.21-.39.41-.59.61C74.89,42.31,68.92,43.54,66.48,43.11a11.47,11.47,0,0,1,.5-1.06C72.1,42.44,87.37,29.82,88.34,29Z"/><path class="cls-11" d="M88.39,29l0,0c-1,.81-16.24,13.43-21.36,13,2.21-4.14,6.62-7.18,10.88-9.27a52.33,52.33,0,0,1,7.58-3C87.24,29.23,88.39,29,88.39,29Z"/><path class="cls-12" d="M69.76,32.39a22.14,22.14,0,0,0-6.3,8.46,22.18,22.18,0,0,0-1.22-10.48c2.13-4.32,5-3.82,5-3.82h.06S70.07,27.57,69.76,32.39Z"/><path class="cls-13" d="M74.47,29.65a18.4,18.4,0,0,0-4.71,2.74c.31-4.82-2.44-5.83-2.44-5.83h-.06s-2.89-.5-5,3.82a17.86,17.86,0,0,0-2.72-4.72A4.84,4.84,0,0,1,64,21.76a1.14,1.14,0,0,0,.82-.4,7.38,7.38,0,0,1,4.54-2.44,7.4,7.4,0,0,1,2.71,4.38,1.1,1.1,0,0,0,.51.76A4.82,4.82,0,0,1,74.47,29.65Z"/><path class="cls-11" d="M59.81,40.13c-4.63-2.22-11.54-20.78-12-22a.1.1,0,0,0,0,0v0c.1.08.94.86,2.15,2.17A52.69,52.69,0,0,1,55,26.66C57.67,30.6,60,35.44,59.81,40.13Z"/><path class="cls-6" d="M69.3,61.53l29.09,7.79C81,64.53,76.92,60,76.07,57.65,75.28,59.28,73.42,61,69.3,61.53Z"/><path class="cls-3" d="M76.07,57.65C76.92,60,81,64.53,98.39,69.32l.82.22c-1.19-.45-19.75-7.35-22-12A11.52,11.52,0,0,0,76.07,57.65Z"/><path class="cls-7" d="M88.39,29s-.26,1.16-.81,3a52.33,52.33,0,0,1-3,7.58c-2.09,4.26-5.13,8.67-9.28,10.87a10.17,10.17,0,0,1-1,.51,5.83,5.83,0,0,1,2.26,3A22.32,22.32,0,0,0,85,47.61a18,18,0,0,0,2.73-4.72,17.58,17.58,0,0,0,.79-2.39,21.44,21.44,0,0,0,.42-2.12,23.78,23.78,0,0,0,0-6.53A17.87,17.87,0,0,0,88.39,29Z"/><path class="cls-7" d="M76.52,53.91a5.82,5.82,0,0,1-.45,3.74,11.52,11.52,0,0,1,1.17-.09c4.69-.17,9.52,2.14,13.47,4.77a53.63,53.63,0,0,1,6.38,5.08c1.3,1.21,2.09,2,2.17,2.14h0a19.13,19.13,0,0,0-1-2.78A23.77,23.77,0,0,0,95,61.16a19.48,19.48,0,0,0-1.42-1.63,19.26,19.26,0,0,0-1.88-1.69A18.18,18.18,0,0,0,87,55.13,22.14,22.14,0,0,0,76.52,53.91Z"/><path class="cls-6" d="M66.45,50.91c3.87-1.56,6.3-1,7.81,0-.43-2.45.79-8.41,13.49-21.27Z"/><path class="cls-8" d="M93.83,29.39a17.74,17.74,0,0,0-2-.33h0A20.09,20.09,0,0,0,88.39,29,17.56,17.56,0,0,1,89,31.85c.4,0,.78,0,1.16,0s.74.05,1.1.1.71.1,1,.16.67.15,1,.24l.35.1c.29.08.58.17.86.27l.69.27.42.19.08,0,.45.22c.19.09.36.19.53.29s.6.35.87.53A13.08,13.08,0,0,1,99,35.38l.25.21c.27.24.51.48.74.7s.49.53.67.74a7.55,7.55,0,0,1,.62.81c6.38,0,11.09,6,11.41,6.38h0c-.08.57-1.2,8-6.69,11.22a10.74,10.74,0,0,1-.46,2.36,1.81,1.81,0,0,1-.09.31c-.08.28-.18.57-.3.88l-.15.38a12.52,12.52,0,0,1-.64,1.35c0,.1-.1.2-.16.3s-.11.2-.17.3-.12.2-.19.3a2.49,2.49,0,0,1-.19.3l-.2.3a1.09,1.09,0,0,1-.13.17c-.06.1-.13.19-.2.29l-.13.15a3.15,3.15,0,0,1-.24.3,2.34,2.34,0,0,1-.25.3c-.17.2-.35.4-.54.59l-.29.3-.31.29A15.63,15.63,0,0,1,100,65.74c-.37.27-.77.53-1.19.78l-.44.26h0a19.13,19.13,0,0,1,1,2.78h0a19,19,0,0,0,4.1-2.74,18.05,18.05,0,0,0,3.52-4,19.44,19.44,0,0,0,2.57-6.15c5.57-4.38,6.87-12,7.06-13.43-.85-1.1-5.81-7.1-12.83-8.1a19.33,19.33,0,0,0-6.42-4.59A18.5,18.5,0,0,0,93.83,29.39Z"/><path class="cls-3" d="M89,31.85a23.78,23.78,0,0,1,0,6.53,9,9,0,0,1,7.16,3c3.79,1.14,6.53,5,6.85,5.44,0,.58-.5,5.25-3.21,8.13a9,9,0,0,1-4.7,6.2,23.77,23.77,0,0,1,3.3,5.62A14.68,14.68,0,0,0,106,55.45c5.5-3.19,6.61-10.64,6.69-11.22h0c-.32-.42-5-6.37-11.4-6.38A14.72,14.72,0,0,0,89,31.85Z"/><path class="cls-9" d="M88.92,38.38a21.44,21.44,0,0,1-.42,2.12,7,7,0,0,1,6.4,2.73,10.14,10.14,0,0,1,5.71,4.22A10.1,10.1,0,0,1,97.78,54a7,7,0,0,1-4.18,5.57A19.48,19.48,0,0,1,95,61.16a9,9,0,0,0,4.7-6.2c2.71-2.88,3.17-7.55,3.21-8.13-.32-.49-3.06-4.3-6.85-5.44A9,9,0,0,0,88.92,38.38Z"/><path class="cls-10" d="M88.5,40.5a17.58,17.58,0,0,1-.79,2.39,4.86,4.86,0,0,1,5.6,1.92,1.1,1.1,0,0,0,.76.51A7.33,7.33,0,0,1,98.44,48,7.3,7.3,0,0,1,96,52.57a1.1,1.1,0,0,0-.4.82,4.85,4.85,0,0,1-3.89,4.45,19.26,19.26,0,0,1,1.88,1.69A7,7,0,0,0,97.78,54a10.1,10.1,0,0,0,2.83-6.51,10.14,10.14,0,0,0-5.71-4.22A7,7,0,0,0,88.5,40.5Z"/><path class="cls-3" d="M88.35,29l-.6.6C75.05,42.48,73.83,48.44,74.26,50.89a10.17,10.17,0,0,0,1-.51C74.92,45.26,87.54,30,88.35,29Z"/><path class="cls-11" d="M88.39,29l0,.05c-.81,1-13.43,16.24-13,21.36,4.15-2.2,7.19-6.61,9.28-10.87a52.33,52.33,0,0,0,3-7.58C88.13,30.13,88.39,29,88.39,29Z"/><path class="cls-12" d="M85,47.61a22.32,22.32,0,0,1-8.46,6.3A22.14,22.14,0,0,1,87,55.13c4.33-2.14,3.83-5,3.83-5l0-.05S89.79,47.29,85,47.61Z"/><path class="cls-13" d="M87.71,42.89A18,18,0,0,1,85,47.61c4.81-.32,5.82,2.44,5.82,2.44l0,.05s.5,2.89-3.83,5a18.18,18.18,0,0,1,4.73,2.71,4.85,4.85,0,0,0,3.89-4.45,1.1,1.1,0,0,1,.4-.82A7.3,7.3,0,0,0,98.44,48a7.33,7.33,0,0,0-4.37-2.71,1.1,1.1,0,0,1-.76-.51A4.86,4.86,0,0,0,87.71,42.89Z"/><path class="cls-11" d="M77.24,57.56c2.22,4.63,20.78,11.53,22,12h0a0,0,0,0,0,0,0c-.08-.09-.87-.93-2.17-2.14a53.63,53.63,0,0,0-6.38-5.08C86.76,59.7,81.93,57.39,77.24,57.56Z"/><path class="cls-6" d="M61.53,69.3l7.79,29.09c-4.56-17.49-2.64-23.27-1-25.16C66.46,73.35,64.09,72.58,61.53,69.3Z"/><path class="cls-3" d="M68.27,73.23c-1.59,1.89-3.51,7.67,1,25.16.08.27.15.54.23.82-.22-1.26-3.51-20.78-.62-25A10.22,10.22,0,0,0,68.27,73.23Z"/><path class="cls-7" d="M99.27,69.56s-1.14.35-3,.77a52.86,52.86,0,0,1-8.06,1.2c-4.73.32-10.07-.1-14-2.6a10.22,10.22,0,0,1-1-.66,5.83,5.83,0,0,1-1.49,3.47,22.26,22.26,0,0,0,9.68,4.18,18.43,18.43,0,0,0,5.45,0,18.93,18.93,0,0,0,2.47-.52,18.28,18.28,0,0,0,2-.7,23.88,23.88,0,0,0,5.67-3.22A18.91,18.91,0,0,0,99.27,69.56Z"/><path class="cls-7" d="M71.74,71.74a5.87,5.87,0,0,1-3.47,1.49,10.22,10.22,0,0,1,.66,1c2.5,4,2.92,9.32,2.6,14a52.86,52.86,0,0,1-1.2,8.06c-.4,1.74-.73,2.84-.77,3h0a18.91,18.91,0,0,0,1.93-2.21,23.88,23.88,0,0,0,3.22-5.67,18.28,18.28,0,0,0,.7-2,18.93,18.93,0,0,0,.52-2.47,18.43,18.43,0,0,0,0-5.45A22.26,22.26,0,0,0,71.74,71.74Z"/><path class="cls-6" d="M69.3,61.53c3.28,2.56,4,4.93,3.93,6.74,1.89-1.59,7.67-3.51,25.16,1Z"/><path class="cls-8" d="M101.63,74.47c-.21-.63-.44-1.26-.73-1.91h0a20.72,20.72,0,0,0-1.64-3,18.19,18.19,0,0,1-2.2,1.93c.21.34.39.68.56,1s.33.67.47,1,.27.66.38,1,.2.66.29,1l.09.35c.07.3.14.59.18.88s.08.49.12.73,0,.31,0,.47V78c0,.17,0,.34,0,.5s0,.41,0,.61q0,.53,0,1A13.74,13.74,0,0,1,99,81.92l-.06.32c-.07.36-.16.69-.24,1s-.21.69-.3,1a7.51,7.51,0,0,1-.39.94c3.18,5.53.38,12.58.17,13.07h0c-.54.22-7.56,3-13.06-.18a10.91,10.91,0,0,1-2.28.78l-.31.08c-.28.07-.59.13-.92.18l-.4.06a13.43,13.43,0,0,1-1.49.12h-.34a1.93,1.93,0,0,1-.34,0H78.7l-.36,0-.36,0-.21,0-.35,0a1.38,1.38,0,0,1-.2,0l-.38-.06L76.46,99c-.26-.06-.53-.11-.79-.18l-.4-.11-.4-.12A14.9,14.9,0,0,1,73.2,98c-.41-.19-.84-.4-1.26-.64l-.45-.25h0a18.91,18.91,0,0,1-1.93,2.21h0A19.44,19.44,0,0,0,74,101.45a18,18,0,0,0,5.26,1,19.22,19.22,0,0,0,6.62-.85c6.58,2.64,13.87-.07,15.16-.6.53-1.28,3.24-8.58.6-15.16a19.24,19.24,0,0,0,.76-7.85A18.71,18.71,0,0,0,101.63,74.47Z"/><path class="cls-3" d="M97.06,71.49a23.88,23.88,0,0,1-5.67,3.22,9.05,9.05,0,0,1,1,7.72c.91,3.85-1,8.12-1.29,8.64-.52.26-4.79,2.2-8.64,1.29a9.05,9.05,0,0,1-7.72-1,23.88,23.88,0,0,1-3.22,5.67,14.7,14.7,0,0,0,13.64,1c5.5,3.16,12.52.4,13.06.18h0c.2-.49,3-7.54-.18-13.07A14.7,14.7,0,0,0,97.06,71.49Z"/><path class="cls-9" d="M91.39,74.71a18.28,18.28,0,0,1-2,.7,7,7,0,0,1,.84,6.91,10.22,10.22,0,0,1-.8,7.06,10.22,10.22,0,0,1-7.06.8,7,7,0,0,1-6.91-.84,18.28,18.28,0,0,1-.7,2,9.05,9.05,0,0,0,7.72,1c3.85.91,8.12-1,8.64-1.29.26-.52,2.2-4.79,1.29-8.64A9.05,9.05,0,0,0,91.39,74.71Z"/><path class="cls-10" d="M89.34,75.41a18.93,18.93,0,0,1-2.47.52A4.83,4.83,0,0,1,88,81.73a1.11,1.11,0,0,0-.06.91,7.34,7.34,0,0,1-.16,5.15,7.34,7.34,0,0,1-5.15.16,1.11,1.11,0,0,0-.91.06,4.83,4.83,0,0,1-5.8-1.14,18.93,18.93,0,0,1-.52,2.47,7,7,0,0,0,6.91.84,10.22,10.22,0,0,0,7.06-.8,10.22,10.22,0,0,0,.8-7.06A7,7,0,0,0,89.34,75.41Z"/><path class="cls-3" d="M99.21,69.55l-.82-.23c-17.49-4.56-23.27-2.64-25.16-1a10.22,10.22,0,0,0,1,.66C78.43,66,98,69.33,99.21,69.55Z"/><path class="cls-11" d="M99.27,69.56h-.06c-1.26-.22-20.78-3.51-25-.62,4,2.5,9.32,2.92,14,2.6a52.86,52.86,0,0,0,8.06-1.2C98.13,69.91,99.27,69.56,99.27,69.56Z"/><path class="cls-12" d="M81.42,75.92a22.26,22.26,0,0,1-9.68-4.18,22.26,22.26,0,0,1,4.18,9.68c4,2.68,6.26.8,6.26.8l0,0S84.1,79.93,81.42,75.92Z"/><path class="cls-13" d="M86.87,75.93a18.43,18.43,0,0,1-5.45,0c2.68,4,.8,6.26.8,6.26l0,0s-2.25,1.88-6.26-.8a18.43,18.43,0,0,1,0,5.45A4.83,4.83,0,0,0,81.73,88a1.11,1.11,0,0,1,.91-.06,7.34,7.34,0,0,0,5.15-.16A7.34,7.34,0,0,0,88,82.64a1.11,1.11,0,0,1,.06-.91A4.83,4.83,0,0,0,86.87,75.93Z"/><path class="cls-11" d="M68.93,74.19c-2.89,4.24.4,23.76.62,25v0a0,0,0,0,0,0,0c0-.12.37-1.22.77-3a52.86,52.86,0,0,0,1.2-8.06C71.85,83.51,71.43,78.17,68.93,74.19Z"/><path class="cls-6" d="M50.91,66.45,29.62,87.75c12.86-12.7,18.82-13.93,21.27-13.49C49.87,72.75,49.35,70.31,50.91,66.45Z"/><path class="cls-3" d="M50.89,74.26c-2.45-.44-8.41.79-21.27,13.49l-.6.6c1-.81,16.24-13.43,21.36-13Q50.65,74.8,50.89,74.26Z"/><path class="cls-7" d="M69.56,99.27s-.87-.81-2.15-2.19a54.25,54.25,0,0,1-5.08-6.37c-2.63-3.95-4.94-8.78-4.77-13.48a11.55,11.55,0,0,1,.09-1.16,5.77,5.77,0,0,1-3.74.44A22.18,22.18,0,0,0,55.13,87a18.35,18.35,0,0,0,2.71,4.73,18,18,0,0,0,1.69,1.87A19.3,19.3,0,0,0,61.15,95a24,24,0,0,0,5.63,3.3A19.13,19.13,0,0,0,69.56,99.27Z"/><path class="cls-7" d="M53.91,76.51a5.78,5.78,0,0,1-3-2.25q-.24.54-.51,1c-2.2,4.15-6.61,7.18-10.87,9.28a53.52,53.52,0,0,1-7.58,3c-1.71.52-2.83.79-2.95.81h0a19.34,19.34,0,0,0,2.88.57,23.71,23.71,0,0,0,6.52,0,21.07,21.07,0,0,0,2.13-.42,17.58,17.58,0,0,0,2.39-.79A18.12,18.12,0,0,0,47.61,85,22.28,22.28,0,0,0,53.91,76.51Z"/><path class="cls-6" d="M61.53,69.3c-.58,4.12-2.25,6-3.88,6.77C60,76.92,64.53,81,69.32,98.39Z"/><path class="cls-8" d="M66.48,103.77a17.17,17.17,0,0,0,1.29-1.59h0a20,20,0,0,0,1.78-2.92,18.21,18.21,0,0,1-2.78-.94c-.19.35-.39.68-.59,1s-.42.62-.63.9-.45.57-.67.83-.46.5-.7.73a3.19,3.19,0,0,1-.26.26c-.22.21-.44.42-.67.6l-.57.47-.38.27-.07,0-.42.28-.51.32-.9.49a16.41,16.41,0,0,1-1.69.72l-.3.1c-.35.12-.68.21-1,.29s-.7.16-1,.22a7,7,0,0,1-1,.13c-3.2,5.52-10.71,6.62-11.23,6.69h0c-.45-.36-6.36-5.06-6.37-11.41A11,11,0,0,1,36,99.67l-.22-.23c-.2-.21-.4-.44-.61-.7l-.25-.32a13.89,13.89,0,0,1-.86-1.23c0-.1-.12-.19-.17-.29a2.16,2.16,0,0,1-.18-.3c0-.1-.11-.2-.16-.31a1.91,1.91,0,0,1-.16-.32c-.06-.1-.11-.22-.16-.32a.88.88,0,0,1-.09-.2,2.92,2.92,0,0,1-.14-.31,1.54,1.54,0,0,1-.08-.19c0-.11-.09-.23-.14-.36a3.82,3.82,0,0,1-.13-.36c-.08-.25-.17-.51-.24-.77s-.07-.26-.11-.4-.07-.28-.1-.41c-.12-.57-.22-1.15-.29-1.76,0-.45-.06-.93-.07-1.42,0-.16,0-.33,0-.51h0A19,19,0,0,1,29,88.39h0a19.87,19.87,0,0,0,.32,4.92A18.46,18.46,0,0,0,31,98.38a19.44,19.44,0,0,0,4.05,5.31c1,7,7,12,8.1,12.83,1.37-.19,9.05-1.49,13.43-7.06a19.39,19.39,0,0,0,7.18-3.27A18.61,18.61,0,0,0,66.48,103.77Z"/><path class="cls-3" d="M66.78,98.32A24,24,0,0,1,61.15,95,9,9,0,0,1,55,99.72c-2.88,2.71-7.55,3.17-8.13,3.2-.49-.32-4.3-3-5.44-6.84a9,9,0,0,1-3-7.16,23.71,23.71,0,0,1-6.52,0,14.72,14.72,0,0,0,6,12.3c0,6.34,5.91,11,6.37,11.4h0c.52-.07,8-1.17,11.23-6.69A14.68,14.68,0,0,0,66.78,98.32Z"/><path class="cls-9" d="M61.15,95a19.3,19.3,0,0,1-1.62-1.43A7,7,0,0,1,54,97.78a10.16,10.16,0,0,1-6.51,2.83,10.14,10.14,0,0,1-4.22-5.71,7,7,0,0,1-2.73-6.4,21.07,21.07,0,0,1-2.13.42,9,9,0,0,0,3,7.16c1.14,3.79,5,6.52,5.44,6.84.58,0,5.25-.49,8.13-3.2A9,9,0,0,0,61.15,95Z"/><path class="cls-10" d="M59.53,93.59a18,18,0,0,1-1.69-1.87,4.85,4.85,0,0,1-4.45,3.89,1.1,1.1,0,0,0-.82.4A7.35,7.35,0,0,1,48,98.44a7.33,7.33,0,0,1-2.71-4.37,1.13,1.13,0,0,0-.51-.76,4.86,4.86,0,0,1-1.92-5.6,17.58,17.58,0,0,1-2.39.79,7,7,0,0,0,2.73,6.4,10.14,10.14,0,0,0,4.22,5.71A10.16,10.16,0,0,0,54,97.78,7,7,0,0,0,59.53,93.59Z"/><path class="cls-3" d="M69.54,99.21c-.07-.28-.15-.55-.22-.82C64.53,81,60,76.92,57.65,76.07a11.55,11.55,0,0,0-.09,1.16C62.19,79.46,69.09,98,69.54,99.21Z"/><path class="cls-11" d="M69.56,99.27a.32.32,0,0,1,0-.06c-.45-1.19-7.35-19.75-12-22-.17,4.7,2.14,9.53,4.77,13.48a54.25,54.25,0,0,0,5.08,6.37C68.69,98.46,69.56,99.27,69.56,99.27Z"/><path class="cls-12" d="M55.13,87a22.18,22.18,0,0,1-1.22-10.48A22.28,22.28,0,0,1,47.61,85c-.32,4.81,2.44,5.82,2.44,5.82l.05,0S53,91.32,55.13,87Z"/><path class="cls-13" d="M57.84,91.72A18.35,18.35,0,0,1,55.13,87c-2.14,4.33-5,3.83-5,3.83l-.05,0s-2.76-1-2.44-5.82a18.12,18.12,0,0,1-4.72,2.73,4.86,4.86,0,0,0,1.92,5.6,1.13,1.13,0,0,1,.51.76A7.33,7.33,0,0,0,48,98.44,7.35,7.35,0,0,0,52.57,96a1.1,1.1,0,0,1,.82-.4A4.85,4.85,0,0,0,57.84,91.72Z"/><path class="cls-11" d="M50.38,75.31C45.26,74.92,30,87.54,29,88.35l0,0s0,0,0,0,1.24-.29,2.95-.81a53.52,53.52,0,0,0,7.58-3C43.77,82.49,48.18,79.46,50.38,75.31Z"/><path class="cls-6" d="M48.07,55.84,19,48c17.43,4.79,21.47,9.34,22.32,11.68C42.09,58.09,44,56.42,48.07,55.84Z"/><path class="cls-3" d="M41.3,59.72C40.45,57.38,36.41,52.83,19,48l-.82-.21c1.19.44,19.75,7.35,22,12A11.52,11.52,0,0,0,41.3,59.72Z"/><path class="cls-7" d="M29,88.39s.27-1.16.82-3a52.84,52.84,0,0,1,3-7.59c2.09-4.25,5.13-8.67,9.28-10.87.34-.18.69-.35,1-.5a5.83,5.83,0,0,1-2.26-3,22.22,22.22,0,0,0-8.46,6.3,18.4,18.4,0,0,0-2.74,4.71,19.68,19.68,0,0,0-.78,2.4A21.44,21.44,0,0,0,28.45,79a23.71,23.71,0,0,0,0,6.52A18.36,18.36,0,0,0,29,88.39Z"/><path class="cls-7" d="M40.85,63.46a5.82,5.82,0,0,1,.45-3.74,11.52,11.52,0,0,1-1.17.09C35.44,60,30.6,57.67,26.66,55A52.69,52.69,0,0,1,20.28,50c-1.3-1.21-2.09-2.05-2.17-2.15h0a19.29,19.29,0,0,0,.95,2.77,23.61,23.61,0,0,0,3.3,5.63,19.48,19.48,0,0,0,1.42,1.63,17,17,0,0,0,1.88,1.68,18.14,18.14,0,0,0,4.72,2.72A22.31,22.31,0,0,0,40.85,63.46Z"/><path class="cls-6" d="M50.91,66.45c-3.86,1.56-6.3,1-7.8,0,.43,2.44-.79,8.41-13.49,21.27Z"/><path class="cls-8" d="M23.54,88a15.78,15.78,0,0,0,2,.32h0a20.05,20.05,0,0,0,3.41.09,17.56,17.56,0,0,1-.57-2.87l-1.16,0c-.38,0-.74-.06-1.1-.1s-.71-.1-1-.17-.67-.14-1-.23l-.35-.1c-.29-.09-.58-.17-.86-.28s-.46-.17-.69-.27l-.43-.19-.07,0-.45-.22-.53-.29c-.31-.17-.6-.35-.87-.53A14.6,14.6,0,0,1,18.39,82l-.24-.21c-.27-.24-.52-.48-.74-.7s-.49-.53-.67-.75a8.18,8.18,0,0,1-.63-.8c-6.37,0-11.09-6-11.4-6.39h0c.08-.57,1.2-8,6.69-11.21a10.77,10.77,0,0,1,.46-2.37c0-.1.05-.2.08-.3.09-.28.19-.58.31-.89L12.4,58A13.3,13.3,0,0,1,13,56.63l.17-.3a1.69,1.69,0,0,1,.17-.29,3,3,0,0,1,.19-.3,1.89,1.89,0,0,1,.19-.3l.2-.31.13-.17c.06-.1.13-.18.2-.28a1,1,0,0,1,.13-.16,3.15,3.15,0,0,1,.24-.3c.07-.1.16-.2.24-.3l.55-.59c.09-.1.19-.19.29-.29l.31-.29a16,16,0,0,1,1.38-1.13c.37-.26.77-.52,1.19-.78l.44-.25h0a19.29,19.29,0,0,1-.95-2.77h0A19.52,19.52,0,0,0,14,50.55a18.44,18.44,0,0,0-3.51,4,19.57,19.57,0,0,0-2.57,6.16C2.34,65.13,1,72.8.85,74.18c.85,1.09,5.81,7.09,12.83,8.1a19.47,19.47,0,0,0,6.42,4.58A17.57,17.57,0,0,0,23.54,88Z"/><path class="cls-3" d="M28.41,85.51a23.71,23.71,0,0,1,0-6.52,9,9,0,0,1-7.17-3c-3.78-1.14-6.52-5-6.84-5.44,0-.58.5-5.25,3.21-8.13a9,9,0,0,1,4.7-6.2,23.61,23.61,0,0,1-3.3-5.63,14.73,14.73,0,0,0-7.66,11.34C5.9,65.1,4.79,72.56,4.71,73.14h0c.32.41,5,6.36,11.4,6.38A14.7,14.7,0,0,0,28.41,85.51Z"/><path class="cls-9" d="M28.45,79a21.44,21.44,0,0,1,.42-2.12,7,7,0,0,1-6.4-2.73,10.14,10.14,0,0,1-5.71-4.22,10.1,10.1,0,0,1,2.83-6.51,7,7,0,0,1,4.18-5.57,19.48,19.48,0,0,1-1.42-1.63,9,9,0,0,0-4.7,6.2c-2.71,2.88-3.17,7.55-3.21,8.13.32.48,3.06,4.3,6.84,5.44A9,9,0,0,0,28.45,79Z"/><path class="cls-10" d="M28.87,76.87a19.68,19.68,0,0,1,.78-2.4,4.82,4.82,0,0,1-5.59-1.91,1.1,1.1,0,0,0-.76-.51,7.33,7.33,0,0,1-4.37-2.71,7.28,7.28,0,0,1,2.43-4.54,1.14,1.14,0,0,0,.4-.82,4.86,4.86,0,0,1,3.89-4.46,17,17,0,0,1-1.88-1.68,7,7,0,0,0-4.18,5.57,10.1,10.1,0,0,0-2.83,6.51,10.14,10.14,0,0,0,5.71,4.22A7,7,0,0,0,28.87,76.87Z"/><path class="cls-3" d="M29,88.34l.61-.59c12.7-12.86,13.92-18.83,13.49-21.27-.36.15-.71.32-1,.5C42.44,72.1,29.83,87.36,29,88.34Z"/><path class="cls-11" d="M29,88.39l0,0c.82-1,13.43-16.24,13.05-21.36-4.15,2.2-7.19,6.62-9.28,10.87a52.84,52.84,0,0,0-3,7.59C29.24,87.23,29,88.39,29,88.39Z"/><path class="cls-12" d="M32.39,69.76a22.22,22.22,0,0,1,8.46-6.3,22.31,22.31,0,0,1-10.48-1.22c-4.32,2.13-3.82,5-3.82,5v.06S27.58,70.07,32.39,69.76Z"/><path class="cls-13" d="M29.65,74.47a18.4,18.4,0,0,1,2.74-4.71c-4.81.31-5.83-2.44-5.83-2.44v-.06s-.5-2.89,3.82-5a18.14,18.14,0,0,1-4.72-2.72A4.86,4.86,0,0,0,21.76,64a1.14,1.14,0,0,1-.4.82,7.28,7.28,0,0,0-2.43,4.54,7.33,7.33,0,0,0,4.37,2.71,1.1,1.1,0,0,1,.76.51A4.82,4.82,0,0,0,29.65,74.47Z"/><path class="cls-11" d="M40.13,59.81c-2.22-4.63-20.78-11.54-22-12h-.05c.08.1.87.94,2.17,2.15A52.69,52.69,0,0,0,26.66,55C30.6,57.67,35.44,60,40.13,59.81Z"/><path class="cls-6" d="M55.84,48.07,48,19c4.57,17.48,2.65,23.26,1.06,25.16C50.91,44,53.28,44.79,55.84,48.07Z"/><path class="cls-3" d="M49.1,44.14C50.69,42.24,52.61,36.46,48,19c-.07-.27-.14-.54-.22-.82.21,1.25,3.51,20.78.61,25C48.64,43.51,48.86,43.83,49.1,44.14Z"/><path class="cls-7" d="M18.1,47.81s1.13-.36,3-.77a54,54,0,0,1,8.06-1.21c4.73-.31,10.07.11,14.05,2.6.33.21.65.42,1,.66a5.83,5.83,0,0,1,1.49-3.46A22.14,22.14,0,0,0,36,41.45a18.1,18.1,0,0,0-5.45,0A17.42,17.42,0,0,0,28,42a20.53,20.53,0,0,0-2.05.69,23.88,23.88,0,0,0-5.67,3.23A18.91,18.91,0,0,0,18.1,47.81Z"/><path class="cls-7" d="M45.63,45.63a5.83,5.83,0,0,1,3.47-1.49c-.24-.31-.46-.63-.67-1-2.49-4-2.91-9.32-2.6-14.06A54.4,54.4,0,0,1,47,21.06c.4-1.73.73-2.84.77-2.95h0a17.89,17.89,0,0,0-1.93,2.21A23.88,23.88,0,0,0,42.66,26,17.61,17.61,0,0,0,42,28a18.44,18.44,0,0,0-.52,2.46,18.1,18.1,0,0,0,0,5.45A22.24,22.24,0,0,0,45.63,45.63Z"/><path class="cls-6" d="M48.07,55.84c-3.28-2.56-4-4.94-3.93-6.75C42.25,50.69,36.47,52.61,19,48Z"/><path class="cls-8" d="M15.74,42.89a19.76,19.76,0,0,0,.73,1.92h0a20.29,20.29,0,0,0,1.64,3,17.24,17.24,0,0,1,2.2-1.93c-.21-.34-.39-.68-.56-1s-.33-.66-.47-1-.27-.67-.38-1-.2-.65-.29-1l-.09-.36c-.07-.29-.14-.58-.19-.88s-.07-.49-.11-.73,0-.31,0-.46a.27.27,0,0,1,0-.09c0-.17,0-.33,0-.5s0-.4,0-.6,0-.7,0-1a12.4,12.4,0,0,1,.22-1.83c0-.1,0-.21.06-.31.07-.36.16-.69.23-1s.22-.69.31-1a6.73,6.73,0,0,1,.39-.94c-3.18-5.53-.38-12.59-.18-13.07h0c.54-.21,7.56-3,13.06.19a11.23,11.23,0,0,1,2.28-.79l.3-.07c.29-.07.59-.13.92-.18l.41-.06c.46-.06,1-.11,1.49-.13H38a1.93,1.93,0,0,1,.34,0h.35a2.17,2.17,0,0,1,.36,0l.36,0,.21,0,.35,0a.69.69,0,0,1,.2,0l.38.06.38.06c.26.05.53.11.79.18s.26.07.4.1l.4.12c.55.18,1.1.39,1.66.63s.84.41,1.27.64l.44.26h0a17.89,17.89,0,0,1,1.93-2.21h0a19.86,19.86,0,0,0-4.42-2.18,18.68,18.68,0,0,0-5.26-1,19.73,19.73,0,0,0-6.62.85c-6.58-2.63-13.87.08-15.16.61-.53,1.27-3.24,8.57-.6,15.15A19.31,19.31,0,0,0,15,39.36,18.45,18.45,0,0,0,15.74,42.89Z"/><path class="cls-3" d="M20.31,45.88A23.88,23.88,0,0,1,26,42.65a9,9,0,0,1-1-7.71c-.91-3.85,1-8.12,1.29-8.64.52-.26,4.79-2.2,8.64-1.29a9,9,0,0,1,7.72,1,23.88,23.88,0,0,1,3.22-5.67,14.7,14.7,0,0,0-13.64-1c-5.51-3.17-12.52-.4-13.06-.19h0c-.2.48-3,7.54.18,13.07A14.7,14.7,0,0,0,20.31,45.88Z"/><path class="cls-9" d="M26,42.65A20.53,20.53,0,0,1,28,42,7,7,0,0,1,27.19,35a10.21,10.21,0,0,1,.8-7,10.11,10.11,0,0,1,7.06-.8A7,7,0,0,1,42,28a17.61,17.61,0,0,1,.7-2.05,9,9,0,0,0-7.72-1c-3.85-.91-8.12,1-8.64,1.29-.26.52-2.2,4.79-1.29,8.64A9,9,0,0,0,26,42.65Z"/><path class="cls-10" d="M28,42a17.42,17.42,0,0,1,2.47-.52,4.83,4.83,0,0,1-1.14-5.8,1.14,1.14,0,0,0,.06-.92,7.32,7.32,0,0,1,.16-5.14,7.26,7.26,0,0,1,5.14-.16,1.14,1.14,0,0,0,.92-.07,4.85,4.85,0,0,1,5.8,1.14A18.44,18.44,0,0,1,42,28a7,7,0,0,0-6.91-.84A10.11,10.11,0,0,0,28,28a10.21,10.21,0,0,0-.8,7.05A7,7,0,0,0,28,42Z"/><path class="cls-3" d="M18.16,47.82,19,48c17.49,4.57,23.27,2.65,25.16,1.05-.31-.24-.63-.45-1-.66C38.94,51.33,19.42,48,18.16,47.82Z"/><path class="cls-11" d="M18.1,47.81h.06c1.26.21,20.78,3.51,25,.61-4-2.49-9.32-2.91-14-2.6A54,54,0,0,0,21.07,47C19.23,47.45,18.1,47.81,18.1,47.81Z"/><path class="cls-12" d="M36,41.45a22.14,22.14,0,0,1,9.68,4.18,22.24,22.24,0,0,1-4.18-9.69c-4-2.67-6.26-.8-6.26-.8l0,0S33.27,37.44,36,41.45Z"/><path class="cls-13" d="M30.5,41.44a18.1,18.1,0,0,1,5.45,0c-2.68-4-.8-6.27-.8-6.27l0,0s2.25-1.87,6.26.8a18.1,18.1,0,0,1,0-5.45,4.85,4.85,0,0,0-5.8-1.14,1.14,1.14,0,0,1-.92.07,7.26,7.26,0,0,0-5.14.16,7.32,7.32,0,0,0-.16,5.14,1.14,1.14,0,0,1-.06.92A4.83,4.83,0,0,0,30.5,41.44Z"/><path class="cls-11" d="M48.43,43.18c2.9-4.24-.4-23.77-.61-25v0s0,0,0,0-.37,1.22-.77,2.95a54.4,54.4,0,0,0-1.21,8.06C45.52,33.86,45.94,39.2,48.43,43.18Z"/><path class="cls-2" d="M93.32,29.29A19.4,19.4,0,0,0,88.4,29a19.87,19.87,0,0,0-.32-4.92,1.93,1.93,0,0,1,2.14-.36,3.15,3.15,0,0,1,.28-.25,2.45,2.45,0,0,1,3.42,3.42,3.15,3.15,0,0,1-.25.28A2,2,0,0,1,93.32,29.29Z"/><path class="cls-13" d="M98.38,31a18.46,18.46,0,0,0-5.06-1.75,2,2,0,0,0,.35-2.15,3.15,3.15,0,0,0,.25-.28,2.45,2.45,0,0,0-3.42-3.42,3.15,3.15,0,0,0-.28.25,1.93,1.93,0,0,0-2.14.36A18.41,18.41,0,0,0,86.32,19a5.12,5.12,0,0,1,4.08.29,4.22,4.22,0,0,1,4.78-.93A6.61,6.61,0,0,1,99,22.18,4.22,4.22,0,0,1,98.09,27,5.07,5.07,0,0,1,98.38,31Z"/><path class="cls-12" d="M103.69,35.09A19.25,19.25,0,0,0,98.38,31,5.07,5.07,0,0,0,98.09,27,4.22,4.22,0,0,0,99,22.18a6.61,6.61,0,0,0-3.84-3.84,4.22,4.22,0,0,0-4.78.93A5.12,5.12,0,0,0,86.32,19a19.21,19.21,0,0,0-4-5.3h0a7,7,0,0,1,8.06.77A9.24,9.24,0,0,1,102.93,27,7,7,0,0,1,103.69,35.09Z"/><path class="cls-2" d="M101.46,74a19.92,19.92,0,0,0-2.19-4.42,19.77,19.77,0,0,0,4.1-2.74,1.93,1.93,0,0,1,1.38,1.68,2,2,0,0,1,.37.12,2.45,2.45,0,0,1-1.25,4.67l-.38-.08A1.93,1.93,0,0,1,101.46,74Z"/><path class="cls-13" d="M102.48,79.24a18.68,18.68,0,0,0-1-5.26,1.93,1.93,0,0,0,2-.77l.38.08a2.45,2.45,0,0,0,1.25-4.67,2,2,0,0,0-.37-.12,1.93,1.93,0,0,0-1.38-1.68,18.27,18.27,0,0,0,3.52-4,5.11,5.11,0,0,1,1.79,3.67,4.23,4.23,0,0,1,3.19,3.68,6.64,6.64,0,0,1-1.4,5.25A4.25,4.25,0,0,1,105.86,77,5.08,5.08,0,0,1,102.48,79.24Z"/><path class="cls-12" d="M101.62,85.86a19.44,19.44,0,0,0,.86-6.62A5.08,5.08,0,0,0,105.86,77a4.25,4.25,0,0,0,4.61-1.58,6.64,6.64,0,0,0,1.4-5.25,4.23,4.23,0,0,0-3.19-3.68,5.11,5.11,0,0,0-1.79-3.67,19.48,19.48,0,0,0,2.57-6.16h0A7,7,0,0,1,112.83,64a9.23,9.23,0,0,1-4.6,17.18A7,7,0,0,1,101.62,85.86Z"/><path class="cls-2" d="M66.82,103.37a19.26,19.26,0,0,0,2.74-4.1A19.44,19.44,0,0,0,74,101.45a1.92,1.92,0,0,1-.76,2c0,.12.06.25.08.37a2.45,2.45,0,0,1-4.67,1.25,1.9,1.9,0,0,1-.12-.36A1.94,1.94,0,0,1,66.82,103.37Z"/><path class="cls-13" d="M62.78,106.89a18.23,18.23,0,0,0,4-3.52,1.94,1.94,0,0,0,1.69,1.38,1.9,1.9,0,0,0,.12.36,2.45,2.45,0,0,0,4.67-1.25c0-.12,0-.25-.08-.37a1.92,1.92,0,0,0,.76-2,18.06,18.06,0,0,0,5.27,1A5.09,5.09,0,0,1,77,105.86a4.24,4.24,0,0,1-1.58,4.6,6.61,6.61,0,0,1-5.25,1.41,4.23,4.23,0,0,1-3.68-3.2A5.07,5.07,0,0,1,62.78,106.89Z"/><path class="cls-12" d="M56.62,109.46a19.57,19.57,0,0,0,6.16-2.57,5.07,5.07,0,0,0,3.67,1.78,4.23,4.23,0,0,0,3.68,3.2,6.61,6.61,0,0,0,5.25-1.41,4.24,4.24,0,0,0,1.58-4.6,5.09,5.09,0,0,0,2.29-3.39,19.16,19.16,0,0,0,6.61-.85h0a7,7,0,0,1-4.7,6.59A9.23,9.23,0,0,1,64,112.83,7,7,0,0,1,56.62,109.46Z"/><path class="cls-2" d="M24.05,88.08A19.87,19.87,0,0,0,29,88.4a19.87,19.87,0,0,0,.32,4.92,1.92,1.92,0,0,1-2.14.35,2.35,2.35,0,0,1-.29.26,2.44,2.44,0,0,1-3.41-3.42l.25-.29A1.92,1.92,0,0,1,24.05,88.08Z"/><path class="cls-13" d="M19,86.33a18.65,18.65,0,0,0,5.07,1.75,1.92,1.92,0,0,0-.35,2.14l-.25.29a2.44,2.44,0,0,0,3.41,3.42,2.35,2.35,0,0,0,.29-.26,1.92,1.92,0,0,0,2.14-.35,18.65,18.65,0,0,0,1.76,5.07A5.12,5.12,0,0,1,27,98.1a4.26,4.26,0,0,1-4.78.93,6.65,6.65,0,0,1-3.85-3.84,4.24,4.24,0,0,1,.94-4.78A5.11,5.11,0,0,1,19,86.33Z"/><path class="cls-12" d="M13.68,82.28a19.73,19.73,0,0,0,5.3,4,5.11,5.11,0,0,0,.3,4.08,4.24,4.24,0,0,0-.94,4.78A6.65,6.65,0,0,0,22.19,99,4.26,4.26,0,0,0,27,98.1a5.12,5.12,0,0,0,4.08.29,19.37,19.37,0,0,0,4,5.3h0a7,7,0,0,1-8.06-.77A9.24,9.24,0,0,1,14.44,90.35,7,7,0,0,1,13.68,82.28Z"/><path class="cls-2" d="M15.91,43.39a19.86,19.86,0,0,0,2.18,4.42A19.52,19.52,0,0,0,14,50.55a1.93,1.93,0,0,1-1.37-1.68l-.37-.12a2.45,2.45,0,0,1,1.25-4.67,2.87,2.87,0,0,1,.38.08A1.93,1.93,0,0,1,15.91,43.39Z"/><path class="cls-13" d="M14.89,38.12a18.67,18.67,0,0,0,1,5.27,1.93,1.93,0,0,0-2,.77,2.87,2.87,0,0,0-.38-.08,2.45,2.45,0,0,0-1.25,4.67l.37.12A1.93,1.93,0,0,0,14,50.55a18.47,18.47,0,0,0-3.51,4.05,5.12,5.12,0,0,1-1.79-3.68A4.22,4.22,0,0,1,5.5,47.25,6.62,6.62,0,0,1,6.9,42a4.22,4.22,0,0,1,4.61-1.58A5.12,5.12,0,0,1,14.89,38.12Z"/><path class="cls-12" d="M15.75,31.51a19.41,19.41,0,0,0-.86,6.61,5.12,5.12,0,0,0-3.38,2.3A4.22,4.22,0,0,0,6.9,42a6.62,6.62,0,0,0-1.4,5.25,4.22,4.22,0,0,0,3.19,3.67,5.12,5.12,0,0,0,1.79,3.68,19.44,19.44,0,0,0-2.57,6.15h0a7,7,0,0,1-3.36-7.37A9.23,9.23,0,0,1,9.14,36.2,7,7,0,0,1,15.75,31.51Z"/><path class="cls-2" d="M50.55,14a19.52,19.52,0,0,0-2.74,4.1,19.71,19.71,0,0,0-4.43-2.18,1.93,1.93,0,0,1,.77-2c0-.13-.06-.26-.08-.38a2.45,2.45,0,0,1,4.67-1.25,2,2,0,0,1,.12.37A1.94,1.94,0,0,1,50.55,14Z"/><path class="cls-13" d="M54.59,10.48a18.44,18.44,0,0,0-4,3.51,1.94,1.94,0,0,0-1.69-1.37,2,2,0,0,0-.12-.37,2.45,2.45,0,0,0-4.67,1.25c0,.12,0,.25.08.38a1.93,1.93,0,0,0-.77,2,18.23,18.23,0,0,0-5.26-1,5.09,5.09,0,0,1,2.29-3.39A4.25,4.25,0,0,1,42,6.9a6.63,6.63,0,0,1,5.25-1.4,4.23,4.23,0,0,1,3.68,3.19A5.11,5.11,0,0,1,54.59,10.48Z"/><path class="cls-12" d="M60.75,7.91a19.57,19.57,0,0,0-6.16,2.57,5.11,5.11,0,0,0-3.67-1.79A4.23,4.23,0,0,0,47.24,5.5,6.63,6.63,0,0,0,42,6.9a4.25,4.25,0,0,0-1.58,4.61,5.09,5.09,0,0,0-2.29,3.39,19.44,19.44,0,0,0-6.61.84h0a7,7,0,0,1,4.69-6.6,9.24,9.24,0,0,1,17.19-4.6A7,7,0,0,1,60.75,7.91Z"/></g></g></svg>