<svg xmlns="http://www.w3.org/2000/svg" viewBox="0 0 143.08 143.08"><defs><style>.cls-1{fill:#526d8b;}.cls-2{fill:#5eb6b3;}.cls-3{fill:#243c23;}.cls-4{fill:#ce8435;}.cls-5{fill:#926b0a;}.cls-6{fill:#d6e9d1;}.cls-7{fill:#7eb383;}.cls-8{fill:#652f05;}.cls-9{fill:#e4bd68;}.cls-10{fill:#d2e2e5;}.cls-11{fill:#7aadc3;}.cls-12{fill:#4d8e5b;}.cls-13{fill:#374d64;}</style></defs><g id="图层_2" data-name="图层 2"><g id="文件图层"><path class="cls-1" d="M40,69.16l4.22,2.38L40,73.92c-.38.22-9.41,5.42-9.41,14.8a15.41,15.41,0,0,0,.22,2.61c1.14,6.33,5.75,8.8,9.82,8.44A8,8,0,0,0,45.09,98a7.93,7.93,0,0,0-1.77,4.45c-.37,4.07,2.1,8.68,8.43,9.82a14.45,14.45,0,0,0,2.61.22c9.38,0,14.59-9,14.8-9.41l2.38-4.22,2.38,4.22c.22.38,5.42,9.41,14.8,9.41a15.41,15.41,0,0,0,2.61-.22l.27-.06h0a11.87,11.87,0,0,0,3.7-1.35,9.24,9.24,0,0,0,2.61-2.22,8.56,8.56,0,0,0,1.48-2.75,8.82,8.82,0,0,0,.38-3.44A8,8,0,0,0,98,98a8,8,0,0,0,4.4,1.73,8.59,8.59,0,0,0,3.43-.39,8.4,8.4,0,0,0,2.75-1.46,9,9,0,0,0,2.23-2.62,12,12,0,0,0,1.35-3.7h0l.06-.26a15.41,15.41,0,0,0,.22-2.61c0-9.38-9-14.59-9.41-14.8l-4.22-2.38,4.22-2.38c.38-.22,9.41-5.43,9.41-14.81a15.3,15.3,0,0,0-.22-2.6c-1.14-6.33-5.75-8.8-9.82-8.44A8,8,0,0,0,98,45.08a8,8,0,0,0,1.76-4.43c.37-4.07-2.1-8.68-8.43-9.82a15.41,15.41,0,0,0-2.61-.22c-9.38,0-14.59,9-14.8,9.41l-2.38,4.22L69.16,40c-.22-.38-5.43-9.41-14.8-9.41a15.41,15.41,0,0,0-2.61.22C45.42,32,43,36.58,43.31,40.65a8,8,0,0,0,1.77,4.43,8,8,0,0,0-4.43-1.77C36.58,43,32,45.42,30.83,51.75a15.41,15.41,0,0,0-.22,2.61C30.61,63.74,39.64,69,40,69.16Z"/><path class="cls-2" d="M42.68,66.44a17.44,17.44,0,0,1-2.62-9,15.69,15.69,0,0,1,.1-1.77A7,7,0,0,0,42,56c2.38,0,5.23-1.38,5.44-5.6V50.1A6.45,6.45,0,0,0,46,46a6.46,6.46,0,0,0,4.14,1.49h.32c4.23-.2,5.66-3.05,5.61-5.43a7.06,7.06,0,0,0-.33-1.86,15.87,15.87,0,0,1,1.78-.1,17.57,17.57,0,0,1,9,2.61l4.47,2.67.62.37.62-.37,4.48-2.67a17.51,17.51,0,0,1,9-2.61,15.73,15.73,0,0,1,1.78.1A7,7,0,0,0,87.05,42c0,2.38,1.38,5.23,5.6,5.43H93A6.45,6.45,0,0,0,97.11,46a6.51,6.51,0,0,0-1.5,4.13c0,.11,0,.22,0,.33.2,4.22,3.05,5.66,5.43,5.6a6.66,6.66,0,0,0,1.86-.32c.06.53.09,1.13.1,1.78a17.49,17.49,0,0,1-2.62,9l-2.67,4.46-.36.63.36.62,2.67,4.48a17.27,17.27,0,0,1,2.61,9,12.31,12.31,0,0,1-.1,1.78,5.9,5.9,0,0,0-1.86-.31c-2.37-.07-5.22,1.37-5.42,5.59,0,.11,0,.22,0,.32a6.53,6.53,0,0,0,1.48,4.12A6.52,6.52,0,0,0,93,95.61h-.33c-4.22.2-5.66,3.06-5.61,5.43a6.55,6.55,0,0,0,.33,1.86,15.73,15.73,0,0,1-1.78.11,17.49,17.49,0,0,1-9-2.62l-4.47-2.66-.62-.37-.62.37-4.48,2.66A17.32,17.32,0,0,1,57.49,103a12.14,12.14,0,0,1-1.78-.1,6.54,6.54,0,0,0,.32-1.86c.06-2.37-1.37-5.22-5.6-5.42a1.74,1.74,0,0,0-.32,0A6.45,6.45,0,0,0,46,97.11,6.37,6.37,0,0,0,47.46,93v-.32C47.25,88.42,44.4,87,42,87a6.68,6.68,0,0,0-1.86.33,16,16,0,0,1-.1-1.78,17.44,17.44,0,0,1,2.62-9l2.66-4.47.37-.62-.37-.63Z"/><path class="cls-3" d="M93,96.6c3.07,0,5.51,2.49,5.82,5.92.32,3.62-1.92,7.74-7.63,8.75a13.58,13.58,0,0,1-2.44.22c-8.81,0-13.74-8.55-14-8.92L73,99.36l3.17,1.89A18.44,18.44,0,0,0,85.59,104a15.19,15.19,0,0,0,3.22-.33A5.39,5.39,0,0,1,88,101c0-2,1.15-4.26,4.67-4.42Z"/><path class="cls-3" d="M50.1,96.6c-3.06,0-5.5,2.49-5.81,5.92-.32,3.62,1.92,7.74,7.63,8.75a13.42,13.42,0,0,0,2.44.22c8.81,0,13.74-8.55,13.94-8.92l1.82-3.21L67,101.25A18.44,18.44,0,0,1,57.49,104a15.11,15.11,0,0,1-3.22-.33,5.39,5.39,0,0,0,.78-2.64c.05-2-1.15-4.26-4.67-4.42Z"/><path class="cls-4" d="M91,104c-1.87.31-4-6.16,1.76-6.43a4.53,4.53,0,0,1,1.53.18c2,2,1.49,7.66-5.1,9-8.13,1.65-13.2-4.28-13.52-4.66l0,0C84.19,107.17,91,104,91,104Z"/><path class="cls-4" d="M52.09,104c1.88.31,4-6.16-1.75-6.43a4.5,4.5,0,0,0-1.53.18c-2,2-1.49,7.66,5.1,9,8.13,1.65,13.2-4.28,13.52-4.66l0,0C58.89,107.17,52.09,104,52.09,104Z"/><path class="cls-5" d="M75.65,102.11c.32.38,5.39,6.31,13.52,4.66,6.59-1.34,7.07-7,5.1-9,4.89,1.44,5.59,11-3.29,12.54C81.53,112,76,102.65,75.65,102.11Z"/><path class="cls-5" d="M67.43,102.11c-.32.38-5.39,6.31-13.52,4.66-6.59-1.34-7.07-7-5.1-9-4.89,1.44-5.6,11,3.28,12.54C61.55,112,67.12,102.65,67.43,102.11Z"/><path class="cls-3" d="M96.6,50.1c0-3.06,2.49-5.5,5.92-5.81,3.62-.32,7.74,1.92,8.75,7.63a13.42,13.42,0,0,1,.22,2.44c0,8.81-8.55,13.74-8.92,13.94l-3.21,1.82L101.25,67A18.44,18.44,0,0,0,104,57.49a15.11,15.11,0,0,0-.33-3.22,5.39,5.39,0,0,1-2.64.78c-2,.05-4.26-1.15-4.42-4.67A2.53,2.53,0,0,1,96.6,50.1Z"/><path class="cls-3" d="M96.6,93c0,3.07,2.49,5.51,5.92,5.82,3.62.32,7.74-1.92,8.75-7.63a13.58,13.58,0,0,0,.22-2.44c0-8.81-8.55-13.74-8.92-14L99.36,73l1.89,3.17A18.44,18.44,0,0,1,104,85.59a15.19,15.19,0,0,1-.33,3.22A5.39,5.39,0,0,0,101,88c-2,0-4.26,1.15-4.42,4.67A2.44,2.44,0,0,0,96.6,93Z"/><path class="cls-4" d="M104,52.09c.31,1.88-6.16,4-6.43-1.75a4.5,4.5,0,0,1,.18-1.53c2-2,7.66-1.49,9,5.1,1.65,8.13-4.28,13.2-4.66,13.52l0,0C107.17,58.89,104,52.09,104,52.09Z"/><path class="cls-4" d="M104,91c.31-1.87-6.16-4-6.43,1.76a4.53,4.53,0,0,0,.18,1.53c2,2,7.66,1.49,9-5.1,1.65-8.13-4.28-13.2-4.66-13.52l0,0C107.17,84.19,104,91,104,91Z"/><path class="cls-5" d="M102.11,67.43c.38-.32,6.31-5.39,4.66-13.52-1.34-6.59-7-7.07-9-5.1,1.44-4.89,11-5.6,12.54,3.28C112,61.55,102.65,67.12,102.11,67.43Z"/><path class="cls-5" d="M102.11,75.65c.38.32,6.31,5.39,4.66,13.52-1.34,6.59-7,7.07-9,5.1,1.44,4.89,11,5.59,12.54-3.29C112,81.53,102.65,76,102.11,75.65Z"/><path class="cls-3" d="M50.1,46.48c-3.06,0-5.5-2.49-5.81-5.92-.32-3.62,1.92-7.74,7.63-8.76a14.36,14.36,0,0,1,2.44-.21c8.81,0,13.74,8.55,13.94,8.91l1.82,3.22L67,41.83a18.45,18.45,0,0,0-9.46-2.76,15,15,0,0,0-3.22.34,5.35,5.35,0,0,1,.78,2.64c.05,2-1.15,4.26-4.67,4.42Z"/><path class="cls-3" d="M93,46.48c3.07,0,5.51-2.49,5.82-5.92.32-3.62-1.92-7.74-7.63-8.76a14.54,14.54,0,0,0-2.44-.21c-8.81,0-13.74,8.55-14,8.91L73,43.72l3.17-1.89a18.45,18.45,0,0,1,9.46-2.76,15.11,15.11,0,0,1,3.22.34A5.35,5.35,0,0,0,88,42.05c0,2,1.15,4.26,4.67,4.42Z"/><path class="cls-4" d="M52.09,39.05c1.88-.3,4,6.17-1.75,6.44a4.5,4.5,0,0,1-1.53-.18c-2-2-1.49-7.66,5.1-9C62,34.66,67.11,40.59,67.43,41l0,0C58.89,35.91,52.09,39.05,52.09,39.05Z"/><path class="cls-4" d="M91,39.05c-1.87-.3-4,6.17,1.76,6.44a4.53,4.53,0,0,0,1.53-.18c2-2,1.49-7.66-5.1-9C81,34.66,76,40.59,75.65,41l0,0C84.19,35.91,91,39.05,91,39.05Z"/><path class="cls-5" d="M67.43,41c-.32-.38-5.39-6.31-13.52-4.66-6.59,1.34-7.07,7-5.1,9-4.89-1.44-5.6-11,3.28-12.54C61.55,31.08,67.12,40.43,67.43,41Z"/><path class="cls-5" d="M75.65,41c.32-.38,5.39-6.31,13.52-4.66,6.59,1.34,7.07,7,5.1,9,4.89-1.44,5.59-11-3.29-12.54C81.53,31.08,76,40.43,75.65,41Z"/><path class="cls-3" d="M46.48,93c0,3.07-2.49,5.51-5.92,5.82-3.62.32-7.74-1.92-8.76-7.63a14.54,14.54,0,0,1-.21-2.44c0-8.81,8.55-13.74,8.91-14L43.72,73l-1.89,3.17a18.45,18.45,0,0,0-2.76,9.46,15.11,15.11,0,0,0,.34,3.22A5.35,5.35,0,0,1,42.05,88c2,0,4.26,1.15,4.42,4.67A2.44,2.44,0,0,1,46.48,93Z"/><path class="cls-3" d="M46.48,50.1c0-3.06-2.49-5.5-5.92-5.81-3.62-.32-7.74,1.92-8.76,7.63a14.36,14.36,0,0,0-.21,2.44c0,8.81,8.55,13.74,8.91,13.94l3.22,1.82L41.83,67a18.45,18.45,0,0,1-2.76-9.46,15,15,0,0,1,.34-3.22,5.35,5.35,0,0,0,2.64.78c2,.05,4.26-1.15,4.42-4.67A2.53,2.53,0,0,0,46.48,50.1Z"/><path class="cls-4" d="M39.05,91c-.3-1.87,6.17-4,6.44,1.76a4.53,4.53,0,0,1-.18,1.53c-2,2-7.66,1.49-9-5.1C34.66,81,40.59,76,41,75.65l0,0C35.91,84.19,39.05,91,39.05,91Z"/><path class="cls-4" d="M39.05,52.09c-.3,1.88,6.17,4,6.44-1.75a4.5,4.5,0,0,0-.18-1.53c-2-2-7.66-1.49-9,5.1C34.66,62,40.59,67.11,41,67.43l0,0C35.91,58.89,39.05,52.09,39.05,52.09Z"/><path class="cls-5" d="M41,75.65c-.38.32-6.31,5.39-4.66,13.52,1.34,6.59,7,7.07,9,5.1-1.44,4.89-11,5.59-12.54-3.29C31.08,81.53,40.43,76,41,75.65Z"/><path class="cls-5" d="M41,67.43c-.38-.32-6.31-5.39-4.66-13.52,1.34-6.59,7-7.07,9-5.1-1.44-4.89-11-5.6-12.54,3.28C31.08,61.55,40.43,67.12,41,67.43Z"/><circle class="cls-1" cx="71.54" cy="71.54" r="12.11"/><circle class="cls-6" cx="71.54" cy="71.54" r="8.04"/><circle class="cls-7" cx="71.54" cy="71.54" r="5.59"/><path class="cls-8" d="M63.08,89.2a16.8,16.8,0,0,1,1.84-7.52,11.51,11.51,0,0,0,1.73.94c-1.94,3.23-2.36,10.69,0,12.65,2.52,2.08,4.88-.52,4.88-.52s2.37,2.6,4.88.52,2-9.43,0-12.65a12.57,12.57,0,0,0,1.73-.94A16.8,16.8,0,0,1,80,89.2c.07,2.06-.16,5.79-2.33,7.58a5.15,5.15,0,0,1-6.14.45,5.13,5.13,0,0,1-6.13-.45C63.24,95,63,91.26,63.08,89.2Z"/><path class="cls-9" d="M66.65,82.62a11.48,11.48,0,0,0,2.12.71c-1,6,2.77,4.83,2.77,4.83s3.8,1.15,2.78-4.83a11.63,11.63,0,0,0,2.11-.71c1.94,3.22,2.36,10.69,0,12.65s-4.88-.52-4.88-.52-2.36,2.6-4.88.52C64.29,93.31,64.71,85.85,66.65,82.62Z"/><path class="cls-4" d="M68.77,83.33a11.94,11.94,0,0,0,2.77.32,12.09,12.09,0,0,0,2.78-.32c1,6-2.78,4.83-2.78,4.83S67.74,89.31,68.77,83.33Z"/><path class="cls-8" d="M63.08,53.88a16.8,16.8,0,0,0,1.84,7.52,11.51,11.51,0,0,1,1.73-.94c-1.94-3.23-2.36-10.69,0-12.65,2.52-2.08,4.88.52,4.88.52s2.37-2.6,4.88-.52,2,9.43,0,12.65a12.57,12.57,0,0,1,1.73.94A16.8,16.8,0,0,0,80,53.88c.07-2.06-.16-5.79-2.33-7.58a5.13,5.13,0,0,0-6.14-.45,5.12,5.12,0,0,0-6.13.45C63.24,48.09,63,51.82,63.08,53.88Z"/><path class="cls-9" d="M66.65,60.46a11.48,11.48,0,0,1,2.12-.71c-1-6,2.77-4.83,2.77-4.83s3.8-1.15,2.78,4.83a11.63,11.63,0,0,1,2.11.71c1.94-3.22,2.36-10.69,0-12.65s-4.88.52-4.88.52-2.36-2.6-4.88-.52C64.29,49.77,64.71,57.23,66.65,60.46Z"/><path class="cls-4" d="M68.77,59.75a11.94,11.94,0,0,1,2.77-.32,12.09,12.09,0,0,1,2.78.32c1-6-2.78-4.83-2.78-4.83S67.74,53.77,68.77,59.75Z"/><path class="cls-8" d="M79.62,62.52a16.76,16.76,0,0,1,6.79-3.72c2-.6,5.64-1.35,7.93.28a5.14,5.14,0,0,1,2,5.81,5.14,5.14,0,0,1,1.16,6,4.09,4.09,0,0,1-.34.61,3.29,3.29,0,0,1,.34.61,5.17,5.17,0,0,1-1.16,6,5.13,5.13,0,0,1-2,5.8c-2.29,1.63-6,.88-7.93.28a16.88,16.88,0,0,1-6.79-3.72A11.53,11.53,0,0,0,81,79.13c2.61,2.71,9.71,5.05,12.22,3.26s.76-4.84.76-4.84S97,76,95.74,73a.14.14,0,0,0,0-.06,3.61,3.61,0,0,0-1.28-1.42,3.61,3.61,0,0,0,1.28-1.42.14.14,0,0,0,0-.06C97,67.13,94,65.53,94,65.53s1.9-3-.76-4.85S83.59,61.24,81,64A11.53,11.53,0,0,0,79.62,62.52Z"/><path class="cls-9" d="M82.21,65.81A11.52,11.52,0,0,0,81,64c2.61-2.71,9.71-5,12.22-3.27s.76,4.85.76,4.85S96.3,66.74,96,69a2.54,2.54,0,0,1-.14.64.29.29,0,0,1,0,.1c0,.11-.08.22-.13.33a.14.14,0,0,1,0,.06,3.61,3.61,0,0,1-1.28,1.42A3.61,3.61,0,0,1,95.72,73a.14.14,0,0,1,0,.06c.05.11.09.22.13.32a.45.45,0,0,1,0,.11,2.57,2.57,0,0,1,.14.63C96.3,76.34,94,77.55,94,77.55s1.9,3-.76,4.84S83.59,81.84,81,79.13l.2-.25a12.14,12.14,0,0,0,.75-1.12c.1-.16.2-.33.28-.49a13.36,13.36,0,0,0,.62-1.33,3.9,3.9,0,0,0,2.08,3c2.7,1.17,3.26-2,1.35-2.43a4.53,4.53,0,0,1-2.9-2.37h0c.06-.25.11-.51.15-.76s0-.24,0-.36,0-.24,0-.36c1.64,1.63,4.78,4.22,6.55,2.3a1.5,1.5,0,0,0,.44-1c0-1.38-2.4-2.44-2.4-2.44s3.63-1.61,2-3.44-4.92.67-6.56,2.3a2.85,2.85,0,0,0,0-.29c0-.15,0-.29,0-.43s-.09-.51-.15-.76h0a4.59,4.59,0,0,1,2.9-2.37c1.91-.43,1.35-3.6-1.35-2.43a3.89,3.89,0,0,0-2.08,3A12.39,12.39,0,0,0,82.21,65.81Z"/><path class="cls-4" d="M82.83,75.94h0a11.54,11.54,0,0,0,.53-1.76,4.53,4.53,0,0,0,2.9,2.37c1.91.43,1.35,3.6-1.35,2.43A3.9,3.9,0,0,1,82.83,75.94Z"/><path class="cls-4" d="M83.59,70.4c1.64-1.63,4.79-4.22,6.56-2.3s-2,3.44-2,3.44,2.4,1.06,2.4,2.44a1.5,1.5,0,0,1-.44,1c-1.77,1.92-4.91-.67-6.55-2.3,0-.37.05-.75.05-1.14A10.6,10.6,0,0,0,83.59,70.4Z"/><path class="cls-4" d="M82.83,67.15h0a3.89,3.89,0,0,1,2.08-3c2.7-1.17,3.26,2,1.35,2.43a4.59,4.59,0,0,0-2.9,2.37A11.54,11.54,0,0,0,82.83,67.15Z"/><path class="cls-8" d="M63.46,62.52a16.76,16.76,0,0,0-6.79-3.72c-2-.6-5.64-1.35-7.93.28a5.16,5.16,0,0,0-2,5.81,5.16,5.16,0,0,0-1.15,6,3.36,3.36,0,0,0,.34.61,3.29,3.29,0,0,0-.34.61,5.18,5.18,0,0,0,1.15,6,5.15,5.15,0,0,0,2,5.8c2.29,1.63,6,.88,7.93.28a16.88,16.88,0,0,0,6.79-3.72,11.53,11.53,0,0,1-1.36-1.43c-2.61,2.71-9.71,5.05-12.22,3.26-2.66-1.89-.76-4.84-.76-4.84S46,76,47.34,73a.14.14,0,0,1,0-.06,3.61,3.61,0,0,1,1.28-1.42,3.61,3.61,0,0,1-1.28-1.42.14.14,0,0,1,0-.06c-1.3-2.93,1.78-4.53,1.78-4.53s-1.9-3,.76-4.85c2.51-1.77,9.61.56,12.22,3.27A11.53,11.53,0,0,1,63.46,62.52Z"/><path class="cls-9" d="M60.87,65.81A11.52,11.52,0,0,1,62.1,64c-2.61-2.71-9.71-5-12.22-3.27-2.66,1.9-.76,4.85-.76,4.85S46.78,66.74,47,69a2.54,2.54,0,0,0,.14.64.29.29,0,0,0,0,.1c0,.11.08.22.13.33a.14.14,0,0,0,0,.06,3.61,3.61,0,0,0,1.28,1.42A3.61,3.61,0,0,0,47.36,73a.14.14,0,0,0,0,.06c-.05.11-.09.22-.13.32a.45.45,0,0,0,0,.11,2.57,2.57,0,0,0-.14.63c-.26,2.26,2.08,3.47,2.08,3.47s-1.9,3,.76,4.84c2.51,1.79,9.61-.55,12.22-3.26l-.2-.25a12.14,12.14,0,0,1-.75-1.12c-.1-.16-.2-.33-.28-.49a13.36,13.36,0,0,1-.62-1.33,3.89,3.89,0,0,1-2.09,3c-2.69,1.17-3.25-2-1.34-2.43a4.55,4.55,0,0,0,2.9-2.37h0c-.06-.25-.11-.51-.15-.76a2.23,2.23,0,0,1,0-.36c0-.12,0-.24,0-.36-1.64,1.63-4.78,4.22-6.55,2.3a1.5,1.5,0,0,1-.44-1c0-1.38,2.4-2.44,2.4-2.44s-3.64-1.61-2-3.44,4.91.67,6.56,2.3a2.85,2.85,0,0,1,0-.29,3,3,0,0,1,0-.43c0-.26.09-.51.15-.76h0a4.61,4.61,0,0,0-2.9-2.37c-1.91-.43-1.35-3.6,1.34-2.43a3.88,3.88,0,0,1,2.09,3A12.39,12.39,0,0,1,60.87,65.81Z"/><path class="cls-4" d="M60.25,75.94h0a11.54,11.54,0,0,1-.53-1.76,4.55,4.55,0,0,1-2.9,2.37c-1.91.43-1.35,3.6,1.34,2.43A3.89,3.89,0,0,0,60.25,75.94Z"/><path class="cls-4" d="M59.49,70.4c-1.65-1.63-4.79-4.22-6.56-2.3s2,3.44,2,3.44-2.4,1.06-2.4,2.44a1.5,1.5,0,0,0,.44,1c1.77,1.92,4.91-.67,6.55-2.3,0-.37,0-.75,0-1.14A10.6,10.6,0,0,1,59.49,70.4Z"/><path class="cls-4" d="M60.25,67.15h0a3.88,3.88,0,0,0-2.09-3c-2.69-1.17-3.25,2-1.34,2.43a4.61,4.61,0,0,1,2.9,2.37A11.54,11.54,0,0,1,60.25,67.15Z"/><path class="cls-6" d="M50.15,118.9a11.17,11.17,0,0,1,2.08-6.59,14.18,14.18,0,0,0,5.3-.2c-1.3,1.27-3.57,3.9-3.45,6.63.23,5.44,4,4.4,4,4.4s-1.36,11.06,7.15,10.37c0,0-.15,5.64,6.36,5.64s6.36-5.64,6.36-5.64c8.51.69,7.15-10.37,7.15-10.37s3.72,1,4-4.4c.11-2.73-2.15-5.35-3.45-6.63a14.18,14.18,0,0,0,5.3.2,11.24,11.24,0,0,1,2.08,6.59c-.17,4-1.83,6-3.19,7a5.39,5.39,0,0,1-.74.47,13.4,13.4,0,0,1-3.23,8.25,9.14,9.14,0,0,1-4.69,2.62,9,9,0,0,1-4.68,4.9,11.39,11.39,0,0,1-4.6,1h-.52a11.39,11.39,0,0,1-4.6-1,9,9,0,0,1-4.68-4.9,9.14,9.14,0,0,1-4.69-2.62,13.34,13.34,0,0,1-3.23-8.25,6.17,6.17,0,0,1-.75-.47C52,124.88,50.32,122.87,50.15,118.9Z"/><path class="cls-10" d="M69.16,103.06l2.38-4.22,2.37,4.21c1.54,9.48-2.37,10.6-2.37,10.6S67.64,112.53,69.16,103.06Z"/><path class="cls-11" d="M67.14,105.87h0a19.36,19.36,0,0,0,2-2.8c-1.52,9.47,2.38,10.59,2.38,10.59s3.91-1.12,2.37-10.6h0a19.36,19.36,0,0,0,2,2.8h0c5.15,18.24-1.49,15.24-1.49,15.24.59,4.64-2.91,4.16-2.91,4.16s-3.5.48-2.91-4.16C68.63,121.11,62,124.11,67.14,105.87Z"/><path class="cls-7" d="M61.32,110.69a20.16,20.16,0,0,0,5.82-4.82c-5.15,18.24,1.49,15.24,1.49,15.24-.59,4.64,2.91,4.16,2.91,4.16s3.5.48,2.91-4.16c0,0,6.64,3,1.49-15.24a20.34,20.34,0,0,0,5.82,4.83c4.06,11-2.05,10.1-2.05,10.1.53,10.15-4.67,8-4.67,8-.4,3.73-3.5,3.73-3.5,3.73s-3.11,0-3.5-3.74c0,0-5.2,2.13-4.68-8C63.36,120.8,57.25,121.68,61.32,110.69Z"/><path class="cls-12" d="M54.08,118.74c-.12-2.73,2.15-5.36,3.45-6.63a14.87,14.87,0,0,0,3.79-1.42c-4.07,11,2,10.11,2,10.11-.52,10.15,4.68,8,4.68,8,.39,3.74,3.5,3.74,3.5,3.74s3.1,0,3.5-3.73c0,0,5.2,2.12,4.67-8,0,0,6.11.88,2.05-10.1a15.39,15.39,0,0,0,3.79,1.41c1.3,1.28,3.56,3.9,3.45,6.63-.23,5.44-4,4.4-4,4.4s1.36,11.06-7.15,10.37c0,0,.15,5.64-6.36,5.64s-6.36-5.64-6.36-5.64c-8.51.69-7.15-10.37-7.15-10.37S54.31,124.18,54.08,118.74Z"/><path class="cls-6" d="M118.9,92.93a11.17,11.17,0,0,1-6.59-2.08,14,14,0,0,0,.16-2.13,14.14,14.14,0,0,0-.36-3.18c1.27,1.31,3.9,3.58,6.63,3.46,5.44-.23,4.4-4,4.4-4s11.06,1.36,10.37-7.14c0,0,5.64.15,5.64-6.36s-5.64-6.36-5.64-6.36c.69-8.51-10.37-7.15-10.37-7.15s1-3.72-4.4-4c-2.73-.11-5.35,2.15-6.63,3.45a14.12,14.12,0,0,0,.36-3.17,14,14,0,0,0-.16-2.13,11.24,11.24,0,0,1,6.59-2.08c4,.17,6,1.83,7,3.19a5.39,5.39,0,0,1,.47.74c2.55.2,5.86.93,8.25,3.23A9.14,9.14,0,0,1,137.21,62a9.05,9.05,0,0,1,3,1.92,8.88,8.88,0,0,1,1.93,2.76,11.34,11.34,0,0,1,1,4.59,2.18,2.18,0,0,1,0,.25v0h0a2,2,0,0,1,0,.25,11.34,11.34,0,0,1-1,4.59,9,9,0,0,1-4.9,4.69,9.18,9.18,0,0,1-2.62,4.69A13.4,13.4,0,0,1,126.34,89a6.17,6.17,0,0,1-.47.75C124.88,91.11,122.87,92.76,118.9,92.93Z"/><path class="cls-10" d="M103.06,73.92l-4.22-2.38,4.21-2.37c9.48-1.54,10.6,2.37,10.6,2.37S112.53,75.44,103.06,73.92Z"/><path class="cls-11" d="M105.87,75.94h0a19.36,19.36,0,0,0-2.8-2c9.47,1.52,10.59-2.38,10.59-2.38s-1.12-3.91-10.6-2.37h0a19.36,19.36,0,0,0,2.8-2h0c18.24-5.15,15.24,1.48,15.24,1.48,4.64-.58,4.16,2.92,4.16,2.92s.48,3.49-4.16,2.91C121.11,74.45,124.11,81.09,105.87,75.94Z"/><path class="cls-7" d="M110.69,81.76a20,20,0,0,0-4.82-5.82c18.24,5.15,15.24-1.49,15.24-1.49,4.64.58,4.16-2.91,4.16-2.91s.48-3.5-4.16-2.92c0,0,3-6.63-15.24-1.48a20.34,20.34,0,0,0,4.83-5.82c11-4.06,10.1,2,10.1,2,10.15-.53,8,4.67,8,4.67,3.73.4,3.73,3.5,3.73,3.5s0,3.11-3.74,3.49c0,0,2.13,5.21-8,4.69C120.8,79.72,121.68,85.83,110.69,81.76Z"/><path class="cls-12" d="M118.74,89c-2.73.12-5.36-2.15-6.63-3.46a14.94,14.94,0,0,0-1.42-3.78c11,4.07,10.11-2,10.11-2,10.15.52,8-4.69,8-4.69,3.74-.38,3.74-3.49,3.74-3.49s0-3.1-3.73-3.5c0,0,2.12-5.2-8-4.67,0,0,.88-6.11-10.1-2a15.39,15.39,0,0,0,1.41-3.79c1.28-1.3,3.9-3.56,6.63-3.45,5.44.23,4.4,4,4.4,4s11.06-1.36,10.37,7.15c0,0,5.64-.15,5.64,6.36s-5.64,6.36-5.64,6.36c.69,8.5-10.37,7.14-10.37,7.14S124.18,88.77,118.74,89Z"/><path class="cls-6" d="M92.93,24.18a11.17,11.17,0,0,1-2.08,6.59,12.81,12.81,0,0,0-2.13-.16,14.14,14.14,0,0,0-3.18.36c1.31-1.27,3.58-3.9,3.46-6.63-.23-5.44-4-4.4-4-4.4S86.4,8.88,77.9,9.57c0,0,.15-5.64-6.36-5.64s-6.36,5.64-6.36,5.64C56.67,8.88,58,19.94,58,19.94s-3.72-1-4,4.4C54,27.07,56.23,29.69,57.53,31a14.12,14.12,0,0,0-3.17-.36,12.81,12.81,0,0,0-2.13.16,11.24,11.24,0,0,1-2.08-6.59c.17-4,1.83-6,3.19-7a5.39,5.39,0,0,1,.74-.47c.2-2.55.93-5.86,3.23-8.25A9.14,9.14,0,0,1,62,5.87a9.05,9.05,0,0,1,1.92-3A8.88,8.88,0,0,1,66.68,1a11.18,11.18,0,0,1,4.59-1h.53a11.18,11.18,0,0,1,4.59,1,9,9,0,0,1,4.69,4.9,9.18,9.18,0,0,1,4.69,2.62A13.4,13.4,0,0,1,89,16.74a6.17,6.17,0,0,1,.75.47C91.11,18.2,92.76,20.21,92.93,24.18Z"/><path class="cls-10" d="M73.92,40l-2.38,4.22L69.17,40c-1.54-9.48,2.37-10.6,2.37-10.6S75.44,30.55,73.92,40Z"/><path class="cls-11" d="M75.94,37.21h0a19.36,19.36,0,0,0-2,2.8c1.52-9.47-2.38-10.59-2.38-10.59S67.63,30.55,69.17,40h0a19.36,19.36,0,0,0-2-2.8h0C62,19,68.62,22,68.62,22c-.58-4.64,2.92-4.16,2.92-4.16S75,17.33,74.45,22C74.45,22,81.09,19,75.94,37.21Z"/><path class="cls-7" d="M81.76,32.39a20,20,0,0,0-5.82,4.82C81.09,19,74.45,22,74.45,22c.58-4.64-2.91-4.16-2.91-4.16S68,17.33,68.62,22c0,0-6.63-3-1.48,15.24a20.34,20.34,0,0,0-5.82-4.83c-4.06-11,2-10.11,2-10.11-.53-10.14,4.67-8,4.67-8,.4-3.73,3.5-3.73,3.5-3.73s3.11,0,3.49,3.74c0,0,5.21-2.13,4.69,8C79.72,22.27,85.83,21.4,81.76,32.39Z"/><path class="cls-12" d="M89,24.34c.12,2.73-2.15,5.36-3.46,6.63a14.94,14.94,0,0,0-3.78,1.42c4.07-11-2-10.12-2-10.12.52-10.14-4.69-8-4.69-8-.38-3.74-3.49-3.74-3.49-3.74s-3.1,0-3.5,3.73c0,0-5.2-2.12-4.67,8,0,0-6.11-.87-2,10.11A15.39,15.39,0,0,0,57.53,31c-1.3-1.28-3.56-3.9-3.45-6.63.23-5.44,4-4.4,4-4.4S56.67,8.88,65.18,9.57c0,0-.15-5.64,6.36-5.64S77.9,9.57,77.9,9.57C86.4,8.88,85,19.94,85,19.94S88.77,18.9,89,24.34Z"/><path class="cls-6" d="M24.18,50.15a11.17,11.17,0,0,1,6.59,2.08,12.81,12.81,0,0,0-.16,2.13A14.05,14.05,0,0,0,31,57.53c-1.27-1.3-3.9-3.57-6.63-3.45-5.44.23-4.4,4-4.4,4S8.88,56.67,9.57,65.18c0,0-5.64-.15-5.64,6.36S9.57,77.9,9.57,77.9c-.69,8.51,10.37,7.15,10.37,7.15s-1,3.72,4.4,4c2.73.11,5.35-2.15,6.63-3.45a14.12,14.12,0,0,0-.36,3.17,12.89,12.89,0,0,0,.16,2.13,11.24,11.24,0,0,1-6.59,2.08c-4-.17-6-1.83-7-3.19a5.39,5.39,0,0,1-.47-.74,13.4,13.4,0,0,1-8.25-3.23,9.14,9.14,0,0,1-2.62-4.69A9,9,0,0,1,1,76.4a11.23,11.23,0,0,1-1-4.6,2,2,0,0,1,0-.25H0a2,2,0,0,1,0-.25,11.23,11.23,0,0,1,1-4.6A9,9,0,0,1,5.87,62a9.14,9.14,0,0,1,2.62-4.69,13.34,13.34,0,0,1,8.25-3.23,6.17,6.17,0,0,1,.47-.75C18.2,52,20.21,50.32,24.18,50.15Z"/><path class="cls-10" d="M40,69.16l4.22,2.38L40,73.91c-9.48,1.54-10.6-2.37-10.6-2.37S30.55,67.64,40,69.16Z"/><path class="cls-11" d="M37.21,67.14h0a19.36,19.36,0,0,0,2.8,2c-9.47-1.52-10.59,2.38-10.59,2.38s1.12,3.91,10.6,2.37h0a19.36,19.36,0,0,0-2.8,2h0C19,81.09,22,74.45,22,74.45c-4.64.59-4.16-2.91-4.16-2.91S17.33,68,22,68.63C22,68.63,19,62,37.21,67.14Z"/><path class="cls-7" d="M32.39,61.32a20.16,20.16,0,0,0,4.82,5.82C19,62,22,68.63,22,68.63c-4.64-.59-4.16,2.91-4.16,2.91S17.33,75,22,74.45c0,0-3,6.64,15.24,1.49a20.34,20.34,0,0,0-4.83,5.82c-11,4.06-10.11-2.05-10.11-2.05-10.14.53-8-4.67-8-4.67-3.73-.4-3.73-3.5-3.73-3.5s0-3.11,3.74-3.5c0,0-2.13-5.2,8-4.68C22.27,63.36,21.4,57.25,32.39,61.32Z"/><path class="cls-12" d="M24.34,54.08C27.07,54,29.7,56.23,31,57.53a14.87,14.87,0,0,0,1.42,3.79c-11-4.07-10.12,2-10.12,2-10.14-.52-8,4.68-8,4.68-3.74.39-3.74,3.5-3.74,3.5s0,3.1,3.73,3.5c0,0-2.12,5.2,8,4.67,0,0-.87,6.11,10.11,2.05A15.39,15.39,0,0,0,31,85.55c-1.28,1.3-3.9,3.56-6.63,3.45-5.44-.23-4.4-4-4.4-4S8.88,86.41,9.57,77.9c0,0-5.64.15-5.64-6.36s5.64-6.36,5.64-6.36C8.88,56.67,19.94,58,19.94,58S18.9,54.31,24.34,54.08Z"/><path class="cls-11" d="M99.39,105.87a8.82,8.82,0,0,0,.38-3.44A8,8,0,0,0,98,98a8,8,0,0,0,4.4,1.73,8.59,8.59,0,0,0,3.43-.39,5.37,5.37,0,0,1,3.14,2.48,2,2,0,0,1-1.41,3s2.53,2.07,1.3,4.05c-2,1.22-4-1.3-4-1.3a2,2,0,0,1-3,1.4A5.32,5.32,0,0,1,99.39,105.87Z"/><path class="cls-13" d="M97.91,108.62a8.56,8.56,0,0,0,1.48-2.75,5.32,5.32,0,0,0,2.46,3.13,2,2,0,0,0,3-1.4s2.07,2.52,4,1.3c1.23-2-1.3-4.05-1.3-4.05a2,2,0,0,0,1.41-3,5.37,5.37,0,0,0-3.14-2.48,8.4,8.4,0,0,0,2.75-1.46,5.79,5.79,0,0,1,3.78,3.11c1.41,3-1.61,5.11-1.61,5.11s3.35,3.78,1.78,6.42c-2.64,1.56-6.42-1.78-6.42-1.78s-2.1,3-5.11,1.61A5.79,5.79,0,0,1,97.91,108.62Z"/><path class="cls-10" d="M91.6,112.19a12,12,0,0,0,3.7-1.35c2.67,5.9,6.83,4.93,6.83,4.93a7.27,7.27,0,0,0,6.87,1.08c2.52,2,6.47.78,8,.18.6-1.56,1.82-5.51-.18-8a7.29,7.29,0,0,0-1.08-6.88s1-4.16-4.93-6.83a12,12,0,0,0,1.35-3.7c5.77,2.51,7.44,6.62,7.57,9.51a11.35,11.35,0,0,1,1.3,7.32,12.19,12.19,0,0,1-1,11.62,12.18,12.18,0,0,1-11.63,1,11.34,11.34,0,0,1-7.32-1.3C98.22,119.63,94.11,118,91.6,112.19Z"/><path class="cls-1" d="M95.3,110.84a9.24,9.24,0,0,0,2.61-2.22,5.79,5.79,0,0,0,3.12,3.77c3,1.42,5.11-1.61,5.11-1.61s3.78,3.34,6.42,1.78c1.57-2.64-1.78-6.42-1.78-6.42s3-2.1,1.61-5.11a5.79,5.79,0,0,0-3.78-3.11,9,9,0,0,0,2.23-2.62c5.91,2.67,4.93,6.83,4.93,6.83a7.29,7.29,0,0,1,1.08,6.88c2,2.51.78,6.46.18,8-1.56.6-5.51,1.82-8-.18a7.27,7.27,0,0,1-6.87-1.08S98,116.74,95.3,110.84Z"/><path class="cls-11" d="M105.87,43.69a8.82,8.82,0,0,0-3.44-.38A8,8,0,0,0,98,45.05a8,8,0,0,0,1.73-4.4,8.59,8.59,0,0,0-.39-3.43,5.37,5.37,0,0,1,2.48-3.14,2,2,0,0,1,3,1.41s2.07-2.53,4.05-1.3c1.22,2-1.3,4-1.3,4a2,2,0,0,1,1.4,3A5.36,5.36,0,0,1,105.87,43.69Z"/><path class="cls-13" d="M108.62,45.16a8.73,8.73,0,0,0-2.75-1.47A5.36,5.36,0,0,0,109,41.23a2,2,0,0,0-1.4-3s2.52-2.07,1.3-4c-2-1.23-4.05,1.3-4.05,1.3a2,2,0,0,0-3-1.41,5.37,5.37,0,0,0-2.48,3.14,8.4,8.4,0,0,0-1.46-2.75A5.82,5.82,0,0,1,101,30.68c3-1.4,5.11,1.62,5.11,1.62s3.78-3.35,6.42-1.78c1.56,2.64-1.78,6.42-1.78,6.42s3,2.1,1.61,5.1A5.76,5.76,0,0,1,108.62,45.16Z"/><path class="cls-10" d="M112.19,51.48a11.93,11.93,0,0,0-1.35-3.71c5.9-2.66,4.93-6.82,4.93-6.82a7.29,7.29,0,0,0,1.08-6.88c2-2.51.78-6.47.18-8-1.56-.6-5.51-1.82-8,.18a7.3,7.3,0,0,0-6.88,1.07s-4.16-1-6.83,4.93a12.22,12.22,0,0,0-3.7-1.34c2.51-5.77,6.62-7.45,9.51-7.57a11.35,11.35,0,0,1,7.32-1.3,12.19,12.19,0,0,1,11.62,1,12.18,12.18,0,0,1,1,11.63,11.34,11.34,0,0,1-1.3,7.32C119.63,44.86,118,49,112.19,51.48Z"/><path class="cls-1" d="M110.84,47.77a9.38,9.38,0,0,0-2.22-2.61A5.76,5.76,0,0,0,112.39,42c1.42-3-1.61-5.1-1.61-5.1s3.34-3.78,1.78-6.42c-2.64-1.57-6.42,1.78-6.42,1.78s-2.1-3-5.11-1.62a5.82,5.82,0,0,0-3.11,3.79,9.16,9.16,0,0,0-2.62-2.24c2.67-5.9,6.83-4.93,6.83-4.93A7.3,7.3,0,0,1,109,26.23c2.51-2,6.46-.78,8-.18.6,1.55,1.82,5.51-.18,8A7.29,7.29,0,0,1,115.77,41S116.74,45.11,110.84,47.77Z"/><path class="cls-11" d="M43.69,37.21a8.82,8.82,0,0,0-.38,3.44A8,8,0,0,0,45.05,45a8,8,0,0,0-4.4-1.73,8.77,8.77,0,0,0-3.43.38,5.32,5.32,0,0,1-3.14-2.47,2,2,0,0,1,1.41-3s-2.53-2.07-1.3-4c2-1.22,4,1.3,4,1.3a2,2,0,0,1,3-1.4A5.36,5.36,0,0,1,43.69,37.21Z"/><path class="cls-13" d="M45.16,34.46a8.73,8.73,0,0,0-1.47,2.75,5.36,5.36,0,0,0-2.46-3.13,2,2,0,0,0-3,1.4s-2.07-2.52-4-1.3c-1.23,2,1.3,4,1.3,4a2,2,0,0,0-1.41,3,5.32,5.32,0,0,0,3.14,2.47,8.43,8.43,0,0,0-2.75,1.47,5.82,5.82,0,0,1-3.79-3.11c-1.4-3,1.62-5.11,1.62-5.11S29,33.16,30.52,30.52c2.64-1.57,6.42,1.78,6.42,1.78s2.1-3,5.1-1.61A5.76,5.76,0,0,1,45.16,34.46Z"/><path class="cls-10" d="M51.48,30.89a11.93,11.93,0,0,0-3.71,1.35C45.11,26.34,41,27.31,41,27.31a7.29,7.29,0,0,0-6.88-1.08c-2.51-2-6.47-.78-8-.18-.6,1.56-1.82,5.51.18,8A7.3,7.3,0,0,0,27.3,41s-1,4.16,4.93,6.83a12.22,12.22,0,0,0-1.34,3.7C25.12,49,23.44,44.86,23.32,42A11.35,11.35,0,0,1,22,34.65,12.21,12.21,0,0,1,23,23a12.21,12.21,0,0,1,11.63-1A11.21,11.21,0,0,1,42,23.32C44.86,23.45,49,25.12,51.48,30.89Z"/><path class="cls-1" d="M47.77,32.24a9.06,9.06,0,0,0-2.61,2.22A5.76,5.76,0,0,0,42,30.69c-3-1.42-5.1,1.61-5.1,1.61S33.16,29,30.52,30.52C29,33.16,32.3,36.94,32.3,36.94s-3,2.1-1.62,5.11a5.82,5.82,0,0,0,3.79,3.11,9.16,9.16,0,0,0-2.24,2.62C26.33,45.11,27.3,41,27.3,41a7.3,7.3,0,0,1-1.07-6.88c-2-2.51-.78-6.46-.18-8,1.55-.6,5.51-1.82,8,.18A7.29,7.29,0,0,1,41,27.31S45.11,26.34,47.77,32.24Z"/><path class="cls-11" d="M37.21,99.39a8.82,8.82,0,0,0,3.44.38A8,8,0,0,0,45,98a8,8,0,0,0-1.73,4.4,8.77,8.77,0,0,0,.38,3.43A5.32,5.32,0,0,1,41.22,109a2,2,0,0,1-3-1.41s-2.07,2.53-4,1.3c-1.22-2,1.3-4,1.3-4a2,2,0,0,1-1.4-3A5.32,5.32,0,0,1,37.21,99.39Z"/><path class="cls-13" d="M34.46,97.91a8.56,8.56,0,0,0,2.75,1.48,5.32,5.32,0,0,0-3.13,2.46,2,2,0,0,0,1.4,3s-2.52,2.07-1.3,4c2,1.23,4-1.3,4-1.3a2,2,0,0,0,3,1.41,5.32,5.32,0,0,0,2.47-3.14,8.43,8.43,0,0,0,1.47,2.75,5.79,5.79,0,0,1-3.11,3.78c-3,1.41-5.11-1.61-5.11-1.61s-3.78,3.35-6.42,1.78c-1.57-2.64,1.78-6.42,1.78-6.42s-3-2.1-1.61-5.11A5.79,5.79,0,0,1,34.46,97.91Z"/><path class="cls-10" d="M30.89,91.6a12,12,0,0,0,1.35,3.7c-5.9,2.67-4.93,6.83-4.93,6.83A7.27,7.27,0,0,0,26.23,109c-2,2.52-.78,6.47-.18,8,1.56.6,5.51,1.82,8-.18A7.29,7.29,0,0,0,41,115.77s4.16,1,6.83-4.93a12,12,0,0,0,3.7,1.35C49,118,44.86,119.63,42,119.76a11.35,11.35,0,0,1-7.32,1.3,12.21,12.21,0,0,1-11.63-1,12.21,12.21,0,0,1-1-11.63,11.21,11.21,0,0,1,1.3-7.32C23.45,98.22,25.12,94.11,30.89,91.6Z"/><path class="cls-1" d="M32.24,95.3a8.93,8.93,0,0,0,2.22,2.61A5.79,5.79,0,0,0,30.69,101c-1.42,3,1.61,5.11,1.61,5.11s-3.35,3.78-1.78,6.42c2.64,1.57,6.42-1.78,6.42-1.78s2.1,3,5.11,1.61a5.79,5.79,0,0,0,3.11-3.78,9,9,0,0,0,2.62,2.23c-2.67,5.91-6.83,4.93-6.83,4.93a7.29,7.29,0,0,1-6.88,1.08c-2.51,2-6.46.78-8,.18-.6-1.56-1.82-5.51.18-8a7.27,7.27,0,0,1,1.08-6.87S26.34,98,32.24,95.3Z"/></g></g></svg>