<svg xmlns="http://www.w3.org/2000/svg" viewBox="0 0 181.21 181.21"><defs><style>.cls-1{fill:#f1ecd2;}.cls-2{fill:#602a30;}.cls-3{fill:#00362b;}.cls-4{fill:#007e6a;}.cls-5{fill:#727171;}.cls-6{fill:#231815;}.cls-7{fill:#69453b;}</style></defs><g id="图层_2" data-name="图层 2"><g id="文件图层"><path class="cls-1" d="M60.06,42.75h0A7.92,7.92,0,0,0,72.57,41.2,8,8,0,1,0,83.68,30.09a7.92,7.92,0,0,0,1.55-12.51S65.11-5.5,45.13,2.65C37,22.62,60.05,42.74,60.06,42.75Z"/><path class="cls-2" d="M66.9,24.42c2.26-2.25,1.93-6.24-.73-8.91-4.23-4.22-11.92-3.74-11.92-3.74S53.77,19.46,58,23.69C60.66,26.35,64.65,26.68,66.9,24.42Z"/><path class="cls-2" d="M70.58,32.16a9.28,9.28,0,0,1-2.24-4,8.43,8.43,0,0,0,2.28-2.28,9.28,9.28,0,0,1,4,2.24c1.62,1.62,2,3.84.91,5S72.2,33.78,70.58,32.16Z"/><path class="cls-2" d="M71.15,25a9.08,9.08,0,0,0,1-4.75,7.89,7.89,0,0,1,2.68.19c2.22.54,3.73,2.23,3.35,3.78S75.7,26.55,73.46,26A7.32,7.32,0,0,1,71.15,25Z"/><path class="cls-2" d="M62.9,32.36a7.91,7.91,0,0,1-.19-2.68,9.08,9.08,0,0,0,4.75-1,7.32,7.32,0,0,1,1,2.31c.55,2.23-.26,4.35-1.8,4.72S63.44,34.58,62.9,32.36Z"/><path class="cls-1" d="M48.11,2l0-.38L48.36.2h52.12l9.49,0h71.24l-2.6,1.65a5.93,5.93,0,0,0-.71.52,5.55,5.55,0,0,0-.73.62,10.14,10.14,0,0,0-2,3.6,30.29,30.29,0,0,1-3.13,6,20.12,20.12,0,0,1-2.3,2.78,14.29,14.29,0,0,1-7.57,4.13,8.75,8.75,0,0,1-9,7.49c-5,0-7.83-1.33-11-4.75a18.14,18.14,0,0,1-5.33,12.51,20.47,20.47,0,0,1-13.67,5.9c-10,.12-18.27-8.92-18.37-16.48a16.45,16.45,0,0,1,4.56-11.76,11.68,11.68,0,0,1,7.32-3.53,41.72,41.72,0,0,0-7.42-6.53H102a.18.18,0,0,0,0,.1,31.4,31.4,0,0,1-2.66,6.25,18.16,18.16,0,0,1-3,3.91A14,14,0,0,1,90,16.36,8.89,8.89,0,0,1,87.49,22l0,0a9.1,9.1,0,0,1-5.83,2.56,19.06,19.06,0,0,1-3.56,0,11.67,11.67,0,0,1-6-2.37h0A25.76,25.76,0,0,1,68,18.38c-1.2-1.28-2.51-2.78-4-4.5l-.52-.59-.55-.64a40.09,40.09,0,0,0-7.39-6.53h0a44.25,44.25,0,0,0-6.64-3.75C48.4,2.13,48.12,2,48.11,2Z"/><path class="cls-3" d="M165.86,0H129.93a36.15,36.15,0,0,1,13.88,8,11.38,11.38,0,0,0,7,2.78,1.52,1.52,0,0,0,1.39-2.21,16.46,16.46,0,0,0-3.94-4.48.31.31,0,0,1,.28-.54,29,29,0,0,0,9.71,1.9A7.51,7.51,0,0,0,165.86,0Z"/><path class="cls-4" d="M158.26,5.41a29,29,0,0,1-9.71-1.9.31.31,0,0,0-.28.54,16.46,16.46,0,0,1,3.94,4.48,1.52,1.52,0,0,1-1.39,2.21,11.38,11.38,0,0,1-7-2.78,36.15,36.15,0,0,0-13.88-8h-7.57a43.89,43.89,0,0,1,14.78,12.42c7.24,9.79,9,12.41,16,12.41A6.65,6.65,0,0,0,160,17.54c2.26,0,6.57-.92,10.15-6.15C174,5.75,173,2.84,177.45,0H165.86A7.51,7.51,0,0,1,158.26,5.41Z"/><path class="cls-3" d="M59.34.21H90.41a7.72,7.72,0,0,1-5.32,2.42,29.28,29.28,0,0,1-9.83-1.17A.31.31,0,0,0,75,2,16.59,16.59,0,0,1,79.3,6.19a1.51,1.51,0,0,1-1.22,2.3A11.44,11.44,0,0,1,74,7.88h0a11.39,11.39,0,0,1-3-1.61c-.65-.48-1.28-.92-1.91-1.34l-.06,0A33.22,33.22,0,0,0,59.34.21Z"/><path class="cls-4" d="M59.33.2h0a33.22,33.22,0,0,1,9.57,4.7l.06,0c.63.42,1.26.86,1.91,1.34a11.39,11.39,0,0,0,3,1.61h0a11.44,11.44,0,0,0,4.13.61,1.51,1.51,0,0,0,1.22-2.3A16.59,16.59,0,0,0,75,2a.31.31,0,0,1,.24-.57,29.28,29.28,0,0,0,9.83,1.17A7.72,7.72,0,0,0,90.41.2h10.07a39.82,39.82,0,0,1-3,7.45c-3.16,5.49-7.38,6.71-9.64,6.91a6.91,6.91,0,0,1-1.13,5,6.72,6.72,0,0,1-5.22,2.82,16.52,16.52,0,0,1-3.7-.07,9.8,9.8,0,0,1-4.68-2.11c-2.26-1.72-4.7-4.59-8.5-9A43.76,43.76,0,0,0,51.21,1.06c-.82-.4-1.47-.7-1.87-.86Z"/><path class="cls-1" d="M125.71,0H119a39.71,39.71,0,0,1,13.31,12.55c7.85,12.43-2.52,21.23-8.7,21.23s-11.22-5-11.5-10.45,6.47-9.64,10.64-5.47,1,6.18,1,6.18a2.14,2.14,0,0,1-2.66.31,2.25,2.25,0,0,0,2.41,1.93c1.27-.11,2.55-1.67,2.55-4.73,0-2.68-1.73-6.17-4.19-9.61a9.86,9.86,0,0,0-4.43-.93c-6.13.09-10.68,6.35-10.59,13.13s7.69,14.46,16.18,14.36c7.81-.09,18.62-6.89,16.65-19.87C138.53,10.79,132.88,4.63,125.71,0Z"/><path class="cls-5" d="M119,0h-2.3c6.21,5.37,13.67,14.46,13.67,21.55,0,5.59-3.18,8.3-5.89,8.92a6.19,6.19,0,0,1-7-3.29c-1.87-3.84.3-5.76,1-6.28a4.32,4.32,0,0,1,5.28.11,2.14,2.14,0,0,1,0,3s3.16-2-1-6.18-10.93,0-10.64,5.47,5.3,10.45,11.5,10.45,16.55-8.8,8.7-21.23A39.71,39.71,0,0,0,119,0Z"/><path class="cls-6" d="M116.72,0h-6.91a1.5,1.5,0,0,0,.52.51,48.62,48.62,0,0,1,11.56,11.43c2.46,3.44,4.19,6.93,4.19,9.61,0,3.06-1.28,4.62-2.55,4.73a2.25,2.25,0,0,1-2.41-1.93A2.15,2.15,0,0,0,123.78,21a4.32,4.32,0,0,0-5.28-.11c-.7.52-2.87,2.44-1,6.28a6.19,6.19,0,0,0,7,3.29c2.71-.62,5.88-3.33,5.89-8.92C130.39,14.46,122.93,5.37,116.72,0Z"/><path class="cls-1" d="M2.65,45.13c-8.15,20,14.93,40.1,14.93,40.1a7.92,7.92,0,0,0,12.51-1.55A8,8,0,1,0,41.2,72.57a7.92,7.92,0,0,0,1.55-12.51h0S22.62,37,2.65,45.13Z"/><path class="cls-2" d="M24.42,66.9c-2.25,2.26-6.24,1.93-8.91-.73-4.22-4.23-3.74-11.92-3.74-11.92s7.69-.48,11.92,3.75C26.35,60.66,26.68,64.65,24.42,66.9Z"/><path class="cls-2" d="M32.16,70.58a9.28,9.28,0,0,0-4-2.24,8.43,8.43,0,0,1-2.28,2.28,9.28,9.28,0,0,0,2.24,4c1.62,1.62,3.84,2,5,.91S33.78,72.2,32.16,70.58Z"/><path class="cls-2" d="M25,71.15a9.08,9.08,0,0,1-4.75,1,7.89,7.89,0,0,0,.19,2.68c.54,2.22,2.23,3.73,3.78,3.35s2.35-2.49,1.8-4.73A7.32,7.32,0,0,0,25,71.15Z"/><path class="cls-2" d="M32.36,62.9a7.91,7.91,0,0,0-2.68-.19,9.08,9.08,0,0,1-1,4.75,7.32,7.32,0,0,0,2.31,1c2.23.55,4.35-.26,4.72-1.8S34.58,63.44,32.36,62.9Z"/><path class="cls-1" d="M2,48.11l-.38,0-1.44.2v52.12l0,9.49v71.24l1.65-2.6a5.93,5.93,0,0,1,.52-.71,5.55,5.55,0,0,1,.62-.73,10.14,10.14,0,0,1,3.6-2,30.29,30.29,0,0,0,6-3.13,20.12,20.12,0,0,0,2.78-2.3,14.29,14.29,0,0,0,4.13-7.57,8.75,8.75,0,0,0,7.49-9c0-5-1.33-7.83-4.75-11a18.14,18.14,0,0,0,12.51-5.33,20.47,20.47,0,0,0,5.9-13.67c.12-10-8.92-18.27-16.48-18.37a16.45,16.45,0,0,0-11.76,4.56,11.68,11.68,0,0,0-3.53,7.32,41.72,41.72,0,0,1-6.53-7.42V102a.18.18,0,0,1,.1,0,31.4,31.4,0,0,0,6.25-2.66,18.16,18.16,0,0,0,3.91-3A14,14,0,0,0,16.36,90,8.89,8.89,0,0,0,22,87.49l0,0a9.1,9.1,0,0,0,2.56-5.83,19.06,19.06,0,0,0,0-3.56,11.67,11.67,0,0,0-2.37-6h0A25.76,25.76,0,0,0,18.38,68c-1.28-1.2-2.78-2.51-4.5-4l-.59-.52-.64-.55a40.09,40.09,0,0,1-6.53-7.39v0a44.25,44.25,0,0,1-3.75-6.64C2.13,48.4,2,48.12,2,48.11Z"/><path class="cls-3" d="M0,165.86V129.93a36.15,36.15,0,0,0,8,13.88,11.38,11.38,0,0,1,2.78,7,1.52,1.52,0,0,1-2.21,1.39,16.46,16.46,0,0,1-4.48-3.94.31.31,0,0,0-.54.28,29,29,0,0,1,1.9,9.71A7.51,7.51,0,0,1,0,165.86Z"/><path class="cls-4" d="M5.41,158.26a29,29,0,0,0-1.9-9.71.31.31,0,0,1,.54-.28,16.46,16.46,0,0,0,4.48,3.94,1.52,1.52,0,0,0,2.21-1.39,11.38,11.38,0,0,0-2.78-7,36.15,36.15,0,0,1-8-13.88v-7.57a43.89,43.89,0,0,0,12.42,14.78c9.79,7.24,12.41,9,12.41,16A6.65,6.65,0,0,1,17.54,160c0,2.26-.92,6.57-6.15,10.15C5.75,174,2.84,173,0,177.45V165.86A7.51,7.51,0,0,0,5.41,158.26Z"/><path class="cls-3" d="M.21,59.34h0V90.41a7.72,7.72,0,0,0,2.42-5.32,29.28,29.28,0,0,0-1.17-9.83A.31.31,0,0,1,2,75,16.59,16.59,0,0,0,6.19,79.3a1.51,1.51,0,0,0,2.3-1.22A11.44,11.44,0,0,0,7.88,74v0a11.39,11.39,0,0,0-1.61-3c-.48-.65-.92-1.28-1.34-1.91a.11.11,0,0,1,0-.06A33.22,33.22,0,0,1,.21,59.34Z"/><path class="cls-4" d="M.2,59.33h0a33.22,33.22,0,0,0,4.7,9.57.11.11,0,0,0,0,.06c.42.63.86,1.26,1.34,1.91a11.39,11.39,0,0,1,1.61,3v0a11.44,11.44,0,0,1,.61,4.13,1.51,1.51,0,0,1-2.3,1.22A16.59,16.59,0,0,1,2,75a.31.31,0,0,0-.57.24,29.28,29.28,0,0,1,1.17,9.83A7.72,7.72,0,0,1,.2,90.41v10.07a39.82,39.82,0,0,0,7.45-3c5.49-3.16,6.71-7.38,6.91-9.64a6.91,6.91,0,0,0,5-1.13,6.72,6.72,0,0,0,2.82-5.22,16.52,16.52,0,0,0-.07-3.7,9.8,9.8,0,0,0-2.11-4.68c-1.72-2.26-4.59-4.7-9-8.5A43.76,43.76,0,0,1,1.06,51.21c-.4-.82-.7-1.47-.86-1.87Z"/><path class="cls-1" d="M0,125.71V119a39.71,39.71,0,0,0,12.55,13.31c12.43,7.85,21.23-2.52,21.23-8.7s-5-11.22-10.45-11.5-9.64,6.47-5.47,10.64,6.18,1,6.18,1a2.14,2.14,0,0,0,.31-2.66,2.25,2.25,0,0,1,1.93,2.41c-.11,1.27-1.67,2.55-4.73,2.55-2.68,0-6.17-1.73-9.61-4.19a9.86,9.86,0,0,1-.93-4.43c.09-6.13,6.35-10.68,13.13-10.59s14.46,7.69,14.36,16.18c-.09,7.81-6.89,18.62-19.87,16.65C10.79,138.53,4.63,132.88,0,125.71Z"/><path class="cls-5" d="M0,119v-2.3c5.37,6.21,14.46,13.67,21.55,13.67,5.59,0,8.3-3.18,8.92-5.89a6.19,6.19,0,0,0-3.29-7c-3.84-1.87-5.76.3-6.28,1a4.32,4.32,0,0,0,.11,5.28,2.14,2.14,0,0,0,3,0s-2,3.16-6.18-1,0-10.93,5.47-10.64,10.45,5.3,10.45,11.5-8.8,16.55-21.23,8.7A39.71,39.71,0,0,1,0,119Z"/><path class="cls-6" d="M0,116.72v-6.91a1.5,1.5,0,0,1,.51.52,48.62,48.62,0,0,0,11.43,11.56c3.44,2.46,6.93,4.19,9.61,4.19,3.06,0,4.62-1.28,4.73-2.55a2.25,2.25,0,0,0-1.93-2.41A2.15,2.15,0,0,1,21,123.78a4.32,4.32,0,0,1-.11-5.28c.52-.7,2.44-2.87,6.28-1a6.19,6.19,0,0,1,3.29,7c-.62,2.71-3.33,5.88-8.92,5.89C14.46,130.39,5.37,122.93,0,116.72Z"/><path class="cls-1" d="M.24,49l0-8.79V25.17h0V.2H49c.53.31,1,.63,1.52,1a18.77,18.77,0,0,1,5,4.94h0a11.05,11.05,0,0,1,1.87,4.63,11.11,11.11,0,0,1,.05,1.14,6.81,6.81,0,0,1-.88,3,15.84,15.84,0,0,1,5.55,9,10.37,10.37,0,0,1,.19,2,11.67,11.67,0,0,1-3.61,8.65,17,17,0,0,1,1.43,8.31,18.7,18.7,0,0,1-5.39,11.91C49.39,60.11,41,61.67,34.54,58.69a11.62,11.62,0,0,1-10.63,3.43,15.91,15.91,0,0,1-9-5.55,6.69,6.69,0,0,1-4.18.82C7,56.93,3,53.72.24,49Z"/><path class="cls-5" d="M.22,8.51V.2H8.4c8.93,1.21,18.3,6,17.77,12.27-.55,6.52-10.56,3.14-10.56,3.14s3.39,10-3.12,10.55C6.25,26.69,1.47,17.39.22,8.51Z"/><path class="cls-7" d="M.22.2c7.3-.38,17.6,6.61,16.55,10.07-.79,2.6-6.92-.45-6.92-.45s3,6.13.45,6.92C6.84,17.79-.15,7.49.22.2Z"/><path class="cls-4" d="M3.39,49.85c-.27-.35-.53-.74-.79-1.14s-.51-.81-.74-1.23-.46-.84-.65-1.27S.85,45.44.7,45.05s-.34-.86-.49-1.3c0,0-.1-8.25-.07-12.72a25.65,25.65,0,0,1,.07-2.8,12.33,12.33,0,0,0,1.47,2.24s0,0,.05,0a7.49,7.49,0,0,0,.69.69,13.54,13.54,0,0,0,5.79,3.22c.41.13.8.23,1.22.32a.61.61,0,0,0,.13,0c.38.08.78.15,1.18.2a14.22,14.22,0,0,0,2.52.11A10,10,0,0,0,14.5,35a8.44,8.44,0,0,0,1.24-.2,10.73,10.73,0,0,0,1.32-.35l.9-.33a.48.48,0,0,0,.16-.08h0a7,7,0,0,0,.93-.42,9.05,9.05,0,0,0,.92-.51,11.94,11.94,0,0,0,.7,1.19,4.4,4.4,0,0,0,.51.69,5.08,5.08,0,0,0,.58.66l.11.11a6.8,6.8,0,0,0,.63.56,6,6,0,0,0,.65.48,2.66,2.66,0,0,0,.45.29,1.79,1.79,0,0,0,.38.22,2.85,2.85,0,0,0,.55.28,6.35,6.35,0,0,0,.67.28.66.66,0,0,0,.21.08,2.37,2.37,0,0,0,.59.18,9.28,9.28,0,0,0,2.46.38,8.43,8.43,0,0,0,.87,0,6,6,0,0,0,.85-.09,10.44,10.44,0,0,0,1.69-.42l.18-.07a1.2,1.2,0,0,0,.27-.08.25.25,0,0,0,.12-.07,1.23,1.23,0,0,0,.35-.16c.18-.07.34-.15.52-.24s.5-.29.73-.44a4.31,4.31,0,0,0,.62-.46,1.73,1.73,0,0,0,.35-.27l.52-.46.14-.15L36,35.2a12.07,12.07,0,0,0,.88-1.15c.16-.24.29-.48.43-.73a3.91,3.91,0,0,0,.24-.51c.06-.11.11-.25.18-.37s0-.07,0-.11a1.07,1.07,0,0,0,.08-.27,7.72,7.72,0,0,0,.32-1s0-.07,0-.09a6.13,6.13,0,0,0,.16-.79s0,0,0,0a5.81,5.81,0,0,0,.1-.85,9.88,9.88,0,0,0,0-1.8A9.05,9.05,0,0,0,38.11,26a2.9,2.9,0,0,0-.12-.42,3,3,0,0,0-.23-.58,4.23,4.23,0,0,0-.25-.58,3,3,0,0,0-.22-.44,1.9,1.9,0,0,0-.22-.37,2,2,0,0,0-.28-.45,5.26,5.26,0,0,0-.49-.65,5.21,5.21,0,0,0-.54-.62l-.12-.13c-.22-.21-.44-.4-.67-.58a3.93,3.93,0,0,0-.69-.5,9.51,9.51,0,0,0-1.19-.7c.19-.3.35-.63.52-.92s.29-.63.42-.94v0a.67.67,0,0,0,.08-.17c.11-.29.23-.61.32-.89.14-.46.26-.88.35-1.33A8.1,8.1,0,0,0,35,14.49c0-.41.09-.82.11-1.24s0-.83,0-1.25c0,0,0,0,0,0,0-.42,0-.83-.09-1.26s-.12-.8-.21-1.18a.52.52,0,0,1,0-.14,12,12,0,0,0-.33-1.21,7.13,7.13,0,0,0-.26-.78,12.94,12.94,0,0,0-3-5,9,9,0,0,0-.69-.69h0A12,12,0,0,0,28.23.21,27,27,0,0,1,31,.13C35.49.1,43.76.2,43.76.2c.45.14.88.31,1.3.48s.78.33,1.16.52a11,11,0,0,1,1.28.65c.42.23.82.47,1.23.74s.78.52,1.14.79c3.05,2.3,5.06,5.14,5.37,7.65,0,.14,0,.29,0,.43a1.5,1.5,0,0,1,0,.3,3.59,3.59,0,0,1-.08.75,5.27,5.27,0,0,1-.19.68,2.61,2.61,0,0,1-.34.69,2.83,2.83,0,0,1-.34.53,5.27,5.27,0,0,1-.49.57c-.11.11-.23.23-.36.34.33.23.66.44,1,.71a.53.53,0,0,1,.14.11c.26.18.5.4.74.58l.1.1c.28.26.55.5.82.77A14.06,14.06,0,0,1,57.49,19a12.51,12.51,0,0,1,1.92,3.35,11.46,11.46,0,0,1,.58,2,9.94,9.94,0,0,1,.19,2.12,11.31,11.31,0,0,1-.12,1.17,9.45,9.45,0,0,1-1.73,4c-.19.24-.38.48-.59.71A14.6,14.6,0,0,1,56,34.07q.3.51.57,1a4.63,4.63,0,0,1,.29.65,9.68,9.68,0,0,1,.44,1.17A11.5,11.5,0,0,1,57.81,39,14.41,14.41,0,0,1,58,40.77c0,.4,0,.81,0,1.23a16.8,16.8,0,0,1-.24,2.46c-.07.4-.16.82-.27,1.22a1.63,1.63,0,0,1-.07.26c-.12.42-.26.83-.41,1.24a14.27,14.27,0,0,1-1.2,2.64c-.1.18-.22.36-.33.55s-.38.59-.57.86-.46.63-.71.91a.65.65,0,0,1-.12.15c-.26.31-.55.62-.83.91h0l0,0c-.3.29-.61.58-.92.84l-.08.08c-.33.27-.67.52-1,.77a8,8,0,0,1-.84.54,4.76,4.76,0,0,1-.51.32A15.69,15.69,0,0,1,47.2,57c-.42.15-.83.28-1.25.41a1.83,1.83,0,0,0-.25.06A17.36,17.36,0,0,1,42,58c-.42,0-.82,0-1.23,0A14.8,14.8,0,0,1,39,57.8c-.29-.06-.59-.11-.87-.18s-.59-.15-.87-.21a14.06,14.06,0,0,1-1.5-.56,5.44,5.44,0,0,1-.65-.3A9.78,9.78,0,0,1,34.08,56a14.59,14.59,0,0,1-1.69,1.75c-.23.2-.48.39-.72.58a9.47,9.47,0,0,1-4,1.74c-.4.06-.78.09-1.18.12s-.83,0-1.25-.06L24.35,60a13.53,13.53,0,0,1-2-.58l-.69-.29c-.45-.2-.88-.45-1.3-.68a6.33,6.33,0,0,1-.61-.39,15.16,15.16,0,0,1-2.16-1.8c-.27-.27-.51-.54-.77-.82l-.09-.1c-.19-.24-.41-.49-.58-.74l-.07-.07a.12.12,0,0,1,0-.07,11.33,11.33,0,0,1-.72-1,3.81,3.81,0,0,1-.34.37,4.57,4.57,0,0,1-.57.49,3,3,0,0,1-.54.35,3.18,3.18,0,0,1-.67.32,4,4,0,0,1-.68.19,3.16,3.16,0,0,1-.76.08.76.76,0,0,1-.3,0l-.43,0C8.55,54.93,5.69,52.91,3.39,49.85Z"/><path class="cls-3" d="M34.5,43.27a6.22,6.22,0,0,1-1.68-5.71A9.08,9.08,0,0,0,35.22,36l.34-.31.14-.15a5.43,5.43,0,0,0,.46-.51,1.79,1.79,0,0,0,.28-.35,7.08,7.08,0,0,0,.73-1.11,4.6,4.6,0,0,0,.4-.76A6.22,6.22,0,1,1,34.5,43.27Z"/><path class="cls-3" d="M38,31.89a9.8,9.8,0,0,0-2.2-10A5.95,5.95,0,0,1,44,30.45,5.88,5.88,0,0,1,38,31.89Z"/><path class="cls-3" d="M34.11,17.94a14.59,14.59,0,0,0,.32-9.74,6,6,0,0,1,7.47,9.2A5.92,5.92,0,0,1,34.11,17.94Z"/><path class="cls-3" d="M31.89,38a9.8,9.8,0,0,1-10-2.2A5.95,5.95,0,0,0,30.45,44,5.88,5.88,0,0,0,31.89,38Z"/><path class="cls-3" d="M17.94,34.11a14.59,14.59,0,0,1-9.74.32,6,6,0,0,0,9.2,7.47A5.92,5.92,0,0,0,17.94,34.11Z"/><path class="cls-6" d="M24,28.94a1.32,1.32,0,0,0,.48-.06,1.55,1.55,0,0,0,.41-.25,1.76,1.76,0,0,0,.62-.81,7.27,7.27,0,0,0,.68.79l.1.08.09.12a1.73,1.73,0,0,0,2.09.26,1.31,1.31,0,0,0,.4-.26,1.48,1.48,0,0,0,.27-.4,1.74,1.74,0,0,0-.27-2.09l-.11-.09-.09-.11a7.07,7.07,0,0,0-.78-.67,1.8,1.8,0,0,0,.8-.62,1.46,1.46,0,0,0,.25-.41,1.59,1.59,0,0,0,.07-.48,1.74,1.74,0,0,0-1.14-1.77l-.14,0-.12-.05A10.91,10.91,0,0,0,22,22h0a11,11,0,0,0,.12,5.58l.06.12,0,.15A1.74,1.74,0,0,0,24,28.94Z"/></g></g></svg>