<svg width="33" height="27" viewBox="0 0 33 27" fill="none" xmlns="http://www.w3.org/2000/svg">
<path d="M10.0723 17.3942C10.0715 16.8522 10.1775 16.3153 10.3844 15.8143C10.5913 15.3134 10.8949 14.8581 11.2779 14.4745C11.6608 14.091 12.1157 13.7867 12.6164 13.5791C13.117 13.3715 13.6537 13.2646 14.1958 13.2646C14.2309 12.4721 14.5706 11.7237 15.1438 11.1753C15.7171 10.6269 16.4799 10.3208 17.2732 10.3208C18.0665 10.3208 18.8293 10.6269 19.4026 11.1753C19.9759 11.7237 20.3155 12.4721 20.3507 13.2646C20.8927 13.2646 21.4294 13.3715 21.9301 13.5791C22.4307 13.7867 22.8856 14.091 23.2686 14.4745C23.6515 14.8581 23.9551 15.3134 24.162 15.8143C24.3689 16.3153 24.4749 16.8522 24.4741 17.3942C24.4741 17.4609 24.4741 17.5276 24.4741 17.5943C22.6338 18.4235 21.0195 19.6824 19.767 21.2653C18.5144 22.8481 17.6602 24.7086 17.2762 26.6902C16.8953 24.7083 16.0429 22.8471 14.7912 21.264C13.5394 19.6808 11.925 18.4221 10.0844 17.5943C10.0723 17.5215 10.0723 17.4548 10.0723 17.3942Z" fill="black"/>
<path d="M8.0957 16.8242C8.16665 15.6524 8.56675 14.5243 9.25004 13.5696C9.93332 12.6149 10.8721 11.8724 11.9584 11.4273L12.4921 11.209L12.7589 10.6814C13.1658 9.82904 13.8058 9.10927 14.6047 8.60539C15.4037 8.10151 16.3289 7.83411 17.2735 7.83411C18.218 7.83411 19.1433 8.10151 19.9422 8.60539C20.7412 9.10927 21.3811 9.82904 21.7881 10.6814L22.0549 11.209L22.5885 11.4273C23.6749 11.8724 24.6137 12.6149 25.2969 13.5696C25.9802 14.5243 26.3803 15.6524 26.4513 16.8242C25.7709 17.0253 25.1078 17.2808 24.4684 17.5883C24.4684 17.5216 24.4684 17.4549 24.4684 17.3882C24.4692 16.8461 24.3631 16.3093 24.1562 15.8083C23.9494 15.3073 23.6457 14.852 23.2628 14.4685C22.8798 14.0849 22.4249 13.7807 21.9243 13.5731C21.4236 13.3655 20.8869 13.2586 20.3449 13.2586C20.3097 12.4661 19.9701 11.7176 19.3968 11.1692C18.8235 10.6208 18.0608 10.3148 17.2674 10.3148C16.4741 10.3148 15.7113 10.6208 15.138 11.1692C14.5648 11.7176 14.2252 12.4661 14.19 13.2586C13.648 13.2594 13.1114 13.367 12.611 13.5754C12.1107 13.7837 11.6563 14.0887 11.2739 14.4728C10.8914 14.8569 10.5885 15.3126 10.3824 15.8139C10.1762 16.3152 10.071 16.8522 10.0726 17.3942C10.0726 17.4609 10.0726 17.5276 10.0726 17.5943C9.4353 17.2851 8.77422 17.0275 8.0957 16.8242Z" fill="black"/>
<path d="M18.5436 14.7988C18.5436 15.7023 17.2763 22.2757 17.2763 22.2757C17.2763 22.2757 16.0028 15.7023 16.0028 14.7988C15.9563 14.4118 16.0637 14.022 16.3019 13.7134C16.5401 13.4049 16.8901 13.2023 17.2763 13.1494C17.6614 13.2037 18.0098 13.4069 18.2468 13.7153C18.4837 14.0237 18.5903 14.4127 18.5436 14.7988Z" fill="black"/>
<path d="M21.6421 17.3941C21.3874 18.043 18.5435 22.312 18.5435 22.312C18.5435 22.312 19.3378 17.1455 19.5865 16.4966C19.6328 16.3497 19.7084 16.2136 19.8089 16.0967C19.9093 15.9797 20.0323 15.8844 20.1706 15.8164C20.3089 15.7483 20.4596 15.7091 20.6135 15.7009C20.7674 15.6928 20.9214 15.7159 21.0661 15.769C21.3504 15.9161 21.5682 16.1659 21.6751 16.4677C21.7821 16.7695 21.7703 17.1007 21.6421 17.3941Z" fill="black"/>
<path d="M12.8799 17.3942C13.1346 18.043 15.9786 22.3121 15.9786 22.3121C15.9786 22.3121 15.1842 17.1456 14.9356 16.4967C14.8884 16.3538 14.8133 16.2217 14.7148 16.1079C14.6162 15.9942 14.4961 15.9011 14.3613 15.834C14.2266 15.7669 14.0799 15.7272 13.9297 15.717C13.7795 15.7069 13.6289 15.7267 13.4863 15.7751C13.1991 15.9181 12.9767 16.1647 12.8642 16.4652C12.7517 16.7657 12.7573 17.0977 12.8799 17.3942Z" fill="black"/>
<path d="M6.5918 16.4542C6.70654 15.0089 7.21554 13.6227 8.06341 12.4466C8.91128 11.2705 10.0655 10.3495 11.4005 9.78387C11.9225 8.66669 12.7523 7.72156 13.7925 7.0594C14.8328 6.39725 16.0403 6.04553 17.2734 6.04553C18.5066 6.04553 19.7141 6.39725 20.7543 7.0594C21.7946 7.72156 22.6244 8.66669 23.1464 9.78387C24.4814 10.3495 25.6356 11.2705 26.4835 12.4466C27.3313 13.6227 27.8403 15.0089 27.9551 16.4542C27.4467 16.5467 26.9445 16.6702 26.4512 16.8241C26.3798 15.6516 25.9788 14.523 25.2943 13.5683C24.6099 12.6135 23.6699 11.8714 22.5824 11.4272L22.0488 11.2089L21.782 10.6813C21.375 9.82894 20.7351 9.10918 19.9361 8.6053C19.1372 8.10142 18.2119 7.83401 17.2674 7.83401C16.3228 7.83401 15.3976 8.10142 14.5986 8.6053C13.7997 9.10918 13.1597 9.82894 12.7528 10.6813L12.486 11.2089L11.9523 11.4272C10.866 11.8723 9.92721 12.6148 9.24392 13.5695C8.56064 14.5242 8.16053 15.6523 8.08959 16.8241C7.59871 16.669 7.09843 16.5455 6.5918 16.4542Z" fill="white"/>
<path d="M3.66895 16.2541V16.1631C3.78452 15.3441 4.08476 14.562 4.54699 13.876C5.00922 13.19 5.62134 12.6181 6.33708 12.2034L6.81613 11.9366L6.86464 11.4211C6.97493 10.1812 7.47773 9.00879 8.29998 8.07422C9.12223 7.13964 10.2211 6.49162 11.4369 6.22434L11.9644 6.12125L12.1645 5.624C12.5652 4.59326 13.268 3.70763 14.1808 3.08319C15.0935 2.45875 16.1736 2.12463 17.2795 2.12463C18.3854 2.12463 19.4655 2.45875 20.3782 3.08319C21.2909 3.70763 21.9937 4.59326 22.3944 5.624L22.5945 6.12125L23.1221 6.22434C24.3379 6.49162 25.4367 7.13964 26.259 8.07422C27.0812 9.00879 27.584 10.1812 27.6943 11.4211L27.7428 11.9366L28.2037 12.1973C28.9212 12.6151 29.534 13.1912 29.9953 13.8816C30.4566 14.572 30.7543 15.3585 30.8657 16.1813V16.2723H30.3867C29.5731 16.2618 28.7605 16.3329 27.9611 16.4845C27.8464 15.0392 27.3374 13.6531 26.4895 12.4769C25.6416 11.3008 24.4874 10.3798 23.1524 9.81419C22.6304 8.69701 21.8006 7.75188 20.7604 7.08972C19.7201 6.42757 18.5126 6.07585 17.2795 6.07585C16.0464 6.07585 14.8388 6.42757 13.7986 7.08972C12.7583 7.75188 11.9285 8.69701 11.4065 9.81419C10.0716 10.3798 8.91732 11.3008 8.06945 12.4769C7.22158 13.6531 6.71257 15.0392 6.59783 16.4845C5.79847 16.3326 4.98585 16.2615 4.17225 16.2723L3.66895 16.2541Z" fill="black"/>
<path d="M1.54639 16.6059V16.4361C1.63828 15.2895 1.99844 14.1807 2.5978 13.1989C3.19716 12.2172 4.01892 11.3902 4.99677 10.7845C5.18246 9.26715 5.82188 7.84121 6.83134 6.69325C7.8408 5.5453 9.17329 4.72882 10.6544 4.35065C11.2126 3.05858 12.1368 1.95815 13.3129 1.18505C14.4891 0.411951 15.8658 0 17.2732 0C18.6807 0 20.0574 0.411951 21.2336 1.18505C22.4097 1.95815 23.3338 3.05858 23.892 4.35065C25.3788 4.72353 26.7179 5.5377 27.7331 6.68608C28.7484 7.83445 29.3922 9.26324 29.58 10.7845C30.5487 11.3964 31.3611 12.2259 31.9528 13.207C32.5444 14.1881 32.8989 15.2938 32.9879 16.4361V16.6059L32.5089 16.4846L32.1996 16.4179C31.761 16.3346 31.3174 16.2799 30.8716 16.2542V16.1632C30.7561 15.3441 30.4558 14.5621 29.9936 13.8761C29.5314 13.1901 28.9192 12.6181 28.2035 12.2035L27.7366 11.9366L27.6881 11.4212C27.5778 10.1813 27.075 9.00887 26.2527 8.07429C25.4305 7.13971 24.3316 6.49169 23.1158 6.22441L22.5822 6.12738L22.3821 5.63014C21.9814 4.5994 21.2786 3.71377 20.3659 3.08933C19.4532 2.46489 18.3731 2.13077 17.2672 2.13077C16.1613 2.13077 15.0812 2.46489 14.1685 3.08933C13.2557 3.71377 12.5529 4.5994 12.1522 5.63014L11.9521 6.12738L11.4246 6.23047C10.2088 6.49776 9.10993 7.14577 8.28768 8.08035C7.46542 9.01493 6.96262 10.1874 6.85234 11.4273L6.81596 11.9366L6.3551 12.1974C5.63527 12.6138 5.02014 13.1893 4.55667 13.8797C4.0932 14.5702 3.79365 15.3575 3.6809 16.1814V16.2724C3.23315 16.2982 2.78753 16.3529 2.34683 16.4361L2.04363 16.5028C1.86171 16.521 1.70405 16.5634 1.54639 16.6059Z" fill="black"/>
</svg>
