<svg width="34" height="31" viewBox="0 0 34 31" fill="none" xmlns="http://www.w3.org/2000/svg">
<path d="M1.05713 22.8819C4.11452 21.6318 6.09333 23.8695 6.09333 23.8695C9.40464 21.6589 11.6835 24.4321 11.6835 24.4321C13.4378 23.4904 17.1094 23.5554 17.3854 26.8064C17.4524 27.758 17.1005 26.2643 16.832 27.1701C17.44 27.105 17.6991 26.0278 18.3081 26.0804C18.0178 25.1809 16.9503 28.0792 17.0004 27.1242C17.2197 23.8684 20.5945 23.4092 22.3613 24.3073C22.3613 24.3073 24.5909 21.4824 27.9431 23.6129C27.9431 23.6129 29.9083 21.2952 33.0244 22.5335C33.0244 22.5335 31.1999 19.5166 27.301 17.0153C23.4021 14.5141 23.4473 12.7673 24.0883 11.8951C24.0883 11.8951 20.3049 9.11716 21.6153 6.92074C21.6153 6.92074 17.2307 6.02498 16.832 1.00122C16.5246 6.03205 12.1599 7.03138 12.1599 7.03138C13.5091 9.19485 9.78235 12.0669 9.78235 12.0669C10.4392 12.9168 10.5168 14.6636 6.66515 17.2567C3.01181 19.7156 1.2292 22.5888 1.05713 22.8819Z" fill="black"/>
<path d="M1.0432 22.9044C1.04743 22.8984 1.05129 22.8921 1.05474 22.8856C1.22681 22.5936 3.00942 19.7204 6.65962 17.2615C10.5081 14.6719 10.4368 12.9216 9.77682 12.0718C9.77682 12.0718 13.5068 9.19969 12.1575 7.03505C12.1575 7.03505 16.5222 6.03571 16.8296 1.00488L16.774 1.02254L16.7068 1.03666C16.6817 1.04373 16.6502 1.05079 16.6156 1.06256C16.4582 1.10847 16.2242 1.18027 15.922 1.2862C15.8266 1.31916 15.7206 1.35683 15.6073 1.40391C15.5988 1.40571 15.5904 1.40807 15.5821 1.41097C15.4258 1.46865 15.26 1.52868 15.0795 1.5946L15.0659 1.60166C14.961 1.64404 14.8434 1.68641 14.7291 1.73232C14.557 1.80176 14.3713 1.87239 14.1824 1.95478C14.0891 1.9948 13.9894 2.03836 13.8876 2.07838C13.8575 2.09344 13.8266 2.1068 13.7953 2.1184C12.302 2.76121 10.855 3.53212 9.4673 4.42429C9.08434 4.67265 8.70348 4.93279 8.32156 5.21175C8.22818 5.28238 8.13061 5.35065 8.03408 5.42363C7.84417 5.56605 7.65217 5.71437 7.46541 5.86503C7.08839 6.16636 6.71487 6.48417 6.34485 6.81846C6.06891 7.07154 5.79926 7.33049 5.53277 7.59769C5.08474 8.04978 4.65817 8.52793 4.25483 9.03019C4.01351 9.3327 3.77534 9.64227 3.54976 9.97185C3.09177 10.6192 2.6799 11.306 2.31799 12.0259C2.19628 12.2613 2.08087 12.5132 1.97175 12.7651C1.57494 13.6673 1.26473 14.6143 1.04635 15.59C0.985493 15.8761 0.926737 16.1692 0.879523 16.4658C0.56476 18.3856 0.5784 20.5208 1.0411 22.8891C1.04215 22.8914 1.04215 22.9009 1.0432 22.9044Z" stroke="black" stroke-width="0.2" stroke-linecap="round" stroke-linejoin="round"/>
<path d="M21.6149 6.91952C20.3044 9.11594 24.0879 11.8938 24.0879 11.8938C23.4468 12.7661 23.4048 14.5105 27.3006 17.0141C31.1963 19.5178 33.024 22.5287 33.024 22.5287C33.024 22.5287 33.024 22.5146 33.024 22.5052C33.21 21.4617 33.3126 20.4016 33.3304 19.3377C33.3304 18.9316 33.3304 18.5396 33.3052 18.1512C33.3052 18.1512 33.3052 18.1512 33.3052 18.1453C33.2648 17.3929 33.1725 16.6452 33.0292 15.9089C32.9957 15.7288 32.9589 15.5557 32.918 15.3803C32.5642 13.8575 31.99 12.41 31.2183 11.0958C31.1134 10.918 31.0085 10.7427 30.9035 10.5708C30.7986 10.399 30.679 10.2259 30.5657 10.0588C30.4524 9.89164 30.3433 9.73979 30.2299 9.58795C30.2221 9.57367 30.2121 9.56095 30.2006 9.55028C29.8494 9.07162 29.4742 8.61575 29.0769 8.18488C28.8146 7.89296 28.5407 7.61164 28.2606 7.34091C28.1207 7.20673 27.9808 7.07372 27.8409 6.94188C27.5611 6.68136 27.2736 6.43103 26.9784 6.19091C26.842 6.0732 26.7036 5.96609 26.5651 5.8578C26.3752 5.70595 26.1842 5.55764 25.9922 5.41992C25.8789 5.33517 25.7645 5.25042 25.6491 5.17038C23.8037 3.87558 21.8381 2.80994 19.7872 1.99228C19.293 1.79335 18.8429 1.62738 18.4494 1.48966C18.3445 1.45317 18.2396 1.41551 18.1347 1.3802C17.3257 1.12006 16.8315 1 16.8315 1C17.2313 6.02376 21.6149 6.91952 21.6149 6.91952Z" stroke="black" stroke-width="0.2" stroke-linecap="round" stroke-linejoin="round"/>
<path d="M16.9132 13.3518C18.9053 13.4875 20.7889 13.8926 22.3667 14.5249C23.9446 15.1571 25.1586 15.9931 25.8818 16.9453C27.9762 16.4348 30.7245 17.3577 30.7245 17.3577C31.0759 27.0878 17.2134 27.8973 17.2134 27.8973C17.2134 27.8973 3.32073 27.2355 3.26953 17.4984C3.26953 17.4984 5.98757 16.5471 8.09358 17.0363C8.77849 16.0772 9.95848 15.2291 11.5101 14.5809C13.0617 13.9327 14.9278 13.5082 16.9132 13.3518Z" fill="black"/>
<path d="M7.72159 12.5554C7.05577 12.3139 6.35182 12.2338 5.65635 12.3205C4.96088 12.4071 4.28974 12.6585 3.68738 13.058C3.68738 13.058 5.27588 8.724 10.672 8.66868C10.672 8.66868 9.30799 7.52809 6.85389 7.83296C6.85389 7.83296 7.43725 6.32394 9.90709 6.21801C12.2038 6.11913 13.7472 4.76903 13.8941 2.07117C8.68371 4.30761 -1.40758 10.3507 1.04547 22.9054C1.04337 22.9066 0.513519 15.0484 7.72159 12.5554Z" fill="black"/>
<path d="M1.04526 22.8995C1.0495 22.8935 1.05335 22.8872 1.0568 22.8807C1.22887 22.5888 3.01148 19.7155 6.66168 17.2566C10.5102 14.667 10.4388 12.9167 9.77888 12.0669C9.77888 12.0669 13.5088 9.19481 12.1595 7.03016C12.1595 7.03016 16.5242 6.03083 16.8317 1L16.7761 1.01766L16.7068 1.03649C16.6816 1.04355 16.6502 1.05061 16.6155 1.06239C16.4581 1.10829 16.2242 1.18009 15.922 1.28603C15.8171 1.32016 15.7206 1.35665 15.6072 1.40374C15.5987 1.40553 15.5903 1.40789 15.5821 1.4108C15.4257 1.46848 15.2589 1.52851 15.0795 1.59442L15.0658 1.60149C14.9609 1.64033 14.8466 1.68506 14.729 1.73214C14.557 1.80159 14.3713 1.87221 14.1824 1.95461C14.0838 1.99228 13.9873 2.03465 13.8876 2.0782C13.7438 4.77606 12.1994 6.12381 9.90059 6.22387C7.43705 6.32627 6.85473 7.8294 6.85473 7.8294C9.23119 7.53984 10.5857 8.59568 10.6665 8.66512C5.27672 8.72398 3.68612 13.0568 3.68612 13.0568C4.28882 12.6577 4.96016 12.4066 5.65578 12.3202C6.35139 12.2337 7.05543 12.3139 7.72138 12.5554C0.697975 14.9872 1.02218 22.5017 1.04421 22.8819C1.04236 22.8844 1.04144 22.8876 1.04163 22.8909C1.04183 22.8942 1.04312 22.8973 1.04526 22.8995Z" fill="white"/>
<path d="M26.1499 12.3388C26.8112 12.0817 27.5137 11.9851 28.2107 12.0553C28.9078 12.1255 29.5837 12.3609 30.1936 12.7461C30.1936 12.7461 28.5274 8.45091 23.1314 8.52153C23.1314 8.52153 24.4722 7.34446 26.9326 7.59635C26.9326 7.59635 26.322 6.10264 23.8501 6.05321C21.5523 6.00848 19.9837 4.69486 19.7886 2.00171C25.0346 4.12045 35.2413 9.9199 33.0233 22.5299C33.0233 22.5287 33.4063 14.6623 26.1499 12.3388Z" fill="black"/>
<path d="M21.6149 6.91952C20.3044 9.11594 24.0879 11.8938 24.0879 11.8938C23.4468 12.7661 23.4048 14.5105 27.3006 17.0141C31.1963 19.5178 33.024 22.5287 33.024 22.5287C33.024 22.5287 33.024 22.5146 33.024 22.5052C33.0366 22.0344 33.1688 14.5835 26.1517 12.3352C26.8124 12.0775 27.5146 11.9808 28.2113 12.0514C28.908 12.122 29.5833 12.3584 30.1922 12.7449C30.1922 12.7449 28.526 8.44972 23.131 8.52152C23.131 8.52152 24.4698 7.34444 26.9312 7.59398C26.9312 7.59398 26.3206 6.10027 23.8508 6.05201C21.5509 6.00493 19.9823 4.69131 19.7882 1.99934C19.294 1.80041 18.8439 1.63444 18.4505 1.49673C18.3456 1.45671 18.2406 1.42257 18.1357 1.38726C17.3257 1.12006 16.8315 1 16.8315 1C17.2313 6.02376 21.6149 6.91952 21.6149 6.91952Z" fill="white"/>
</svg>
