<svg xmlns="http://www.w3.org/2000/svg" viewBox="0 0 724.96 22.02"><defs><style>.cls-1{fill:#9ec4d5;}.cls-2{fill:#4b7885;}</style></defs><g id="图层_2" data-name="图层 2"><g id="文件图层"><polygon class="cls-1" points="0 20.01 20.11 0 702.84 0 724.96 22.02 0 20.01"/><path class="cls-2" d="M422.9,8.27v9.27H441a4,4,0,0,1,0-.48c.09-.93.17-1.79.28-2.61H426V11.36h12.36V2.08H416.72V14.45H401.26V11.36h12.37V2.08H392V14.45H376.53V11.36H388.9V2.08H367.26V14.45H351.8V11.36h12.36V2.08H342.52V14.45H327.07V11.36h12.36V2.08H317.79V14.45H302.33V11.36H314.7V2.08H293.06V14.45H277.6V11.36H290V2.08H268.33V14.45H252.87V11.36h12.36V2.08H243.59V14.45H228.14V11.36H240.5V2.08H218.86V14.45H203.4V11.36h12.37V2.08H194.13V14.45H178.67V11.36H191V2.08H169.4V14.45H153.94V11.36h12.37V2.08H144.66V14.45H129.21V11.36h12.36V2.08H119.93V14.45H104.47V11.36h12.37V2.08H95.2V14.45H79.74V11.36H92.11V2.08H70.47V14.45H55V11.36H67.38V2.08H45.73V14.45H30.28V11.36H42.64V2.08H21V14.45H17.91V2.08H8.64V14.45H5.54l.13-.95a4.42,4.42,0,0,1-2.88,1.62l-.34,2.42H24.09V5.17H39.55v3.1H27.19v9.27H48.83V5.17H64.28v3.1H51.92v9.27H73.56V5.17H89v3.1H76.65v9.27H98.29V5.17h15.46v3.1H101.38v9.27H123V5.17h15.46v3.1H126.11v9.27h21.65V5.17h15.45v3.1H150.85v9.27h21.64V5.17H188v3.1H175.58v9.27h21.64V5.17h15.46v3.1H200.31v9.27H222V5.17h15.46v3.1H225v9.27h21.65V5.17h15.45v3.1H249.78v9.27h21.64V5.17h15.46v3.1H274.51v9.27h21.64V5.17h15.46v3.1H299.24v9.27h21.64V5.17h15.46v3.1H324v9.27h21.65V5.17h15.45v3.1H348.71v9.27h21.64V5.17h15.46v3.1H373.44v9.27h21.64V5.17h15.46v3.1H398.17v9.27h21.64V5.17h15.46v3.1ZM15.82,14.45H12.73V5.17h3.09Z"/><path class="cls-2" d="M698.15,14.45V11.36h12.36V2.08H688.87V14.45H673.41V11.36h12.37V2.08H664.14V14.45H648.68V11.36h12.37V2.08H639.41V14.45H624V11.36h12.36V2.08H614.67V14.45H599.22V11.36h12.36V2.08H589.94V14.45H574.48V11.36h12.37V2.08H565.21V14.45H549.75V11.36h12.37V2.08H540.48V14.45H525V11.36h12.36V2.08H515.74V14.45H500.29V11.36h12.36V2.08H491V14.45H475.55V11.36h12.37V2.08H466.28V14.45H450.82V11.36h12.37V2.08H441.55V14.45H426.09V11.36h12.37V2.08H416.81V14.45H401.36V11.36h12.36V2.08H392.08V14.45H376.62V11.36H389V2.08H367.35V14.45H351.89V11.36h12.37V2.08H342.62V14.45H327.16V11.36h12.37V2.08H317.88V14.45H302.43V11.36h12.36V2.08H293.15V14.45h-.92v3.09h4V5.17H311.7v3.1H299.34v9.27H321V5.17h15.45v3.1H324.07v9.27h21.64V5.17h15.46v3.1H348.8v9.27h21.64V5.17H385.9v3.1H373.53v9.27h21.64V5.17h15.46v3.1H398.26v9.27h21.65V5.17h15.45v3.1H423v9.27h21.64V5.17H460.1v3.1H447.73v9.27h21.64V5.17h15.46v3.1H472.46v9.27H494.1V5.17h15.46v3.1H497.19v9.27h21.65V5.17h15.45v3.1H521.93v9.27h21.64V5.17H559v3.1H546.66v9.27H568.3V5.17h15.46v3.1H571.39v9.27H593V5.17h15.46v3.1H596.12v9.27h21.65V5.17h15.45v3.1H620.86v9.27H642.5V5.17H658v3.1H645.59v9.27h21.64V5.17h15.46v3.1H670.32v9.27H692V5.17h15.46v3.1H695.05v9.27h18.09a4,4,0,0,1,0-.48c.09-.93.17-1.79.29-2.61Z"/></g></g></svg>