<svg xmlns="http://www.w3.org/2000/svg" viewBox="0 0 390.89 31.62"><defs><style>.cls-1{fill:#4b2928;}.cls-2{fill:#4f8388;}.cls-3{fill:#6a3526;}.cls-4{fill:#925841;}.cls-5{fill:#2f0000;}.cls-6{fill:#005737;}.cls-7{fill:#087565;}.cls-8{fill:#2a4c59;}.cls-9{fill:#603a31;}</style></defs><g id="图层_2" data-name="图层 2"><g id="文件图层"><rect class="cls-1" x="179.64" y="-179.64" width="31.62" height="390.89" transform="translate(211.25 -179.64) rotate(90)"/><rect class="cls-2" x="183.12" y="-176.15" width="24.65" height="383.64" transform="translate(211.11 -179.78) rotate(90)"/><circle class="cls-3" cx="16.86" cy="14.76" r="11.42"/><path class="cls-4" d="M16.86,23.46a8.7,8.7,0,1,1,8.7-8.7A8.71,8.71,0,0,1,16.86,23.46Z"/><path class="cls-5" d="M16.86,20.74a6,6,0,1,1,6-6A6,6,0,0,1,16.86,20.74Z"/><path class="cls-1" d="M16.86,18a3.26,3.26,0,1,1,3.26-3.26A3.26,3.26,0,0,1,16.86,18Z"/><circle class="cls-6" cx="44.33" cy="14.76" r="11.42"/><path class="cls-7" d="M44.33,23.46a8.7,8.7,0,1,1,8.7-8.7A8.71,8.71,0,0,1,44.33,23.46Z"/><path class="cls-2" d="M44.33,20.74a6,6,0,1,1,6-6A6,6,0,0,1,44.33,20.74Z"/><path class="cls-1" d="M44.33,18a3.26,3.26,0,1,1,3.26-3.26A3.27,3.27,0,0,1,44.33,18Z"/><circle class="cls-8" cx="99.28" cy="14.76" r="11.42"/><path class="cls-2" d="M99.28,23.46a8.7,8.7,0,1,1,8.7-8.7A8.71,8.71,0,0,1,99.28,23.46Z"/><path class="cls-2" d="M99.28,20.74a6,6,0,1,1,6-6A6,6,0,0,1,99.28,20.74Z"/><path class="cls-1" d="M99.28,18a3.26,3.26,0,1,1,3.26-3.26A3.27,3.27,0,0,1,99.28,18Z"/><circle class="cls-9" cx="71.81" cy="14.76" r="11.42"/><path class="cls-4" d="M71.81,23.46a8.7,8.7,0,1,1,8.7-8.7A8.71,8.71,0,0,1,71.81,23.46Z"/><path class="cls-9" d="M71.81,20.74a6,6,0,1,1,6-6A6,6,0,0,1,71.81,20.74Z"/><path class="cls-1" d="M71.81,18a3.26,3.26,0,1,1,3.26-3.26A3.26,3.26,0,0,1,71.81,18Z"/><circle class="cls-3" cx="126.76" cy="14.76" r="11.42"/><path class="cls-4" d="M126.76,23.46a8.7,8.7,0,1,1,8.7-8.7A8.71,8.71,0,0,1,126.76,23.46Z"/><path class="cls-5" d="M126.76,20.74a6,6,0,1,1,6-6A6,6,0,0,1,126.76,20.74Z"/><path class="cls-1" d="M126.76,18A3.26,3.26,0,1,1,130,14.76,3.26,3.26,0,0,1,126.76,18Z"/><circle class="cls-6" cx="154.23" cy="14.76" r="11.42"/><path class="cls-7" d="M154.23,23.46a8.7,8.7,0,1,1,8.7-8.7A8.71,8.71,0,0,1,154.23,23.46Z"/><path class="cls-2" d="M154.23,20.74a6,6,0,1,1,6-6A6,6,0,0,1,154.23,20.74Z"/><path class="cls-1" d="M154.23,18a3.26,3.26,0,1,1,3.26-3.26A3.27,3.27,0,0,1,154.23,18Z"/><circle class="cls-8" cx="209.18" cy="14.76" r="11.42"/><path class="cls-2" d="M209.18,23.46a8.7,8.7,0,1,1,8.7-8.7A8.71,8.71,0,0,1,209.18,23.46Z"/><path class="cls-2" d="M209.18,20.74a6,6,0,1,1,6-6A6,6,0,0,1,209.18,20.74Z"/><path class="cls-1" d="M209.18,18a3.26,3.26,0,1,1,3.26-3.26A3.26,3.26,0,0,1,209.18,18Z"/><circle class="cls-9" cx="181.71" cy="14.76" r="11.42"/><path class="cls-4" d="M181.71,23.46a8.7,8.7,0,1,1,8.7-8.7A8.71,8.71,0,0,1,181.71,23.46Z"/><path class="cls-9" d="M181.71,20.74a6,6,0,1,1,6-6A6,6,0,0,1,181.71,20.74Z"/><path class="cls-1" d="M181.71,18A3.26,3.26,0,1,1,185,14.76,3.26,3.26,0,0,1,181.71,18Z"/><circle class="cls-3" cx="236.66" cy="14.76" r="11.42"/><path class="cls-4" d="M236.66,23.46a8.7,8.7,0,1,1,8.7-8.7A8.71,8.71,0,0,1,236.66,23.46Z"/><path class="cls-5" d="M236.66,20.74a6,6,0,1,1,6-6A6,6,0,0,1,236.66,20.74Z"/><path class="cls-1" d="M236.66,18a3.26,3.26,0,1,1,3.26-3.26A3.26,3.26,0,0,1,236.66,18Z"/><circle class="cls-6" cx="264.13" cy="14.76" r="11.42"/><path class="cls-7" d="M264.13,23.46a8.7,8.7,0,1,1,8.7-8.7A8.71,8.71,0,0,1,264.13,23.46Z"/><path class="cls-2" d="M264.13,20.74a6,6,0,1,1,6-6A6,6,0,0,1,264.13,20.74Z"/><path class="cls-1" d="M264.13,18a3.26,3.26,0,1,1,3.26-3.26A3.26,3.26,0,0,1,264.13,18Z"/><circle class="cls-8" cx="319.08" cy="14.76" r="11.42"/><path class="cls-2" d="M319.08,23.46a8.7,8.7,0,1,1,8.7-8.7A8.71,8.71,0,0,1,319.08,23.46Z"/><path class="cls-2" d="M319.08,20.74a6,6,0,1,1,6-6A6,6,0,0,1,319.08,20.74Z"/><path class="cls-1" d="M319.08,18a3.26,3.26,0,1,1,3.26-3.26A3.26,3.26,0,0,1,319.08,18Z"/><circle class="cls-9" cx="291.61" cy="14.76" r="11.42"/><path class="cls-4" d="M291.61,23.46a8.7,8.7,0,1,1,8.7-8.7A8.71,8.71,0,0,1,291.61,23.46Z"/><path class="cls-9" d="M291.61,20.74a6,6,0,1,1,6-6A6,6,0,0,1,291.61,20.74Z"/><path class="cls-1" d="M291.61,18a3.26,3.26,0,1,1,3.26-3.26A3.26,3.26,0,0,1,291.61,18Z"/><circle class="cls-3" cx="346.56" cy="14.76" r="11.42"/><path class="cls-4" d="M346.56,23.46a8.7,8.7,0,1,1,8.69-8.7A8.71,8.71,0,0,1,346.56,23.46Z"/><path class="cls-5" d="M346.56,20.74a6,6,0,1,1,6-6A6,6,0,0,1,346.56,20.74Z"/><path class="cls-1" d="M346.56,18a3.26,3.26,0,1,1,3.26-3.26A3.26,3.26,0,0,1,346.56,18Z"/><circle class="cls-6" cx="374.03" cy="14.76" r="11.42"/><path class="cls-7" d="M374,23.46a8.7,8.7,0,1,1,8.7-8.7A8.71,8.71,0,0,1,374,23.46Z"/><path class="cls-2" d="M374,20.74a6,6,0,1,1,6-6A6,6,0,0,1,374,20.74Z"/><path class="cls-1" d="M374,18a3.26,3.26,0,1,1,3.26-3.26A3.26,3.26,0,0,1,374,18Z"/></g></g></svg>