<svg xmlns="http://www.w3.org/2000/svg" viewBox="0 0 523.76 49.5"><defs><style>.cls-1,.cls-7{fill:#580220;}.cls-1,.cls-10,.cls-11,.cls-12,.cls-13,.cls-2,.cls-3,.cls-4,.cls-5,.cls-6,.cls-7,.cls-8,.cls-9{stroke:#580220;stroke-linecap:round;stroke-linejoin:round;}.cls-1,.cls-2,.cls-3,.cls-4,.cls-5,.cls-6{stroke-width:0.47px;}.cls-2,.cls-8{fill:#e7d2a4;}.cls-11,.cls-3,.cls-9{fill:#1c779d;}.cls-10,.cls-4{fill:#69b5c8;}.cls-12,.cls-5{fill:#260008;}.cls-13,.cls-6{fill:#094826;}.cls-10,.cls-7,.cls-8,.cls-9{stroke-width:0.45px;}.cls-11,.cls-12,.cls-13{stroke-width:0.45px;}</style></defs><g id="图层_2" data-name="图层 2"><g id="文件图层"><polygon class="cls-1" points="458.99 24.72 446.38 12.92 446.38 36.52 458.99 24.72"/><path class="cls-2" d="M462.5,24.72,443.9,7.32V42.13Zm-3.51,0L446.38,36.53V12.92Z"/><polygon class="cls-1" points="478.62 36.52 478.62 12.92 466 24.72 478.62 36.52"/><path class="cls-2" d="M481.1,7.32l-18.6,17.4,18.6,17.41Zm-2.48,29.21L466,24.72l12.62-11.8Z"/><polygon class="cls-3" points="475.11 9.64 449.88 9.64 462.5 21.44 475.11 9.64"/><path class="cls-4" d="M443.9,7.32l18.6,17.4,18.6-17.4Zm31.21,2.32L462.5,21.44,449.88,9.64Z"/><polygon class="cls-3" points="449.88 39.81 475.11 39.81 462.5 28 449.88 39.81"/><path class="cls-4" d="M462.5,24.72,443.9,42.13h37.2ZM449.88,39.81,462.5,28l12.61,11.81Z"/><ellipse class="cls-3" cx="462.5" cy="24.72" rx="4.89" ry="4.58"/><polygon class="cls-1" points="408.76 24.72 396.15 12.92 396.15 36.52 408.76 24.72"/><path class="cls-2" d="M412.27,24.72l-18.6-17.4V42.13Zm-3.51,0L396.15,36.53V12.92Z"/><polygon class="cls-1" points="428.39 36.52 428.39 12.92 415.77 24.72 428.39 36.52"/><path class="cls-2" d="M430.87,7.32l-18.6,17.4,18.6,17.41Zm-2.48,29.21L415.77,24.72l12.62-11.8Z"/><polygon class="cls-3" points="424.88 9.64 399.65 9.64 412.27 21.44 424.88 9.64"/><path class="cls-4" d="M393.67,7.32l18.6,17.4,18.6-17.4Zm31.21,2.32-12.61,11.8L399.66,9.64Z"/><polygon class="cls-3" points="399.65 39.81 424.88 39.81 412.27 28 399.65 39.81"/><path class="cls-4" d="M412.27,24.72l-18.6,17.41h37.2ZM399.66,39.81,412.27,28l12.61,11.81Z"/><ellipse class="cls-3" cx="412.27" cy="24.72" rx="4.89" ry="4.58"/><rect class="cls-3" x="415.63" y="22.55" width="34.81" height="4.34" transform="translate(457.76 -408.32) rotate(90)"/><rect class="cls-5" x="419.98" y="22.55" width="34.81" height="4.34" transform="translate(462.1 -412.66) rotate(90)"/><rect class="cls-6" x="424.32" y="22.55" width="34.81" height="4.34" transform="translate(466.45 -417) rotate(90)"/><polygon class="cls-1" points="358.53 24.72 345.92 12.92 345.92 36.52 358.53 24.72"/><path class="cls-2" d="M362,24.72l-18.6-17.4V42.13Zm-3.51,0L345.92,36.53V12.92Z"/><polygon class="cls-1" points="378.16 36.52 378.16 12.92 365.55 24.72 378.16 36.52"/><path class="cls-2" d="M380.64,7.32,362,24.72l18.6,17.41Zm-2.48,29.21L365.55,24.72l12.61-11.8Z"/><polygon class="cls-3" points="374.65 9.64 349.43 9.64 362.04 21.44 374.65 9.64"/><path class="cls-4" d="M343.44,7.32,362,24.72l18.6-17.4Zm31.21,2.32L362,21.44,349.43,9.64Z"/><polygon class="cls-3" points="349.43 39.81 374.65 39.81 362.04 28 349.43 39.81"/><path class="cls-4" d="M362,24.72l-18.6,17.41h37.2ZM349.43,39.81,362,28l12.61,11.81Z"/><ellipse class="cls-3" cx="362.04" cy="24.72" rx="4.89" ry="4.58"/><rect class="cls-3" x="365.4" y="22.55" width="34.81" height="4.34" transform="translate(407.53 -358.09) rotate(90)"/><rect class="cls-5" x="369.75" y="22.55" width="34.81" height="4.34" transform="translate(411.88 -362.43) rotate(90)"/><rect class="cls-6" x="374.09" y="22.55" width="34.81" height="4.34" transform="translate(416.22 -366.77) rotate(90)"/><polygon class="cls-1" points="308.31 24.72 295.69 12.92 295.69 36.52 308.31 24.72"/><path class="cls-2" d="M311.81,24.72l-18.6-17.4V42.13Zm-3.5,0L295.69,36.53V12.92Z"/><polygon class="cls-1" points="327.93 36.52 327.93 12.92 315.32 24.72 327.93 36.52"/><path class="cls-2" d="M330.41,7.32l-18.6,17.4,18.6,17.41Zm-2.48,29.21L315.32,24.72l12.61-11.8Z"/><polygon class="cls-3" points="324.43 9.64 299.2 9.64 311.81 21.44 324.43 9.64"/><path class="cls-4" d="M293.21,7.32l18.6,17.4,18.6-17.4Zm31.22,2.32-12.62,11.8L299.2,9.64Z"/><polygon class="cls-3" points="299.2 39.81 324.43 39.81 311.81 28 299.2 39.81"/><path class="cls-4" d="M311.81,24.72l-18.6,17.41h37.2ZM299.2,39.81,311.81,28l12.62,11.81Z"/><ellipse class="cls-3" cx="311.82" cy="24.72" rx="4.89" ry="4.58"/><rect class="cls-3" x="315.18" y="22.55" width="34.81" height="4.34" transform="translate(357.31 -307.86) rotate(90)"/><rect class="cls-5" x="319.52" y="22.55" width="34.81" height="4.34" transform="translate(361.65 -312.2) rotate(90)"/><rect class="cls-6" x="323.86" y="22.55" width="34.81" height="4.34" transform="translate(365.99 -316.55) rotate(90)"/><polygon class="cls-1" points="258.08 24.72 245.47 12.92 245.47 36.52 258.08 24.72"/><path class="cls-2" d="M261.58,24.72,243,7.32V42.13Zm-3.5,0L245.47,36.53V12.92Z"/><polygon class="cls-1" points="277.7 36.52 277.7 12.92 265.09 24.72 277.7 36.52"/><path class="cls-2" d="M280.18,7.32l-18.6,17.4,18.6,17.41ZM277.7,36.53,265.09,24.72l12.61-11.8Z"/><polygon class="cls-3" points="274.2 9.64 248.97 9.64 261.58 21.44 274.2 9.64"/><path class="cls-4" d="M243,7.32l18.59,17.4,18.6-17.4ZM274.2,9.64l-12.62,11.8L249,9.64Z"/><polygon class="cls-3" points="248.97 39.81 274.2 39.81 261.58 28 248.97 39.81"/><path class="cls-4" d="M261.58,24.72,243,42.13h37.19ZM249,39.81,261.58,28,274.2,39.81Z"/><ellipse class="cls-3" cx="261.59" cy="24.72" rx="4.89" ry="4.58"/><rect class="cls-3" x="264.95" y="22.55" width="34.81" height="4.34" transform="translate(307.08 -257.63) rotate(90)"/><rect class="cls-5" x="269.29" y="22.55" width="34.81" height="4.34" transform="translate(311.42 -261.98) rotate(90)"/><rect class="cls-6" x="273.63" y="22.55" width="34.81" height="4.34" transform="translate(315.76 -266.32) rotate(90)"/><polygon class="cls-1" points="207.85 24.72 195.24 12.92 195.24 36.52 207.85 24.72"/><path class="cls-2" d="M211.36,24.72l-18.6-17.4V42.13Zm-3.51,0L195.24,36.53V12.92Z"/><polygon class="cls-1" points="227.48 36.52 227.48 12.92 214.86 24.72 227.48 36.52"/><path class="cls-2" d="M230,7.32l-18.6,17.4L230,42.13Zm-2.48,29.21L214.86,24.72l12.62-11.8Z"/><polygon class="cls-3" points="223.97 9.64 198.75 9.64 211.36 21.44 223.97 9.64"/><path class="cls-4" d="M192.76,7.32l18.6,17.4L230,7.32ZM224,9.64l-12.61,11.8L198.74,9.64Z"/><polygon class="cls-3" points="198.75 39.81 223.97 39.81 211.36 28 198.75 39.81"/><path class="cls-4" d="M211.36,24.72l-18.6,17.41H230ZM198.74,39.81,211.36,28,224,39.81Z"/><ellipse class="cls-3" cx="211.36" cy="24.72" rx="4.89" ry="4.58"/><rect class="cls-3" x="214.72" y="22.55" width="34.81" height="4.34" transform="translate(256.85 -207.41) rotate(90)"/><rect class="cls-5" x="219.06" y="22.55" width="34.81" height="4.34" transform="translate(261.19 -211.75) rotate(90)"/><rect class="cls-6" x="223.41" y="22.55" width="34.81" height="4.34" transform="translate(265.54 -216.09) rotate(90)"/><polygon class="cls-1" points="157.62 24.72 145.01 12.92 145.01 36.52 157.62 24.72"/><path class="cls-2" d="M161.13,24.72l-18.6-17.4V42.13Zm-3.51,0L145,36.53V12.92Z"/><polygon class="cls-1" points="177.25 36.52 177.25 12.92 164.64 24.72 177.25 36.52"/><path class="cls-2" d="M179.73,7.32l-18.6,17.4,18.6,17.41Zm-2.48,29.21L164.64,24.72l12.61-11.8Z"/><polygon class="cls-3" points="173.74 9.64 148.52 9.64 161.13 21.44 173.74 9.64"/><path class="cls-4" d="M142.53,7.32l18.6,17.4,18.6-17.4Zm31.21,2.32-12.61,11.8L148.52,9.64Z"/><polygon class="cls-3" points="148.52 39.81 173.74 39.81 161.13 28 148.52 39.81"/><path class="cls-4" d="M161.13,24.72l-18.6,17.41h37.2ZM148.52,39.81,161.13,28l12.61,11.81Z"/><ellipse class="cls-3" cx="161.13" cy="24.72" rx="4.89" ry="4.58"/><rect class="cls-3" x="164.49" y="22.55" width="34.81" height="4.34" transform="translate(206.62 -157.18) rotate(90)"/><rect class="cls-5" x="168.84" y="22.55" width="34.81" height="4.34" transform="translate(210.97 -161.52) rotate(90)"/><rect class="cls-6" x="173.18" y="22.55" width="34.81" height="4.34" transform="translate(215.31 -165.86) rotate(90)"/><polygon class="cls-1" points="107.39 24.72 94.78 12.92 94.78 36.52 107.39 24.72"/><path class="cls-2" d="M110.9,24.72,92.3,7.32V42.13Zm-3.51,0L94.78,36.53V12.92Z"/><polygon class="cls-1" points="127.02 36.52 127.02 12.92 114.41 24.72 127.02 36.52"/><path class="cls-2" d="M129.5,7.32l-18.6,17.4,18.6,17.41ZM127,36.53,114.41,24.72,127,12.92Z"/><polygon class="cls-3" points="123.52 9.64 98.29 9.64 110.9 21.44 123.52 9.64"/><path class="cls-4" d="M92.3,7.32l18.6,17.4,18.6-17.4Zm31.21,2.32L110.9,21.44,98.29,9.64Z"/><polygon class="cls-3" points="98.29 39.81 123.52 39.81 110.9 28 98.29 39.81"/><path class="cls-4" d="M110.9,24.72,92.3,42.13h37.2ZM98.29,39.81,110.9,28l12.61,11.81Z"/><ellipse class="cls-3" cx="110.9" cy="24.72" rx="4.89" ry="4.58"/><rect class="cls-3" x="114.27" y="22.55" width="34.81" height="4.34" transform="translate(156.39 -106.95) rotate(90)"/><rect class="cls-5" x="118.61" y="22.55" width="34.81" height="4.34" transform="translate(160.74 -111.29) rotate(90)"/><rect class="cls-6" x="122.95" y="22.55" width="34.81" height="4.34" transform="translate(165.08 -115.64) rotate(90)"/><polygon class="cls-1" points="57.17 24.72 44.55 12.92 44.55 36.52 57.17 24.72"/><path class="cls-2" d="M60.67,24.72,42.07,7.32V42.13Zm-3.5,0L44.55,36.53V12.92Z"/><polygon class="cls-1" points="76.79 36.52 76.79 12.92 64.18 24.72 76.79 36.52"/><path class="cls-2" d="M79.27,7.32l-18.6,17.4,18.6,17.41ZM76.79,36.53,64.18,24.72l12.61-11.8Z"/><polygon class="cls-3" points="73.29 9.64 48.06 9.64 60.67 21.44 73.29 9.64"/><path class="cls-4" d="M42.07,7.32l18.6,17.4,18.6-17.4ZM73.29,9.64,60.67,21.44,48.06,9.64Z"/><polygon class="cls-3" points="48.06 39.81 73.29 39.81 60.67 28 48.06 39.81"/><path class="cls-4" d="M60.67,24.72,42.07,42.13h37.2ZM48.06,39.81,60.67,28,73.29,39.81Z"/><ellipse class="cls-3" cx="60.68" cy="24.72" rx="4.89" ry="4.58"/><rect class="cls-3" x="64.04" y="22.55" width="34.81" height="4.34" transform="translate(106.17 -56.72) rotate(90)"/><rect class="cls-5" x="68.38" y="22.55" width="34.81" height="4.34" transform="translate(110.51 -61.07) rotate(90)"/><rect class="cls-6" x="72.72" y="22.55" width="34.81" height="4.34" transform="translate(114.85 -65.41) rotate(90)"/><polygon class="cls-7" points="483.94 36.6 483.94 12.99 495.75 24.8 483.94 36.6"/><path class="cls-8" d="M481.62,42.2,499,24.8,481.62,7.39ZM483.94,13l11.8,11.81-11.8,11.8Z"/><polygon class="cls-9" points="510.83 39.88 487.22 39.88 499.03 28.08 510.83 39.88"/><path class="cls-10" d="M481.62,42.2h34.81L499,24.8Zm5.6-2.32L499,28.08l11.8,11.8Z"/><circle class="cls-9" cx="499.02" cy="24.8" r="4.58"/><rect class="cls-11" x="467.84" y="25.68" width="56.25" height="4.34" transform="translate(164.96 -342.54) rotate(45)"/><rect class="cls-12" x="470.91" y="22.61" width="56.25" height="4.34" transform="translate(163.69 -345.61) rotate(45)"/><rect class="cls-13" x="473.98" y="19.54" width="56.25" height="4.34" transform="translate(162.41 -348.69) rotate(45)"/><polygon class="cls-7" points="39.82 36.54 39.82 12.93 28.01 24.74 39.82 36.54"/><path class="cls-8" d="M42.14,7.33,24.73,24.74l17.41,17.4ZM39.82,36.54,28,24.74,39.82,12.93Z"/><polygon class="cls-9" points="12.93 39.82 36.53 39.82 24.73 28.02 12.93 39.82"/><path class="cls-10" d="M24.73,24.74,7.33,42.14H42.14ZM12.93,39.82,24.73,28l11.81,11.8Z"/><circle class="cls-9" cx="24.73" cy="24.74" r="4.58"/><rect class="cls-11" x="-0.33" y="25.62" width="56.25" height="4.34" transform="translate(67.1 27.79) rotate(135)"/><rect class="cls-12" x="-3.4" y="22.55" width="56.25" height="4.34" transform="translate(59.68 24.72) rotate(135)"/><rect class="cls-13" x="-6.48" y="19.48" width="56.25" height="4.34" transform="translate(52.27 21.65) rotate(135)"/></g></g></svg>