<svg xmlns="http://www.w3.org/2000/svg" viewBox="0 0 1064.23 31.99"><defs><style>.cls-1{fill:#59acbd;}.cls-2{fill:#601922;}</style></defs><g id="图层_2" data-name="图层 2"><g id="文件图层"><polygon class="cls-1" points="0 29.08 29.52 0 1031.76 0 1064.23 31.99 0 29.08"/><circle class="cls-2" cx="62.39" cy="15.99" r="13.2"/><circle class="cls-2" cx="33.13" cy="15.99" r="13.2"/><circle class="cls-2" cx="91.65" cy="15.99" r="13.2"/><circle class="cls-2" cx="120.92" cy="15.99" r="13.2"/><circle class="cls-2" cx="150.18" cy="15.99" r="13.2"/><circle class="cls-2" cx="179.44" cy="15.99" r="13.2"/><circle class="cls-2" cx="208.71" cy="15.99" r="13.2"/><circle class="cls-2" cx="237.97" cy="15.99" r="13.2"/><circle class="cls-2" cx="267.23" cy="15.99" r="13.2"/><circle class="cls-2" cx="296.5" cy="15.99" r="13.2"/><circle class="cls-2" cx="325.76" cy="15.99" r="13.2"/><circle class="cls-2" cx="355.02" cy="15.99" r="13.2"/><circle class="cls-2" cx="384.29" cy="15.99" r="13.2"/><circle class="cls-2" cx="413.55" cy="15.99" r="13.2"/><circle class="cls-2" cx="442.82" cy="15.99" r="13.2"/><circle class="cls-2" cx="472.08" cy="15.99" r="13.2"/><circle class="cls-2" cx="501.34" cy="15.99" r="13.2"/><circle class="cls-2" cx="530.61" cy="15.99" r="13.2"/><circle class="cls-2" cx="559.87" cy="15.99" r="13.2"/><circle class="cls-2" cx="589.13" cy="15.99" r="13.2"/><circle class="cls-2" cx="618.4" cy="15.99" r="13.2"/><circle class="cls-2" cx="647.66" cy="15.99" r="13.2"/><circle class="cls-2" cx="676.92" cy="15.99" r="13.2"/><circle class="cls-2" cx="413.55" cy="15.99" r="13.2"/><circle class="cls-2" cx="384.29" cy="15.99" r="13.2"/><circle class="cls-2" cx="442.82" cy="15.99" r="13.2"/><circle class="cls-2" cx="472.08" cy="15.99" r="13.2"/><circle class="cls-2" cx="501.34" cy="15.99" r="13.2"/><circle class="cls-2" cx="530.61" cy="15.99" r="13.2"/><circle class="cls-2" cx="559.87" cy="15.99" r="13.2"/><circle class="cls-2" cx="589.13" cy="15.99" r="13.2"/><circle class="cls-2" cx="618.4" cy="15.99" r="13.2"/><circle class="cls-2" cx="647.66" cy="15.99" r="13.2"/><circle class="cls-2" cx="676.92" cy="15.99" r="13.2"/><circle class="cls-2" cx="706.19" cy="15.99" r="13.2"/><circle class="cls-2" cx="735.45" cy="15.99" r="13.2"/><circle class="cls-2" cx="764.71" cy="15.99" r="13.2"/><circle class="cls-2" cx="793.98" cy="15.99" r="13.2"/><circle class="cls-2" cx="823.24" cy="15.99" r="13.2"/><circle class="cls-2" cx="852.51" cy="15.99" r="13.2"/><circle class="cls-2" cx="881.77" cy="15.99" r="13.2"/><circle class="cls-2" cx="911.03" cy="15.99" r="13.2"/><circle class="cls-2" cx="940.3" cy="15.99" r="13.2"/><circle class="cls-2" cx="969.56" cy="15.99" r="13.2"/><circle class="cls-2" cx="998.82" cy="15.99" r="13.2"/><circle class="cls-2" cx="1028.09" cy="15.99" r="13.2"/></g></g></svg>