<svg xmlns="http://www.w3.org/2000/svg" viewBox="0 0 1037.05 49.19"><defs><style>.cls-1{fill:#298e87;}.cls-2{fill:#529977;}.cls-3{fill:#9ec4d5;}.cls-4{fill:#007cae;}.cls-5{fill:#452019;}.cls-6{fill:#231815;}.cls-7{fill:#374d64;}.cls-8{fill:#f1f4e7;}</style></defs><g id="图层_2" data-name="图层 2"><g id="文件图层"><polygon class="cls-1" points="49.19 0 0 0 0 3.91 45.28 3.91 45.28 49.19 49.19 49.19 49.19 0"/><polygon class="cls-2" points="45.28 3.91 0 3.91 0 5.86 43.33 5.86 43.33 49.19 45.28 49.19 45.28 3.91"/><polygon class="cls-3" points="43.33 5.86 0 5.86 0 8.79 40.41 8.79 40.41 49.19 43.33 49.19 43.33 5.86"/><polygon class="cls-4" points="40.41 8.79 0 8.79 0 11.72 37.47 11.72 37.47 49.19 40.41 49.19 40.41 8.79"/><polygon class="cls-2" points="37.47 11.72 0 11.72 0 15.62 33.57 15.62 33.57 49.19 37.47 49.19 37.47 11.72"/><polygon class="cls-5" points="33.57 15.62 0 15.62 0 19.53 29.67 19.53 29.67 49.19 33.57 49.19 33.57 15.62"/><polygon class="cls-6" points="29.67 19.53 0 19.53 0 22.46 26.73 22.46 26.73 49.19 29.67 49.19 29.67 19.53"/><polygon class="cls-5" points="26.73 22.46 0 22.46 0 25.38 23.8 25.38 23.8 49.19 26.73 49.19 26.73 22.46"/><polygon class="cls-2" points="23.8 25.38 0 25.38 0 29.29 19.9 29.29 19.9 49.19 23.8 49.19 23.8 25.38"/><polygon class="cls-7" points="19.9 29.29 0 29.29 0 31.25 17.95 31.25 17.95 49.19 19.9 49.19 19.9 29.29"/><rect class="cls-2" y="31.25" width="17.95" height="17.94"/><rect class="cls-1" x="277.74" y="-10.5" width="49.19" height="70.19" transform="translate(277.74 326.93) rotate(-90)"/><rect class="cls-2" x="270.43" y="3.04" width="63.82" height="43.1"/><rect class="cls-3" x="272.55" y="5.07" width="59.57" height="39.05"/><rect class="cls-4" x="274.68" y="7.1" width="55.32" height="34.99"/><rect class="cls-2" x="278.93" y="11.16" width="46.82" height="26.88"/><rect class="cls-5" x="285.16" y="15.21" width="34.35" height="18.76"/><rect class="cls-6" x="287.18" y="16.96" width="30.31" height="15.27"/><rect class="cls-5" x="289.51" y="18.98" width="25.66" height="11.24"/><rect class="cls-2" x="291.78" y="20.3" width="21.11" height="8.59"/><rect class="cls-7" x="294.17" y="22.32" width="16.33" height="4.56"/><rect class="cls-2" x="349.8" y="-10.5" width="49.19" height="70.19" transform="translate(349.8 398.99) rotate(-90)"/><rect class="cls-7" x="343.55" y="4.06" width="61.69" height="41.08"/><rect class="cls-2" x="347.8" y="8.11" width="53.19" height="32.96"/><rect class="cls-8" x="352.05" y="12.17" width="44.69" height="24.85"/><rect class="cls-5" x="357.31" y="16.23" width="34.17" height="16.73"/><rect class="cls-8" x="359.44" y="18.26" width="29.92" height="12.68"/><rect class="cls-4" x="363.69" y="22.31" width="21.42" height="4.56"/><rect class="cls-1" x="421.86" y="-10.5" width="49.19" height="70.19" transform="translate(421.86 471.06) rotate(-90)"/><rect class="cls-2" x="414.55" y="3.04" width="63.82" height="43.1"/><rect class="cls-3" x="416.68" y="5.07" width="59.57" height="39.05"/><rect class="cls-4" x="418.8" y="7.1" width="55.32" height="34.99"/><rect class="cls-2" x="423.05" y="11.16" width="46.82" height="26.88"/><rect class="cls-5" x="429.28" y="15.21" width="34.35" height="18.76"/><rect class="cls-6" x="431.3" y="16.96" width="30.31" height="15.27"/><rect class="cls-5" x="433.63" y="18.98" width="25.66" height="11.24"/><rect class="cls-2" x="435.91" y="20.3" width="21.11" height="8.59"/><rect class="cls-7" x="438.29" y="22.32" width="16.33" height="4.56"/><rect class="cls-2" x="493.93" y="-10.5" width="49.19" height="70.19" transform="translate(493.92 543.12) rotate(-90)"/><rect class="cls-7" x="487.67" y="4.06" width="61.69" height="41.08"/><rect class="cls-2" x="491.92" y="8.11" width="53.19" height="32.96"/><rect class="cls-8" x="496.17" y="12.17" width="44.69" height="24.85"/><rect class="cls-5" x="501.43" y="16.23" width="34.17" height="16.73"/><rect class="cls-8" x="503.56" y="18.26" width="29.92" height="12.68"/><rect class="cls-4" x="507.81" y="22.31" width="21.42" height="4.56"/><rect class="cls-1" x="565.99" y="-10.5" width="49.19" height="70.19" transform="translate(565.98 615.18) rotate(-90)"/><rect class="cls-2" x="558.67" y="3.04" width="63.82" height="43.1"/><rect class="cls-3" x="560.8" y="5.07" width="59.57" height="39.05"/><rect class="cls-4" x="562.92" y="7.1" width="55.32" height="34.99"/><rect class="cls-2" x="567.17" y="11.16" width="46.82" height="26.88"/><rect class="cls-5" x="573.41" y="15.21" width="34.35" height="18.76"/><rect class="cls-6" x="575.43" y="16.96" width="30.31" height="15.27"/><rect class="cls-5" x="577.75" y="18.98" width="25.66" height="11.24"/><rect class="cls-2" x="580.03" y="20.3" width="21.11" height="8.59"/><rect class="cls-7" x="582.41" y="22.32" width="16.33" height="4.56"/><rect class="cls-2" x="638.05" y="-10.5" width="49.19" height="70.19" transform="translate(638.05 687.24) rotate(-90)"/><rect class="cls-7" x="631.8" y="4.06" width="61.69" height="41.08"/><rect class="cls-2" x="636.04" y="8.11" width="53.19" height="32.96"/><rect class="cls-8" x="640.29" y="12.17" width="44.69" height="24.85"/><rect class="cls-5" x="645.56" y="16.23" width="34.17" height="16.73"/><rect class="cls-8" x="647.68" y="18.26" width="29.92" height="12.68"/><rect class="cls-4" x="651.93" y="22.31" width="21.42" height="4.56"/><rect class="cls-1" x="710.11" y="-10.5" width="49.19" height="70.19" transform="translate(710.11 759.3) rotate(-90)"/><rect class="cls-2" x="702.79" y="3.04" width="63.82" height="43.1"/><rect class="cls-3" x="704.92" y="5.07" width="59.57" height="39.05"/><rect class="cls-4" x="707.04" y="7.1" width="55.32" height="34.99"/><rect class="cls-2" x="711.29" y="11.16" width="46.82" height="26.88"/><rect class="cls-5" x="717.53" y="15.21" width="34.35" height="18.76"/><rect class="cls-6" x="719.55" y="16.96" width="30.31" height="15.27"/><rect class="cls-5" x="721.87" y="18.98" width="25.66" height="11.24"/><rect class="cls-2" x="724.15" y="20.3" width="21.11" height="8.59"/><rect class="cls-7" x="726.54" y="22.32" width="16.33" height="4.56"/><rect class="cls-2" x="782.17" y="-10.5" width="49.19" height="70.19" transform="translate(782.17 831.36) rotate(-90)"/><rect class="cls-7" x="775.92" y="4.06" width="61.69" height="41.08"/><rect class="cls-2" x="780.17" y="8.11" width="53.19" height="32.96"/><rect class="cls-8" x="784.42" y="12.17" width="44.69" height="24.85"/><rect class="cls-5" x="789.68" y="16.23" width="34.17" height="16.73"/><rect class="cls-8" x="791.8" y="18.26" width="29.92" height="12.68"/><rect class="cls-4" x="796.05" y="22.31" width="21.42" height="4.56"/><rect class="cls-1" x="854.23" y="-10.5" width="49.19" height="70.19" transform="translate(854.23 903.42) rotate(-90)"/><rect class="cls-2" x="846.91" y="3.04" width="63.82" height="43.1"/><rect class="cls-3" x="849.04" y="5.07" width="59.57" height="39.05"/><rect class="cls-4" x="851.16" y="7.1" width="55.32" height="34.99"/><rect class="cls-2" x="855.41" y="11.16" width="46.82" height="26.88"/><rect class="cls-5" x="861.65" y="15.21" width="34.35" height="18.76"/><rect class="cls-6" x="863.67" y="16.96" width="30.31" height="15.27"/><rect class="cls-5" x="865.99" y="18.98" width="25.66" height="11.24"/><rect class="cls-2" x="868.27" y="20.3" width="21.11" height="8.59"/><rect class="cls-7" x="870.66" y="22.32" width="16.33" height="4.56"/><rect class="cls-2" x="926.29" y="-10.5" width="49.19" height="70.19" transform="translate(926.29 975.48) rotate(-90)"/><rect class="cls-7" x="920.04" y="4.06" width="61.69" height="41.08"/><rect class="cls-2" x="924.29" y="8.11" width="53.19" height="32.96"/><rect class="cls-8" x="928.54" y="12.17" width="44.69" height="24.85"/><rect class="cls-5" x="933.8" y="16.23" width="34.17" height="16.73"/><rect class="cls-8" x="935.92" y="18.26" width="29.92" height="12.68"/><rect class="cls-4" x="940.17" y="22.31" width="21.42" height="4.56"/><rect class="cls-1" x="133.62" y="-10.5" width="49.19" height="70.19" transform="translate(133.62 182.81) rotate(-90)"/><rect class="cls-2" x="126.31" y="3.04" width="63.82" height="43.1"/><rect class="cls-3" x="128.43" y="5.07" width="59.57" height="39.05"/><rect class="cls-4" x="130.56" y="7.1" width="55.32" height="34.99"/><rect class="cls-2" x="134.81" y="11.16" width="46.82" height="26.88"/><rect class="cls-5" x="141.04" y="15.21" width="34.35" height="18.76"/><rect class="cls-6" x="143.06" y="16.96" width="30.31" height="15.27"/><rect class="cls-5" x="145.39" y="18.98" width="25.66" height="11.24"/><rect class="cls-2" x="147.66" y="20.3" width="21.11" height="8.59"/><rect class="cls-7" x="150.05" y="22.32" width="16.33" height="4.56"/><rect class="cls-2" x="205.68" y="-10.5" width="49.19" height="70.19" transform="translate(205.68 254.87) rotate(-90)"/><rect class="cls-7" x="199.43" y="4.06" width="61.69" height="41.08"/><rect class="cls-2" x="203.68" y="8.11" width="53.19" height="32.96"/><rect class="cls-8" x="207.93" y="12.17" width="44.69" height="24.85"/><rect class="cls-5" x="213.19" y="16.23" width="34.17" height="16.73"/><rect class="cls-8" x="215.32" y="18.26" width="29.92" height="12.68"/><rect class="cls-4" x="219.57" y="22.31" width="21.42" height="4.56"/><rect class="cls-2" x="61.56" y="-10.5" width="49.19" height="70.19" transform="translate(61.56 110.75) rotate(-90)"/><rect class="cls-7" x="55.31" y="4.06" width="61.69" height="41.08"/><rect class="cls-2" x="59.56" y="8.11" width="53.19" height="32.96"/><rect class="cls-8" x="63.81" y="12.17" width="44.7" height="24.85"/><rect class="cls-5" x="69.07" y="16.23" width="34.17" height="16.73"/><rect class="cls-8" x="71.2" y="18.26" width="29.92" height="12.68"/><rect class="cls-4" x="75.44" y="22.31" width="21.42" height="4.56"/><polygon class="cls-1" points="987.85 0 987.85 49.19 991.75 49.19 991.75 3.91 1037.05 3.91 1037.05 0 987.85 0"/><polygon class="cls-2" points="991.75 3.91 991.75 49.19 993.71 49.19 993.71 5.86 1037.05 5.86 1037.05 3.91 991.75 3.91"/><polygon class="cls-3" points="993.71 5.86 993.71 49.19 996.64 49.19 996.64 8.79 1037.05 8.79 1037.05 5.86 993.71 5.86"/><polygon class="cls-4" points="996.64 8.79 996.64 49.19 999.57 49.19 999.57 11.72 1037.05 11.72 1037.05 8.79 996.64 8.79"/><polygon class="cls-2" points="999.57 11.72 999.57 49.19 1003.47 49.19 1003.47 15.62 1037.05 15.62 1037.05 11.72 999.57 11.72"/><polygon class="cls-5" points="1003.47 15.62 1003.47 49.19 1007.38 49.19 1007.38 19.53 1037.05 19.53 1037.05 15.62 1003.47 15.62"/><polygon class="cls-6" points="1007.38 19.53 1007.38 49.19 1010.31 49.19 1010.31 22.46 1037.05 22.46 1037.05 19.53 1007.38 19.53"/><polygon class="cls-5" points="1010.31 22.46 1010.31 49.19 1013.24 49.19 1013.24 25.39 1037.05 25.39 1037.05 22.46 1010.31 22.46"/><polygon class="cls-2" points="1013.24 25.39 1013.24 49.19 1017.14 49.19 1017.14 29.29 1037.05 29.29 1037.05 25.39 1013.24 25.39"/><polygon class="cls-7" points="1017.14 29.29 1017.14 49.19 1019.1 49.19 1019.1 31.24 1037.05 31.24 1037.05 29.29 1017.14 29.29"/><rect class="cls-2" x="1019.1" y="31.24" width="17.95" height="17.94"/></g></g></svg>