<svg xmlns="http://www.w3.org/2000/svg" viewBox="0 0 1092.58 66.77"><defs><style>.cls-1{fill:#580220;}.cls-2{fill:#5d9574;}.cls-3{fill:#779c9a;}.cls-4{fill:#038b62;}.cls-5{fill:#3b000b;}.cls-6{fill:#1c779d;}.cls-11,.cls-7,.cls-9{fill:none;stroke-linecap:round;stroke-linejoin:round;stroke-width:0.91px;}.cls-7{stroke:#e7d2a4;}.cls-8{fill:#e7d2a4;}.cls-9{stroke:#260008;}.cls-10{fill:#69b5c8;}.cls-11{stroke:#094826;}</style></defs><g id="图层_2" data-name="图层 2"><g id="文件图层"><path class="cls-1" d="M20.2,64.56a72.25,72.25,0,0,0-8.69-2.12A13.52,13.52,0,0,1,0,49V.49H42V49A13.52,13.52,0,0,1,30.47,62.44a71.7,71.7,0,0,0-8.69,2.12l-.79.26Z"/><path class="cls-2" d="M2.69,3.21V48.94a10.84,10.84,0,0,0,9.25,10.82A73.12,73.12,0,0,1,21,62,73.12,73.12,0,0,1,30,59.76,10.85,10.85,0,0,0,39.3,48.94V3.21Z"/><path class="cls-3" d="M21,58.14c-5.62,0-15.14-2.41-15.14-11.47v-43H36.13v43C36.13,55.73,26.61,58.14,21,58.14Z"/><path class="cls-4" d="M8.43,6.23V46.67c0,7.58,8.85,8.89,12.56,8.89s12.56-1.31,12.56-8.89V6.23Z"/><path class="cls-5" d="M21,49.77a6.14,6.14,0,0,1-5.85-3.13h-.2c-1.74,0-3.59-1.14-3.59-4.31V6.23H30.63V42.34a4.51,4.51,0,0,1-1.19,3.4,3.41,3.41,0,0,1-2.4.91h-.2A6.14,6.14,0,0,1,21,49.77Z"/><path class="cls-1" d="M12.64,7.52V42.34c0,4,3.24,2.88,3.24,2.88A4.88,4.88,0,0,0,21,48.48a4.88,4.88,0,0,0,5.11-3.26s3.24,1.1,3.24-2.88V7.52Z"/><path class="cls-6" d="M21,41.77a5,5,0,0,1-5-5v-27a5,5,0,1,1,10,0v27A5,5,0,0,1,21,41.77Z"/><line class="cls-7" x1="20.99" y1="37.45" x2="20.99" y2="6.09"/><path class="cls-1" d="M189.86,64.08A69.43,69.43,0,0,1,198.55,62,13.52,13.52,0,0,0,210.06,48.5V0h-42V48.5A13.52,13.52,0,0,0,179.59,62a70,70,0,0,1,8.68,2.13l.8.25Z"/><path class="cls-2" d="M207.37,2.72V48.45a10.84,10.84,0,0,1-9.25,10.82,73.12,73.12,0,0,0-9.05,2.21,73.12,73.12,0,0,0-9-2.21,10.85,10.85,0,0,1-9.26-10.82V2.72Z"/><path class="cls-3" d="M189.07,57.66c5.62,0,15.13-2.42,15.13-11.48v-43H173.93v43C173.93,55.24,183.45,57.66,189.07,57.66Z"/><path class="cls-4" d="M201.63,5.74V46.18c0,7.58-8.85,8.9-12.56,8.9s-12.56-1.32-12.56-8.9V5.74Z"/><path class="cls-5" d="M189.07,49.28a6.14,6.14,0,0,0,5.85-3.13h.2c1.73,0,3.59-1.14,3.59-4.31V5.74H179.43V41.85a4.51,4.51,0,0,0,1.19,3.4,3.41,3.41,0,0,0,2.4.91h.2A6.14,6.14,0,0,0,189.07,49.28Z"/><path class="cls-1" d="M197.42,7V41.85c0,4-3.24,2.88-3.24,2.88a5.63,5.63,0,0,1-10.22,0s-3.25,1.1-3.25-2.88V7Z"/><path class="cls-6" d="M189.07,41.28a5,5,0,0,0,5-5v-27a5,5,0,1,0-10,0v27A5,5,0,0,0,189.07,41.28Z"/><line class="cls-7" x1="189.07" y1="36.96" x2="189.07" y2="5.6"/><path class="cls-1" d="M357.94,64.56a71.86,71.86,0,0,1,8.68-2.12A13.53,13.53,0,0,0,378.14,49V.49h-42V49a13.53,13.53,0,0,0,11.52,13.45,71.86,71.86,0,0,1,8.68,2.12l.79.26Z"/><path class="cls-2" d="M375.45,3.21V48.94a10.84,10.84,0,0,1-9.25,10.82A73.5,73.5,0,0,0,357.14,62a73.12,73.12,0,0,0-9.05-2.21,10.84,10.84,0,0,1-9.25-10.82V3.21Z"/><path class="cls-3" d="M357.14,58.14c5.63,0,15.14-2.41,15.14-11.47v-43H342v43C342,55.73,351.52,58.14,357.14,58.14Z"/><path class="cls-4" d="M369.7,6.23V46.67c0,7.58-8.84,8.89-12.56,8.89s-12.55-1.31-12.55-8.89V6.23Z"/><path class="cls-5" d="M357.14,49.77A6.15,6.15,0,0,0,363,46.64h.2c1.73,0,3.59-1.14,3.59-4.31V6.23H347.5V42.34a4.51,4.51,0,0,0,1.19,3.4,3.41,3.41,0,0,0,2.4.91h.2A6.14,6.14,0,0,0,357.14,49.77Z"/><path class="cls-1" d="M365.5,7.52V42.34c0,4-3.24,2.88-3.24,2.88a5.64,5.64,0,0,1-10.23,0s-3.24,1.1-3.24-2.88V7.52Z"/><path class="cls-6" d="M357.14,41.77a5,5,0,0,0,5-5v-27a5,5,0,1,0-10,0v27A5,5,0,0,0,357.14,41.77Z"/><line class="cls-7" x1="357.14" y1="37.45" x2="357.14" y2="6.09"/><path class="cls-1" d="M526,65.05a72.25,72.25,0,0,1,8.69-2.12,13.52,13.52,0,0,0,11.51-13.45V1h-42v48.5a13.52,13.52,0,0,0,11.51,13.45,71.7,71.7,0,0,1,8.69,2.12l.79.25Z"/><path class="cls-2" d="M543.53,3.7V49.42a10.86,10.86,0,0,1-9.26,10.83,73.12,73.12,0,0,0-9,2.21,73.12,73.12,0,0,0-9.05-2.21,10.85,10.85,0,0,1-9.25-10.83V3.7Z"/><path class="cls-3" d="M525.22,58.63c5.62,0,15.14-2.41,15.14-11.47v-43H510.09v43C510.09,56.22,519.6,58.63,525.22,58.63Z"/><path class="cls-4" d="M537.78,6.72V47.16c0,7.58-8.85,8.89-12.56,8.89s-12.56-1.31-12.56-8.89V6.72Z"/><path class="cls-5" d="M525.22,50.25a6.13,6.13,0,0,0,5.85-3.12h.2c1.74,0,3.59-1.13,3.59-4.31V6.72H515.58v36.1a4.51,4.51,0,0,0,1.19,3.41,3.4,3.4,0,0,0,2.4.9h.2A6.13,6.13,0,0,0,525.22,50.25Z"/><path class="cls-1" d="M533.57,8V42.82c0,4-3.24,2.89-3.24,2.89a5.63,5.63,0,0,1-10.22,0s-3.24,1.09-3.24-2.89V8Z"/><path class="cls-6" d="M525.22,42.26a5,5,0,0,0,5-5v-27a5,5,0,1,0-10,0v27A5,5,0,0,0,525.22,42.26Z"/><line class="cls-7" x1="525.22" y1="37.93" x2="525.22" y2="6.57"/><path class="cls-1" d="M694.09,65.54a72.25,72.25,0,0,1,8.69-2.12A13.53,13.53,0,0,0,714.29,50V1.47h-42V50a13.53,13.53,0,0,0,11.51,13.46,71.7,71.7,0,0,1,8.69,2.12l.79.25Z"/><path class="cls-2" d="M711.6,4.19V49.91a10.86,10.86,0,0,1-9.25,10.83,72,72,0,0,0-9.05,2.2,72,72,0,0,0-9-2.2A10.87,10.87,0,0,1,675,49.91V4.19Z"/><path class="cls-3" d="M693.3,59.12c5.62,0,15.14-2.42,15.14-11.47v-43H678.16v43C678.16,56.7,687.68,59.12,693.3,59.12Z"/><path class="cls-4" d="M705.86,7.21V47.65c0,7.58-8.85,8.89-12.56,8.89s-12.56-1.31-12.56-8.89V7.21Z"/><path class="cls-5" d="M693.3,50.74a6.13,6.13,0,0,0,5.85-3.12h.2c1.74,0,3.59-1.13,3.59-4.31V7.21H683.66v36.1a4.53,4.53,0,0,0,1.19,3.41,3.4,3.4,0,0,0,2.4.9h.2A6.13,6.13,0,0,0,693.3,50.74Z"/><path class="cls-1" d="M701.65,8.49V43.31c0,4-3.24,2.88-3.24,2.88a5.63,5.63,0,0,1-10.22,0S685,47.29,685,43.31V8.49Z"/><path class="cls-6" d="M693.3,42.74a5,5,0,0,0,5-5v-27a5,5,0,0,0-10,0v27A5,5,0,0,0,693.3,42.74Z"/><line class="cls-7" x1="693.3" y1="38.42" x2="693.3" y2="7.06"/><path class="cls-1" d="M862.17,66a72.41,72.41,0,0,1,8.68-2.12,13.54,13.54,0,0,0,11.52-13.46V2h-42v48.5A13.54,13.54,0,0,0,851.9,63.91,71.31,71.31,0,0,1,860.58,66l.8.25Z"/><path class="cls-2" d="M879.68,4.68V50.4a10.86,10.86,0,0,1-9.25,10.83,72,72,0,0,0-9,2.2,72.35,72.35,0,0,0-9.06-2.2,10.86,10.86,0,0,1-9.25-10.83V4.68Z"/><path class="cls-3" d="M861.38,59.61c5.62,0,15.13-2.42,15.13-11.47v-43H846.24v43C846.24,57.19,855.75,59.61,861.38,59.61Z"/><path class="cls-4" d="M873.93,7.69V48.14c0,7.58-8.84,8.89-12.55,8.89s-12.56-1.31-12.56-8.89V7.69Z"/><path class="cls-5" d="M861.38,51.23a6.13,6.13,0,0,0,5.85-3.12h.2c1.73,0,3.59-1.13,3.59-4.31V7.69H851.73V43.8a4.5,4.5,0,0,0,1.2,3.41,3.4,3.4,0,0,0,2.4.9h.19A6.14,6.14,0,0,0,861.38,51.23Z"/><path class="cls-1" d="M869.73,9V43.8c0,4-3.24,2.88-3.24,2.88a5.64,5.64,0,0,1-10.23,0S853,47.78,853,43.8V9Z"/><path class="cls-6" d="M861.38,43.23a5,5,0,0,0,5-5v-27a5,5,0,0,0-10,0v27A5,5,0,0,0,861.38,43.23Z"/><line class="cls-7" x1="861.38" y1="38.91" x2="861.38" y2="7.55"/><path class="cls-1" d="M902.61,66.52a69.32,69.32,0,0,0-8.68-2.12,13.54,13.54,0,0,1-11.51-13.46V2.44h42v48.5A13.54,13.54,0,0,1,912.88,64.4a69.84,69.84,0,0,0-8.68,2.12l-.79.25Z"/><path class="cls-8" d="M885.1,5.17V50.89a10.87,10.87,0,0,0,9.25,10.83,72.35,72.35,0,0,1,9.06,2.2,72,72,0,0,1,9.05-2.2,10.86,10.86,0,0,0,9.25-10.83V5.17Z"/><path class="cls-5" d="M903.41,60.1c-5.63,0-15.14-2.42-15.14-11.48V5.6h30.27v43C918.54,57.68,909,60.1,903.41,60.1Z"/><path class="cls-1" d="M890.85,8.18V48.62c0,7.59,8.84,8.9,12.56,8.9S916,56.21,916,48.62V8.18Z"/><path class="cls-3" d="M903.41,51.72a6.14,6.14,0,0,1-5.85-3.12h-.2c-1.74,0-3.6-1.13-3.6-4.31V8.18h19.29V44.29a4.53,4.53,0,0,1-1.19,3.41,3.4,3.4,0,0,1-2.4.9h-.2A6.14,6.14,0,0,1,903.41,51.72Z"/><path class="cls-6" d="M895.05,9.47V44.29c0,4,3.25,2.88,3.25,2.88a5.63,5.63,0,0,0,10.22,0s3.24,1.1,3.24-2.88V9.47Z"/><path class="cls-1" d="M903.41,43.72a5,5,0,0,1-5-5v-27a5,5,0,0,1,10,0v27A5,5,0,0,1,903.41,43.72Z"/><line class="cls-9" x1="903.41" y1="39.4" x2="903.41" y2="8.04"/><path class="cls-1" d="M946.28,66.52A70.21,70.21,0,0,1,955,64.4a13.54,13.54,0,0,0,11.51-13.46V2.44h-42v48.5A13.54,13.54,0,0,0,936,64.4a69.69,69.69,0,0,1,8.69,2.12l.79.25Z"/><path class="cls-3" d="M963.79,5.17V50.89a10.86,10.86,0,0,1-9.25,10.83,72,72,0,0,0-9,2.2,72,72,0,0,0-9-2.2,10.87,10.87,0,0,1-9.26-10.83V5.17Z"/><path class="cls-10" d="M945.49,60.1c5.62,0,15.14-2.42,15.14-11.48V5.6H930.35v43C930.35,57.68,939.87,60.1,945.49,60.1Z"/><path class="cls-6" d="M958.05,8.18V48.62c0,7.59-8.85,8.9-12.56,8.9s-12.56-1.31-12.56-8.9V8.18Z"/><path class="cls-8" d="M945.49,51.72a6.14,6.14,0,0,0,5.85-3.12h.2c1.74,0,3.59-1.13,3.59-4.31V8.18H935.85V44.29A4.53,4.53,0,0,0,937,47.7a3.4,3.4,0,0,0,2.4.9h.2A6.14,6.14,0,0,0,945.49,51.72Z"/><path class="cls-1" d="M953.84,9.47V44.29c0,4-3.24,2.88-3.24,2.88a5.63,5.63,0,0,1-10.22,0s-3.24,1.1-3.24-2.88V9.47Z"/><path class="cls-2" d="M945.49,43.72a5,5,0,0,0,5-5v-27a5,5,0,0,0-10,0v27A5,5,0,0,0,945.49,43.72Z"/><line class="cls-11" x1="945.49" y1="39.4" x2="945.49" y2="8.04"/><path class="cls-1" d="M818.6,66a72.41,72.41,0,0,0-8.68-2.12A13.53,13.53,0,0,1,798.4,50.45V2h42v48.5a13.53,13.53,0,0,1-11.51,13.46A71.31,71.31,0,0,0,820.19,66l-.8.25Z"/><path class="cls-8" d="M801.09,4.68V50.4a10.86,10.86,0,0,0,9.25,10.83,72,72,0,0,1,9,2.2,72.35,72.35,0,0,1,9.06-2.2A10.86,10.86,0,0,0,837.7,50.4V4.68Z"/><path class="cls-5" d="M819.39,59.61c-5.62,0-15.13-2.42-15.13-11.47v-43h30.27v43C834.53,57.19,825,59.61,819.39,59.61Z"/><path class="cls-1" d="M806.84,7.69V48.14c0,7.58,8.84,8.89,12.55,8.89S832,55.72,832,48.14V7.69Z"/><path class="cls-2" d="M819.39,51.23a6.13,6.13,0,0,1-5.85-3.12h-.2c-1.73,0-3.59-1.13-3.59-4.31V7.69H829V43.8a4.5,4.5,0,0,1-1.2,3.41,3.4,3.4,0,0,1-2.4.9h-.19A6.15,6.15,0,0,1,819.39,51.23Z"/><path class="cls-4" d="M811,9V43.8c0,4,3.24,2.88,3.24,2.88a5.64,5.64,0,0,0,10.23,0s3.24,1.1,3.24-2.88V9Z"/><path class="cls-5" d="M819.39,43.23a5,5,0,0,1-5-5v-27a5,5,0,0,1,10,0v27A5,5,0,0,1,819.39,43.23Z"/><line class="cls-7" x1="819.39" y1="38.91" x2="819.39" y2="7.55"/><path class="cls-1" d="M1030.35,66a71.31,71.31,0,0,1,8.68-2.12,13.53,13.53,0,0,0,11.51-13.46V2h-42v48.5a13.53,13.53,0,0,0,11.52,13.46,71.86,71.86,0,0,1,8.68,2.12l.79.25Z"/><path class="cls-2" d="M1047.86,4.68V50.4a10.86,10.86,0,0,1-9.25,10.83,72.35,72.35,0,0,0-9.06,2.2,72,72,0,0,0-9-2.2,10.86,10.86,0,0,1-9.25-10.83V4.68Z"/><path class="cls-3" d="M1029.55,59.61c5.63,0,15.14-2.42,15.14-11.47v-43h-30.27v43C1014.42,57.19,1023.93,59.61,1029.55,59.61Z"/><path class="cls-4" d="M1042.11,7.69V48.14c0,7.58-8.84,8.89-12.56,8.89S1017,55.72,1017,48.14V7.69Z"/><path class="cls-5" d="M1029.55,51.23a6.15,6.15,0,0,0,5.86-3.12h.19c1.74,0,3.6-1.13,3.6-4.31V7.69h-19.29V43.8a4.53,4.53,0,0,0,1.19,3.41,3.4,3.4,0,0,0,2.4.9h.2A6.13,6.13,0,0,0,1029.55,51.23Z"/><path class="cls-1" d="M1037.91,9V43.8c0,4-3.24,2.88-3.24,2.88a5.64,5.64,0,0,1-10.23,0s-3.24,1.1-3.24-2.88V9Z"/><path class="cls-6" d="M1029.55,43.23a5,5,0,0,0,5-5v-27a5,5,0,0,0-10,0v27A5,5,0,0,0,1029.55,43.23Z"/><line class="cls-7" x1="1029.55" y1="38.91" x2="1029.55" y2="7.55"/><path class="cls-1" d="M1070.79,66.52a70.36,70.36,0,0,0-8.68-2.12,13.54,13.54,0,0,1-11.52-13.46V2.44h42v48.5a13.54,13.54,0,0,1-11.52,13.46,69.84,69.84,0,0,0-8.68,2.12l-.79.25Z"/><path class="cls-8" d="M1053.28,5.17V50.89a10.86,10.86,0,0,0,9.25,10.83,72.35,72.35,0,0,1,9.06,2.2,72,72,0,0,1,9.05-2.2,10.86,10.86,0,0,0,9.25-10.83V5.17Z"/><path class="cls-5" d="M1071.59,60.1c-5.63,0-15.14-2.42-15.14-11.48V5.6h30.27v43C1086.72,57.68,1077.21,60.1,1071.59,60.1Z"/><path class="cls-1" d="M1059,8.18V48.62c0,7.59,8.84,8.9,12.56,8.9s12.55-1.31,12.55-8.9V8.18Z"/><path class="cls-3" d="M1071.59,51.72a6.16,6.16,0,0,1-5.86-3.12h-.2c-1.73,0-3.59-1.13-3.59-4.31V8.18h19.29V44.29A4.53,4.53,0,0,1,1080,47.7a3.43,3.43,0,0,1-2.4.9h-.2A6.15,6.15,0,0,1,1071.59,51.72Z"/><path class="cls-6" d="M1063.23,9.47V44.29c0,4,3.24,2.88,3.24,2.88a5.64,5.64,0,0,0,10.23,0s3.24,1.1,3.24-2.88V9.47Z"/><path class="cls-1" d="M1071.58,43.72a5,5,0,0,1-5-5v-27a5,5,0,0,1,10,0v27A5,5,0,0,1,1071.58,43.72Z"/><line class="cls-9" x1="1071.58" y1="39.4" x2="1071.58" y2="8.04"/><path class="cls-1" d="M986.78,66a72.25,72.25,0,0,0-8.69-2.12,13.53,13.53,0,0,1-11.51-13.46V2h42v48.5a13.53,13.53,0,0,1-11.51,13.46A71.7,71.7,0,0,0,988.36,66l-.79.25Z"/><path class="cls-8" d="M969.27,4.68V50.4a10.86,10.86,0,0,0,9.25,10.83,72,72,0,0,1,9.05,2.2,72,72,0,0,1,9-2.2,10.87,10.87,0,0,0,9.26-10.83V4.68Z"/><path class="cls-5" d="M987.57,59.61c-5.62,0-15.13-2.42-15.13-11.47v-43h30.27v43C1002.71,57.19,993.19,59.61,987.57,59.61Z"/><path class="cls-1" d="M975,7.69V48.14c0,7.58,8.85,8.89,12.56,8.89s12.56-1.31,12.56-8.89V7.69Z"/><path class="cls-2" d="M987.57,51.23a6.13,6.13,0,0,1-5.85-3.12h-.2c-1.73,0-3.59-1.13-3.59-4.31V7.69h19.28V43.8A4.53,4.53,0,0,1,996,47.21a3.4,3.4,0,0,1-2.4.9h-.2A6.13,6.13,0,0,1,987.57,51.23Z"/><path class="cls-4" d="M979.22,9V43.8c0,4,3.24,2.88,3.24,2.88a5.63,5.63,0,0,0,10.22,0s3.24,1.1,3.24-2.88V9Z"/><path class="cls-5" d="M987.57,43.23a5,5,0,0,1-5-5v-27a5,5,0,0,1,10,0v27A5,5,0,0,1,987.57,43.23Z"/><line class="cls-7" x1="987.57" y1="38.91" x2="987.57" y2="7.55"/><path class="cls-1" d="M734.54,66a72.25,72.25,0,0,0-8.69-2.12,13.53,13.53,0,0,1-11.51-13.46V2h42v48.5a13.53,13.53,0,0,1-11.51,13.46A71.7,71.7,0,0,0,736.12,66l-.79.25Z"/><path class="cls-8" d="M717,4.68V50.4a10.87,10.87,0,0,0,9.26,10.83,72,72,0,0,1,9.05,2.2,72,72,0,0,1,9-2.2,10.87,10.87,0,0,0,9.26-10.83V4.68Z"/><path class="cls-5" d="M735.33,59.61c-5.62,0-15.14-2.42-15.14-11.47v-43h30.28v43C750.47,57.19,741,59.61,735.33,59.61Z"/><path class="cls-1" d="M722.77,7.69V48.14c0,7.58,8.85,8.89,12.56,8.89s12.56-1.31,12.56-8.89V7.69Z"/><path class="cls-3" d="M735.33,51.23a6.13,6.13,0,0,1-5.85-3.12h-.2c-1.74,0-3.59-1.13-3.59-4.31V7.69H745V43.8a4.53,4.53,0,0,1-1.19,3.41,3.4,3.4,0,0,1-2.4.9h-.2A6.13,6.13,0,0,1,735.33,51.23Z"/><path class="cls-6" d="M727,9V43.8c0,4,3.24,2.88,3.24,2.88a5.63,5.63,0,0,0,10.22,0s3.24,1.1,3.24-2.88V9Z"/><path class="cls-1" d="M735.33,43.23a5,5,0,0,1-5-5v-27a5,5,0,0,1,10,0v27A5,5,0,0,1,735.33,43.23Z"/><line class="cls-9" x1="735.33" y1="38.91" x2="735.33" y2="7.55"/><path class="cls-1" d="M778.2,66a72.25,72.25,0,0,1,8.69-2.12A13.53,13.53,0,0,0,798.4,50.45V2h-42v48.5a13.53,13.53,0,0,0,11.51,13.46A71.7,71.7,0,0,1,776.62,66l.79.25Z"/><path class="cls-3" d="M795.72,4.68V50.4a10.87,10.87,0,0,1-9.26,10.83,72,72,0,0,0-9.05,2.2,72,72,0,0,0-9-2.2,10.86,10.86,0,0,1-9.25-10.83V4.68Z"/><path class="cls-10" d="M777.41,59.61c5.62,0,15.14-2.42,15.14-11.47v-43H762.28v43C762.28,57.19,771.79,59.61,777.41,59.61Z"/><path class="cls-6" d="M790,7.69V48.14c0,7.58-8.85,8.89-12.56,8.89s-12.56-1.31-12.56-8.89V7.69Z"/><path class="cls-8" d="M777.41,51.23a6.13,6.13,0,0,0,5.85-3.12h.2c1.74,0,3.59-1.13,3.59-4.31V7.69H767.77V43.8A4.53,4.53,0,0,0,769,47.21a3.4,3.4,0,0,0,2.4.9h.2A6.13,6.13,0,0,0,777.41,51.23Z"/><path class="cls-1" d="M785.76,9V43.8c0,4-3.24,2.88-3.24,2.88a5.63,5.63,0,0,1-10.22,0s-3.24,1.1-3.24-2.88V9Z"/><path class="cls-2" d="M777.41,43.23a5,5,0,0,0,5-5v-27a5,5,0,0,0-10,0v27A5,5,0,0,0,777.41,43.23Z"/><line class="cls-11" x1="777.41" y1="38.91" x2="777.41" y2="7.55"/><path class="cls-1" d="M650.52,65.54a71.31,71.31,0,0,0-8.68-2.12A13.53,13.53,0,0,1,630.33,50V1.47h42V50a13.53,13.53,0,0,1-11.52,13.46,71.86,71.86,0,0,0-8.68,2.12l-.79.25Z"/><path class="cls-8" d="M633,4.19V49.91a10.86,10.86,0,0,0,9.25,10.83,72.35,72.35,0,0,1,9.06,2.2,72,72,0,0,1,9-2.2,10.86,10.86,0,0,0,9.25-10.83V4.19Z"/><path class="cls-5" d="M651.32,59.12c-5.63,0-15.14-2.42-15.14-11.47v-43h30.27v43C666.45,56.7,656.94,59.12,651.32,59.12Z"/><path class="cls-1" d="M638.76,7.21V47.65c0,7.58,8.84,8.89,12.56,8.89s12.55-1.31,12.55-8.89V7.21Z"/><path class="cls-2" d="M651.32,50.74a6.13,6.13,0,0,1-5.85-3.12h-.2c-1.74,0-3.6-1.13-3.6-4.31V7.21H661v36.1a4.53,4.53,0,0,1-1.19,3.41,3.4,3.4,0,0,1-2.4.9h-.2A6.13,6.13,0,0,1,651.32,50.74Z"/><path class="cls-4" d="M643,8.49V43.31c0,4,3.25,2.88,3.25,2.88a5.63,5.63,0,0,0,10.22,0s3.24,1.1,3.24-2.88V8.49Z"/><path class="cls-5" d="M651.32,42.74a5,5,0,0,1-5-5v-27a5,5,0,0,1,10,0v27A5,5,0,0,1,651.32,42.74Z"/><line class="cls-7" x1="651.32" y1="38.42" x2="651.32" y2="7.06"/><path class="cls-1" d="M566.46,65.54a72.25,72.25,0,0,0-8.69-2.12A13.53,13.53,0,0,1,546.26,50V1.47h42V50a13.53,13.53,0,0,1-11.51,13.46,70.77,70.77,0,0,0-8.68,2.12l-.8.25Z"/><path class="cls-8" d="M549,4.19V49.91a10.86,10.86,0,0,0,9.25,10.83,72,72,0,0,1,9,2.2,72,72,0,0,1,9-2.2,10.87,10.87,0,0,0,9.26-10.83V4.19Z"/><path class="cls-5" d="M567.25,59.12c-5.62,0-15.13-2.42-15.13-11.47v-43h30.27v43C582.39,56.7,572.87,59.12,567.25,59.12Z"/><path class="cls-1" d="M554.69,7.21V47.65c0,7.58,8.85,8.89,12.56,8.89s12.56-1.31,12.56-8.89V7.21Z"/><path class="cls-3" d="M567.25,50.74a6.13,6.13,0,0,1-5.85-3.12h-.2c-1.73,0-3.59-1.13-3.59-4.31V7.21h19.28v36.1a4.53,4.53,0,0,1-1.19,3.41,3.4,3.4,0,0,1-2.4.9h-.2A6.13,6.13,0,0,1,567.25,50.74Z"/><path class="cls-6" d="M558.9,8.49V43.31c0,4,3.24,2.88,3.24,2.88a5.63,5.63,0,0,0,10.22,0s3.25,1.1,3.25-2.88V8.49Z"/><path class="cls-1" d="M567.25,42.74a5,5,0,0,1-5-5v-27a5,5,0,0,1,10,0v27A5,5,0,0,1,567.25,42.74Z"/><line class="cls-9" x1="567.25" y1="38.42" x2="567.25" y2="7.06"/><path class="cls-1" d="M610.13,65.54a72.41,72.41,0,0,1,8.68-2.12A13.54,13.54,0,0,0,630.33,50V1.47h-42V50a13.54,13.54,0,0,0,11.52,13.46,71.86,71.86,0,0,1,8.68,2.12l.79.25Z"/><path class="cls-3" d="M627.64,4.19V49.91a10.86,10.86,0,0,1-9.25,10.83,72.35,72.35,0,0,0-9.06,2.2,72,72,0,0,0-9.05-2.2A10.86,10.86,0,0,1,591,49.91V4.19Z"/><path class="cls-10" d="M609.33,59.12c5.63,0,15.14-2.42,15.14-11.47v-43H594.2v43C594.2,56.7,603.71,59.12,609.33,59.12Z"/><path class="cls-6" d="M621.89,7.21V47.65c0,7.58-8.84,8.89-12.56,8.89s-12.55-1.31-12.55-8.89V7.21Z"/><path class="cls-8" d="M609.33,50.74a6.14,6.14,0,0,0,5.86-3.12h.2c1.73,0,3.59-1.13,3.59-4.31V7.21H599.69v36.1a4.53,4.53,0,0,0,1.19,3.41,3.43,3.43,0,0,0,2.4.9h.2A6.13,6.13,0,0,0,609.33,50.74Z"/><path class="cls-1" d="M617.69,8.49V43.31c0,4-3.24,2.88-3.24,2.88a5.64,5.64,0,0,1-10.23,0S601,47.29,601,43.31V8.49Z"/><path class="cls-2" d="M609.34,42.74a5,5,0,0,0,5-5v-27a5,5,0,0,0-10,0v27A5,5,0,0,0,609.34,42.74Z"/><line class="cls-11" x1="609.34" y1="38.42" x2="609.34" y2="7.06"/><path class="cls-1" d="M482.45,65.05a72.25,72.25,0,0,0-8.69-2.12,13.52,13.52,0,0,1-11.51-13.45V1h42v48.5a13.52,13.52,0,0,1-11.51,13.45A71.7,71.7,0,0,0,484,65.05l-.79.25Z"/><path class="cls-8" d="M464.93,3.7V49.42a10.86,10.86,0,0,0,9.26,10.83,73.12,73.12,0,0,1,9.05,2.21,73.12,73.12,0,0,1,9.05-2.21,10.86,10.86,0,0,0,9.26-10.83V3.7Z"/><path class="cls-5" d="M483.24,58.63c-5.62,0-15.14-2.41-15.14-11.47v-43h30.28v43C498.38,56.22,488.86,58.63,483.24,58.63Z"/><path class="cls-1" d="M470.68,6.72V47.16c0,7.58,8.85,8.89,12.56,8.89s12.56-1.31,12.56-8.89V6.72Z"/><path class="cls-2" d="M483.24,50.25a6.13,6.13,0,0,1-5.85-3.12h-.2c-1.74,0-3.59-1.13-3.59-4.31V6.72h19.28v36.1a4.51,4.51,0,0,1-1.19,3.41,3.4,3.4,0,0,1-2.4.9h-.2A6.13,6.13,0,0,1,483.24,50.25Z"/><path class="cls-4" d="M474.89,8V42.82c0,4,3.24,2.89,3.24,2.89a5.63,5.63,0,0,0,10.22,0s3.24,1.09,3.24-2.89V8Z"/><path class="cls-5" d="M483.24,42.26a5,5,0,0,1-5-5v-27a5,5,0,1,1,10,0v27A5,5,0,0,1,483.24,42.26Z"/><line class="cls-7" x1="483.24" y1="37.93" x2="483.24" y2="6.57"/><path class="cls-1" d="M398.38,65.05a71.86,71.86,0,0,0-8.68-2.12,13.53,13.53,0,0,1-11.52-13.45V1h42v48.5a13.53,13.53,0,0,1-11.52,13.45A71.86,71.86,0,0,0,400,65.05l-.79.25Z"/><path class="cls-8" d="M380.87,3.7V49.42a10.85,10.85,0,0,0,9.25,10.83,73.5,73.5,0,0,1,9.06,2.21,73.12,73.12,0,0,1,9.05-2.21,10.85,10.85,0,0,0,9.25-10.83V3.7Z"/><path class="cls-5" d="M399.18,58.63c-5.63,0-15.14-2.41-15.14-11.47v-43h30.27v43C414.31,56.22,404.8,58.63,399.18,58.63Z"/><path class="cls-1" d="M386.62,6.72V47.16c0,7.58,8.84,8.89,12.56,8.89s12.55-1.31,12.55-8.89V6.72Z"/><path class="cls-3" d="M399.18,50.25a6.14,6.14,0,0,1-5.86-3.12h-.2c-1.73,0-3.59-1.13-3.59-4.31V6.72h19.29v36.1a4.51,4.51,0,0,1-1.19,3.41,3.4,3.4,0,0,1-2.4.9H405A6.13,6.13,0,0,1,399.18,50.25Z"/><path class="cls-6" d="M390.82,8V42.82c0,4,3.24,2.89,3.24,2.89a5.64,5.64,0,0,0,10.23,0s3.24,1.09,3.24-2.89V8Z"/><path class="cls-1" d="M399.18,42.26a5,5,0,0,1-5-5v-27a5,5,0,1,1,10,0v27A5,5,0,0,1,399.18,42.26Z"/><line class="cls-9" x1="399.18" y1="37.93" x2="399.18" y2="6.57"/><path class="cls-1" d="M442.05,65.05a72.25,72.25,0,0,1,8.69-2.12,13.52,13.52,0,0,0,11.51-13.45V1h-42v48.5a13.52,13.52,0,0,0,11.51,13.45,70.77,70.77,0,0,1,8.68,2.12l.8.25Z"/><path class="cls-3" d="M459.56,3.7V49.42a10.85,10.85,0,0,1-9.25,10.83,73.12,73.12,0,0,0-9.05,2.21,73.12,73.12,0,0,0-9.05-2.21A10.86,10.86,0,0,1,423,49.42V3.7Z"/><path class="cls-10" d="M441.26,58.63c5.62,0,15.13-2.41,15.13-11.47v-43H426.12v43C426.12,56.22,435.64,58.63,441.26,58.63Z"/><path class="cls-6" d="M453.82,6.72V47.16c0,7.58-8.85,8.89-12.56,8.89s-12.56-1.31-12.56-8.89V6.72Z"/><path class="cls-8" d="M441.26,50.25a6.13,6.13,0,0,0,5.85-3.12h.2c1.73,0,3.59-1.13,3.59-4.31V6.72H431.62v36.1a4.51,4.51,0,0,0,1.19,3.41,3.4,3.4,0,0,0,2.4.9h.2A6.13,6.13,0,0,0,441.26,50.25Z"/><path class="cls-1" d="M449.61,8V42.82c0,4-3.24,2.89-3.24,2.89a5.63,5.63,0,0,1-10.22,0s-3.25,1.09-3.25-2.89V8Z"/><path class="cls-2" d="M441.26,42.26a5,5,0,0,0,5-5v-27a5,5,0,1,0-10,0v27A5,5,0,0,0,441.26,42.26Z"/><line class="cls-11" x1="441.26" y1="37.93" x2="441.26" y2="6.57"/><path class="cls-1" d="M314.37,64.56a72.25,72.25,0,0,0-8.69-2.12A13.52,13.52,0,0,1,294.17,49V.49h42V49a13.52,13.52,0,0,1-11.51,13.45A70.77,70.77,0,0,0,316,64.56l-.8.26Z"/><path class="cls-8" d="M296.86,3.21V48.94a10.84,10.84,0,0,0,9.25,10.82A73.12,73.12,0,0,1,315.16,62a73.12,73.12,0,0,1,9-2.21,10.85,10.85,0,0,0,9.26-10.82V3.21Z"/><path class="cls-5" d="M315.16,58.14c-5.62,0-15.13-2.41-15.13-11.47v-43H330.3v43C330.3,55.73,320.78,58.14,315.16,58.14Z"/><path class="cls-1" d="M302.6,6.23V46.67c0,7.58,8.85,8.89,12.56,8.89s12.56-1.31,12.56-8.89V6.23Z"/><path class="cls-2" d="M315.16,49.77a6.14,6.14,0,0,1-5.85-3.13h-.2c-1.73,0-3.59-1.14-3.59-4.31V6.23H324.8V42.34a4.51,4.51,0,0,1-1.19,3.4,3.41,3.41,0,0,1-2.4.91H321A6.14,6.14,0,0,1,315.16,49.77Z"/><path class="cls-4" d="M306.81,7.52V42.34c0,4,3.24,2.88,3.24,2.88a5.63,5.63,0,0,0,10.22,0s3.25,1.1,3.25-2.88V7.52Z"/><path class="cls-5" d="M315.16,41.77a5,5,0,0,1-5-5v-27a5,5,0,1,1,10,0v27A5,5,0,0,1,315.16,41.77Z"/><line class="cls-7" x1="315.16" y1="37.45" x2="315.16" y2="6.09"/><path class="cls-1" d="M230.31,64.56a72.25,72.25,0,0,0-8.69-2.12A13.52,13.52,0,0,1,210.11,49V.49h42V49a13.52,13.52,0,0,1-11.51,13.45,71.7,71.7,0,0,0-8.69,2.12l-.79.26Z"/><path class="cls-8" d="M212.79,3.21V48.94a10.85,10.85,0,0,0,9.26,10.82,73.12,73.12,0,0,1,9,2.21,73.12,73.12,0,0,1,9.05-2.21,10.84,10.84,0,0,0,9.25-10.82V3.21Z"/><path class="cls-5" d="M231.1,58.14c-5.62,0-15.14-2.41-15.14-11.47v-43h30.27v43C246.23,55.73,236.72,58.14,231.1,58.14Z"/><path class="cls-1" d="M218.54,6.23V46.67c0,7.58,8.85,8.89,12.56,8.89s12.56-1.31,12.56-8.89V6.23Z"/><path class="cls-3" d="M231.1,49.77a6.14,6.14,0,0,1-5.85-3.13h-.2c-1.74,0-3.59-1.14-3.59-4.31V6.23h19.28V42.34a4.51,4.51,0,0,1-1.19,3.4,3.41,3.41,0,0,1-2.4.91H237A6.14,6.14,0,0,1,231.1,49.77Z"/><path class="cls-6" d="M222.75,7.52V42.34c0,4,3.24,2.88,3.24,2.88a5.63,5.63,0,0,0,10.22,0s3.24,1.1,3.24-2.88V7.52Z"/><path class="cls-1" d="M231.1,41.77a5,5,0,0,1-5-5v-27a5,5,0,1,1,10,0v27A5,5,0,0,1,231.1,41.77Z"/><line class="cls-9" x1="231.1" y1="37.45" x2="231.1" y2="6.09"/><path class="cls-1" d="M274,64.56a72.25,72.25,0,0,1,8.69-2.12A13.52,13.52,0,0,0,294.17,49V.49h-42V49A13.52,13.52,0,0,0,263.7,62.44a71.7,71.7,0,0,1,8.69,2.12l.79.26Z"/><path class="cls-3" d="M291.49,3.21V48.94a10.85,10.85,0,0,1-9.26,10.82A73.12,73.12,0,0,0,273.18,62a73.12,73.12,0,0,0-9.05-2.21,10.85,10.85,0,0,1-9.26-10.82V3.21Z"/><path class="cls-10" d="M273.18,58.14c5.62,0,15.14-2.41,15.14-11.47v-43H258v43C258,55.73,267.56,58.14,273.18,58.14Z"/><path class="cls-6" d="M285.74,6.23V46.67c0,7.58-8.85,8.89-12.56,8.89s-12.56-1.31-12.56-8.89V6.23Z"/><path class="cls-8" d="M273.18,49.77A6.14,6.14,0,0,0,279,46.64h.2c1.74,0,3.59-1.14,3.59-4.31V6.23H263.54V42.34a4.51,4.51,0,0,0,1.19,3.4,3.41,3.41,0,0,0,2.4.91h.2A6.14,6.14,0,0,0,273.18,49.77Z"/><path class="cls-1" d="M281.53,7.52V42.34c0,4-3.24,2.88-3.24,2.88a5.63,5.63,0,0,1-10.22,0s-3.24,1.1-3.24-2.88V7.52Z"/><path class="cls-2" d="M273.18,41.77a5,5,0,0,0,5-5v-27a5,5,0,1,0-10,0v27A5,5,0,0,0,273.18,41.77Z"/><line class="cls-11" x1="273.18" y1="37.45" x2="273.18" y2="6.09"/><path class="cls-1" d="M146.24,64.56a71.31,71.31,0,0,0-8.68-2.12A13.52,13.52,0,0,1,126.05,49V.49h42V49a13.52,13.52,0,0,1-11.52,13.45,71.86,71.86,0,0,0-8.68,2.12l-.79.26Z"/><path class="cls-8" d="M128.73,3.21V48.94A10.85,10.85,0,0,0,138,59.76,73.5,73.5,0,0,1,147,62a73.12,73.12,0,0,1,9.05-2.21,10.84,10.84,0,0,0,9.25-10.82V3.21Z"/><path class="cls-5" d="M147,58.14c-5.63,0-15.14-2.41-15.14-11.47v-43h30.27v43C162.17,55.73,152.66,58.14,147,58.14Z"/><path class="cls-1" d="M134.48,6.23V46.67c0,7.58,8.84,8.89,12.56,8.89s12.55-1.31,12.55-8.89V6.23Z"/><path class="cls-2" d="M147,49.77a6.14,6.14,0,0,1-5.85-3.13H141c-1.74,0-3.6-1.14-3.6-4.31V6.23h19.29V42.34a4.51,4.51,0,0,1-1.19,3.4,3.41,3.41,0,0,1-2.4.91h-.2A6.14,6.14,0,0,1,147,49.77Z"/><path class="cls-4" d="M138.68,7.52V42.34c0,4,3.25,2.88,3.25,2.88a5.63,5.63,0,0,0,10.22,0s3.24,1.1,3.24-2.88V7.52Z"/><path class="cls-5" d="M147,41.77a5,5,0,0,1-5-5v-27a5,5,0,1,1,10,0v27A5,5,0,0,1,147,41.77Z"/><line class="cls-7" x1="147.04" y1="37.45" x2="147.04" y2="6.09"/><path class="cls-1" d="M62.18,64.56a72.25,72.25,0,0,0-8.69-2.12A13.52,13.52,0,0,1,42,49V.49H84V49A13.52,13.52,0,0,1,72.45,62.44a70.77,70.77,0,0,0-8.68,2.12l-.8.26Z"/><path class="cls-8" d="M44.67,3.21V48.94a10.84,10.84,0,0,0,9.25,10.82A73.12,73.12,0,0,1,63,62a73.65,73.65,0,0,1,9-2.21,10.85,10.85,0,0,0,9.26-10.82V3.21Z"/><path class="cls-5" d="M63,58.14c-5.62,0-15.13-2.41-15.13-11.47v-43H78.11v43C78.11,55.73,68.59,58.14,63,58.14Z"/><path class="cls-1" d="M50.42,6.23V46.67c0,7.58,8.84,8.89,12.55,8.89s12.56-1.31,12.56-8.89V6.23Z"/><path class="cls-3" d="M63,49.77a6.14,6.14,0,0,1-5.85-3.13h-.2c-1.73,0-3.59-1.14-3.59-4.31V6.23H72.61V42.34a4.51,4.51,0,0,1-1.19,3.4,3.41,3.41,0,0,1-2.4.91h-.2A6.14,6.14,0,0,1,63,49.77Z"/><path class="cls-6" d="M54.62,7.52V42.34c0,4,3.24,2.88,3.24,2.88A4.89,4.89,0,0,0,63,48.48a4.88,4.88,0,0,0,5.11-3.26s3.25,1.1,3.25-2.88V7.52Z"/><path class="cls-1" d="M63,41.77a5,5,0,0,1-5-5v-27a5,5,0,1,1,10,0v27A5,5,0,0,1,63,41.77Z"/><line class="cls-9" x1="62.97" y1="37.45" x2="62.97" y2="6.09"/><path class="cls-1" d="M105.85,64.56a72.41,72.41,0,0,1,8.68-2.12A13.53,13.53,0,0,0,126.05,49V.49h-42V49A13.53,13.53,0,0,0,95.58,62.44a71.86,71.86,0,0,1,8.68,2.12l.79.26Z"/><path class="cls-3" d="M123.36,3.21V48.94a10.84,10.84,0,0,1-9.25,10.82,73.12,73.12,0,0,0-9,2.21A73.5,73.5,0,0,0,96,59.76a10.84,10.84,0,0,1-9.25-10.82V3.21Z"/><path class="cls-10" d="M105.05,58.14c5.63,0,15.14-2.41,15.14-11.47v-43H89.92v43C89.92,55.73,99.43,58.14,105.05,58.14Z"/><path class="cls-6" d="M117.61,6.23V46.67c0,7.58-8.84,8.89-12.56,8.89S92.5,54.25,92.5,46.67V6.23Z"/><path class="cls-8" d="M105.05,49.77a6.15,6.15,0,0,0,5.86-3.13h.2c1.73,0,3.59-1.14,3.59-4.31V6.23H95.41V42.34a4.51,4.51,0,0,0,1.19,3.4,3.44,3.44,0,0,0,2.4.91h.2A6.14,6.14,0,0,0,105.05,49.77Z"/><path class="cls-1" d="M113.41,7.52V42.34c0,4-3.24,2.88-3.24,2.88a5.64,5.64,0,0,1-10.23,0s-3.24,1.1-3.24-2.88V7.52Z"/><path class="cls-2" d="M105.06,41.77a5,5,0,0,0,5-5v-27a5,5,0,1,0-10,0v27A5,5,0,0,0,105.06,41.77Z"/><line class="cls-11" x1="105.06" y1="37.45" x2="105.06" y2="6.09"/></g></g></svg>