<svg xmlns="http://www.w3.org/2000/svg" viewBox="0 0 1258.55 139.58"><defs><style>.cls-1{fill:#b8d6d3;}.cls-1,.cls-3,.cls-5{stroke:#601922;stroke-linecap:round;stroke-linejoin:round;}.cls-1,.cls-3{stroke-width:1.39px;}.cls-2{fill:#f8f4e1;}.cls-3,.cls-5{fill:#59acbd;}.cls-4{fill:#004772;}.cls-5{stroke-width:1.54px;}</style></defs><g id="图层_2" data-name="图层 2"><g id="文件图层"><path class="cls-1" d="M140.69,55.39C92.7,89.66,78,126.11,78,126.11S84.89,87.42,62.42,32.9Z"/><path class="cls-2" d="M80.64,135.8a5.22,5.22,0,1,1-10-2.88c.79-2.77,7.39-6.81,7.39-6.81S81.44,133,80.64,135.8Z"/><path class="cls-1" d="M1117.86,55.39c48,34.27,62.69,70.72,62.69,70.72s-6.9-38.69,15.57-93.21Z"/><path class="cls-2" d="M1177.91,135.8a5.22,5.22,0,1,0,10-2.88c-.8-2.77-7.39-6.81-7.39-6.81S1177.11,133,1177.91,135.8Z"/><path class="cls-1" d="M197.57,40.47c-36.65,46.19-40.71,85.28-40.71,85.28s-4.06-39.09-40.72-85.28Z"/><path class="cls-2" d="M162.08,134.34a5.22,5.22,0,1,1-10.44,0c0-2.89,5.22-8.59,5.22-8.59S162.08,131.45,162.08,134.34Z"/><path class="cls-1" d="M260.56,40.47c-36.65,46.19-40.71,85.28-40.71,85.28s-4.06-39.09-40.72-85.28Z"/><path class="cls-2" d="M225.07,134.34a5.22,5.22,0,0,1-10.44,0c0-2.89,5.22-8.59,5.22-8.59S225.07,131.45,225.07,134.34Z"/><path class="cls-1" d="M323.55,40.47c-36.66,46.19-40.72,85.28-40.72,85.28s-4.06-39.09-40.71-85.28Z"/><path class="cls-2" d="M288.05,134.34a5.22,5.22,0,0,1-10.44,0c0-2.89,5.22-8.59,5.22-8.59S288.05,131.45,288.05,134.34Z"/><path class="cls-1" d="M386.54,40.47c-36.66,46.19-40.72,85.28-40.72,85.28s-4.06-39.09-40.71-85.28Z"/><path class="cls-2" d="M351,134.34a5.22,5.22,0,0,1-10.44,0c0-2.89,5.22-8.59,5.22-8.59S351,131.45,351,134.34Z"/><path class="cls-1" d="M449.53,40.47c-36.66,46.19-40.72,85.28-40.72,85.28s-4.06-39.09-40.71-85.28Z"/><path class="cls-2" d="M414,134.34a5.22,5.22,0,1,1-10.44,0c0-2.89,5.22-8.59,5.22-8.59S414,131.45,414,134.34Z"/><path class="cls-1" d="M512.52,40.47c-36.66,46.19-40.72,85.28-40.72,85.28s-4.06-39.09-40.72-85.28Z"/><path class="cls-2" d="M477,134.34a5.22,5.22,0,1,1-10.44,0c0-2.89,5.22-8.59,5.22-8.59S477,131.45,477,134.34Z"/><path class="cls-1" d="M575.51,40.47c-36.66,46.19-40.72,85.28-40.72,85.28s-4.06-39.09-40.72-85.28Z"/><path class="cls-2" d="M540,134.34a5.22,5.22,0,0,1-10.44,0c0-2.89,5.22-8.59,5.22-8.59S540,131.45,540,134.34Z"/><path class="cls-1" d="M638.5,40.47c-36.66,46.19-40.72,85.28-40.72,85.28s-4.06-39.09-40.72-85.28Z"/><path class="cls-2" d="M603,134.34a5.22,5.22,0,0,1-10.44,0c0-2.89,5.22-8.59,5.22-8.59S603,131.45,603,134.34Z"/><path class="cls-1" d="M701.48,40.47c-36.65,46.19-40.71,85.28-40.71,85.28s-4.06-39.09-40.72-85.28Z"/><path class="cls-2" d="M666,134.34a5.22,5.22,0,0,1-10.44,0c0-2.89,5.22-8.59,5.22-8.59S666,131.45,666,134.34Z"/><path class="cls-1" d="M764.47,40.47c-36.65,46.19-40.71,85.28-40.71,85.28S719.7,86.66,683,40.47Z"/><path class="cls-2" d="M729,134.34a5.22,5.22,0,1,1-10.44,0c0-2.89,5.22-8.59,5.22-8.59S729,131.45,729,134.34Z"/><path class="cls-1" d="M827.46,40.47c-36.65,46.19-40.71,85.28-40.71,85.28S782.69,86.66,746,40.47Z"/><path class="cls-2" d="M792,134.34a5.22,5.22,0,0,1-10.44,0c0-2.89,5.22-8.59,5.22-8.59S792,131.45,792,134.34Z"/><path class="cls-1" d="M890.45,40.47c-36.66,46.19-40.72,85.28-40.72,85.28S845.67,86.66,809,40.47Z"/><path class="cls-2" d="M855,134.34a5.22,5.22,0,0,1-10.44,0c0-2.89,5.22-8.59,5.22-8.59S855,131.45,855,134.34Z"/><path class="cls-1" d="M953.44,40.47c-36.66,46.19-40.72,85.28-40.72,85.28S908.66,86.66,872,40.47Z"/><path class="cls-2" d="M917.94,134.34a5.22,5.22,0,0,1-10.44,0c0-2.89,5.22-8.59,5.22-8.59S917.94,131.45,917.94,134.34Z"/><path class="cls-1" d="M1016.43,40.47c-36.66,46.19-40.72,85.28-40.72,85.28S971.65,86.66,935,40.47Z"/><path class="cls-2" d="M980.93,134.34a5.22,5.22,0,1,1-10.44,0c0-2.89,5.22-8.59,5.22-8.59S980.93,131.45,980.93,134.34Z"/><path class="cls-1" d="M1079.42,40.47c-36.66,46.19-40.72,85.28-40.72,85.28S1034.64,86.66,998,40.47Z"/><path class="cls-2" d="M1043.92,134.34a5.22,5.22,0,1,1-10.44,0c0-2.89,5.22-8.59,5.22-8.59S1043.92,131.45,1043.92,134.34Z"/><path class="cls-1" d="M1142.41,40.47c-36.66,46.19-40.72,85.28-40.72,85.28s-4.06-39.09-40.72-85.28Z"/><path class="cls-2" d="M1106.91,134.34a5.22,5.22,0,0,1-10.44,0c0-2.89,5.22-8.59,5.22-8.59S1106.91,131.45,1106.91,134.34Z"/><path class="cls-3" d="M166.08,40.47c-36.66,46.19-40.72,85.28-40.72,85.28S121.3,86.66,84.65,40.47Z"/><path class="cls-4" d="M154.75,40.47C128.29,73.81,125.36,102,125.36,102S122.43,73.81,96,40.47Z"/><path class="cls-2" d="M141.88,40.47C127,59.2,125.36,75.06,125.36,75.06s-1.64-15.86-16.51-34.59Z"/><path class="cls-4" d="M138.44,40.47c-11.77,14.84-13.08,25.88-13.08,25.88s-1.3-11-13.08-25.88Z"/><path class="cls-2" d="M130.58,134.34a5.22,5.22,0,1,1-10.44,0c0-2.89,5.22-8.59,5.22-8.59S130.58,131.45,130.58,134.34Z"/><path class="cls-3" d="M229.07,40.47c-36.66,46.19-40.72,85.28-40.72,85.28s-4.06-39.09-40.72-85.28Z"/><path class="cls-4" d="M217.74,40.47C191.28,73.81,188.35,102,188.35,102S185.42,73.81,159,40.47Z"/><path class="cls-2" d="M204.87,40.47C190,59.2,188.35,75.06,188.35,75.06S186.7,59.2,171.84,40.47Z"/><path class="cls-4" d="M201.43,40.47c-11.78,14.84-13.08,25.88-13.08,25.88s-1.3-11-13.08-25.88Z"/><path class="cls-2" d="M193.57,134.34a5.22,5.22,0,0,1-10.44,0c0-2.89,5.22-8.59,5.22-8.59S193.57,131.45,193.57,134.34Z"/><path class="cls-3" d="M292.06,40.47c-36.66,46.19-40.72,85.28-40.72,85.28s-4.06-39.09-40.72-85.28Z"/><path class="cls-4" d="M280.73,40.47C254.27,73.81,251.34,102,251.34,102S248.41,73.81,222,40.47Z"/><path class="cls-2" d="M267.85,40.47C253,59.2,251.34,75.06,251.34,75.06s-1.65-15.86-16.51-34.59Z"/><path class="cls-4" d="M264.42,40.47c-11.78,14.84-13.08,25.88-13.08,25.88s-1.3-11-13.08-25.88Z"/><path class="cls-2" d="M256.56,134.34a5.22,5.22,0,0,1-10.44,0c0-2.89,5.22-8.59,5.22-8.59S256.56,131.45,256.56,134.34Z"/><path class="cls-3" d="M355.05,40.47c-36.66,46.19-40.72,85.28-40.72,85.28s-4.06-39.09-40.72-85.28Z"/><path class="cls-4" d="M343.72,40.47C317.26,73.81,314.33,102,314.33,102s-2.93-28.22-29.39-61.56Z"/><path class="cls-2" d="M330.84,40.47C316,59.2,314.33,75.06,314.33,75.06s-1.65-15.86-16.52-34.59Z"/><path class="cls-4" d="M327.41,40.47c-11.78,14.84-13.08,25.88-13.08,25.88s-1.31-11-13.08-25.88Z"/><path class="cls-2" d="M319.55,134.34a5.22,5.22,0,0,1-10.44,0c0-2.89,5.22-8.59,5.22-8.59S319.55,131.45,319.55,134.34Z"/><path class="cls-3" d="M418,40.47c-36.65,46.19-40.71,85.28-40.71,85.28s-4.06-39.09-40.72-85.28Z"/><path class="cls-4" d="M406.71,40.47C380.25,73.81,377.32,102,377.32,102s-2.93-28.22-29.39-61.56Z"/><path class="cls-2" d="M393.83,40.47C379,59.2,377.32,75.06,377.32,75.06S375.67,59.2,360.8,40.47Z"/><path class="cls-4" d="M390.39,40.47c-11.77,14.84-13.07,25.88-13.07,25.88s-1.31-11-13.08-25.88Z"/><path class="cls-2" d="M382.54,134.34a5.22,5.22,0,0,1-10.44,0c0-2.89,5.22-8.59,5.22-8.59S382.54,131.45,382.54,134.34Z"/><path class="cls-3" d="M481,40.47c-36.65,46.19-40.71,85.28-40.71,85.28s-4.06-39.09-40.72-85.28Z"/><path class="cls-4" d="M469.7,40.47C443.24,73.81,440.31,102,440.31,102s-2.93-28.22-29.39-61.56Z"/><path class="cls-2" d="M456.82,40.47C442,59.2,440.31,75.06,440.31,75.06s-1.65-15.86-16.52-34.59Z"/><path class="cls-4" d="M453.38,40.47c-11.77,14.84-13.07,25.88-13.07,25.88s-1.31-11-13.08-25.88Z"/><path class="cls-2" d="M445.53,134.34a5.22,5.22,0,1,1-10.44,0c0-2.89,5.22-8.59,5.22-8.59S445.53,131.45,445.53,134.34Z"/><path class="cls-3" d="M544,40.47c-36.65,46.19-40.71,85.28-40.71,85.28s-4.06-39.09-40.72-85.28Z"/><path class="cls-4" d="M532.68,40.47C506.23,73.81,503.3,102,503.3,102s-2.94-28.22-29.39-61.56Z"/><path class="cls-2" d="M519.81,40.47C504.94,59.2,503.3,75.06,503.3,75.06s-1.65-15.86-16.52-34.59Z"/><path class="cls-4" d="M516.37,40.47C504.6,55.31,503.3,66.35,503.3,66.35s-1.31-11-13.08-25.88Z"/><path class="cls-2" d="M508.52,134.34a5.22,5.22,0,1,1-10.44,0c0-2.89,5.22-8.59,5.22-8.59S508.52,131.45,508.52,134.34Z"/><path class="cls-3" d="M607,40.47c-36.66,46.19-40.72,85.28-40.72,85.28s-4.06-39.09-40.71-85.28Z"/><path class="cls-4" d="M595.67,40.47C569.21,73.81,566.28,102,566.28,102s-2.93-28.22-29.39-61.56Z"/><path class="cls-2" d="M582.8,40.47c-14.87,18.73-16.52,34.59-16.52,34.59s-1.64-15.86-16.51-34.59Z"/><path class="cls-4" d="M579.36,40.47c-11.77,14.84-13.08,25.88-13.08,25.88s-1.3-11-13.07-25.88Z"/><path class="cls-2" d="M571.5,134.34a5.22,5.22,0,0,1-10.44,0c0-2.89,5.22-8.59,5.22-8.59S571.5,131.45,571.5,134.34Z"/><path class="cls-3" d="M670,40.47c-36.66,46.19-40.72,85.28-40.72,85.28s-4.06-39.09-40.71-85.28Z"/><path class="cls-4" d="M658.66,40.47C632.2,73.81,629.27,102,629.27,102s-2.93-28.22-29.39-61.56Z"/><path class="cls-2" d="M645.79,40.47c-14.87,18.73-16.52,34.59-16.52,34.59s-1.64-15.86-16.51-34.59Z"/><path class="cls-4" d="M642.35,40.47c-11.77,14.84-13.08,25.88-13.08,25.88s-1.3-11-13.07-25.88Z"/><path class="cls-2" d="M634.49,134.34a5.22,5.22,0,0,1-10.44,0c0-2.89,5.22-8.59,5.22-8.59S634.49,131.45,634.49,134.34Z"/><path class="cls-3" d="M733,40.47c-36.66,46.19-40.72,85.28-40.72,85.28s-4.06-39.09-40.71-85.28Z"/><path class="cls-4" d="M721.65,40.47C695.19,73.81,692.26,102,692.26,102s-2.93-28.22-29.39-61.56Z"/><path class="cls-2" d="M708.78,40.47c-14.87,18.73-16.52,34.59-16.52,34.59s-1.64-15.86-16.51-34.59Z"/><path class="cls-4" d="M705.34,40.47c-11.77,14.84-13.08,25.88-13.08,25.88s-1.3-11-13.08-25.88Z"/><path class="cls-2" d="M697.48,134.34a5.22,5.22,0,0,1-10.44,0c0-2.89,5.22-8.59,5.22-8.59S697.48,131.45,697.48,134.34Z"/><path class="cls-3" d="M796,40.47c-36.66,46.19-40.72,85.28-40.72,85.28s-4.06-39.09-40.72-85.28Z"/><path class="cls-4" d="M784.64,40.47C758.18,73.81,755.25,102,755.25,102s-2.93-28.22-29.39-61.56Z"/><path class="cls-2" d="M771.77,40.47C756.9,59.2,755.25,75.06,755.25,75.06S753.6,59.2,738.74,40.47Z"/><path class="cls-4" d="M768.33,40.47c-11.77,14.84-13.08,25.88-13.08,25.88s-1.3-11-13.08-25.88Z"/><path class="cls-2" d="M760.47,134.34a5.22,5.22,0,1,1-10.44,0c0-2.89,5.22-8.59,5.22-8.59S760.47,131.45,760.47,134.34Z"/><path class="cls-3" d="M859,40.47c-36.66,46.19-40.72,85.28-40.72,85.28s-4.06-39.09-40.72-85.28Z"/><path class="cls-4" d="M847.63,40.47C821.17,73.81,818.24,102,818.24,102s-2.93-28.22-29.39-61.56Z"/><path class="cls-2" d="M834.75,40.47c-14.86,18.73-16.51,34.59-16.51,34.59s-1.65-15.86-16.51-34.59Z"/><path class="cls-4" d="M831.32,40.47c-11.78,14.84-13.08,25.88-13.08,25.88s-1.3-11-13.08-25.88Z"/><path class="cls-2" d="M823.46,134.34a5.22,5.22,0,0,1-10.44,0c0-2.89,5.22-8.59,5.22-8.59S823.46,131.45,823.46,134.34Z"/><path class="cls-3" d="M922,40.47c-36.66,46.19-40.72,85.28-40.72,85.28s-4.06-39.09-40.72-85.28Z"/><path class="cls-4" d="M910.62,40.47C884.16,73.81,881.23,102,881.23,102s-2.93-28.22-29.39-61.56Z"/><path class="cls-2" d="M897.74,40.47c-14.86,18.73-16.51,34.59-16.51,34.59s-1.65-15.86-16.52-34.59Z"/><path class="cls-4" d="M894.31,40.47c-11.78,14.84-13.08,25.88-13.08,25.88s-1.31-11-13.08-25.88Z"/><path class="cls-2" d="M886.45,134.34a5.22,5.22,0,1,1-10.44,0c0-2.89,5.22-8.59,5.22-8.59S886.45,131.45,886.45,134.34Z"/><path class="cls-3" d="M984.93,40.47c-36.65,46.19-40.71,85.28-40.71,85.28s-4.06-39.09-40.72-85.28Z"/><path class="cls-4" d="M973.61,40.47C947.15,73.81,944.22,102,944.22,102s-2.93-28.22-29.39-61.56Z"/><path class="cls-2" d="M960.73,40.47c-14.87,18.73-16.51,34.59-16.51,34.59S942.57,59.2,927.7,40.47Z"/><path class="cls-4" d="M957.3,40.47c-11.78,14.84-13.08,25.88-13.08,25.88s-1.31-11-13.08-25.88Z"/><path class="cls-2" d="M949.44,134.34a5.22,5.22,0,0,1-10.44,0c0-2.89,5.22-8.59,5.22-8.59S949.44,131.45,949.44,134.34Z"/><path class="cls-3" d="M1047.92,40.47c-36.65,46.19-40.71,85.28-40.71,85.28s-4.06-39.09-40.72-85.28Z"/><path class="cls-4" d="M1036.6,40.47c-26.46,33.34-29.39,61.56-29.39,61.56s-2.93-28.22-29.39-61.56Z"/><path class="cls-2" d="M1023.72,40.47c-14.87,18.73-16.51,34.59-16.51,34.59s-1.65-15.86-16.52-34.59Z"/><path class="cls-4" d="M1020.28,40.47c-11.77,14.84-13.07,25.88-13.07,25.88s-1.31-11-13.08-25.88Z"/><path class="cls-2" d="M1012.43,134.34a5.22,5.22,0,1,1-10.44,0c0-2.89,5.22-8.59,5.22-8.59S1012.43,131.45,1012.43,134.34Z"/><path class="cls-3" d="M1110.91,40.47c-36.65,46.19-40.71,85.28-40.71,85.28s-4.06-39.09-40.72-85.28Z"/><path class="cls-4" d="M1099.59,40.47C1073.13,73.81,1070.2,102,1070.2,102s-2.94-28.22-29.39-61.56Z"/><path class="cls-2" d="M1086.71,40.47c-14.87,18.73-16.51,34.59-16.51,34.59s-1.65-15.86-16.52-34.59Z"/><path class="cls-4" d="M1083.27,40.47c-11.77,14.84-13.07,25.88-13.07,25.88s-1.31-11-13.08-25.88Z"/><path class="cls-2" d="M1075.42,134.34a5.22,5.22,0,1,1-10.44,0c0-2.89,5.22-8.59,5.22-8.59S1075.42,131.45,1075.42,134.34Z"/><path class="cls-3" d="M1173.9,40.47c-36.66,46.19-40.72,85.28-40.72,85.28s-4.06-39.09-40.71-85.28Z"/><path class="cls-4" d="M1162.57,40.47c-26.46,33.34-29.39,61.56-29.39,61.56s-2.93-28.22-29.39-61.56Z"/><path class="cls-2" d="M1149.7,40.47c-14.87,18.73-16.52,34.59-16.52,34.59s-1.64-15.86-16.51-34.59Z"/><path class="cls-4" d="M1146.26,40.47c-11.77,14.84-13.08,25.88-13.08,25.88s-1.3-11-13.07-25.88Z"/><path class="cls-2" d="M1138.4,134.34a5.22,5.22,0,1,1-10.44,0c0-2.89,5.22-8.59,5.22-8.59S1138.4,131.45,1138.4,134.34Z"/><path class="cls-5" d="M115.87,58.35c-65.9,14.06-102.61,45-102.61,45s31-36.7,45-102.6Z"/><path class="cls-4" d="M107.86,50.34C60.29,60.49,33.8,82.84,33.8,82.84S56.15,56.34,66.29,8.78Z"/><path class="cls-2" d="M98.75,41.24C72,46.94,57.14,59.5,57.14,59.5S69.7,44.61,75.4,17.88Z"/><path class="cls-4" d="M96.32,38.81C75.16,43.32,64.68,52,64.68,52s8.63-10.48,13.15-31.65Z"/><path class="cls-2" d="M9.53,114.49c-2.5,2.5-6.18,2.87-8.21.83s-1.67-5.72.82-8.21,11.12-3.74,11.12-3.74S12,112,9.53,114.49Z"/><path class="cls-5" d="M1200.26.77c14.06,65.9,45,102.6,45,102.6s-36.7-31-102.6-45Z"/><path class="cls-4" d="M1192.25,8.78c10.15,47.56,32.5,74.06,32.5,74.06s-26.49-22.35-74.06-32.5Z"/><path class="cls-2" d="M1183.15,17.88c5.7,26.73,18.26,41.62,18.26,41.62s-14.89-12.56-41.62-18.26Z"/><path class="cls-4" d="M1180.72,20.31c4.51,21.17,13.15,31.65,13.15,31.65s-10.48-8.64-31.64-13.15Z"/><path class="cls-2" d="M1256.4,107.11c2.5,2.49,2.87,6.17.83,8.21s-5.71,1.67-8.21-.83-3.74-11.12-3.74-11.12S1253.91,104.61,1256.4,107.11Z"/></g></g></svg>