<svg xmlns="http://www.w3.org/2000/svg" viewBox="0 0 958.97 29.26"><defs><style>.cls-1{fill:#452019;}.cls-2{fill:#f1f4e7;}</style></defs><g id="图层_2" data-name="图层 2"><g id="文件图层"><polygon class="cls-1" points="0 26.6 26.6 0 929.7 0 958.97 29.26 0 26.6"/><ellipse class="cls-2" cx="22.24" cy="14.63" rx="5.34" ry="5.51"/><ellipse class="cls-2" cx="34.26" cy="14.63" rx="5.34" ry="5.51"/><ellipse class="cls-2" cx="46.27" cy="14.63" rx="5.34" ry="5.51"/><ellipse class="cls-2" cx="58.29" cy="14.63" rx="5.34" ry="5.51"/><ellipse class="cls-2" cx="70.3" cy="14.63" rx="5.34" ry="5.51"/><ellipse class="cls-2" cx="82.32" cy="14.63" rx="5.34" ry="5.51"/><ellipse class="cls-2" cx="94.33" cy="14.63" rx="5.34" ry="5.51"/><ellipse class="cls-2" cx="106.35" cy="14.63" rx="5.34" ry="5.51"/><ellipse class="cls-2" cx="118.37" cy="14.63" rx="5.34" ry="5.51"/><ellipse class="cls-2" cx="130.38" cy="14.63" rx="5.34" ry="5.51"/><ellipse class="cls-2" cx="142.4" cy="14.63" rx="5.34" ry="5.51"/><ellipse class="cls-2" cx="154.41" cy="14.63" rx="5.34" ry="5.51"/><ellipse class="cls-2" cx="166.43" cy="14.63" rx="5.34" ry="5.51"/><ellipse class="cls-2" cx="178.44" cy="14.63" rx="5.34" ry="5.51"/><ellipse class="cls-2" cx="190.46" cy="14.63" rx="5.34" ry="5.51"/><ellipse class="cls-2" cx="202.47" cy="14.63" rx="5.34" ry="5.51"/><ellipse class="cls-2" cx="214.49" cy="14.63" rx="5.34" ry="5.51"/><ellipse class="cls-2" cx="226.51" cy="14.63" rx="5.34" ry="5.51"/><ellipse class="cls-2" cx="238.52" cy="14.63" rx="5.34" ry="5.51"/><ellipse class="cls-2" cx="250.54" cy="14.63" rx="5.34" ry="5.51"/><ellipse class="cls-2" cx="262.55" cy="14.63" rx="5.34" ry="5.51"/><ellipse class="cls-2" cx="274.57" cy="14.63" rx="5.34" ry="5.51"/><ellipse class="cls-2" cx="286.58" cy="14.63" rx="5.34" ry="5.51"/><ellipse class="cls-2" cx="298.6" cy="14.63" rx="5.34" ry="5.51"/><ellipse class="cls-2" cx="310.61" cy="14.63" rx="5.34" ry="5.51"/><ellipse class="cls-2" cx="322.63" cy="14.63" rx="5.34" ry="5.51"/><ellipse class="cls-2" cx="334.65" cy="14.63" rx="5.34" ry="5.51"/><ellipse class="cls-2" cx="346.66" cy="14.63" rx="5.34" ry="5.51"/><ellipse class="cls-2" cx="358.68" cy="14.63" rx="5.34" ry="5.51"/><ellipse class="cls-2" cx="370.69" cy="14.63" rx="5.34" ry="5.51"/><ellipse class="cls-2" cx="382.71" cy="14.63" rx="5.34" ry="5.51"/><ellipse class="cls-2" cx="394.72" cy="14.63" rx="5.34" ry="5.51"/><ellipse class="cls-2" cx="406.74" cy="14.63" rx="5.34" ry="5.51"/><ellipse class="cls-2" cx="418.75" cy="14.63" rx="5.34" ry="5.51"/><ellipse class="cls-2" cx="430.77" cy="14.63" rx="5.34" ry="5.51"/><ellipse class="cls-2" cx="442.79" cy="14.63" rx="5.34" ry="5.51"/><ellipse class="cls-2" cx="454.8" cy="14.63" rx="5.34" ry="5.51"/><ellipse class="cls-2" cx="466.82" cy="14.63" rx="5.34" ry="5.51"/><ellipse class="cls-2" cx="478.83" cy="14.63" rx="5.34" ry="5.51"/><ellipse class="cls-2" cx="490.85" cy="14.63" rx="5.34" ry="5.51"/><ellipse class="cls-2" cx="502.86" cy="14.63" rx="5.34" ry="5.51"/><ellipse class="cls-2" cx="514.88" cy="14.63" rx="5.34" ry="5.51"/><ellipse class="cls-2" cx="526.9" cy="14.63" rx="5.34" ry="5.51"/><ellipse class="cls-2" cx="538.91" cy="14.63" rx="5.34" ry="5.51"/><ellipse class="cls-2" cx="550.93" cy="14.63" rx="5.34" ry="5.51"/><ellipse class="cls-2" cx="562.94" cy="14.63" rx="5.34" ry="5.51"/><ellipse class="cls-2" cx="574.96" cy="14.63" rx="5.34" ry="5.51"/><ellipse class="cls-2" cx="586.97" cy="14.63" rx="5.34" ry="5.51"/><ellipse class="cls-2" cx="598.99" cy="14.63" rx="5.34" ry="5.51"/><ellipse class="cls-2" cx="611" cy="14.63" rx="5.34" ry="5.51"/><ellipse class="cls-2" cx="623.02" cy="14.63" rx="5.34" ry="5.51"/><ellipse class="cls-2" cx="635.04" cy="14.63" rx="5.34" ry="5.51"/><ellipse class="cls-2" cx="647.05" cy="14.63" rx="5.34" ry="5.51"/><ellipse class="cls-2" cx="659.07" cy="14.63" rx="5.34" ry="5.51"/><ellipse class="cls-2" cx="671.08" cy="14.63" rx="5.34" ry="5.51"/><ellipse class="cls-2" cx="683.1" cy="14.63" rx="5.34" ry="5.51"/><ellipse class="cls-2" cx="695.11" cy="14.63" rx="5.34" ry="5.51"/><ellipse class="cls-2" cx="707.13" cy="14.63" rx="5.34" ry="5.51"/><ellipse class="cls-2" cx="719.14" cy="14.63" rx="5.34" ry="5.51"/><ellipse class="cls-2" cx="731.16" cy="14.63" rx="5.34" ry="5.51"/><ellipse class="cls-2" cx="743.18" cy="14.63" rx="5.34" ry="5.51"/><ellipse class="cls-2" cx="755.19" cy="14.63" rx="5.34" ry="5.51"/><ellipse class="cls-2" cx="767.21" cy="14.63" rx="5.34" ry="5.51"/><ellipse class="cls-2" cx="779.22" cy="14.63" rx="5.34" ry="5.51"/><ellipse class="cls-2" cx="791.24" cy="14.63" rx="5.34" ry="5.51"/><ellipse class="cls-2" cx="803.25" cy="14.63" rx="5.34" ry="5.51"/><ellipse class="cls-2" cx="815.27" cy="14.63" rx="5.34" ry="5.51"/><ellipse class="cls-2" cx="827.28" cy="14.63" rx="5.34" ry="5.51"/><ellipse class="cls-2" cx="839.3" cy="14.63" rx="5.34" ry="5.51"/><ellipse class="cls-2" cx="851.32" cy="14.63" rx="5.34" ry="5.51"/><ellipse class="cls-2" cx="863.33" cy="14.63" rx="5.34" ry="5.51"/><ellipse class="cls-2" cx="875.35" cy="14.63" rx="5.34" ry="5.51"/><ellipse class="cls-2" cx="887.36" cy="14.63" rx="5.34" ry="5.51"/><ellipse class="cls-2" cx="899.38" cy="14.63" rx="5.34" ry="5.51"/><ellipse class="cls-2" cx="911.39" cy="14.63" rx="5.34" ry="5.51"/><ellipse class="cls-2" cx="923.41" cy="14.63" rx="5.34" ry="5.51"/><ellipse class="cls-2" cx="935.42" cy="14.63" rx="5.34" ry="5.51"/></g></g></svg>