<svg xmlns="http://www.w3.org/2000/svg" viewBox="0 0 743.58 21.72"><defs><style>.cls-1{fill:#529977;}.cls-2{fill:#298e87;}.cls-3{fill:#452019;}.cls-4{fill:#007cae;}.cls-5{fill:#f1f4e7;}.cls-6{fill:#374d64;}</style></defs><g id="图层_2" data-name="图层 2"><g id="文件图层"><polygon class="cls-1" points="76.35 21.72 42.78 21.72 52.16 12.34 66.97 12.34 76.35 21.72"/><polygon class="cls-2" points="72.17 21.72 46.95 21.72 53.38 15.29 65.75 15.29 72.17 21.72"/><polygon class="cls-3" points="68 21.72 51.13 21.72 54.6 18.24 64.52 18.24 68 21.72"/><polygon class="cls-3" points="76.36 0 66.97 9.38 52.16 9.38 42.77 0 76.36 0"/><polygon class="cls-2" points="72.18 0 65.75 6.43 53.38 6.43 46.94 0 72.18 0"/><polygon class="cls-4" points="68.01 0 64.52 3.49 54.6 3.49 51.12 0 68.01 0"/><polygon class="cls-2" points="23.77 21.72 12.91 10.86 23.77 0 38.59 0 49.45 10.86 38.59 21.72 23.77 21.72"/><polygon class="cls-4" points="45.28 10.86 37.36 18.77 24.99 18.77 17.08 10.86 24.99 2.95 37.36 2.95 45.28 10.86"/><path class="cls-5" d="M36.56,8.6H34.37a.93.93,0,0,1-.93-.92h0a2.31,2.31,0,0,0-1.78-2.29A2.27,2.27,0,0,0,28.92,7.6v.08A.93.93,0,0,1,28,8.6H25.8a2.3,2.3,0,0,0-2.28,1.78,2.26,2.26,0,0,0,2.21,2.74H28a.93.93,0,0,1,.93.93h0a2.31,2.31,0,0,0,1.53,2.22,2.27,2.27,0,0,0,3-2.15v-.07a.93.93,0,0,1,.93-.93h2.26a2.26,2.26,0,0,0,2.21-2.74A2.3,2.3,0,0,0,36.56,8.6Z"/><path class="cls-3" d="M31.18,14.86a.77.77,0,0,1-.25,0,.74.74,0,0,1-.44-.72A2.5,2.5,0,0,0,28,11.6H25.73a.65.65,0,0,1-.53-.26.64.64,0,0,1-.14-.58.73.73,0,0,1,.74-.54H28a2.5,2.5,0,0,0,2.5-2.49V7.65A.7.7,0,0,1,31.18,7l.16,0a.75.75,0,0,1,.53.75,2.5,2.5,0,0,0,2.5,2.49h2.19a.74.74,0,0,1,.74.53.7.7,0,0,1-.67.85H34.37a2.5,2.5,0,0,0-2.5,2.5v.07A.7.7,0,0,1,31.18,14.86Z"/><polygon class="cls-2" points="152.12 21.72 162.99 10.86 152.12 0 137.31 0 126.44 10.86 137.31 21.72 152.12 21.72"/><polygon class="cls-4" points="130.62 10.86 138.53 18.77 150.9 18.77 158.81 10.86 150.9 2.95 138.53 2.95 130.62 10.86"/><path class="cls-5" d="M139.34,8.6h2.19a.92.92,0,0,0,.92-.92h0a2.32,2.32,0,0,1,1.78-2.29A2.27,2.27,0,0,1,147,7.6v.08a.92.92,0,0,0,.92.92h2.19a2.31,2.31,0,0,1,2.29,1.78,2.27,2.27,0,0,1-2.22,2.74H147.9a.93.93,0,0,0-.92.93h0a2.32,2.32,0,0,1-1.54,2.22,2.27,2.27,0,0,1-3-2.15v-.07a.93.93,0,0,0-.92-.93h-2.27a2.27,2.27,0,0,1-2.21-2.74A2.31,2.31,0,0,1,139.34,8.6Z"/><path class="cls-3" d="M144.71,14.86a.68.68,0,0,0,.69-.76,2.5,2.5,0,0,1,2.5-2.5h2.26a.67.67,0,0,0,.54-.26.7.7,0,0,0,.14-.58.75.75,0,0,0-.75-.54H147.9a2.5,2.5,0,0,1-2.5-2.49V7.65a.7.7,0,0,0-.69-.69l-.15,0a.74.74,0,0,0-.53.75,2.5,2.5,0,0,1-2.5,2.49h-2.19a.76.76,0,0,0-.75.53.71.71,0,0,0,.14.59.67.67,0,0,0,.53.26h2.27a2.5,2.5,0,0,1,2.5,2.5v.07A.69.69,0,0,0,144.71,14.86Z"/><polygon class="cls-1" points="99.54 0 133.12 0 123.74 9.38 108.93 9.38 99.54 0"/><polygon class="cls-2" points="103.72 0 128.95 0 122.52 6.43 110.15 6.43 103.72 0"/><polygon class="cls-3" points="107.89 0 124.77 0 121.3 3.48 111.37 3.48 107.89 0"/><polygon class="cls-3" points="99.53 21.72 108.93 12.34 123.74 12.34 133.12 21.72 99.53 21.72"/><polygon class="cls-2" points="103.71 21.72 110.15 15.28 122.52 15.28 128.95 21.72 103.71 21.72"/><polygon class="cls-4" points="107.89 21.72 111.37 18.23 121.3 18.23 124.77 21.72 107.89 21.72"/><polygon class="cls-2" points="95.35 21.72 106.22 10.86 95.36 0 80.54 0 69.67 10.86 80.54 21.72 95.35 21.72"/><polygon class="cls-6" points="73.85 10.86 81.76 18.77 94.13 18.77 102.05 10.86 94.13 2.95 81.76 2.95 73.85 10.86"/><path class="cls-5" d="M82.57,8.6h2.19a.92.92,0,0,0,.92-.92h0a2.32,2.32,0,0,1,1.79-2.29A2.27,2.27,0,0,1,90.21,7.6v.08a.92.92,0,0,0,.92.92h2.19a2.31,2.31,0,0,1,2.29,1.78,2.27,2.27,0,0,1-2.21,2.74H91.13a.93.93,0,0,0-.92.93h0a2.32,2.32,0,0,1-1.54,2.22,2.27,2.27,0,0,1-3-2.15v-.07a.93.93,0,0,0-.92-.93H82.5a2.27,2.27,0,0,1-2.22-2.74A2.31,2.31,0,0,1,82.57,8.6Z"/><polygon class="cls-1" points="189.89 21.72 156.31 21.72 165.69 12.34 180.5 12.34 189.89 21.72"/><polygon class="cls-2" points="185.71 21.72 160.49 21.72 166.91 15.29 179.28 15.29 185.71 21.72"/><polygon class="cls-3" points="181.54 21.72 164.66 21.72 168.14 18.24 178.06 18.24 181.54 21.72"/><polygon class="cls-3" points="189.9 0 180.5 9.38 165.69 9.38 156.31 0 189.9 0"/><polygon class="cls-2" points="185.72 0 179.28 6.43 166.91 6.43 160.48 0 185.72 0"/><polygon class="cls-4" points="181.55 0 178.06 3.49 168.14 3.49 164.66 0 181.55 0"/><polygon class="cls-1" points="213.08 0 246.66 0 237.28 9.38 222.46 9.38 213.08 0"/><polygon class="cls-2" points="217.26 0 242.48 0 236.06 6.43 223.69 6.43 217.26 0"/><polygon class="cls-3" points="221.43 0 238.3 0 234.83 3.48 224.91 3.48 221.43 0"/><polygon class="cls-3" points="213.07 21.72 222.46 12.34 237.28 12.34 246.66 21.72 213.07 21.72"/><polygon class="cls-2" points="217.25 21.72 223.69 15.28 236.06 15.28 242.49 21.72 217.25 21.72"/><polygon class="cls-4" points="221.42 21.72 224.91 18.23 234.83 18.23 238.31 21.72 221.42 21.72"/><polygon class="cls-2" points="208.89 21.72 219.76 10.86 208.89 0 194.08 0 183.21 10.86 194.08 21.72 208.89 21.72"/><polygon class="cls-6" points="187.39 10.86 195.3 18.77 207.67 18.77 215.58 10.86 207.67 2.95 195.3 2.95 187.39 10.86"/><path class="cls-5" d="M196.11,8.6h2.19a.92.92,0,0,0,.92-.92h0A2.32,2.32,0,0,1,201,5.39a2.28,2.28,0,0,1,2.75,2.21v.08a.92.92,0,0,0,.92.92h2.19a2.32,2.32,0,0,1,2.29,1.78,2.27,2.27,0,0,1-2.22,2.74h-2.26a.93.93,0,0,0-.92.93h0a2.32,2.32,0,0,1-1.54,2.22,2.27,2.27,0,0,1-3-2.15v-.07a.93.93,0,0,0-.92-.93H196a2.27,2.27,0,0,1-2.21-2.74A2.31,2.31,0,0,1,196.11,8.6Z"/><polygon class="cls-1" points="303.43 21.72 269.85 21.72 279.23 12.34 294.04 12.34 303.43 21.72"/><polygon class="cls-2" points="299.25 21.72 274.02 21.72 280.45 15.29 292.82 15.29 299.25 21.72"/><polygon class="cls-3" points="295.08 21.72 278.2 21.72 281.67 18.24 291.6 18.24 295.08 21.72"/><polygon class="cls-3" points="303.43 0 294.04 9.38 279.23 9.38 269.85 0 303.43 0"/><polygon class="cls-2" points="299.25 0 292.82 6.43 280.45 6.43 274.02 0 299.25 0"/><polygon class="cls-4" points="295.08 0 291.6 3.49 281.67 3.49 278.19 0 295.08 0"/><polygon class="cls-2" points="250.85 21.72 239.98 10.86 250.85 0 265.66 0 276.53 10.86 265.66 21.72 250.85 21.72"/><polygon class="cls-4" points="272.35 10.86 264.44 18.77 252.07 18.77 244.16 10.86 252.07 2.95 264.44 2.95 272.35 10.86"/><path class="cls-5" d="M263.63,8.6h-2.19a.92.92,0,0,1-.92-.92h0a2.32,2.32,0,0,0-1.79-2.29A2.27,2.27,0,0,0,256,7.6v.08a.92.92,0,0,1-.92.92h-2.19a2.31,2.31,0,0,0-2.29,1.78,2.27,2.27,0,0,0,2.21,2.74h2.27a.93.93,0,0,1,.92.93h0a2.32,2.32,0,0,0,1.54,2.22,2.27,2.27,0,0,0,3-2.15v-.07a.93.93,0,0,1,.92-.93h2.26a2.27,2.27,0,0,0,2.22-2.74A2.31,2.31,0,0,0,263.63,8.6Z"/><path class="cls-3" d="M258.25,14.86a.67.67,0,0,1-.24,0,.73.73,0,0,1-.44-.72,2.5,2.5,0,0,0-2.5-2.5H252.8a.67.67,0,0,1-.53-.26.7.7,0,0,1-.14-.58.75.75,0,0,1,.75-.54h2.19a2.5,2.5,0,0,0,2.5-2.49V7.65a.7.7,0,0,1,.68-.69l.16,0a.75.75,0,0,1,.53.75,2.5,2.5,0,0,0,2.5,2.49h2.19a.76.76,0,0,1,.75.53.71.71,0,0,1-.14.59.67.67,0,0,1-.54.26h-2.26a2.5,2.5,0,0,0-2.5,2.5v.07A.69.69,0,0,1,258.25,14.86Z"/><polygon class="cls-1" points="326.62 0 360.19 0 350.81 9.38 336 9.38 326.62 0"/><polygon class="cls-2" points="330.8 0 356.02 0 349.59 6.43 337.22 6.43 330.8 0"/><polygon class="cls-3" points="334.97 0 351.84 0 348.37 3.48 338.44 3.48 334.97 0"/><polygon class="cls-3" points="326.61 21.72 336 12.34 350.81 12.34 360.2 21.72 326.61 21.72"/><polygon class="cls-2" points="330.79 21.72 337.22 15.28 349.59 15.28 356.03 21.72 330.79 21.72"/><polygon class="cls-4" points="334.96 21.72 338.44 18.23 348.37 18.23 351.85 21.72 334.96 21.72"/><polygon class="cls-2" points="322.43 21.72 333.3 10.86 322.43 0 307.62 0 296.75 10.86 307.62 21.72 322.43 21.72"/><polygon class="cls-6" points="300.92 10.86 308.84 18.77 321.21 18.77 329.12 10.86 321.21 2.95 308.84 2.95 300.92 10.86"/><path class="cls-5" d="M309.64,8.6h2.2a.92.92,0,0,0,.92-.92h0a2.31,2.31,0,0,1,1.78-2.29,2.27,2.27,0,0,1,2.74,2.21v.08a.93.93,0,0,0,.93.92h2.19a2.3,2.3,0,0,1,2.28,1.78,2.26,2.26,0,0,1-2.21,2.74h-2.26a.93.93,0,0,0-.93.93h0a2.31,2.31,0,0,1-1.53,2.22,2.27,2.27,0,0,1-3-2.15v-.07a.93.93,0,0,0-.92-.93h-2.27a2.27,2.27,0,0,1-2.21-2.74A2.31,2.31,0,0,1,309.64,8.6Z"/><polygon class="cls-1" points="416.96 21.72 383.39 21.72 392.77 12.34 407.58 12.34 416.96 21.72"/><polygon class="cls-2" points="412.79 21.72 387.56 21.72 393.99 15.29 406.36 15.29 412.79 21.72"/><polygon class="cls-3" points="408.61 21.72 391.74 21.72 395.21 18.24 405.14 18.24 408.61 21.72"/><polygon class="cls-3" points="416.97 0 407.58 9.38 392.77 9.38 383.38 0 416.97 0"/><polygon class="cls-2" points="412.79 0 406.36 6.43 393.99 6.43 387.55 0 412.79 0"/><polygon class="cls-4" points="408.62 0 405.14 3.49 395.21 3.49 391.73 0 408.62 0"/><polygon class="cls-2" points="364.38 21.72 353.52 10.86 364.38 0 379.2 0 390.06 10.86 379.2 21.72 364.38 21.72"/><polygon class="cls-4" points="385.89 10.86 377.98 18.77 365.61 18.77 357.69 10.86 365.61 2.95 377.98 2.95 385.89 10.86"/><path class="cls-5" d="M377.17,8.6H375a.93.93,0,0,1-.93-.92h0a2.31,2.31,0,0,0-1.78-2.29,2.27,2.27,0,0,0-2.74,2.21v.08a.92.92,0,0,1-.92.92h-2.19a2.31,2.31,0,0,0-2.29,1.78,2.27,2.27,0,0,0,2.21,2.74h2.27a.93.93,0,0,1,.92.93h0a2.31,2.31,0,0,0,1.53,2.22,2.27,2.27,0,0,0,3-2.15v-.07a.93.93,0,0,1,.93-.93h2.26a2.26,2.26,0,0,0,2.21-2.74A2.3,2.3,0,0,0,377.17,8.6Z"/><path class="cls-3" d="M371.79,14.86a.77.77,0,0,1-.25,0,.74.74,0,0,1-.44-.72,2.5,2.5,0,0,0-2.49-2.5h-2.27a.67.67,0,0,1-.53-.26.64.64,0,0,1-.14-.58.74.74,0,0,1,.75-.54h2.19a2.5,2.5,0,0,0,2.49-2.49V7.65a.7.7,0,0,1,.69-.69L372,7a.75.75,0,0,1,.53.75,2.5,2.5,0,0,0,2.5,2.49h2.19a.74.74,0,0,1,.74.53.69.69,0,0,1-.67.85H375a2.5,2.5,0,0,0-2.5,2.5v.07A.69.69,0,0,1,371.79,14.86Z"/><polygon class="cls-1" points="440.15 0 473.73 0 464.35 9.38 449.54 9.38 440.15 0"/><polygon class="cls-2" points="444.33 0 469.56 0 463.13 6.43 450.76 6.43 444.33 0"/><polygon class="cls-3" points="448.5 0 465.38 0 461.91 3.48 451.98 3.48 448.5 0"/><polygon class="cls-3" points="440.15 21.72 449.54 12.34 464.35 12.34 473.74 21.72 440.15 21.72"/><polygon class="cls-2" points="444.33 21.72 450.76 15.28 463.13 15.28 469.56 21.72 444.33 21.72"/><polygon class="cls-4" points="448.5 21.72 451.98 18.23 461.91 18.23 465.39 21.72 448.5 21.72"/><polygon class="cls-2" points="435.97 21.72 446.83 10.86 435.97 0 421.15 0 410.29 10.86 421.15 21.72 435.97 21.72"/><polygon class="cls-6" points="414.46 10.86 422.38 18.77 434.74 18.77 442.66 10.86 434.74 2.95 422.38 2.95 414.46 10.86"/><path class="cls-5" d="M423.18,8.6h2.19a.93.93,0,0,0,.93-.92h0a2.31,2.31,0,0,1,1.78-2.29,2.27,2.27,0,0,1,2.74,2.21v.08a.92.92,0,0,0,.92.92h2.19a2.31,2.31,0,0,1,2.29,1.78A2.27,2.27,0,0,1,434,13.12h-2.27a.93.93,0,0,0-.92.93h0a2.31,2.31,0,0,1-1.53,2.22,2.27,2.27,0,0,1-3-2.15v-.07a.93.93,0,0,0-.93-.93h-2.26a2.26,2.26,0,0,1-2.21-2.74A2.3,2.3,0,0,1,423.18,8.6Z"/><polygon class="cls-1" points="530.5 21.72 496.93 21.72 506.31 12.34 521.12 12.34 530.5 21.72"/><polygon class="cls-2" points="526.32 21.72 501.1 21.72 507.53 15.29 519.9 15.29 526.32 21.72"/><polygon class="cls-3" points="522.15 21.72 505.28 21.72 508.75 18.24 518.67 18.24 522.15 21.72"/><polygon class="cls-3" points="530.51 0 521.12 9.38 506.31 9.38 496.92 0 530.51 0"/><polygon class="cls-2" points="526.33 0 519.9 6.43 507.53 6.43 501.09 0 526.33 0"/><polygon class="cls-4" points="522.16 0 518.67 3.49 508.75 3.49 505.27 0 522.16 0"/><polygon class="cls-2" points="477.92 21.72 467.06 10.86 477.92 0 492.74 0 503.6 10.86 492.73 21.72 477.92 21.72"/><polygon class="cls-4" points="499.43 10.86 491.51 18.77 479.14 18.77 471.23 10.86 479.14 2.95 491.51 2.95 499.43 10.86"/><path class="cls-5" d="M490.71,8.6h-2.19a.93.93,0,0,1-.93-.92h0a2.31,2.31,0,0,0-1.78-2.29,2.27,2.27,0,0,0-2.74,2.21v.08a.93.93,0,0,1-.93.92H480a2.3,2.3,0,0,0-2.28,1.78,2.26,2.26,0,0,0,2.21,2.74h2.26a.93.93,0,0,1,.93.93h0a2.31,2.31,0,0,0,1.53,2.22,2.27,2.27,0,0,0,3-2.15v-.07a.93.93,0,0,1,.93-.93h2.26A2.26,2.26,0,0,0,493,10.38,2.3,2.3,0,0,0,490.71,8.6Z"/><path class="cls-3" d="M485.33,14.86a.77.77,0,0,1-.25,0,.74.74,0,0,1-.44-.72,2.5,2.5,0,0,0-2.5-2.5h-2.26a.69.69,0,0,1-.54-.26.67.67,0,0,1-.13-.58.73.73,0,0,1,.74-.54h2.19a2.5,2.5,0,0,0,2.5-2.49V7.65a.7.7,0,0,1,.69-.69l.16,0a.75.75,0,0,1,.53.75,2.5,2.5,0,0,0,2.5,2.49h2.19a.74.74,0,0,1,.74.53.7.7,0,0,1-.67.85h-2.26a2.5,2.5,0,0,0-2.5,2.5v.07A.7.7,0,0,1,485.33,14.86Z"/><polygon class="cls-1" points="553.69 0 587.27 0 577.89 9.38 563.08 9.38 553.69 0"/><polygon class="cls-2" points="557.87 0 583.1 0 576.67 6.43 564.3 6.43 557.87 0"/><polygon class="cls-3" points="562.04 0 578.92 0 575.45 3.48 565.52 3.48 562.04 0"/><polygon class="cls-3" points="553.68 21.72 563.08 12.34 577.89 12.34 587.27 21.72 553.68 21.72"/><polygon class="cls-2" points="557.86 21.72 564.3 15.28 576.67 15.28 583.1 21.72 557.86 21.72"/><polygon class="cls-4" points="562.03 21.72 565.52 18.23 575.45 18.23 578.92 21.72 562.03 21.72"/><polygon class="cls-2" points="549.5 21.72 560.37 10.86 549.5 0 534.69 0 523.82 10.86 534.69 21.72 549.5 21.72"/><polygon class="cls-6" points="528 10.86 535.91 18.77 548.28 18.77 556.2 10.86 548.28 2.95 535.91 2.95 528 10.86"/><path class="cls-5" d="M536.72,8.6h2.19a.92.92,0,0,0,.92-.92h0a2.32,2.32,0,0,1,1.79-2.29,2.27,2.27,0,0,1,2.74,2.21v.08a.92.92,0,0,0,.92.92h2.19a2.31,2.31,0,0,1,2.29,1.78,2.27,2.27,0,0,1-2.21,2.74h-2.27a.93.93,0,0,0-.92.93h0a2.32,2.32,0,0,1-1.54,2.22,2.27,2.27,0,0,1-3-2.15v-.07a.93.93,0,0,0-.92-.93h-2.26a2.27,2.27,0,0,1-2.22-2.74A2.31,2.31,0,0,1,536.72,8.6Z"/><polygon class="cls-1" points="644.04 21.72 610.46 21.72 619.84 12.34 634.65 12.34 644.04 21.72"/><polygon class="cls-2" points="639.86 21.72 614.64 21.72 621.06 15.29 633.43 15.29 639.86 21.72"/><polygon class="cls-3" points="635.69 21.72 618.82 21.72 622.28 18.24 632.21 18.24 635.69 21.72"/><polygon class="cls-3" points="644.05 0 634.65 9.38 619.84 9.38 610.46 0 644.05 0"/><polygon class="cls-2" points="639.87 0 633.43 6.43 621.06 6.43 614.63 0 639.87 0"/><polygon class="cls-4" points="635.7 0 632.21 3.49 622.28 3.49 618.81 0 635.7 0"/><polygon class="cls-2" points="591.46 21.72 580.59 10.86 591.46 0 606.27 0 617.14 10.86 606.27 21.72 591.46 21.72"/><polygon class="cls-4" points="612.96 10.86 605.05 18.77 592.68 18.77 584.77 10.86 592.68 2.95 605.05 2.95 612.96 10.86"/><path class="cls-5" d="M604.24,8.6h-2.19a.92.92,0,0,1-.92-.92h0a2.32,2.32,0,0,0-1.78-2.29A2.28,2.28,0,0,0,596.6,7.6v.08a.92.92,0,0,1-.92.92h-2.19a2.32,2.32,0,0,0-2.29,1.78,2.27,2.27,0,0,0,2.22,2.74h2.26a.93.93,0,0,1,.92.93h0a2.32,2.32,0,0,0,1.54,2.22,2.27,2.27,0,0,0,3-2.15v-.07a.93.93,0,0,1,.92-.93h2.27a2.27,2.27,0,0,0,2.21-2.74A2.31,2.31,0,0,0,604.24,8.6Z"/><path class="cls-3" d="M598.87,14.86a.68.68,0,0,1-.69-.76,2.5,2.5,0,0,0-2.5-2.5h-2.26a.69.69,0,0,1-.54-.26.67.67,0,0,1-.13-.58.73.73,0,0,1,.74-.54h2.19a2.5,2.5,0,0,0,2.5-2.49V7.65a.7.7,0,0,1,.69-.69L599,7a.75.75,0,0,1,.54.75,2.5,2.5,0,0,0,2.49,2.49h2.19a.75.75,0,0,1,.75.53.65.65,0,0,1-.14.59.67.67,0,0,1-.53.26h-2.27a2.5,2.5,0,0,0-2.49,2.5v.07A.7.7,0,0,1,598.87,14.86Z"/><polygon class="cls-1" points="667.23 0 700.8 0 691.43 9.38 676.61 9.38 667.23 0"/><polygon class="cls-2" points="671.41 0 696.63 0 690.21 6.43 677.84 6.43 671.41 0"/><polygon class="cls-3" points="675.58 0 692.45 0 688.98 3.48 679.06 3.48 675.58 0"/><polygon class="cls-3" points="667.22 21.72 676.61 12.34 691.43 12.34 700.81 21.72 667.22 21.72"/><polygon class="cls-2" points="671.4 21.72 677.84 15.28 690.21 15.28 696.64 21.72 671.4 21.72"/><polygon class="cls-4" points="675.57 21.72 679.06 18.23 688.98 18.23 692.46 21.72 675.57 21.72"/><polygon class="cls-2" points="663.04 21.72 673.91 10.86 663.04 0 648.23 0 637.36 10.86 648.23 21.72 663.04 21.72"/><polygon class="cls-6" points="641.54 10.86 649.45 18.77 661.82 18.77 669.73 10.86 661.82 2.95 649.45 2.95 641.54 10.86"/><path class="cls-5" d="M650.26,8.6h2.19a.92.92,0,0,0,.92-.92h0a2.32,2.32,0,0,1,1.78-2.29A2.28,2.28,0,0,1,657.9,7.6v.08a.92.92,0,0,0,.92.92H661a2.32,2.32,0,0,1,2.29,1.78,2.27,2.27,0,0,1-2.22,2.74h-2.26a.93.93,0,0,0-.92.93h0a2.32,2.32,0,0,1-1.54,2.22,2.27,2.27,0,0,1-3-2.15v-.07a.93.93,0,0,0-.92-.93h-2.27A2.27,2.27,0,0,1,648,10.38,2.31,2.31,0,0,1,650.26,8.6Z"/><polygon class="cls-2" points="705 21.72 694.13 10.86 705 0 719.81 0 730.68 10.86 719.81 21.72 705 21.72"/><polygon class="cls-4" points="726.5 10.86 718.59 18.77 706.22 18.77 698.3 10.86 706.22 2.95 718.59 2.95 726.5 10.86"/><path class="cls-5" d="M717.78,8.6h-2.19a.92.92,0,0,1-.92-.92h0a2.32,2.32,0,0,0-1.79-2.29,2.27,2.27,0,0,0-2.74,2.21v.08a.92.92,0,0,1-.92.92H707a2.31,2.31,0,0,0-2.29,1.78A2.27,2.27,0,0,0,707,13.12h2.27a.93.93,0,0,1,.92.93h0a2.32,2.32,0,0,0,1.54,2.22,2.27,2.27,0,0,0,3-2.15v-.07a.93.93,0,0,1,.92-.93h2.26a2.27,2.27,0,0,0,2.22-2.74A2.31,2.31,0,0,0,717.78,8.6Z"/><path class="cls-3" d="M712.4,14.86a.67.67,0,0,1-.24,0,.73.73,0,0,1-.44-.72,2.5,2.5,0,0,0-2.5-2.5H707a.67.67,0,0,1-.53-.26.7.7,0,0,1-.14-.58.75.75,0,0,1,.75-.54h2.19a2.5,2.5,0,0,0,2.5-2.49V7.65A.7.7,0,0,1,712.4,7l.16,0a.75.75,0,0,1,.53.75,2.5,2.5,0,0,0,2.5,2.49h2.19a.76.76,0,0,1,.75.53.71.71,0,0,1-.14.59.67.67,0,0,1-.54.26h-2.26a2.5,2.5,0,0,0-2.5,2.5v.07A.69.69,0,0,1,712.4,14.86Z"/><polygon class="cls-3" points="19.63 21.72 0 21.72 0 2.09 19.63 21.72"/><polygon class="cls-2" points="15.46 21.72 0 21.72 0 6.26 15.46 21.72"/><polygon class="cls-4" points="11.29 21.72 0 21.72 0 10.43 11.29 21.72"/><polygon class="cls-3" points="723.95 21.72 743.58 21.72 743.58 2.09 723.95 21.72"/><polygon class="cls-2" points="728.12 21.72 743.58 21.72 743.58 6.26 728.12 21.72"/><polygon class="cls-4" points="732.29 21.72 743.58 21.72 743.58 10.43 732.29 21.72"/></g></g></svg>