<svg width="35" height="39" viewBox="0 0 35 39" fill="none" xmlns="http://www.w3.org/2000/svg">
<path d="M30.7762 19.167C30.7773 18.2832 30.4384 17.4329 29.8297 16.7922C29.221 16.1514 28.3892 15.7694 27.5065 15.7252C27.0293 14.2851 26.2592 12.9593 25.2448 11.8311C25.6563 11.0445 25.7479 10.1294 25.5006 9.27683C25.2533 8.42427 24.6861 7.70025 23.9175 7.25601C23.149 6.81176 22.2385 6.68164 21.3763 6.89284C20.5141 7.10403 19.7668 7.6402 19.2906 8.38935C18.5499 8.23487 17.7953 8.15743 17.0387 8.15827C16.2804 8.1615 15.5244 8.24056 14.7819 8.39427C14.2919 7.67693 13.5487 7.17141 12.7016 6.97914C11.8544 6.78688 10.9659 6.92208 10.2142 7.35763C9.46258 7.79319 8.90345 8.49686 8.64901 9.32748C8.39457 10.1581 8.46364 11.0542 8.84237 11.836C7.83346 12.9783 7.07625 14.3202 6.61998 15.7744C5.70717 15.7744 4.83175 16.137 4.18629 16.7825C3.54084 17.4279 3.17822 18.3033 3.17822 19.2161C3.17822 20.129 3.54084 21.0044 4.18629 21.6498C4.83175 22.2953 5.70717 22.6579 6.61998 22.6579C7.09611 24.1 7.86625 25.4277 8.88171 26.5569C8.47023 27.3435 8.37859 28.2587 8.62593 29.1112C8.87326 29.9638 9.44044 30.6878 10.209 31.132C10.9775 31.5763 11.888 31.7064 12.7502 31.4952C13.6124 31.284 14.3597 30.7478 14.8359 29.9987C15.5771 30.1492 16.3315 30.225 17.0878 30.2248C17.8428 30.2088 18.5942 30.1149 19.3299 29.9446C19.8162 30.6708 20.5605 31.1848 21.4119 31.3824C22.2633 31.5799 23.1579 31.4461 23.9143 31.0082C24.6707 30.5703 25.2321 29.861 25.4847 29.0243C25.7372 28.1876 25.662 27.2861 25.2743 26.5028C26.2833 25.3696 27.0482 24.0407 27.5213 22.5989C28.3996 22.5511 29.2264 22.1689 29.8317 21.5307C30.437 20.8924 30.775 20.0466 30.7762 19.167Z" fill="white"/>
<path d="M23.2191 7.63717C23.2191 9.78581 21.2524 12.554 17.0436 12.554C12.8349 12.554 10.8534 9.78581 10.8534 7.65684C10.8285 6.94488 11.0586 6.24742 11.5024 5.69012C11.4134 5.4171 11.3686 5.1316 11.3697 4.84443C11.3684 4.47211 11.4405 4.10318 11.5819 3.75876C11.7234 3.41434 11.9313 3.10119 12.1939 2.83723C12.4565 2.57327 12.7686 2.36368 13.1123 2.22045C13.4559 2.07722 13.8245 2.00317 14.1968 2.00253H14.3099C14.4866 1.42304 14.8448 0.915634 15.3316 0.555092C15.8185 0.194549 16.4083 -6.10352e-05 17.0141 -6.10352e-05C17.62 -6.10352e-05 18.2098 0.194549 18.6966 0.555092C19.1835 0.915634 19.5417 1.42304 19.7184 2.00253H19.8315C20.5822 2.00252 21.3023 2.30007 21.8341 2.82998C22.3658 3.3599 22.6659 4.07897 22.6685 4.82968C22.6688 5.11803 22.6257 5.40478 22.5406 5.68029C22.9897 6.23258 23.23 6.92541 23.2191 7.63717Z" fill="black"/>
<path d="M22.3983 7.81922C22.3983 9.68268 20.6922 12.0772 17.0439 12.0821C13.3957 12.087 11.6797 9.70235 11.6748 7.81922C11.654 7.1968 11.8544 6.58714 12.2402 6.09834C12.1632 5.86172 12.1234 5.61457 12.1222 5.36574C12.1222 4.71373 12.3812 4.08843 12.8423 3.62739C13.3033 3.16635 13.9286 2.90734 14.5806 2.90734H14.679C14.826 2.39455 15.1357 1.94349 15.5616 1.62222C15.9874 1.30095 16.5062 1.1269 17.0396 1.12634C17.5731 1.12579 18.0922 1.29876 18.5187 1.61914C18.9452 1.93952 19.256 2.38994 19.404 2.90242H19.5023C20.1544 2.90242 20.7797 3.16143 21.2407 3.62247C21.7017 4.08351 21.9607 4.70881 21.9607 5.36082C21.9615 5.61104 21.9233 5.85985 21.8477 6.09834C22.2283 6.58915 22.4233 7.19862 22.3983 7.81922Z" fill="white"/>
<path d="M21.2275 8.28128C21.2275 9.75632 19.9 11.61 17.0433 11.6149C14.1866 11.6198 12.8444 9.7514 12.8444 8.31078C12.825 7.82461 12.9822 7.34786 13.2869 6.9685C13.2256 6.78287 13.1941 6.58871 13.1935 6.39323C13.1928 6.141 13.2419 5.89112 13.338 5.65791C13.4341 5.42469 13.5752 5.21272 13.7534 5.03414C13.9315 4.85556 14.1431 4.71387 14.3761 4.6172C14.609 4.52053 14.8588 4.47076 15.111 4.47076H15.1897C15.3056 4.07206 15.5477 3.72175 15.8798 3.47248C16.2118 3.2232 16.6158 3.08844 17.031 3.08844C17.4462 3.08844 17.8502 3.2232 18.1822 3.47248C18.5143 3.72175 18.7565 4.07206 18.8724 4.47076H18.951C19.4533 4.46932 19.9363 4.66453 20.2965 5.01463C20.6567 5.36473 20.8656 5.84191 20.8784 6.34406C20.8794 6.53928 20.8495 6.73343 20.7899 6.91933C21.0949 7.30584 21.2503 7.78943 21.2275 8.28128Z" fill="black"/>
<path d="M17.644 11.6149C17.4408 11.6148 17.2387 11.585 17.0441 11.5264C16.8479 11.5853 16.6442 11.6152 16.4393 11.6149C15.9806 11.6173 15.5334 11.4711 15.1646 11.1982C14.7958 10.9252 14.5254 10.5402 14.3936 10.1008C14.2619 9.66131 14.276 9.19101 14.4338 8.76023C14.5916 8.32945 14.8847 7.96135 15.2691 7.71099C15.3616 7.31147 15.5867 6.95505 15.9077 6.69985C16.2287 6.44465 16.6267 6.30573 17.0367 6.30573C17.4468 6.30573 17.8448 6.44465 18.1658 6.69985C18.4868 6.95505 18.7119 7.31147 18.8043 7.71099C19.2021 7.95529 19.5083 8.32383 19.6756 8.75963C19.8429 9.19542 19.862 9.67419 19.7299 10.1219C19.5979 10.5697 19.322 10.9614 18.9449 11.2366C18.5679 11.5118 18.1106 11.6551 17.644 11.6444V11.6149Z" fill="black"/>
<path d="M18.0856 8.18799C18.088 8.16018 18.088 8.13221 18.0856 8.1044C18.0955 7.95919 18.0755 7.81349 18.0267 7.67635C17.9779 7.53921 17.9015 7.41356 17.8021 7.3072C17.7028 7.20084 17.5826 7.11603 17.4491 7.05805C17.3156 7.00007 17.1716 6.97015 17.026 6.97015C16.8805 6.97015 16.7365 7.00007 16.603 7.05805C16.4695 7.11603 16.3493 7.20084 16.25 7.3072C16.1506 7.41356 16.0742 7.53921 16.0254 7.67635C15.9766 7.81349 15.9566 7.95919 15.9665 8.1044C15.9638 8.13056 15.9638 8.15692 15.9665 8.18307C15.6539 8.28915 15.3899 8.50399 15.2225 8.78845C15.055 9.0729 14.9954 9.40804 15.0544 9.73279C15.1134 10.0575 15.2871 10.3503 15.5438 10.5577C15.8006 10.7651 16.1233 10.8733 16.4532 10.8627C16.6614 10.8615 16.8666 10.8127 17.0531 10.7201C17.2415 10.8123 17.4481 10.8611 17.6579 10.8627C17.9852 10.866 18.3029 10.7521 18.5536 10.5416C18.8043 10.3311 18.9714 10.0379 19.0249 9.71491C19.0783 9.39195 19.0145 9.06053 18.8449 8.78051C18.6754 8.50049 18.4113 8.29033 18.1004 8.18799H18.0856Z" fill="white"/>
<path d="M10.1314 8.07481C11.9948 9.14668 13.401 12.2443 11.3016 15.8827C9.20209 19.5211 5.82917 19.8653 3.9657 18.7983C3.33205 18.4607 2.83763 17.9106 2.56933 17.2446C2.28948 17.1829 2.02082 17.0785 1.77281 16.9349C1.44996 16.7502 1.16664 16.5038 0.93904 16.2096C0.711435 15.9155 0.543999 15.5794 0.446293 15.2205C0.348587 14.8616 0.322524 14.487 0.369593 14.1181C0.416661 13.7492 0.535939 13.3931 0.720615 13.0703L0.784534 12.9719C0.36198 12.5297 0.0939365 11.9626 0.0204944 11.3554C-0.0529477 10.7482 0.0721583 10.1336 0.377101 9.60337C0.682044 9.07317 1.15043 8.65595 1.71222 8.4141C2.274 8.17225 2.89898 8.11877 3.49369 8.26165C3.51207 8.22822 3.52848 8.19374 3.54286 8.1584C3.9192 7.50854 4.53786 7.03442 5.2632 6.83995C5.98855 6.64548 6.76141 6.74653 7.41238 7.12095C7.6668 7.26075 7.89747 7.43998 8.09581 7.65197C8.80286 7.55173 9.52273 7.70126 10.1314 8.07481Z" fill="black"/>
<path d="M9.87983 8.88124C11.4925 9.81051 12.7119 12.4852 10.8927 15.6467C9.07348 18.8082 6.12832 19.1278 4.53527 18.174C3.9835 17.8846 3.55419 17.4064 3.32574 16.8268C3.08202 16.7756 2.848 16.686 2.63247 16.5613C2.07364 16.2362 1.66535 15.7041 1.49602 15.0801C1.32669 14.4562 1.40996 13.7907 1.72778 13.2277C1.74406 13.1987 1.76213 13.1708 1.78187 13.1441C1.41973 12.7599 1.19087 12.2694 1.12916 11.7451C1.06745 11.2208 1.17617 10.6905 1.43923 10.2328C1.70229 9.77506 2.10571 9.41417 2.5898 9.20352C3.0739 8.99287 3.61294 8.94366 4.12718 9.06316C4.14388 9.03467 4.15867 9.00511 4.17143 8.97466C4.49661 8.41052 5.0323 7.99844 5.66096 7.82883C6.28962 7.65922 6.95989 7.74594 7.52469 8.06997C7.74349 8.20127 7.93945 8.36734 8.10487 8.56164C8.7157 8.45526 9.34447 8.56847 9.87983 8.88124Z" fill="white"/>
<path d="M9.69304 10.1251C10.9567 10.8479 11.9105 12.9375 10.4846 15.4156C9.05877 17.8937 6.77738 18.1149 5.51376 17.3823C5.0837 17.153 4.74911 16.7783 4.56973 16.3252C4.37979 16.285 4.19731 16.2153 4.02889 16.1187C3.81013 15.9933 3.61825 15.826 3.46424 15.6263C3.31022 15.4267 3.1971 15.1986 3.13133 14.9552C3.06557 14.7118 3.04846 14.4578 3.08098 14.2077C3.1135 13.9577 3.19502 13.7165 3.32087 13.498C3.33097 13.4739 3.34605 13.4521 3.36512 13.4341C3.07597 13.1353 2.89181 12.7505 2.8404 12.3379C2.78898 11.9252 2.8731 11.507 3.08007 11.1464C3.28704 10.7857 3.60564 10.5021 3.98785 10.3383C4.37007 10.1745 4.79517 10.1393 5.19908 10.2382L5.2335 10.1694C5.38421 9.9091 5.59389 9.68782 5.84567 9.52332C6.09744 9.35882 6.38431 9.25569 6.68319 9.22221C6.98208 9.18874 7.28465 9.22585 7.56658 9.33058C7.84851 9.4353 8.10194 9.60471 8.3065 9.82519C8.78961 9.75786 9.28094 9.86414 9.69304 10.1251Z" fill="black"/>
<path d="M10.7896 14.8944C10.687 15.0753 10.5596 15.2408 10.411 15.3861C10.3635 15.5846 10.2873 15.7751 10.1848 15.9516C9.95686 16.3487 9.60667 16.6616 9.18643 16.8435C8.7662 17.0254 8.29843 17.0666 7.85285 16.961C7.40728 16.8554 7.00776 16.6087 6.71384 16.2575C6.41993 15.9064 6.24736 15.4697 6.22187 15.0125C5.91773 14.7348 5.71738 14.3618 5.65393 13.9549C5.59048 13.548 5.66773 13.1316 5.8729 12.7746C6.07807 12.4175 6.3989 12.1412 6.78239 11.9911C7.16588 11.8411 7.58908 11.8263 7.98209 11.9493C8.38989 11.745 8.85253 11.6771 9.30184 11.7556C9.75115 11.834 10.1634 12.0547 10.4778 12.3851C10.7923 12.7155 10.9923 13.1382 11.0484 13.5908C11.1045 14.0435 11.0138 14.5022 10.7896 14.8994V14.8944Z" fill="black"/>
<path d="M8.04134 12.7949L7.97251 12.7457C7.72991 12.6229 7.44943 12.5978 7.18886 12.6756C6.92829 12.7534 6.70749 12.9282 6.57196 13.1639C6.43643 13.3997 6.3965 13.6784 6.4604 13.9427C6.52429 14.2071 6.68715 14.4368 6.9154 14.5846L6.99407 14.619C6.92807 14.94 6.97912 15.2739 7.13798 15.5605C7.29684 15.847 7.55302 16.0673 7.86016 16.1813C8.16731 16.2954 8.50514 16.2958 8.81253 16.1824C9.11992 16.069 9.37657 15.8493 9.53605 15.5631C9.63925 15.3807 9.69977 15.1773 9.71306 14.9681C9.88745 14.8525 10.0323 14.6976 10.1359 14.5158C10.3022 14.234 10.3623 13.9021 10.3053 13.5798C10.2484 13.2576 10.0781 12.9664 9.82531 12.7587C9.5725 12.551 9.25377 12.4405 8.92664 12.4471C8.5995 12.4538 8.28552 12.5771 8.04134 12.7949Z" fill="white"/>
<path d="M3.96509 19.6195C5.82364 18.5378 9.19656 18.8623 11.3108 22.5056C13.425 26.149 12.0286 29.2515 10.1701 30.3283C9.56159 30.7115 8.83627 30.8649 8.1247 30.7609C7.93103 30.9733 7.70542 31.1541 7.45602 31.2969C6.80655 31.6734 6.03414 31.7767 5.30854 31.584C4.58295 31.3913 3.96356 30.9184 3.5865 30.2692C3.5865 30.2348 3.557 30.2004 3.53733 30.166C2.94243 30.3143 2.31544 30.2652 1.75089 30.026C1.18634 29.7869 0.714822 29.3708 0.407416 28.8403C0.10001 28.3098 -0.0266215 27.6938 0.0466111 27.0851C0.119844 26.4764 0.388971 25.908 0.813423 25.4655C0.789332 25.4364 0.767938 25.4051 0.749504 25.3721C0.562597 25.0504 0.441029 24.695 0.391772 24.3262C0.342515 23.9574 0.366538 23.5825 0.462462 23.223C0.558386 22.8635 0.724326 22.5265 0.950767 22.2313C1.17721 21.9361 1.45969 21.6884 1.78203 21.5026C2.02926 21.3574 2.29818 21.2528 2.57855 21.1928C2.83749 20.5193 3.32947 19.961 3.96509 19.6195Z" fill="black"/>
<path d="M4.53504 20.2538C6.12808 19.3196 9.07816 19.6195 10.9023 22.7565C12.7264 25.8934 11.5267 28.5927 9.91893 29.5269C9.39181 29.8572 8.76453 29.9896 8.14888 29.9006C7.98062 30.092 7.78514 30.2577 7.5687 30.3922C7.28677 30.552 6.97603 30.6545 6.65435 30.6938C6.33267 30.7331 6.0064 30.7084 5.6943 30.6211C5.3822 30.5338 5.09044 30.3857 4.8358 30.1853C4.58116 29.9848 4.36866 29.736 4.21053 29.4531C4.19382 29.4246 4.17904 29.3951 4.16628 29.3646C3.656 29.481 3.12188 29.4315 2.64168 29.2233C2.16148 29.0152 1.76025 28.6592 1.49639 28.2071C1.23254 27.7551 1.11983 27.2307 1.17467 26.7102C1.22951 26.1897 1.44903 25.7003 1.8013 25.3132C1.8013 25.2837 1.76196 25.2591 1.74721 25.2296C1.42237 24.666 1.33415 23.9966 1.50188 23.3681C1.66961 22.7396 2.07961 22.2032 2.64207 21.8763C2.85578 21.7425 3.08997 21.6445 3.33534 21.5863C3.56467 21.0139 3.98985 20.5417 4.53504 20.2538Z" fill="white"/>
<path d="M5.51898 21.0306C6.78259 20.3029 9.0689 20.5389 10.4997 22.9973C11.9305 25.4557 10.9914 27.5601 9.72775 28.2927C9.31439 28.5503 8.82316 28.653 8.34122 28.5828C8.1374 28.8047 7.88428 28.9756 7.60228 29.0817C7.32028 29.1878 7.01729 29.2261 6.71776 29.1935C6.41822 29.161 6.13053 29.0585 5.87789 28.8944C5.62524 28.7302 5.41472 28.5089 5.2633 28.2485L5.22889 28.1796C4.82607 28.2783 4.40212 28.2438 4.02061 28.0811C3.63909 27.9185 3.32059 27.6366 3.11286 27.2776C2.90513 26.9187 2.81938 26.502 2.86846 26.0902C2.91754 25.6784 3.09881 25.2936 3.38509 24.9935C3.38509 24.9689 3.35067 24.9493 3.34084 24.9296C3.08562 24.4888 3.0158 23.9647 3.14671 23.4724C3.27762 22.9801 3.59855 22.5599 4.03902 22.304C4.20722 22.2059 4.38969 22.1346 4.57987 22.0926C4.75703 21.6384 5.08989 21.262 5.51898 21.0306Z" fill="black"/>
<path d="M10.1989 22.4713C10.3043 22.6546 10.3791 22.8539 10.4201 23.0613C10.5718 23.2052 10.701 23.3709 10.8036 23.553C11.0293 23.9491 11.1215 24.4073 11.0667 24.8598C11.0118 25.3123 10.8129 25.7352 10.4992 26.0659C10.1856 26.3967 9.77382 26.6178 9.32484 26.6965C8.87585 26.7752 8.41346 26.7074 8.00598 26.5031C7.61321 26.6277 7.18968 26.6145 6.80542 26.4657C6.42117 26.3169 6.09921 26.0414 5.8928 25.6848C5.68639 25.3282 5.60789 24.9118 5.67028 24.5045C5.73267 24.0972 5.93223 23.7233 6.23593 23.4449C6.25952 22.9869 6.43071 22.5488 6.7239 22.1962C7.0171 21.8435 7.41655 21.5952 7.86254 21.4885C8.30854 21.3817 8.77712 21.4221 9.19824 21.6037C9.61936 21.7853 9.97039 22.0983 10.1989 22.4959V22.4713Z" fill="black"/>
<path d="M7.00867 23.7987L6.93492 23.8332C6.80443 23.8974 6.68855 23.9879 6.59444 24.0988C6.50034 24.2097 6.43003 24.3388 6.38787 24.478C6.34571 24.6172 6.3326 24.7636 6.34935 24.9081C6.36611 25.0526 6.41237 25.1922 6.48526 25.318C6.55816 25.4439 6.65614 25.5535 6.77313 25.6399C6.89012 25.7264 7.02362 25.7879 7.16535 25.8206C7.30709 25.8533 7.45404 25.8566 7.59709 25.8302C7.74014 25.8038 7.87624 25.7483 7.99695 25.6671L8.06579 25.618C8.31228 25.829 8.62542 25.9463 8.94993 25.9489C9.27445 25.9516 9.58947 25.8395 9.8394 25.6325C10.0893 25.4255 10.2581 25.1369 10.3159 24.8176C10.3737 24.4982 10.3169 24.1687 10.1554 23.8872C10.0471 23.7088 9.90109 23.5561 9.72766 23.4398C9.71978 23.2323 9.66605 23.0291 9.57032 22.8449C9.40691 22.5635 9.14909 22.349 8.84261 22.2396C8.53612 22.1302 8.20079 22.1329 7.89611 22.2472C7.59143 22.3616 7.3371 22.5801 7.17824 22.8642C7.01939 23.1482 6.96628 23.4793 7.02834 23.7987H7.00867Z" fill="white"/>
<path d="M10.8931 30.7463C10.8931 28.5977 12.8598 25.8295 17.0686 25.8295C21.2774 25.8295 23.2588 28.578 23.2588 30.7463C23.2837 31.4583 23.0536 32.1557 22.6098 32.713C22.6993 32.986 22.7441 33.2715 22.7426 33.5587C22.7439 33.9304 22.6718 34.2987 22.5307 34.6425C22.3895 34.9863 22.1819 35.299 21.9197 35.5625C21.6576 35.826 21.3461 36.0352 21.003 36.1782C20.6599 36.3212 20.292 36.3951 19.9203 36.3957H19.8023C19.6325 36.985 19.2756 37.503 18.7856 37.8717C18.2956 38.2404 17.699 38.4398 17.0858 38.4398C16.4726 38.4398 15.876 38.2404 15.386 37.8717C14.896 37.503 14.5391 36.985 14.3693 36.3957H14.2562C13.8843 36.3964 13.5159 36.3238 13.172 36.182C12.8282 36.0403 12.5156 35.8322 12.2521 35.5697C11.9887 35.3072 11.7796 34.9953 11.6366 34.652C11.4937 34.3086 11.4198 33.9405 11.4192 33.5686C11.4134 33.2838 11.4533 33 11.5372 32.7278C11.0926 32.1655 10.8641 31.4626 10.8931 30.7463Z" fill="black"/>
<path d="M11.7137 30.5641C11.7137 28.7006 13.4199 26.3061 17.0681 26.3012C20.7164 26.2963 22.4323 28.6809 22.4373 30.5444C22.4574 31.1684 22.2533 31.7789 21.862 32.2653C21.9413 32.5014 21.9812 32.7489 21.98 32.9979C21.98 33.6499 21.721 34.2752 21.26 34.7362C20.7989 35.1973 20.1736 35.4563 19.5216 35.4563H19.4184C19.2667 35.963 18.9556 36.4073 18.5313 36.7232C18.107 37.0391 17.5922 37.2097 17.0632 37.2097C16.5343 37.2097 16.0194 37.0391 15.5951 36.7232C15.1708 36.4073 14.8598 35.963 14.7081 35.4563H14.6097C13.9577 35.4563 13.3324 35.1973 12.8714 34.7362C12.4103 34.2752 12.1513 33.6499 12.1513 32.9979C12.1509 32.7493 12.1891 32.5022 12.2644 32.2653C11.8889 31.7793 11.6943 31.1779 11.7137 30.5641Z" fill="white"/>
<path d="M12.8848 30.102C12.8848 28.6269 14.2172 26.7733 17.069 26.7684C19.9207 26.7635 21.2679 28.6269 21.2679 30.0872C21.2836 30.5691 21.1287 31.041 20.8303 31.4197C20.8899 31.6056 20.9198 31.7997 20.9188 31.9949C20.9195 32.2472 20.8703 32.497 20.7743 32.7303C20.6782 32.9635 20.537 33.1754 20.3589 33.354C20.1808 33.5326 19.9692 33.6743 19.7362 33.771C19.5032 33.8676 19.2535 33.9174 19.0013 33.9174H18.9128C18.7969 34.3161 18.5547 34.6664 18.2227 34.9157C17.8906 35.165 17.4866 35.2997 17.0714 35.2997C16.6562 35.2997 16.2522 35.165 15.9202 34.9157C15.5881 34.6664 15.346 34.3161 15.2301 33.9174H15.1514C14.6424 33.9174 14.1541 33.7155 13.7938 33.3561C13.4334 32.9966 13.2302 32.5089 13.2289 31.9999C13.228 31.8046 13.2578 31.6105 13.3174 31.4246C13.0231 31.0478 12.87 30.5799 12.8848 30.102Z" fill="black"/>
<path d="M16.454 26.7684C16.6572 26.7685 16.8593 26.7983 17.0539 26.8569C17.2501 26.798 17.4538 26.7682 17.6587 26.7684C18.1174 26.766 18.5646 26.9122 18.9334 27.1852C19.3022 27.4581 19.5726 27.8431 19.7044 28.2826C19.8361 28.722 19.822 29.1923 19.6642 29.6231C19.5063 30.0539 19.2133 30.422 18.8288 30.6723C18.7364 31.0719 18.5113 31.4283 18.1903 31.6835C17.8693 31.9387 17.4713 32.0776 17.0613 32.0776C16.6512 32.0776 16.2532 31.9387 15.9322 31.6835C15.6112 31.4283 15.3861 31.0719 15.2937 30.6723C14.8959 30.428 14.5897 30.0595 14.4224 29.6237C14.2551 29.1879 14.236 28.7091 14.368 28.2614C14.5001 27.8137 14.776 27.4219 15.1531 27.1467C15.5301 26.8715 15.9874 26.7282 16.454 26.7389V26.7684Z" fill="black"/>
<path d="M16.026 30.1957C16.0236 30.2235 16.0236 30.2515 16.026 30.2793C16.0161 30.4245 16.0362 30.5702 16.0849 30.7073C16.1337 30.8445 16.2101 30.9701 16.3095 31.0765C16.4089 31.1828 16.529 31.2676 16.6625 31.3256C16.796 31.3836 16.94 31.4135 17.0856 31.4135C17.2311 31.4135 17.3751 31.3836 17.5086 31.3256C17.6421 31.2676 17.7623 31.1828 17.8617 31.0765C17.961 30.9701 18.0375 30.8445 18.0862 30.7073C18.135 30.5702 18.1551 30.4245 18.1452 30.2793C18.1475 30.2515 18.1475 30.2235 18.1452 30.1957C18.323 30.1352 18.4864 30.0388 18.6255 29.9125C18.7645 29.7862 18.8761 29.6327 18.9534 29.4616C19.0307 29.2904 19.072 29.1051 19.0748 28.9174C19.0775 28.7296 19.0417 28.5432 18.9695 28.3698C18.8973 28.1964 18.7903 28.0397 18.6551 27.9094C18.5199 27.779 18.3593 27.6778 18.1834 27.6121C18.0074 27.5463 17.8199 27.5174 17.6323 27.5271C17.4448 27.5368 17.2612 27.5849 17.093 27.6684C16.8946 27.5694 16.6755 27.5188 16.4538 27.5209C16.1264 27.5177 15.8087 27.6316 15.558 27.8421C15.3073 28.0526 15.1402 28.3458 15.0868 28.6688C15.0333 28.9917 15.0971 29.3231 15.2667 29.6032C15.4362 29.8832 15.7003 30.0933 16.0113 30.1957H16.026Z" fill="white"/>
<path d="M23.982 30.3085C22.1234 29.2366 20.7172 26.1538 22.8167 22.5006C24.9161 18.8474 28.2841 18.5131 30.1476 19.585C30.7826 19.9209 31.2775 20.4716 31.544 21.1387C31.8238 21.2004 32.0925 21.3048 32.3405 21.4484C32.9917 21.8222 33.4678 22.4392 33.6642 23.1639C33.8606 23.8886 33.7612 24.6616 33.3878 25.313L33.3239 25.4114C33.748 25.8527 34.0174 26.4199 34.0917 27.0275C34.1659 27.6351 34.0409 28.2504 33.7354 28.7809C33.43 29.3114 32.9606 29.7285 32.3979 29.9693C31.8351 30.2102 31.2094 30.2619 30.6147 30.1167C30.6147 30.1561 30.5852 30.1905 30.5655 30.2249C30.1892 30.8748 29.5705 31.3489 28.8452 31.5434C28.1198 31.7378 27.347 31.6368 26.696 31.2624C26.4455 31.1212 26.2197 30.9402 26.0273 30.7264C25.3176 30.8339 24.5927 30.6858 23.982 30.3085Z" fill="black"/>
<path d="M24.2371 29.5021C22.6194 28.5728 21.4001 25.8981 23.2193 22.7366C25.0385 19.5751 27.964 19.2948 29.5767 20.2093C30.1285 20.4987 30.5578 20.9769 30.7862 21.5566C31.0302 21.6069 31.2643 21.6965 31.4795 21.8221C32.0436 22.1472 32.4557 22.6829 32.6253 23.3116C32.7949 23.9402 32.7082 24.6105 32.3842 25.1753C32.3679 25.2043 32.3499 25.2322 32.3301 25.2589C32.6923 25.6431 32.9211 26.1336 32.9828 26.6579C33.0445 27.1822 32.9358 27.7125 32.6728 28.1702C32.4097 28.6279 32.0063 28.9888 31.5222 29.1995C31.0381 29.4101 30.499 29.4593 29.9848 29.3398L29.9406 29.4283C29.6154 29.9925 29.0797 30.4046 28.451 30.5742C27.8224 30.7438 27.1521 30.6571 26.5873 30.333C26.3703 30.2092 26.1744 30.0515 26.0071 29.8659C25.3926 29.9597 24.7648 29.8306 24.2371 29.5021Z" fill="white"/>
<path d="M24.4196 28.2585C23.1559 27.5357 22.2021 25.4411 23.628 22.968C25.0538 20.4948 27.3352 20.2637 28.5988 21.0013C29.0275 21.23 29.3618 21.6026 29.5429 22.0535C29.733 22.0954 29.9155 22.1667 30.0837 22.2649C30.3025 22.3903 30.4943 22.5576 30.6484 22.7572C30.8024 22.9569 30.9155 23.1849 30.9813 23.4284C31.047 23.6718 31.0641 23.9258 31.0316 24.1758C30.9991 24.4259 30.9176 24.667 30.7917 24.8855C30.7815 24.9085 30.7683 24.93 30.7524 24.9495C31.0401 25.2489 31.2228 25.6337 31.2731 26.0459C31.3233 26.4582 31.2384 26.8756 31.031 27.2354C30.8237 27.5952 30.5051 27.8779 30.1233 28.0412C29.7414 28.2044 29.3169 28.2392 28.9135 28.1405C28.9041 28.166 28.8926 28.1906 28.8791 28.2142C28.7284 28.4745 28.5187 28.6958 28.2669 28.8603C28.0151 29.0248 27.7283 29.1279 27.4294 29.1614C27.1305 29.1948 26.8279 29.1577 26.546 29.053C26.2641 28.9483 26.0106 28.7789 25.8061 28.5584C25.323 28.6257 24.8317 28.5194 24.4196 28.2585Z" fill="black"/>
<path d="M23.337 23.4889C23.4395 23.3081 23.567 23.1426 23.7156 22.9972C23.7631 22.7987 23.8392 22.6083 23.9418 22.4318C24.1688 22.0324 24.5191 21.7174 24.9402 21.534C25.3614 21.3505 25.8306 21.3085 26.2777 21.4143C26.7247 21.5201 27.1253 21.768 27.4196 22.1208C27.7138 22.4735 27.8858 22.9122 27.9096 23.3709C28.2097 23.6505 28.4063 24.0235 28.4672 24.4291C28.5281 24.8347 28.4497 25.2489 28.245 25.6043C28.0402 25.9597 27.721 26.2352 27.3396 26.3859C26.9581 26.5365 26.5369 26.5535 26.1445 26.4341C25.7367 26.6384 25.2741 26.7063 24.8248 26.6278C24.3754 26.5493 23.9632 26.3287 23.6488 25.9983C23.3343 25.6678 23.1343 25.2452 23.0782 24.7925C23.0221 24.3399 23.1128 23.8812 23.337 23.484V23.4889Z" fill="black"/>
<path d="M26.0718 25.5885L26.1406 25.6377C26.3832 25.7606 26.6637 25.7857 26.9243 25.7079C27.1849 25.6301 27.4057 25.4553 27.5412 25.2195C27.6767 24.9838 27.7166 24.705 27.6528 24.4407C27.5889 24.1764 27.426 23.9466 27.1978 23.7988L27.1191 23.7644C27.1501 23.5822 27.1439 23.3956 27.1009 23.2158C27.058 23.036 26.9791 22.8668 26.8691 22.7182C26.7591 22.5697 26.6203 22.4449 26.4608 22.3514C26.3014 22.2578 26.1247 22.1975 25.9414 22.1739C25.758 22.1504 25.5718 22.1642 25.394 22.2144C25.2161 22.2646 25.0502 22.3503 24.9062 22.4662C24.7623 22.5821 24.6432 22.726 24.5563 22.8891C24.4693 23.0522 24.4162 23.2312 24.4001 23.4153C24.2501 23.5224 24.1232 23.6585 24.027 23.8157C23.9308 23.9729 23.8672 24.1478 23.8401 24.3301C23.813 24.5124 23.8229 24.6983 23.8692 24.8766C23.9155 25.055 23.9973 25.2222 24.1097 25.3683C24.222 25.5144 24.3627 25.6363 24.5232 25.7268C24.6837 25.8173 24.8608 25.8746 25.044 25.8951C25.2271 25.9157 25.4125 25.8991 25.5891 25.8464C25.7657 25.7938 25.9299 25.7061 26.0718 25.5885Z" fill="white"/>
<path d="M30.1472 18.7491C28.2886 19.8259 24.9157 19.5063 22.8015 15.858C20.6873 12.2098 22.0836 9.12693 23.9422 8.05015C24.552 7.67024 25.2767 7.51869 25.9876 7.62239C26.1812 7.41006 26.4069 7.22924 26.6563 7.08646C27.3057 6.70989 28.0781 6.6066 28.8037 6.79929C29.5293 6.99198 30.1487 7.46489 30.5258 8.11407C30.5258 8.14849 30.5553 8.18291 30.575 8.21732C31.1699 8.06903 31.7968 8.11815 32.3614 8.35727C32.9259 8.59639 33.3975 9.01255 33.7049 9.54302C34.0123 10.0735 34.1389 10.6895 34.0657 11.2982C33.9924 11.9069 33.7233 12.4754 33.2989 12.9178C33.3229 12.9469 33.3443 12.9782 33.3628 13.0112C33.7393 13.6607 33.8426 14.4331 33.6499 15.1587C33.4573 15.8843 32.9843 16.5037 32.3352 16.8807C32.0858 17.0251 31.8154 17.1296 31.5337 17.1905C31.2737 17.8597 30.7815 18.4129 30.1472 18.7491Z" fill="black"/>
<path d="M29.577 18.1443C27.9642 19.0785 25.0387 18.7983 23.2097 15.6368C21.3807 12.4753 22.5853 9.80544 24.1931 8.87125C24.7202 8.54094 25.3475 8.40851 25.9631 8.49757C26.1285 8.30327 26.3245 8.1372 26.5433 8.00589C27.1069 7.68105 27.7763 7.59283 28.4048 7.76056C29.0333 7.92829 29.5697 8.33829 29.8965 8.90075C29.9132 8.92923 29.928 8.9588 29.9408 8.98925C30.4547 8.86678 30.9945 8.91314 31.48 9.12146C31.9655 9.32978 32.371 9.68897 32.6364 10.1458C32.9018 10.6026 33.0129 11.1328 32.9534 11.6578C32.8938 12.1828 32.6667 12.6746 32.3058 13.0604C32.3255 13.0871 32.3436 13.115 32.3599 13.1439C32.6847 13.7075 32.7729 14.3769 32.6052 15.0054C32.4375 15.634 32.0275 16.1704 31.465 16.4972C31.2514 16.6233 31.019 16.7146 30.7766 16.7676C30.5536 17.3548 30.1281 17.8431 29.577 18.1443Z" fill="white"/>
<path d="M28.5941 17.3528C27.3305 18.0805 25.0441 17.8445 23.6134 15.3861C22.1826 12.9277 23.1217 10.8233 24.3853 10.0907C24.8035 9.82222 25.3047 9.71395 25.7964 9.78587C25.9267 9.64116 26.0795 9.51831 26.2488 9.42203C26.6896 9.16681 27.2137 9.097 27.706 9.2279C28.1983 9.35881 28.6185 9.67974 28.8743 10.1202C28.8743 10.1202 28.8743 10.1645 28.9087 10.189C29.3122 10.0962 29.7349 10.1365 30.1135 10.3038C30.4922 10.4711 30.8066 10.7564 31.0097 11.1172C31.2127 11.478 31.2936 11.8948 31.2402 12.3053C31.1867 12.7158 31.0019 13.098 30.7132 13.3948C30.7307 13.4141 30.7456 13.4356 30.7575 13.4587C31.0127 13.8996 31.0825 14.4237 30.9516 14.916C30.8207 15.4082 30.4998 15.8284 30.0593 16.0843C29.8901 16.1804 29.7079 16.2516 29.5184 16.2957C29.3443 16.7459 29.017 17.1202 28.5941 17.3528Z" fill="black"/>
<path d="M23.9125 15.9123C23.8095 15.7366 23.7348 15.5458 23.6912 15.3469C23.5396 15.203 23.4103 15.0373 23.3077 14.8552C23.0821 14.4591 22.9899 14.001 23.0447 13.5484C23.0995 13.0959 23.2985 12.673 23.6121 12.3423C23.9258 12.0115 24.3375 11.7904 24.7865 11.7117C25.2355 11.633 25.6979 11.7008 26.1054 11.9051C26.4975 11.7809 26.9203 11.7939 27.304 11.9422C27.6877 12.0904 28.0095 12.365 28.2162 12.7206C28.4229 13.0763 28.5023 13.4917 28.4413 13.8985C28.3802 14.3053 28.1824 14.6792 27.8804 14.9585C27.8558 15.4164 27.6841 15.8542 27.3907 16.2067C27.0973 16.5592 26.698 16.8075 26.252 16.9147C25.8061 17.0219 25.3375 16.9822 24.916 16.8016C24.4944 16.621 24.1425 16.3091 23.9125 15.9123Z" fill="black"/>
<path d="M27.1032 14.5847L27.177 14.5503C27.318 14.4929 27.4451 14.4059 27.5496 14.2951C27.654 14.1843 27.7335 14.0523 27.7824 13.9081C27.8314 13.7639 27.8488 13.6109 27.8335 13.4594C27.8181 13.3079 27.7703 13.1614 27.6934 13.03C27.6165 12.8986 27.5122 12.7852 27.3876 12.6977C27.263 12.6101 27.121 12.5503 26.9713 12.5224C26.8216 12.4946 26.6677 12.4992 26.5199 12.536C26.3721 12.5729 26.234 12.6411 26.1149 12.736L26.051 12.7802C25.9093 12.6553 25.7433 12.5609 25.5635 12.5029C25.3837 12.4449 25.1939 12.4246 25.0059 12.4431C24.8179 12.4616 24.6357 12.5186 24.4706 12.6106C24.3056 12.7026 24.1613 12.8275 24.0466 12.9777C23.932 13.1279 23.8495 13.3 23.8042 13.4835C23.759 13.6669 23.752 13.8577 23.7836 14.0439C23.8153 14.2302 23.885 14.4079 23.9883 14.5661C24.0916 14.7243 24.2264 14.8595 24.3842 14.9633C24.3976 15.1709 24.4581 15.3727 24.5612 15.5533C24.7468 15.8685 25.0497 16.0972 25.4036 16.1894C25.7576 16.2815 26.1336 16.2296 26.4493 16.045C26.6979 15.9012 26.8949 15.6827 27.0122 15.4205C27.1296 15.1584 27.1615 14.866 27.1032 14.5847Z" fill="white"/>
<path d="M14.526 23.6069C14.1334 23.3814 13.8158 23.0452 13.613 22.6404C13.4101 22.2356 13.331 21.78 13.3853 21.3304C13.2961 21.2911 13.2091 21.2468 13.1248 21.1977C12.8183 21.0231 12.5562 20.7802 12.3587 20.4879C12.1613 20.1956 12.0338 19.8617 11.9863 19.5122C11.9387 19.1627 11.9724 18.8069 12.0845 18.4725C12.1967 18.1381 12.3844 17.834 12.6331 17.5838C12.8436 17.3723 13.0944 17.2051 13.3706 17.0922C13.3125 16.6647 13.3758 16.2295 13.5531 15.8363C13.7305 15.443 14.0148 15.1076 14.3737 14.8682C14.7325 14.6287 15.1515 14.495 15.5827 14.4823C16.0139 14.4695 16.44 14.5782 16.8123 14.796C16.8956 14.8438 16.976 14.8964 17.0533 14.9534C17.4132 14.6761 17.8471 14.5115 18.3003 14.4804C18.7536 14.4493 19.2059 14.5531 19.6002 14.7787C19.9946 15.0043 20.3133 15.3415 20.5163 15.748C20.7193 16.1544 20.7974 16.6119 20.7409 17.0627C20.8302 17.102 20.9172 17.1463 21.0015 17.1954C21.3733 17.4084 21.6783 17.7211 21.8821 18.0981C22.0859 18.4751 22.1803 18.9015 22.1547 19.3293C22.1292 19.7571 21.9846 20.1693 21.7375 20.5194C21.4903 20.8695 21.1502 21.1435 20.7556 21.3108C20.7941 21.6082 20.7757 21.9102 20.7015 22.2007C20.6252 22.4932 20.4916 22.7677 20.3084 23.0082C20.1253 23.2487 19.8962 23.4506 19.6346 23.602C19.2834 23.8025 18.886 23.9079 18.4816 23.9079C18.0772 23.9079 17.6798 23.8025 17.3286 23.602C17.2453 23.5525 17.1649 23.4983 17.0877 23.4397C16.7259 23.7196 16.2888 23.885 15.8324 23.9148C15.376 23.9445 14.9211 23.8373 14.526 23.6069Z" fill="black"/>
<path d="M19.8473 20.7946C20.2724 20.7946 20.6801 20.6257 20.9807 20.3251C21.2813 20.0245 21.4502 19.6168 21.4502 19.1917C21.4502 18.7666 21.2813 18.3589 20.9807 18.0583C20.6801 17.7577 20.2724 17.5889 19.8473 17.5889C20.0586 17.2198 20.1146 16.782 20.003 16.3717C19.8914 15.9613 19.6214 15.6121 19.2524 15.4009C18.8834 15.1896 18.4455 15.1336 18.0352 15.2452C17.6249 15.3568 17.2757 15.6268 17.0644 15.9958C16.8499 15.6281 16.4981 15.3606 16.0864 15.2523C15.6747 15.1439 15.2368 15.2036 14.8691 15.4181C14.5013 15.6326 14.2339 15.9844 14.1255 16.3961C14.0172 16.8078 14.0768 17.2457 14.2914 17.6134C13.8662 17.6134 13.4585 17.7823 13.1579 18.0829C12.8574 18.3835 12.6885 18.7912 12.6885 19.2163C12.6885 19.6414 12.8574 20.0491 13.1579 20.3497C13.4585 20.6503 13.8662 20.8192 14.2914 20.8192C14.0964 21.1871 14.0523 21.6165 14.1684 22.0164C14.2845 22.4163 14.5516 22.7553 14.9133 22.9617C15.2749 23.1681 15.7027 23.2256 16.106 23.1221C16.5094 23.0187 16.8566 22.7623 17.0743 22.4073C17.1802 22.5894 17.3209 22.7488 17.4884 22.8765C17.6559 23.0042 17.8469 23.0977 18.0505 23.1516C18.2542 23.2054 18.4664 23.2187 18.6752 23.1905C18.8839 23.1624 19.0851 23.0934 19.2672 22.9875C19.4492 22.8816 19.6087 22.7409 19.7364 22.5734C19.8641 22.4059 19.9575 22.2148 20.0114 22.0112C20.0653 21.8076 20.0785 21.5953 20.0504 21.3866C20.0222 21.1778 19.9532 20.9767 19.8473 20.7946Z" fill="black"/>
<path d="M18.7749 20.1752C18.6788 20.3475 18.556 20.5035 18.4111 20.6374C18.158 20.8756 17.8463 21.0425 17.5078 21.1211C17.1692 21.1997 16.8159 21.1872 16.4837 21.0848C16.3391 21.0435 16.2003 20.9841 16.0707 20.9078C15.9394 20.8363 15.8186 20.747 15.7118 20.6423C15.4563 20.4072 15.2676 20.1087 15.1648 19.7771C15.062 19.4455 15.0489 19.0926 15.1267 18.7542C15.1672 18.5621 15.2386 18.3778 15.3381 18.2085C15.4342 18.0362 15.557 17.8802 15.7019 17.7463C15.955 17.5081 16.2667 17.3411 16.6053 17.2626C16.9438 17.184 17.2972 17.1965 17.6293 17.2989C17.7721 17.3388 17.9092 17.3966 18.0374 17.471C18.1673 17.547 18.2892 17.6359 18.4013 17.7365C18.7372 18.0405 18.9578 18.4512 19.0259 18.8991C19.094 19.347 19.0054 19.8047 18.7749 20.1949V20.1752Z" fill="black"/>
<path d="M17.0589 20.0128C17.5124 20.0128 17.88 19.6451 17.88 19.1917C17.88 18.7382 17.5124 18.3705 17.0589 18.3705C16.6054 18.3705 16.2378 18.7382 16.2378 19.1917C16.2378 19.6451 16.6054 20.0128 17.0589 20.0128Z" fill="white"/>
<path d="M19.0697 17.3233C19.0028 17.4435 18.9062 17.5445 18.7891 17.6168C18.6721 17.6891 18.5385 17.7302 18.4011 17.7363C18.289 17.6358 18.1671 17.5468 18.0372 17.4708C17.909 17.3964 17.7719 17.3386 17.6291 17.2987C17.5607 17.1737 17.526 17.033 17.5284 16.8904C17.5309 16.7479 17.5704 16.6085 17.6431 16.4859C17.7158 16.3633 17.8191 16.2617 17.943 16.1911C18.0668 16.1205 18.2069 16.0834 18.3494 16.0834C18.492 16.0834 18.6321 16.1205 18.7559 16.1911C18.8798 16.2617 18.9831 16.3633 19.0558 16.4859C19.1285 16.6085 19.168 16.7479 19.1704 16.8904C19.1729 17.033 19.1382 17.1737 19.0697 17.2987V17.3233Z" fill="black"/>
<path d="M16.4539 17.299C16.1674 17.3877 15.9051 17.5407 15.6869 17.7464C15.5495 17.7421 15.4156 17.7029 15.2977 17.6323C15.1798 17.5618 15.0819 17.4622 15.0133 17.3432C14.9412 17.2203 14.9023 17.0808 14.9005 16.9383C14.8986 16.7958 14.9339 16.6554 15.0028 16.5306C15.0717 16.4059 15.1719 16.3013 15.2935 16.227C15.415 16.1527 15.5539 16.1114 15.6963 16.107C15.8387 16.1026 15.9798 16.1354 16.1057 16.2021C16.2316 16.2687 16.338 16.367 16.4145 16.4873C16.4909 16.6075 16.5347 16.7456 16.5416 16.8879C16.5485 17.0302 16.5183 17.1719 16.4539 17.299Z" fill="black"/>
<path d="M15.1263 19.644C15.0537 19.7609 14.9522 19.8572 14.8317 19.9235C14.7111 19.9898 14.5755 20.0239 14.4379 20.0226C14.2956 20.0227 14.1558 19.9857 14.032 19.9154C13.9083 19.8451 13.805 19.7438 13.7322 19.6215C13.6594 19.4992 13.6197 19.3601 13.6169 19.2178C13.614 19.0756 13.6482 18.935 13.7161 18.8099C13.784 18.6848 13.8832 18.5795 14.004 18.5044C14.1248 18.4292 14.2631 18.3867 14.4053 18.3811C14.5475 18.3754 14.6887 18.4069 14.8151 18.4723C14.9415 18.5377 15.0488 18.6348 15.1263 18.7541C15.0583 19.0469 15.0583 19.3513 15.1263 19.644Z" fill="black"/>
<path d="M16.454 21.8712C16.4054 21.974 16.336 22.0657 16.2502 22.1405C16.1644 22.2153 16.0641 22.2715 15.9556 22.3057C15.8471 22.3399 15.7326 22.3513 15.6195 22.3392C15.5063 22.3271 15.3969 22.2918 15.2981 22.2354C15.1992 22.179 15.1131 22.1028 15.0451 22.0116C14.9771 21.9203 14.9287 21.816 14.9029 21.7052C14.8771 21.5944 14.8744 21.4794 14.8951 21.3675C14.9159 21.2556 14.9595 21.1492 15.0232 21.055C15.0928 20.9359 15.1906 20.8359 15.3082 20.7639C15.4257 20.6918 15.5592 20.6499 15.6968 20.642C15.8036 20.7466 15.9244 20.836 16.0558 20.9075C16.1854 20.9837 16.3242 21.0432 16.4688 21.0845C16.5328 21.2062 16.565 21.3422 16.5625 21.4797C16.5599 21.6173 16.5226 21.7519 16.454 21.8712Z" fill="black"/>
<path d="M18.79 22.1663C18.6014 22.2757 18.3771 22.306 18.1662 22.2508C17.9553 22.1955 17.7748 22.0591 17.664 21.8713C17.5977 21.7508 17.563 21.6155 17.563 21.4779C17.563 21.3404 17.5977 21.2051 17.664 21.0846C17.947 20.9945 18.2058 20.8415 18.4212 20.6371C18.5585 20.6414 18.6925 20.6807 18.8104 20.7512C18.9283 20.8218 19.0262 20.9213 19.0948 21.0403C19.1492 21.1341 19.1845 21.2378 19.1986 21.3453C19.2127 21.4529 19.2054 21.5622 19.1771 21.6668C19.1487 21.7715 19.0999 21.8696 19.0335 21.9553C18.9671 22.041 18.8843 22.1127 18.79 22.1663Z" fill="black"/>
<path d="M19.6791 20.003C19.5419 20.0052 19.4064 19.972 19.2858 19.9066C19.1652 19.8411 19.0636 19.7456 18.9907 19.6293C19.0572 19.3364 19.0572 19.0323 18.9907 18.7393C19.0634 18.6222 19.1648 18.5255 19.2852 18.4584C19.4056 18.3913 19.5412 18.356 19.6791 18.3558C19.8865 18.3719 20.0802 18.4656 20.2216 18.6183C20.3629 18.771 20.4414 18.9713 20.4414 19.1794C20.4414 19.3874 20.3629 19.5878 20.2216 19.7405C20.0802 19.8932 19.8865 19.9869 19.6791 20.003Z" fill="black"/>
<path d="M17.0987 6.86749C18.3918 6.86749 19.4425 7.94728 19.3423 9.63C19.2421 11.3127 17.0987 13.4973 17.0987 13.4973C17.0987 13.4973 14.9536 11.3151 14.855 9.63C14.7564 7.94485 15.8087 6.86749 17.0987 6.86749Z" fill="black" stroke="white" stroke-width="0.53" stroke-miterlimit="10" stroke-linecap="round"/>
<path d="M4.63281 19.3333C4.63281 18.0402 5.7126 16.9895 7.39532 17.0897C9.07804 17.1899 11.2627 19.3333 11.2627 19.3333C11.2627 19.3333 9.08047 21.4792 7.39532 21.5778C5.71017 21.6764 4.63281 20.6241 4.63281 19.3333Z" fill="black" stroke="white" stroke-width="0.53" stroke-miterlimit="10" stroke-linecap="round"/>
<path d="M17.0989 31.7998C15.8057 31.7998 14.755 30.7201 14.8553 29.0373C14.9555 27.3546 17.0989 25.17 17.0989 25.17C17.0989 25.17 19.2447 27.3522 19.3425 29.0373C19.4403 30.7225 18.3896 31.7998 17.0989 31.7998Z" fill="black" stroke="white" stroke-width="0.53" stroke-miterlimit="10" stroke-linecap="round"/>
<path d="M29.5644 19.3332C29.5644 20.6264 28.4846 21.6771 26.8019 21.5769C25.1192 21.4766 22.9346 19.3332 22.9346 19.3332C22.9346 19.3332 25.1168 17.1882 26.8019 17.0896C28.4871 16.991 29.5644 18.0433 29.5644 19.3332Z" fill="black" stroke="white" stroke-width="0.53" stroke-miterlimit="10" stroke-linecap="round"/>
<path d="M24.6927 19.3336C25.4872 18.4648 25.783 17.2218 25.4112 16.1452C25.0718 15.1616 24.2539 14.574 23.2242 14.574C22.9665 14.5761 22.71 14.6098 22.4604 14.6742C22.0253 14.7851 21.6102 14.9635 21.2303 15.2028C21.4693 14.8227 21.6476 14.4077 21.7589 13.9727C22.0264 12.9026 21.7055 12.1946 21.3903 11.7905C20.9304 11.2013 20.178 10.8635 19.3261 10.8635C18.5002 10.869 17.7057 11.1812 17.097 11.7396C16.4887 11.1812 15.6945 10.8689 14.8688 10.8635C14.0161 10.8635 13.2644 11.2013 12.8046 11.7905C12.4886 12.1946 12.1685 12.901 12.436 13.9727C12.5469 14.4078 12.7253 14.8229 12.9646 15.2028C12.5847 14.9639 12.17 14.7856 11.7353 14.6742C11.4859 14.6104 11.2297 14.5773 10.9723 14.5756C9.94184 14.5756 9.12392 15.1632 8.78446 16.1468C8.41268 17.2234 8.7093 18.4664 9.50378 19.3353C8.7093 20.2049 8.41349 21.4471 8.78446 22.5237C9.12473 23.5081 9.94184 24.0957 10.9723 24.0957C11.2297 24.094 11.4859 24.0609 11.7353 23.9971C12.1703 23.8858 12.5853 23.7075 12.9654 23.4685C12.7269 23.8478 12.5491 24.262 12.4384 24.6962C12.1709 25.7655 12.491 26.4743 12.807 26.8784C13.2669 27.4676 14.0193 27.8054 14.8712 27.8054C15.6969 27.8 16.4911 27.4877 17.0995 26.9293C17.7084 27.4873 18.5027 27.7995 19.3285 27.8054C20.1804 27.8054 20.9329 27.4676 21.3928 26.8784C21.708 26.4743 22.0288 25.7679 21.7613 24.6962C21.6501 24.2612 21.4717 23.8462 21.2327 23.4661C21.612 23.7051 22.0262 23.8837 22.4604 23.9955C22.7098 24.0593 22.966 24.0924 23.2234 24.0941C24.2539 24.0941 25.071 23.5065 25.4112 22.5229C25.783 21.4463 25.4872 20.2033 24.6927 19.3336Z" fill="black"/>
<path d="M17.045 17.7914C17.045 17.7914 20.64 16.4788 21.2963 13.8553C21.9525 11.2318 18.6194 10.4964 17.0935 12.4377C15.5716 10.498 12.2393 11.231 12.8956 13.8553C13.5519 16.4796 17.146 17.7914 17.146 17.7914" fill="white"/>
<path d="M17.0567 17.7913C17.0567 17.7913 19.9404 16.7406 20.4666 14.6336C20.9927 12.5266 18.3199 11.939 17.0987 13.4972C15.8783 11.939 13.2047 12.5274 13.7308 14.6336C14.257 16.7398 17.1407 17.7913 17.1407 17.7913" fill="white"/>
<path d="M17.0709 17.7913C17.0709 17.7913 18.992 17.0897 19.342 15.6899C19.692 14.2901 17.9123 13.8948 17.0984 14.9326C16.2853 13.8948 14.504 14.286 14.8548 15.6899C15.2055 17.0938 17.1267 17.7913 17.1267 17.7913" fill="black"/>
<path d="M15.5561 19.3858C15.5561 19.3858 14.2435 15.7908 11.6201 15.1353C8.99656 14.4799 8.26107 17.8114 10.2024 19.3332C8.26269 20.8559 8.99575 24.1882 11.6201 23.536C14.2444 22.8838 15.5561 19.2848 15.5561 19.2848" fill="white"/>
<path d="M15.5558 19.3761C15.5558 19.3761 14.5051 16.4915 12.3981 15.9654C10.291 15.4392 9.70345 18.1128 11.2617 19.3332C9.70345 20.5545 10.2918 23.2281 12.3981 22.7019C14.5043 22.1758 15.5558 19.2912 15.5558 19.2912" fill="white"/>
<path d="M15.5565 19.3615C15.5565 19.3615 14.8549 17.4403 13.4551 17.0896C12.0553 16.7388 11.66 18.5201 12.6978 19.3332C11.66 20.1471 12.0512 21.9276 13.4551 21.5776C14.859 21.2277 15.5565 19.3057 15.5565 19.3057" fill="black"/>
<path d="M17.1507 20.8761C17.1507 20.8761 13.5558 22.1878 12.9003 24.8121C12.2448 27.4364 15.5763 28.1711 17.0982 26.2314C18.6209 28.1711 21.9532 27.4389 21.301 24.8146C20.6487 22.1903 17.0497 20.8785 17.0497 20.8785" fill="white"/>
<path d="M17.1407 20.8761C17.1407 20.8761 14.257 21.9268 13.7308 24.0338C13.2047 26.1409 15.8783 26.7276 17.0987 25.1702C18.3199 26.7276 20.9935 26.1401 20.4666 24.0338C19.9396 21.9276 17.0567 20.8761 17.0567 20.8761" fill="white"/>
<path d="M17.1267 20.876C17.1267 20.876 15.2055 21.5776 14.8548 22.9774C14.504 24.3773 16.2853 24.7717 17.0984 23.7347C17.9123 24.7717 19.6928 24.3813 19.342 22.9774C18.9912 21.5735 17.0709 20.876 17.0709 20.876" fill="black"/>
<path d="M18.6401 19.2808C18.6401 19.2808 19.9519 22.8758 22.5762 23.532C25.2005 24.1883 25.9352 20.856 23.993 19.3293C25.9327 17.8074 25.2005 14.4751 22.5762 15.1314C19.9519 15.7876 18.6401 19.3818 18.6401 19.3818" fill="white"/>
<path d="M18.6401 19.2912C18.6401 19.2912 19.6908 22.175 21.7979 22.7011C23.9049 23.2273 24.4917 20.5545 22.9342 19.3332C24.4917 18.1128 23.9041 15.4392 21.7979 15.9654C19.6916 16.4915 18.6401 19.3753 18.6401 19.3753" fill="white"/>
<path d="M18.6401 19.3059C18.6401 19.3059 19.3409 21.227 20.7415 21.577C22.1422 21.927 22.5358 20.1473 21.498 19.3334C22.5358 18.5203 22.1446 16.7398 20.7415 17.0897C19.3384 17.4397 18.6401 19.3617 18.6401 19.3617" fill="black"/>
<path d="M17.0976 22.5316C16.465 22.5316 15.8467 22.344 15.3208 21.9926C14.7948 21.6412 14.3849 21.1417 14.1429 20.5573C13.9008 19.9729 13.8375 19.3299 13.9609 18.7095C14.0843 18.0892 14.3889 17.5193 14.8361 17.072C15.2834 16.6248 15.8533 16.3202 16.4736 16.1968C17.094 16.0734 17.737 16.1367 18.3214 16.3788C18.9058 16.6208 19.4053 17.0307 19.7567 17.5567C20.1081 18.0826 20.2957 18.7009 20.2957 19.3335C20.2948 20.1814 19.9576 20.9944 19.358 21.5939C18.7585 22.1935 17.9455 22.5307 17.0976 22.5316Z" fill="white"/>
<path d="M17.0981 21.5768C18.3372 21.5768 19.3417 20.5723 19.3417 19.3332C19.3417 18.094 18.3372 17.0895 17.0981 17.0895C15.859 17.0895 14.8545 18.094 14.8545 19.3332C14.8545 20.5723 15.859 21.5768 17.0981 21.5768Z" fill="black"/>
</svg>
